{
	"asset":{
		"generator":"Khronos glTF Blender I/O v4.4.56",
		"version":"2.0"
	},
	"extensionsUsed":[
		"KHR_materials_specular",
		"KHR_materials_ior"
	],
	"scene":0,
	"scenes":[
		{
			"name":"Scene",
			"nodes":[
				0,
				1
			]
		}
	],
	"nodes":[
		{
			"mesh":0,
			"name":"SM_MetalBars"
		},
		{
			"mesh":1,
			"name":"SM_Bench"
		}
	],
	"materials":[
		{
			"doubleSided":true,
			"extensions":{
				"KHR_materials_specular":{
					"specularColorFactor":[
						2.0,
						2.0,
						2.0
					]
				},
				"KHR_materials_ior":{
					"ior":1.4500000476837158
				}
			},
			"name":"M_Metal",
			"normalTexture":{
				"index":0,
				"scale":0.4000000059604645
			},
			"pbrMetallicRoughness":{
				"baseColorTexture":{
					"index":1
				},
				"metallicFactor":0,
				"metallicRoughnessTexture":{
					"index":2
				}
			}
		},
		{
			"doubleSided":true,
			"extensions":{
				"KHR_materials_specular":{
					"specularTexture":{
						"index":3
					}
				}
			},
			"name":"M_BenchWood1",
			"normalTexture":{
				"index":4
			},
			"pbrMetallicRoughness":{
				"baseColorTexture":{
					"index":5
				},
				"metallicFactor":0,
				"roughnessFactor":0.5
			}
		}
	],
	"meshes":[
		{
			"name":"MetalBars",
			"primitives":[
				{
					"attributes":{
						"POSITION":0,
						"NORMAL":1,
						"TEXCOORD_0":2
					},
					"indices":3,
					"material":0
				}
			]
		},
		{
			"name":"Bench",
			"primitives":[
				{
					"attributes":{
						"POSITION":4,
						"NORMAL":5,
						"TEXCOORD_0":6
					},
					"indices":7,
					"material":1
				}
			]
		}
	],
	"textures":[
		{
			"sampler":0,
			"source":0
		},
		{
			"sampler":0,
			"source":1
		},
		{
			"sampler":0,
			"source":2
		},
		{
			"sampler":0,
			"source":3
		},
		{
			"sampler":0,
			"source":4
		},
		{
			"sampler":0,
			"source":5
		}
	],
	"images":[
		{
			"mimeType":"image/jpeg",
			"name":"tiled_plane_DefaultMaterial_Normal",
			"uri":"tiled_plane_DefaultMaterial_Normal.jpg"
		},
		{
			"mimeType":"image/jpeg",
			"name":"tiled_plane_DefaultMaterial_BaseColor",
			"uri":"tiled_plane_DefaultMaterial_BaseColor.jpg"
		},
		{
			"mimeType":"image/png",
			"name":"tiled_plane_DefaultMaterial_Roughness",
			"uri":"tiled_plane_DefaultMaterial_Roughness.png"
		},
		{
			"mimeType":"image/png",
			"name":"BenchWood_Specular",
			"uri":"BenchWood_Specular.png"
		},
		{
			"mimeType":"image/png",
			"name":"BenchWood_Normal",
			"uri":"BenchWood_Normal.png"
		},
		{
			"mimeType":"image/png",
			"name":"BenchWood_Base",
			"uri":"BenchWood_Base.png"
		}
	],
	"accessors":[
		{
			"bufferView":0,
			"componentType":5126,
			"count":2475,
			"max":[
				3.839996099472046,
				2.3177828788757324,
				1.455413579940796
			],
			"min":[
				-3.8897640705108643,
				-2.127934455871582,
				-2.0134778022766113
			],
			"type":"VEC3"
		},
		{
			"bufferView":1,
			"componentType":5126,
			"count":2475,
			"type":"VEC3"
		},
		{
			"bufferView":2,
			"componentType":5126,
			"count":2475,
			"type":"VEC2"
		},
		{
			"bufferView":3,
			"componentType":5123,
			"count":10188,
			"type":"SCALAR"
		},
		{
			"bufferView":4,
			"componentType":5126,
			"count":264,
			"max":[
				3.9428470134735107,
				2.4362881183624268,
				1.4804877042770386
			],
			"min":[
				-4.003971099853516,
				-0.15123748779296875,
				-2.0294113159179688
			],
			"type":"VEC3"
		},
		{
			"bufferView":5,
			"componentType":5126,
			"count":264,
			"type":"VEC3"
		},
		{
			"bufferView":6,
			"componentType":5126,
			"count":264,
			"type":"VEC2"
		},
		{
			"bufferView":7,
			"componentType":5123,
			"count":396,
			"type":"SCALAR"
		}
	],
	"bufferViews":[
		{
			"buffer":0,
			"byteLength":29700,
			"byteOffset":0,
			"target":34962
		},
		{
			"buffer":0,
			"byteLength":29700,
			"byteOffset":29700,
			"target":34962
		},
		{
			"buffer":0,
			"byteLength":19800,
			"byteOffset":59400,
			"target":34962
		},
		{
			"buffer":0,
			"byteLength":20376,
			"byteOffset":79200,
			"target":34963
		},
		{
			"buffer":0,
			"byteLength":3168,
			"byteOffset":99576,
			"target":34962
		},
		{
			"buffer":0,
			"byteLength":3168,
			"byteOffset":102744,
			"target":34962
		},
		{
			"buffer":0,
			"byteLength":2112,
			"byteOffset":105912,
			"target":34962
		},
		{
			"buffer":0,
			"byteLength":792,
			"byteOffset":108024,
			"target":34963
		}
	],
	"samplers":[
		{
			"magFilter":9729,
			"minFilter":9987
		}
	],
	"buffers":[
		{
			"byteLength":108816,
			"uri":"Weathered%20Park%20Wooden%20Bench.bin"
		}
	]
}
