{
	"asset":{
		"generator":"Khronos glTF Blender I/O v4.3.47",
		"version":"2.0"
	},
	"scene":0,
	"scenes":[
		{
			"name":"Scene",
			"nodes":[
				3
			]
		}
	],
	"nodes":[
		{
			"mesh":0,
			"name":"Brick_Inset_Window_Curved_1-convcolonly"
		},
		{
			"mesh":1,
			"name":"Brick_Inset_Window_Curved_2-convcolonly"
		},
		{
			"mesh":2,
			"name":"Brick_Inset_Window_Curved_3-convcolonly"
		},
		{
			"children":[
				0,
				1,
				2
			],
			"mesh":3,
			"name":"Brick_Inset_Window_Curved"
		}
	],
	"materials":[
		{
			"doubleSided":true,
			"name":"Collision",
			"pbrMetallicRoughness":{
				"baseColorFactor":[
					0.036788325756788254,
					0.5504099726676941,
					0.8000074625015259,
					1
				],
				"metallicFactor":0
			}
		},
		{
			"doubleSided":true,
			"name":"MI_RedBrick_Pale",
			"normalTexture":{
				"index":0
			},
			"pbrMetallicRoughness":{
				"baseColorTexture":{
					"index":1
				},
				"metallicRoughnessTexture":{
					"index":2
				}
			}
		},
		{
			"doubleSided":true,
			"name":"MI_Trim",
			"normalTexture":{
				"index":3
			},
			"pbrMetallicRoughness":{
				"baseColorTexture":{
					"index":4
				},
				"metallicRoughnessTexture":{
					"index":5
				}
			}
		},
		{
			"alphaMode":"BLEND",
			"doubleSided":true,
			"name":"MI_Glass",
			"pbrMetallicRoughness":{
				"baseColorFactor":[
					0.05215025693178177,
					0.05215025693178177,
					0.05215025693178177,
					0.586363673210144
				],
				"metallicFactor":0,
				"roughnessFactor":0.5
			}
		},
		{
			"doubleSided":true,
			"name":"MI_FakeInterior",
			"pbrMetallicRoughness":{
				"baseColorFactor":[
					0.800000011920929,
					0.800000011920929,
					0.800000011920929,
					1
				],
				"metallicFactor":0,
				"roughnessFactor":0.5
			}
		},
		{
			"doubleSided":true,
			"name":"MI_InteriorWall",
			"normalTexture":{
				"index":6
			},
			"pbrMetallicRoughness":{
				"baseColorTexture":{
					"index":7
				},
				"metallicRoughnessTexture":{
					"index":8
				}
			}
		}
	],
	"meshes":[
		{
			"name":"Cube.360",
			"primitives":[
				{
					"attributes":{
						"POSITION":0,
						"NORMAL":1,
						"TEXCOORD_0":2
					},
					"indices":3,
					"material":0
				}
			]
		},
		{
			"name":"Cube.361",
			"primitives":[
				{
					"attributes":{
						"POSITION":4,
						"NORMAL":5,
						"TEXCOORD_0":6
					},
					"indices":7,
					"material":0
				}
			]
		},
		{
			"name":"Cube.362",
			"primitives":[
				{
					"attributes":{
						"POSITION":8,
						"NORMAL":9,
						"TEXCOORD_0":10
					},
					"indices":11,
					"material":0
				}
			]
		},
		{
			"name":"Cube.221",
			"primitives":[
				{
					"attributes":{
						"POSITION":12,
						"NORMAL":13,
						"TEXCOORD_0":14,
						"TEXCOORD_1":15,
						"COLOR_0":16
					},
					"indices":17,
					"material":1
				},
				{
					"attributes":{
						"POSITION":18,
						"NORMAL":19,
						"TEXCOORD_0":20,
						"TEXCOORD_1":21,
						"COLOR_0":22
					},
					"indices":23,
					"material":2
				},
				{
					"attributes":{
						"POSITION":24,
						"NORMAL":25,
						"TEXCOORD_0":26,
						"TEXCOORD_1":27,
						"COLOR_0":28
					},
					"indices":29,
					"material":3
				},
				{
					"attributes":{
						"POSITION":30,
						"NORMAL":31,
						"TEXCOORD_0":32,
						"TEXCOORD_1":33,
						"COLOR_0":34
					},
					"indices":35,
					"material":4
				},
				{
					"attributes":{
						"POSITION":36,
						"NORMAL":37,
						"TEXCOORD_0":38,
						"TEXCOORD_1":39,
						"COLOR_0":40
					},
					"indices":41,
					"material":5
				}
			]
		}
	],
	"textures":[
		{
			"sampler":0,
			"source":0
		},
		{
			"sampler":0,
			"source":1
		},
		{
			"sampler":0,
			"source":2
		},
		{
			"sampler":0,
			"source":3
		},
		{
			"sampler":0,
			"source":4
		},
		{
			"sampler":0,
			"source":5
		},
		{
			"sampler":0,
			"source":0
		},
		{
			"sampler":0,
			"source":1
		},
		{
			"sampler":0,
			"source":2
		}
	],
	"images":[
		{
			"mimeType":"image/png",
			"name":"T_RedBrick_Normal",
			"uri":"../../materials/T_RedBrick_Normal.png"
		},
		{
			"mimeType":"image/png",
			"name":"T_RedBrick_BaseColor",
			"uri":"../../materials/T_RedBrick_BaseColor.png"
		},
		{
			"mimeType":"image/png",
			"name":"T_RedBrick_ORM",
			"uri":"../../materials/T_RedBrick_ORM.png"
		},
		{
			"mimeType":"image/png",
			"name":"T_Trim_Normal",
			"uri":"../../materials/T_Trim_Normal.png"
		},
		{
			"mimeType":"image/png",
			"name":"T_Trim_BaseColor",
			"uri":"../../materials/T_Trim_BaseColor.png"
		},
		{
			"mimeType":"image/png",
			"name":"T_Trim_ORM",
			"uri":"../../materials/T_Trim_ORM.png"
		}
	],
	"accessors":[
		{
			"bufferView":0,
			"componentType":5126,
			"count":24,
			"max":[
				2.0000007152557373,
				3,
				0
			],
			"min":[
				-2.0000007152557373,
				0,
				-0.19999998807907104
			],
			"type":"VEC3"
		},
		{
			"bufferView":1,
			"componentType":5126,
			"count":24,
			"type":"VEC3"
		},
		{
			"bufferView":2,
			"componentType":5126,
			"count":24,
			"type":"VEC2"
		},
		{
			"bufferView":3,
			"componentType":5123,
			"count":36,
			"type":"SCALAR"
		},
		{
			"bufferView":4,
			"componentType":5126,
			"count":24,
			"max":[
				0.9394919872283936,
				0.8144771456718445,
				0.13558900356292725
			],
			"min":[
				-0.9394919872283936,
				0.6906378269195557,
				-0.05077381432056427
			],
			"type":"VEC3"
		},
		{
			"bufferView":5,
			"componentType":5126,
			"count":24,
			"type":"VEC3"
		},
		{
			"bufferView":6,
			"componentType":5126,
			"count":24,
			"type":"VEC2"
		},
		{
			"bufferView":7,
			"componentType":5123,
			"count":36,
			"type":"SCALAR"
		},
		{
			"bufferView":8,
			"componentType":5126,
			"count":54,
			"max":[
				0.8114220499992371,
				2.248292922973633,
				-0.18444159626960754
			],
			"min":[
				-0.8114234805107117,
				0.8096382021903992,
				-0.25092756748199463
			],
			"type":"VEC3"
		},
		{
			"bufferView":9,
			"componentType":5126,
			"count":54,
			"type":"VEC3"
		},
		{
			"bufferView":10,
			"componentType":5126,
			"count":54,
			"type":"VEC2"
		},
		{
			"bufferView":11,
			"componentType":5123,
			"count":108,
			"type":"SCALAR"
		},
		{
			"bufferView":12,
			"componentType":5126,
			"count":105,
			"max":[
				2,
				2.6658434867858887,
				0
			],
			"min":[
				-2,
				-1.6292068139023286e-08,
				-0.10000031441450119
			],
			"type":"VEC3"
		},
		{
			"bufferView":13,
			"componentType":5126,
			"count":105,
			"type":"VEC3"
		},
		{
			"bufferView":14,
			"componentType":5126,
			"count":105,
			"type":"VEC2"
		},
		{
			"bufferView":15,
			"componentType":5126,
			"count":105,
			"type":"VEC2"
		},
		{
			"bufferView":16,
			"componentType":5123,
			"count":105,
			"normalized":true,
			"type":"VEC4"
		},
		{
			"bufferView":17,
			"componentType":5123,
			"count":228,
			"type":"SCALAR"
		},
		{
			"bufferView":18,
			"componentType":5126,
			"count":757,
			"max":[
				2,
				3,
				0.1316288858652115
			],
			"min":[
				-2,
				0.6938724517822266,
				-0.24205341935157776
			],
			"type":"VEC3"
		},
		{
			"bufferView":19,
			"componentType":5126,
			"count":757,
			"type":"VEC3"
		},
		{
			"bufferView":20,
			"componentType":5126,
			"count":757,
			"type":"VEC2"
		},
		{
			"bufferView":21,
			"componentType":5126,
			"count":757,
			"type":"VEC2"
		},
		{
			"bufferView":22,
			"componentType":5123,
			"count":757,
			"normalized":true,
			"type":"VEC4"
		},
		{
			"bufferView":23,
			"componentType":5123,
			"count":1590,
			"type":"SCALAR"
		},
		{
			"bufferView":24,
			"componentType":5126,
			"count":36,
			"max":[
				0.7760517597198486,
				2.2128353118896484,
				-0.13229890167713165
			],
			"min":[
				-0.7760517597198486,
				0.8391322493553162,
				-0.133418470621109
			],
			"type":"VEC3"
		},
		{
			"bufferView":25,
			"componentType":5126,
			"count":36,
			"type":"VEC3"
		},
		{
			"bufferView":26,
			"componentType":5126,
			"count":36,
			"type":"VEC2"
		},
		{
			"bufferView":27,
			"componentType":5126,
			"count":36,
			"type":"VEC2"
		},
		{
			"bufferView":28,
			"componentType":5123,
			"count":36,
			"normalized":true,
			"type":"VEC4"
		},
		{
			"bufferView":29,
			"componentType":5123,
			"count":72,
			"type":"SCALAR"
		},
		{
			"bufferView":30,
			"componentType":5126,
			"count":4,
			"max":[
				1.4260249137878418,
				2.8027091026306152,
				-0.19701145589351654
			],
			"min":[
				-1.4260249137878418,
				0.022595254704356194,
				-0.19701191782951355
			],
			"type":"VEC3"
		},
		{
			"bufferView":31,
			"componentType":5126,
			"count":4,
			"type":"VEC3"
		},
		{
			"bufferView":32,
			"componentType":5126,
			"count":4,
			"type":"VEC2"
		},
		{
			"bufferView":33,
			"componentType":5126,
			"count":4,
			"type":"VEC2"
		},
		{
			"bufferView":34,
			"componentType":5123,
			"count":4,
			"normalized":true,
			"type":"VEC4"
		},
		{
			"bufferView":35,
			"componentType":5123,
			"count":6,
			"type":"SCALAR"
		},
		{
			"bufferView":36,
			"componentType":5126,
			"count":32,
			"max":[
				2,
				3.000000476837158,
				-0.2000000923871994
			],
			"min":[
				-2,
				0,
				-0.2000001072883606
			],
			"type":"VEC3"
		},
		{
			"bufferView":37,
			"componentType":5126,
			"count":32,
			"type":"VEC3"
		},
		{
			"bufferView":38,
			"componentType":5126,
			"count":32,
			"type":"VEC2"
		},
		{
			"bufferView":39,
			"componentType":5126,
			"count":32,
			"type":"VEC2"
		},
		{
			"bufferView":40,
			"componentType":5123,
			"count":32,
			"normalized":true,
			"type":"VEC4"
		},
		{
			"bufferView":41,
			"componentType":5123,
			"count":72,
			"type":"SCALAR"
		}
	],
	"bufferViews":[
		{
			"buffer":0,
			"byteLength":288,
			"byteOffset":0,
			"target":34962
		},
		{
			"buffer":0,
			"byteLength":288,
			"byteOffset":288,
			"target":34962
		},
		{
			"buffer":0,
			"byteLength":192,
			"byteOffset":576,
			"target":34962
		},
		{
			"buffer":0,
			"byteLength":72,
			"byteOffset":768,
			"target":34963
		},
		{
			"buffer":0,
			"byteLength":288,
			"byteOffset":840,
			"target":34962
		},
		{
			"buffer":0,
			"byteLength":288,
			"byteOffset":1128,
			"target":34962
		},
		{
			"buffer":0,
			"byteLength":192,
			"byteOffset":1416,
			"target":34962
		},
		{
			"buffer":0,
			"byteLength":72,
			"byteOffset":1608,
			"target":34963
		},
		{
			"buffer":0,
			"byteLength":648,
			"byteOffset":1680,
			"target":34962
		},
		{
			"buffer":0,
			"byteLength":648,
			"byteOffset":2328,
			"target":34962
		},
		{
			"buffer":0,
			"byteLength":432,
			"byteOffset":2976,
			"target":34962
		},
		{
			"buffer":0,
			"byteLength":216,
			"byteOffset":3408,
			"target":34963
		},
		{
			"buffer":0,
			"byteLength":1260,
			"byteOffset":3624,
			"target":34962
		},
		{
			"buffer":0,
			"byteLength":1260,
			"byteOffset":4884,
			"target":34962
		},
		{
			"buffer":0,
			"byteLength":840,
			"byteOffset":6144,
			"target":34962
		},
		{
			"buffer":0,
			"byteLength":840,
			"byteOffset":6984,
			"target":34962
		},
		{
			"buffer":0,
			"byteLength":840,
			"byteOffset":7824,
			"target":34962
		},
		{
			"buffer":0,
			"byteLength":456,
			"byteOffset":8664,
			"target":34963
		},
		{
			"buffer":0,
			"byteLength":9084,
			"byteOffset":9120,
			"target":34962
		},
		{
			"buffer":0,
			"byteLength":9084,
			"byteOffset":18204,
			"target":34962
		},
		{
			"buffer":0,
			"byteLength":6056,
			"byteOffset":27288,
			"target":34962
		},
		{
			"buffer":0,
			"byteLength":6056,
			"byteOffset":33344,
			"target":34962
		},
		{
			"buffer":0,
			"byteLength":6056,
			"byteOffset":39400,
			"target":34962
		},
		{
			"buffer":0,
			"byteLength":3180,
			"byteOffset":45456,
			"target":34963
		},
		{
			"buffer":0,
			"byteLength":432,
			"byteOffset":48636,
			"target":34962
		},
		{
			"buffer":0,
			"byteLength":432,
			"byteOffset":49068,
			"target":34962
		},
		{
			"buffer":0,
			"byteLength":288,
			"byteOffset":49500,
			"target":34962
		},
		{
			"buffer":0,
			"byteLength":288,
			"byteOffset":49788,
			"target":34962
		},
		{
			"buffer":0,
			"byteLength":288,
			"byteOffset":50076,
			"target":34962
		},
		{
			"buffer":0,
			"byteLength":144,
			"byteOffset":50364,
			"target":34963
		},
		{
			"buffer":0,
			"byteLength":48,
			"byteOffset":50508,
			"target":34962
		},
		{
			"buffer":0,
			"byteLength":48,
			"byteOffset":50556,
			"target":34962
		},
		{
			"buffer":0,
			"byteLength":32,
			"byteOffset":50604,
			"target":34962
		},
		{
			"buffer":0,
			"byteLength":32,
			"byteOffset":50636,
			"target":34962
		},
		{
			"buffer":0,
			"byteLength":32,
			"byteOffset":50668,
			"target":34962
		},
		{
			"buffer":0,
			"byteLength":12,
			"byteOffset":50700,
			"target":34963
		},
		{
			"buffer":0,
			"byteLength":384,
			"byteOffset":50712,
			"target":34962
		},
		{
			"buffer":0,
			"byteLength":384,
			"byteOffset":51096,
			"target":34962
		},
		{
			"buffer":0,
			"byteLength":256,
			"byteOffset":51480,
			"target":34962
		},
		{
			"buffer":0,
			"byteLength":256,
			"byteOffset":51736,
			"target":34962
		},
		{
			"buffer":0,
			"byteLength":256,
			"byteOffset":51992,
			"target":34962
		},
		{
			"buffer":0,
			"byteLength":144,
			"byteOffset":52248,
			"target":34963
		}
	],
	"samplers":[
		{
			"magFilter":9729,
			"minFilter":9987
		}
	],
	"buffers":[
		{
			"byteLength":52392,
			"uri":"Brick_Inset_Window_Curved.bin"
		}
	]
}
