{
	"asset":{
		"generator":"Khronos glTF Blender I/O v4.3.47",
		"version":"2.0"
	},
	"scene":0,
	"scenes":[
		{
			"name":"Scene",
			"nodes":[
				3
			]
		}
	],
	"nodes":[
		{
			"mesh":0,
			"name":"Brick_Inset_Window_Curved_Small_1-convcolonly"
		},
		{
			"mesh":1,
			"name":"Brick_Inset_Window_Curved_Small_2-convcolonly"
		},
		{
			"mesh":2,
			"name":"Brick_Inset_Window_Curved_Small_3-convcolonly"
		},
		{
			"children":[
				0,
				1,
				2
			],
			"mesh":3,
			"name":"Brick_Inset_Window_Curved_Small"
		}
	],
	"materials":[
		{
			"doubleSided":true,
			"name":"Collision",
			"pbrMetallicRoughness":{
				"baseColorFactor":[
					0.036788325756788254,
					0.5504099726676941,
					0.8000074625015259,
					1
				],
				"metallicFactor":0
			}
		},
		{
			"doubleSided":true,
			"name":"MI_RedBrick_Pale",
			"normalTexture":{
				"index":0
			},
			"pbrMetallicRoughness":{
				"baseColorTexture":{
					"index":1
				},
				"metallicRoughnessTexture":{
					"index":2
				}
			}
		},
		{
			"doubleSided":true,
			"name":"MI_Trim",
			"normalTexture":{
				"index":3
			},
			"pbrMetallicRoughness":{
				"baseColorTexture":{
					"index":4
				},
				"metallicRoughnessTexture":{
					"index":5
				}
			}
		},
		{
			"alphaMode":"BLEND",
			"doubleSided":true,
			"name":"MI_Glass",
			"pbrMetallicRoughness":{
				"baseColorFactor":[
					0.05215025693178177,
					0.05215025693178177,
					0.05215025693178177,
					0.586363673210144
				],
				"metallicFactor":0,
				"roughnessFactor":0.5
			}
		},
		{
			"doubleSided":true,
			"name":"MI_InteriorWall",
			"normalTexture":{
				"index":6
			},
			"pbrMetallicRoughness":{
				"baseColorTexture":{
					"index":7
				},
				"metallicRoughnessTexture":{
					"index":8
				}
			}
		},
		{
			"doubleSided":true,
			"name":"MI_FakeInterior",
			"pbrMetallicRoughness":{
				"baseColorFactor":[
					0.800000011920929,
					0.800000011920929,
					0.800000011920929,
					1
				],
				"metallicFactor":0,
				"roughnessFactor":0.5
			}
		}
	],
	"meshes":[
		{
			"name":"Cube.325",
			"primitives":[
				{
					"attributes":{
						"POSITION":0,
						"NORMAL":1,
						"TEXCOORD_0":2
					},
					"indices":3,
					"material":0
				}
			]
		},
		{
			"name":"Cube.348",
			"primitives":[
				{
					"attributes":{
						"POSITION":4,
						"NORMAL":5,
						"TEXCOORD_0":6
					},
					"indices":7,
					"material":0
				}
			]
		},
		{
			"name":"Cube.358",
			"primitives":[
				{
					"attributes":{
						"POSITION":8,
						"NORMAL":9,
						"TEXCOORD_0":10
					},
					"indices":11,
					"material":0
				}
			]
		},
		{
			"name":"Cube.205",
			"primitives":[
				{
					"attributes":{
						"POSITION":12,
						"NORMAL":13,
						"TEXCOORD_0":14,
						"TEXCOORD_1":15,
						"COLOR_0":16,
						"COLOR_1":17
					},
					"indices":18,
					"material":1
				},
				{
					"attributes":{
						"POSITION":19,
						"NORMAL":20,
						"TEXCOORD_0":21,
						"TEXCOORD_1":22,
						"COLOR_0":23,
						"COLOR_1":24
					},
					"indices":25,
					"material":2
				},
				{
					"attributes":{
						"POSITION":26,
						"NORMAL":27,
						"TEXCOORD_0":28,
						"TEXCOORD_1":29,
						"COLOR_0":30,
						"COLOR_1":31
					},
					"indices":32,
					"material":3
				},
				{
					"attributes":{
						"POSITION":33,
						"NORMAL":34,
						"TEXCOORD_0":35,
						"TEXCOORD_1":36,
						"COLOR_0":37,
						"COLOR_1":38
					},
					"indices":39,
					"material":4
				},
				{
					"attributes":{
						"POSITION":40,
						"NORMAL":41,
						"TEXCOORD_0":42,
						"TEXCOORD_1":43,
						"COLOR_0":44,
						"COLOR_1":45
					},
					"indices":46,
					"material":5
				}
			]
		}
	],
	"textures":[
		{
			"sampler":0,
			"source":0
		},
		{
			"sampler":0,
			"source":1
		},
		{
			"sampler":0,
			"source":2
		},
		{
			"sampler":0,
			"source":3
		},
		{
			"sampler":0,
			"source":4
		},
		{
			"sampler":0,
			"source":5
		},
		{
			"sampler":0,
			"source":0
		},
		{
			"sampler":0,
			"source":1
		},
		{
			"sampler":0,
			"source":2
		}
	],
	"images":[
		{
			"mimeType":"image/png",
			"name":"T_RedBrick_Normal",
			"uri":"../../materials/T_RedBrick_Normal.png"
		},
		{
			"mimeType":"image/png",
			"name":"T_RedBrick_BaseColor",
			"uri":"../../materials/T_RedBrick_BaseColor.png"
		},
		{
			"mimeType":"image/png",
			"name":"T_RedBrick_ORM",
			"uri":"../../materials/T_RedBrick_ORM.png"
		},
		{
			"mimeType":"image/png",
			"name":"T_Trim_Normal",
			"uri":"../../materials/T_Trim_Normal.png"
		},
		{
			"mimeType":"image/png",
			"name":"T_Trim_BaseColor",
			"uri":"../../materials/T_Trim_BaseColor.png"
		},
		{
			"mimeType":"image/png",
			"name":"T_Trim_ORM",
			"uri":"../../materials/T_Trim_ORM.png"
		}
	],
	"accessors":[
		{
			"bufferView":0,
			"componentType":5126,
			"count":24,
			"max":[
				2.0000007152557373,
				3,
				0
			],
			"min":[
				-2.0000007152557373,
				0,
				-0.19999998807907104
			],
			"type":"VEC3"
		},
		{
			"bufferView":1,
			"componentType":5126,
			"count":24,
			"type":"VEC3"
		},
		{
			"bufferView":2,
			"componentType":5126,
			"count":24,
			"type":"VEC2"
		},
		{
			"bufferView":3,
			"componentType":5123,
			"count":36,
			"type":"SCALAR"
		},
		{
			"bufferView":4,
			"componentType":5126,
			"count":24,
			"max":[
				0.654890775680542,
				0.6674064993858337,
				0.1006021499633789
			],
			"min":[
				-0.654890775680542,
				0.5667679905891418,
				-0.05077381432056427
			],
			"type":"VEC3"
		},
		{
			"bufferView":5,
			"componentType":5126,
			"count":24,
			"type":"VEC3"
		},
		{
			"bufferView":6,
			"componentType":5126,
			"count":24,
			"type":"VEC2"
		},
		{
			"bufferView":7,
			"componentType":5123,
			"count":36,
			"type":"SCALAR"
		},
		{
			"bufferView":8,
			"componentType":5126,
			"count":34,
			"max":[
				0.4189334809780121,
				1.8729090690612793,
				-0.18444159626960754
			],
			"min":[
				-0.4189349114894867,
				0.6346719861030579,
				-0.25092756748199463
			],
			"type":"VEC3"
		},
		{
			"bufferView":9,
			"componentType":5126,
			"count":34,
			"type":"VEC3"
		},
		{
			"bufferView":10,
			"componentType":5126,
			"count":34,
			"type":"VEC2"
		},
		{
			"bufferView":11,
			"componentType":5123,
			"count":60,
			"type":"SCALAR"
		},
		{
			"bufferView":12,
			"componentType":5126,
			"count":68,
			"max":[
				2,
				2.6658434867858887,
				1.1652771547687735e-07
			],
			"min":[
				-2,
				0,
				-0.10000000149011612
			],
			"type":"VEC3"
		},
		{
			"bufferView":13,
			"componentType":5126,
			"count":68,
			"type":"VEC3"
		},
		{
			"bufferView":14,
			"componentType":5126,
			"count":68,
			"type":"VEC2"
		},
		{
			"bufferView":15,
			"componentType":5126,
			"count":68,
			"type":"VEC2"
		},
		{
			"bufferView":16,
			"componentType":5121,
			"count":68,
			"normalized":true,
			"type":"VEC4"
		},
		{
			"bufferView":17,
			"componentType":5123,
			"count":68,
			"normalized":true,
			"type":"VEC4"
		},
		{
			"bufferView":18,
			"componentType":5123,
			"count":132,
			"type":"SCALAR"
		},
		{
			"bufferView":19,
			"componentType":5126,
			"count":647,
			"max":[
				2,
				3,
				0.09856842458248138
			],
			"min":[
				-2,
				0.567543089389801,
				-0.24406950175762177
			],
			"type":"VEC3"
		},
		{
			"bufferView":20,
			"componentType":5126,
			"count":647,
			"type":"VEC3"
		},
		{
			"bufferView":21,
			"componentType":5126,
			"count":647,
			"type":"VEC2"
		},
		{
			"bufferView":22,
			"componentType":5126,
			"count":647,
			"type":"VEC2"
		},
		{
			"bufferView":23,
			"componentType":5121,
			"count":647,
			"normalized":true,
			"type":"VEC4"
		},
		{
			"bufferView":24,
			"componentType":5123,
			"count":647,
			"normalized":true,
			"type":"VEC4"
		},
		{
			"bufferView":25,
			"componentType":5123,
			"count":1434,
			"type":"SCALAR"
		},
		{
			"bufferView":26,
			"componentType":5126,
			"count":32,
			"max":[
				0.37680667638778687,
				1.8261065483093262,
				-0.11225287616252899
			],
			"min":[
				-0.37680667638778687,
				0.678891658782959,
				-0.11225287616252899
			],
			"type":"VEC3"
		},
		{
			"bufferView":27,
			"componentType":5126,
			"count":32,
			"type":"VEC3"
		},
		{
			"bufferView":28,
			"componentType":5126,
			"count":32,
			"type":"VEC2"
		},
		{
			"bufferView":29,
			"componentType":5126,
			"count":32,
			"type":"VEC2"
		},
		{
			"bufferView":30,
			"componentType":5121,
			"count":32,
			"normalized":true,
			"type":"VEC4"
		},
		{
			"bufferView":31,
			"componentType":5123,
			"count":32,
			"normalized":true,
			"type":"VEC4"
		},
		{
			"bufferView":32,
			"componentType":5123,
			"count":72,
			"type":"SCALAR"
		},
		{
			"bufferView":33,
			"componentType":5126,
			"count":28,
			"max":[
				2,
				3.000000476837158,
				-0.2000000923871994
			],
			"min":[
				-2,
				0,
				-0.2000000923871994
			],
			"type":"VEC3"
		},
		{
			"bufferView":34,
			"componentType":5126,
			"count":28,
			"type":"VEC3"
		},
		{
			"bufferView":35,
			"componentType":5126,
			"count":28,
			"type":"VEC2"
		},
		{
			"bufferView":36,
			"componentType":5126,
			"count":28,
			"type":"VEC2"
		},
		{
			"bufferView":37,
			"componentType":5121,
			"count":28,
			"normalized":true,
			"type":"VEC4"
		},
		{
			"bufferView":38,
			"componentType":5123,
			"count":28,
			"normalized":true,
			"type":"VEC4"
		},
		{
			"bufferView":39,
			"componentType":5123,
			"count":60,
			"type":"SCALAR"
		},
		{
			"bufferView":40,
			"componentType":5126,
			"count":4,
			"max":[
				0.9625167846679688,
				2.8027091026306152,
				-0.19275686144828796
			],
			"min":[
				-0.9625167846679688,
				0.02259528636932373,
				-0.19275686144828796
			],
			"type":"VEC3"
		},
		{
			"bufferView":41,
			"componentType":5126,
			"count":4,
			"type":"VEC3"
		},
		{
			"bufferView":42,
			"componentType":5126,
			"count":4,
			"type":"VEC2"
		},
		{
			"bufferView":43,
			"componentType":5126,
			"count":4,
			"type":"VEC2"
		},
		{
			"bufferView":44,
			"componentType":5121,
			"count":4,
			"normalized":true,
			"type":"VEC4"
		},
		{
			"bufferView":45,
			"componentType":5123,
			"count":4,
			"normalized":true,
			"type":"VEC4"
		},
		{
			"bufferView":46,
			"componentType":5123,
			"count":6,
			"type":"SCALAR"
		}
	],
	"bufferViews":[
		{
			"buffer":0,
			"byteLength":288,
			"byteOffset":0,
			"target":34962
		},
		{
			"buffer":0,
			"byteLength":288,
			"byteOffset":288,
			"target":34962
		},
		{
			"buffer":0,
			"byteLength":192,
			"byteOffset":576,
			"target":34962
		},
		{
			"buffer":0,
			"byteLength":72,
			"byteOffset":768,
			"target":34963
		},
		{
			"buffer":0,
			"byteLength":288,
			"byteOffset":840,
			"target":34962
		},
		{
			"buffer":0,
			"byteLength":288,
			"byteOffset":1128,
			"target":34962
		},
		{
			"buffer":0,
			"byteLength":192,
			"byteOffset":1416,
			"target":34962
		},
		{
			"buffer":0,
			"byteLength":72,
			"byteOffset":1608,
			"target":34963
		},
		{
			"buffer":0,
			"byteLength":408,
			"byteOffset":1680,
			"target":34962
		},
		{
			"buffer":0,
			"byteLength":408,
			"byteOffset":2088,
			"target":34962
		},
		{
			"buffer":0,
			"byteLength":272,
			"byteOffset":2496,
			"target":34962
		},
		{
			"buffer":0,
			"byteLength":120,
			"byteOffset":2768,
			"target":34963
		},
		{
			"buffer":0,
			"byteLength":816,
			"byteOffset":2888,
			"target":34962
		},
		{
			"buffer":0,
			"byteLength":816,
			"byteOffset":3704,
			"target":34962
		},
		{
			"buffer":0,
			"byteLength":544,
			"byteOffset":4520,
			"target":34962
		},
		{
			"buffer":0,
			"byteLength":544,
			"byteOffset":5064,
			"target":34962
		},
		{
			"buffer":0,
			"byteLength":272,
			"byteOffset":5608,
			"target":34962
		},
		{
			"buffer":0,
			"byteLength":544,
			"byteOffset":5880,
			"target":34962
		},
		{
			"buffer":0,
			"byteLength":264,
			"byteOffset":6424,
			"target":34963
		},
		{
			"buffer":0,
			"byteLength":7764,
			"byteOffset":6688,
			"target":34962
		},
		{
			"buffer":0,
			"byteLength":7764,
			"byteOffset":14452,
			"target":34962
		},
		{
			"buffer":0,
			"byteLength":5176,
			"byteOffset":22216,
			"target":34962
		},
		{
			"buffer":0,
			"byteLength":5176,
			"byteOffset":27392,
			"target":34962
		},
		{
			"buffer":0,
			"byteLength":2588,
			"byteOffset":32568,
			"target":34962
		},
		{
			"buffer":0,
			"byteLength":5176,
			"byteOffset":35156,
			"target":34962
		},
		{
			"buffer":0,
			"byteLength":2868,
			"byteOffset":40332,
			"target":34963
		},
		{
			"buffer":0,
			"byteLength":384,
			"byteOffset":43200,
			"target":34962
		},
		{
			"buffer":0,
			"byteLength":384,
			"byteOffset":43584,
			"target":34962
		},
		{
			"buffer":0,
			"byteLength":256,
			"byteOffset":43968,
			"target":34962
		},
		{
			"buffer":0,
			"byteLength":256,
			"byteOffset":44224,
			"target":34962
		},
		{
			"buffer":0,
			"byteLength":128,
			"byteOffset":44480,
			"target":34962
		},
		{
			"buffer":0,
			"byteLength":256,
			"byteOffset":44608,
			"target":34962
		},
		{
			"buffer":0,
			"byteLength":144,
			"byteOffset":44864,
			"target":34963
		},
		{
			"buffer":0,
			"byteLength":336,
			"byteOffset":45008,
			"target":34962
		},
		{
			"buffer":0,
			"byteLength":336,
			"byteOffset":45344,
			"target":34962
		},
		{
			"buffer":0,
			"byteLength":224,
			"byteOffset":45680,
			"target":34962
		},
		{
			"buffer":0,
			"byteLength":224,
			"byteOffset":45904,
			"target":34962
		},
		{
			"buffer":0,
			"byteLength":112,
			"byteOffset":46128,
			"target":34962
		},
		{
			"buffer":0,
			"byteLength":224,
			"byteOffset":46240,
			"target":34962
		},
		{
			"buffer":0,
			"byteLength":120,
			"byteOffset":46464,
			"target":34963
		},
		{
			"buffer":0,
			"byteLength":48,
			"byteOffset":46584,
			"target":34962
		},
		{
			"buffer":0,
			"byteLength":48,
			"byteOffset":46632,
			"target":34962
		},
		{
			"buffer":0,
			"byteLength":32,
			"byteOffset":46680,
			"target":34962
		},
		{
			"buffer":0,
			"byteLength":32,
			"byteOffset":46712,
			"target":34962
		},
		{
			"buffer":0,
			"byteLength":16,
			"byteOffset":46744,
			"target":34962
		},
		{
			"buffer":0,
			"byteLength":32,
			"byteOffset":46760,
			"target":34962
		},
		{
			"buffer":0,
			"byteLength":12,
			"byteOffset":46792,
			"target":34963
		}
	],
	"samplers":[
		{
			"magFilter":9729,
			"minFilter":9987
		}
	],
	"buffers":[
		{
			"byteLength":46804,
			"uri":"Brick_Inset_Window_Curved_Small.bin"
		}
	]
}
