{
	"asset":{
		"generator":"Khronos glTF Blender I/O v4.3.47",
		"version":"2.0"
	},
	"scene":0,
	"scenes":[
		{
			"name":"Scene",
			"nodes":[
				4
			]
		}
	],
	"nodes":[
		{
			"mesh":0,
			"name":"Brick_CornerColumn_Bottom_1-convcolonly"
		},
		{
			"mesh":1,
			"name":"Brick_CornerColumn_Bottom_2-convcolonly"
		},
		{
			"mesh":2,
			"name":"Brick_CornerColumn_Bottom_3-convcolonly"
		},
		{
			"mesh":3,
			"name":"Brick_CornerColumn_Bottom_4-convcolonly"
		},
		{
			"children":[
				0,
				1,
				2,
				3
			],
			"mesh":4,
			"name":"Brick_CornerColumn_Bottom"
		}
	],
	"materials":[
		{
			"doubleSided":true,
			"name":"Collision",
			"pbrMetallicRoughness":{
				"baseColorFactor":[
					0.036788325756788254,
					0.5504099726676941,
					0.8000074625015259,
					1
				],
				"metallicFactor":0
			}
		},
		{
			"doubleSided":true,
			"name":"MI_RedBrick_Pale",
			"normalTexture":{
				"index":0
			},
			"pbrMetallicRoughness":{
				"baseColorTexture":{
					"index":1
				},
				"metallicRoughnessTexture":{
					"index":2
				}
			}
		},
		{
			"doubleSided":true,
			"name":"MI_Trim",
			"normalTexture":{
				"index":3
			},
			"pbrMetallicRoughness":{
				"baseColorTexture":{
					"index":4
				},
				"metallicRoughnessTexture":{
					"index":5
				}
			}
		}
	],
	"meshes":[
		{
			"name":"Cube.609",
			"primitives":[
				{
					"attributes":{
						"POSITION":0,
						"NORMAL":1,
						"TEXCOORD_0":2
					},
					"indices":3,
					"material":0
				}
			]
		},
		{
			"name":"Cube.523",
			"primitives":[
				{
					"attributes":{
						"POSITION":4,
						"NORMAL":5,
						"TEXCOORD_0":6
					},
					"indices":7,
					"material":0
				}
			]
		},
		{
			"name":"Cube.524",
			"primitives":[
				{
					"attributes":{
						"POSITION":8,
						"NORMAL":9,
						"TEXCOORD_0":10
					},
					"indices":11,
					"material":0
				}
			]
		},
		{
			"name":"Cube.525",
			"primitives":[
				{
					"attributes":{
						"POSITION":12,
						"NORMAL":13,
						"TEXCOORD_0":14
					},
					"indices":15,
					"material":0
				}
			]
		},
		{
			"name":"Cube.215",
			"primitives":[
				{
					"attributes":{
						"POSITION":16,
						"NORMAL":17,
						"TEXCOORD_0":18,
						"TEXCOORD_1":19,
						"COLOR_0":20,
						"COLOR_1":21
					},
					"indices":22,
					"material":1
				},
				{
					"attributes":{
						"POSITION":23,
						"NORMAL":24,
						"TEXCOORD_0":25,
						"TEXCOORD_1":26,
						"COLOR_0":27,
						"COLOR_1":28
					},
					"indices":29,
					"material":2
				}
			]
		}
	],
	"textures":[
		{
			"sampler":0,
			"source":0
		},
		{
			"sampler":0,
			"source":1
		},
		{
			"sampler":0,
			"source":2
		},
		{
			"sampler":0,
			"source":3
		},
		{
			"sampler":0,
			"source":4
		},
		{
			"sampler":0,
			"source":5
		}
	],
	"images":[
		{
			"mimeType":"image/png",
			"name":"T_RedBrick_Normal",
			"uri":"../../materials/T_RedBrick_Normal.png"
		},
		{
			"mimeType":"image/png",
			"name":"T_RedBrick_BaseColor",
			"uri":"../../materials/T_RedBrick_BaseColor.png"
		},
		{
			"mimeType":"image/png",
			"name":"T_RedBrick_ORM",
			"uri":"../../materials/T_RedBrick_ORM.png"
		},
		{
			"mimeType":"image/png",
			"name":"T_Trim_Normal",
			"uri":"../../materials/T_Trim_Normal.png"
		},
		{
			"mimeType":"image/png",
			"name":"T_Trim_BaseColor",
			"uri":"../../materials/T_Trim_BaseColor.png"
		},
		{
			"mimeType":"image/png",
			"name":"T_Trim_ORM",
			"uri":"../../materials/T_Trim_ORM.png"
		}
	],
	"accessors":[
		{
			"bufferView":0,
			"componentType":5126,
			"count":38,
			"max":[
				0.23454393446445465,
				0.4190935492515564,
				0.23039638996124268
			],
			"min":[
				-0.019037222489714622,
				0,
				-1.034554362297058
			],
			"type":"VEC3"
		},
		{
			"bufferView":1,
			"componentType":5126,
			"count":38,
			"type":"VEC3"
		},
		{
			"bufferView":2,
			"componentType":5126,
			"count":38,
			"type":"VEC2"
		},
		{
			"bufferView":3,
			"componentType":5123,
			"count":60,
			"type":"SCALAR"
		},
		{
			"bufferView":4,
			"componentType":5126,
			"count":24,
			"max":[
				0.17000004649162292,
				3,
				0.17000006139278412
			],
			"min":[
				-0.019037222489714622,
				0,
				-1.0030757188796997
			],
			"type":"VEC3"
		},
		{
			"bufferView":5,
			"componentType":5126,
			"count":24,
			"type":"VEC3"
		},
		{
			"bufferView":6,
			"componentType":5126,
			"count":24,
			"type":"VEC2"
		},
		{
			"bufferView":7,
			"componentType":5123,
			"count":36,
			"type":"SCALAR"
		},
		{
			"bufferView":8,
			"componentType":5126,
			"count":24,
			"max":[
				0.17000006139278412,
				3,
				0.17000004649162292
			],
			"min":[
				-1.0030757188796997,
				0,
				-0.019037220627069473
			],
			"type":"VEC3"
		},
		{
			"bufferView":9,
			"componentType":5126,
			"count":24,
			"type":"VEC3"
		},
		{
			"bufferView":10,
			"componentType":5126,
			"count":24,
			"type":"VEC2"
		},
		{
			"bufferView":11,
			"componentType":5123,
			"count":36,
			"type":"SCALAR"
		},
		{
			"bufferView":12,
			"componentType":5126,
			"count":38,
			"max":[
				0.2303963303565979,
				0.4190935492515564,
				0.23454399406909943
			],
			"min":[
				-1.0345544815063477,
				0,
				-0.019037658348679543
			],
			"type":"VEC3"
		},
		{
			"bufferView":13,
			"componentType":5126,
			"count":38,
			"type":"VEC3"
		},
		{
			"bufferView":14,
			"componentType":5126,
			"count":38,
			"type":"VEC2"
		},
		{
			"bufferView":15,
			"componentType":5123,
			"count":60,
			"type":"SCALAR"
		},
		{
			"bufferView":16,
			"componentType":5126,
			"count":32,
			"max":[
				0.1700000911951065,
				3,
				0.1700001060962677
			],
			"min":[
				-0.9700000882148743,
				0.4183140993118286,
				-0.9700000286102295
			],
			"type":"VEC3"
		},
		{
			"bufferView":17,
			"componentType":5126,
			"count":32,
			"type":"VEC3"
		},
		{
			"bufferView":18,
			"componentType":5126,
			"count":32,
			"type":"VEC2"
		},
		{
			"bufferView":19,
			"componentType":5126,
			"count":32,
			"type":"VEC2"
		},
		{
			"bufferView":20,
			"componentType":5121,
			"count":32,
			"normalized":true,
			"type":"VEC4"
		},
		{
			"bufferView":21,
			"componentType":5123,
			"count":32,
			"normalized":true,
			"type":"VEC4"
		},
		{
			"bufferView":22,
			"componentType":5123,
			"count":48,
			"type":"SCALAR"
		},
		{
			"bufferView":23,
			"componentType":5126,
			"count":84,
			"max":[
				0.22999997437000275,
				0.4183140993118286,
				0.22999997437000275
			],
			"min":[
				-1.03000009059906,
				0,
				-1.0299999713897705
			],
			"type":"VEC3"
		},
		{
			"bufferView":24,
			"componentType":5126,
			"count":84,
			"type":"VEC3"
		},
		{
			"bufferView":25,
			"componentType":5126,
			"count":84,
			"type":"VEC2"
		},
		{
			"bufferView":26,
			"componentType":5126,
			"count":84,
			"type":"VEC2"
		},
		{
			"bufferView":27,
			"componentType":5121,
			"count":84,
			"normalized":true,
			"type":"VEC4"
		},
		{
			"bufferView":28,
			"componentType":5123,
			"count":84,
			"normalized":true,
			"type":"VEC4"
		},
		{
			"bufferView":29,
			"componentType":5123,
			"count":192,
			"type":"SCALAR"
		}
	],
	"bufferViews":[
		{
			"buffer":0,
			"byteLength":456,
			"byteOffset":0,
			"target":34962
		},
		{
			"buffer":0,
			"byteLength":456,
			"byteOffset":456,
			"target":34962
		},
		{
			"buffer":0,
			"byteLength":304,
			"byteOffset":912,
			"target":34962
		},
		{
			"buffer":0,
			"byteLength":120,
			"byteOffset":1216,
			"target":34963
		},
		{
			"buffer":0,
			"byteLength":288,
			"byteOffset":1336,
			"target":34962
		},
		{
			"buffer":0,
			"byteLength":288,
			"byteOffset":1624,
			"target":34962
		},
		{
			"buffer":0,
			"byteLength":192,
			"byteOffset":1912,
			"target":34962
		},
		{
			"buffer":0,
			"byteLength":72,
			"byteOffset":2104,
			"target":34963
		},
		{
			"buffer":0,
			"byteLength":288,
			"byteOffset":2176,
			"target":34962
		},
		{
			"buffer":0,
			"byteLength":288,
			"byteOffset":2464,
			"target":34962
		},
		{
			"buffer":0,
			"byteLength":192,
			"byteOffset":2752,
			"target":34962
		},
		{
			"buffer":0,
			"byteLength":72,
			"byteOffset":2944,
			"target":34963
		},
		{
			"buffer":0,
			"byteLength":456,
			"byteOffset":3016,
			"target":34962
		},
		{
			"buffer":0,
			"byteLength":456,
			"byteOffset":3472,
			"target":34962
		},
		{
			"buffer":0,
			"byteLength":304,
			"byteOffset":3928,
			"target":34962
		},
		{
			"buffer":0,
			"byteLength":120,
			"byteOffset":4232,
			"target":34963
		},
		{
			"buffer":0,
			"byteLength":384,
			"byteOffset":4352,
			"target":34962
		},
		{
			"buffer":0,
			"byteLength":384,
			"byteOffset":4736,
			"target":34962
		},
		{
			"buffer":0,
			"byteLength":256,
			"byteOffset":5120,
			"target":34962
		},
		{
			"buffer":0,
			"byteLength":256,
			"byteOffset":5376,
			"target":34962
		},
		{
			"buffer":0,
			"byteLength":128,
			"byteOffset":5632,
			"target":34962
		},
		{
			"buffer":0,
			"byteLength":256,
			"byteOffset":5760,
			"target":34962
		},
		{
			"buffer":0,
			"byteLength":96,
			"byteOffset":6016,
			"target":34963
		},
		{
			"buffer":0,
			"byteLength":1008,
			"byteOffset":6112,
			"target":34962
		},
		{
			"buffer":0,
			"byteLength":1008,
			"byteOffset":7120,
			"target":34962
		},
		{
			"buffer":0,
			"byteLength":672,
			"byteOffset":8128,
			"target":34962
		},
		{
			"buffer":0,
			"byteLength":672,
			"byteOffset":8800,
			"target":34962
		},
		{
			"buffer":0,
			"byteLength":336,
			"byteOffset":9472,
			"target":34962
		},
		{
			"buffer":0,
			"byteLength":672,
			"byteOffset":9808,
			"target":34962
		},
		{
			"buffer":0,
			"byteLength":384,
			"byteOffset":10480,
			"target":34963
		}
	],
	"samplers":[
		{
			"magFilter":9729,
			"minFilter":9987
		}
	],
	"buffers":[
		{
			"byteLength":10864,
			"uri":"Brick_CornerColumn_Bottom.bin"
		}
	]
}
