{
	"asset":{
		"generator":"Khronos glTF Blender I/O v4.3.47",
		"version":"2.0"
	},
	"scene":0,
	"scenes":[
		{
			"name":"Scene",
			"nodes":[
				3
			]
		}
	],
	"nodes":[
		{
			"mesh":0,
			"name":"Brick_Inset_Window_1-convcolonly"
		},
		{
			"mesh":1,
			"name":"Brick_Inset_Window_2-convcolonly"
		},
		{
			"mesh":2,
			"name":"Brick_Inset_Window_3-convcolonly"
		},
		{
			"children":[
				0,
				1,
				2
			],
			"mesh":3,
			"name":"Brick_Inset_Window"
		}
	],
	"materials":[
		{
			"doubleSided":true,
			"name":"Collision",
			"pbrMetallicRoughness":{
				"baseColorFactor":[
					0.036788325756788254,
					0.5504099726676941,
					0.8000074625015259,
					1
				],
				"metallicFactor":0
			}
		},
		{
			"doubleSided":true,
			"name":"MI_RedBrick_Pale",
			"normalTexture":{
				"index":0
			},
			"pbrMetallicRoughness":{
				"baseColorTexture":{
					"index":1
				},
				"metallicRoughnessTexture":{
					"index":2
				}
			}
		},
		{
			"doubleSided":true,
			"name":"MI_Trim",
			"normalTexture":{
				"index":3
			},
			"pbrMetallicRoughness":{
				"baseColorTexture":{
					"index":4
				},
				"metallicRoughnessTexture":{
					"index":5
				}
			}
		},
		{
			"alphaMode":"BLEND",
			"doubleSided":true,
			"name":"MI_Glass",
			"pbrMetallicRoughness":{
				"baseColorFactor":[
					0.05215025693178177,
					0.05215025693178177,
					0.05215025693178177,
					0.586363673210144
				],
				"metallicFactor":0,
				"roughnessFactor":0.5
			}
		},
		{
			"doubleSided":true,
			"name":"MI_FakeInterior",
			"pbrMetallicRoughness":{
				"baseColorFactor":[
					0.800000011920929,
					0.800000011920929,
					0.800000011920929,
					1
				],
				"metallicFactor":0,
				"roughnessFactor":0.5
			}
		},
		{
			"doubleSided":true,
			"name":"MI_InteriorWall",
			"normalTexture":{
				"index":6
			},
			"pbrMetallicRoughness":{
				"baseColorTexture":{
					"index":7
				},
				"metallicRoughnessTexture":{
					"index":8
				}
			}
		}
	],
	"meshes":[
		{
			"name":"Cube.366",
			"primitives":[
				{
					"attributes":{
						"POSITION":0,
						"NORMAL":1,
						"TEXCOORD_0":2
					},
					"indices":3,
					"material":0
				}
			]
		},
		{
			"name":"Cube.367",
			"primitives":[
				{
					"attributes":{
						"POSITION":4,
						"NORMAL":5,
						"TEXCOORD_0":6
					},
					"indices":7,
					"material":0
				}
			]
		},
		{
			"name":"Cube.368",
			"primitives":[
				{
					"attributes":{
						"POSITION":8,
						"NORMAL":9,
						"TEXCOORD_0":10
					},
					"indices":11,
					"material":0
				}
			]
		},
		{
			"name":"Cube.230",
			"primitives":[
				{
					"attributes":{
						"POSITION":12,
						"NORMAL":13,
						"TEXCOORD_0":14,
						"TEXCOORD_1":15,
						"COLOR_0":16
					},
					"indices":17,
					"material":1
				},
				{
					"attributes":{
						"POSITION":18,
						"NORMAL":19,
						"TEXCOORD_0":20,
						"TEXCOORD_1":21,
						"COLOR_0":22
					},
					"indices":23,
					"material":2
				},
				{
					"attributes":{
						"POSITION":24,
						"NORMAL":25,
						"TEXCOORD_0":26,
						"TEXCOORD_1":27,
						"COLOR_0":28
					},
					"indices":29,
					"material":3
				},
				{
					"attributes":{
						"POSITION":30,
						"NORMAL":31,
						"TEXCOORD_0":32,
						"TEXCOORD_1":33,
						"COLOR_0":34
					},
					"indices":35,
					"material":4
				},
				{
					"attributes":{
						"POSITION":36,
						"NORMAL":37,
						"TEXCOORD_0":38,
						"TEXCOORD_1":39,
						"COLOR_0":40
					},
					"indices":41,
					"material":5
				}
			]
		}
	],
	"textures":[
		{
			"sampler":0,
			"source":0
		},
		{
			"sampler":0,
			"source":1
		},
		{
			"sampler":0,
			"source":2
		},
		{
			"sampler":0,
			"source":3
		},
		{
			"sampler":0,
			"source":4
		},
		{
			"sampler":0,
			"source":5
		},
		{
			"sampler":0,
			"source":0
		},
		{
			"sampler":0,
			"source":1
		},
		{
			"sampler":0,
			"source":2
		}
	],
	"images":[
		{
			"mimeType":"image/png",
			"name":"T_RedBrick_Normal",
			"uri":"../../materials/T_RedBrick_Normal.png"
		},
		{
			"mimeType":"image/png",
			"name":"T_RedBrick_BaseColor",
			"uri":"../../materials/T_RedBrick_BaseColor.png"
		},
		{
			"mimeType":"image/png",
			"name":"T_RedBrick_ORM",
			"uri":"../../materials/T_RedBrick_ORM.png"
		},
		{
			"mimeType":"image/png",
			"name":"T_Trim_Normal",
			"uri":"../../materials/T_Trim_Normal.png"
		},
		{
			"mimeType":"image/png",
			"name":"T_Trim_BaseColor",
			"uri":"../../materials/T_Trim_BaseColor.png"
		},
		{
			"mimeType":"image/png",
			"name":"T_Trim_ORM",
			"uri":"../../materials/T_Trim_ORM.png"
		}
	],
	"accessors":[
		{
			"bufferView":0,
			"componentType":5126,
			"count":24,
			"max":[
				2.0000007152557373,
				3,
				0
			],
			"min":[
				-2.0000007152557373,
				0,
				-0.19999998807907104
			],
			"type":"VEC3"
		},
		{
			"bufferView":1,
			"componentType":5126,
			"count":24,
			"type":"VEC3"
		},
		{
			"bufferView":2,
			"componentType":5126,
			"count":24,
			"type":"VEC2"
		},
		{
			"bufferView":3,
			"componentType":5123,
			"count":36,
			"type":"SCALAR"
		},
		{
			"bufferView":4,
			"componentType":5126,
			"count":24,
			"max":[
				0.9403915405273438,
				0.7860941886901855,
				0.13849490880966187
			],
			"min":[
				-0.9406144618988037,
				0.6539615988731384,
				-0.05077381432056427
			],
			"type":"VEC3"
		},
		{
			"bufferView":5,
			"componentType":5126,
			"count":24,
			"type":"VEC3"
		},
		{
			"bufferView":6,
			"componentType":5126,
			"count":24,
			"type":"VEC2"
		},
		{
			"bufferView":7,
			"componentType":5123,
			"count":36,
			"type":"SCALAR"
		},
		{
			"bufferView":8,
			"componentType":5126,
			"count":24,
			"max":[
				0.8204202055931091,
				2.0714218616485596,
				-0.18444159626960754
			],
			"min":[
				-0.8204216361045837,
				0.7607898712158203,
				-0.25092756748199463
			],
			"type":"VEC3"
		},
		{
			"bufferView":9,
			"componentType":5126,
			"count":24,
			"type":"VEC3"
		},
		{
			"bufferView":10,
			"componentType":5126,
			"count":24,
			"type":"VEC2"
		},
		{
			"bufferView":11,
			"componentType":5123,
			"count":36,
			"type":"SCALAR"
		},
		{
			"bufferView":12,
			"componentType":5126,
			"count":82,
			"max":[
				2,
				2.6658434867858887,
				1.1652771547687735e-07
			],
			"min":[
				-2,
				0,
				-0.10000000149011612
			],
			"type":"VEC3"
		},
		{
			"bufferView":13,
			"componentType":5126,
			"count":82,
			"type":"VEC3"
		},
		{
			"bufferView":14,
			"componentType":5126,
			"count":82,
			"type":"VEC2"
		},
		{
			"bufferView":15,
			"componentType":5126,
			"count":82,
			"type":"VEC2"
		},
		{
			"bufferView":16,
			"componentType":5123,
			"count":82,
			"normalized":true,
			"type":"VEC4"
		},
		{
			"bufferView":17,
			"componentType":5123,
			"count":204,
			"type":"SCALAR"
		},
		{
			"bufferView":18,
			"componentType":5126,
			"count":633,
			"max":[
				2,
				3,
				0.12901781499385834
			],
			"min":[
				-2,
				0.6567046642303467,
				-0.24526718258857727
			],
			"type":"VEC3"
		},
		{
			"bufferView":19,
			"componentType":5126,
			"count":633,
			"type":"VEC3"
		},
		{
			"bufferView":20,
			"componentType":5126,
			"count":633,
			"type":"VEC2"
		},
		{
			"bufferView":21,
			"componentType":5126,
			"count":633,
			"type":"VEC2"
		},
		{
			"bufferView":22,
			"componentType":5123,
			"count":633,
			"normalized":true,
			"type":"VEC4"
		},
		{
			"bufferView":23,
			"componentType":5123,
			"count":1158,
			"type":"SCALAR"
		},
		{
			"bufferView":24,
			"componentType":5126,
			"count":24,
			"max":[
				0.7832502722740173,
				2.0377230644226074,
				-0.14566266536712646
			],
			"min":[
				-0.7832502126693726,
				0.8033118844032288,
				-0.14679259061813354
			],
			"type":"VEC3"
		},
		{
			"bufferView":25,
			"componentType":5126,
			"count":24,
			"type":"VEC3"
		},
		{
			"bufferView":26,
			"componentType":5126,
			"count":24,
			"type":"VEC2"
		},
		{
			"bufferView":27,
			"componentType":5126,
			"count":24,
			"type":"VEC2"
		},
		{
			"bufferView":28,
			"componentType":5123,
			"count":24,
			"normalized":true,
			"type":"VEC4"
		},
		{
			"bufferView":29,
			"componentType":5123,
			"count":36,
			"type":"SCALAR"
		},
		{
			"bufferView":30,
			"componentType":5126,
			"count":4,
			"max":[
				1.4260249137878418,
				2.8027091026306152,
				-0.19701145589351654
			],
			"min":[
				-1.4260249137878418,
				0.02259528636932373,
				-0.19701145589351654
			],
			"type":"VEC3"
		},
		{
			"bufferView":31,
			"componentType":5126,
			"count":4,
			"type":"VEC3"
		},
		{
			"bufferView":32,
			"componentType":5126,
			"count":4,
			"type":"VEC2"
		},
		{
			"bufferView":33,
			"componentType":5126,
			"count":4,
			"type":"VEC2"
		},
		{
			"bufferView":34,
			"componentType":5123,
			"count":4,
			"normalized":true,
			"type":"VEC4"
		},
		{
			"bufferView":35,
			"componentType":5123,
			"count":6,
			"type":"SCALAR"
		},
		{
			"bufferView":36,
			"componentType":5126,
			"count":28,
			"max":[
				2,
				3.000000476837158,
				-0.19999960064888
			],
			"min":[
				-2,
				3.258415048890129e-08,
				-0.2000000923871994
			],
			"type":"VEC3"
		},
		{
			"bufferView":37,
			"componentType":5126,
			"count":28,
			"type":"VEC3"
		},
		{
			"bufferView":38,
			"componentType":5126,
			"count":28,
			"type":"VEC2"
		},
		{
			"bufferView":39,
			"componentType":5126,
			"count":28,
			"type":"VEC2"
		},
		{
			"bufferView":40,
			"componentType":5123,
			"count":28,
			"normalized":true,
			"type":"VEC4"
		},
		{
			"bufferView":41,
			"componentType":5123,
			"count":60,
			"type":"SCALAR"
		}
	],
	"bufferViews":[
		{
			"buffer":0,
			"byteLength":288,
			"byteOffset":0,
			"target":34962
		},
		{
			"buffer":0,
			"byteLength":288,
			"byteOffset":288,
			"target":34962
		},
		{
			"buffer":0,
			"byteLength":192,
			"byteOffset":576,
			"target":34962
		},
		{
			"buffer":0,
			"byteLength":72,
			"byteOffset":768,
			"target":34963
		},
		{
			"buffer":0,
			"byteLength":288,
			"byteOffset":840,
			"target":34962
		},
		{
			"buffer":0,
			"byteLength":288,
			"byteOffset":1128,
			"target":34962
		},
		{
			"buffer":0,
			"byteLength":192,
			"byteOffset":1416,
			"target":34962
		},
		{
			"buffer":0,
			"byteLength":72,
			"byteOffset":1608,
			"target":34963
		},
		{
			"buffer":0,
			"byteLength":288,
			"byteOffset":1680,
			"target":34962
		},
		{
			"buffer":0,
			"byteLength":288,
			"byteOffset":1968,
			"target":34962
		},
		{
			"buffer":0,
			"byteLength":192,
			"byteOffset":2256,
			"target":34962
		},
		{
			"buffer":0,
			"byteLength":72,
			"byteOffset":2448,
			"target":34963
		},
		{
			"buffer":0,
			"byteLength":984,
			"byteOffset":2520,
			"target":34962
		},
		{
			"buffer":0,
			"byteLength":984,
			"byteOffset":3504,
			"target":34962
		},
		{
			"buffer":0,
			"byteLength":656,
			"byteOffset":4488,
			"target":34962
		},
		{
			"buffer":0,
			"byteLength":656,
			"byteOffset":5144,
			"target":34962
		},
		{
			"buffer":0,
			"byteLength":656,
			"byteOffset":5800,
			"target":34962
		},
		{
			"buffer":0,
			"byteLength":408,
			"byteOffset":6456,
			"target":34963
		},
		{
			"buffer":0,
			"byteLength":7596,
			"byteOffset":6864,
			"target":34962
		},
		{
			"buffer":0,
			"byteLength":7596,
			"byteOffset":14460,
			"target":34962
		},
		{
			"buffer":0,
			"byteLength":5064,
			"byteOffset":22056,
			"target":34962
		},
		{
			"buffer":0,
			"byteLength":5064,
			"byteOffset":27120,
			"target":34962
		},
		{
			"buffer":0,
			"byteLength":5064,
			"byteOffset":32184,
			"target":34962
		},
		{
			"buffer":0,
			"byteLength":2316,
			"byteOffset":37248,
			"target":34963
		},
		{
			"buffer":0,
			"byteLength":288,
			"byteOffset":39564,
			"target":34962
		},
		{
			"buffer":0,
			"byteLength":288,
			"byteOffset":39852,
			"target":34962
		},
		{
			"buffer":0,
			"byteLength":192,
			"byteOffset":40140,
			"target":34962
		},
		{
			"buffer":0,
			"byteLength":192,
			"byteOffset":40332,
			"target":34962
		},
		{
			"buffer":0,
			"byteLength":192,
			"byteOffset":40524,
			"target":34962
		},
		{
			"buffer":0,
			"byteLength":72,
			"byteOffset":40716,
			"target":34963
		},
		{
			"buffer":0,
			"byteLength":48,
			"byteOffset":40788,
			"target":34962
		},
		{
			"buffer":0,
			"byteLength":48,
			"byteOffset":40836,
			"target":34962
		},
		{
			"buffer":0,
			"byteLength":32,
			"byteOffset":40884,
			"target":34962
		},
		{
			"buffer":0,
			"byteLength":32,
			"byteOffset":40916,
			"target":34962
		},
		{
			"buffer":0,
			"byteLength":32,
			"byteOffset":40948,
			"target":34962
		},
		{
			"buffer":0,
			"byteLength":12,
			"byteOffset":40980,
			"target":34963
		},
		{
			"buffer":0,
			"byteLength":336,
			"byteOffset":40992,
			"target":34962
		},
		{
			"buffer":0,
			"byteLength":336,
			"byteOffset":41328,
			"target":34962
		},
		{
			"buffer":0,
			"byteLength":224,
			"byteOffset":41664,
			"target":34962
		},
		{
			"buffer":0,
			"byteLength":224,
			"byteOffset":41888,
			"target":34962
		},
		{
			"buffer":0,
			"byteLength":224,
			"byteOffset":42112,
			"target":34962
		},
		{
			"buffer":0,
			"byteLength":120,
			"byteOffset":42336,
			"target":34963
		}
	],
	"samplers":[
		{
			"magFilter":9729,
			"minFilter":9987
		}
	],
	"buffers":[
		{
			"byteLength":42456,
			"uri":"Brick_Inset_Window.bin"
		}
	]
}
