{
	"asset":{
		"generator":"Khronos glTF Blender I/O v4.3.47",
		"version":"2.0"
	},
	"scene":0,
	"scenes":[
		{
			"name":"Scene",
			"nodes":[
				2
			]
		}
	],
	"nodes":[
		{
			"mesh":0,
			"name":"Brick_Window_CurvedDouble_1-convcolonly"
		},
		{
			"mesh":1,
			"name":"Brick_Window_CurvedDouble_2-convcolonly"
		},
		{
			"children":[
				0,
				1
			],
			"mesh":2,
			"name":"Brick_Window_CurvedDouble"
		}
	],
	"materials":[
		{
			"doubleSided":true,
			"name":"Collision",
			"pbrMetallicRoughness":{
				"baseColorFactor":[
					0.036788325756788254,
					0.5504099726676941,
					0.8000074625015259,
					1
				],
				"metallicFactor":0
			}
		},
		{
			"doubleSided":true,
			"name":"MI_RedBrick_Pale",
			"normalTexture":{
				"index":0
			},
			"pbrMetallicRoughness":{
				"baseColorTexture":{
					"index":1
				},
				"metallicRoughnessTexture":{
					"index":2
				}
			}
		},
		{
			"doubleSided":true,
			"name":"MI_InteriorWall",
			"normalTexture":{
				"index":3
			},
			"pbrMetallicRoughness":{
				"baseColorTexture":{
					"index":4
				},
				"metallicRoughnessTexture":{
					"index":5
				}
			}
		},
		{
			"doubleSided":true,
			"name":"MI_Trim_MetalConcrete",
			"normalTexture":{
				"index":6
			},
			"pbrMetallicRoughness":{
				"baseColorTexture":{
					"index":7
				},
				"metallicRoughnessTexture":{
					"index":8
				}
			}
		},
		{
			"alphaMode":"BLEND",
			"doubleSided":true,
			"name":"MI_Glass",
			"pbrMetallicRoughness":{
				"baseColorFactor":[
					0.05215025693178177,
					0.05215025693178177,
					0.05215025693178177,
					0.586363673210144
				],
				"metallicFactor":0,
				"roughnessFactor":0.5
			}
		},
		{
			"doubleSided":true,
			"name":"MI_FakeInterior",
			"pbrMetallicRoughness":{
				"baseColorFactor":[
					0.800000011920929,
					0.800000011920929,
					0.800000011920929,
					1
				],
				"metallicFactor":0,
				"roughnessFactor":0.5
			}
		}
	],
	"meshes":[
		{
			"name":"Cube.403",
			"primitives":[
				{
					"attributes":{
						"POSITION":0,
						"NORMAL":1,
						"TEXCOORD_0":2
					},
					"indices":3,
					"material":0
				}
			]
		},
		{
			"name":"Cube.404",
			"primitives":[
				{
					"attributes":{
						"POSITION":4,
						"NORMAL":5,
						"TEXCOORD_0":6
					},
					"indices":7,
					"material":0
				}
			]
		},
		{
			"name":"Cube.240",
			"primitives":[
				{
					"attributes":{
						"POSITION":8,
						"NORMAL":9,
						"TEXCOORD_0":10,
						"TEXCOORD_1":11,
						"COLOR_0":12
					},
					"indices":13,
					"material":1
				},
				{
					"attributes":{
						"POSITION":14,
						"NORMAL":15,
						"TEXCOORD_0":16,
						"TEXCOORD_1":17,
						"COLOR_0":18
					},
					"indices":19,
					"material":2
				},
				{
					"attributes":{
						"POSITION":20,
						"NORMAL":21,
						"TEXCOORD_0":22,
						"TEXCOORD_1":23,
						"COLOR_0":24
					},
					"indices":25,
					"material":3
				},
				{
					"attributes":{
						"POSITION":26,
						"NORMAL":27,
						"TEXCOORD_0":28,
						"TEXCOORD_1":29,
						"COLOR_0":30
					},
					"indices":31,
					"material":4
				},
				{
					"attributes":{
						"POSITION":32,
						"NORMAL":33,
						"TEXCOORD_0":34,
						"TEXCOORD_1":35,
						"COLOR_0":36
					},
					"indices":37,
					"material":5
				}
			]
		}
	],
	"textures":[
		{
			"sampler":0,
			"source":0
		},
		{
			"sampler":0,
			"source":1
		},
		{
			"sampler":0,
			"source":2
		},
		{
			"sampler":0,
			"source":0
		},
		{
			"sampler":0,
			"source":1
		},
		{
			"sampler":0,
			"source":2
		},
		{
			"sampler":0,
			"source":3
		},
		{
			"sampler":0,
			"source":4
		},
		{
			"sampler":0,
			"source":5
		}
	],
	"images":[
		{
			"mimeType":"image/png",
			"name":"T_RedBrick_Normal",
			"uri":"../../materials/T_RedBrick_Normal.png"
		},
		{
			"mimeType":"image/png",
			"name":"T_RedBrick_BaseColor",
			"uri":"../../materials/T_RedBrick_BaseColor.png"
		},
		{
			"mimeType":"image/png",
			"name":"T_RedBrick_ORM",
			"uri":"../../materials/T_RedBrick_ORM.png"
		},
		{
			"mimeType":"image/png",
			"name":"T_MetalConcrete_Normal",
			"uri":"../../materials/T_MetalConcrete_Normal.png"
		},
		{
			"mimeType":"image/png",
			"name":"T_MetalConcrete_BaseColor",
			"uri":"../../materials/T_MetalConcrete_BaseColor.png"
		},
		{
			"mimeType":"image/png",
			"name":"T_MetalConcrete_ORM",
			"uri":"../../materials/T_MetalConcrete_ORM.png"
		}
	],
	"accessors":[
		{
			"bufferView":0,
			"componentType":5126,
			"count":24,
			"max":[
				2.0000007152557373,
				3,
				0
			],
			"min":[
				-2.0000007152557373,
				0,
				-0.19999998807907104
			],
			"type":"VEC3"
		},
		{
			"bufferView":1,
			"componentType":5126,
			"count":24,
			"type":"VEC3"
		},
		{
			"bufferView":2,
			"componentType":5126,
			"count":24,
			"type":"VEC2"
		},
		{
			"bufferView":3,
			"componentType":5123,
			"count":36,
			"type":"SCALAR"
		},
		{
			"bufferView":4,
			"componentType":5126,
			"count":54,
			"max":[
				1.2148395776748657,
				2.553271532058716,
				-0.19999998807907104
			],
			"min":[
				-1.2148410081863403,
				0.49168193340301514,
				-0.2694414556026459
			],
			"type":"VEC3"
		},
		{
			"bufferView":5,
			"componentType":5126,
			"count":54,
			"type":"VEC3"
		},
		{
			"bufferView":6,
			"componentType":5126,
			"count":54,
			"type":"VEC2"
		},
		{
			"bufferView":7,
			"componentType":5123,
			"count":108,
			"type":"SCALAR"
		},
		{
			"bufferView":8,
			"componentType":5126,
			"count":126,
			"max":[
				2,
				3,
				1.3113415775478643e-07
			],
			"min":[
				-2,
				0,
				-0.16487307846546173
			],
			"type":"VEC3"
		},
		{
			"bufferView":9,
			"componentType":5126,
			"count":126,
			"type":"VEC3"
		},
		{
			"bufferView":10,
			"componentType":5126,
			"count":126,
			"type":"VEC2"
		},
		{
			"bufferView":11,
			"componentType":5126,
			"count":126,
			"type":"VEC2"
		},
		{
			"bufferView":12,
			"componentType":5123,
			"count":126,
			"normalized":true,
			"type":"VEC4"
		},
		{
			"bufferView":13,
			"componentType":5123,
			"count":288,
			"type":"SCALAR"
		},
		{
			"bufferView":14,
			"componentType":5126,
			"count":28,
			"max":[
				2,
				3.000000476837158,
				-0.2000000774860382
			],
			"min":[
				-2,
				0,
				-0.2000000923871994
			],
			"type":"VEC3"
		},
		{
			"bufferView":15,
			"componentType":5126,
			"count":28,
			"type":"VEC3"
		},
		{
			"bufferView":16,
			"componentType":5126,
			"count":28,
			"type":"VEC2"
		},
		{
			"bufferView":17,
			"componentType":5126,
			"count":28,
			"type":"VEC2"
		},
		{
			"bufferView":18,
			"componentType":5123,
			"count":28,
			"normalized":true,
			"type":"VEC4"
		},
		{
			"bufferView":19,
			"componentType":5123,
			"count":60,
			"type":"SCALAR"
		},
		{
			"bufferView":20,
			"componentType":5126,
			"count":1413,
			"max":[
				1.2296206951141357,
				2.548305034637451,
				-0.12514078617095947
			],
			"min":[
				-1.2265024185180664,
				0.48326918482780457,
				-0.26050737500190735
			],
			"type":"VEC3"
		},
		{
			"bufferView":21,
			"componentType":5126,
			"count":1413,
			"type":"VEC3"
		},
		{
			"bufferView":22,
			"componentType":5126,
			"count":1413,
			"type":"VEC2"
		},
		{
			"bufferView":23,
			"componentType":5126,
			"count":1413,
			"type":"VEC2"
		},
		{
			"bufferView":24,
			"componentType":5123,
			"count":1413,
			"normalized":true,
			"type":"VEC4"
		},
		{
			"bufferView":25,
			"componentType":5123,
			"count":2985,
			"type":"SCALAR"
		},
		{
			"bufferView":26,
			"componentType":5126,
			"count":48,
			"max":[
				1.1542718410491943,
				2.152480125427246,
				-0.19170989096164703
			],
			"min":[
				-1.1542716026306152,
				0.5631401538848877,
				-0.19171002507209778
			],
			"type":"VEC3"
		},
		{
			"bufferView":27,
			"componentType":5126,
			"count":48,
			"type":"VEC3"
		},
		{
			"bufferView":28,
			"componentType":5126,
			"count":48,
			"type":"VEC2"
		},
		{
			"bufferView":29,
			"componentType":5126,
			"count":48,
			"type":"VEC2"
		},
		{
			"bufferView":30,
			"componentType":5123,
			"count":48,
			"normalized":true,
			"type":"VEC4"
		},
		{
			"bufferView":31,
			"componentType":5123,
			"count":72,
			"type":"SCALAR"
		},
		{
			"bufferView":32,
			"componentType":5126,
			"count":4,
			"max":[
				1.4260249137878418,
				2.8756752014160156,
				-0.1970006227493286
			],
			"min":[
				-1.4260249137878418,
				0.09556138515472412,
				-0.1970006227493286
			],
			"type":"VEC3"
		},
		{
			"bufferView":33,
			"componentType":5126,
			"count":4,
			"type":"VEC3"
		},
		{
			"bufferView":34,
			"componentType":5126,
			"count":4,
			"type":"VEC2"
		},
		{
			"bufferView":35,
			"componentType":5126,
			"count":4,
			"type":"VEC2"
		},
		{
			"bufferView":36,
			"componentType":5123,
			"count":4,
			"normalized":true,
			"type":"VEC4"
		},
		{
			"bufferView":37,
			"componentType":5123,
			"count":6,
			"type":"SCALAR"
		}
	],
	"bufferViews":[
		{
			"buffer":0,
			"byteLength":288,
			"byteOffset":0,
			"target":34962
		},
		{
			"buffer":0,
			"byteLength":288,
			"byteOffset":288,
			"target":34962
		},
		{
			"buffer":0,
			"byteLength":192,
			"byteOffset":576,
			"target":34962
		},
		{
			"buffer":0,
			"byteLength":72,
			"byteOffset":768,
			"target":34963
		},
		{
			"buffer":0,
			"byteLength":648,
			"byteOffset":840,
			"target":34962
		},
		{
			"buffer":0,
			"byteLength":648,
			"byteOffset":1488,
			"target":34962
		},
		{
			"buffer":0,
			"byteLength":432,
			"byteOffset":2136,
			"target":34962
		},
		{
			"buffer":0,
			"byteLength":216,
			"byteOffset":2568,
			"target":34963
		},
		{
			"buffer":0,
			"byteLength":1512,
			"byteOffset":2784,
			"target":34962
		},
		{
			"buffer":0,
			"byteLength":1512,
			"byteOffset":4296,
			"target":34962
		},
		{
			"buffer":0,
			"byteLength":1008,
			"byteOffset":5808,
			"target":34962
		},
		{
			"buffer":0,
			"byteLength":1008,
			"byteOffset":6816,
			"target":34962
		},
		{
			"buffer":0,
			"byteLength":1008,
			"byteOffset":7824,
			"target":34962
		},
		{
			"buffer":0,
			"byteLength":576,
			"byteOffset":8832,
			"target":34963
		},
		{
			"buffer":0,
			"byteLength":336,
			"byteOffset":9408,
			"target":34962
		},
		{
			"buffer":0,
			"byteLength":336,
			"byteOffset":9744,
			"target":34962
		},
		{
			"buffer":0,
			"byteLength":224,
			"byteOffset":10080,
			"target":34962
		},
		{
			"buffer":0,
			"byteLength":224,
			"byteOffset":10304,
			"target":34962
		},
		{
			"buffer":0,
			"byteLength":224,
			"byteOffset":10528,
			"target":34962
		},
		{
			"buffer":0,
			"byteLength":120,
			"byteOffset":10752,
			"target":34963
		},
		{
			"buffer":0,
			"byteLength":16956,
			"byteOffset":10872,
			"target":34962
		},
		{
			"buffer":0,
			"byteLength":16956,
			"byteOffset":27828,
			"target":34962
		},
		{
			"buffer":0,
			"byteLength":11304,
			"byteOffset":44784,
			"target":34962
		},
		{
			"buffer":0,
			"byteLength":11304,
			"byteOffset":56088,
			"target":34962
		},
		{
			"buffer":0,
			"byteLength":11304,
			"byteOffset":67392,
			"target":34962
		},
		{
			"buffer":0,
			"byteLength":5970,
			"byteOffset":78696,
			"target":34963
		},
		{
			"buffer":0,
			"byteLength":576,
			"byteOffset":84668,
			"target":34962
		},
		{
			"buffer":0,
			"byteLength":576,
			"byteOffset":85244,
			"target":34962
		},
		{
			"buffer":0,
			"byteLength":384,
			"byteOffset":85820,
			"target":34962
		},
		{
			"buffer":0,
			"byteLength":384,
			"byteOffset":86204,
			"target":34962
		},
		{
			"buffer":0,
			"byteLength":384,
			"byteOffset":86588,
			"target":34962
		},
		{
			"buffer":0,
			"byteLength":144,
			"byteOffset":86972,
			"target":34963
		},
		{
			"buffer":0,
			"byteLength":48,
			"byteOffset":87116,
			"target":34962
		},
		{
			"buffer":0,
			"byteLength":48,
			"byteOffset":87164,
			"target":34962
		},
		{
			"buffer":0,
			"byteLength":32,
			"byteOffset":87212,
			"target":34962
		},
		{
			"buffer":0,
			"byteLength":32,
			"byteOffset":87244,
			"target":34962
		},
		{
			"buffer":0,
			"byteLength":32,
			"byteOffset":87276,
			"target":34962
		},
		{
			"buffer":0,
			"byteLength":12,
			"byteOffset":87308,
			"target":34963
		}
	],
	"samplers":[
		{
			"magFilter":9729,
			"minFilter":9987
		}
	],
	"buffers":[
		{
			"byteLength":87320,
			"uri":"Brick_Window_CurvedDouble.bin"
		}
	]
}
