{
	"asset":{
		"generator":"Khronos glTF Blender I/O v4.3.47",
		"version":"2.0"
	},
	"scene":0,
	"scenes":[
		{
			"name":"Scene",
			"nodes":[
				3
			]
		}
	],
	"nodes":[
		{
			"mesh":0,
			"name":"Brick_HalfColumn_Bottom_1-convcolonly"
		},
		{
			"mesh":1,
			"name":"Brick_HalfColumn_Bottom_2-convcolonly"
		},
		{
			"mesh":2,
			"name":"Brick_HalfColumn_Bottom_3-convcolonly"
		},
		{
			"children":[
				0,
				1,
				2
			],
			"mesh":3,
			"name":"Brick_HalfColumn_Bottom"
		}
	],
	"materials":[
		{
			"doubleSided":true,
			"name":"Collision",
			"pbrMetallicRoughness":{
				"baseColorFactor":[
					0.036788325756788254,
					0.5504099726676941,
					0.8000074625015259,
					1
				],
				"metallicFactor":0
			}
		},
		{
			"doubleSided":true,
			"name":"MI_RedBrick",
			"normalTexture":{
				"index":0
			},
			"pbrMetallicRoughness":{
				"baseColorTexture":{
					"index":1
				},
				"metallicRoughnessTexture":{
					"index":2
				}
			}
		},
		{
			"doubleSided":true,
			"name":"MI_Trim",
			"normalTexture":{
				"index":3
			},
			"pbrMetallicRoughness":{
				"baseColorTexture":{
					"index":4
				},
				"metallicRoughnessTexture":{
					"index":5
				}
			}
		}
	],
	"meshes":[
		{
			"name":"UCX_Trim_FirstFloor_Wall_0.003",
			"primitives":[
				{
					"attributes":{
						"POSITION":0,
						"NORMAL":1,
						"TEXCOORD_0":2
					},
					"indices":3,
					"material":0
				}
			]
		},
		{
			"name":"UCX_Trim_FirstFloor_Wall_0.008",
			"primitives":[
				{
					"attributes":{
						"POSITION":4,
						"NORMAL":5,
						"TEXCOORD_0":6
					},
					"indices":7,
					"material":0
				}
			]
		},
		{
			"name":"UCX_Trim_FirstFloor_Wall_0.009",
			"primitives":[
				{
					"attributes":{
						"POSITION":8,
						"NORMAL":9,
						"TEXCOORD_0":10
					},
					"indices":7,
					"material":0
				}
			]
		},
		{
			"name":"Cube.029",
			"primitives":[
				{
					"attributes":{
						"POSITION":11,
						"NORMAL":12,
						"TEXCOORD_0":13,
						"TEXCOORD_1":14
					},
					"indices":15,
					"material":1
				},
				{
					"attributes":{
						"POSITION":16,
						"NORMAL":17,
						"TEXCOORD_0":18,
						"TEXCOORD_1":19
					},
					"indices":20,
					"material":2
				}
			]
		}
	],
	"textures":[
		{
			"sampler":0,
			"source":0
		},
		{
			"sampler":0,
			"source":1
		},
		{
			"sampler":0,
			"source":2
		},
		{
			"sampler":0,
			"source":3
		},
		{
			"sampler":0,
			"source":4
		},
		{
			"sampler":0,
			"source":5
		}
	],
	"images":[
		{
			"mimeType":"image/png",
			"name":"T_RedBrick_Normal",
			"uri":"../../materials/T_RedBrick_Normal.png"
		},
		{
			"mimeType":"image/png",
			"name":"T_RedBrick_BaseColor",
			"uri":"../../materials/T_RedBrick_BaseColor.png"
		},
		{
			"mimeType":"image/png",
			"name":"T_RedBrick_ORM",
			"uri":"../../materials/T_RedBrick_ORM.png"
		},
		{
			"mimeType":"image/png",
			"name":"T_Trim_Normal",
			"uri":"../../materials/T_Trim_Normal.png"
		},
		{
			"mimeType":"image/png",
			"name":"T_Trim_BaseColor",
			"uri":"../../materials/T_Trim_BaseColor.png"
		},
		{
			"mimeType":"image/png",
			"name":"T_Trim_ORM",
			"uri":"../../materials/T_Trim_ORM.png"
		}
	],
	"accessors":[
		{
			"bufferView":0,
			"componentType":5126,
			"count":36,
			"max":[
				0.467643141746521,
				2.999999761581421,
				0.17431604862213135
			],
			"min":[
				-0.4694526791572571,
				0,
				-0.043100494891405106
			],
			"type":"VEC3"
		},
		{
			"bufferView":1,
			"componentType":5126,
			"count":36,
			"type":"VEC3"
		},
		{
			"bufferView":2,
			"componentType":5126,
			"count":36,
			"type":"VEC2"
		},
		{
			"bufferView":3,
			"componentType":5123,
			"count":60,
			"type":"SCALAR"
		},
		{
			"bufferView":4,
			"componentType":5126,
			"count":58,
			"max":[
				0.5088270902633667,
				0.5006489157676697,
				0.21191774308681488
			],
			"min":[
				-0.510636568069458,
				0.2445145845413208,
				-0.043100494891405106
			],
			"type":"VEC3"
		},
		{
			"bufferView":5,
			"componentType":5126,
			"count":58,
			"type":"VEC3"
		},
		{
			"bufferView":6,
			"componentType":5126,
			"count":58,
			"type":"VEC2"
		},
		{
			"bufferView":7,
			"componentType":5123,
			"count":96,
			"type":"SCALAR"
		},
		{
			"bufferView":8,
			"componentType":5126,
			"count":58,
			"max":[
				0.5599318146705627,
				0.2445145845413208,
				0.23594611883163452
			],
			"min":[
				-0.5605281591415405,
				-0.010920644737780094,
				-0.043100494891405106
			],
			"type":"VEC3"
		},
		{
			"bufferView":9,
			"componentType":5126,
			"count":58,
			"type":"VEC3"
		},
		{
			"bufferView":10,
			"componentType":5126,
			"count":58,
			"type":"VEC2"
		},
		{
			"bufferView":11,
			"componentType":5126,
			"count":52,
			"max":[
				0.46616828441619873,
				2.999999523162842,
				0.17254574596881866
			],
			"min":[
				-0.46616828441619873,
				0.49999991059303284,
				-0.04070395976305008
			],
			"type":"VEC3"
		},
		{
			"bufferView":12,
			"componentType":5126,
			"count":52,
			"type":"VEC3"
		},
		{
			"bufferView":13,
			"componentType":5126,
			"count":52,
			"type":"VEC2"
		},
		{
			"bufferView":14,
			"componentType":5126,
			"count":52,
			"type":"VEC2"
		},
		{
			"bufferView":15,
			"componentType":5123,
			"count":108,
			"type":"SCALAR"
		},
		{
			"bufferView":16,
			"componentType":5126,
			"count":90,
			"max":[
				0.5544249415397644,
				0.5010890364646912,
				0.23556195199489594
			],
			"min":[
				-0.5544249415397644,
				0,
				-0.04070395231246948
			],
			"type":"VEC3"
		},
		{
			"bufferView":17,
			"componentType":5126,
			"count":90,
			"type":"VEC3"
		},
		{
			"bufferView":18,
			"componentType":5126,
			"count":90,
			"type":"VEC2"
		},
		{
			"bufferView":19,
			"componentType":5126,
			"count":90,
			"type":"VEC2"
		},
		{
			"bufferView":20,
			"componentType":5123,
			"count":144,
			"type":"SCALAR"
		}
	],
	"bufferViews":[
		{
			"buffer":0,
			"byteLength":432,
			"byteOffset":0,
			"target":34962
		},
		{
			"buffer":0,
			"byteLength":432,
			"byteOffset":432,
			"target":34962
		},
		{
			"buffer":0,
			"byteLength":288,
			"byteOffset":864,
			"target":34962
		},
		{
			"buffer":0,
			"byteLength":120,
			"byteOffset":1152,
			"target":34963
		},
		{
			"buffer":0,
			"byteLength":696,
			"byteOffset":1272,
			"target":34962
		},
		{
			"buffer":0,
			"byteLength":696,
			"byteOffset":1968,
			"target":34962
		},
		{
			"buffer":0,
			"byteLength":464,
			"byteOffset":2664,
			"target":34962
		},
		{
			"buffer":0,
			"byteLength":192,
			"byteOffset":3128,
			"target":34963
		},
		{
			"buffer":0,
			"byteLength":696,
			"byteOffset":3320,
			"target":34962
		},
		{
			"buffer":0,
			"byteLength":696,
			"byteOffset":4016,
			"target":34962
		},
		{
			"buffer":0,
			"byteLength":464,
			"byteOffset":4712,
			"target":34962
		},
		{
			"buffer":0,
			"byteLength":624,
			"byteOffset":5176,
			"target":34962
		},
		{
			"buffer":0,
			"byteLength":624,
			"byteOffset":5800,
			"target":34962
		},
		{
			"buffer":0,
			"byteLength":416,
			"byteOffset":6424,
			"target":34962
		},
		{
			"buffer":0,
			"byteLength":416,
			"byteOffset":6840,
			"target":34962
		},
		{
			"buffer":0,
			"byteLength":216,
			"byteOffset":7256,
			"target":34963
		},
		{
			"buffer":0,
			"byteLength":1080,
			"byteOffset":7472,
			"target":34962
		},
		{
			"buffer":0,
			"byteLength":1080,
			"byteOffset":8552,
			"target":34962
		},
		{
			"buffer":0,
			"byteLength":720,
			"byteOffset":9632,
			"target":34962
		},
		{
			"buffer":0,
			"byteLength":720,
			"byteOffset":10352,
			"target":34962
		},
		{
			"buffer":0,
			"byteLength":288,
			"byteOffset":11072,
			"target":34963
		}
	],
	"samplers":[
		{
			"magFilter":9729,
			"minFilter":9987
		}
	],
	"buffers":[
		{
			"byteLength":11360,
			"uri":"Brick_HalfColumn_Bottom.bin"
		}
	]
}
