{
	"asset":{
		"generator":"Khronos glTF Blender I/O v4.3.47",
		"version":"2.0"
	},
	"scene":0,
	"scenes":[
		{
			"name":"Scene",
			"nodes":[
				3
			]
		}
	],
	"nodes":[
		{
			"mesh":0,
			"name":"Brick_RedWhite_DoubleWindow_1-convcolonly"
		},
		{
			"mesh":1,
			"name":"Brick_RedWhite_DoubleWindow_2-convcolonly"
		},
		{
			"mesh":2,
			"name":"Brick_RedWhite_DoubleWindow_3-convcolonly"
		},
		{
			"children":[
				0,
				1,
				2
			],
			"mesh":3,
			"name":"Brick_RedWhite_DoubleWindow"
		}
	],
	"materials":[
		{
			"doubleSided":true,
			"name":"Collision",
			"pbrMetallicRoughness":{
				"baseColorFactor":[
					0.036788325756788254,
					0.5504099726676941,
					0.8000074625015259,
					1
				],
				"metallicFactor":0
			}
		},
		{
			"doubleSided":true,
			"name":"MI_InteriorWall",
			"normalTexture":{
				"index":0
			},
			"pbrMetallicRoughness":{
				"baseColorTexture":{
					"index":1
				},
				"metallicRoughnessTexture":{
					"index":2
				}
			}
		},
		{
			"doubleSided":true,
			"name":"MI_Trim",
			"normalTexture":{
				"index":3
			},
			"pbrMetallicRoughness":{
				"baseColorTexture":{
					"index":4
				},
				"metallicRoughnessTexture":{
					"index":5
				}
			}
		},
		{
			"doubleSided":true,
			"name":"MI_RedBrick_Pale",
			"normalTexture":{
				"index":6
			},
			"pbrMetallicRoughness":{
				"baseColorTexture":{
					"index":7
				},
				"metallicRoughnessTexture":{
					"index":8
				}
			}
		},
		{
			"doubleSided":true,
			"name":"MI_Trim_MetalConcrete",
			"normalTexture":{
				"index":9
			},
			"pbrMetallicRoughness":{
				"baseColorTexture":{
					"index":10
				},
				"metallicRoughnessTexture":{
					"index":11
				}
			}
		},
		{
			"alphaMode":"BLEND",
			"doubleSided":true,
			"name":"MI_Glass",
			"pbrMetallicRoughness":{
				"baseColorFactor":[
					0.05215025693178177,
					0.05215025693178177,
					0.05215025693178177,
					0.586363673210144
				],
				"metallicFactor":0,
				"roughnessFactor":0.5
			}
		},
		{
			"doubleSided":true,
			"name":"MI_FakeInterior",
			"pbrMetallicRoughness":{
				"baseColorFactor":[
					0.800000011920929,
					0.800000011920929,
					0.800000011920929,
					1
				],
				"metallicFactor":0,
				"roughnessFactor":0.5
			}
		}
	],
	"meshes":[
		{
			"name":"Cube.363",
			"primitives":[
				{
					"attributes":{
						"POSITION":0,
						"NORMAL":1,
						"TEXCOORD_0":2
					},
					"indices":3,
					"material":0
				}
			]
		},
		{
			"name":"Cube.364",
			"primitives":[
				{
					"attributes":{
						"POSITION":4,
						"NORMAL":5,
						"TEXCOORD_0":6
					},
					"indices":7,
					"material":0
				}
			]
		},
		{
			"name":"Cube.365",
			"primitives":[
				{
					"attributes":{
						"POSITION":8,
						"NORMAL":9,
						"TEXCOORD_0":10
					},
					"indices":7,
					"material":0
				}
			]
		},
		{
			"name":"Cube.238",
			"primitives":[
				{
					"attributes":{
						"POSITION":11,
						"NORMAL":12,
						"TEXCOORD_0":13,
						"TEXCOORD_1":14,
						"COLOR_0":15,
						"COLOR_1":16
					},
					"indices":17,
					"material":1
				},
				{
					"attributes":{
						"POSITION":18,
						"NORMAL":19,
						"TEXCOORD_0":20,
						"TEXCOORD_1":21,
						"COLOR_0":22,
						"COLOR_1":23
					},
					"indices":24,
					"material":2
				},
				{
					"attributes":{
						"POSITION":25,
						"NORMAL":26,
						"TEXCOORD_0":27,
						"TEXCOORD_1":28,
						"COLOR_0":29,
						"COLOR_1":30
					},
					"indices":31,
					"material":3
				},
				{
					"attributes":{
						"POSITION":32,
						"NORMAL":33,
						"TEXCOORD_0":34,
						"TEXCOORD_1":35,
						"COLOR_0":36,
						"COLOR_1":37
					},
					"indices":38,
					"material":4
				},
				{
					"attributes":{
						"POSITION":39,
						"NORMAL":40,
						"TEXCOORD_0":41,
						"TEXCOORD_1":42,
						"COLOR_0":43,
						"COLOR_1":44
					},
					"indices":45,
					"material":5
				},
				{
					"attributes":{
						"POSITION":46,
						"NORMAL":47,
						"TEXCOORD_0":48,
						"TEXCOORD_1":49,
						"COLOR_0":50,
						"COLOR_1":51
					},
					"indices":52,
					"material":6
				}
			]
		}
	],
	"textures":[
		{
			"sampler":0,
			"source":0
		},
		{
			"sampler":0,
			"source":1
		},
		{
			"sampler":0,
			"source":2
		},
		{
			"sampler":0,
			"source":3
		},
		{
			"sampler":0,
			"source":4
		},
		{
			"sampler":0,
			"source":5
		},
		{
			"sampler":0,
			"source":0
		},
		{
			"sampler":0,
			"source":1
		},
		{
			"sampler":0,
			"source":2
		},
		{
			"sampler":0,
			"source":6
		},
		{
			"sampler":0,
			"source":7
		},
		{
			"sampler":0,
			"source":8
		}
	],
	"images":[
		{
			"mimeType":"image/png",
			"name":"T_RedBrick_Normal",
			"uri":"../../materials/T_RedBrick_Normal.png"
		},
		{
			"mimeType":"image/png",
			"name":"T_RedBrick_BaseColor",
			"uri":"../../materials/T_RedBrick_BaseColor.png"
		},
		{
			"mimeType":"image/png",
			"name":"T_RedBrick_ORM",
			"uri":"../../materials/T_RedBrick_ORM.png"
		},
		{
			"mimeType":"image/png",
			"name":"T_Trim_Normal",
			"uri":"../../materials/T_Trim_Normal.png"
		},
		{
			"mimeType":"image/png",
			"name":"T_Trim_BaseColor",
			"uri":"../../materials/T_Trim_BaseColor.png"
		},
		{
			"mimeType":"image/png",
			"name":"T_Trim_ORM",
			"uri":"../../materials/T_Trim_ORM.png"
		},
		{
			"mimeType":"image/png",
			"name":"T_MetalConcrete_Normal",
			"uri":"../../materials/T_MetalConcrete_Normal.png"
		},
		{
			"mimeType":"image/png",
			"name":"T_MetalConcrete_BaseColor",
			"uri":"../../materials/T_MetalConcrete_BaseColor.png"
		},
		{
			"mimeType":"image/png",
			"name":"T_MetalConcrete_ORM",
			"uri":"../../materials/T_MetalConcrete_ORM.png"
		}
	],
	"accessors":[
		{
			"bufferView":0,
			"componentType":5126,
			"count":24,
			"max":[
				2.0000007152557373,
				3,
				0
			],
			"min":[
				-2.0000007152557373,
				0,
				-0.19999998807907104
			],
			"type":"VEC3"
		},
		{
			"bufferView":1,
			"componentType":5126,
			"count":24,
			"type":"VEC3"
		},
		{
			"bufferView":2,
			"componentType":5126,
			"count":24,
			"type":"VEC2"
		},
		{
			"bufferView":3,
			"componentType":5123,
			"count":36,
			"type":"SCALAR"
		},
		{
			"bufferView":4,
			"componentType":5126,
			"count":24,
			"max":[
				-0.1666494607925415,
				2.4104833602905273,
				-0.19224397838115692
			],
			"min":[
				-1.057950735092163,
				0.3435678482055664,
				-0.23600482940673828
			],
			"type":"VEC3"
		},
		{
			"bufferView":5,
			"componentType":5126,
			"count":24,
			"type":"VEC3"
		},
		{
			"bufferView":6,
			"componentType":5126,
			"count":24,
			"type":"VEC2"
		},
		{
			"bufferView":7,
			"componentType":5123,
			"count":36,
			"type":"SCALAR"
		},
		{
			"bufferView":8,
			"componentType":5126,
			"count":24,
			"max":[
				1.0553311109542847,
				2.4104833602905273,
				-0.19224397838115692
			],
			"min":[
				0.16402989625930786,
				0.3435678482055664,
				-0.23600482940673828
			],
			"type":"VEC3"
		},
		{
			"bufferView":9,
			"componentType":5126,
			"count":24,
			"type":"VEC3"
		},
		{
			"bufferView":10,
			"componentType":5126,
			"count":24,
			"type":"VEC2"
		},
		{
			"bufferView":11,
			"componentType":5126,
			"count":40,
			"max":[
				2,
				3.000000476837158,
				-0.2000000923871994
			],
			"min":[
				-2,
				0,
				-0.2000000923871994
			],
			"type":"VEC3"
		},
		{
			"bufferView":12,
			"componentType":5126,
			"count":40,
			"type":"VEC3"
		},
		{
			"bufferView":13,
			"componentType":5126,
			"count":40,
			"type":"VEC2"
		},
		{
			"bufferView":14,
			"componentType":5126,
			"count":40,
			"type":"VEC2"
		},
		{
			"bufferView":15,
			"componentType":5121,
			"count":40,
			"normalized":true,
			"type":"VEC4"
		},
		{
			"bufferView":16,
			"componentType":5123,
			"count":40,
			"normalized":true,
			"type":"VEC4"
		},
		{
			"bufferView":17,
			"componentType":5123,
			"count":96,
			"type":"SCALAR"
		},
		{
			"bufferView":18,
			"componentType":5126,
			"count":806,
			"max":[
				2,
				3,
				0.035649046301841736
			],
			"min":[
				-2,
				0,
				-0.07388575375080109
			],
			"type":"VEC3"
		},
		{
			"bufferView":19,
			"componentType":5126,
			"count":806,
			"type":"VEC3"
		},
		{
			"bufferView":20,
			"componentType":5126,
			"count":806,
			"type":"VEC2"
		},
		{
			"bufferView":21,
			"componentType":5126,
			"count":806,
			"type":"VEC2"
		},
		{
			"bufferView":22,
			"componentType":5121,
			"count":806,
			"normalized":true,
			"type":"VEC4"
		},
		{
			"bufferView":23,
			"componentType":5123,
			"count":806,
			"normalized":true,
			"type":"VEC4"
		},
		{
			"bufferView":24,
			"componentType":5123,
			"count":1320,
			"type":"SCALAR"
		},
		{
			"bufferView":25,
			"componentType":5126,
			"count":36,
			"max":[
				2,
				2.6658434867858887,
				1.1652771547687735e-07
			],
			"min":[
				-2,
				0,
				0
			],
			"type":"VEC3"
		},
		{
			"bufferView":26,
			"componentType":5126,
			"count":36,
			"type":"VEC3"
		},
		{
			"bufferView":27,
			"componentType":5126,
			"count":36,
			"type":"VEC2"
		},
		{
			"bufferView":28,
			"componentType":5126,
			"count":36,
			"type":"VEC2"
		},
		{
			"bufferView":29,
			"componentType":5121,
			"count":36,
			"normalized":true,
			"type":"VEC4"
		},
		{
			"bufferView":30,
			"componentType":5123,
			"count":36,
			"normalized":true,
			"type":"VEC4"
		},
		{
			"bufferView":31,
			"componentType":5123,
			"count":96,
			"type":"SCALAR"
		},
		{
			"bufferView":32,
			"componentType":5126,
			"count":512,
			"max":[
				1.0595171451568604,
				2.407869815826416,
				-0.03430803865194321
			],
			"min":[
				-1.0595171451568604,
				0.3467772603034973,
				-0.2416905164718628
			],
			"type":"VEC3"
		},
		{
			"bufferView":33,
			"componentType":5126,
			"count":512,
			"type":"VEC3"
		},
		{
			"bufferView":34,
			"componentType":5126,
			"count":512,
			"type":"VEC2"
		},
		{
			"bufferView":35,
			"componentType":5126,
			"count":512,
			"type":"VEC2"
		},
		{
			"bufferView":36,
			"componentType":5121,
			"count":512,
			"normalized":true,
			"type":"VEC4"
		},
		{
			"bufferView":37,
			"componentType":5123,
			"count":512,
			"normalized":true,
			"type":"VEC4"
		},
		{
			"bufferView":38,
			"componentType":5123,
			"count":840,
			"type":"SCALAR"
		},
		{
			"bufferView":39,
			"componentType":5126,
			"count":16,
			"max":[
				0.9852449893951416,
				2.3183350563049316,
				-0.07897023856639862
			],
			"min":[
				-0.9852449893951416,
				0.4363119602203369,
				-0.07897035777568817
			],
			"type":"VEC3"
		},
		{
			"bufferView":40,
			"componentType":5126,
			"count":16,
			"type":"VEC3"
		},
		{
			"bufferView":41,
			"componentType":5126,
			"count":16,
			"type":"VEC2"
		},
		{
			"bufferView":42,
			"componentType":5126,
			"count":16,
			"type":"VEC2"
		},
		{
			"bufferView":43,
			"componentType":5121,
			"count":16,
			"normalized":true,
			"type":"VEC4"
		},
		{
			"bufferView":44,
			"componentType":5123,
			"count":16,
			"normalized":true,
			"type":"VEC4"
		},
		{
			"bufferView":45,
			"componentType":5123,
			"count":24,
			"type":"SCALAR"
		},
		{
			"bufferView":46,
			"componentType":5126,
			"count":4,
			"max":[
				1.4260249137878418,
				2.8756752014160156,
				-0.1970006227493286
			],
			"min":[
				-1.4260249137878418,
				0.09556138515472412,
				-0.1970006227493286
			],
			"type":"VEC3"
		},
		{
			"bufferView":47,
			"componentType":5126,
			"count":4,
			"type":"VEC3"
		},
		{
			"bufferView":48,
			"componentType":5126,
			"count":4,
			"type":"VEC2"
		},
		{
			"bufferView":49,
			"componentType":5126,
			"count":4,
			"type":"VEC2"
		},
		{
			"bufferView":50,
			"componentType":5121,
			"count":4,
			"normalized":true,
			"type":"VEC4"
		},
		{
			"bufferView":51,
			"componentType":5123,
			"count":4,
			"normalized":true,
			"type":"VEC4"
		},
		{
			"bufferView":52,
			"componentType":5123,
			"count":6,
			"type":"SCALAR"
		}
	],
	"bufferViews":[
		{
			"buffer":0,
			"byteLength":288,
			"byteOffset":0,
			"target":34962
		},
		{
			"buffer":0,
			"byteLength":288,
			"byteOffset":288,
			"target":34962
		},
		{
			"buffer":0,
			"byteLength":192,
			"byteOffset":576,
			"target":34962
		},
		{
			"buffer":0,
			"byteLength":72,
			"byteOffset":768,
			"target":34963
		},
		{
			"buffer":0,
			"byteLength":288,
			"byteOffset":840,
			"target":34962
		},
		{
			"buffer":0,
			"byteLength":288,
			"byteOffset":1128,
			"target":34962
		},
		{
			"buffer":0,
			"byteLength":192,
			"byteOffset":1416,
			"target":34962
		},
		{
			"buffer":0,
			"byteLength":72,
			"byteOffset":1608,
			"target":34963
		},
		{
			"buffer":0,
			"byteLength":288,
			"byteOffset":1680,
			"target":34962
		},
		{
			"buffer":0,
			"byteLength":288,
			"byteOffset":1968,
			"target":34962
		},
		{
			"buffer":0,
			"byteLength":192,
			"byteOffset":2256,
			"target":34962
		},
		{
			"buffer":0,
			"byteLength":480,
			"byteOffset":2448,
			"target":34962
		},
		{
			"buffer":0,
			"byteLength":480,
			"byteOffset":2928,
			"target":34962
		},
		{
			"buffer":0,
			"byteLength":320,
			"byteOffset":3408,
			"target":34962
		},
		{
			"buffer":0,
			"byteLength":320,
			"byteOffset":3728,
			"target":34962
		},
		{
			"buffer":0,
			"byteLength":160,
			"byteOffset":4048,
			"target":34962
		},
		{
			"buffer":0,
			"byteLength":320,
			"byteOffset":4208,
			"target":34962
		},
		{
			"buffer":0,
			"byteLength":192,
			"byteOffset":4528,
			"target":34963
		},
		{
			"buffer":0,
			"byteLength":9672,
			"byteOffset":4720,
			"target":34962
		},
		{
			"buffer":0,
			"byteLength":9672,
			"byteOffset":14392,
			"target":34962
		},
		{
			"buffer":0,
			"byteLength":6448,
			"byteOffset":24064,
			"target":34962
		},
		{
			"buffer":0,
			"byteLength":6448,
			"byteOffset":30512,
			"target":34962
		},
		{
			"buffer":0,
			"byteLength":3224,
			"byteOffset":36960,
			"target":34962
		},
		{
			"buffer":0,
			"byteLength":6448,
			"byteOffset":40184,
			"target":34962
		},
		{
			"buffer":0,
			"byteLength":2640,
			"byteOffset":46632,
			"target":34963
		},
		{
			"buffer":0,
			"byteLength":432,
			"byteOffset":49272,
			"target":34962
		},
		{
			"buffer":0,
			"byteLength":432,
			"byteOffset":49704,
			"target":34962
		},
		{
			"buffer":0,
			"byteLength":288,
			"byteOffset":50136,
			"target":34962
		},
		{
			"buffer":0,
			"byteLength":288,
			"byteOffset":50424,
			"target":34962
		},
		{
			"buffer":0,
			"byteLength":144,
			"byteOffset":50712,
			"target":34962
		},
		{
			"buffer":0,
			"byteLength":288,
			"byteOffset":50856,
			"target":34962
		},
		{
			"buffer":0,
			"byteLength":192,
			"byteOffset":51144,
			"target":34963
		},
		{
			"buffer":0,
			"byteLength":6144,
			"byteOffset":51336,
			"target":34962
		},
		{
			"buffer":0,
			"byteLength":6144,
			"byteOffset":57480,
			"target":34962
		},
		{
			"buffer":0,
			"byteLength":4096,
			"byteOffset":63624,
			"target":34962
		},
		{
			"buffer":0,
			"byteLength":4096,
			"byteOffset":67720,
			"target":34962
		},
		{
			"buffer":0,
			"byteLength":2048,
			"byteOffset":71816,
			"target":34962
		},
		{
			"buffer":0,
			"byteLength":4096,
			"byteOffset":73864,
			"target":34962
		},
		{
			"buffer":0,
			"byteLength":1680,
			"byteOffset":77960,
			"target":34963
		},
		{
			"buffer":0,
			"byteLength":192,
			"byteOffset":79640,
			"target":34962
		},
		{
			"buffer":0,
			"byteLength":192,
			"byteOffset":79832,
			"target":34962
		},
		{
			"buffer":0,
			"byteLength":128,
			"byteOffset":80024,
			"target":34962
		},
		{
			"buffer":0,
			"byteLength":128,
			"byteOffset":80152,
			"target":34962
		},
		{
			"buffer":0,
			"byteLength":64,
			"byteOffset":80280,
			"target":34962
		},
		{
			"buffer":0,
			"byteLength":128,
			"byteOffset":80344,
			"target":34962
		},
		{
			"buffer":0,
			"byteLength":48,
			"byteOffset":80472,
			"target":34963
		},
		{
			"buffer":0,
			"byteLength":48,
			"byteOffset":80520,
			"target":34962
		},
		{
			"buffer":0,
			"byteLength":48,
			"byteOffset":80568,
			"target":34962
		},
		{
			"buffer":0,
			"byteLength":32,
			"byteOffset":80616,
			"target":34962
		},
		{
			"buffer":0,
			"byteLength":32,
			"byteOffset":80648,
			"target":34962
		},
		{
			"buffer":0,
			"byteLength":16,
			"byteOffset":80680,
			"target":34962
		},
		{
			"buffer":0,
			"byteLength":32,
			"byteOffset":80696,
			"target":34962
		},
		{
			"buffer":0,
			"byteLength":12,
			"byteOffset":80728,
			"target":34963
		}
	],
	"samplers":[
		{
			"magFilter":9729,
			"minFilter":9987
		}
	],
	"buffers":[
		{
			"byteLength":80740,
			"uri":"Brick_RedWhite_DoubleWindow.bin"
		}
	]
}
