{
	"asset":{
		"generator":"Khronos glTF Blender I/O v4.3.47",
		"version":"2.0"
	},
	"scene":0,
	"scenes":[
		{
			"name":"Scene",
			"nodes":[
				1
			]
		}
	],
	"nodes":[
		{
			"mesh":0,
			"name":"Brick_Column_Small_1-convcolonly"
		},
		{
			"children":[
				0
			],
			"mesh":1,
			"name":"Brick_Column_Small"
		}
	],
	"materials":[
		{
			"doubleSided":true,
			"name":"Collision",
			"pbrMetallicRoughness":{
				"baseColorFactor":[
					0.036788325756788254,
					0.5504099726676941,
					0.8000074625015259,
					1
				],
				"metallicFactor":0
			}
		},
		{
			"doubleSided":true,
			"name":"MI_RedBrick",
			"normalTexture":{
				"index":0
			},
			"pbrMetallicRoughness":{
				"baseColorTexture":{
					"index":1
				},
				"metallicRoughnessTexture":{
					"index":2
				}
			}
		}
	],
	"meshes":[
		{
			"name":"Cube.157",
			"primitives":[
				{
					"attributes":{
						"POSITION":0,
						"NORMAL":1,
						"TEXCOORD_0":2
					},
					"indices":3,
					"material":0
				}
			]
		},
		{
			"name":"Cube.193",
			"primitives":[
				{
					"attributes":{
						"POSITION":4,
						"NORMAL":5,
						"TEXCOORD_0":6,
						"TEXCOORD_1":7
					},
					"indices":8,
					"material":1
				}
			]
		}
	],
	"textures":[
		{
			"sampler":0,
			"source":0
		},
		{
			"sampler":0,
			"source":1
		},
		{
			"sampler":0,
			"source":2
		}
	],
	"images":[
		{
			"mimeType":"image/png",
			"name":"T_RedBrick_Normal",
			"uri":"../../materials/T_RedBrick_Normal.png"
		},
		{
			"mimeType":"image/png",
			"name":"T_RedBrick_BaseColor",
			"uri":"../../materials/T_RedBrick_BaseColor.png"
		},
		{
			"mimeType":"image/png",
			"name":"T_RedBrick_ORM",
			"uri":"../../materials/T_RedBrick_ORM.png"
		}
	],
	"accessors":[
		{
			"bufferView":0,
			"componentType":5126,
			"count":24,
			"max":[
				0.1246861070394516,
				2.9977307319641113,
				0.10057389736175537
			],
			"min":[
				-0.12816685438156128,
				0,
				-0.25019335746765137
			],
			"type":"VEC3"
		},
		{
			"bufferView":1,
			"componentType":5126,
			"count":24,
			"type":"VEC3"
		},
		{
			"bufferView":2,
			"componentType":5126,
			"count":24,
			"type":"VEC2"
		},
		{
			"bufferView":3,
			"componentType":5123,
			"count":36,
			"type":"SCALAR"
		},
		{
			"bufferView":4,
			"componentType":5126,
			"count":64,
			"max":[
				0.125,
				2.999999761581421,
				0.10000000894069672
			],
			"min":[
				-0.125,
				1.7881393432617188e-07,
				-0.25
			],
			"type":"VEC3"
		},
		{
			"bufferView":5,
			"componentType":5126,
			"count":64,
			"type":"VEC3"
		},
		{
			"bufferView":6,
			"componentType":5126,
			"count":64,
			"type":"VEC2"
		},
		{
			"bufferView":7,
			"componentType":5126,
			"count":64,
			"type":"VEC2"
		},
		{
			"bufferView":8,
			"componentType":5123,
			"count":96,
			"type":"SCALAR"
		}
	],
	"bufferViews":[
		{
			"buffer":0,
			"byteLength":288,
			"byteOffset":0,
			"target":34962
		},
		{
			"buffer":0,
			"byteLength":288,
			"byteOffset":288,
			"target":34962
		},
		{
			"buffer":0,
			"byteLength":192,
			"byteOffset":576,
			"target":34962
		},
		{
			"buffer":0,
			"byteLength":72,
			"byteOffset":768,
			"target":34963
		},
		{
			"buffer":0,
			"byteLength":768,
			"byteOffset":840,
			"target":34962
		},
		{
			"buffer":0,
			"byteLength":768,
			"byteOffset":1608,
			"target":34962
		},
		{
			"buffer":0,
			"byteLength":512,
			"byteOffset":2376,
			"target":34962
		},
		{
			"buffer":0,
			"byteLength":512,
			"byteOffset":2888,
			"target":34962
		},
		{
			"buffer":0,
			"byteLength":192,
			"byteOffset":3400,
			"target":34963
		}
	],
	"samplers":[
		{
			"magFilter":9729,
			"minFilter":9987
		}
	],
	"buffers":[
		{
			"byteLength":3592,
			"uri":"Brick_Column_Small.bin"
		}
	]
}
