{
	"asset":{
		"generator":"Khronos glTF Blender I/O v4.3.47",
		"version":"2.0"
	},
	"scene":0,
	"scenes":[
		{
			"name":"Scene",
			"nodes":[
				1
			]
		}
	],
	"nodes":[
		{
			"mesh":0,
			"name":"Brick_HalfTrim_1-convcolonly"
		},
		{
			"children":[
				0
			],
			"mesh":1,
			"name":"Brick_HalfTrim"
		}
	],
	"materials":[
		{
			"doubleSided":true,
			"name":"Collision",
			"pbrMetallicRoughness":{
				"baseColorFactor":[
					0.036788325756788254,
					0.5504099726676941,
					0.8000074625015259,
					1
				],
				"metallicFactor":0
			}
		},
		{
			"doubleSided":true,
			"name":"MI_RedBrick",
			"normalTexture":{
				"index":0
			},
			"pbrMetallicRoughness":{
				"baseColorTexture":{
					"index":1
				},
				"metallicRoughnessTexture":{
					"index":2
				}
			}
		},
		{
			"doubleSided":true,
			"name":"MI_Trim",
			"normalTexture":{
				"index":3
			},
			"pbrMetallicRoughness":{
				"baseColorTexture":{
					"index":4
				},
				"metallicRoughnessTexture":{
					"index":5
				}
			}
		},
		{
			"doubleSided":true,
			"name":"MI_InteriorWall",
			"normalTexture":{
				"index":6
			},
			"pbrMetallicRoughness":{
				"baseColorTexture":{
					"index":7
				},
				"metallicRoughnessTexture":{
					"index":8
				}
			}
		}
	],
	"meshes":[
		{
			"name":"Cube.326",
			"primitives":[
				{
					"attributes":{
						"POSITION":0,
						"NORMAL":1,
						"TEXCOORD_0":2
					},
					"indices":3,
					"material":0
				}
			]
		},
		{
			"name":"Cube.042",
			"primitives":[
				{
					"attributes":{
						"POSITION":4,
						"NORMAL":5,
						"TEXCOORD_0":6,
						"TEXCOORD_1":7,
						"COLOR_0":8,
						"COLOR_1":9
					},
					"indices":10,
					"material":1
				},
				{
					"attributes":{
						"POSITION":11,
						"NORMAL":12,
						"TEXCOORD_0":13,
						"TEXCOORD_1":14,
						"COLOR_0":15,
						"COLOR_1":16
					},
					"indices":17,
					"material":2
				},
				{
					"attributes":{
						"POSITION":18,
						"NORMAL":19,
						"TEXCOORD_0":20,
						"TEXCOORD_1":21,
						"COLOR_0":22,
						"COLOR_1":23
					},
					"indices":24,
					"material":3
				}
			]
		}
	],
	"textures":[
		{
			"sampler":0,
			"source":0
		},
		{
			"sampler":0,
			"source":1
		},
		{
			"sampler":0,
			"source":2
		},
		{
			"sampler":0,
			"source":3
		},
		{
			"sampler":0,
			"source":4
		},
		{
			"sampler":0,
			"source":5
		},
		{
			"sampler":0,
			"source":0
		},
		{
			"sampler":0,
			"source":1
		},
		{
			"sampler":0,
			"source":2
		}
	],
	"images":[
		{
			"mimeType":"image/png",
			"name":"T_RedBrick_Normal",
			"uri":"../../materials/T_RedBrick_Normal.png"
		},
		{
			"mimeType":"image/png",
			"name":"T_RedBrick_BaseColor",
			"uri":"../../materials/T_RedBrick_BaseColor.png"
		},
		{
			"mimeType":"image/png",
			"name":"T_RedBrick_ORM",
			"uri":"../../materials/T_RedBrick_ORM.png"
		},
		{
			"mimeType":"image/png",
			"name":"T_Trim_Normal",
			"uri":"../../materials/T_Trim_Normal.png"
		},
		{
			"mimeType":"image/png",
			"name":"T_Trim_BaseColor",
			"uri":"../../materials/T_Trim_BaseColor.png"
		},
		{
			"mimeType":"image/png",
			"name":"T_Trim_ORM",
			"uri":"../../materials/T_Trim_ORM.png"
		}
	],
	"accessors":[
		{
			"bufferView":0,
			"componentType":5126,
			"count":24,
			"max":[
				1.0000003576278687,
				3,
				0
			],
			"min":[
				-1.0000003576278687,
				0,
				-0.19999998807907104
			],
			"type":"VEC3"
		},
		{
			"bufferView":1,
			"componentType":5126,
			"count":24,
			"type":"VEC3"
		},
		{
			"bufferView":2,
			"componentType":5126,
			"count":24,
			"type":"VEC2"
		},
		{
			"bufferView":3,
			"componentType":5123,
			"count":36,
			"type":"SCALAR"
		},
		{
			"bufferView":4,
			"componentType":5126,
			"count":24,
			"max":[
				1,
				1.832980990409851,
				0.024680564180016518
			],
			"min":[
				-1,
				0,
				-1.5561631983018742e-07
			],
			"type":"VEC3"
		},
		{
			"bufferView":5,
			"componentType":5126,
			"count":24,
			"type":"VEC3"
		},
		{
			"bufferView":6,
			"componentType":5126,
			"count":24,
			"type":"VEC2"
		},
		{
			"bufferView":7,
			"componentType":5126,
			"count":24,
			"type":"VEC2"
		},
		{
			"bufferView":8,
			"componentType":5121,
			"count":24,
			"normalized":true,
			"type":"VEC4"
		},
		{
			"bufferView":9,
			"componentType":5123,
			"count":24,
			"normalized":true,
			"type":"VEC4"
		},
		{
			"bufferView":10,
			"componentType":5123,
			"count":36,
			"type":"SCALAR"
		},
		{
			"bufferView":11,
			"componentType":5126,
			"count":12,
			"max":[
				1,
				3,
				1.3113415775478643e-07
			],
			"min":[
				-1,
				1.832980990409851,
				8.012213470465213e-08
			],
			"type":"VEC3"
		},
		{
			"bufferView":12,
			"componentType":5126,
			"count":12,
			"type":"VEC3"
		},
		{
			"bufferView":13,
			"componentType":5126,
			"count":12,
			"type":"VEC2"
		},
		{
			"bufferView":14,
			"componentType":5126,
			"count":12,
			"type":"VEC2"
		},
		{
			"bufferView":15,
			"componentType":5121,
			"count":12,
			"normalized":true,
			"type":"VEC4"
		},
		{
			"bufferView":16,
			"componentType":5123,
			"count":12,
			"normalized":true,
			"type":"VEC4"
		},
		{
			"bufferView":17,
			"componentType":5123,
			"count":18,
			"type":"SCALAR"
		},
		{
			"bufferView":18,
			"componentType":5126,
			"count":10,
			"max":[
				1,
				3.000000476837158,
				-0.2000000923871994
			],
			"min":[
				-1,
				0,
				-0.2000000923871994
			],
			"type":"VEC3"
		},
		{
			"bufferView":19,
			"componentType":5126,
			"count":10,
			"type":"VEC3"
		},
		{
			"bufferView":20,
			"componentType":5126,
			"count":10,
			"type":"VEC2"
		},
		{
			"bufferView":21,
			"componentType":5126,
			"count":10,
			"type":"VEC2"
		},
		{
			"bufferView":22,
			"componentType":5121,
			"count":10,
			"normalized":true,
			"type":"VEC4"
		},
		{
			"bufferView":23,
			"componentType":5123,
			"count":10,
			"normalized":true,
			"type":"VEC4"
		},
		{
			"bufferView":24,
			"componentType":5123,
			"count":18,
			"type":"SCALAR"
		}
	],
	"bufferViews":[
		{
			"buffer":0,
			"byteLength":288,
			"byteOffset":0,
			"target":34962
		},
		{
			"buffer":0,
			"byteLength":288,
			"byteOffset":288,
			"target":34962
		},
		{
			"buffer":0,
			"byteLength":192,
			"byteOffset":576,
			"target":34962
		},
		{
			"buffer":0,
			"byteLength":72,
			"byteOffset":768,
			"target":34963
		},
		{
			"buffer":0,
			"byteLength":288,
			"byteOffset":840,
			"target":34962
		},
		{
			"buffer":0,
			"byteLength":288,
			"byteOffset":1128,
			"target":34962
		},
		{
			"buffer":0,
			"byteLength":192,
			"byteOffset":1416,
			"target":34962
		},
		{
			"buffer":0,
			"byteLength":192,
			"byteOffset":1608,
			"target":34962
		},
		{
			"buffer":0,
			"byteLength":96,
			"byteOffset":1800,
			"target":34962
		},
		{
			"buffer":0,
			"byteLength":192,
			"byteOffset":1896,
			"target":34962
		},
		{
			"buffer":0,
			"byteLength":72,
			"byteOffset":2088,
			"target":34963
		},
		{
			"buffer":0,
			"byteLength":144,
			"byteOffset":2160,
			"target":34962
		},
		{
			"buffer":0,
			"byteLength":144,
			"byteOffset":2304,
			"target":34962
		},
		{
			"buffer":0,
			"byteLength":96,
			"byteOffset":2448,
			"target":34962
		},
		{
			"buffer":0,
			"byteLength":96,
			"byteOffset":2544,
			"target":34962
		},
		{
			"buffer":0,
			"byteLength":48,
			"byteOffset":2640,
			"target":34962
		},
		{
			"buffer":0,
			"byteLength":96,
			"byteOffset":2688,
			"target":34962
		},
		{
			"buffer":0,
			"byteLength":36,
			"byteOffset":2784,
			"target":34963
		},
		{
			"buffer":0,
			"byteLength":120,
			"byteOffset":2820,
			"target":34962
		},
		{
			"buffer":0,
			"byteLength":120,
			"byteOffset":2940,
			"target":34962
		},
		{
			"buffer":0,
			"byteLength":80,
			"byteOffset":3060,
			"target":34962
		},
		{
			"buffer":0,
			"byteLength":80,
			"byteOffset":3140,
			"target":34962
		},
		{
			"buffer":0,
			"byteLength":40,
			"byteOffset":3220,
			"target":34962
		},
		{
			"buffer":0,
			"byteLength":80,
			"byteOffset":3260,
			"target":34962
		},
		{
			"buffer":0,
			"byteLength":36,
			"byteOffset":3340,
			"target":34963
		}
	],
	"samplers":[
		{
			"magFilter":9729,
			"minFilter":9987
		}
	],
	"buffers":[
		{
			"byteLength":3376,
			"uri":"Brick_HalfTrim.bin"
		}
	]
}
