{
	"asset":{
		"generator":"Khronos glTF Blender I/O v4.3.47",
		"version":"2.0"
	},
	"scene":0,
	"scenes":[
		{
			"name":"Scene",
			"nodes":[
				9
			]
		}
	],
	"nodes":[
		{
			"mesh":0,
			"name":"Brick_Window_Trim_Single_01-convcolonly"
		},
		{
			"mesh":1,
			"name":"Brick_Window_Trim_Single_02-convcolonly"
		},
		{
			"mesh":2,
			"name":"Brick_Window_Trim_Single_03-convcolonly"
		},
		{
			"mesh":3,
			"name":"Brick_Window_Trim_Single_04-convcolonly"
		},
		{
			"mesh":4,
			"name":"Brick_Window_Trim_Single_05-convcolonly"
		},
		{
			"mesh":5,
			"name":"Brick_Window_Trim_Single_06-convcolonly"
		},
		{
			"mesh":6,
			"name":"Brick_Window_Trim_Single_07-convcolonly"
		},
		{
			"mesh":7,
			"name":"Brick_Window_Trim_Single_08-convcolonly"
		},
		{
			"mesh":8,
			"name":"Brick_Window_Trim_Single_09-convcolonly"
		},
		{
			"children":[
				0,
				1,
				2,
				3,
				4,
				5,
				6,
				7,
				8
			],
			"mesh":9,
			"name":"Brick_Window_Trim_Single"
		}
	],
	"materials":[
		{
			"doubleSided":true,
			"name":"Collision",
			"pbrMetallicRoughness":{
				"baseColorFactor":[
					0.036788325756788254,
					0.5504099726676941,
					0.8000074625015259,
					1
				],
				"metallicFactor":0
			}
		},
		{
			"doubleSided":true,
			"name":"MI_RedBrick",
			"normalTexture":{
				"index":0
			},
			"pbrMetallicRoughness":{
				"baseColorTexture":{
					"index":1
				},
				"metallicRoughnessTexture":{
					"index":2
				}
			}
		},
		{
			"doubleSided":true,
			"name":"MI_Trim",
			"normalTexture":{
				"index":3
			},
			"pbrMetallicRoughness":{
				"baseColorTexture":{
					"index":4
				},
				"metallicRoughnessTexture":{
					"index":5
				}
			}
		},
		{
			"alphaMode":"BLEND",
			"doubleSided":true,
			"name":"MI_Glass",
			"pbrMetallicRoughness":{
				"baseColorFactor":[
					0.05215025693178177,
					0.05215025693178177,
					0.05215025693178177,
					0.586363673210144
				],
				"metallicFactor":0,
				"roughnessFactor":0.5
			}
		},
		{
			"doubleSided":true,
			"name":"MI_FakeInterior",
			"pbrMetallicRoughness":{
				"baseColorFactor":[
					0.800000011920929,
					0.800000011920929,
					0.800000011920929,
					1
				],
				"metallicFactor":0,
				"roughnessFactor":0.5
			}
		},
		{
			"doubleSided":true,
			"name":"MI_InteriorWall",
			"normalTexture":{
				"index":6
			},
			"pbrMetallicRoughness":{
				"baseColorTexture":{
					"index":7
				},
				"metallicRoughnessTexture":{
					"index":8
				}
			}
		}
	],
	"meshes":[
		{
			"name":"Cube.320",
			"primitives":[
				{
					"attributes":{
						"POSITION":0,
						"NORMAL":1,
						"TEXCOORD_0":2
					},
					"indices":3,
					"material":0
				}
			]
		},
		{
			"name":"Cube.327",
			"primitives":[
				{
					"attributes":{
						"POSITION":4,
						"NORMAL":5,
						"TEXCOORD_0":6
					},
					"indices":7,
					"material":0
				}
			]
		},
		{
			"name":"Cube.337",
			"primitives":[
				{
					"attributes":{
						"POSITION":8,
						"NORMAL":9,
						"TEXCOORD_0":10
					},
					"indices":11,
					"material":0
				}
			]
		},
		{
			"name":"Cube.338",
			"primitives":[
				{
					"attributes":{
						"POSITION":12,
						"NORMAL":13,
						"TEXCOORD_0":14
					},
					"indices":15,
					"material":0
				}
			]
		},
		{
			"name":"Cube.339",
			"primitives":[
				{
					"attributes":{
						"POSITION":16,
						"NORMAL":17,
						"TEXCOORD_0":18
					},
					"indices":19,
					"material":0
				}
			]
		},
		{
			"name":"Cube.340",
			"primitives":[
				{
					"attributes":{
						"POSITION":20,
						"NORMAL":21,
						"TEXCOORD_0":22
					},
					"indices":23,
					"material":0
				}
			]
		},
		{
			"name":"Cube.341",
			"primitives":[
				{
					"attributes":{
						"POSITION":24,
						"NORMAL":25,
						"TEXCOORD_0":26
					},
					"indices":27,
					"material":0
				}
			]
		},
		{
			"name":"Cube.342",
			"primitives":[
				{
					"attributes":{
						"POSITION":28,
						"NORMAL":29,
						"TEXCOORD_0":30
					},
					"indices":27,
					"material":0
				}
			]
		},
		{
			"name":"Cube.343",
			"primitives":[
				{
					"attributes":{
						"POSITION":31,
						"NORMAL":32,
						"TEXCOORD_0":33
					},
					"indices":34,
					"material":0
				}
			]
		},
		{
			"name":"Cube.015",
			"primitives":[
				{
					"attributes":{
						"POSITION":35,
						"NORMAL":36,
						"TEXCOORD_0":37,
						"TEXCOORD_1":38,
						"COLOR_0":39,
						"COLOR_1":40
					},
					"indices":41,
					"material":1
				},
				{
					"attributes":{
						"POSITION":42,
						"NORMAL":43,
						"TEXCOORD_0":44,
						"TEXCOORD_1":45,
						"COLOR_0":46,
						"COLOR_1":47
					},
					"indices":48,
					"material":2
				},
				{
					"attributes":{
						"POSITION":49,
						"NORMAL":50,
						"TEXCOORD_0":51,
						"TEXCOORD_1":52,
						"COLOR_0":53,
						"COLOR_1":54
					},
					"indices":55,
					"material":3
				},
				{
					"attributes":{
						"POSITION":56,
						"NORMAL":57,
						"TEXCOORD_0":58,
						"TEXCOORD_1":59,
						"COLOR_0":60,
						"COLOR_1":61
					},
					"indices":62,
					"material":4
				},
				{
					"attributes":{
						"POSITION":63,
						"NORMAL":64,
						"TEXCOORD_0":65,
						"TEXCOORD_1":66,
						"COLOR_0":67,
						"COLOR_1":68
					},
					"indices":69,
					"material":5
				}
			]
		}
	],
	"textures":[
		{
			"sampler":0,
			"source":0
		},
		{
			"sampler":0,
			"source":1
		},
		{
			"sampler":0,
			"source":2
		},
		{
			"sampler":0,
			"source":3
		},
		{
			"sampler":0,
			"source":4
		},
		{
			"sampler":0,
			"source":5
		},
		{
			"sampler":0,
			"source":0
		},
		{
			"sampler":0,
			"source":1
		},
		{
			"sampler":0,
			"source":2
		}
	],
	"images":[
		{
			"mimeType":"image/png",
			"name":"T_RedBrick_Normal",
			"uri":"../../materials/T_RedBrick_Normal.png"
		},
		{
			"mimeType":"image/png",
			"name":"T_RedBrick_BaseColor",
			"uri":"../../materials/T_RedBrick_BaseColor.png"
		},
		{
			"mimeType":"image/png",
			"name":"T_RedBrick_ORM",
			"uri":"../../materials/T_RedBrick_ORM.png"
		},
		{
			"mimeType":"image/png",
			"name":"T_Trim_Normal",
			"uri":"../../materials/T_Trim_Normal.png"
		},
		{
			"mimeType":"image/png",
			"name":"T_Trim_BaseColor",
			"uri":"../../materials/T_Trim_BaseColor.png"
		},
		{
			"mimeType":"image/png",
			"name":"T_Trim_ORM",
			"uri":"../../materials/T_Trim_ORM.png"
		}
	],
	"accessors":[
		{
			"bufferView":0,
			"componentType":5126,
			"count":24,
			"max":[
				1.0000003576278687,
				2.2976768016815186,
				0
			],
			"min":[
				0.582473635673523,
				0.4391673803329468,
				-0.19999998807907104
			],
			"type":"VEC3"
		},
		{
			"bufferView":1,
			"componentType":5126,
			"count":24,
			"type":"VEC3"
		},
		{
			"bufferView":2,
			"componentType":5126,
			"count":24,
			"type":"VEC2"
		},
		{
			"bufferView":3,
			"componentType":5123,
			"count":36,
			"type":"SCALAR"
		},
		{
			"bufferView":4,
			"componentType":5126,
			"count":24,
			"max":[
				1.0000003576278687,
				0.4391673803329468,
				0
			],
			"min":[
				-1.0000003576278687,
				0,
				-0.19999998807907104
			],
			"type":"VEC3"
		},
		{
			"bufferView":5,
			"componentType":5126,
			"count":24,
			"type":"VEC3"
		},
		{
			"bufferView":6,
			"componentType":5126,
			"count":24,
			"type":"VEC2"
		},
		{
			"bufferView":7,
			"componentType":5123,
			"count":36,
			"type":"SCALAR"
		},
		{
			"bufferView":8,
			"componentType":5126,
			"count":24,
			"max":[
				-0.5824735164642334,
				2.2976768016815186,
				0
			],
			"min":[
				-1.0000003576278687,
				0.4391673803329468,
				-0.19999998807907104
			],
			"type":"VEC3"
		},
		{
			"bufferView":9,
			"componentType":5126,
			"count":24,
			"type":"VEC3"
		},
		{
			"bufferView":10,
			"componentType":5126,
			"count":24,
			"type":"VEC2"
		},
		{
			"bufferView":11,
			"componentType":5123,
			"count":36,
			"type":"SCALAR"
		},
		{
			"bufferView":12,
			"componentType":5126,
			"count":24,
			"max":[
				1.0000003576278687,
				3,
				0
			],
			"min":[
				-1.0000003576278687,
				2.1516714096069336,
				-0.19999998807907104
			],
			"type":"VEC3"
		},
		{
			"bufferView":13,
			"componentType":5126,
			"count":24,
			"type":"VEC3"
		},
		{
			"bufferView":14,
			"componentType":5126,
			"count":24,
			"type":"VEC2"
		},
		{
			"bufferView":15,
			"componentType":5123,
			"count":36,
			"type":"SCALAR"
		},
		{
			"bufferView":16,
			"componentType":5126,
			"count":24,
			"max":[
				0.5974202156066895,
				2.328183650970459,
				-0.16867807507514954
			],
			"min":[
				-0.5974200963973999,
				0.44020599126815796,
				-0.19999998807907104
			],
			"type":"VEC3"
		},
		{
			"bufferView":17,
			"componentType":5126,
			"count":24,
			"type":"VEC3"
		},
		{
			"bufferView":18,
			"componentType":5126,
			"count":24,
			"type":"VEC2"
		},
		{
			"bufferView":19,
			"componentType":5123,
			"count":36,
			"type":"SCALAR"
		},
		{
			"bufferView":20,
			"componentType":5126,
			"count":24,
			"max":[
				0.26824185252189636,
				1.9278039932250977,
				-0.10005215555429459
			],
			"min":[
				-0.2682412564754486,
				0.5401270985603333,
				-0.25024932622909546
			],
			"type":"VEC3"
		},
		{
			"bufferView":21,
			"componentType":5126,
			"count":24,
			"type":"VEC3"
		},
		{
			"bufferView":22,
			"componentType":5126,
			"count":24,
			"type":"VEC2"
		},
		{
			"bufferView":23,
			"componentType":5123,
			"count":36,
			"type":"SCALAR"
		},
		{
			"bufferView":24,
			"componentType":5126,
			"count":24,
			"max":[
				0.6246656775474548,
				0.5562962293624878,
				0.03251831978559494
			],
			"min":[
				-0.6246655583381653,
				0.4295952022075653,
				-0.17780087888240814
			],
			"type":"VEC3"
		},
		{
			"bufferView":25,
			"componentType":5126,
			"count":24,
			"type":"VEC3"
		},
		{
			"bufferView":26,
			"componentType":5126,
			"count":24,
			"type":"VEC2"
		},
		{
			"bufferView":27,
			"componentType":5123,
			"count":36,
			"type":"SCALAR"
		},
		{
			"bufferView":28,
			"componentType":5126,
			"count":24,
			"max":[
				0.722217321395874,
				2.3373308181762695,
				0.04751202091574669
			],
			"min":[
				-0.7222172021865845,
				2.143277883529663,
				-0.05284828320145607
			],
			"type":"VEC3"
		},
		{
			"bufferView":29,
			"componentType":5126,
			"count":24,
			"type":"VEC3"
		},
		{
			"bufferView":30,
			"componentType":5126,
			"count":24,
			"type":"VEC2"
		},
		{
			"bufferView":31,
			"componentType":5126,
			"count":24,
			"max":[
				0.18699350953102112,
				2.509441375732422,
				0.04751202091574669
			],
			"min":[
				-0.18699339032173157,
				2.3373308181762695,
				-0.05284828320145607
			],
			"type":"VEC3"
		},
		{
			"bufferView":32,
			"componentType":5126,
			"count":24,
			"type":"VEC3"
		},
		{
			"bufferView":33,
			"componentType":5126,
			"count":24,
			"type":"VEC2"
		},
		{
			"bufferView":34,
			"componentType":5123,
			"count":36,
			"type":"SCALAR"
		},
		{
			"bufferView":35,
			"componentType":5126,
			"count":204,
			"max":[
				1,
				3,
				0.028963593766093254
			],
			"min":[
				-1,
				0,
				-0.1863364577293396
			],
			"type":"VEC3"
		},
		{
			"bufferView":36,
			"componentType":5126,
			"count":204,
			"type":"VEC3"
		},
		{
			"bufferView":37,
			"componentType":5126,
			"count":204,
			"type":"VEC2"
		},
		{
			"bufferView":38,
			"componentType":5126,
			"count":204,
			"type":"VEC2"
		},
		{
			"bufferView":39,
			"componentType":5121,
			"count":204,
			"normalized":true,
			"type":"VEC4"
		},
		{
			"bufferView":40,
			"componentType":5123,
			"count":204,
			"normalized":true,
			"type":"VEC4"
		},
		{
			"bufferView":41,
			"componentType":5123,
			"count":510,
			"type":"SCALAR"
		},
		{
			"bufferView":42,
			"componentType":5126,
			"count":382,
			"max":[
				0.7273773550987244,
				2.5099925994873047,
				0.04437822103500366
			],
			"min":[
				-0.7273773550987244,
				0.42999914288520813,
				-0.23248422145843506
			],
			"type":"VEC3"
		},
		{
			"bufferView":43,
			"componentType":5126,
			"count":382,
			"type":"VEC3"
		},
		{
			"bufferView":44,
			"componentType":5126,
			"count":382,
			"type":"VEC2"
		},
		{
			"bufferView":45,
			"componentType":5126,
			"count":382,
			"type":"VEC2"
		},
		{
			"bufferView":46,
			"componentType":5121,
			"count":382,
			"normalized":true,
			"type":"VEC4"
		},
		{
			"bufferView":47,
			"componentType":5123,
			"count":382,
			"normalized":true,
			"type":"VEC4"
		},
		{
			"bufferView":48,
			"componentType":5123,
			"count":690,
			"type":"SCALAR"
		},
		{
			"bufferView":49,
			"componentType":5126,
			"count":12,
			"max":[
				0.22706717252731323,
				1.8929882049560547,
				-0.17877846956253052
			],
			"min":[
				-0.22706717252731323,
				0.5906508564949036,
				-0.17877846956253052
			],
			"type":"VEC3"
		},
		{
			"bufferView":50,
			"componentType":5126,
			"count":12,
			"type":"VEC3"
		},
		{
			"bufferView":51,
			"componentType":5126,
			"count":12,
			"type":"VEC2"
		},
		{
			"bufferView":52,
			"componentType":5126,
			"count":12,
			"type":"VEC2"
		},
		{
			"bufferView":53,
			"componentType":5121,
			"count":12,
			"normalized":true,
			"type":"VEC4"
		},
		{
			"bufferView":54,
			"componentType":5123,
			"count":12,
			"normalized":true,
			"type":"VEC4"
		},
		{
			"bufferView":55,
			"componentType":5123,
			"count":24,
			"type":"SCALAR"
		},
		{
			"bufferView":56,
			"componentType":5126,
			"count":4,
			"max":[
				0.9745540022850037,
				2.8756752014160156,
				-0.19173073768615723
			],
			"min":[
				-0.9745540022850037,
				0.09556138515472412,
				-0.19173073768615723
			],
			"type":"VEC3"
		},
		{
			"bufferView":57,
			"componentType":5126,
			"count":4,
			"type":"VEC3"
		},
		{
			"bufferView":58,
			"componentType":5126,
			"count":4,
			"type":"VEC2"
		},
		{
			"bufferView":59,
			"componentType":5126,
			"count":4,
			"type":"VEC2"
		},
		{
			"bufferView":60,
			"componentType":5121,
			"count":4,
			"normalized":true,
			"type":"VEC4"
		},
		{
			"bufferView":61,
			"componentType":5123,
			"count":4,
			"normalized":true,
			"type":"VEC4"
		},
		{
			"bufferView":62,
			"componentType":5123,
			"count":6,
			"type":"SCALAR"
		},
		{
			"bufferView":63,
			"componentType":5126,
			"count":21,
			"max":[
				1,
				3.000000476837158,
				-0.2000000923871994
			],
			"min":[
				-1,
				0,
				-0.2000001072883606
			],
			"type":"VEC3"
		},
		{
			"bufferView":64,
			"componentType":5126,
			"count":21,
			"type":"VEC3"
		},
		{
			"bufferView":65,
			"componentType":5126,
			"count":21,
			"type":"VEC2"
		},
		{
			"bufferView":66,
			"componentType":5126,
			"count":21,
			"type":"VEC2"
		},
		{
			"bufferView":67,
			"componentType":5121,
			"count":21,
			"normalized":true,
			"type":"VEC4"
		},
		{
			"bufferView":68,
			"componentType":5123,
			"count":21,
			"normalized":true,
			"type":"VEC4"
		},
		{
			"bufferView":69,
			"componentType":5123,
			"count":48,
			"type":"SCALAR"
		}
	],
	"bufferViews":[
		{
			"buffer":0,
			"byteLength":288,
			"byteOffset":0,
			"target":34962
		},
		{
			"buffer":0,
			"byteLength":288,
			"byteOffset":288,
			"target":34962
		},
		{
			"buffer":0,
			"byteLength":192,
			"byteOffset":576,
			"target":34962
		},
		{
			"buffer":0,
			"byteLength":72,
			"byteOffset":768,
			"target":34963
		},
		{
			"buffer":0,
			"byteLength":288,
			"byteOffset":840,
			"target":34962
		},
		{
			"buffer":0,
			"byteLength":288,
			"byteOffset":1128,
			"target":34962
		},
		{
			"buffer":0,
			"byteLength":192,
			"byteOffset":1416,
			"target":34962
		},
		{
			"buffer":0,
			"byteLength":72,
			"byteOffset":1608,
			"target":34963
		},
		{
			"buffer":0,
			"byteLength":288,
			"byteOffset":1680,
			"target":34962
		},
		{
			"buffer":0,
			"byteLength":288,
			"byteOffset":1968,
			"target":34962
		},
		{
			"buffer":0,
			"byteLength":192,
			"byteOffset":2256,
			"target":34962
		},
		{
			"buffer":0,
			"byteLength":72,
			"byteOffset":2448,
			"target":34963
		},
		{
			"buffer":0,
			"byteLength":288,
			"byteOffset":2520,
			"target":34962
		},
		{
			"buffer":0,
			"byteLength":288,
			"byteOffset":2808,
			"target":34962
		},
		{
			"buffer":0,
			"byteLength":192,
			"byteOffset":3096,
			"target":34962
		},
		{
			"buffer":0,
			"byteLength":72,
			"byteOffset":3288,
			"target":34963
		},
		{
			"buffer":0,
			"byteLength":288,
			"byteOffset":3360,
			"target":34962
		},
		{
			"buffer":0,
			"byteLength":288,
			"byteOffset":3648,
			"target":34962
		},
		{
			"buffer":0,
			"byteLength":192,
			"byteOffset":3936,
			"target":34962
		},
		{
			"buffer":0,
			"byteLength":72,
			"byteOffset":4128,
			"target":34963
		},
		{
			"buffer":0,
			"byteLength":288,
			"byteOffset":4200,
			"target":34962
		},
		{
			"buffer":0,
			"byteLength":288,
			"byteOffset":4488,
			"target":34962
		},
		{
			"buffer":0,
			"byteLength":192,
			"byteOffset":4776,
			"target":34962
		},
		{
			"buffer":0,
			"byteLength":72,
			"byteOffset":4968,
			"target":34963
		},
		{
			"buffer":0,
			"byteLength":288,
			"byteOffset":5040,
			"target":34962
		},
		{
			"buffer":0,
			"byteLength":288,
			"byteOffset":5328,
			"target":34962
		},
		{
			"buffer":0,
			"byteLength":192,
			"byteOffset":5616,
			"target":34962
		},
		{
			"buffer":0,
			"byteLength":72,
			"byteOffset":5808,
			"target":34963
		},
		{
			"buffer":0,
			"byteLength":288,
			"byteOffset":5880,
			"target":34962
		},
		{
			"buffer":0,
			"byteLength":288,
			"byteOffset":6168,
			"target":34962
		},
		{
			"buffer":0,
			"byteLength":192,
			"byteOffset":6456,
			"target":34962
		},
		{
			"buffer":0,
			"byteLength":288,
			"byteOffset":6648,
			"target":34962
		},
		{
			"buffer":0,
			"byteLength":288,
			"byteOffset":6936,
			"target":34962
		},
		{
			"buffer":0,
			"byteLength":192,
			"byteOffset":7224,
			"target":34962
		},
		{
			"buffer":0,
			"byteLength":72,
			"byteOffset":7416,
			"target":34963
		},
		{
			"buffer":0,
			"byteLength":2448,
			"byteOffset":7488,
			"target":34962
		},
		{
			"buffer":0,
			"byteLength":2448,
			"byteOffset":9936,
			"target":34962
		},
		{
			"buffer":0,
			"byteLength":1632,
			"byteOffset":12384,
			"target":34962
		},
		{
			"buffer":0,
			"byteLength":1632,
			"byteOffset":14016,
			"target":34962
		},
		{
			"buffer":0,
			"byteLength":816,
			"byteOffset":15648,
			"target":34962
		},
		{
			"buffer":0,
			"byteLength":1632,
			"byteOffset":16464,
			"target":34962
		},
		{
			"buffer":0,
			"byteLength":1020,
			"byteOffset":18096,
			"target":34963
		},
		{
			"buffer":0,
			"byteLength":4584,
			"byteOffset":19116,
			"target":34962
		},
		{
			"buffer":0,
			"byteLength":4584,
			"byteOffset":23700,
			"target":34962
		},
		{
			"buffer":0,
			"byteLength":3056,
			"byteOffset":28284,
			"target":34962
		},
		{
			"buffer":0,
			"byteLength":3056,
			"byteOffset":31340,
			"target":34962
		},
		{
			"buffer":0,
			"byteLength":1528,
			"byteOffset":34396,
			"target":34962
		},
		{
			"buffer":0,
			"byteLength":3056,
			"byteOffset":35924,
			"target":34962
		},
		{
			"buffer":0,
			"byteLength":1380,
			"byteOffset":38980,
			"target":34963
		},
		{
			"buffer":0,
			"byteLength":144,
			"byteOffset":40360,
			"target":34962
		},
		{
			"buffer":0,
			"byteLength":144,
			"byteOffset":40504,
			"target":34962
		},
		{
			"buffer":0,
			"byteLength":96,
			"byteOffset":40648,
			"target":34962
		},
		{
			"buffer":0,
			"byteLength":96,
			"byteOffset":40744,
			"target":34962
		},
		{
			"buffer":0,
			"byteLength":48,
			"byteOffset":40840,
			"target":34962
		},
		{
			"buffer":0,
			"byteLength":96,
			"byteOffset":40888,
			"target":34962
		},
		{
			"buffer":0,
			"byteLength":48,
			"byteOffset":40984,
			"target":34963
		},
		{
			"buffer":0,
			"byteLength":48,
			"byteOffset":41032,
			"target":34962
		},
		{
			"buffer":0,
			"byteLength":48,
			"byteOffset":41080,
			"target":34962
		},
		{
			"buffer":0,
			"byteLength":32,
			"byteOffset":41128,
			"target":34962
		},
		{
			"buffer":0,
			"byteLength":32,
			"byteOffset":41160,
			"target":34962
		},
		{
			"buffer":0,
			"byteLength":16,
			"byteOffset":41192,
			"target":34962
		},
		{
			"buffer":0,
			"byteLength":32,
			"byteOffset":41208,
			"target":34962
		},
		{
			"buffer":0,
			"byteLength":12,
			"byteOffset":41240,
			"target":34963
		},
		{
			"buffer":0,
			"byteLength":252,
			"byteOffset":41252,
			"target":34962
		},
		{
			"buffer":0,
			"byteLength":252,
			"byteOffset":41504,
			"target":34962
		},
		{
			"buffer":0,
			"byteLength":168,
			"byteOffset":41756,
			"target":34962
		},
		{
			"buffer":0,
			"byteLength":168,
			"byteOffset":41924,
			"target":34962
		},
		{
			"buffer":0,
			"byteLength":84,
			"byteOffset":42092,
			"target":34962
		},
		{
			"buffer":0,
			"byteLength":168,
			"byteOffset":42176,
			"target":34962
		},
		{
			"buffer":0,
			"byteLength":96,
			"byteOffset":42344,
			"target":34963
		}
	],
	"samplers":[
		{
			"magFilter":9729,
			"minFilter":9987
		}
	],
	"buffers":[
		{
			"byteLength":42440,
			"uri":"Brick_Window_Trim_Single.bin"
		}
	]
}
