{
	"asset":{
		"generator":"Khronos glTF Blender I/O v4.3.47",
		"version":"2.0"
	},
	"scene":0,
	"scenes":[
		{
			"name":"Scene",
			"nodes":[
				10
			]
		}
	],
	"nodes":[
		{
			"mesh":0,
			"name":"Brick_BayWindow_01-convcolonly"
		},
		{
			"mesh":1,
			"name":"Brick_BayWindow_02-convcolonly"
		},
		{
			"mesh":2,
			"name":"Brick_BayWindow_03-convcolonly"
		},
		{
			"mesh":3,
			"name":"Brick_BayWindow_04-convcolonly"
		},
		{
			"mesh":4,
			"name":"Brick_BayWindow_05-convcolonly"
		},
		{
			"mesh":5,
			"name":"Brick_BayWindow_06-convcolonly"
		},
		{
			"mesh":6,
			"name":"Brick_BayWindow_07-convcolonly"
		},
		{
			"mesh":7,
			"name":"Brick_BayWindow_08-convcolonly"
		},
		{
			"mesh":8,
			"name":"Brick_BayWindow_09-convcolonly"
		},
		{
			"mesh":9,
			"name":"Brick_BayWindow_10-convcolonly"
		},
		{
			"children":[
				0,
				1,
				2,
				3,
				4,
				5,
				6,
				7,
				8,
				9
			],
			"mesh":10,
			"name":"Brick_BayWindow"
		}
	],
	"materials":[
		{
			"doubleSided":true,
			"name":"Collision",
			"pbrMetallicRoughness":{
				"baseColorFactor":[
					0.036788325756788254,
					0.5504099726676941,
					0.8000074625015259,
					1
				],
				"metallicFactor":0
			}
		},
		{
			"doubleSided":true,
			"name":"MI_Trim",
			"normalTexture":{
				"index":0
			},
			"pbrMetallicRoughness":{
				"baseColorTexture":{
					"index":1
				},
				"metallicRoughnessTexture":{
					"index":2
				}
			}
		},
		{
			"alphaMode":"BLEND",
			"doubleSided":true,
			"name":"MI_Glass",
			"pbrMetallicRoughness":{
				"baseColorFactor":[
					0.05215025693178177,
					0.05215025693178177,
					0.05215025693178177,
					0.586363673210144
				],
				"metallicFactor":0,
				"roughnessFactor":0.5
			}
		},
		{
			"doubleSided":true,
			"name":"MI_FakeInterior",
			"pbrMetallicRoughness":{
				"baseColorFactor":[
					0.800000011920929,
					0.800000011920929,
					0.800000011920929,
					1
				],
				"metallicFactor":0,
				"roughnessFactor":0.5
			}
		},
		{
			"doubleSided":true,
			"name":"MI_Trim_Dark",
			"normalTexture":{
				"index":3
			},
			"pbrMetallicRoughness":{
				"baseColorTexture":{
					"index":4
				},
				"metallicRoughnessTexture":{
					"index":5
				}
			}
		},
		{
			"doubleSided":true,
			"name":"MI_RedBrick",
			"normalTexture":{
				"index":6
			},
			"pbrMetallicRoughness":{
				"baseColorTexture":{
					"index":7
				},
				"metallicRoughnessTexture":{
					"index":8
				}
			}
		},
		{
			"doubleSided":true,
			"name":"MI_InteriorWall",
			"normalTexture":{
				"index":9
			},
			"pbrMetallicRoughness":{
				"baseColorTexture":{
					"index":10
				},
				"metallicRoughnessTexture":{
					"index":11
				}
			}
		}
	],
	"meshes":[
		{
			"name":"Cube.697",
			"primitives":[
				{
					"attributes":{
						"POSITION":0,
						"NORMAL":1,
						"TEXCOORD_0":2,
						"TEXCOORD_1":3,
						"COLOR_0":4,
						"COLOR_1":5
					},
					"indices":6,
					"material":0
				}
			]
		},
		{
			"name":"Cube.698",
			"primitives":[
				{
					"attributes":{
						"POSITION":7,
						"NORMAL":8,
						"TEXCOORD_0":9,
						"TEXCOORD_1":10,
						"COLOR_0":11,
						"COLOR_1":12
					},
					"indices":13,
					"material":0
				}
			]
		},
		{
			"name":"Cube.699",
			"primitives":[
				{
					"attributes":{
						"POSITION":14,
						"NORMAL":15,
						"TEXCOORD_0":16,
						"TEXCOORD_1":17,
						"COLOR_0":18,
						"COLOR_1":19
					},
					"indices":20,
					"material":0
				}
			]
		},
		{
			"name":"Cube.700",
			"primitives":[
				{
					"attributes":{
						"POSITION":21,
						"NORMAL":22,
						"TEXCOORD_0":23,
						"TEXCOORD_1":24,
						"COLOR_0":25,
						"COLOR_1":26
					},
					"indices":27,
					"material":0
				}
			]
		},
		{
			"name":"Cube.701",
			"primitives":[
				{
					"attributes":{
						"POSITION":28,
						"NORMAL":29,
						"TEXCOORD_0":30,
						"TEXCOORD_1":31,
						"COLOR_0":32,
						"COLOR_1":33
					},
					"indices":34,
					"material":0
				}
			]
		},
		{
			"name":"Cube.702",
			"primitives":[
				{
					"attributes":{
						"POSITION":35,
						"NORMAL":36,
						"TEXCOORD_0":37,
						"TEXCOORD_1":38,
						"COLOR_0":39,
						"COLOR_1":40
					},
					"indices":41,
					"material":0
				}
			]
		},
		{
			"name":"Cube.703",
			"primitives":[
				{
					"attributes":{
						"POSITION":42,
						"NORMAL":43,
						"TEXCOORD_0":44,
						"TEXCOORD_1":45,
						"COLOR_0":46,
						"COLOR_1":47
					},
					"indices":48,
					"material":0
				}
			]
		},
		{
			"name":"Cube.704",
			"primitives":[
				{
					"attributes":{
						"POSITION":49,
						"NORMAL":50,
						"TEXCOORD_0":51,
						"TEXCOORD_1":52,
						"COLOR_0":53,
						"COLOR_1":54
					},
					"indices":55,
					"material":0
				}
			]
		},
		{
			"name":"Cube.705",
			"primitives":[
				{
					"attributes":{
						"POSITION":56,
						"NORMAL":57,
						"TEXCOORD_0":58,
						"TEXCOORD_1":59,
						"COLOR_0":60,
						"COLOR_1":61
					},
					"indices":62,
					"material":0
				}
			]
		},
		{
			"name":"Cube.706",
			"primitives":[
				{
					"attributes":{
						"POSITION":63,
						"NORMAL":64,
						"TEXCOORD_0":65,
						"TEXCOORD_1":66,
						"COLOR_0":67,
						"COLOR_1":68
					},
					"indices":69,
					"material":0
				}
			]
		},
		{
			"name":"Cube.156",
			"primitives":[
				{
					"attributes":{
						"POSITION":70,
						"NORMAL":71,
						"TEXCOORD_0":72,
						"TEXCOORD_1":73,
						"COLOR_0":74,
						"COLOR_1":75
					},
					"indices":76,
					"material":1
				},
				{
					"attributes":{
						"POSITION":77,
						"NORMAL":78,
						"TEXCOORD_0":79,
						"TEXCOORD_1":80,
						"COLOR_0":81,
						"COLOR_1":82
					},
					"indices":83,
					"material":2
				},
				{
					"attributes":{
						"POSITION":84,
						"NORMAL":85,
						"TEXCOORD_0":86,
						"TEXCOORD_1":87,
						"COLOR_0":88,
						"COLOR_1":89
					},
					"indices":90,
					"material":3
				},
				{
					"attributes":{
						"POSITION":91,
						"NORMAL":92,
						"TEXCOORD_0":93,
						"TEXCOORD_1":94,
						"COLOR_0":95,
						"COLOR_1":96
					},
					"indices":97,
					"material":4
				},
				{
					"attributes":{
						"POSITION":98,
						"NORMAL":99,
						"TEXCOORD_0":100,
						"TEXCOORD_1":101,
						"COLOR_0":102,
						"COLOR_1":103
					},
					"indices":104,
					"material":5
				},
				{
					"attributes":{
						"POSITION":105,
						"NORMAL":106,
						"TEXCOORD_0":107,
						"TEXCOORD_1":108,
						"COLOR_0":109,
						"COLOR_1":110
					},
					"indices":111,
					"material":6
				}
			]
		}
	],
	"textures":[
		{
			"sampler":0,
			"source":0
		},
		{
			"sampler":0,
			"source":1
		},
		{
			"sampler":0,
			"source":2
		},
		{
			"sampler":0,
			"source":0
		},
		{
			"sampler":0,
			"source":1
		},
		{
			"sampler":0,
			"source":2
		},
		{
			"sampler":0,
			"source":3
		},
		{
			"sampler":0,
			"source":4
		},
		{
			"sampler":0,
			"source":5
		},
		{
			"sampler":0,
			"source":3
		},
		{
			"sampler":0,
			"source":4
		},
		{
			"sampler":0,
			"source":5
		}
	],
	"images":[
		{
			"mimeType":"image/png",
			"name":"T_Trim_Normal",
			"uri":"../../materials/T_Trim_Normal.png"
		},
		{
			"mimeType":"image/png",
			"name":"T_Trim_BaseColor",
			"uri":"../../materials/T_Trim_BaseColor.png"
		},
		{
			"mimeType":"image/png",
			"name":"T_Trim_ORM",
			"uri":"../../materials/T_Trim_ORM.png"
		},
		{
			"mimeType":"image/png",
			"name":"T_RedBrick_Normal",
			"uri":"../../materials/T_RedBrick_Normal.png"
		},
		{
			"mimeType":"image/png",
			"name":"T_RedBrick_BaseColor",
			"uri":"../../materials/T_RedBrick_BaseColor.png"
		},
		{
			"mimeType":"image/png",
			"name":"T_RedBrick_ORM",
			"uri":"../../materials/T_RedBrick_ORM.png"
		}
	],
	"accessors":[
		{
			"bufferView":0,
			"componentType":5126,
			"count":24,
			"max":[
				1,
				3.0001044273376465,
				0.9999998807907104
			],
			"min":[
				-1,
				0.00020873546600341797,
				0.7999999523162842
			],
			"type":"VEC3"
		},
		{
			"bufferView":1,
			"componentType":5126,
			"count":24,
			"type":"VEC3"
		},
		{
			"bufferView":2,
			"componentType":5126,
			"count":24,
			"type":"VEC2"
		},
		{
			"bufferView":3,
			"componentType":5126,
			"count":24,
			"type":"VEC2"
		},
		{
			"bufferView":4,
			"componentType":5121,
			"count":24,
			"normalized":true,
			"type":"VEC4"
		},
		{
			"bufferView":5,
			"componentType":5123,
			"count":24,
			"normalized":true,
			"type":"VEC4"
		},
		{
			"bufferView":6,
			"componentType":5123,
			"count":36,
			"type":"SCALAR"
		},
		{
			"bufferView":7,
			"componentType":5126,
			"count":24,
			"max":[
				2,
				3.0001044273376465,
				0.9999998807907104
			],
			"min":[
				1,
				0,
				-0.19999992847442627
			],
			"type":"VEC3"
		},
		{
			"bufferView":8,
			"componentType":5126,
			"count":24,
			"type":"VEC3"
		},
		{
			"bufferView":9,
			"componentType":5126,
			"count":24,
			"type":"VEC2"
		},
		{
			"bufferView":10,
			"componentType":5126,
			"count":24,
			"type":"VEC2"
		},
		{
			"bufferView":11,
			"componentType":5121,
			"count":24,
			"normalized":true,
			"type":"VEC4"
		},
		{
			"bufferView":12,
			"componentType":5123,
			"count":24,
			"normalized":true,
			"type":"VEC4"
		},
		{
			"bufferView":13,
			"componentType":5123,
			"count":36,
			"type":"SCALAR"
		},
		{
			"bufferView":14,
			"componentType":5126,
			"count":24,
			"max":[
				-1,
				3.0001044273376465,
				0.9999998807907104
			],
			"min":[
				-2,
				0,
				-0.19999992847442627
			],
			"type":"VEC3"
		},
		{
			"bufferView":15,
			"componentType":5126,
			"count":24,
			"type":"VEC3"
		},
		{
			"bufferView":16,
			"componentType":5126,
			"count":24,
			"type":"VEC2"
		},
		{
			"bufferView":17,
			"componentType":5126,
			"count":24,
			"type":"VEC2"
		},
		{
			"bufferView":18,
			"componentType":5121,
			"count":24,
			"normalized":true,
			"type":"VEC4"
		},
		{
			"bufferView":19,
			"componentType":5123,
			"count":24,
			"normalized":true,
			"type":"VEC4"
		},
		{
			"bufferView":20,
			"componentType":5123,
			"count":36,
			"type":"SCALAR"
		},
		{
			"bufferView":21,
			"componentType":5126,
			"count":24,
			"max":[
				0.5811909437179565,
				2.3258163928985596,
				1.098852276802063
			],
			"min":[
				-0.5811909437179565,
				0.035283565521240234,
				0.9999998807907104
			],
			"type":"VEC3"
		},
		{
			"bufferView":22,
			"componentType":5126,
			"count":24,
			"type":"VEC3"
		},
		{
			"bufferView":23,
			"componentType":5126,
			"count":24,
			"type":"VEC2"
		},
		{
			"bufferView":24,
			"componentType":5126,
			"count":24,
			"type":"VEC2"
		},
		{
			"bufferView":25,
			"componentType":5121,
			"count":24,
			"normalized":true,
			"type":"VEC4"
		},
		{
			"bufferView":26,
			"componentType":5123,
			"count":24,
			"normalized":true,
			"type":"VEC4"
		},
		{
			"bufferView":27,
			"componentType":5123,
			"count":36,
			"type":"SCALAR"
		},
		{
			"bufferView":28,
			"componentType":5126,
			"count":24,
			"max":[
				1.0350580215454102,
				2.5535025596618652,
				1.1318607330322266
			],
			"min":[
				-1.0350580215454102,
				2.3174705505371094,
				0.9669913649559021
			],
			"type":"VEC3"
		},
		{
			"bufferView":29,
			"componentType":5126,
			"count":24,
			"type":"VEC3"
		},
		{
			"bufferView":30,
			"componentType":5126,
			"count":24,
			"type":"VEC2"
		},
		{
			"bufferView":31,
			"componentType":5126,
			"count":24,
			"type":"VEC2"
		},
		{
			"bufferView":32,
			"componentType":5121,
			"count":24,
			"normalized":true,
			"type":"VEC4"
		},
		{
			"bufferView":33,
			"componentType":5123,
			"count":24,
			"normalized":true,
			"type":"VEC4"
		},
		{
			"bufferView":34,
			"componentType":5123,
			"count":36,
			"type":"SCALAR"
		},
		{
			"bufferView":35,
			"componentType":5126,
			"count":44,
			"max":[
				0.8076982498168945,
				2.6719143390655518,
				1.189493179321289
			],
			"min":[
				-0.8076982498168945,
				2.3174705505371094,
				1.0102099180221558
			],
			"type":"VEC3"
		},
		{
			"bufferView":36,
			"componentType":5126,
			"count":44,
			"type":"VEC3"
		},
		{
			"bufferView":37,
			"componentType":5126,
			"count":44,
			"type":"VEC2"
		},
		{
			"bufferView":38,
			"componentType":5126,
			"count":44,
			"type":"VEC2"
		},
		{
			"bufferView":39,
			"componentType":5121,
			"count":44,
			"normalized":true,
			"type":"VEC4"
		},
		{
			"bufferView":40,
			"componentType":5123,
			"count":44,
			"normalized":true,
			"type":"VEC4"
		},
		{
			"bufferView":41,
			"componentType":5123,
			"count":84,
			"type":"SCALAR"
		},
		{
			"bufferView":42,
			"componentType":5126,
			"count":24,
			"max":[
				2.0814208984375,
				2.5535025596618652,
				1.1318607330322266
			],
			"min":[
				0.9918428659439087,
				2.3174705505371094,
				-0.13576160371303558
			],
			"type":"VEC3"
		},
		{
			"bufferView":43,
			"componentType":5126,
			"count":24,
			"type":"VEC3"
		},
		{
			"bufferView":44,
			"componentType":5126,
			"count":24,
			"type":"VEC2"
		},
		{
			"bufferView":45,
			"componentType":5126,
			"count":24,
			"type":"VEC2"
		},
		{
			"bufferView":46,
			"componentType":5121,
			"count":24,
			"normalized":true,
			"type":"VEC4"
		},
		{
			"bufferView":47,
			"componentType":5123,
			"count":24,
			"normalized":true,
			"type":"VEC4"
		},
		{
			"bufferView":48,
			"componentType":5123,
			"count":36,
			"type":"SCALAR"
		},
		{
			"bufferView":49,
			"componentType":5126,
			"count":24,
			"max":[
				-0.9918428659439087,
				2.5535025596618652,
				1.1318607330322266
			],
			"min":[
				-2.0814208984375,
				2.3174705505371094,
				-0.13576160371303558
			],
			"type":"VEC3"
		},
		{
			"bufferView":50,
			"componentType":5126,
			"count":24,
			"type":"VEC3"
		},
		{
			"bufferView":51,
			"componentType":5126,
			"count":24,
			"type":"VEC2"
		},
		{
			"bufferView":52,
			"componentType":5126,
			"count":24,
			"type":"VEC2"
		},
		{
			"bufferView":53,
			"componentType":5121,
			"count":24,
			"normalized":true,
			"type":"VEC4"
		},
		{
			"bufferView":54,
			"componentType":5123,
			"count":24,
			"normalized":true,
			"type":"VEC4"
		},
		{
			"bufferView":55,
			"componentType":5123,
			"count":36,
			"type":"SCALAR"
		},
		{
			"bufferView":56,
			"componentType":5126,
			"count":24,
			"max":[
				-1.1144124269485474,
				2.166083574295044,
				0.8805045485496521
			],
			"min":[
				-1.8898236751556396,
				0.046413853764534,
				0.10509341955184937
			],
			"type":"VEC3"
		},
		{
			"bufferView":57,
			"componentType":5126,
			"count":24,
			"type":"VEC3"
		},
		{
			"bufferView":58,
			"componentType":5126,
			"count":24,
			"type":"VEC2"
		},
		{
			"bufferView":59,
			"componentType":5126,
			"count":24,
			"type":"VEC2"
		},
		{
			"bufferView":60,
			"componentType":5121,
			"count":24,
			"normalized":true,
			"type":"VEC4"
		},
		{
			"bufferView":61,
			"componentType":5123,
			"count":24,
			"normalized":true,
			"type":"VEC4"
		},
		{
			"bufferView":62,
			"componentType":5123,
			"count":36,
			"type":"SCALAR"
		},
		{
			"bufferView":63,
			"componentType":5126,
			"count":24,
			"max":[
				1.8898236751556396,
				2.166083574295044,
				0.8805045485496521
			],
			"min":[
				1.1144124269485474,
				0.046413853764534,
				0.10509341955184937
			],
			"type":"VEC3"
		},
		{
			"bufferView":64,
			"componentType":5126,
			"count":24,
			"type":"VEC3"
		},
		{
			"bufferView":65,
			"componentType":5126,
			"count":24,
			"type":"VEC2"
		},
		{
			"bufferView":66,
			"componentType":5126,
			"count":24,
			"type":"VEC2"
		},
		{
			"bufferView":67,
			"componentType":5121,
			"count":24,
			"normalized":true,
			"type":"VEC4"
		},
		{
			"bufferView":68,
			"componentType":5123,
			"count":24,
			"normalized":true,
			"type":"VEC4"
		},
		{
			"bufferView":69,
			"componentType":5123,
			"count":36,
			"type":"SCALAR"
		},
		{
			"bufferView":70,
			"componentType":5126,
			"count":651,
			"max":[
				2.1136441230773926,
				2.676645517349243,
				1.1932399272918701
			],
			"min":[
				-2.1136441230773926,
				0.030997157096862793,
				-0.000807957083452493
			],
			"type":"VEC3"
		},
		{
			"bufferView":71,
			"componentType":5126,
			"count":651,
			"type":"VEC3"
		},
		{
			"bufferView":72,
			"componentType":5126,
			"count":651,
			"type":"VEC2"
		},
		{
			"bufferView":73,
			"componentType":5126,
			"count":651,
			"type":"VEC2"
		},
		{
			"bufferView":74,
			"componentType":5121,
			"count":651,
			"normalized":true,
			"type":"VEC4"
		},
		{
			"bufferView":75,
			"componentType":5123,
			"count":651,
			"normalized":true,
			"type":"VEC4"
		},
		{
			"bufferView":76,
			"componentType":5123,
			"count":1290,
			"type":"SCALAR"
		},
		{
			"bufferView":77,
			"componentType":5126,
			"count":36,
			"max":[
				1.63974928855896,
				1.9567501544952393,
				0.8683905005455017
			],
			"min":[
				-1.63974928855896,
				0.2077261507511139,
				0.18834033608436584
			],
			"type":"VEC3"
		},
		{
			"bufferView":78,
			"componentType":5126,
			"count":36,
			"type":"VEC3"
		},
		{
			"bufferView":79,
			"componentType":5126,
			"count":36,
			"type":"VEC2"
		},
		{
			"bufferView":80,
			"componentType":5126,
			"count":36,
			"type":"VEC2"
		},
		{
			"bufferView":81,
			"componentType":5121,
			"count":36,
			"normalized":true,
			"type":"VEC4"
		},
		{
			"bufferView":82,
			"componentType":5123,
			"count":36,
			"normalized":true,
			"type":"VEC4"
		},
		{
			"bufferView":83,
			"componentType":5123,
			"count":72,
			"type":"SCALAR"
		},
		{
			"bufferView":84,
			"componentType":5126,
			"count":12,
			"max":[
				1.8789669275283813,
				2.8027091026306152,
				0.8663164377212524
			],
			"min":[
				-1.8789669275283813,
				0.02259528636932373,
				-0.0680239200592041
			],
			"type":"VEC3"
		},
		{
			"bufferView":85,
			"componentType":5126,
			"count":12,
			"type":"VEC3"
		},
		{
			"bufferView":86,
			"componentType":5126,
			"count":12,
			"type":"VEC2"
		},
		{
			"bufferView":87,
			"componentType":5126,
			"count":12,
			"type":"VEC2"
		},
		{
			"bufferView":88,
			"componentType":5121,
			"count":12,
			"normalized":true,
			"type":"VEC4"
		},
		{
			"bufferView":89,
			"componentType":5123,
			"count":12,
			"normalized":true,
			"type":"VEC4"
		},
		{
			"bufferView":90,
			"componentType":5123,
			"count":18,
			"type":"SCALAR"
		},
		{
			"bufferView":91,
			"componentType":5126,
			"count":702,
			"max":[
				1.728621482849121,
				2.0034594535827637,
				0.945693850517273
			],
			"min":[
				-1.728621244430542,
				0.15454363822937012,
				0.11274399608373642
			],
			"type":"VEC3"
		},
		{
			"bufferView":92,
			"componentType":5126,
			"count":702,
			"type":"VEC3"
		},
		{
			"bufferView":93,
			"componentType":5126,
			"count":702,
			"type":"VEC2"
		},
		{
			"bufferView":94,
			"componentType":5126,
			"count":702,
			"type":"VEC2"
		},
		{
			"bufferView":95,
			"componentType":5121,
			"count":702,
			"normalized":true,
			"type":"VEC4"
		},
		{
			"bufferView":96,
			"componentType":5123,
			"count":702,
			"normalized":true,
			"type":"VEC4"
		},
		{
			"bufferView":97,
			"componentType":5123,
			"count":1368,
			"type":"SCALAR"
		},
		{
			"bufferView":98,
			"componentType":5126,
			"count":102,
			"max":[
				2,
				3.000208854675293,
				1.0000001192092896
			],
			"min":[
				-2,
				0,
				0
			],
			"type":"VEC3"
		},
		{
			"bufferView":99,
			"componentType":5126,
			"count":102,
			"type":"VEC3"
		},
		{
			"bufferView":100,
			"componentType":5126,
			"count":102,
			"type":"VEC2"
		},
		{
			"bufferView":101,
			"componentType":5126,
			"count":102,
			"type":"VEC2"
		},
		{
			"bufferView":102,
			"componentType":5121,
			"count":102,
			"normalized":true,
			"type":"VEC4"
		},
		{
			"bufferView":103,
			"componentType":5123,
			"count":102,
			"normalized":true,
			"type":"VEC4"
		},
		{
			"bufferView":104,
			"componentType":5123,
			"count":360,
			"type":"SCALAR"
		},
		{
			"bufferView":105,
			"componentType":5126,
			"count":72,
			"max":[
				2,
				3.000000476837158,
				0.7999998927116394
			],
			"min":[
				-2,
				0,
				-0.20000004768371582
			],
			"type":"VEC3"
		},
		{
			"bufferView":106,
			"componentType":5126,
			"count":72,
			"type":"VEC3"
		},
		{
			"bufferView":107,
			"componentType":5126,
			"count":72,
			"type":"VEC2"
		},
		{
			"bufferView":108,
			"componentType":5126,
			"count":72,
			"type":"VEC2"
		},
		{
			"bufferView":109,
			"componentType":5121,
			"count":72,
			"normalized":true,
			"type":"VEC4"
		},
		{
			"bufferView":110,
			"componentType":5123,
			"count":72,
			"normalized":true,
			"type":"VEC4"
		},
		{
			"bufferView":111,
			"componentType":5123,
			"count":180,
			"type":"SCALAR"
		}
	],
	"bufferViews":[
		{
			"buffer":0,
			"byteLength":288,
			"byteOffset":0,
			"target":34962
		},
		{
			"buffer":0,
			"byteLength":288,
			"byteOffset":288,
			"target":34962
		},
		{
			"buffer":0,
			"byteLength":192,
			"byteOffset":576,
			"target":34962
		},
		{
			"buffer":0,
			"byteLength":192,
			"byteOffset":768,
			"target":34962
		},
		{
			"buffer":0,
			"byteLength":96,
			"byteOffset":960,
			"target":34962
		},
		{
			"buffer":0,
			"byteLength":192,
			"byteOffset":1056,
			"target":34962
		},
		{
			"buffer":0,
			"byteLength":72,
			"byteOffset":1248,
			"target":34963
		},
		{
			"buffer":0,
			"byteLength":288,
			"byteOffset":1320,
			"target":34962
		},
		{
			"buffer":0,
			"byteLength":288,
			"byteOffset":1608,
			"target":34962
		},
		{
			"buffer":0,
			"byteLength":192,
			"byteOffset":1896,
			"target":34962
		},
		{
			"buffer":0,
			"byteLength":192,
			"byteOffset":2088,
			"target":34962
		},
		{
			"buffer":0,
			"byteLength":96,
			"byteOffset":2280,
			"target":34962
		},
		{
			"buffer":0,
			"byteLength":192,
			"byteOffset":2376,
			"target":34962
		},
		{
			"buffer":0,
			"byteLength":72,
			"byteOffset":2568,
			"target":34963
		},
		{
			"buffer":0,
			"byteLength":288,
			"byteOffset":2640,
			"target":34962
		},
		{
			"buffer":0,
			"byteLength":288,
			"byteOffset":2928,
			"target":34962
		},
		{
			"buffer":0,
			"byteLength":192,
			"byteOffset":3216,
			"target":34962
		},
		{
			"buffer":0,
			"byteLength":192,
			"byteOffset":3408,
			"target":34962
		},
		{
			"buffer":0,
			"byteLength":96,
			"byteOffset":3600,
			"target":34962
		},
		{
			"buffer":0,
			"byteLength":192,
			"byteOffset":3696,
			"target":34962
		},
		{
			"buffer":0,
			"byteLength":72,
			"byteOffset":3888,
			"target":34963
		},
		{
			"buffer":0,
			"byteLength":288,
			"byteOffset":3960,
			"target":34962
		},
		{
			"buffer":0,
			"byteLength":288,
			"byteOffset":4248,
			"target":34962
		},
		{
			"buffer":0,
			"byteLength":192,
			"byteOffset":4536,
			"target":34962
		},
		{
			"buffer":0,
			"byteLength":192,
			"byteOffset":4728,
			"target":34962
		},
		{
			"buffer":0,
			"byteLength":96,
			"byteOffset":4920,
			"target":34962
		},
		{
			"buffer":0,
			"byteLength":192,
			"byteOffset":5016,
			"target":34962
		},
		{
			"buffer":0,
			"byteLength":72,
			"byteOffset":5208,
			"target":34963
		},
		{
			"buffer":0,
			"byteLength":288,
			"byteOffset":5280,
			"target":34962
		},
		{
			"buffer":0,
			"byteLength":288,
			"byteOffset":5568,
			"target":34962
		},
		{
			"buffer":0,
			"byteLength":192,
			"byteOffset":5856,
			"target":34962
		},
		{
			"buffer":0,
			"byteLength":192,
			"byteOffset":6048,
			"target":34962
		},
		{
			"buffer":0,
			"byteLength":96,
			"byteOffset":6240,
			"target":34962
		},
		{
			"buffer":0,
			"byteLength":192,
			"byteOffset":6336,
			"target":34962
		},
		{
			"buffer":0,
			"byteLength":72,
			"byteOffset":6528,
			"target":34963
		},
		{
			"buffer":0,
			"byteLength":528,
			"byteOffset":6600,
			"target":34962
		},
		{
			"buffer":0,
			"byteLength":528,
			"byteOffset":7128,
			"target":34962
		},
		{
			"buffer":0,
			"byteLength":352,
			"byteOffset":7656,
			"target":34962
		},
		{
			"buffer":0,
			"byteLength":352,
			"byteOffset":8008,
			"target":34962
		},
		{
			"buffer":0,
			"byteLength":176,
			"byteOffset":8360,
			"target":34962
		},
		{
			"buffer":0,
			"byteLength":352,
			"byteOffset":8536,
			"target":34962
		},
		{
			"buffer":0,
			"byteLength":168,
			"byteOffset":8888,
			"target":34963
		},
		{
			"buffer":0,
			"byteLength":288,
			"byteOffset":9056,
			"target":34962
		},
		{
			"buffer":0,
			"byteLength":288,
			"byteOffset":9344,
			"target":34962
		},
		{
			"buffer":0,
			"byteLength":192,
			"byteOffset":9632,
			"target":34962
		},
		{
			"buffer":0,
			"byteLength":192,
			"byteOffset":9824,
			"target":34962
		},
		{
			"buffer":0,
			"byteLength":96,
			"byteOffset":10016,
			"target":34962
		},
		{
			"buffer":0,
			"byteLength":192,
			"byteOffset":10112,
			"target":34962
		},
		{
			"buffer":0,
			"byteLength":72,
			"byteOffset":10304,
			"target":34963
		},
		{
			"buffer":0,
			"byteLength":288,
			"byteOffset":10376,
			"target":34962
		},
		{
			"buffer":0,
			"byteLength":288,
			"byteOffset":10664,
			"target":34962
		},
		{
			"buffer":0,
			"byteLength":192,
			"byteOffset":10952,
			"target":34962
		},
		{
			"buffer":0,
			"byteLength":192,
			"byteOffset":11144,
			"target":34962
		},
		{
			"buffer":0,
			"byteLength":96,
			"byteOffset":11336,
			"target":34962
		},
		{
			"buffer":0,
			"byteLength":192,
			"byteOffset":11432,
			"target":34962
		},
		{
			"buffer":0,
			"byteLength":72,
			"byteOffset":11624,
			"target":34963
		},
		{
			"buffer":0,
			"byteLength":288,
			"byteOffset":11696,
			"target":34962
		},
		{
			"buffer":0,
			"byteLength":288,
			"byteOffset":11984,
			"target":34962
		},
		{
			"buffer":0,
			"byteLength":192,
			"byteOffset":12272,
			"target":34962
		},
		{
			"buffer":0,
			"byteLength":192,
			"byteOffset":12464,
			"target":34962
		},
		{
			"buffer":0,
			"byteLength":96,
			"byteOffset":12656,
			"target":34962
		},
		{
			"buffer":0,
			"byteLength":192,
			"byteOffset":12752,
			"target":34962
		},
		{
			"buffer":0,
			"byteLength":72,
			"byteOffset":12944,
			"target":34963
		},
		{
			"buffer":0,
			"byteLength":288,
			"byteOffset":13016,
			"target":34962
		},
		{
			"buffer":0,
			"byteLength":288,
			"byteOffset":13304,
			"target":34962
		},
		{
			"buffer":0,
			"byteLength":192,
			"byteOffset":13592,
			"target":34962
		},
		{
			"buffer":0,
			"byteLength":192,
			"byteOffset":13784,
			"target":34962
		},
		{
			"buffer":0,
			"byteLength":96,
			"byteOffset":13976,
			"target":34962
		},
		{
			"buffer":0,
			"byteLength":192,
			"byteOffset":14072,
			"target":34962
		},
		{
			"buffer":0,
			"byteLength":72,
			"byteOffset":14264,
			"target":34963
		},
		{
			"buffer":0,
			"byteLength":7812,
			"byteOffset":14336,
			"target":34962
		},
		{
			"buffer":0,
			"byteLength":7812,
			"byteOffset":22148,
			"target":34962
		},
		{
			"buffer":0,
			"byteLength":5208,
			"byteOffset":29960,
			"target":34962
		},
		{
			"buffer":0,
			"byteLength":5208,
			"byteOffset":35168,
			"target":34962
		},
		{
			"buffer":0,
			"byteLength":2604,
			"byteOffset":40376,
			"target":34962
		},
		{
			"buffer":0,
			"byteLength":5208,
			"byteOffset":42980,
			"target":34962
		},
		{
			"buffer":0,
			"byteLength":2580,
			"byteOffset":48188,
			"target":34963
		},
		{
			"buffer":0,
			"byteLength":432,
			"byteOffset":50768,
			"target":34962
		},
		{
			"buffer":0,
			"byteLength":432,
			"byteOffset":51200,
			"target":34962
		},
		{
			"buffer":0,
			"byteLength":288,
			"byteOffset":51632,
			"target":34962
		},
		{
			"buffer":0,
			"byteLength":288,
			"byteOffset":51920,
			"target":34962
		},
		{
			"buffer":0,
			"byteLength":144,
			"byteOffset":52208,
			"target":34962
		},
		{
			"buffer":0,
			"byteLength":288,
			"byteOffset":52352,
			"target":34962
		},
		{
			"buffer":0,
			"byteLength":144,
			"byteOffset":52640,
			"target":34963
		},
		{
			"buffer":0,
			"byteLength":144,
			"byteOffset":52784,
			"target":34962
		},
		{
			"buffer":0,
			"byteLength":144,
			"byteOffset":52928,
			"target":34962
		},
		{
			"buffer":0,
			"byteLength":96,
			"byteOffset":53072,
			"target":34962
		},
		{
			"buffer":0,
			"byteLength":96,
			"byteOffset":53168,
			"target":34962
		},
		{
			"buffer":0,
			"byteLength":48,
			"byteOffset":53264,
			"target":34962
		},
		{
			"buffer":0,
			"byteLength":96,
			"byteOffset":53312,
			"target":34962
		},
		{
			"buffer":0,
			"byteLength":36,
			"byteOffset":53408,
			"target":34963
		},
		{
			"buffer":0,
			"byteLength":8424,
			"byteOffset":53444,
			"target":34962
		},
		{
			"buffer":0,
			"byteLength":8424,
			"byteOffset":61868,
			"target":34962
		},
		{
			"buffer":0,
			"byteLength":5616,
			"byteOffset":70292,
			"target":34962
		},
		{
			"buffer":0,
			"byteLength":5616,
			"byteOffset":75908,
			"target":34962
		},
		{
			"buffer":0,
			"byteLength":2808,
			"byteOffset":81524,
			"target":34962
		},
		{
			"buffer":0,
			"byteLength":5616,
			"byteOffset":84332,
			"target":34962
		},
		{
			"buffer":0,
			"byteLength":2736,
			"byteOffset":89948,
			"target":34963
		},
		{
			"buffer":0,
			"byteLength":1224,
			"byteOffset":92684,
			"target":34962
		},
		{
			"buffer":0,
			"byteLength":1224,
			"byteOffset":93908,
			"target":34962
		},
		{
			"buffer":0,
			"byteLength":816,
			"byteOffset":95132,
			"target":34962
		},
		{
			"buffer":0,
			"byteLength":816,
			"byteOffset":95948,
			"target":34962
		},
		{
			"buffer":0,
			"byteLength":408,
			"byteOffset":96764,
			"target":34962
		},
		{
			"buffer":0,
			"byteLength":816,
			"byteOffset":97172,
			"target":34962
		},
		{
			"buffer":0,
			"byteLength":720,
			"byteOffset":97988,
			"target":34963
		},
		{
			"buffer":0,
			"byteLength":864,
			"byteOffset":98708,
			"target":34962
		},
		{
			"buffer":0,
			"byteLength":864,
			"byteOffset":99572,
			"target":34962
		},
		{
			"buffer":0,
			"byteLength":576,
			"byteOffset":100436,
			"target":34962
		},
		{
			"buffer":0,
			"byteLength":576,
			"byteOffset":101012,
			"target":34962
		},
		{
			"buffer":0,
			"byteLength":288,
			"byteOffset":101588,
			"target":34962
		},
		{
			"buffer":0,
			"byteLength":576,
			"byteOffset":101876,
			"target":34962
		},
		{
			"buffer":0,
			"byteLength":360,
			"byteOffset":102452,
			"target":34963
		}
	],
	"samplers":[
		{
			"magFilter":9729,
			"minFilter":9987
		}
	],
	"buffers":[
		{
			"byteLength":102812,
			"uri":"Brick_BayWindow.bin"
		}
	]
}
