{
	"asset":{
		"generator":"Khronos glTF Blender I/O v4.3.47",
		"version":"2.0"
	},
	"scene":0,
	"scenes":[
		{
			"name":"Scene",
			"nodes":[
				3
			]
		}
	],
	"nodes":[
		{
			"mesh":0,
			"name":"Cornice_WornBrick_90Angle_R_1-convcolonly"
		},
		{
			"mesh":1,
			"name":"Cornice_WornBrick_90Angle_R_2-convcolonly"
		},
		{
			"mesh":2,
			"name":"Cornice_WornBrick_90Angle_R_3-convcolonly"
		},
		{
			"children":[
				0,
				1,
				2
			],
			"mesh":3,
			"name":"Cornice_WornBrick_90Angle_R"
		}
	],
	"materials":[
		{
			"doubleSided":true,
			"name":"Collision",
			"pbrMetallicRoughness":{
				"baseColorFactor":[
					0.036788325756788254,
					0.5504099726676941,
					0.8000074625015259,
					1
				],
				"metallicFactor":0
			}
		},
		{
			"doubleSided":true,
			"name":"MI_WornBrick",
			"normalTexture":{
				"index":0
			},
			"pbrMetallicRoughness":{
				"baseColorTexture":{
					"index":1
				},
				"metallicRoughnessTexture":{
					"index":2
				}
			}
		}
	],
	"meshes":[
		{
			"name":"Cube.554",
			"primitives":[
				{
					"attributes":{
						"POSITION":0,
						"NORMAL":1,
						"TEXCOORD_0":2
					},
					"indices":3,
					"material":0
				}
			]
		},
		{
			"name":"Cube.555",
			"primitives":[
				{
					"attributes":{
						"POSITION":4,
						"NORMAL":5,
						"TEXCOORD_0":6
					},
					"indices":3,
					"material":0
				}
			]
		},
		{
			"name":"Cube.556",
			"primitives":[
				{
					"attributes":{
						"POSITION":7,
						"NORMAL":8,
						"TEXCOORD_0":9
					},
					"indices":10,
					"material":0
				}
			]
		},
		{
			"name":"Cube.244",
			"primitives":[
				{
					"attributes":{
						"POSITION":11,
						"NORMAL":12,
						"TEXCOORD_0":13,
						"TEXCOORD_1":14,
						"COLOR_0":15,
						"COLOR_1":16
					},
					"indices":17,
					"material":1
				}
			]
		}
	],
	"textures":[
		{
			"sampler":0,
			"source":0
		},
		{
			"sampler":0,
			"source":1
		},
		{
			"sampler":0,
			"source":2
		}
	],
	"images":[
		{
			"mimeType":"image/png",
			"name":"T_WornBrick_Normal",
			"uri":"../../materials/T_WornBrick_Normal.png"
		},
		{
			"mimeType":"image/png",
			"name":"T_WornBrick_BaseColor",
			"uri":"../../materials/T_WornBrick_BaseColor.png"
		},
		{
			"mimeType":"image/png",
			"name":"T_WornBrick_ORM",
			"uri":"../../materials/T_WornBrick_ORM.png"
		}
	],
	"accessors":[
		{
			"bufferView":0,
			"componentType":5126,
			"count":24,
			"max":[
				1,
				1,
				0
			],
			"min":[
				0.30000007152557373,
				0,
				-0.4000000059604645
			],
			"type":"VEC3"
		},
		{
			"bufferView":1,
			"componentType":5126,
			"count":24,
			"type":"VEC3"
		},
		{
			"bufferView":2,
			"componentType":5126,
			"count":24,
			"type":"VEC2"
		},
		{
			"bufferView":3,
			"componentType":5123,
			"count":36,
			"type":"SCALAR"
		},
		{
			"bufferView":4,
			"componentType":5126,
			"count":24,
			"max":[
				0.7000000476837158,
				1,
				-0.5
			],
			"min":[
				-1.0000001192092896,
				0,
				-0.8999999761581421
			],
			"type":"VEC3"
		},
		{
			"bufferView":5,
			"componentType":5126,
			"count":24,
			"type":"VEC3"
		},
		{
			"bufferView":6,
			"componentType":5126,
			"count":24,
			"type":"VEC2"
		},
		{
			"bufferView":7,
			"componentType":5126,
			"count":24,
			"max":[
				0.7000000476837158,
				1,
				0
			],
			"min":[
				0.29999998211860657,
				0,
				-0.8999999761581421
			],
			"type":"VEC3"
		},
		{
			"bufferView":8,
			"componentType":5126,
			"count":24,
			"type":"VEC3"
		},
		{
			"bufferView":9,
			"componentType":5126,
			"count":24,
			"type":"VEC2"
		},
		{
			"bufferView":10,
			"componentType":5123,
			"count":36,
			"type":"SCALAR"
		},
		{
			"bufferView":11,
			"componentType":5126,
			"count":53,
			"max":[
				1,
				1,
				5.16580129783506e-08
			],
			"min":[
				-1,
				0,
				-0.9000000953674316
			],
			"type":"VEC3"
		},
		{
			"bufferView":12,
			"componentType":5126,
			"count":53,
			"type":"VEC3"
		},
		{
			"bufferView":13,
			"componentType":5126,
			"count":53,
			"type":"VEC2"
		},
		{
			"bufferView":14,
			"componentType":5126,
			"count":53,
			"type":"VEC2"
		},
		{
			"bufferView":15,
			"componentType":5121,
			"count":53,
			"normalized":true,
			"type":"VEC4"
		},
		{
			"bufferView":16,
			"componentType":5123,
			"count":53,
			"normalized":true,
			"type":"VEC4"
		},
		{
			"bufferView":17,
			"componentType":5123,
			"count":87,
			"type":"SCALAR"
		}
	],
	"bufferViews":[
		{
			"buffer":0,
			"byteLength":288,
			"byteOffset":0,
			"target":34962
		},
		{
			"buffer":0,
			"byteLength":288,
			"byteOffset":288,
			"target":34962
		},
		{
			"buffer":0,
			"byteLength":192,
			"byteOffset":576,
			"target":34962
		},
		{
			"buffer":0,
			"byteLength":72,
			"byteOffset":768,
			"target":34963
		},
		{
			"buffer":0,
			"byteLength":288,
			"byteOffset":840,
			"target":34962
		},
		{
			"buffer":0,
			"byteLength":288,
			"byteOffset":1128,
			"target":34962
		},
		{
			"buffer":0,
			"byteLength":192,
			"byteOffset":1416,
			"target":34962
		},
		{
			"buffer":0,
			"byteLength":288,
			"byteOffset":1608,
			"target":34962
		},
		{
			"buffer":0,
			"byteLength":288,
			"byteOffset":1896,
			"target":34962
		},
		{
			"buffer":0,
			"byteLength":192,
			"byteOffset":2184,
			"target":34962
		},
		{
			"buffer":0,
			"byteLength":72,
			"byteOffset":2376,
			"target":34963
		},
		{
			"buffer":0,
			"byteLength":636,
			"byteOffset":2448,
			"target":34962
		},
		{
			"buffer":0,
			"byteLength":636,
			"byteOffset":3084,
			"target":34962
		},
		{
			"buffer":0,
			"byteLength":424,
			"byteOffset":3720,
			"target":34962
		},
		{
			"buffer":0,
			"byteLength":424,
			"byteOffset":4144,
			"target":34962
		},
		{
			"buffer":0,
			"byteLength":212,
			"byteOffset":4568,
			"target":34962
		},
		{
			"buffer":0,
			"byteLength":424,
			"byteOffset":4780,
			"target":34962
		},
		{
			"buffer":0,
			"byteLength":174,
			"byteOffset":5204,
			"target":34963
		}
	],
	"samplers":[
		{
			"magFilter":9729,
			"minFilter":9987
		}
	],
	"buffers":[
		{
			"byteLength":5380,
			"uri":"Cornice_WornBrick_90Angle_R.bin"
		}
	]
}
