{
	"asset":{
		"generator":"Khronos glTF Blender I/O v4.3.47",
		"version":"2.0"
	},
	"scene":0,
	"scenes":[
		{
			"name":"Scene",
			"nodes":[
				11
			]
		}
	],
	"nodes":[
		{
			"mesh":0,
			"name":"Cornice_Trim_90Angle_L_1-convcolonly"
		},
		{
			"mesh":1,
			"name":"Cornice_Trim_90Angle_L_10-convcolonly"
		},
		{
			"mesh":2,
			"name":"Cornice_Trim_90Angle_L_11-convcolonly"
		},
		{
			"mesh":3,
			"name":"Cornice_Trim_90Angle_L_2-convcolonly"
		},
		{
			"mesh":4,
			"name":"Cornice_Trim_90Angle_L_3-convcolonly"
		},
		{
			"mesh":5,
			"name":"Cornice_Trim_90Angle_L_4-convcolonly"
		},
		{
			"mesh":6,
			"name":"Cornice_Trim_90Angle_L_5-convcolonly"
		},
		{
			"mesh":7,
			"name":"Cornice_Trim_90Angle_L_6-convcolonly"
		},
		{
			"mesh":8,
			"name":"Cornice_Trim_90Angle_L_7-convcolonly"
		},
		{
			"mesh":9,
			"name":"Cornice_Trim_90Angle_L_8-convcolonly"
		},
		{
			"mesh":10,
			"name":"Cornice_Trim_90Angle_L_9-convcolonly"
		},
		{
			"children":[
				0,
				1,
				2,
				3,
				4,
				5,
				6,
				7,
				8,
				9,
				10
			],
			"mesh":11,
			"name":"Cornice_Trim_90Angle_L"
		}
	],
	"materials":[
		{
			"doubleSided":true,
			"name":"Collision",
			"pbrMetallicRoughness":{
				"baseColorFactor":[
					0.036788325756788254,
					0.5504099726676941,
					0.8000074625015259,
					1
				],
				"metallicFactor":0
			}
		},
		{
			"doubleSided":true,
			"name":"MI_Trim",
			"normalTexture":{
				"index":0
			},
			"pbrMetallicRoughness":{
				"baseColorTexture":{
					"index":1
				},
				"metallicRoughnessTexture":{
					"index":2
				}
			}
		}
	],
	"meshes":[
		{
			"name":"Cube.652",
			"primitives":[
				{
					"attributes":{
						"POSITION":0,
						"NORMAL":1,
						"TEXCOORD_0":2,
						"TEXCOORD_1":3
					},
					"indices":4,
					"material":0
				}
			]
		},
		{
			"name":"Cube.667",
			"primitives":[
				{
					"attributes":{
						"POSITION":5,
						"NORMAL":6,
						"TEXCOORD_0":7,
						"TEXCOORD_1":8
					},
					"indices":9,
					"material":0
				}
			]
		},
		{
			"name":"Cube.668",
			"primitives":[
				{
					"attributes":{
						"POSITION":10,
						"NORMAL":11,
						"TEXCOORD_0":12,
						"TEXCOORD_1":13
					},
					"indices":14,
					"material":0
				}
			]
		},
		{
			"name":"Cube.659",
			"primitives":[
				{
					"attributes":{
						"POSITION":15,
						"NORMAL":16,
						"TEXCOORD_0":17,
						"TEXCOORD_1":18
					},
					"indices":19,
					"material":0
				}
			]
		},
		{
			"name":"Cube.660",
			"primitives":[
				{
					"attributes":{
						"POSITION":20,
						"NORMAL":21,
						"TEXCOORD_0":22,
						"TEXCOORD_1":23
					},
					"indices":24,
					"material":0
				}
			]
		},
		{
			"name":"Cube.661",
			"primitives":[
				{
					"attributes":{
						"POSITION":25,
						"NORMAL":26,
						"TEXCOORD_0":27,
						"TEXCOORD_1":28
					},
					"indices":29,
					"material":0
				}
			]
		},
		{
			"name":"Cube.662",
			"primitives":[
				{
					"attributes":{
						"POSITION":30,
						"NORMAL":31,
						"TEXCOORD_0":32,
						"TEXCOORD_1":33
					},
					"indices":34,
					"material":0
				}
			]
		},
		{
			"name":"Cube.663",
			"primitives":[
				{
					"attributes":{
						"POSITION":35,
						"NORMAL":36,
						"TEXCOORD_0":37,
						"TEXCOORD_1":38
					},
					"indices":39,
					"material":0
				}
			]
		},
		{
			"name":"Cube.664",
			"primitives":[
				{
					"attributes":{
						"POSITION":40,
						"NORMAL":41,
						"TEXCOORD_0":42,
						"TEXCOORD_1":43
					},
					"indices":44,
					"material":0
				}
			]
		},
		{
			"name":"Cube.665",
			"primitives":[
				{
					"attributes":{
						"POSITION":45,
						"NORMAL":46,
						"TEXCOORD_0":47,
						"TEXCOORD_1":48
					},
					"indices":49,
					"material":0
				}
			]
		},
		{
			"name":"Cube.666",
			"primitives":[
				{
					"attributes":{
						"POSITION":50,
						"NORMAL":51,
						"TEXCOORD_0":52,
						"TEXCOORD_1":53
					},
					"indices":54,
					"material":0
				}
			]
		},
		{
			"name":"Cube.164",
			"primitives":[
				{
					"attributes":{
						"POSITION":55,
						"NORMAL":56,
						"TEXCOORD_0":57,
						"TEXCOORD_1":58
					},
					"indices":59,
					"material":1
				}
			]
		}
	],
	"textures":[
		{
			"sampler":0,
			"source":0
		},
		{
			"sampler":0,
			"source":1
		},
		{
			"sampler":0,
			"source":2
		}
	],
	"images":[
		{
			"mimeType":"image/png",
			"name":"T_Trim_Normal",
			"uri":"../../materials/T_Trim_Normal.png"
		},
		{
			"mimeType":"image/png",
			"name":"T_Trim_BaseColor",
			"uri":"../../materials/T_Trim_BaseColor.png"
		},
		{
			"mimeType":"image/png",
			"name":"T_Trim_ORM",
			"uri":"../../materials/T_Trim_ORM.png"
		}
	],
	"accessors":[
		{
			"bufferView":0,
			"componentType":5126,
			"count":32,
			"max":[
				1,
				0.6304141283035278,
				-0.42326831817626953
			],
			"min":[
				-0.39879941940307617,
				0,
				-0.6000000238418579
			],
			"type":"VEC3"
		},
		{
			"bufferView":1,
			"componentType":5126,
			"count":32,
			"type":"VEC3"
		},
		{
			"bufferView":2,
			"componentType":5126,
			"count":32,
			"type":"VEC2"
		},
		{
			"bufferView":3,
			"componentType":5126,
			"count":32,
			"type":"VEC2"
		},
		{
			"bufferView":4,
			"componentType":5123,
			"count":60,
			"type":"SCALAR"
		},
		{
			"bufferView":5,
			"componentType":5126,
			"count":32,
			"max":[
				-0.22341686487197876,
				0.6304141283035278,
				0.07664172351360321
			],
			"min":[
				-0.39879941940307617,
				-1.4901161193847656e-08,
				-0.6000000238418579
			],
			"type":"VEC3"
		},
		{
			"bufferView":6,
			"componentType":5126,
			"count":32,
			"type":"VEC3"
		},
		{
			"bufferView":7,
			"componentType":5126,
			"count":32,
			"type":"VEC2"
		},
		{
			"bufferView":8,
			"componentType":5126,
			"count":32,
			"type":"VEC2"
		},
		{
			"bufferView":9,
			"componentType":5123,
			"count":60,
			"type":"SCALAR"
		},
		{
			"bufferView":10,
			"componentType":5126,
			"count":18,
			"max":[
				-0.01752537488937378,
				0.6304141283035278,
				0.28411710262298584
			],
			"min":[
				-0.2249109148979187,
				0.35776448249816895,
				-0.4247738718986511
			],
			"type":"VEC3"
		},
		{
			"bufferView":11,
			"componentType":5126,
			"count":18,
			"type":"VEC3"
		},
		{
			"bufferView":12,
			"componentType":5126,
			"count":18,
			"type":"VEC2"
		},
		{
			"bufferView":13,
			"componentType":5126,
			"count":18,
			"type":"VEC2"
		},
		{
			"bufferView":14,
			"componentType":5123,
			"count":24,
			"type":"SCALAR"
		},
		{
			"bufferView":15,
			"componentType":5126,
			"count":32,
			"max":[
				-0.21988654136657715,
				0.6304141283035278,
				0.07673168182373047
			],
			"min":[
				-1,
				0,
				-0.10000000894069672
			],
			"type":"VEC3"
		},
		{
			"bufferView":16,
			"componentType":5126,
			"count":32,
			"type":"VEC3"
		},
		{
			"bufferView":17,
			"componentType":5126,
			"count":32,
			"type":"VEC2"
		},
		{
			"bufferView":18,
			"componentType":5126,
			"count":32,
			"type":"VEC2"
		},
		{
			"bufferView":19,
			"componentType":5123,
			"count":60,
			"type":"SCALAR"
		},
		{
			"bufferView":20,
			"componentType":5126,
			"count":46,
			"max":[
				0.21999800205230713,
				1,
				0.5199999809265137
			],
			"min":[
				-1,
				0.6100000143051147,
				-0.10000000894069672
			],
			"type":"VEC3"
		},
		{
			"bufferView":21,
			"componentType":5126,
			"count":46,
			"type":"VEC3"
		},
		{
			"bufferView":22,
			"componentType":5126,
			"count":46,
			"type":"VEC2"
		},
		{
			"bufferView":23,
			"componentType":5126,
			"count":46,
			"type":"VEC2"
		},
		{
			"bufferView":24,
			"componentType":5123,
			"count":96,
			"type":"SCALAR"
		},
		{
			"bufferView":25,
			"componentType":5126,
			"count":34,
			"max":[
				-0.4152209460735321,
				0.635023832321167,
				0.2964327931404114
			],
			"min":[
				-0.5752210021018982,
				0.20467817783355713,
				0.043251439929008484
			],
			"type":"VEC3"
		},
		{
			"bufferView":26,
			"componentType":5126,
			"count":34,
			"type":"VEC3"
		},
		{
			"bufferView":27,
			"componentType":5126,
			"count":34,
			"type":"VEC2"
		},
		{
			"bufferView":28,
			"componentType":5126,
			"count":34,
			"type":"VEC2"
		},
		{
			"bufferView":29,
			"componentType":5123,
			"count":60,
			"type":"SCALAR"
		},
		{
			"bufferView":30,
			"componentType":5126,
			"count":18,
			"max":[
				-0.013995051383972168,
				0.6304141283035278,
				0.2842070460319519
			],
			"min":[
				-1,
				0.35776448249816895,
				0.07522612065076828
			],
			"type":"VEC3"
		},
		{
			"bufferView":31,
			"componentType":5126,
			"count":18,
			"type":"VEC3"
		},
		{
			"bufferView":32,
			"componentType":5126,
			"count":18,
			"type":"VEC2"
		},
		{
			"bufferView":33,
			"componentType":5126,
			"count":18,
			"type":"VEC2"
		},
		{
			"bufferView":34,
			"componentType":5123,
			"count":24,
			"type":"SCALAR"
		},
		{
			"bufferView":35,
			"componentType":5126,
			"count":46,
			"max":[
				1,
				1,
				0.019999980926513672
			],
			"min":[
				-0.39879941940307617,
				0.6100000143051147,
				-0.6000000238418579
			],
			"type":"VEC3"
		},
		{
			"bufferView":36,
			"componentType":5126,
			"count":46,
			"type":"VEC3"
		},
		{
			"bufferView":37,
			"componentType":5126,
			"count":46,
			"type":"VEC2"
		},
		{
			"bufferView":38,
			"componentType":5126,
			"count":46,
			"type":"VEC2"
		},
		{
			"bufferView":39,
			"componentType":5123,
			"count":96,
			"type":"SCALAR"
		},
		{
			"bufferView":40,
			"componentType":5126,
			"count":18,
			"max":[
				1,
				0.6304141283035278,
				-0.2157929539680481
			],
			"min":[
				-0.2249109148979187,
				0.35776448249816895,
				-0.4247738718986511
			],
			"type":"VEC3"
		},
		{
			"bufferView":41,
			"componentType":5126,
			"count":18,
			"type":"VEC3"
		},
		{
			"bufferView":42,
			"componentType":5126,
			"count":18,
			"type":"VEC2"
		},
		{
			"bufferView":43,
			"componentType":5126,
			"count":18,
			"type":"VEC2"
		},
		{
			"bufferView":44,
			"componentType":5123,
			"count":24,
			"type":"SCALAR"
		},
		{
			"bufferView":45,
			"componentType":5126,
			"count":34,
			"max":[
				0.5752210021018982,
				0.635023832321167,
				-0.20356720685958862
			],
			"min":[
				0.4152209460735321,
				0.20467817783355713,
				-0.4567485451698303
			],
			"type":"VEC3"
		},
		{
			"bufferView":46,
			"componentType":5126,
			"count":34,
			"type":"VEC3"
		},
		{
			"bufferView":47,
			"componentType":5126,
			"count":34,
			"type":"VEC2"
		},
		{
			"bufferView":48,
			"componentType":5126,
			"count":34,
			"type":"VEC2"
		},
		{
			"bufferView":49,
			"componentType":5123,
			"count":60,
			"type":"SCALAR"
		},
		{
			"bufferView":50,
			"componentType":5126,
			"count":46,
			"max":[
				0.2164677083492279,
				1,
				0.5199100375175476
			],
			"min":[
				-0.39879941940307617,
				0.6100000143051147,
				-0.6000000238418579
			],
			"type":"VEC3"
		},
		{
			"bufferView":51,
			"componentType":5126,
			"count":46,
			"type":"VEC3"
		},
		{
			"bufferView":52,
			"componentType":5126,
			"count":46,
			"type":"VEC2"
		},
		{
			"bufferView":53,
			"componentType":5126,
			"count":46,
			"type":"VEC2"
		},
		{
			"bufferView":54,
			"componentType":5123,
			"count":96,
			"type":"SCALAR"
		},
		{
			"bufferView":55,
			"componentType":5126,
			"count":268,
			"max":[
				1,
				0.9983841776847839,
				0.5278398990631104
			],
			"min":[
				-1.0000001192092896,
				0,
				-0.6000000238418579
			],
			"type":"VEC3"
		},
		{
			"bufferView":56,
			"componentType":5126,
			"count":268,
			"type":"VEC3"
		},
		{
			"bufferView":57,
			"componentType":5126,
			"count":268,
			"type":"VEC2"
		},
		{
			"bufferView":58,
			"componentType":5126,
			"count":268,
			"type":"VEC2"
		},
		{
			"bufferView":59,
			"componentType":5123,
			"count":480,
			"type":"SCALAR"
		}
	],
	"bufferViews":[
		{
			"buffer":0,
			"byteLength":384,
			"byteOffset":0,
			"target":34962
		},
		{
			"buffer":0,
			"byteLength":384,
			"byteOffset":384,
			"target":34962
		},
		{
			"buffer":0,
			"byteLength":256,
			"byteOffset":768,
			"target":34962
		},
		{
			"buffer":0,
			"byteLength":256,
			"byteOffset":1024,
			"target":34962
		},
		{
			"buffer":0,
			"byteLength":120,
			"byteOffset":1280,
			"target":34963
		},
		{
			"buffer":0,
			"byteLength":384,
			"byteOffset":1400,
			"target":34962
		},
		{
			"buffer":0,
			"byteLength":384,
			"byteOffset":1784,
			"target":34962
		},
		{
			"buffer":0,
			"byteLength":256,
			"byteOffset":2168,
			"target":34962
		},
		{
			"buffer":0,
			"byteLength":256,
			"byteOffset":2424,
			"target":34962
		},
		{
			"buffer":0,
			"byteLength":120,
			"byteOffset":2680,
			"target":34963
		},
		{
			"buffer":0,
			"byteLength":216,
			"byteOffset":2800,
			"target":34962
		},
		{
			"buffer":0,
			"byteLength":216,
			"byteOffset":3016,
			"target":34962
		},
		{
			"buffer":0,
			"byteLength":144,
			"byteOffset":3232,
			"target":34962
		},
		{
			"buffer":0,
			"byteLength":144,
			"byteOffset":3376,
			"target":34962
		},
		{
			"buffer":0,
			"byteLength":48,
			"byteOffset":3520,
			"target":34963
		},
		{
			"buffer":0,
			"byteLength":384,
			"byteOffset":3568,
			"target":34962
		},
		{
			"buffer":0,
			"byteLength":384,
			"byteOffset":3952,
			"target":34962
		},
		{
			"buffer":0,
			"byteLength":256,
			"byteOffset":4336,
			"target":34962
		},
		{
			"buffer":0,
			"byteLength":256,
			"byteOffset":4592,
			"target":34962
		},
		{
			"buffer":0,
			"byteLength":120,
			"byteOffset":4848,
			"target":34963
		},
		{
			"buffer":0,
			"byteLength":552,
			"byteOffset":4968,
			"target":34962
		},
		{
			"buffer":0,
			"byteLength":552,
			"byteOffset":5520,
			"target":34962
		},
		{
			"buffer":0,
			"byteLength":368,
			"byteOffset":6072,
			"target":34962
		},
		{
			"buffer":0,
			"byteLength":368,
			"byteOffset":6440,
			"target":34962
		},
		{
			"buffer":0,
			"byteLength":192,
			"byteOffset":6808,
			"target":34963
		},
		{
			"buffer":0,
			"byteLength":408,
			"byteOffset":7000,
			"target":34962
		},
		{
			"buffer":0,
			"byteLength":408,
			"byteOffset":7408,
			"target":34962
		},
		{
			"buffer":0,
			"byteLength":272,
			"byteOffset":7816,
			"target":34962
		},
		{
			"buffer":0,
			"byteLength":272,
			"byteOffset":8088,
			"target":34962
		},
		{
			"buffer":0,
			"byteLength":120,
			"byteOffset":8360,
			"target":34963
		},
		{
			"buffer":0,
			"byteLength":216,
			"byteOffset":8480,
			"target":34962
		},
		{
			"buffer":0,
			"byteLength":216,
			"byteOffset":8696,
			"target":34962
		},
		{
			"buffer":0,
			"byteLength":144,
			"byteOffset":8912,
			"target":34962
		},
		{
			"buffer":0,
			"byteLength":144,
			"byteOffset":9056,
			"target":34962
		},
		{
			"buffer":0,
			"byteLength":48,
			"byteOffset":9200,
			"target":34963
		},
		{
			"buffer":0,
			"byteLength":552,
			"byteOffset":9248,
			"target":34962
		},
		{
			"buffer":0,
			"byteLength":552,
			"byteOffset":9800,
			"target":34962
		},
		{
			"buffer":0,
			"byteLength":368,
			"byteOffset":10352,
			"target":34962
		},
		{
			"buffer":0,
			"byteLength":368,
			"byteOffset":10720,
			"target":34962
		},
		{
			"buffer":0,
			"byteLength":192,
			"byteOffset":11088,
			"target":34963
		},
		{
			"buffer":0,
			"byteLength":216,
			"byteOffset":11280,
			"target":34962
		},
		{
			"buffer":0,
			"byteLength":216,
			"byteOffset":11496,
			"target":34962
		},
		{
			"buffer":0,
			"byteLength":144,
			"byteOffset":11712,
			"target":34962
		},
		{
			"buffer":0,
			"byteLength":144,
			"byteOffset":11856,
			"target":34962
		},
		{
			"buffer":0,
			"byteLength":48,
			"byteOffset":12000,
			"target":34963
		},
		{
			"buffer":0,
			"byteLength":408,
			"byteOffset":12048,
			"target":34962
		},
		{
			"buffer":0,
			"byteLength":408,
			"byteOffset":12456,
			"target":34962
		},
		{
			"buffer":0,
			"byteLength":272,
			"byteOffset":12864,
			"target":34962
		},
		{
			"buffer":0,
			"byteLength":272,
			"byteOffset":13136,
			"target":34962
		},
		{
			"buffer":0,
			"byteLength":120,
			"byteOffset":13408,
			"target":34963
		},
		{
			"buffer":0,
			"byteLength":552,
			"byteOffset":13528,
			"target":34962
		},
		{
			"buffer":0,
			"byteLength":552,
			"byteOffset":14080,
			"target":34962
		},
		{
			"buffer":0,
			"byteLength":368,
			"byteOffset":14632,
			"target":34962
		},
		{
			"buffer":0,
			"byteLength":368,
			"byteOffset":15000,
			"target":34962
		},
		{
			"buffer":0,
			"byteLength":192,
			"byteOffset":15368,
			"target":34963
		},
		{
			"buffer":0,
			"byteLength":3216,
			"byteOffset":15560,
			"target":34962
		},
		{
			"buffer":0,
			"byteLength":3216,
			"byteOffset":18776,
			"target":34962
		},
		{
			"buffer":0,
			"byteLength":2144,
			"byteOffset":21992,
			"target":34962
		},
		{
			"buffer":0,
			"byteLength":2144,
			"byteOffset":24136,
			"target":34962
		},
		{
			"buffer":0,
			"byteLength":960,
			"byteOffset":26280,
			"target":34963
		}
	],
	"samplers":[
		{
			"magFilter":9729,
			"minFilter":9987
		}
	],
	"buffers":[
		{
			"byteLength":27240,
			"uri":"Cornice_Trim_90Angle_L.bin"
		}
	]
}
