{
	"asset":{
		"generator":"Khronos glTF Blender I/O v4.3.47",
		"version":"2.0"
	},
	"scene":0,
	"scenes":[
		{
			"name":"Scene",
			"nodes":[
				9
			]
		}
	],
	"nodes":[
		{
			"mesh":0,
			"name":"Cornice_Marble_90Angle_L_01-convcolonly"
		},
		{
			"mesh":1,
			"name":"Cornice_Marble_90Angle_L_02-convcolonly"
		},
		{
			"mesh":2,
			"name":"Cornice_Marble_90Angle_L_03-convcolonly"
		},
		{
			"mesh":3,
			"name":"Cornice_Marble_90Angle_L_04-convcolonly"
		},
		{
			"mesh":4,
			"name":"Cornice_Marble_90Angle_L_05-convcolonly"
		},
		{
			"mesh":5,
			"name":"Cornice_Marble_90Angle_L_06-convcolonly"
		},
		{
			"mesh":6,
			"name":"Cornice_Marble_90Angle_L_07-convcolonly"
		},
		{
			"mesh":7,
			"name":"Cornice_Marble_90Angle_L_08-convcolonly"
		},
		{
			"mesh":8,
			"name":"Cornice_Marble_90Angle_L_09-convcolonly"
		},
		{
			"children":[
				0,
				1,
				2,
				3,
				4,
				5,
				6,
				7,
				8
			],
			"mesh":9,
			"name":"Cornice_Marble_90Angle_L"
		}
	],
	"materials":[
		{
			"doubleSided":true,
			"name":"Collision",
			"pbrMetallicRoughness":{
				"baseColorFactor":[
					0.036788325756788254,
					0.5504099726676941,
					0.8000074625015259,
					1
				],
				"metallicFactor":0
			}
		},
		{
			"doubleSided":true,
			"name":"MI_Trim",
			"normalTexture":{
				"index":0
			},
			"pbrMetallicRoughness":{
				"baseColorTexture":{
					"index":1
				},
				"metallicRoughnessTexture":{
					"index":2
				}
			}
		},
		{
			"doubleSided":true,
			"name":"MI_Ornaments",
			"normalTexture":{
				"index":3
			},
			"pbrMetallicRoughness":{
				"baseColorTexture":{
					"index":4
				},
				"metallicRoughnessTexture":{
					"index":5
				}
			}
		}
	],
	"meshes":[
		{
			"name":"Cube.526",
			"primitives":[
				{
					"attributes":{
						"POSITION":0,
						"NORMAL":1,
						"TEXCOORD_0":2
					},
					"indices":3,
					"material":0
				}
			]
		},
		{
			"name":"Cube.534",
			"primitives":[
				{
					"attributes":{
						"POSITION":4,
						"NORMAL":5,
						"TEXCOORD_0":6
					},
					"indices":7,
					"material":0
				}
			]
		},
		{
			"name":"Cube.535",
			"primitives":[
				{
					"attributes":{
						"POSITION":8,
						"NORMAL":9,
						"TEXCOORD_0":10
					},
					"indices":11,
					"material":0
				}
			]
		},
		{
			"name":"Cube.536",
			"primitives":[
				{
					"attributes":{
						"POSITION":12,
						"NORMAL":13,
						"TEXCOORD_0":14
					},
					"indices":7,
					"material":0
				}
			]
		},
		{
			"name":"Cube.537",
			"primitives":[
				{
					"attributes":{
						"POSITION":15,
						"NORMAL":16,
						"TEXCOORD_0":17
					},
					"indices":18,
					"material":0
				}
			]
		},
		{
			"name":"Cube.538",
			"primitives":[
				{
					"attributes":{
						"POSITION":19,
						"NORMAL":20,
						"TEXCOORD_0":21
					},
					"indices":11,
					"material":0
				}
			]
		},
		{
			"name":"Cube.539",
			"primitives":[
				{
					"attributes":{
						"POSITION":22,
						"NORMAL":23,
						"TEXCOORD_0":24
					},
					"indices":25,
					"material":0
				}
			]
		},
		{
			"name":"Cube.540",
			"primitives":[
				{
					"attributes":{
						"POSITION":26,
						"NORMAL":27,
						"TEXCOORD_0":28
					},
					"indices":29,
					"material":0
				}
			]
		},
		{
			"name":"Cube.541",
			"primitives":[
				{
					"attributes":{
						"POSITION":30,
						"NORMAL":31,
						"TEXCOORD_0":32
					},
					"indices":33,
					"material":0
				}
			]
		},
		{
			"name":"Cube.181",
			"primitives":[
				{
					"attributes":{
						"POSITION":34,
						"NORMAL":35,
						"TEXCOORD_0":36,
						"TEXCOORD_1":37,
						"COLOR_0":38,
						"COLOR_1":39
					},
					"indices":40,
					"material":1
				},
				{
					"attributes":{
						"POSITION":41,
						"NORMAL":42,
						"TEXCOORD_0":43,
						"TEXCOORD_1":44,
						"COLOR_0":45,
						"COLOR_1":46
					},
					"indices":47,
					"material":2
				}
			]
		}
	],
	"textures":[
		{
			"sampler":0,
			"source":0
		},
		{
			"sampler":0,
			"source":1
		},
		{
			"sampler":0,
			"source":2
		},
		{
			"sampler":0,
			"source":3
		},
		{
			"sampler":0,
			"source":4
		},
		{
			"sampler":0,
			"source":5
		}
	],
	"images":[
		{
			"mimeType":"image/png",
			"name":"T_Trim_Normal",
			"uri":"../../materials/T_Trim_Normal.png"
		},
		{
			"mimeType":"image/png",
			"name":"T_Trim_BaseColor",
			"uri":"../../materials/T_Trim_BaseColor.png"
		},
		{
			"mimeType":"image/png",
			"name":"T_Trim_ORM",
			"uri":"../../materials/T_Trim_ORM.png"
		},
		{
			"mimeType":"image/png",
			"name":"T_Ornaments_Normal",
			"uri":"../../materials/T_Ornaments_Normal.png"
		},
		{
			"mimeType":"image/png",
			"name":"T_Ornaments_BaseColor",
			"uri":"../../materials/T_Ornaments_BaseColor.png"
		},
		{
			"mimeType":"image/png",
			"name":"T_Ornaments_ORM",
			"uri":"../../materials/T_Ornaments_ORM.png"
		}
	],
	"accessors":[
		{
			"bufferView":0,
			"componentType":5126,
			"count":51,
			"max":[
				0.219845712184906,
				1,
				0.5199999809265137
			],
			"min":[
				-1,
				0.6100000143051147,
				-0.10000002384185791
			],
			"type":"VEC3"
		},
		{
			"bufferView":1,
			"componentType":5126,
			"count":51,
			"type":"VEC3"
		},
		{
			"bufferView":2,
			"componentType":5126,
			"count":51,
			"type":"VEC2"
		},
		{
			"bufferView":3,
			"componentType":5123,
			"count":96,
			"type":"SCALAR"
		},
		{
			"bufferView":4,
			"componentType":5126,
			"count":24,
			"max":[
				-0.20434913039207458,
				1,
				0.08999999612569809
			],
			"min":[
				-1,
				0,
				-0.10000000894069672
			],
			"type":"VEC3"
		},
		{
			"bufferView":5,
			"componentType":5126,
			"count":24,
			"type":"VEC3"
		},
		{
			"bufferView":6,
			"componentType":5126,
			"count":24,
			"type":"VEC2"
		},
		{
			"bufferView":7,
			"componentType":5123,
			"count":36,
			"type":"SCALAR"
		},
		{
			"bufferView":8,
			"componentType":5126,
			"count":24,
			"max":[
				-0.1654820591211319,
				0.12597325444221497,
				0.1301877796649933
			],
			"min":[
				-1,
				0.07187430560588837,
				0.08817850798368454
			],
			"type":"VEC3"
		},
		{
			"bufferView":9,
			"componentType":5126,
			"count":24,
			"type":"VEC3"
		},
		{
			"bufferView":10,
			"componentType":5126,
			"count":24,
			"type":"VEC2"
		},
		{
			"bufferView":11,
			"componentType":5123,
			"count":36,
			"type":"SCALAR"
		},
		{
			"bufferView":12,
			"componentType":5126,
			"count":24,
			"max":[
				1,
				1,
				-0.4099999964237213
			],
			"min":[
				-0.20000000298023224,
				0,
				-0.6000000238418579
			],
			"type":"VEC3"
		},
		{
			"bufferView":13,
			"componentType":5126,
			"count":24,
			"type":"VEC3"
		},
		{
			"bufferView":14,
			"componentType":5126,
			"count":24,
			"type":"VEC2"
		},
		{
			"bufferView":15,
			"componentType":5126,
			"count":46,
			"max":[
				1,
				1,
				0.019999980926513672
			],
			"min":[
				-0.20000000298023224,
				0.6100000143051147,
				-0.6000000238418579
			],
			"type":"VEC3"
		},
		{
			"bufferView":16,
			"componentType":5126,
			"count":46,
			"type":"VEC3"
		},
		{
			"bufferView":17,
			"componentType":5126,
			"count":46,
			"type":"VEC2"
		},
		{
			"bufferView":18,
			"componentType":5123,
			"count":96,
			"type":"SCALAR"
		},
		{
			"bufferView":19,
			"componentType":5126,
			"count":24,
			"max":[
				1,
				0.12597325444221497,
				-0.3698122203350067
			],
			"min":[
				-0.20000000298023224,
				0.07187430560588837,
				-0.41182148456573486
			],
			"type":"VEC3"
		},
		{
			"bufferView":20,
			"componentType":5126,
			"count":24,
			"type":"VEC3"
		},
		{
			"bufferView":21,
			"componentType":5126,
			"count":24,
			"type":"VEC2"
		},
		{
			"bufferView":22,
			"componentType":5126,
			"count":24,
			"max":[
				-0.21000000834465027,
				1,
				0.09565088897943497
			],
			"min":[
				-0.40000006556510925,
				0,
				-0.599819540977478
			],
			"type":"VEC3"
		},
		{
			"bufferView":23,
			"componentType":5126,
			"count":24,
			"type":"VEC3"
		},
		{
			"bufferView":24,
			"componentType":5126,
			"count":24,
			"type":"VEC2"
		},
		{
			"bufferView":25,
			"componentType":5123,
			"count":36,
			"type":"SCALAR"
		},
		{
			"bufferView":26,
			"componentType":5126,
			"count":51,
			"max":[
				0.2199999988079071,
				1,
				0.5218691825866699
			],
			"min":[
				-0.40000006556510925,
				0.6100000143051147,
				-0.599819540977478
			],
			"type":"VEC3"
		},
		{
			"bufferView":27,
			"componentType":5126,
			"count":51,
			"type":"VEC3"
		},
		{
			"bufferView":28,
			"componentType":5126,
			"count":51,
			"type":"VEC2"
		},
		{
			"bufferView":29,
			"componentType":5123,
			"count":96,
			"type":"SCALAR"
		},
		{
			"bufferView":30,
			"componentType":5126,
			"count":24,
			"max":[
				-0.16981223225593567,
				0.12597325444221497,
				0.13451795279979706
			],
			"min":[
				-0.2118215262889862,
				0.07187430560588837,
				-0.599819540977478
			],
			"type":"VEC3"
		},
		{
			"bufferView":31,
			"componentType":5126,
			"count":24,
			"type":"VEC3"
		},
		{
			"bufferView":32,
			"componentType":5126,
			"count":24,
			"type":"VEC2"
		},
		{
			"bufferView":33,
			"componentType":5123,
			"count":36,
			"type":"SCALAR"
		},
		{
			"bufferView":34,
			"componentType":5126,
			"count":361,
			"max":[
				1,
				1,
				0.5184613466262817
			],
			"min":[
				-1,
				0,
				-0.6000000238418579
			],
			"type":"VEC3"
		},
		{
			"bufferView":35,
			"componentType":5126,
			"count":361,
			"type":"VEC3"
		},
		{
			"bufferView":36,
			"componentType":5126,
			"count":361,
			"type":"VEC2"
		},
		{
			"bufferView":37,
			"componentType":5126,
			"count":361,
			"type":"VEC2"
		},
		{
			"bufferView":38,
			"componentType":5123,
			"count":361,
			"normalized":true,
			"type":"VEC4"
		},
		{
			"bufferView":39,
			"componentType":5123,
			"count":361,
			"normalized":true,
			"type":"VEC4"
		},
		{
			"bufferView":40,
			"componentType":5123,
			"count":747,
			"type":"SCALAR"
		},
		{
			"bufferView":41,
			"componentType":5126,
			"count":92,
			"max":[
				1,
				1,
				0.5184613466262817
			],
			"min":[
				-1,
				0.16552400588989258,
				-0.4257305860519409
			],
			"type":"VEC3"
		},
		{
			"bufferView":42,
			"componentType":5126,
			"count":92,
			"type":"VEC3"
		},
		{
			"bufferView":43,
			"componentType":5126,
			"count":92,
			"type":"VEC2"
		},
		{
			"bufferView":44,
			"componentType":5126,
			"count":92,
			"type":"VEC2"
		},
		{
			"bufferView":45,
			"componentType":5123,
			"count":92,
			"normalized":true,
			"type":"VEC4"
		},
		{
			"bufferView":46,
			"componentType":5123,
			"count":92,
			"normalized":true,
			"type":"VEC4"
		},
		{
			"bufferView":47,
			"componentType":5123,
			"count":138,
			"type":"SCALAR"
		}
	],
	"bufferViews":[
		{
			"buffer":0,
			"byteLength":612,
			"byteOffset":0,
			"target":34962
		},
		{
			"buffer":0,
			"byteLength":612,
			"byteOffset":612,
			"target":34962
		},
		{
			"buffer":0,
			"byteLength":408,
			"byteOffset":1224,
			"target":34962
		},
		{
			"buffer":0,
			"byteLength":192,
			"byteOffset":1632,
			"target":34963
		},
		{
			"buffer":0,
			"byteLength":288,
			"byteOffset":1824,
			"target":34962
		},
		{
			"buffer":0,
			"byteLength":288,
			"byteOffset":2112,
			"target":34962
		},
		{
			"buffer":0,
			"byteLength":192,
			"byteOffset":2400,
			"target":34962
		},
		{
			"buffer":0,
			"byteLength":72,
			"byteOffset":2592,
			"target":34963
		},
		{
			"buffer":0,
			"byteLength":288,
			"byteOffset":2664,
			"target":34962
		},
		{
			"buffer":0,
			"byteLength":288,
			"byteOffset":2952,
			"target":34962
		},
		{
			"buffer":0,
			"byteLength":192,
			"byteOffset":3240,
			"target":34962
		},
		{
			"buffer":0,
			"byteLength":72,
			"byteOffset":3432,
			"target":34963
		},
		{
			"buffer":0,
			"byteLength":288,
			"byteOffset":3504,
			"target":34962
		},
		{
			"buffer":0,
			"byteLength":288,
			"byteOffset":3792,
			"target":34962
		},
		{
			"buffer":0,
			"byteLength":192,
			"byteOffset":4080,
			"target":34962
		},
		{
			"buffer":0,
			"byteLength":552,
			"byteOffset":4272,
			"target":34962
		},
		{
			"buffer":0,
			"byteLength":552,
			"byteOffset":4824,
			"target":34962
		},
		{
			"buffer":0,
			"byteLength":368,
			"byteOffset":5376,
			"target":34962
		},
		{
			"buffer":0,
			"byteLength":192,
			"byteOffset":5744,
			"target":34963
		},
		{
			"buffer":0,
			"byteLength":288,
			"byteOffset":5936,
			"target":34962
		},
		{
			"buffer":0,
			"byteLength":288,
			"byteOffset":6224,
			"target":34962
		},
		{
			"buffer":0,
			"byteLength":192,
			"byteOffset":6512,
			"target":34962
		},
		{
			"buffer":0,
			"byteLength":288,
			"byteOffset":6704,
			"target":34962
		},
		{
			"buffer":0,
			"byteLength":288,
			"byteOffset":6992,
			"target":34962
		},
		{
			"buffer":0,
			"byteLength":192,
			"byteOffset":7280,
			"target":34962
		},
		{
			"buffer":0,
			"byteLength":72,
			"byteOffset":7472,
			"target":34963
		},
		{
			"buffer":0,
			"byteLength":612,
			"byteOffset":7544,
			"target":34962
		},
		{
			"buffer":0,
			"byteLength":612,
			"byteOffset":8156,
			"target":34962
		},
		{
			"buffer":0,
			"byteLength":408,
			"byteOffset":8768,
			"target":34962
		},
		{
			"buffer":0,
			"byteLength":192,
			"byteOffset":9176,
			"target":34963
		},
		{
			"buffer":0,
			"byteLength":288,
			"byteOffset":9368,
			"target":34962
		},
		{
			"buffer":0,
			"byteLength":288,
			"byteOffset":9656,
			"target":34962
		},
		{
			"buffer":0,
			"byteLength":192,
			"byteOffset":9944,
			"target":34962
		},
		{
			"buffer":0,
			"byteLength":72,
			"byteOffset":10136,
			"target":34963
		},
		{
			"buffer":0,
			"byteLength":4332,
			"byteOffset":10208,
			"target":34962
		},
		{
			"buffer":0,
			"byteLength":4332,
			"byteOffset":14540,
			"target":34962
		},
		{
			"buffer":0,
			"byteLength":2888,
			"byteOffset":18872,
			"target":34962
		},
		{
			"buffer":0,
			"byteLength":2888,
			"byteOffset":21760,
			"target":34962
		},
		{
			"buffer":0,
			"byteLength":2888,
			"byteOffset":24648,
			"target":34962
		},
		{
			"buffer":0,
			"byteLength":2888,
			"byteOffset":27536,
			"target":34962
		},
		{
			"buffer":0,
			"byteLength":1494,
			"byteOffset":30424,
			"target":34963
		},
		{
			"buffer":0,
			"byteLength":1104,
			"byteOffset":31920,
			"target":34962
		},
		{
			"buffer":0,
			"byteLength":1104,
			"byteOffset":33024,
			"target":34962
		},
		{
			"buffer":0,
			"byteLength":736,
			"byteOffset":34128,
			"target":34962
		},
		{
			"buffer":0,
			"byteLength":736,
			"byteOffset":34864,
			"target":34962
		},
		{
			"buffer":0,
			"byteLength":736,
			"byteOffset":35600,
			"target":34962
		},
		{
			"buffer":0,
			"byteLength":736,
			"byteOffset":36336,
			"target":34962
		},
		{
			"buffer":0,
			"byteLength":276,
			"byteOffset":37072,
			"target":34963
		}
	],
	"samplers":[
		{
			"magFilter":9729,
			"minFilter":9987
		}
	],
	"buffers":[
		{
			"byteLength":37348,
			"uri":"Cornice_Marble_90Angle_L.bin"
		}
	]
}
