{
	"asset":{
		"generator":"Khronos glTF Blender I/O v4.3.47",
		"version":"2.0"
	},
	"scene":0,
	"scenes":[
		{
			"name":"Scene",
			"nodes":[
				5
			]
		}
	],
	"nodes":[
		{
			"mesh":0,
			"name":"Cornice_Trim_L_1-convcolonly"
		},
		{
			"mesh":1,
			"name":"Cornice_Trim_L_2-convcolonly"
		},
		{
			"mesh":2,
			"name":"Cornice_Trim_L_3-convcolonly"
		},
		{
			"mesh":3,
			"name":"Cornice_Trim_L_4-convcolonly"
		},
		{
			"mesh":4,
			"name":"Cornice_Trim_L_5-convcolonly"
		},
		{
			"children":[
				0,
				1,
				2,
				3,
				4
			],
			"mesh":5,
			"name":"Cornice_Trim_L"
		}
	],
	"materials":[
		{
			"doubleSided":true,
			"name":"Collision",
			"pbrMetallicRoughness":{
				"baseColorFactor":[
					0.036788325756788254,
					0.5504099726676941,
					0.8000074625015259,
					1
				],
				"metallicFactor":0
			}
		},
		{
			"doubleSided":true,
			"name":"MI_Trim",
			"normalTexture":{
				"index":0
			},
			"pbrMetallicRoughness":{
				"baseColorTexture":{
					"index":1
				},
				"metallicRoughnessTexture":{
					"index":2
				}
			}
		}
	],
	"meshes":[
		{
			"name":"Cube.642",
			"primitives":[
				{
					"attributes":{
						"POSITION":0,
						"NORMAL":1,
						"TEXCOORD_0":2,
						"TEXCOORD_1":3
					},
					"indices":4,
					"material":0
				}
			]
		},
		{
			"name":"Cube.643",
			"primitives":[
				{
					"attributes":{
						"POSITION":5,
						"NORMAL":6,
						"TEXCOORD_0":7,
						"TEXCOORD_1":8
					},
					"indices":9,
					"material":0
				}
			]
		},
		{
			"name":"Cube.644",
			"primitives":[
				{
					"attributes":{
						"POSITION":10,
						"NORMAL":11,
						"TEXCOORD_0":12,
						"TEXCOORD_1":13
					},
					"indices":14,
					"material":0
				}
			]
		},
		{
			"name":"Cube.645",
			"primitives":[
				{
					"attributes":{
						"POSITION":15,
						"NORMAL":16,
						"TEXCOORD_0":17,
						"TEXCOORD_1":18
					},
					"indices":19,
					"material":0
				}
			]
		},
		{
			"name":"Cube.646",
			"primitives":[
				{
					"attributes":{
						"POSITION":20,
						"NORMAL":21,
						"TEXCOORD_0":22,
						"TEXCOORD_1":23
					},
					"indices":24,
					"material":0
				}
			]
		},
		{
			"name":"Cube.019",
			"primitives":[
				{
					"attributes":{
						"POSITION":25,
						"NORMAL":26,
						"TEXCOORD_0":27,
						"TEXCOORD_1":28
					},
					"indices":29,
					"material":1
				}
			]
		}
	],
	"textures":[
		{
			"sampler":0,
			"source":0
		},
		{
			"sampler":0,
			"source":1
		},
		{
			"sampler":0,
			"source":2
		}
	],
	"images":[
		{
			"mimeType":"image/png",
			"name":"T_Trim_Normal",
			"uri":"../../materials/T_Trim_Normal.png"
		},
		{
			"mimeType":"image/png",
			"name":"T_Trim_BaseColor",
			"uri":"../../materials/T_Trim_BaseColor.png"
		},
		{
			"mimeType":"image/png",
			"name":"T_Trim_ORM",
			"uri":"../../materials/T_Trim_ORM.png"
		}
	],
	"accessors":[
		{
			"bufferView":0,
			"componentType":5126,
			"count":32,
			"max":[
				1,
				0.6304141283035278,
				0.07673168182373047
			],
			"min":[
				-1.0772814750671387,
				0,
				-0.10000000894069672
			],
			"type":"VEC3"
		},
		{
			"bufferView":1,
			"componentType":5126,
			"count":32,
			"type":"VEC3"
		},
		{
			"bufferView":2,
			"componentType":5126,
			"count":32,
			"type":"VEC2"
		},
		{
			"bufferView":3,
			"componentType":5126,
			"count":32,
			"type":"VEC2"
		},
		{
			"bufferView":4,
			"componentType":5123,
			"count":60,
			"type":"SCALAR"
		},
		{
			"bufferView":5,
			"componentType":5126,
			"count":46,
			"max":[
				1,
				1,
				0.5199999809265137
			],
			"min":[
				-1.517166018486023,
				0.6100000143051147,
				-0.10000000894069672
			],
			"type":"VEC3"
		},
		{
			"bufferView":6,
			"componentType":5126,
			"count":46,
			"type":"VEC3"
		},
		{
			"bufferView":7,
			"componentType":5126,
			"count":46,
			"type":"VEC2"
		},
		{
			"bufferView":8,
			"componentType":5126,
			"count":46,
			"type":"VEC2"
		},
		{
			"bufferView":9,
			"componentType":5123,
			"count":96,
			"type":"SCALAR"
		},
		{
			"bufferView":10,
			"componentType":5126,
			"count":34,
			"max":[
				0.5752210021018982,
				0.635023832321167,
				0.2964327931404114
			],
			"min":[
				0.4152209460735321,
				0.20467817783355713,
				0.043251439929008484
			],
			"type":"VEC3"
		},
		{
			"bufferView":11,
			"componentType":5126,
			"count":34,
			"type":"VEC3"
		},
		{
			"bufferView":12,
			"componentType":5126,
			"count":34,
			"type":"VEC2"
		},
		{
			"bufferView":13,
			"componentType":5126,
			"count":34,
			"type":"VEC2"
		},
		{
			"bufferView":14,
			"componentType":5123,
			"count":60,
			"type":"SCALAR"
		},
		{
			"bufferView":15,
			"componentType":5126,
			"count":34,
			"max":[
				-0.4152209460735321,
				0.635023832321167,
				0.2964327931404114
			],
			"min":[
				-0.5752210021018982,
				0.20467817783355713,
				0.043251439929008484
			],
			"type":"VEC3"
		},
		{
			"bufferView":16,
			"componentType":5126,
			"count":34,
			"type":"VEC3"
		},
		{
			"bufferView":17,
			"componentType":5126,
			"count":34,
			"type":"VEC2"
		},
		{
			"bufferView":18,
			"componentType":5126,
			"count":34,
			"type":"VEC2"
		},
		{
			"bufferView":19,
			"componentType":5123,
			"count":60,
			"type":"SCALAR"
		},
		{
			"bufferView":20,
			"componentType":5126,
			"count":18,
			"max":[
				1,
				0.6304141283035278,
				0.2842070460319519
			],
			"min":[
				-1.2831729650497437,
				0.35776448249816895,
				0.07522612065076828
			],
			"type":"VEC3"
		},
		{
			"bufferView":21,
			"componentType":5126,
			"count":18,
			"type":"VEC3"
		},
		{
			"bufferView":22,
			"componentType":5126,
			"count":18,
			"type":"VEC2"
		},
		{
			"bufferView":23,
			"componentType":5126,
			"count":18,
			"type":"VEC2"
		},
		{
			"bufferView":24,
			"componentType":5123,
			"count":24,
			"type":"SCALAR"
		},
		{
			"bufferView":25,
			"componentType":5126,
			"count":198,
			"max":[
				1,
				0.9983841776847839,
				0.5278398990631104
			],
			"min":[
				-1.5278398990631104,
				0,
				-0.10000001639127731
			],
			"type":"VEC3"
		},
		{
			"bufferView":26,
			"componentType":5126,
			"count":198,
			"type":"VEC3"
		},
		{
			"bufferView":27,
			"componentType":5126,
			"count":198,
			"type":"VEC2"
		},
		{
			"bufferView":28,
			"componentType":5126,
			"count":198,
			"type":"VEC2"
		},
		{
			"bufferView":29,
			"componentType":5123,
			"count":348,
			"type":"SCALAR"
		}
	],
	"bufferViews":[
		{
			"buffer":0,
			"byteLength":384,
			"byteOffset":0,
			"target":34962
		},
		{
			"buffer":0,
			"byteLength":384,
			"byteOffset":384,
			"target":34962
		},
		{
			"buffer":0,
			"byteLength":256,
			"byteOffset":768,
			"target":34962
		},
		{
			"buffer":0,
			"byteLength":256,
			"byteOffset":1024,
			"target":34962
		},
		{
			"buffer":0,
			"byteLength":120,
			"byteOffset":1280,
			"target":34963
		},
		{
			"buffer":0,
			"byteLength":552,
			"byteOffset":1400,
			"target":34962
		},
		{
			"buffer":0,
			"byteLength":552,
			"byteOffset":1952,
			"target":34962
		},
		{
			"buffer":0,
			"byteLength":368,
			"byteOffset":2504,
			"target":34962
		},
		{
			"buffer":0,
			"byteLength":368,
			"byteOffset":2872,
			"target":34962
		},
		{
			"buffer":0,
			"byteLength":192,
			"byteOffset":3240,
			"target":34963
		},
		{
			"buffer":0,
			"byteLength":408,
			"byteOffset":3432,
			"target":34962
		},
		{
			"buffer":0,
			"byteLength":408,
			"byteOffset":3840,
			"target":34962
		},
		{
			"buffer":0,
			"byteLength":272,
			"byteOffset":4248,
			"target":34962
		},
		{
			"buffer":0,
			"byteLength":272,
			"byteOffset":4520,
			"target":34962
		},
		{
			"buffer":0,
			"byteLength":120,
			"byteOffset":4792,
			"target":34963
		},
		{
			"buffer":0,
			"byteLength":408,
			"byteOffset":4912,
			"target":34962
		},
		{
			"buffer":0,
			"byteLength":408,
			"byteOffset":5320,
			"target":34962
		},
		{
			"buffer":0,
			"byteLength":272,
			"byteOffset":5728,
			"target":34962
		},
		{
			"buffer":0,
			"byteLength":272,
			"byteOffset":6000,
			"target":34962
		},
		{
			"buffer":0,
			"byteLength":120,
			"byteOffset":6272,
			"target":34963
		},
		{
			"buffer":0,
			"byteLength":216,
			"byteOffset":6392,
			"target":34962
		},
		{
			"buffer":0,
			"byteLength":216,
			"byteOffset":6608,
			"target":34962
		},
		{
			"buffer":0,
			"byteLength":144,
			"byteOffset":6824,
			"target":34962
		},
		{
			"buffer":0,
			"byteLength":144,
			"byteOffset":6968,
			"target":34962
		},
		{
			"buffer":0,
			"byteLength":48,
			"byteOffset":7112,
			"target":34963
		},
		{
			"buffer":0,
			"byteLength":2376,
			"byteOffset":7160,
			"target":34962
		},
		{
			"buffer":0,
			"byteLength":2376,
			"byteOffset":9536,
			"target":34962
		},
		{
			"buffer":0,
			"byteLength":1584,
			"byteOffset":11912,
			"target":34962
		},
		{
			"buffer":0,
			"byteLength":1584,
			"byteOffset":13496,
			"target":34962
		},
		{
			"buffer":0,
			"byteLength":696,
			"byteOffset":15080,
			"target":34963
		}
	],
	"samplers":[
		{
			"magFilter":9729,
			"minFilter":9987
		}
	],
	"buffers":[
		{
			"byteLength":15776,
			"uri":"Cornice_Trim_L.bin"
		}
	]
}
