{
	"asset":{
		"generator":"Khronos glTF Blender I/O v4.3.47",
		"version":"2.0"
	},
	"scene":0,
	"scenes":[
		{
			"name":"Scene",
			"nodes":[
				6
			]
		}
	],
	"nodes":[
		{
			"mesh":0,
			"name":"DoorFrame_WornBrick_1-convcolonly"
		},
		{
			"mesh":1,
			"name":"DoorFrame_WornBrick_2-convcolonly"
		},
		{
			"mesh":2,
			"name":"DoorFrame_WornBrick_3-convcolonly"
		},
		{
			"mesh":3,
			"name":"DoorFrame_WornBrick_4-convcolonly"
		},
		{
			"mesh":4,
			"name":"DoorFrame_WornBrick_5-convcolonly"
		},
		{
			"mesh":5,
			"name":"DoorFrame_WornBrick_6-convcolonly"
		},
		{
			"children":[
				0,
				1,
				2,
				3,
				4,
				5
			],
			"mesh":6,
			"name":"DoorFrame_WornBrick"
		}
	],
	"materials":[
		{
			"doubleSided":true,
			"name":"Collision",
			"pbrMetallicRoughness":{
				"baseColorFactor":[
					0.036788325756788254,
					0.5504099726676941,
					0.8000074625015259,
					1
				],
				"metallicFactor":0
			}
		},
		{
			"doubleSided":true,
			"name":"MI_WornBrick",
			"normalTexture":{
				"index":0
			},
			"pbrMetallicRoughness":{
				"baseColorTexture":{
					"index":1
				},
				"metallicRoughnessTexture":{
					"index":2
				}
			}
		},
		{
			"doubleSided":true,
			"name":"MI_InteriorWall",
			"normalTexture":{
				"index":3
			},
			"pbrMetallicRoughness":{
				"baseColorTexture":{
					"index":4
				},
				"metallicRoughnessTexture":{
					"index":5
				}
			}
		},
		{
			"doubleSided":true,
			"name":"MI_Trim_Dark",
			"normalTexture":{
				"index":6
			},
			"pbrMetallicRoughness":{
				"baseColorTexture":{
					"index":7
				},
				"metallicRoughnessTexture":{
					"index":8
				}
			}
		},
		{
			"doubleSided":true,
			"name":"MI_Trim_MetalConcrete",
			"normalTexture":{
				"index":9
			},
			"pbrMetallicRoughness":{
				"baseColorTexture":{
					"index":10
				},
				"metallicRoughnessTexture":{
					"index":11
				}
			}
		},
		{
			"alphaMode":"BLEND",
			"doubleSided":true,
			"name":"MI_Glass",
			"pbrMetallicRoughness":{
				"baseColorFactor":[
					0.05215025693178177,
					0.05215025693178177,
					0.05215025693178177,
					0.586363673210144
				],
				"metallicFactor":0,
				"roughnessFactor":0.5
			}
		}
	],
	"meshes":[
		{
			"name":"Cube.407",
			"primitives":[
				{
					"attributes":{
						"POSITION":0,
						"NORMAL":1,
						"TEXCOORD_0":2
					},
					"indices":3,
					"material":0
				}
			]
		},
		{
			"name":"Cube.408",
			"primitives":[
				{
					"attributes":{
						"POSITION":4,
						"NORMAL":5,
						"TEXCOORD_0":6
					},
					"indices":7,
					"material":0
				}
			]
		},
		{
			"name":"Cube.409",
			"primitives":[
				{
					"attributes":{
						"POSITION":8,
						"NORMAL":9,
						"TEXCOORD_0":10
					},
					"indices":11,
					"material":0
				}
			]
		},
		{
			"name":"Cube.410",
			"primitives":[
				{
					"attributes":{
						"POSITION":12,
						"NORMAL":13,
						"TEXCOORD_0":14
					},
					"indices":15,
					"material":0
				}
			]
		},
		{
			"name":"Cube.411",
			"primitives":[
				{
					"attributes":{
						"POSITION":16,
						"NORMAL":17,
						"TEXCOORD_0":18
					},
					"indices":19,
					"material":0
				}
			]
		},
		{
			"name":"Cube.412",
			"primitives":[
				{
					"attributes":{
						"POSITION":20,
						"NORMAL":21,
						"TEXCOORD_0":22
					},
					"indices":23,
					"material":0
				}
			]
		},
		{
			"name":"Cube.197",
			"primitives":[
				{
					"attributes":{
						"POSITION":24,
						"NORMAL":25,
						"TEXCOORD_0":26,
						"TEXCOORD_1":27,
						"COLOR_0":28
					},
					"indices":29,
					"material":1
				},
				{
					"attributes":{
						"POSITION":30,
						"NORMAL":31,
						"TEXCOORD_0":32,
						"TEXCOORD_1":33,
						"COLOR_0":34
					},
					"indices":35,
					"material":2
				},
				{
					"attributes":{
						"POSITION":36,
						"NORMAL":37,
						"TEXCOORD_0":38,
						"TEXCOORD_1":39,
						"COLOR_0":40
					},
					"indices":41,
					"material":3
				},
				{
					"attributes":{
						"POSITION":42,
						"NORMAL":43,
						"TEXCOORD_0":44,
						"TEXCOORD_1":45,
						"COLOR_0":46
					},
					"indices":47,
					"material":4
				},
				{
					"attributes":{
						"POSITION":48,
						"NORMAL":49,
						"TEXCOORD_0":50,
						"TEXCOORD_1":51,
						"COLOR_0":52
					},
					"indices":53,
					"material":5
				}
			]
		}
	],
	"textures":[
		{
			"sampler":0,
			"source":0
		},
		{
			"sampler":0,
			"source":1
		},
		{
			"sampler":0,
			"source":2
		},
		{
			"sampler":0,
			"source":3
		},
		{
			"sampler":0,
			"source":4
		},
		{
			"sampler":0,
			"source":5
		},
		{
			"sampler":0,
			"source":6
		},
		{
			"sampler":0,
			"source":7
		},
		{
			"sampler":0,
			"source":8
		},
		{
			"sampler":0,
			"source":9
		},
		{
			"sampler":0,
			"source":10
		},
		{
			"sampler":0,
			"source":11
		}
	],
	"images":[
		{
			"mimeType":"image/png",
			"name":"T_WornBrick_Normal",
			"uri":"../../materials/T_WornBrick_Normal.png"
		},
		{
			"mimeType":"image/png",
			"name":"T_WornBrick_BaseColor",
			"uri":"../../materials/T_WornBrick_BaseColor.png"
		},
		{
			"mimeType":"image/png",
			"name":"T_WornBrick_ORM",
			"uri":"../../materials/T_WornBrick_ORM.png"
		},
		{
			"mimeType":"image/png",
			"name":"T_RedBrick_Normal",
			"uri":"../../materials/T_RedBrick_Normal.png"
		},
		{
			"mimeType":"image/png",
			"name":"T_RedBrick_BaseColor",
			"uri":"../../materials/T_RedBrick_BaseColor.png"
		},
		{
			"mimeType":"image/png",
			"name":"T_RedBrick_ORM",
			"uri":"../../materials/T_RedBrick_ORM.png"
		},
		{
			"mimeType":"image/png",
			"name":"T_Trim_Normal",
			"uri":"../../materials/T_Trim_Normal.png"
		},
		{
			"mimeType":"image/png",
			"name":"T_Trim_BaseColor",
			"uri":"../../materials/T_Trim_BaseColor.png"
		},
		{
			"mimeType":"image/png",
			"name":"T_Trim_ORM",
			"uri":"../../materials/T_Trim_ORM.png"
		},
		{
			"mimeType":"image/png",
			"name":"T_MetalConcrete_Normal",
			"uri":"../../materials/T_MetalConcrete_Normal.png"
		},
		{
			"mimeType":"image/png",
			"name":"T_MetalConcrete_BaseColor",
			"uri":"../../materials/T_MetalConcrete_BaseColor.png"
		},
		{
			"mimeType":"image/png",
			"name":"T_MetalConcrete_ORM",
			"uri":"../../materials/T_MetalConcrete_ORM.png"
		}
	],
	"accessors":[
		{
			"bufferView":0,
			"componentType":5126,
			"count":24,
			"max":[
				2.000000476837158,
				3,
				0
			],
			"min":[
				0.9999996423721313,
				0,
				-0.19999998807907104
			],
			"type":"VEC3"
		},
		{
			"bufferView":1,
			"componentType":5126,
			"count":24,
			"type":"VEC3"
		},
		{
			"bufferView":2,
			"componentType":5126,
			"count":24,
			"type":"VEC2"
		},
		{
			"bufferView":3,
			"componentType":5123,
			"count":36,
			"type":"SCALAR"
		},
		{
			"bufferView":4,
			"componentType":5126,
			"count":24,
			"max":[
				-0.9999996423721313,
				3,
				0
			],
			"min":[
				-2.000000476837158,
				0,
				-0.19999998807907104
			],
			"type":"VEC3"
		},
		{
			"bufferView":5,
			"componentType":5126,
			"count":24,
			"type":"VEC3"
		},
		{
			"bufferView":6,
			"componentType":5126,
			"count":24,
			"type":"VEC2"
		},
		{
			"bufferView":7,
			"componentType":5123,
			"count":36,
			"type":"SCALAR"
		},
		{
			"bufferView":8,
			"componentType":5126,
			"count":24,
			"max":[
				1.0000003576278687,
				3,
				0
			],
			"min":[
				-1.0000003576278687,
				2.200000047683716,
				-0.19999998807907104
			],
			"type":"VEC3"
		},
		{
			"bufferView":9,
			"componentType":5126,
			"count":24,
			"type":"VEC3"
		},
		{
			"bufferView":10,
			"componentType":5126,
			"count":24,
			"type":"VEC2"
		},
		{
			"bufferView":11,
			"componentType":5123,
			"count":36,
			"type":"SCALAR"
		},
		{
			"bufferView":12,
			"componentType":5126,
			"count":40,
			"max":[
				1.3984562158584595,
				3,
				-0.19999998807907104
			],
			"min":[
				-1.3992325067520142,
				2.19679856300354,
				-0.27240464091300964
			],
			"type":"VEC3"
		},
		{
			"bufferView":13,
			"componentType":5126,
			"count":40,
			"type":"VEC3"
		},
		{
			"bufferView":14,
			"componentType":5126,
			"count":40,
			"type":"VEC2"
		},
		{
			"bufferView":15,
			"componentType":5123,
			"count":84,
			"type":"SCALAR"
		},
		{
			"bufferView":16,
			"componentType":5126,
			"count":24,
			"max":[
				-0.9972587823867798,
				2.200000047683716,
				-0.19999998807907104
			],
			"min":[
				-1.3992325067520142,
				-0.0016006827354431152,
				-0.23357634246349335
			],
			"type":"VEC3"
		},
		{
			"bufferView":17,
			"componentType":5126,
			"count":24,
			"type":"VEC3"
		},
		{
			"bufferView":18,
			"componentType":5126,
			"count":24,
			"type":"VEC2"
		},
		{
			"bufferView":19,
			"componentType":5123,
			"count":36,
			"type":"SCALAR"
		},
		{
			"bufferView":20,
			"componentType":5126,
			"count":24,
			"max":[
				1.3984562158584595,
				2.200000047683716,
				-0.19999998807907104
			],
			"min":[
				0.9964824914932251,
				-0.0016006827354431152,
				-0.23357634246349335
			],
			"type":"VEC3"
		},
		{
			"bufferView":21,
			"componentType":5126,
			"count":24,
			"type":"VEC3"
		},
		{
			"bufferView":22,
			"componentType":5126,
			"count":24,
			"type":"VEC2"
		},
		{
			"bufferView":23,
			"componentType":5123,
			"count":36,
			"type":"SCALAR"
		},
		{
			"bufferView":24,
			"componentType":5126,
			"count":78,
			"max":[
				2,
				3,
				1.3113415775478643e-07
			],
			"min":[
				-2,
				0.4176529049873352,
				-0.1092764288187027
			],
			"type":"VEC3"
		},
		{
			"bufferView":25,
			"componentType":5126,
			"count":78,
			"type":"VEC3"
		},
		{
			"bufferView":26,
			"componentType":5126,
			"count":78,
			"type":"VEC2"
		},
		{
			"bufferView":27,
			"componentType":5126,
			"count":78,
			"type":"VEC2"
		},
		{
			"bufferView":28,
			"componentType":5123,
			"count":78,
			"normalized":true,
			"type":"VEC4"
		},
		{
			"bufferView":29,
			"componentType":5123,
			"count":180,
			"type":"SCALAR"
		},
		{
			"bufferView":30,
			"componentType":5126,
			"count":8,
			"max":[
				2,
				3.000000476837158,
				-0.2000000923871994
			],
			"min":[
				-2,
				0,
				-0.2000000923871994
			],
			"type":"VEC3"
		},
		{
			"bufferView":31,
			"componentType":5126,
			"count":8,
			"type":"VEC3"
		},
		{
			"bufferView":32,
			"componentType":5126,
			"count":8,
			"type":"VEC2"
		},
		{
			"bufferView":33,
			"componentType":5126,
			"count":8,
			"type":"VEC2"
		},
		{
			"bufferView":34,
			"componentType":5123,
			"count":8,
			"normalized":true,
			"type":"VEC4"
		},
		{
			"bufferView":35,
			"componentType":5123,
			"count":12,
			"type":"SCALAR"
		},
		{
			"bufferView":36,
			"componentType":5126,
			"count":24,
			"max":[
				2,
				0.41767141222953796,
				1.825699769142375e-08
			],
			"min":[
				-2,
				0,
				-0.10000007599592209
			],
			"type":"VEC3"
		},
		{
			"bufferView":37,
			"componentType":5126,
			"count":24,
			"type":"VEC3"
		},
		{
			"bufferView":38,
			"componentType":5126,
			"count":24,
			"type":"VEC2"
		},
		{
			"bufferView":39,
			"componentType":5126,
			"count":24,
			"type":"VEC2"
		},
		{
			"bufferView":40,
			"componentType":5123,
			"count":24,
			"normalized":true,
			"type":"VEC4"
		},
		{
			"bufferView":41,
			"componentType":5123,
			"count":36,
			"type":"SCALAR"
		},
		{
			"bufferView":42,
			"componentType":5126,
			"count":344,
			"max":[
				1.6203231811523438,
				3,
				-0.03517318516969681
			],
			"min":[
				-1.649903655052185,
				0,
				-0.26993510127067566
			],
			"type":"VEC3"
		},
		{
			"bufferView":43,
			"componentType":5126,
			"count":344,
			"type":"VEC3"
		},
		{
			"bufferView":44,
			"componentType":5126,
			"count":344,
			"type":"VEC2"
		},
		{
			"bufferView":45,
			"componentType":5126,
			"count":344,
			"type":"VEC2"
		},
		{
			"bufferView":46,
			"componentType":5123,
			"count":344,
			"normalized":true,
			"type":"VEC4"
		},
		{
			"bufferView":47,
			"componentType":5123,
			"count":708,
			"type":"SCALAR"
		},
		{
			"bufferView":48,
			"componentType":5126,
			"count":16,
			"max":[
				1.3472819328308105,
				2.746163845062256,
				-0.15182171761989594
			],
			"min":[
				-1.3472819328308105,
				0.0555415153503418,
				-0.15182171761989594
			],
			"type":"VEC3"
		},
		{
			"bufferView":49,
			"componentType":5126,
			"count":16,
			"type":"VEC3"
		},
		{
			"bufferView":50,
			"componentType":5126,
			"count":16,
			"type":"VEC2"
		},
		{
			"bufferView":51,
			"componentType":5126,
			"count":16,
			"type":"VEC2"
		},
		{
			"bufferView":52,
			"componentType":5123,
			"count":16,
			"normalized":true,
			"type":"VEC4"
		},
		{
			"bufferView":53,
			"componentType":5123,
			"count":30,
			"type":"SCALAR"
		}
	],
	"bufferViews":[
		{
			"buffer":0,
			"byteLength":288,
			"byteOffset":0,
			"target":34962
		},
		{
			"buffer":0,
			"byteLength":288,
			"byteOffset":288,
			"target":34962
		},
		{
			"buffer":0,
			"byteLength":192,
			"byteOffset":576,
			"target":34962
		},
		{
			"buffer":0,
			"byteLength":72,
			"byteOffset":768,
			"target":34963
		},
		{
			"buffer":0,
			"byteLength":288,
			"byteOffset":840,
			"target":34962
		},
		{
			"buffer":0,
			"byteLength":288,
			"byteOffset":1128,
			"target":34962
		},
		{
			"buffer":0,
			"byteLength":192,
			"byteOffset":1416,
			"target":34962
		},
		{
			"buffer":0,
			"byteLength":72,
			"byteOffset":1608,
			"target":34963
		},
		{
			"buffer":0,
			"byteLength":288,
			"byteOffset":1680,
			"target":34962
		},
		{
			"buffer":0,
			"byteLength":288,
			"byteOffset":1968,
			"target":34962
		},
		{
			"buffer":0,
			"byteLength":192,
			"byteOffset":2256,
			"target":34962
		},
		{
			"buffer":0,
			"byteLength":72,
			"byteOffset":2448,
			"target":34963
		},
		{
			"buffer":0,
			"byteLength":480,
			"byteOffset":2520,
			"target":34962
		},
		{
			"buffer":0,
			"byteLength":480,
			"byteOffset":3000,
			"target":34962
		},
		{
			"buffer":0,
			"byteLength":320,
			"byteOffset":3480,
			"target":34962
		},
		{
			"buffer":0,
			"byteLength":168,
			"byteOffset":3800,
			"target":34963
		},
		{
			"buffer":0,
			"byteLength":288,
			"byteOffset":3968,
			"target":34962
		},
		{
			"buffer":0,
			"byteLength":288,
			"byteOffset":4256,
			"target":34962
		},
		{
			"buffer":0,
			"byteLength":192,
			"byteOffset":4544,
			"target":34962
		},
		{
			"buffer":0,
			"byteLength":72,
			"byteOffset":4736,
			"target":34963
		},
		{
			"buffer":0,
			"byteLength":288,
			"byteOffset":4808,
			"target":34962
		},
		{
			"buffer":0,
			"byteLength":288,
			"byteOffset":5096,
			"target":34962
		},
		{
			"buffer":0,
			"byteLength":192,
			"byteOffset":5384,
			"target":34962
		},
		{
			"buffer":0,
			"byteLength":72,
			"byteOffset":5576,
			"target":34963
		},
		{
			"buffer":0,
			"byteLength":936,
			"byteOffset":5648,
			"target":34962
		},
		{
			"buffer":0,
			"byteLength":936,
			"byteOffset":6584,
			"target":34962
		},
		{
			"buffer":0,
			"byteLength":624,
			"byteOffset":7520,
			"target":34962
		},
		{
			"buffer":0,
			"byteLength":624,
			"byteOffset":8144,
			"target":34962
		},
		{
			"buffer":0,
			"byteLength":624,
			"byteOffset":8768,
			"target":34962
		},
		{
			"buffer":0,
			"byteLength":360,
			"byteOffset":9392,
			"target":34963
		},
		{
			"buffer":0,
			"byteLength":96,
			"byteOffset":9752,
			"target":34962
		},
		{
			"buffer":0,
			"byteLength":96,
			"byteOffset":9848,
			"target":34962
		},
		{
			"buffer":0,
			"byteLength":64,
			"byteOffset":9944,
			"target":34962
		},
		{
			"buffer":0,
			"byteLength":64,
			"byteOffset":10008,
			"target":34962
		},
		{
			"buffer":0,
			"byteLength":64,
			"byteOffset":10072,
			"target":34962
		},
		{
			"buffer":0,
			"byteLength":24,
			"byteOffset":10136,
			"target":34963
		},
		{
			"buffer":0,
			"byteLength":288,
			"byteOffset":10160,
			"target":34962
		},
		{
			"buffer":0,
			"byteLength":288,
			"byteOffset":10448,
			"target":34962
		},
		{
			"buffer":0,
			"byteLength":192,
			"byteOffset":10736,
			"target":34962
		},
		{
			"buffer":0,
			"byteLength":192,
			"byteOffset":10928,
			"target":34962
		},
		{
			"buffer":0,
			"byteLength":192,
			"byteOffset":11120,
			"target":34962
		},
		{
			"buffer":0,
			"byteLength":72,
			"byteOffset":11312,
			"target":34963
		},
		{
			"buffer":0,
			"byteLength":4128,
			"byteOffset":11384,
			"target":34962
		},
		{
			"buffer":0,
			"byteLength":4128,
			"byteOffset":15512,
			"target":34962
		},
		{
			"buffer":0,
			"byteLength":2752,
			"byteOffset":19640,
			"target":34962
		},
		{
			"buffer":0,
			"byteLength":2752,
			"byteOffset":22392,
			"target":34962
		},
		{
			"buffer":0,
			"byteLength":2752,
			"byteOffset":25144,
			"target":34962
		},
		{
			"buffer":0,
			"byteLength":1416,
			"byteOffset":27896,
			"target":34963
		},
		{
			"buffer":0,
			"byteLength":192,
			"byteOffset":29312,
			"target":34962
		},
		{
			"buffer":0,
			"byteLength":192,
			"byteOffset":29504,
			"target":34962
		},
		{
			"buffer":0,
			"byteLength":128,
			"byteOffset":29696,
			"target":34962
		},
		{
			"buffer":0,
			"byteLength":128,
			"byteOffset":29824,
			"target":34962
		},
		{
			"buffer":0,
			"byteLength":128,
			"byteOffset":29952,
			"target":34962
		},
		{
			"buffer":0,
			"byteLength":60,
			"byteOffset":30080,
			"target":34963
		}
	],
	"samplers":[
		{
			"magFilter":9729,
			"minFilter":9987
		}
	],
	"buffers":[
		{
			"byteLength":30140,
			"uri":"DoorFrame_WornBrick.bin"
		}
	]
}
