{
	"asset":{
		"generator":"Khronos glTF Blender I/O v4.3.47",
		"version":"2.0"
	},
	"scene":0,
	"scenes":[
		{
			"name":"Scene",
			"nodes":[
				6
			]
		}
	],
	"nodes":[
		{
			"mesh":0,
			"name":"DoorFrame_WhiteBrick_1-convcolonly"
		},
		{
			"mesh":1,
			"name":"DoorFrame_WhiteBrick_2-convcolonly"
		},
		{
			"mesh":2,
			"name":"DoorFrame_WhiteBrick_3-convcolonly"
		},
		{
			"mesh":3,
			"name":"DoorFrame_WhiteBrick_4-convcolonly"
		},
		{
			"mesh":4,
			"name":"DoorFrame_WhiteBrick_5-convcolonly"
		},
		{
			"mesh":5,
			"name":"DoorFrame_WhiteBrick_6-convcolonly"
		},
		{
			"children":[
				0,
				1,
				2,
				3,
				4,
				5
			],
			"mesh":6,
			"name":"DoorFrame_WhiteBrick"
		}
	],
	"materials":[
		{
			"doubleSided":true,
			"name":"Collision",
			"pbrMetallicRoughness":{
				"baseColorFactor":[
					0.036788325756788254,
					0.5504099726676941,
					0.8000074625015259,
					1
				],
				"metallicFactor":0
			}
		},
		{
			"doubleSided":true,
			"name":"MI_Trim_MetalConcrete",
			"normalTexture":{
				"index":0
			},
			"pbrMetallicRoughness":{
				"baseColorTexture":{
					"index":1
				},
				"metallicRoughnessTexture":{
					"index":2
				}
			}
		},
		{
			"alphaMode":"BLEND",
			"doubleSided":true,
			"name":"MI_Glass",
			"pbrMetallicRoughness":{
				"baseColorFactor":[
					0.05215025693178177,
					0.05215025693178177,
					0.05215025693178177,
					0.586363673210144
				],
				"metallicFactor":0,
				"roughnessFactor":0.5
			}
		},
		{
			"doubleSided":true,
			"name":"MI_WhiteBrick",
			"normalTexture":{
				"index":3
			},
			"pbrMetallicRoughness":{
				"baseColorTexture":{
					"index":4
				},
				"metallicRoughnessTexture":{
					"index":5
				}
			}
		},
		{
			"doubleSided":true,
			"name":"MI_InteriorWall",
			"normalTexture":{
				"index":6
			},
			"pbrMetallicRoughness":{
				"baseColorTexture":{
					"index":7
				},
				"metallicRoughnessTexture":{
					"index":8
				}
			}
		}
	],
	"meshes":[
		{
			"name":"Cube.425",
			"primitives":[
				{
					"attributes":{
						"POSITION":0,
						"NORMAL":1,
						"TEXCOORD_0":2
					},
					"indices":3,
					"material":0
				}
			]
		},
		{
			"name":"Cube.427",
			"primitives":[
				{
					"attributes":{
						"POSITION":4,
						"NORMAL":5,
						"TEXCOORD_0":6
					},
					"indices":7,
					"material":0
				}
			]
		},
		{
			"name":"Cube.428",
			"primitives":[
				{
					"attributes":{
						"POSITION":8,
						"NORMAL":9,
						"TEXCOORD_0":10
					},
					"indices":11,
					"material":0
				}
			]
		},
		{
			"name":"Cube.429",
			"primitives":[
				{
					"attributes":{
						"POSITION":12,
						"NORMAL":13,
						"TEXCOORD_0":14
					},
					"indices":15,
					"material":0
				}
			]
		},
		{
			"name":"Cube.430",
			"primitives":[
				{
					"attributes":{
						"POSITION":16,
						"NORMAL":17,
						"TEXCOORD_0":18
					},
					"indices":19,
					"material":0
				}
			]
		},
		{
			"name":"Cube.431",
			"primitives":[
				{
					"attributes":{
						"POSITION":20,
						"NORMAL":21,
						"TEXCOORD_0":22
					},
					"indices":7,
					"material":0
				}
			]
		},
		{
			"name":"Cube.209",
			"primitives":[
				{
					"attributes":{
						"POSITION":23,
						"NORMAL":24,
						"TEXCOORD_0":25,
						"TEXCOORD_1":26,
						"COLOR_0":27,
						"COLOR_1":28
					},
					"indices":29,
					"material":1
				},
				{
					"attributes":{
						"POSITION":30,
						"NORMAL":31,
						"TEXCOORD_0":32,
						"TEXCOORD_1":33,
						"COLOR_0":34,
						"COLOR_1":35
					},
					"indices":36,
					"material":2
				},
				{
					"attributes":{
						"POSITION":37,
						"NORMAL":38,
						"TEXCOORD_0":39,
						"TEXCOORD_1":40,
						"COLOR_0":41,
						"COLOR_1":42
					},
					"indices":43,
					"material":3
				},
				{
					"attributes":{
						"POSITION":44,
						"NORMAL":45,
						"TEXCOORD_0":46,
						"TEXCOORD_1":47,
						"COLOR_0":48,
						"COLOR_1":49
					},
					"indices":50,
					"material":4
				}
			]
		}
	],
	"textures":[
		{
			"sampler":0,
			"source":0
		},
		{
			"sampler":0,
			"source":1
		},
		{
			"sampler":0,
			"source":2
		},
		{
			"sampler":0,
			"source":3
		},
		{
			"sampler":0,
			"source":4
		},
		{
			"sampler":0,
			"source":5
		},
		{
			"sampler":0,
			"source":6
		},
		{
			"sampler":0,
			"source":7
		},
		{
			"sampler":0,
			"source":8
		}
	],
	"images":[
		{
			"mimeType":"image/png",
			"name":"T_MetalConcrete_Normal",
			"uri":"../../materials/T_MetalConcrete_Normal.png"
		},
		{
			"mimeType":"image/png",
			"name":"T_MetalConcrete_BaseColor",
			"uri":"../../materials/T_MetalConcrete_BaseColor.png"
		},
		{
			"mimeType":"image/png",
			"name":"T_MetalConcrete_ORM",
			"uri":"../../materials/T_MetalConcrete_ORM.png"
		},
		{
			"mimeType":"image/png",
			"name":"T_WhiteBrick_Normal",
			"uri":"../../materials/T_WhiteBrick_Normal.png"
		},
		{
			"mimeType":"image/png",
			"name":"T_WhiteBrick_BaseColor",
			"uri":"../../materials/T_WhiteBrick_BaseColor.png"
		},
		{
			"mimeType":"image/png",
			"name":"T_WhiteBrick_ORM",
			"uri":"../../materials/T_WhiteBrick_ORM.png"
		},
		{
			"mimeType":"image/png",
			"name":"T_RedBrick_Normal",
			"uri":"../../materials/T_RedBrick_Normal.png"
		},
		{
			"mimeType":"image/png",
			"name":"T_RedBrick_BaseColor",
			"uri":"../../materials/T_RedBrick_BaseColor.png"
		},
		{
			"mimeType":"image/png",
			"name":"T_RedBrick_ORM",
			"uri":"../../materials/T_RedBrick_ORM.png"
		}
	],
	"accessors":[
		{
			"bufferView":0,
			"componentType":5126,
			"count":32,
			"max":[
				0.5278639793395996,
				4,
				0
			],
			"min":[
				-0.5385445356369019,
				2.200000047683716,
				-0.19999998807907104
			],
			"type":"VEC3"
		},
		{
			"bufferView":1,
			"componentType":5126,
			"count":32,
			"type":"VEC3"
		},
		{
			"bufferView":2,
			"componentType":5126,
			"count":32,
			"type":"VEC2"
		},
		{
			"bufferView":3,
			"componentType":5123,
			"count":60,
			"type":"SCALAR"
		},
		{
			"bufferView":4,
			"componentType":5126,
			"count":24,
			"max":[
				0.8910676836967468,
				2.5058753490448,
				-0.19999998807907104
			],
			"min":[
				-0.9017489552497864,
				2.435991048812866,
				-0.2476138323545456
			],
			"type":"VEC3"
		},
		{
			"bufferView":5,
			"componentType":5126,
			"count":24,
			"type":"VEC3"
		},
		{
			"bufferView":6,
			"componentType":5126,
			"count":24,
			"type":"VEC2"
		},
		{
			"bufferView":7,
			"componentType":5123,
			"count":36,
			"type":"SCALAR"
		},
		{
			"bufferView":8,
			"componentType":5126,
			"count":32,
			"max":[
				-0.49999964237213135,
				4,
				0
			],
			"min":[
				-1.0000003576278687,
				0,
				-0.19999998807907104
			],
			"type":"VEC3"
		},
		{
			"bufferView":9,
			"componentType":5126,
			"count":32,
			"type":"VEC3"
		},
		{
			"bufferView":10,
			"componentType":5126,
			"count":32,
			"type":"VEC2"
		},
		{
			"bufferView":11,
			"componentType":5123,
			"count":60,
			"type":"SCALAR"
		},
		{
			"bufferView":12,
			"componentType":5126,
			"count":24,
			"max":[
				-0.9024298787117004,
				2.5058753490448,
				-0.19999998807907104
			],
			"min":[
				-1.0000003576278687,
				0,
				-0.2476138323545456
			],
			"type":"VEC3"
		},
		{
			"bufferView":13,
			"componentType":5126,
			"count":24,
			"type":"VEC3"
		},
		{
			"bufferView":14,
			"componentType":5126,
			"count":24,
			"type":"VEC2"
		},
		{
			"bufferView":15,
			"componentType":5123,
			"count":36,
			"type":"SCALAR"
		},
		{
			"bufferView":16,
			"componentType":5126,
			"count":32,
			"max":[
				1.0000003576278687,
				4,
				0
			],
			"min":[
				0.49999964237213135,
				0,
				-0.19999998807907104
			],
			"type":"VEC3"
		},
		{
			"bufferView":17,
			"componentType":5126,
			"count":32,
			"type":"VEC3"
		},
		{
			"bufferView":18,
			"componentType":5126,
			"count":32,
			"type":"VEC2"
		},
		{
			"bufferView":19,
			"componentType":5123,
			"count":60,
			"type":"SCALAR"
		},
		{
			"bufferView":20,
			"componentType":5126,
			"count":24,
			"max":[
				1.0000003576278687,
				2.5058753490448,
				-0.19999998807907104
			],
			"min":[
				0.9024298787117004,
				0,
				-0.2476138323545456
			],
			"type":"VEC3"
		},
		{
			"bufferView":21,
			"componentType":5126,
			"count":24,
			"type":"VEC3"
		},
		{
			"bufferView":22,
			"componentType":5126,
			"count":24,
			"type":"VEC2"
		},
		{
			"bufferView":23,
			"componentType":5126,
			"count":458,
			"max":[
				1,
				3.249999761581421,
				-0.0499999076128006
			],
			"min":[
				-1,
				0,
				-0.24438214302062988
			],
			"type":"VEC3"
		},
		{
			"bufferView":24,
			"componentType":5126,
			"count":458,
			"type":"VEC3"
		},
		{
			"bufferView":25,
			"componentType":5126,
			"count":458,
			"type":"VEC2"
		},
		{
			"bufferView":26,
			"componentType":5126,
			"count":458,
			"type":"VEC2"
		},
		{
			"bufferView":27,
			"componentType":5121,
			"count":458,
			"normalized":true,
			"type":"VEC4"
		},
		{
			"bufferView":28,
			"componentType":5123,
			"count":458,
			"normalized":true,
			"type":"VEC4"
		},
		{
			"bufferView":29,
			"componentType":5123,
			"count":882,
			"type":"SCALAR"
		},
		{
			"bufferView":30,
			"componentType":5126,
			"count":13,
			"max":[
				0.9122143983840942,
				2.447681427001953,
				-0.13533177971839905
			],
			"min":[
				-0.9122143983840942,
				0.05869913101196289,
				-0.13533177971839905
			],
			"type":"VEC3"
		},
		{
			"bufferView":31,
			"componentType":5126,
			"count":13,
			"type":"VEC3"
		},
		{
			"bufferView":32,
			"componentType":5126,
			"count":13,
			"type":"VEC2"
		},
		{
			"bufferView":33,
			"componentType":5126,
			"count":13,
			"type":"VEC2"
		},
		{
			"bufferView":34,
			"componentType":5121,
			"count":13,
			"normalized":true,
			"type":"VEC4"
		},
		{
			"bufferView":35,
			"componentType":5123,
			"count":13,
			"normalized":true,
			"type":"VEC4"
		},
		{
			"bufferView":36,
			"componentType":5123,
			"count":21,
			"type":"SCALAR"
		},
		{
			"bufferView":37,
			"componentType":5126,
			"count":8,
			"max":[
				1.0021580457687378,
				4,
				1.3113415775478643e-07
			],
			"min":[
				-1,
				3.246425151824951,
				-0.08153998851776123
			],
			"type":"VEC3"
		},
		{
			"bufferView":38,
			"componentType":5126,
			"count":8,
			"type":"VEC3"
		},
		{
			"bufferView":39,
			"componentType":5126,
			"count":8,
			"type":"VEC2"
		},
		{
			"bufferView":40,
			"componentType":5126,
			"count":8,
			"type":"VEC2"
		},
		{
			"bufferView":41,
			"componentType":5121,
			"count":8,
			"normalized":true,
			"type":"VEC4"
		},
		{
			"bufferView":42,
			"componentType":5123,
			"count":8,
			"normalized":true,
			"type":"VEC4"
		},
		{
			"bufferView":43,
			"componentType":5123,
			"count":12,
			"type":"SCALAR"
		},
		{
			"bufferView":44,
			"componentType":5126,
			"count":4,
			"max":[
				1,
				4.000000476837158,
				-0.2000000923871994
			],
			"min":[
				-1,
				2.457792282104492,
				-0.2000000923871994
			],
			"type":"VEC3"
		},
		{
			"bufferView":45,
			"componentType":5126,
			"count":4,
			"type":"VEC3"
		},
		{
			"bufferView":46,
			"componentType":5126,
			"count":4,
			"type":"VEC2"
		},
		{
			"bufferView":47,
			"componentType":5126,
			"count":4,
			"type":"VEC2"
		},
		{
			"bufferView":48,
			"componentType":5121,
			"count":4,
			"normalized":true,
			"type":"VEC4"
		},
		{
			"bufferView":49,
			"componentType":5123,
			"count":4,
			"normalized":true,
			"type":"VEC4"
		},
		{
			"bufferView":50,
			"componentType":5123,
			"count":6,
			"type":"SCALAR"
		}
	],
	"bufferViews":[
		{
			"buffer":0,
			"byteLength":384,
			"byteOffset":0,
			"target":34962
		},
		{
			"buffer":0,
			"byteLength":384,
			"byteOffset":384,
			"target":34962
		},
		{
			"buffer":0,
			"byteLength":256,
			"byteOffset":768,
			"target":34962
		},
		{
			"buffer":0,
			"byteLength":120,
			"byteOffset":1024,
			"target":34963
		},
		{
			"buffer":0,
			"byteLength":288,
			"byteOffset":1144,
			"target":34962
		},
		{
			"buffer":0,
			"byteLength":288,
			"byteOffset":1432,
			"target":34962
		},
		{
			"buffer":0,
			"byteLength":192,
			"byteOffset":1720,
			"target":34962
		},
		{
			"buffer":0,
			"byteLength":72,
			"byteOffset":1912,
			"target":34963
		},
		{
			"buffer":0,
			"byteLength":384,
			"byteOffset":1984,
			"target":34962
		},
		{
			"buffer":0,
			"byteLength":384,
			"byteOffset":2368,
			"target":34962
		},
		{
			"buffer":0,
			"byteLength":256,
			"byteOffset":2752,
			"target":34962
		},
		{
			"buffer":0,
			"byteLength":120,
			"byteOffset":3008,
			"target":34963
		},
		{
			"buffer":0,
			"byteLength":288,
			"byteOffset":3128,
			"target":34962
		},
		{
			"buffer":0,
			"byteLength":288,
			"byteOffset":3416,
			"target":34962
		},
		{
			"buffer":0,
			"byteLength":192,
			"byteOffset":3704,
			"target":34962
		},
		{
			"buffer":0,
			"byteLength":72,
			"byteOffset":3896,
			"target":34963
		},
		{
			"buffer":0,
			"byteLength":384,
			"byteOffset":3968,
			"target":34962
		},
		{
			"buffer":0,
			"byteLength":384,
			"byteOffset":4352,
			"target":34962
		},
		{
			"buffer":0,
			"byteLength":256,
			"byteOffset":4736,
			"target":34962
		},
		{
			"buffer":0,
			"byteLength":120,
			"byteOffset":4992,
			"target":34963
		},
		{
			"buffer":0,
			"byteLength":288,
			"byteOffset":5112,
			"target":34962
		},
		{
			"buffer":0,
			"byteLength":288,
			"byteOffset":5400,
			"target":34962
		},
		{
			"buffer":0,
			"byteLength":192,
			"byteOffset":5688,
			"target":34962
		},
		{
			"buffer":0,
			"byteLength":5496,
			"byteOffset":5880,
			"target":34962
		},
		{
			"buffer":0,
			"byteLength":5496,
			"byteOffset":11376,
			"target":34962
		},
		{
			"buffer":0,
			"byteLength":3664,
			"byteOffset":16872,
			"target":34962
		},
		{
			"buffer":0,
			"byteLength":3664,
			"byteOffset":20536,
			"target":34962
		},
		{
			"buffer":0,
			"byteLength":1832,
			"byteOffset":24200,
			"target":34962
		},
		{
			"buffer":0,
			"byteLength":3664,
			"byteOffset":26032,
			"target":34962
		},
		{
			"buffer":0,
			"byteLength":1764,
			"byteOffset":29696,
			"target":34963
		},
		{
			"buffer":0,
			"byteLength":156,
			"byteOffset":31460,
			"target":34962
		},
		{
			"buffer":0,
			"byteLength":156,
			"byteOffset":31616,
			"target":34962
		},
		{
			"buffer":0,
			"byteLength":104,
			"byteOffset":31772,
			"target":34962
		},
		{
			"buffer":0,
			"byteLength":104,
			"byteOffset":31876,
			"target":34962
		},
		{
			"buffer":0,
			"byteLength":52,
			"byteOffset":31980,
			"target":34962
		},
		{
			"buffer":0,
			"byteLength":104,
			"byteOffset":32032,
			"target":34962
		},
		{
			"buffer":0,
			"byteLength":42,
			"byteOffset":32136,
			"target":34963
		},
		{
			"buffer":0,
			"byteLength":96,
			"byteOffset":32180,
			"target":34962
		},
		{
			"buffer":0,
			"byteLength":96,
			"byteOffset":32276,
			"target":34962
		},
		{
			"buffer":0,
			"byteLength":64,
			"byteOffset":32372,
			"target":34962
		},
		{
			"buffer":0,
			"byteLength":64,
			"byteOffset":32436,
			"target":34962
		},
		{
			"buffer":0,
			"byteLength":32,
			"byteOffset":32500,
			"target":34962
		},
		{
			"buffer":0,
			"byteLength":64,
			"byteOffset":32532,
			"target":34962
		},
		{
			"buffer":0,
			"byteLength":24,
			"byteOffset":32596,
			"target":34963
		},
		{
			"buffer":0,
			"byteLength":48,
			"byteOffset":32620,
			"target":34962
		},
		{
			"buffer":0,
			"byteLength":48,
			"byteOffset":32668,
			"target":34962
		},
		{
			"buffer":0,
			"byteLength":32,
			"byteOffset":32716,
			"target":34962
		},
		{
			"buffer":0,
			"byteLength":32,
			"byteOffset":32748,
			"target":34962
		},
		{
			"buffer":0,
			"byteLength":16,
			"byteOffset":32780,
			"target":34962
		},
		{
			"buffer":0,
			"byteLength":32,
			"byteOffset":32796,
			"target":34962
		},
		{
			"buffer":0,
			"byteLength":12,
			"byteOffset":32828,
			"target":34963
		}
	],
	"samplers":[
		{
			"magFilter":9729,
			"minFilter":9987
		}
	],
	"buffers":[
		{
			"byteLength":32840,
			"uri":"DoorFrame_WhiteBrick.bin"
		}
	]
}
