{
	"asset":{
		"generator":"Khronos glTF Blender I/O v4.3.47",
		"version":"2.0"
	},
	"scene":0,
	"scenes":[
		{
			"name":"Scene",
			"nodes":[
				5
			]
		}
	],
	"nodes":[
		{
			"mesh":0,
			"name":"DoorFrame_MetalBrick_1-convcolonly"
		},
		{
			"mesh":1,
			"name":"DoorFrame_MetalBrick_2-convcolonly"
		},
		{
			"mesh":2,
			"name":"DoorFrame_MetalBrick_3-convcolonly"
		},
		{
			"mesh":3,
			"name":"DoorFrame_MetalBrick_4-convcolonly"
		},
		{
			"mesh":4,
			"name":"DoorFrame_MetalBrick_5-convcolonly"
		},
		{
			"children":[
				0,
				1,
				2,
				3,
				4
			],
			"mesh":5,
			"name":"DoorFrame_MetalBrick"
		}
	],
	"materials":[
		{
			"doubleSided":true,
			"name":"Collision",
			"pbrMetallicRoughness":{
				"baseColorFactor":[
					0.036788325756788254,
					0.5504099726676941,
					0.8000074625015259,
					1
				],
				"metallicFactor":0
			}
		},
		{
			"doubleSided":true,
			"name":"MI_RedBrick",
			"normalTexture":{
				"index":0
			},
			"pbrMetallicRoughness":{
				"baseColorTexture":{
					"index":1
				},
				"metallicRoughnessTexture":{
					"index":2
				}
			}
		},
		{
			"doubleSided":true,
			"name":"MI_Trim_MetalConcrete",
			"normalTexture":{
				"index":3
			},
			"pbrMetallicRoughness":{
				"baseColorTexture":{
					"index":4
				},
				"metallicRoughnessTexture":{
					"index":5
				}
			}
		},
		{
			"doubleSided":true,
			"name":"MI_InteriorWall",
			"normalTexture":{
				"index":6
			},
			"pbrMetallicRoughness":{
				"baseColorTexture":{
					"index":7
				},
				"metallicRoughnessTexture":{
					"index":8
				}
			}
		}
	],
	"meshes":[
		{
			"name":"Cube.434",
			"primitives":[
				{
					"attributes":{
						"POSITION":0,
						"NORMAL":1,
						"TEXCOORD_0":2
					},
					"indices":3,
					"material":0
				}
			]
		},
		{
			"name":"Cube.426",
			"primitives":[
				{
					"attributes":{
						"POSITION":4,
						"NORMAL":5,
						"TEXCOORD_0":6
					},
					"indices":7,
					"material":0
				}
			]
		},
		{
			"name":"Cube.432",
			"primitives":[
				{
					"attributes":{
						"POSITION":8,
						"NORMAL":9,
						"TEXCOORD_0":10
					},
					"indices":11,
					"material":0
				}
			]
		},
		{
			"name":"Cube.435",
			"primitives":[
				{
					"attributes":{
						"POSITION":12,
						"NORMAL":13,
						"TEXCOORD_0":14
					},
					"indices":15,
					"material":0
				}
			]
		},
		{
			"name":"Cube.437",
			"primitives":[
				{
					"attributes":{
						"POSITION":16,
						"NORMAL":17,
						"TEXCOORD_0":18
					},
					"indices":15,
					"material":0
				}
			]
		},
		{
			"name":"Cube.062",
			"primitives":[
				{
					"attributes":{
						"POSITION":19,
						"NORMAL":20,
						"TEXCOORD_0":21,
						"TEXCOORD_1":22,
						"COLOR_0":23,
						"COLOR_1":24
					},
					"indices":25,
					"material":1
				},
				{
					"attributes":{
						"POSITION":26,
						"NORMAL":27,
						"TEXCOORD_0":28,
						"TEXCOORD_1":29,
						"COLOR_0":30,
						"COLOR_1":31
					},
					"indices":32,
					"material":2
				},
				{
					"attributes":{
						"POSITION":33,
						"NORMAL":34,
						"TEXCOORD_0":35,
						"TEXCOORD_1":36,
						"COLOR_0":37,
						"COLOR_1":38
					},
					"indices":39,
					"material":3
				}
			]
		}
	],
	"textures":[
		{
			"sampler":0,
			"source":0
		},
		{
			"sampler":0,
			"source":1
		},
		{
			"sampler":0,
			"source":2
		},
		{
			"sampler":0,
			"source":3
		},
		{
			"sampler":0,
			"source":4
		},
		{
			"sampler":0,
			"source":5
		},
		{
			"sampler":0,
			"source":0
		},
		{
			"sampler":0,
			"source":1
		},
		{
			"sampler":0,
			"source":2
		}
	],
	"images":[
		{
			"mimeType":"image/png",
			"name":"T_RedBrick_Normal",
			"uri":"../../materials/T_RedBrick_Normal.png"
		},
		{
			"mimeType":"image/png",
			"name":"T_RedBrick_BaseColor",
			"uri":"../../materials/T_RedBrick_BaseColor.png"
		},
		{
			"mimeType":"image/png",
			"name":"T_RedBrick_ORM",
			"uri":"../../materials/T_RedBrick_ORM.png"
		},
		{
			"mimeType":"image/png",
			"name":"T_MetalConcrete_Normal",
			"uri":"../../materials/T_MetalConcrete_Normal.png"
		},
		{
			"mimeType":"image/png",
			"name":"T_MetalConcrete_BaseColor",
			"uri":"../../materials/T_MetalConcrete_BaseColor.png"
		},
		{
			"mimeType":"image/png",
			"name":"T_MetalConcrete_ORM",
			"uri":"../../materials/T_MetalConcrete_ORM.png"
		}
	],
	"accessors":[
		{
			"bufferView":0,
			"componentType":5126,
			"count":24,
			"max":[
				1.0000003576278687,
				3,
				0
			],
			"min":[
				0.6478323340415955,
				0,
				-0.19999998807907104
			],
			"type":"VEC3"
		},
		{
			"bufferView":1,
			"componentType":5126,
			"count":24,
			"type":"VEC3"
		},
		{
			"bufferView":2,
			"componentType":5126,
			"count":24,
			"type":"VEC2"
		},
		{
			"bufferView":3,
			"componentType":5123,
			"count":36,
			"type":"SCALAR"
		},
		{
			"bufferView":4,
			"componentType":5126,
			"count":24,
			"max":[
				-0.6478323340415955,
				3,
				0
			],
			"min":[
				-1.0000003576278687,
				0,
				-0.19999998807907104
			],
			"type":"VEC3"
		},
		{
			"bufferView":5,
			"componentType":5126,
			"count":24,
			"type":"VEC3"
		},
		{
			"bufferView":6,
			"componentType":5126,
			"count":24,
			"type":"VEC2"
		},
		{
			"bufferView":7,
			"componentType":5123,
			"count":36,
			"type":"SCALAR"
		},
		{
			"bufferView":8,
			"componentType":5126,
			"count":24,
			"max":[
				0.6478330492973328,
				3,
				0.053832728415727615
			],
			"min":[
				-0.6478330492973328,
				2.1885833740234375,
				-0.19999998807907104
			],
			"type":"VEC3"
		},
		{
			"bufferView":9,
			"componentType":5126,
			"count":24,
			"type":"VEC3"
		},
		{
			"bufferView":10,
			"componentType":5126,
			"count":24,
			"type":"VEC2"
		},
		{
			"bufferView":11,
			"componentType":5123,
			"count":36,
			"type":"SCALAR"
		},
		{
			"bufferView":12,
			"componentType":5126,
			"count":24,
			"max":[
				-0.4947337210178375,
				3,
				0.12051193416118622
			],
			"min":[
				-0.7941902875900269,
				0,
				-0.24570904672145844
			],
			"type":"VEC3"
		},
		{
			"bufferView":13,
			"componentType":5126,
			"count":24,
			"type":"VEC3"
		},
		{
			"bufferView":14,
			"componentType":5126,
			"count":24,
			"type":"VEC2"
		},
		{
			"bufferView":15,
			"componentType":5123,
			"count":36,
			"type":"SCALAR"
		},
		{
			"bufferView":16,
			"componentType":5126,
			"count":24,
			"max":[
				0.7976775169372559,
				3.042896270751953,
				0.17317283153533936
			],
			"min":[
				0.49822092056274414,
				0.042896151542663574,
				-0.1930481493473053
			],
			"type":"VEC3"
		},
		{
			"bufferView":17,
			"componentType":5126,
			"count":24,
			"type":"VEC3"
		},
		{
			"bufferView":18,
			"componentType":5126,
			"count":24,
			"type":"VEC2"
		},
		{
			"bufferView":19,
			"componentType":5126,
			"count":24,
			"max":[
				1,
				3,
				1.3113415775478643e-07
			],
			"min":[
				-1,
				0,
				0
			],
			"type":"VEC3"
		},
		{
			"bufferView":20,
			"componentType":5126,
			"count":24,
			"type":"VEC3"
		},
		{
			"bufferView":21,
			"componentType":5126,
			"count":24,
			"type":"VEC2"
		},
		{
			"bufferView":22,
			"componentType":5126,
			"count":24,
			"type":"VEC2"
		},
		{
			"bufferView":23,
			"componentType":5121,
			"count":24,
			"normalized":true,
			"type":"VEC4"
		},
		{
			"bufferView":24,
			"componentType":5123,
			"count":24,
			"normalized":true,
			"type":"VEC4"
		},
		{
			"bufferView":25,
			"componentType":5123,
			"count":60,
			"type":"SCALAR"
		},
		{
			"bufferView":26,
			"componentType":5126,
			"count":476,
			"max":[
				0.7849306464195251,
				2.999999523162842,
				0.11108573526144028
			],
			"min":[
				-0.7853541374206543,
				0.004097700119018555,
				-0.2469945102930069
			],
			"type":"VEC3"
		},
		{
			"bufferView":27,
			"componentType":5126,
			"count":476,
			"type":"VEC3"
		},
		{
			"bufferView":28,
			"componentType":5126,
			"count":476,
			"type":"VEC2"
		},
		{
			"bufferView":29,
			"componentType":5126,
			"count":476,
			"type":"VEC2"
		},
		{
			"bufferView":30,
			"componentType":5121,
			"count":476,
			"normalized":true,
			"type":"VEC4"
		},
		{
			"bufferView":31,
			"componentType":5123,
			"count":476,
			"normalized":true,
			"type":"VEC4"
		},
		{
			"bufferView":32,
			"componentType":5123,
			"count":768,
			"type":"SCALAR"
		},
		{
			"bufferView":33,
			"componentType":5126,
			"count":16,
			"max":[
				1,
				3.000000476837158,
				-0.2000000923871994
			],
			"min":[
				-1,
				0,
				-0.2000000923871994
			],
			"type":"VEC3"
		},
		{
			"bufferView":34,
			"componentType":5126,
			"count":16,
			"type":"VEC3"
		},
		{
			"bufferView":35,
			"componentType":5126,
			"count":16,
			"type":"VEC2"
		},
		{
			"bufferView":36,
			"componentType":5126,
			"count":16,
			"type":"VEC2"
		},
		{
			"bufferView":37,
			"componentType":5121,
			"count":16,
			"normalized":true,
			"type":"VEC4"
		},
		{
			"bufferView":38,
			"componentType":5123,
			"count":16,
			"normalized":true,
			"type":"VEC4"
		},
		{
			"bufferView":39,
			"componentType":5123,
			"count":24,
			"type":"SCALAR"
		}
	],
	"bufferViews":[
		{
			"buffer":0,
			"byteLength":288,
			"byteOffset":0,
			"target":34962
		},
		{
			"buffer":0,
			"byteLength":288,
			"byteOffset":288,
			"target":34962
		},
		{
			"buffer":0,
			"byteLength":192,
			"byteOffset":576,
			"target":34962
		},
		{
			"buffer":0,
			"byteLength":72,
			"byteOffset":768,
			"target":34963
		},
		{
			"buffer":0,
			"byteLength":288,
			"byteOffset":840,
			"target":34962
		},
		{
			"buffer":0,
			"byteLength":288,
			"byteOffset":1128,
			"target":34962
		},
		{
			"buffer":0,
			"byteLength":192,
			"byteOffset":1416,
			"target":34962
		},
		{
			"buffer":0,
			"byteLength":72,
			"byteOffset":1608,
			"target":34963
		},
		{
			"buffer":0,
			"byteLength":288,
			"byteOffset":1680,
			"target":34962
		},
		{
			"buffer":0,
			"byteLength":288,
			"byteOffset":1968,
			"target":34962
		},
		{
			"buffer":0,
			"byteLength":192,
			"byteOffset":2256,
			"target":34962
		},
		{
			"buffer":0,
			"byteLength":72,
			"byteOffset":2448,
			"target":34963
		},
		{
			"buffer":0,
			"byteLength":288,
			"byteOffset":2520,
			"target":34962
		},
		{
			"buffer":0,
			"byteLength":288,
			"byteOffset":2808,
			"target":34962
		},
		{
			"buffer":0,
			"byteLength":192,
			"byteOffset":3096,
			"target":34962
		},
		{
			"buffer":0,
			"byteLength":72,
			"byteOffset":3288,
			"target":34963
		},
		{
			"buffer":0,
			"byteLength":288,
			"byteOffset":3360,
			"target":34962
		},
		{
			"buffer":0,
			"byteLength":288,
			"byteOffset":3648,
			"target":34962
		},
		{
			"buffer":0,
			"byteLength":192,
			"byteOffset":3936,
			"target":34962
		},
		{
			"buffer":0,
			"byteLength":288,
			"byteOffset":4128,
			"target":34962
		},
		{
			"buffer":0,
			"byteLength":288,
			"byteOffset":4416,
			"target":34962
		},
		{
			"buffer":0,
			"byteLength":192,
			"byteOffset":4704,
			"target":34962
		},
		{
			"buffer":0,
			"byteLength":192,
			"byteOffset":4896,
			"target":34962
		},
		{
			"buffer":0,
			"byteLength":96,
			"byteOffset":5088,
			"target":34962
		},
		{
			"buffer":0,
			"byteLength":192,
			"byteOffset":5184,
			"target":34962
		},
		{
			"buffer":0,
			"byteLength":120,
			"byteOffset":5376,
			"target":34963
		},
		{
			"buffer":0,
			"byteLength":5712,
			"byteOffset":5496,
			"target":34962
		},
		{
			"buffer":0,
			"byteLength":5712,
			"byteOffset":11208,
			"target":34962
		},
		{
			"buffer":0,
			"byteLength":3808,
			"byteOffset":16920,
			"target":34962
		},
		{
			"buffer":0,
			"byteLength":3808,
			"byteOffset":20728,
			"target":34962
		},
		{
			"buffer":0,
			"byteLength":1904,
			"byteOffset":24536,
			"target":34962
		},
		{
			"buffer":0,
			"byteLength":3808,
			"byteOffset":26440,
			"target":34962
		},
		{
			"buffer":0,
			"byteLength":1536,
			"byteOffset":30248,
			"target":34963
		},
		{
			"buffer":0,
			"byteLength":192,
			"byteOffset":31784,
			"target":34962
		},
		{
			"buffer":0,
			"byteLength":192,
			"byteOffset":31976,
			"target":34962
		},
		{
			"buffer":0,
			"byteLength":128,
			"byteOffset":32168,
			"target":34962
		},
		{
			"buffer":0,
			"byteLength":128,
			"byteOffset":32296,
			"target":34962
		},
		{
			"buffer":0,
			"byteLength":64,
			"byteOffset":32424,
			"target":34962
		},
		{
			"buffer":0,
			"byteLength":128,
			"byteOffset":32488,
			"target":34962
		},
		{
			"buffer":0,
			"byteLength":48,
			"byteOffset":32616,
			"target":34963
		}
	],
	"samplers":[
		{
			"magFilter":9729,
			"minFilter":9987
		}
	],
	"buffers":[
		{
			"byteLength":32664,
			"uri":"DoorFrame_MetalBrick.bin"
		}
	]
}
