{
	"asset":{
		"generator":"Khronos glTF Blender I/O v4.3.47",
		"version":"2.0"
	},
	"scene":0,
	"scenes":[
		{
			"name":"Scene",
			"nodes":[
				6
			]
		}
	],
	"nodes":[
		{
			"mesh":0,
			"name":"DoorFrame_Marble_1-convcolonly"
		},
		{
			"mesh":1,
			"name":"DoorFrame_Marble_2-convcolonly"
		},
		{
			"mesh":2,
			"name":"DoorFrame_Marble_3-convcolonly"
		},
		{
			"mesh":3,
			"name":"DoorFrame_Marble_4-convcolonly"
		},
		{
			"mesh":4,
			"name":"DoorFrame_Marble_5-convcolonly"
		},
		{
			"mesh":5,
			"name":"DoorFrame_Marble_6-convcolonly"
		},
		{
			"children":[
				0,
				1,
				2,
				3,
				4,
				5
			],
			"mesh":6,
			"name":"DoorFrame_Marble"
		}
	],
	"materials":[
		{
			"doubleSided":true,
			"name":"Collision",
			"pbrMetallicRoughness":{
				"baseColorFactor":[
					0.036788325756788254,
					0.5504099726676941,
					0.8000074625015259,
					1
				],
				"metallicFactor":0
			}
		},
		{
			"doubleSided":true,
			"name":"MI_Trim",
			"normalTexture":{
				"index":0
			},
			"pbrMetallicRoughness":{
				"baseColorTexture":{
					"index":1
				},
				"metallicRoughnessTexture":{
					"index":2
				}
			}
		},
		{
			"doubleSided":true,
			"name":"MI_Trim_MetalConcrete",
			"normalTexture":{
				"index":3
			},
			"pbrMetallicRoughness":{
				"baseColorTexture":{
					"index":4
				},
				"metallicRoughnessTexture":{
					"index":5
				}
			}
		},
		{
			"alphaMode":"BLEND",
			"doubleSided":true,
			"name":"MI_Glass",
			"pbrMetallicRoughness":{
				"baseColorFactor":[
					0.05215025693178177,
					0.05215025693178177,
					0.05215025693178177,
					0.586363673210144
				],
				"metallicFactor":0,
				"roughnessFactor":0.5
			}
		},
		{
			"doubleSided":true,
			"name":"MI_InteriorWall",
			"normalTexture":{
				"index":6
			},
			"pbrMetallicRoughness":{
				"baseColorTexture":{
					"index":7
				},
				"metallicRoughnessTexture":{
					"index":8
				}
			}
		}
	],
	"meshes":[
		{
			"name":"Cube.418",
			"primitives":[
				{
					"attributes":{
						"POSITION":0,
						"NORMAL":1,
						"TEXCOORD_0":2
					},
					"indices":3,
					"material":0
				}
			]
		},
		{
			"name":"Cube.419",
			"primitives":[
				{
					"attributes":{
						"POSITION":4,
						"NORMAL":5,
						"TEXCOORD_0":6
					},
					"indices":7,
					"material":0
				}
			]
		},
		{
			"name":"Cube.420",
			"primitives":[
				{
					"attributes":{
						"POSITION":8,
						"NORMAL":9,
						"TEXCOORD_0":10
					},
					"indices":11,
					"material":0
				}
			]
		},
		{
			"name":"Cube.421",
			"primitives":[
				{
					"attributes":{
						"POSITION":12,
						"NORMAL":13,
						"TEXCOORD_0":14
					},
					"indices":15,
					"material":0
				}
			]
		},
		{
			"name":"Cube.422",
			"primitives":[
				{
					"attributes":{
						"POSITION":16,
						"NORMAL":17,
						"TEXCOORD_0":18
					},
					"indices":19,
					"material":0
				}
			]
		},
		{
			"name":"Cube.423",
			"primitives":[
				{
					"attributes":{
						"POSITION":20,
						"NORMAL":21,
						"TEXCOORD_0":22
					},
					"indices":23,
					"material":0
				}
			]
		},
		{
			"name":"Cube.187",
			"primitives":[
				{
					"attributes":{
						"POSITION":24,
						"NORMAL":25,
						"TEXCOORD_0":26,
						"TEXCOORD_1":27,
						"COLOR_0":28,
						"COLOR_1":29
					},
					"indices":30,
					"material":1
				},
				{
					"attributes":{
						"POSITION":31,
						"NORMAL":32,
						"TEXCOORD_0":33,
						"TEXCOORD_1":34,
						"COLOR_0":35,
						"COLOR_1":36
					},
					"indices":37,
					"material":2
				},
				{
					"attributes":{
						"POSITION":38,
						"NORMAL":39,
						"TEXCOORD_0":40,
						"TEXCOORD_1":41,
						"COLOR_0":42,
						"COLOR_1":43
					},
					"indices":44,
					"material":3
				},
				{
					"attributes":{
						"POSITION":45,
						"NORMAL":46,
						"TEXCOORD_0":47,
						"TEXCOORD_1":48,
						"COLOR_0":49,
						"COLOR_1":50
					},
					"indices":51,
					"material":4
				}
			]
		}
	],
	"textures":[
		{
			"sampler":0,
			"source":0
		},
		{
			"sampler":0,
			"source":1
		},
		{
			"sampler":0,
			"source":2
		},
		{
			"sampler":0,
			"source":3
		},
		{
			"sampler":0,
			"source":4
		},
		{
			"sampler":0,
			"source":5
		},
		{
			"sampler":0,
			"source":6
		},
		{
			"sampler":0,
			"source":7
		},
		{
			"sampler":0,
			"source":8
		}
	],
	"images":[
		{
			"mimeType":"image/png",
			"name":"T_Trim_Normal",
			"uri":"../../materials/T_Trim_Normal.png"
		},
		{
			"mimeType":"image/png",
			"name":"T_Trim_BaseColor",
			"uri":"../../materials/T_Trim_BaseColor.png"
		},
		{
			"mimeType":"image/png",
			"name":"T_Trim_ORM",
			"uri":"../../materials/T_Trim_ORM.png"
		},
		{
			"mimeType":"image/png",
			"name":"T_MetalConcrete_Normal",
			"uri":"../../materials/T_MetalConcrete_Normal.png"
		},
		{
			"mimeType":"image/png",
			"name":"T_MetalConcrete_BaseColor",
			"uri":"../../materials/T_MetalConcrete_BaseColor.png"
		},
		{
			"mimeType":"image/png",
			"name":"T_MetalConcrete_ORM",
			"uri":"../../materials/T_MetalConcrete_ORM.png"
		},
		{
			"mimeType":"image/png",
			"name":"T_RedBrick_Normal",
			"uri":"../../materials/T_RedBrick_Normal.png"
		},
		{
			"mimeType":"image/png",
			"name":"T_RedBrick_BaseColor",
			"uri":"../../materials/T_RedBrick_BaseColor.png"
		},
		{
			"mimeType":"image/png",
			"name":"T_RedBrick_ORM",
			"uri":"../../materials/T_RedBrick_ORM.png"
		}
	],
	"accessors":[
		{
			"bufferView":0,
			"componentType":5126,
			"count":24,
			"max":[
				1.3984562158584595,
				2.200000047683716,
				-0.19999998807907104
			],
			"min":[
				0.9964824914932251,
				-0.0016006827354431152,
				-0.27992546558380127
			],
			"type":"VEC3"
		},
		{
			"bufferView":1,
			"componentType":5126,
			"count":24,
			"type":"VEC3"
		},
		{
			"bufferView":2,
			"componentType":5126,
			"count":24,
			"type":"VEC2"
		},
		{
			"bufferView":3,
			"componentType":5123,
			"count":36,
			"type":"SCALAR"
		},
		{
			"bufferView":4,
			"componentType":5126,
			"count":24,
			"max":[
				2.000000476837158,
				4,
				0
			],
			"min":[
				0.9999996423721313,
				0,
				-0.19999998807907104
			],
			"type":"VEC3"
		},
		{
			"bufferView":5,
			"componentType":5126,
			"count":24,
			"type":"VEC3"
		},
		{
			"bufferView":6,
			"componentType":5126,
			"count":24,
			"type":"VEC2"
		},
		{
			"bufferView":7,
			"componentType":5123,
			"count":36,
			"type":"SCALAR"
		},
		{
			"bufferView":8,
			"componentType":5126,
			"count":24,
			"max":[
				-0.9999996423721313,
				4,
				0
			],
			"min":[
				-2.000000476837158,
				0,
				-0.19999998807907104
			],
			"type":"VEC3"
		},
		{
			"bufferView":9,
			"componentType":5126,
			"count":24,
			"type":"VEC3"
		},
		{
			"bufferView":10,
			"componentType":5126,
			"count":24,
			"type":"VEC2"
		},
		{
			"bufferView":11,
			"componentType":5123,
			"count":36,
			"type":"SCALAR"
		},
		{
			"bufferView":12,
			"componentType":5126,
			"count":24,
			"max":[
				1.0000003576278687,
				4,
				0
			],
			"min":[
				-1.0000003576278687,
				2.200000047683716,
				-0.19999998807907104
			],
			"type":"VEC3"
		},
		{
			"bufferView":13,
			"componentType":5126,
			"count":24,
			"type":"VEC3"
		},
		{
			"bufferView":14,
			"componentType":5126,
			"count":24,
			"type":"VEC2"
		},
		{
			"bufferView":15,
			"componentType":5123,
			"count":36,
			"type":"SCALAR"
		},
		{
			"bufferView":16,
			"componentType":5126,
			"count":60,
			"max":[
				1.3984562158584595,
				2.759758710861206,
				-0.19999998807907104
			],
			"min":[
				-1.3992325067520142,
				2.19679856300354,
				-0.30665796995162964
			],
			"type":"VEC3"
		},
		{
			"bufferView":17,
			"componentType":5126,
			"count":60,
			"type":"VEC3"
		},
		{
			"bufferView":18,
			"componentType":5126,
			"count":60,
			"type":"VEC2"
		},
		{
			"bufferView":19,
			"componentType":5123,
			"count":132,
			"type":"SCALAR"
		},
		{
			"bufferView":20,
			"componentType":5126,
			"count":24,
			"max":[
				-0.9972587823867798,
				2.200000047683716,
				-0.19999998807907104
			],
			"min":[
				-1.3992325067520142,
				-0.0016006827354431152,
				-0.27992546558380127
			],
			"type":"VEC3"
		},
		{
			"bufferView":21,
			"componentType":5126,
			"count":24,
			"type":"VEC3"
		},
		{
			"bufferView":22,
			"componentType":5126,
			"count":24,
			"type":"VEC2"
		},
		{
			"bufferView":23,
			"componentType":5123,
			"count":36,
			"type":"SCALAR"
		},
		{
			"bufferView":24,
			"componentType":5126,
			"count":129,
			"max":[
				2,
				4,
				0.030000070109963417
			],
			"min":[
				-2,
				-2.809779964252357e-09,
				-0.188253253698349
			],
			"type":"VEC3"
		},
		{
			"bufferView":25,
			"componentType":5126,
			"count":129,
			"type":"VEC3"
		},
		{
			"bufferView":26,
			"componentType":5126,
			"count":129,
			"type":"VEC2"
		},
		{
			"bufferView":27,
			"componentType":5126,
			"count":129,
			"type":"VEC2"
		},
		{
			"bufferView":28,
			"componentType":5121,
			"count":129,
			"normalized":true,
			"type":"VEC4"
		},
		{
			"bufferView":29,
			"componentType":5123,
			"count":129,
			"normalized":true,
			"type":"VEC4"
		},
		{
			"bufferView":30,
			"componentType":5123,
			"count":288,
			"type":"SCALAR"
		},
		{
			"bufferView":31,
			"componentType":5126,
			"count":412,
			"max":[
				1.4028234481811523,
				3.8087286949157715,
				-0.06575538218021393
			],
			"min":[
				-1.4028234481811523,
				0,
				-0.30051732063293457
			],
			"type":"VEC3"
		},
		{
			"bufferView":32,
			"componentType":5126,
			"count":412,
			"type":"VEC3"
		},
		{
			"bufferView":33,
			"componentType":5126,
			"count":412,
			"type":"VEC2"
		},
		{
			"bufferView":34,
			"componentType":5126,
			"count":412,
			"type":"VEC2"
		},
		{
			"bufferView":35,
			"componentType":5121,
			"count":412,
			"normalized":true,
			"type":"VEC4"
		},
		{
			"bufferView":36,
			"componentType":5123,
			"count":412,
			"normalized":true,
			"type":"VEC4"
		},
		{
			"bufferView":37,
			"componentType":5123,
			"count":858,
			"type":"SCALAR"
		},
		{
			"bufferView":38,
			"componentType":5126,
			"count":48,
			"max":[
				1.3472819328308105,
				3.749147415161133,
				-0.18240390717983246
			],
			"min":[
				-1.3472819328308105,
				0.0555415153503418,
				-0.18386878073215485
			],
			"type":"VEC3"
		},
		{
			"bufferView":39,
			"componentType":5126,
			"count":48,
			"type":"VEC3"
		},
		{
			"bufferView":40,
			"componentType":5126,
			"count":48,
			"type":"VEC2"
		},
		{
			"bufferView":41,
			"componentType":5126,
			"count":48,
			"type":"VEC2"
		},
		{
			"bufferView":42,
			"componentType":5121,
			"count":48,
			"normalized":true,
			"type":"VEC4"
		},
		{
			"bufferView":43,
			"componentType":5123,
			"count":48,
			"normalized":true,
			"type":"VEC4"
		},
		{
			"bufferView":44,
			"componentType":5123,
			"count":96,
			"type":"SCALAR"
		},
		{
			"bufferView":45,
			"componentType":5126,
			"count":24,
			"max":[
				2,
				4.000000476837158,
				-0.2000000923871994
			],
			"min":[
				-2,
				0,
				-0.2000000923871994
			],
			"type":"VEC3"
		},
		{
			"bufferView":46,
			"componentType":5126,
			"count":24,
			"type":"VEC3"
		},
		{
			"bufferView":47,
			"componentType":5126,
			"count":24,
			"type":"VEC2"
		},
		{
			"bufferView":48,
			"componentType":5126,
			"count":24,
			"type":"VEC2"
		},
		{
			"bufferView":49,
			"componentType":5121,
			"count":24,
			"normalized":true,
			"type":"VEC4"
		},
		{
			"bufferView":50,
			"componentType":5123,
			"count":24,
			"normalized":true,
			"type":"VEC4"
		},
		{
			"bufferView":51,
			"componentType":5123,
			"count":48,
			"type":"SCALAR"
		}
	],
	"bufferViews":[
		{
			"buffer":0,
			"byteLength":288,
			"byteOffset":0,
			"target":34962
		},
		{
			"buffer":0,
			"byteLength":288,
			"byteOffset":288,
			"target":34962
		},
		{
			"buffer":0,
			"byteLength":192,
			"byteOffset":576,
			"target":34962
		},
		{
			"buffer":0,
			"byteLength":72,
			"byteOffset":768,
			"target":34963
		},
		{
			"buffer":0,
			"byteLength":288,
			"byteOffset":840,
			"target":34962
		},
		{
			"buffer":0,
			"byteLength":288,
			"byteOffset":1128,
			"target":34962
		},
		{
			"buffer":0,
			"byteLength":192,
			"byteOffset":1416,
			"target":34962
		},
		{
			"buffer":0,
			"byteLength":72,
			"byteOffset":1608,
			"target":34963
		},
		{
			"buffer":0,
			"byteLength":288,
			"byteOffset":1680,
			"target":34962
		},
		{
			"buffer":0,
			"byteLength":288,
			"byteOffset":1968,
			"target":34962
		},
		{
			"buffer":0,
			"byteLength":192,
			"byteOffset":2256,
			"target":34962
		},
		{
			"buffer":0,
			"byteLength":72,
			"byteOffset":2448,
			"target":34963
		},
		{
			"buffer":0,
			"byteLength":288,
			"byteOffset":2520,
			"target":34962
		},
		{
			"buffer":0,
			"byteLength":288,
			"byteOffset":2808,
			"target":34962
		},
		{
			"buffer":0,
			"byteLength":192,
			"byteOffset":3096,
			"target":34962
		},
		{
			"buffer":0,
			"byteLength":72,
			"byteOffset":3288,
			"target":34963
		},
		{
			"buffer":0,
			"byteLength":720,
			"byteOffset":3360,
			"target":34962
		},
		{
			"buffer":0,
			"byteLength":720,
			"byteOffset":4080,
			"target":34962
		},
		{
			"buffer":0,
			"byteLength":480,
			"byteOffset":4800,
			"target":34962
		},
		{
			"buffer":0,
			"byteLength":264,
			"byteOffset":5280,
			"target":34963
		},
		{
			"buffer":0,
			"byteLength":288,
			"byteOffset":5544,
			"target":34962
		},
		{
			"buffer":0,
			"byteLength":288,
			"byteOffset":5832,
			"target":34962
		},
		{
			"buffer":0,
			"byteLength":192,
			"byteOffset":6120,
			"target":34962
		},
		{
			"buffer":0,
			"byteLength":72,
			"byteOffset":6312,
			"target":34963
		},
		{
			"buffer":0,
			"byteLength":1548,
			"byteOffset":6384,
			"target":34962
		},
		{
			"buffer":0,
			"byteLength":1548,
			"byteOffset":7932,
			"target":34962
		},
		{
			"buffer":0,
			"byteLength":1032,
			"byteOffset":9480,
			"target":34962
		},
		{
			"buffer":0,
			"byteLength":1032,
			"byteOffset":10512,
			"target":34962
		},
		{
			"buffer":0,
			"byteLength":516,
			"byteOffset":11544,
			"target":34962
		},
		{
			"buffer":0,
			"byteLength":1032,
			"byteOffset":12060,
			"target":34962
		},
		{
			"buffer":0,
			"byteLength":576,
			"byteOffset":13092,
			"target":34963
		},
		{
			"buffer":0,
			"byteLength":4944,
			"byteOffset":13668,
			"target":34962
		},
		{
			"buffer":0,
			"byteLength":4944,
			"byteOffset":18612,
			"target":34962
		},
		{
			"buffer":0,
			"byteLength":3296,
			"byteOffset":23556,
			"target":34962
		},
		{
			"buffer":0,
			"byteLength":3296,
			"byteOffset":26852,
			"target":34962
		},
		{
			"buffer":0,
			"byteLength":1648,
			"byteOffset":30148,
			"target":34962
		},
		{
			"buffer":0,
			"byteLength":3296,
			"byteOffset":31796,
			"target":34962
		},
		{
			"buffer":0,
			"byteLength":1716,
			"byteOffset":35092,
			"target":34963
		},
		{
			"buffer":0,
			"byteLength":576,
			"byteOffset":36808,
			"target":34962
		},
		{
			"buffer":0,
			"byteLength":576,
			"byteOffset":37384,
			"target":34962
		},
		{
			"buffer":0,
			"byteLength":384,
			"byteOffset":37960,
			"target":34962
		},
		{
			"buffer":0,
			"byteLength":384,
			"byteOffset":38344,
			"target":34962
		},
		{
			"buffer":0,
			"byteLength":192,
			"byteOffset":38728,
			"target":34962
		},
		{
			"buffer":0,
			"byteLength":384,
			"byteOffset":38920,
			"target":34962
		},
		{
			"buffer":0,
			"byteLength":192,
			"byteOffset":39304,
			"target":34963
		},
		{
			"buffer":0,
			"byteLength":288,
			"byteOffset":39496,
			"target":34962
		},
		{
			"buffer":0,
			"byteLength":288,
			"byteOffset":39784,
			"target":34962
		},
		{
			"buffer":0,
			"byteLength":192,
			"byteOffset":40072,
			"target":34962
		},
		{
			"buffer":0,
			"byteLength":192,
			"byteOffset":40264,
			"target":34962
		},
		{
			"buffer":0,
			"byteLength":96,
			"byteOffset":40456,
			"target":34962
		},
		{
			"buffer":0,
			"byteLength":192,
			"byteOffset":40552,
			"target":34962
		},
		{
			"buffer":0,
			"byteLength":96,
			"byteOffset":40744,
			"target":34963
		}
	],
	"samplers":[
		{
			"magFilter":9729,
			"minFilter":9987
		}
	],
	"buffers":[
		{
			"byteLength":40840,
			"uri":"DoorFrame_Marble.bin"
		}
	]
}
