{
	"asset":{
		"generator":"Khronos glTF Blender I/O v4.3.47",
		"version":"2.0"
	},
	"scene":0,
	"scenes":[
		{
			"name":"Scene",
			"nodes":[
				1
			]
		}
	],
	"nodes":[
		{
			"mesh":0,
			"name":"Door_4_1-convcolonly"
		},
		{
			"children":[
				0
			],
			"mesh":1,
			"name":"Door_4"
		}
	],
	"materials":[
		{
			"doubleSided":true,
			"name":"Collision",
			"pbrMetallicRoughness":{
				"baseColorFactor":[
					0.036788325756788254,
					0.5504099726676941,
					0.8000074625015259,
					1
				],
				"metallicFactor":0
			}
		},
		{
			"doubleSided":true,
			"name":"MI_Trim",
			"normalTexture":{
				"index":0
			},
			"pbrMetallicRoughness":{
				"baseColorTexture":{
					"index":1
				},
				"metallicRoughnessTexture":{
					"index":2
				}
			}
		},
		{
			"doubleSided":true,
			"name":"MI_Trim_MetalConcrete",
			"normalTexture":{
				"index":3
			},
			"pbrMetallicRoughness":{
				"baseColorTexture":{
					"index":4
				},
				"metallicRoughnessTexture":{
					"index":5
				}
			}
		}
	],
	"meshes":[
		{
			"name":"Cube.279",
			"primitives":[
				{
					"attributes":{
						"POSITION":0,
						"NORMAL":1,
						"TEXCOORD_0":2
					},
					"indices":3,
					"material":0
				}
			]
		},
		{
			"name":"Cube.117",
			"primitives":[
				{
					"attributes":{
						"POSITION":4,
						"NORMAL":5,
						"TEXCOORD_0":6,
						"TEXCOORD_1":7
					},
					"indices":8,
					"material":1
				},
				{
					"attributes":{
						"POSITION":9,
						"NORMAL":10,
						"TEXCOORD_0":11,
						"TEXCOORD_1":12
					},
					"indices":13,
					"material":2
				}
			]
		}
	],
	"textures":[
		{
			"sampler":0,
			"source":0
		},
		{
			"sampler":0,
			"source":1
		},
		{
			"sampler":0,
			"source":2
		},
		{
			"sampler":0,
			"source":3
		},
		{
			"sampler":0,
			"source":4
		},
		{
			"sampler":0,
			"source":5
		}
	],
	"images":[
		{
			"mimeType":"image/png",
			"name":"T_Trim_Normal",
			"uri":"../../materials/T_Trim_Normal.png"
		},
		{
			"mimeType":"image/png",
			"name":"T_Trim_BaseColor",
			"uri":"../../materials/T_Trim_BaseColor.png"
		},
		{
			"mimeType":"image/png",
			"name":"T_Trim_ORM",
			"uri":"../../materials/T_Trim_ORM.png"
		},
		{
			"mimeType":"image/png",
			"name":"T_MetalConcrete_Normal",
			"uri":"../../materials/T_MetalConcrete_Normal.png"
		},
		{
			"mimeType":"image/png",
			"name":"T_MetalConcrete_BaseColor",
			"uri":"../../materials/T_MetalConcrete_BaseColor.png"
		},
		{
			"mimeType":"image/png",
			"name":"T_MetalConcrete_ORM",
			"uri":"../../materials/T_MetalConcrete_ORM.png"
		}
	],
	"accessors":[
		{
			"bufferView":0,
			"componentType":5126,
			"count":24,
			"max":[
				0.0033349990844726562,
				2.1993870735168457,
				0.05654839426279068
			],
			"min":[
				-1.0020067691802979,
				0,
				-0.05357354134321213
			],
			"type":"VEC3"
		},
		{
			"bufferView":1,
			"componentType":5126,
			"count":24,
			"type":"VEC3"
		},
		{
			"bufferView":2,
			"componentType":5126,
			"count":24,
			"type":"VEC2"
		},
		{
			"bufferView":3,
			"componentType":5123,
			"count":36,
			"type":"SCALAR"
		},
		{
			"bufferView":4,
			"componentType":5126,
			"count":534,
			"max":[
				0,
				2.1999998092651367,
				0.08064346015453339
			],
			"min":[
				-0.9999997615814209,
				0,
				-0.08064346015453339
			],
			"type":"VEC3"
		},
		{
			"bufferView":5,
			"componentType":5126,
			"count":534,
			"type":"VEC3"
		},
		{
			"bufferView":6,
			"componentType":5126,
			"count":534,
			"type":"VEC2"
		},
		{
			"bufferView":7,
			"componentType":5126,
			"count":534,
			"type":"VEC2"
		},
		{
			"bufferView":8,
			"componentType":5123,
			"count":1068,
			"type":"SCALAR"
		},
		{
			"bufferView":9,
			"componentType":5126,
			"count":480,
			"max":[
				-0.8953543901443481,
				1.0647205114364624,
				0.13043706119060516
			],
			"min":[
				-0.9857416749000549,
				0.7874065637588501,
				-0.13043706119060516
			],
			"type":"VEC3"
		},
		{
			"bufferView":10,
			"componentType":5126,
			"count":480,
			"type":"VEC3"
		},
		{
			"bufferView":11,
			"componentType":5126,
			"count":480,
			"type":"VEC2"
		},
		{
			"bufferView":12,
			"componentType":5126,
			"count":480,
			"type":"VEC2"
		},
		{
			"bufferView":13,
			"componentType":5123,
			"count":1440,
			"type":"SCALAR"
		}
	],
	"bufferViews":[
		{
			"buffer":0,
			"byteLength":288,
			"byteOffset":0,
			"target":34962
		},
		{
			"buffer":0,
			"byteLength":288,
			"byteOffset":288,
			"target":34962
		},
		{
			"buffer":0,
			"byteLength":192,
			"byteOffset":576,
			"target":34962
		},
		{
			"buffer":0,
			"byteLength":72,
			"byteOffset":768,
			"target":34963
		},
		{
			"buffer":0,
			"byteLength":6408,
			"byteOffset":840,
			"target":34962
		},
		{
			"buffer":0,
			"byteLength":6408,
			"byteOffset":7248,
			"target":34962
		},
		{
			"buffer":0,
			"byteLength":4272,
			"byteOffset":13656,
			"target":34962
		},
		{
			"buffer":0,
			"byteLength":4272,
			"byteOffset":17928,
			"target":34962
		},
		{
			"buffer":0,
			"byteLength":2136,
			"byteOffset":22200,
			"target":34963
		},
		{
			"buffer":0,
			"byteLength":5760,
			"byteOffset":24336,
			"target":34962
		},
		{
			"buffer":0,
			"byteLength":5760,
			"byteOffset":30096,
			"target":34962
		},
		{
			"buffer":0,
			"byteLength":3840,
			"byteOffset":35856,
			"target":34962
		},
		{
			"buffer":0,
			"byteLength":3840,
			"byteOffset":39696,
			"target":34962
		},
		{
			"buffer":0,
			"byteLength":2880,
			"byteOffset":43536,
			"target":34963
		}
	],
	"samplers":[
		{
			"magFilter":9729,
			"minFilter":9987
		}
	],
	"buffers":[
		{
			"byteLength":46416,
			"uri":"Door_4.bin"
		}
	]
}
