{
	"asset":{
		"generator":"Khronos glTF Blender I/O v4.3.47",
		"version":"2.0"
	},
	"scene":0,
	"scenes":[
		{
			"name":"Scene",
			"nodes":[
				5
			]
		}
	],
	"nodes":[
		{
			"mesh":0,
			"name":"Marble_Column_Large_Bottom_1-convcolonly"
		},
		{
			"mesh":1,
			"name":"Marble_Column_Large_Bottom_2-convcolonly"
		},
		{
			"mesh":2,
			"name":"Marble_Column_Large_Bottom_3-convcolonly"
		},
		{
			"mesh":3,
			"name":"Marble_Column_Large_Bottom_4-convcolonly"
		},
		{
			"mesh":4,
			"name":"Marble_Column_Large_Bottom_5-convcolonly"
		},
		{
			"children":[
				0,
				1,
				2,
				3,
				4
			],
			"mesh":5,
			"name":"Marble_Column_Large_Bottom"
		}
	],
	"materials":[
		{
			"doubleSided":true,
			"name":"Collision",
			"pbrMetallicRoughness":{
				"baseColorFactor":[
					0.036788325756788254,
					0.5504099726676941,
					0.8000074625015259,
					1
				],
				"metallicFactor":0
			}
		},
		{
			"doubleSided":true,
			"name":"MI_Trim",
			"normalTexture":{
				"index":0
			},
			"pbrMetallicRoughness":{
				"baseColorTexture":{
					"index":1
				},
				"metallicRoughnessTexture":{
					"index":2
				}
			}
		},
		{
			"doubleSided":true,
			"name":"MI_Ornaments",
			"normalTexture":{
				"index":3
			},
			"pbrMetallicRoughness":{
				"baseColorTexture":{
					"index":4
				},
				"metallicRoughnessTexture":{
					"index":5
				}
			}
		}
	],
	"meshes":[
		{
			"name":"Cube.627",
			"primitives":[
				{
					"attributes":{
						"POSITION":0,
						"NORMAL":1,
						"TEXCOORD_0":2
					},
					"indices":3,
					"material":0
				}
			]
		},
		{
			"name":"Cube.628",
			"primitives":[
				{
					"attributes":{
						"POSITION":4,
						"NORMAL":5,
						"TEXCOORD_0":6
					},
					"indices":7,
					"material":0
				}
			]
		},
		{
			"name":"Cube.629",
			"primitives":[
				{
					"attributes":{
						"POSITION":8,
						"NORMAL":9,
						"TEXCOORD_0":10
					},
					"indices":11,
					"material":0
				}
			]
		},
		{
			"name":"Cube.630",
			"primitives":[
				{
					"attributes":{
						"POSITION":12,
						"NORMAL":13,
						"TEXCOORD_0":14
					},
					"indices":15,
					"material":0
				}
			]
		},
		{
			"name":"Cube.631",
			"primitives":[
				{
					"attributes":{
						"POSITION":16,
						"NORMAL":17,
						"TEXCOORD_0":18
					},
					"indices":11,
					"material":0
				}
			]
		},
		{
			"name":"Cube.001",
			"primitives":[
				{
					"attributes":{
						"POSITION":19,
						"NORMAL":20,
						"TEXCOORD_0":21,
						"TEXCOORD_1":22
					},
					"indices":23,
					"material":1
				},
				{
					"attributes":{
						"POSITION":24,
						"NORMAL":25,
						"TEXCOORD_0":26,
						"TEXCOORD_1":27
					},
					"indices":28,
					"material":2
				}
			]
		}
	],
	"textures":[
		{
			"sampler":0,
			"source":0
		},
		{
			"sampler":0,
			"source":1
		},
		{
			"sampler":0,
			"source":2
		},
		{
			"sampler":0,
			"source":3
		},
		{
			"sampler":0,
			"source":4
		},
		{
			"sampler":0,
			"source":5
		}
	],
	"images":[
		{
			"mimeType":"image/png",
			"name":"T_Trim_Normal",
			"uri":"../../materials/T_Trim_Normal.png"
		},
		{
			"mimeType":"image/png",
			"name":"T_Trim_BaseColor",
			"uri":"../../materials/T_Trim_BaseColor.png"
		},
		{
			"mimeType":"image/png",
			"name":"T_Trim_ORM",
			"uri":"../../materials/T_Trim_ORM.png"
		},
		{
			"mimeType":"image/png",
			"name":"T_Ornaments_Normal",
			"uri":"../../materials/T_Ornaments_Normal.png"
		},
		{
			"mimeType":"image/png",
			"name":"T_Ornaments_BaseColor",
			"uri":"../../materials/T_Ornaments_BaseColor.png"
		},
		{
			"mimeType":"image/png",
			"name":"T_Ornaments_ORM",
			"uri":"../../materials/T_Ornaments_ORM.png"
		}
	],
	"accessors":[
		{
			"bufferView":0,
			"componentType":5126,
			"count":24,
			"max":[
				1.0012868642807007,
				0.20185117423534393,
				1.0012868642807007
			],
			"min":[
				-1.0012868642807007,
				0,
				-1.0012868642807007
			],
			"type":"VEC3"
		},
		{
			"bufferView":1,
			"componentType":5126,
			"count":24,
			"type":"VEC3"
		},
		{
			"bufferView":2,
			"componentType":5126,
			"count":24,
			"type":"VEC2"
		},
		{
			"bufferView":3,
			"componentType":5123,
			"count":36,
			"type":"SCALAR"
		},
		{
			"bufferView":4,
			"componentType":5126,
			"count":40,
			"max":[
				0.8221520781517029,
				0.3810814321041107,
				0.8221520781517029
			],
			"min":[
				-0.8221520781517029,
				0.20185117423534393,
				-0.8221520781517029
			],
			"type":"VEC3"
		},
		{
			"bufferView":5,
			"componentType":5126,
			"count":40,
			"type":"VEC3"
		},
		{
			"bufferView":6,
			"componentType":5126,
			"count":40,
			"type":"VEC2"
		},
		{
			"bufferView":7,
			"componentType":5123,
			"count":60,
			"type":"SCALAR"
		},
		{
			"bufferView":8,
			"componentType":5126,
			"count":24,
			"max":[
				0.6980458498001099,
				0.929050087928772,
				0.6980458498001099
			],
			"min":[
				-0.6980458498001099,
				0.3810814321041107,
				-0.6980458498001099
			],
			"type":"VEC3"
		},
		{
			"bufferView":9,
			"componentType":5126,
			"count":24,
			"type":"VEC3"
		},
		{
			"bufferView":10,
			"componentType":5126,
			"count":24,
			"type":"VEC2"
		},
		{
			"bufferView":11,
			"componentType":5123,
			"count":36,
			"type":"SCALAR"
		},
		{
			"bufferView":12,
			"componentType":5126,
			"count":56,
			"max":[
				0.7576756477355957,
				1.067706823348999,
				0.7576756477355957
			],
			"min":[
				-0.7576756477355957,
				0.929050087928772,
				-0.7576756477355957
			],
			"type":"VEC3"
		},
		{
			"bufferView":13,
			"componentType":5126,
			"count":56,
			"type":"VEC3"
		},
		{
			"bufferView":14,
			"componentType":5126,
			"count":56,
			"type":"VEC2"
		},
		{
			"bufferView":15,
			"componentType":5123,
			"count":84,
			"type":"SCALAR"
		},
		{
			"bufferView":16,
			"componentType":5126,
			"count":24,
			"max":[
				0.6895755529403687,
				4,
				0.6895755529403687
			],
			"min":[
				-0.6895755529403687,
				1.067706823348999,
				-0.6895755529403687
			],
			"type":"VEC3"
		},
		{
			"bufferView":17,
			"componentType":5126,
			"count":24,
			"type":"VEC3"
		},
		{
			"bufferView":18,
			"componentType":5126,
			"count":24,
			"type":"VEC2"
		},
		{
			"bufferView":19,
			"componentType":5126,
			"count":502,
			"max":[
				1,
				3.999999761581421,
				1
			],
			"min":[
				-1,
				-2.384185791015625e-07,
				-1
			],
			"type":"VEC3"
		},
		{
			"bufferView":20,
			"componentType":5126,
			"count":502,
			"type":"VEC3"
		},
		{
			"bufferView":21,
			"componentType":5126,
			"count":502,
			"type":"VEC2"
		},
		{
			"bufferView":22,
			"componentType":5126,
			"count":502,
			"type":"VEC2"
		},
		{
			"bufferView":23,
			"componentType":5123,
			"count":870,
			"type":"SCALAR"
		},
		{
			"bufferView":24,
			"componentType":5126,
			"count":16,
			"max":[
				0.6678839325904846,
				0.8682814240455627,
				0.6752317547798157
			],
			"min":[
				-0.6678839325904846,
				0.44787561893463135,
				-0.6752317547798157
			],
			"type":"VEC3"
		},
		{
			"bufferView":25,
			"componentType":5126,
			"count":16,
			"type":"VEC3"
		},
		{
			"bufferView":26,
			"componentType":5126,
			"count":16,
			"type":"VEC2"
		},
		{
			"bufferView":27,
			"componentType":5126,
			"count":16,
			"type":"VEC2"
		},
		{
			"bufferView":28,
			"componentType":5123,
			"count":24,
			"type":"SCALAR"
		}
	],
	"bufferViews":[
		{
			"buffer":0,
			"byteLength":288,
			"byteOffset":0,
			"target":34962
		},
		{
			"buffer":0,
			"byteLength":288,
			"byteOffset":288,
			"target":34962
		},
		{
			"buffer":0,
			"byteLength":192,
			"byteOffset":576,
			"target":34962
		},
		{
			"buffer":0,
			"byteLength":72,
			"byteOffset":768,
			"target":34963
		},
		{
			"buffer":0,
			"byteLength":480,
			"byteOffset":840,
			"target":34962
		},
		{
			"buffer":0,
			"byteLength":480,
			"byteOffset":1320,
			"target":34962
		},
		{
			"buffer":0,
			"byteLength":320,
			"byteOffset":1800,
			"target":34962
		},
		{
			"buffer":0,
			"byteLength":120,
			"byteOffset":2120,
			"target":34963
		},
		{
			"buffer":0,
			"byteLength":288,
			"byteOffset":2240,
			"target":34962
		},
		{
			"buffer":0,
			"byteLength":288,
			"byteOffset":2528,
			"target":34962
		},
		{
			"buffer":0,
			"byteLength":192,
			"byteOffset":2816,
			"target":34962
		},
		{
			"buffer":0,
			"byteLength":72,
			"byteOffset":3008,
			"target":34963
		},
		{
			"buffer":0,
			"byteLength":672,
			"byteOffset":3080,
			"target":34962
		},
		{
			"buffer":0,
			"byteLength":672,
			"byteOffset":3752,
			"target":34962
		},
		{
			"buffer":0,
			"byteLength":448,
			"byteOffset":4424,
			"target":34962
		},
		{
			"buffer":0,
			"byteLength":168,
			"byteOffset":4872,
			"target":34963
		},
		{
			"buffer":0,
			"byteLength":288,
			"byteOffset":5040,
			"target":34962
		},
		{
			"buffer":0,
			"byteLength":288,
			"byteOffset":5328,
			"target":34962
		},
		{
			"buffer":0,
			"byteLength":192,
			"byteOffset":5616,
			"target":34962
		},
		{
			"buffer":0,
			"byteLength":6024,
			"byteOffset":5808,
			"target":34962
		},
		{
			"buffer":0,
			"byteLength":6024,
			"byteOffset":11832,
			"target":34962
		},
		{
			"buffer":0,
			"byteLength":4016,
			"byteOffset":17856,
			"target":34962
		},
		{
			"buffer":0,
			"byteLength":4016,
			"byteOffset":21872,
			"target":34962
		},
		{
			"buffer":0,
			"byteLength":1740,
			"byteOffset":25888,
			"target":34963
		},
		{
			"buffer":0,
			"byteLength":192,
			"byteOffset":27628,
			"target":34962
		},
		{
			"buffer":0,
			"byteLength":192,
			"byteOffset":27820,
			"target":34962
		},
		{
			"buffer":0,
			"byteLength":128,
			"byteOffset":28012,
			"target":34962
		},
		{
			"buffer":0,
			"byteLength":128,
			"byteOffset":28140,
			"target":34962
		},
		{
			"buffer":0,
			"byteLength":48,
			"byteOffset":28268,
			"target":34963
		}
	],
	"samplers":[
		{
			"magFilter":9729,
			"minFilter":9987
		}
	],
	"buffers":[
		{
			"byteLength":28316,
			"uri":"Marble_Column_Large_Bottom.bin"
		}
	]
}
