{
	"asset":{
		"generator":"Khronos glTF Blender I/O v4.3.47",
		"version":"2.0"
	},
	"scene":0,
	"scenes":[
		{
			"name":"Scene",
			"nodes":[
				10
			]
		}
	],
	"nodes":[
		{
			"mesh":0,
			"name":"Marble_ColumnInset_Large_Bottom_01-convcolonly"
		},
		{
			"mesh":1,
			"name":"Marble_ColumnInset_Large_Bottom_02-convcolonly"
		},
		{
			"mesh":2,
			"name":"Marble_ColumnInset_Large_Bottom_03-convcolonly"
		},
		{
			"mesh":3,
			"name":"Marble_ColumnInset_Large_Bottom_04-convcolonly"
		},
		{
			"mesh":4,
			"name":"Marble_ColumnInset_Large_Bottom_05-convcolonly"
		},
		{
			"mesh":5,
			"name":"Marble_ColumnInset_Large_Bottom_06-convcolonly"
		},
		{
			"mesh":6,
			"name":"Marble_ColumnInset_Large_Bottom_07-convcolonly"
		},
		{
			"mesh":7,
			"name":"Marble_ColumnInset_Large_Bottom_08-convcolonly"
		},
		{
			"mesh":8,
			"name":"Marble_ColumnInset_Large_Bottom_09-convcolonly"
		},
		{
			"mesh":9,
			"name":"Marble_ColumnInset_Large_Bottom_10-convcolonly"
		},
		{
			"children":[
				0,
				1,
				2,
				3,
				4,
				5,
				6,
				7,
				8,
				9
			],
			"mesh":10,
			"name":"Marble_ColumnInset_Large_Bottom"
		}
	],
	"materials":[
		{
			"doubleSided":true,
			"name":"Collision",
			"pbrMetallicRoughness":{
				"baseColorFactor":[
					0.036788325756788254,
					0.5504099726676941,
					0.8000074625015259,
					1
				],
				"metallicFactor":0
			}
		},
		{
			"doubleSided":true,
			"name":"MI_Trim",
			"normalTexture":{
				"index":0
			},
			"pbrMetallicRoughness":{
				"baseColorTexture":{
					"index":1
				},
				"metallicRoughnessTexture":{
					"index":2
				}
			}
		},
		{
			"doubleSided":true,
			"name":"MI_Ornaments",
			"normalTexture":{
				"index":3
			},
			"pbrMetallicRoughness":{
				"baseColorTexture":{
					"index":4
				},
				"metallicRoughnessTexture":{
					"index":5
				}
			}
		}
	],
	"meshes":[
		{
			"name":"Cube.3573",
			"primitives":[
				{
					"attributes":{
						"POSITION":0,
						"NORMAL":1,
						"TEXCOORD_0":2
					},
					"indices":3,
					"material":0
				}
			]
		},
		{
			"name":"Cube.3574",
			"primitives":[
				{
					"attributes":{
						"POSITION":4,
						"NORMAL":5,
						"TEXCOORD_0":6
					},
					"indices":7,
					"material":0
				}
			]
		},
		{
			"name":"Cube.3575",
			"primitives":[
				{
					"attributes":{
						"POSITION":8,
						"NORMAL":9,
						"TEXCOORD_0":10
					},
					"indices":11,
					"material":0
				}
			]
		},
		{
			"name":"Cube.3576",
			"primitives":[
				{
					"attributes":{
						"POSITION":12,
						"NORMAL":13,
						"TEXCOORD_0":14
					},
					"indices":15,
					"material":0
				}
			]
		},
		{
			"name":"Cube.3577",
			"primitives":[
				{
					"attributes":{
						"POSITION":16,
						"NORMAL":17,
						"TEXCOORD_0":18
					},
					"indices":19,
					"material":0
				}
			]
		},
		{
			"name":"Cube.3578",
			"primitives":[
				{
					"attributes":{
						"POSITION":20,
						"NORMAL":21,
						"TEXCOORD_0":22
					},
					"indices":23,
					"material":0
				}
			]
		},
		{
			"name":"Cube.3579",
			"primitives":[
				{
					"attributes":{
						"POSITION":24,
						"NORMAL":25,
						"TEXCOORD_0":26
					},
					"indices":27,
					"material":0
				}
			]
		},
		{
			"name":"Cube.3580",
			"primitives":[
				{
					"attributes":{
						"POSITION":28,
						"NORMAL":29,
						"TEXCOORD_0":30
					},
					"indices":31,
					"material":0
				}
			]
		},
		{
			"name":"Cube.3581",
			"primitives":[
				{
					"attributes":{
						"POSITION":32,
						"NORMAL":33,
						"TEXCOORD_0":34
					},
					"indices":19,
					"material":0
				}
			]
		},
		{
			"name":"Cube.3582",
			"primitives":[
				{
					"attributes":{
						"POSITION":35,
						"NORMAL":36,
						"TEXCOORD_0":37
					},
					"indices":23,
					"material":0
				}
			]
		},
		{
			"name":"Cube.3571",
			"primitives":[
				{
					"attributes":{
						"POSITION":38,
						"NORMAL":39,
						"TEXCOORD_0":40,
						"TEXCOORD_1":41
					},
					"indices":42,
					"material":1
				},
				{
					"attributes":{
						"POSITION":43,
						"NORMAL":44,
						"TEXCOORD_0":45,
						"TEXCOORD_1":46
					},
					"indices":47,
					"material":2
				}
			]
		}
	],
	"textures":[
		{
			"sampler":0,
			"source":0
		},
		{
			"sampler":0,
			"source":1
		},
		{
			"sampler":0,
			"source":2
		},
		{
			"sampler":0,
			"source":3
		},
		{
			"sampler":0,
			"source":4
		},
		{
			"sampler":0,
			"source":5
		}
	],
	"images":[
		{
			"mimeType":"image/png",
			"name":"T_Trim_Normal",
			"uri":"../../materials/T_Trim_Normal.png"
		},
		{
			"mimeType":"image/png",
			"name":"T_Trim_BaseColor",
			"uri":"../../materials/T_Trim_BaseColor.png"
		},
		{
			"mimeType":"image/png",
			"name":"T_Trim_ORM",
			"uri":"../../materials/T_Trim_ORM.png"
		},
		{
			"mimeType":"image/png",
			"name":"T_Ornaments_Normal",
			"uri":"../../materials/T_Ornaments_Normal.png"
		},
		{
			"mimeType":"image/png",
			"name":"T_Ornaments_BaseColor",
			"uri":"../../materials/T_Ornaments_BaseColor.png"
		},
		{
			"mimeType":"image/png",
			"name":"T_Ornaments_ORM",
			"uri":"../../materials/T_Ornaments_ORM.png"
		}
	],
	"accessors":[
		{
			"bufferView":0,
			"componentType":5126,
			"count":24,
			"max":[
				-0.04792976379394531,
				0.20185117423534393,
				0.5012868642807007
			],
			"min":[
				-1.5012868642807007,
				0,
				-0.06231963634490967
			],
			"type":"VEC3"
		},
		{
			"bufferView":1,
			"componentType":5126,
			"count":24,
			"type":"VEC3"
		},
		{
			"bufferView":2,
			"componentType":5126,
			"count":24,
			"type":"VEC2"
		},
		{
			"bufferView":3,
			"componentType":5123,
			"count":36,
			"type":"SCALAR"
		},
		{
			"bufferView":4,
			"componentType":5126,
			"count":32,
			"max":[
				0.5012868642807007,
				0.20185117423534393,
				0.5012868642807007
			],
			"min":[
				-0.061211585998535156,
				0,
				-1.5012868642807007
			],
			"type":"VEC3"
		},
		{
			"bufferView":5,
			"componentType":5126,
			"count":32,
			"type":"VEC3"
		},
		{
			"bufferView":6,
			"componentType":5126,
			"count":32,
			"type":"VEC2"
		},
		{
			"bufferView":7,
			"componentType":5123,
			"count":60,
			"type":"SCALAR"
		},
		{
			"bufferView":8,
			"componentType":5126,
			"count":34,
			"max":[
				-0.04792976379394531,
				0.3810814321041107,
				0.3221520781517029
			],
			"min":[
				-1.3221521377563477,
				0.20185117423534393,
				-0.06231963634490967
			],
			"type":"VEC3"
		},
		{
			"bufferView":9,
			"componentType":5126,
			"count":34,
			"type":"VEC3"
		},
		{
			"bufferView":10,
			"componentType":5126,
			"count":34,
			"type":"VEC2"
		},
		{
			"bufferView":11,
			"componentType":5123,
			"count":54,
			"type":"SCALAR"
		},
		{
			"bufferView":12,
			"componentType":5126,
			"count":48,
			"max":[
				0.3221520781517029,
				0.3810814321041107,
				0.3221520781517029
			],
			"min":[
				-0.061211585998535156,
				0.20185117423534393,
				-1.3221521377563477
			],
			"type":"VEC3"
		},
		{
			"bufferView":13,
			"componentType":5126,
			"count":48,
			"type":"VEC3"
		},
		{
			"bufferView":14,
			"componentType":5126,
			"count":48,
			"type":"VEC2"
		},
		{
			"bufferView":15,
			"componentType":5123,
			"count":90,
			"type":"SCALAR"
		},
		{
			"bufferView":16,
			"componentType":5126,
			"count":24,
			"max":[
				-0.04792976379394531,
				0.929050087928772,
				0.19804584980010986
			],
			"min":[
				-1.1980458498001099,
				0.3810814321041107,
				-0.06231963634490967
			],
			"type":"VEC3"
		},
		{
			"bufferView":17,
			"componentType":5126,
			"count":24,
			"type":"VEC3"
		},
		{
			"bufferView":18,
			"componentType":5126,
			"count":24,
			"type":"VEC2"
		},
		{
			"bufferView":19,
			"componentType":5123,
			"count":36,
			"type":"SCALAR"
		},
		{
			"bufferView":20,
			"componentType":5126,
			"count":32,
			"max":[
				0.19804584980010986,
				0.929050087928772,
				0.19804584980010986
			],
			"min":[
				-0.061211585998535156,
				0.3810814321041107,
				-1.1980458498001099
			],
			"type":"VEC3"
		},
		{
			"bufferView":21,
			"componentType":5126,
			"count":32,
			"type":"VEC3"
		},
		{
			"bufferView":22,
			"componentType":5126,
			"count":32,
			"type":"VEC2"
		},
		{
			"bufferView":23,
			"componentType":5123,
			"count":60,
			"type":"SCALAR"
		},
		{
			"bufferView":24,
			"componentType":5126,
			"count":44,
			"max":[
				-0.04792976379394531,
				1.067706823348999,
				0.2576756477355957
			],
			"min":[
				-1.2576756477355957,
				0.929050087928772,
				-0.06231963634490967
			],
			"type":"VEC3"
		},
		{
			"bufferView":25,
			"componentType":5126,
			"count":44,
			"type":"VEC3"
		},
		{
			"bufferView":26,
			"componentType":5126,
			"count":44,
			"type":"VEC2"
		},
		{
			"bufferView":27,
			"componentType":5123,
			"count":72,
			"type":"SCALAR"
		},
		{
			"bufferView":28,
			"componentType":5126,
			"count":64,
			"max":[
				0.2576756477355957,
				1.067706823348999,
				0.2576756477355957
			],
			"min":[
				-0.061211585998535156,
				0.929050087928772,
				-1.2576756477355957
			],
			"type":"VEC3"
		},
		{
			"bufferView":29,
			"componentType":5126,
			"count":64,
			"type":"VEC3"
		},
		{
			"bufferView":30,
			"componentType":5126,
			"count":64,
			"type":"VEC2"
		},
		{
			"bufferView":31,
			"componentType":5123,
			"count":120,
			"type":"SCALAR"
		},
		{
			"bufferView":32,
			"componentType":5126,
			"count":24,
			"max":[
				-0.04664000868797302,
				4,
				0.18957555294036865
			],
			"min":[
				-1.1895755529403687,
				1.067706823348999,
				-0.06231963634490967
			],
			"type":"VEC3"
		},
		{
			"bufferView":33,
			"componentType":5126,
			"count":24,
			"type":"VEC3"
		},
		{
			"bufferView":34,
			"componentType":5126,
			"count":24,
			"type":"VEC2"
		},
		{
			"bufferView":35,
			"componentType":5126,
			"count":32,
			"max":[
				0.18957555294036865,
				4,
				0.18957555294036865
			],
			"min":[
				-0.059921830892562866,
				1.067706823348999,
				-1.1895755529403687
			],
			"type":"VEC3"
		},
		{
			"bufferView":36,
			"componentType":5126,
			"count":32,
			"type":"VEC3"
		},
		{
			"bufferView":37,
			"componentType":5126,
			"count":32,
			"type":"VEC2"
		},
		{
			"bufferView":38,
			"componentType":5126,
			"count":444,
			"max":[
				0.5,
				3.999999761581421,
				0.5
			],
			"min":[
				-1.5,
				-2.384185791015625e-07,
				-1.5
			],
			"type":"VEC3"
		},
		{
			"bufferView":39,
			"componentType":5126,
			"count":444,
			"type":"VEC3"
		},
		{
			"bufferView":40,
			"componentType":5126,
			"count":444,
			"type":"VEC2"
		},
		{
			"bufferView":41,
			"componentType":5126,
			"count":444,
			"type":"VEC2"
		},
		{
			"bufferView":42,
			"componentType":5123,
			"count":762,
			"type":"SCALAR"
		},
		{
			"bufferView":43,
			"componentType":5126,
			"count":16,
			"max":[
				0.16788393259048462,
				0.8682814240455627,
				0.17523175477981567
			],
			"min":[
				-1.1678838729858398,
				0.44787561893463135,
				-1.175231695175171
			],
			"type":"VEC3"
		},
		{
			"bufferView":44,
			"componentType":5126,
			"count":16,
			"type":"VEC3"
		},
		{
			"bufferView":45,
			"componentType":5126,
			"count":16,
			"type":"VEC2"
		},
		{
			"bufferView":46,
			"componentType":5126,
			"count":16,
			"type":"VEC2"
		},
		{
			"bufferView":47,
			"componentType":5123,
			"count":24,
			"type":"SCALAR"
		}
	],
	"bufferViews":[
		{
			"buffer":0,
			"byteLength":288,
			"byteOffset":0,
			"target":34962
		},
		{
			"buffer":0,
			"byteLength":288,
			"byteOffset":288,
			"target":34962
		},
		{
			"buffer":0,
			"byteLength":192,
			"byteOffset":576,
			"target":34962
		},
		{
			"buffer":0,
			"byteLength":72,
			"byteOffset":768,
			"target":34963
		},
		{
			"buffer":0,
			"byteLength":384,
			"byteOffset":840,
			"target":34962
		},
		{
			"buffer":0,
			"byteLength":384,
			"byteOffset":1224,
			"target":34962
		},
		{
			"buffer":0,
			"byteLength":256,
			"byteOffset":1608,
			"target":34962
		},
		{
			"buffer":0,
			"byteLength":120,
			"byteOffset":1864,
			"target":34963
		},
		{
			"buffer":0,
			"byteLength":408,
			"byteOffset":1984,
			"target":34962
		},
		{
			"buffer":0,
			"byteLength":408,
			"byteOffset":2392,
			"target":34962
		},
		{
			"buffer":0,
			"byteLength":272,
			"byteOffset":2800,
			"target":34962
		},
		{
			"buffer":0,
			"byteLength":108,
			"byteOffset":3072,
			"target":34963
		},
		{
			"buffer":0,
			"byteLength":576,
			"byteOffset":3180,
			"target":34962
		},
		{
			"buffer":0,
			"byteLength":576,
			"byteOffset":3756,
			"target":34962
		},
		{
			"buffer":0,
			"byteLength":384,
			"byteOffset":4332,
			"target":34962
		},
		{
			"buffer":0,
			"byteLength":180,
			"byteOffset":4716,
			"target":34963
		},
		{
			"buffer":0,
			"byteLength":288,
			"byteOffset":4896,
			"target":34962
		},
		{
			"buffer":0,
			"byteLength":288,
			"byteOffset":5184,
			"target":34962
		},
		{
			"buffer":0,
			"byteLength":192,
			"byteOffset":5472,
			"target":34962
		},
		{
			"buffer":0,
			"byteLength":72,
			"byteOffset":5664,
			"target":34963
		},
		{
			"buffer":0,
			"byteLength":384,
			"byteOffset":5736,
			"target":34962
		},
		{
			"buffer":0,
			"byteLength":384,
			"byteOffset":6120,
			"target":34962
		},
		{
			"buffer":0,
			"byteLength":256,
			"byteOffset":6504,
			"target":34962
		},
		{
			"buffer":0,
			"byteLength":120,
			"byteOffset":6760,
			"target":34963
		},
		{
			"buffer":0,
			"byteLength":528,
			"byteOffset":6880,
			"target":34962
		},
		{
			"buffer":0,
			"byteLength":528,
			"byteOffset":7408,
			"target":34962
		},
		{
			"buffer":0,
			"byteLength":352,
			"byteOffset":7936,
			"target":34962
		},
		{
			"buffer":0,
			"byteLength":144,
			"byteOffset":8288,
			"target":34963
		},
		{
			"buffer":0,
			"byteLength":768,
			"byteOffset":8432,
			"target":34962
		},
		{
			"buffer":0,
			"byteLength":768,
			"byteOffset":9200,
			"target":34962
		},
		{
			"buffer":0,
			"byteLength":512,
			"byteOffset":9968,
			"target":34962
		},
		{
			"buffer":0,
			"byteLength":240,
			"byteOffset":10480,
			"target":34963
		},
		{
			"buffer":0,
			"byteLength":288,
			"byteOffset":10720,
			"target":34962
		},
		{
			"buffer":0,
			"byteLength":288,
			"byteOffset":11008,
			"target":34962
		},
		{
			"buffer":0,
			"byteLength":192,
			"byteOffset":11296,
			"target":34962
		},
		{
			"buffer":0,
			"byteLength":384,
			"byteOffset":11488,
			"target":34962
		},
		{
			"buffer":0,
			"byteLength":384,
			"byteOffset":11872,
			"target":34962
		},
		{
			"buffer":0,
			"byteLength":256,
			"byteOffset":12256,
			"target":34962
		},
		{
			"buffer":0,
			"byteLength":5328,
			"byteOffset":12512,
			"target":34962
		},
		{
			"buffer":0,
			"byteLength":5328,
			"byteOffset":17840,
			"target":34962
		},
		{
			"buffer":0,
			"byteLength":3552,
			"byteOffset":23168,
			"target":34962
		},
		{
			"buffer":0,
			"byteLength":3552,
			"byteOffset":26720,
			"target":34962
		},
		{
			"buffer":0,
			"byteLength":1524,
			"byteOffset":30272,
			"target":34963
		},
		{
			"buffer":0,
			"byteLength":192,
			"byteOffset":31796,
			"target":34962
		},
		{
			"buffer":0,
			"byteLength":192,
			"byteOffset":31988,
			"target":34962
		},
		{
			"buffer":0,
			"byteLength":128,
			"byteOffset":32180,
			"target":34962
		},
		{
			"buffer":0,
			"byteLength":128,
			"byteOffset":32308,
			"target":34962
		},
		{
			"buffer":0,
			"byteLength":48,
			"byteOffset":32436,
			"target":34963
		}
	],
	"samplers":[
		{
			"magFilter":9729,
			"minFilter":9987
		}
	],
	"buffers":[
		{
			"byteLength":32484,
			"uri":"Marble_ColumnInset_Large_Bottom.bin"
		}
	]
}
