{
	"asset":{
		"generator":"Khronos glTF Blender I/O v4.3.47",
		"version":"2.0"
	},
	"scene":0,
	"scenes":[
		{
			"name":"Scene",
			"nodes":[
				1
			]
		}
	],
	"nodes":[
		{
			"mesh":0,
			"name":"Marble_Window_Single_1-convcolonly"
		},
		{
			"children":[
				0
			],
			"mesh":1,
			"name":"Marble_Window_Single"
		}
	],
	"materials":[
		{
			"doubleSided":true,
			"name":"Collision",
			"pbrMetallicRoughness":{
				"baseColorFactor":[
					0.036788325756788254,
					0.5504099726676941,
					0.8000074625015259,
					1
				],
				"metallicFactor":0
			}
		},
		{
			"doubleSided":true,
			"name":"MI_Trim_MetalConcrete",
			"normalTexture":{
				"index":0
			},
			"pbrMetallicRoughness":{
				"baseColorTexture":{
					"index":1
				},
				"metallicRoughnessTexture":{
					"index":2
				}
			}
		},
		{
			"alphaMode":"BLEND",
			"doubleSided":true,
			"name":"MI_Glass",
			"pbrMetallicRoughness":{
				"baseColorFactor":[
					0.05215025693178177,
					0.05215025693178177,
					0.05215025693178177,
					0.586363673210144
				],
				"metallicFactor":0,
				"roughnessFactor":0.5
			}
		},
		{
			"doubleSided":true,
			"name":"MI_Trim",
			"normalTexture":{
				"index":3
			},
			"pbrMetallicRoughness":{
				"baseColorTexture":{
					"index":4
				},
				"metallicRoughnessTexture":{
					"index":5
				}
			}
		},
		{
			"doubleSided":true,
			"name":"MI_FakeInterior",
			"pbrMetallicRoughness":{
				"baseColorFactor":[
					0.800000011920929,
					0.800000011920929,
					0.800000011920929,
					1
				],
				"metallicFactor":0,
				"roughnessFactor":0.5
			}
		},
		{
			"doubleSided":true,
			"name":"MI_InteriorWall",
			"normalTexture":{
				"index":6
			},
			"pbrMetallicRoughness":{
				"baseColorTexture":{
					"index":7
				},
				"metallicRoughnessTexture":{
					"index":8
				}
			}
		}
	],
	"meshes":[
		{
			"name":"Cube.571",
			"primitives":[
				{
					"attributes":{
						"POSITION":0,
						"NORMAL":1,
						"TEXCOORD_0":2
					},
					"indices":3,
					"material":0
				}
			]
		},
		{
			"name":"Cube.222",
			"primitives":[
				{
					"attributes":{
						"POSITION":4,
						"NORMAL":5,
						"TEXCOORD_0":6,
						"TEXCOORD_1":7,
						"COLOR_0":8,
						"COLOR_1":9
					},
					"indices":10,
					"material":1
				},
				{
					"attributes":{
						"POSITION":11,
						"NORMAL":12,
						"TEXCOORD_0":13,
						"TEXCOORD_1":14,
						"COLOR_0":15,
						"COLOR_1":16
					},
					"indices":17,
					"material":2
				},
				{
					"attributes":{
						"POSITION":18,
						"NORMAL":19,
						"TEXCOORD_0":20,
						"TEXCOORD_1":21,
						"COLOR_0":22,
						"COLOR_1":23
					},
					"indices":24,
					"material":3
				},
				{
					"attributes":{
						"POSITION":25,
						"NORMAL":26,
						"TEXCOORD_0":27,
						"TEXCOORD_1":28,
						"COLOR_0":29,
						"COLOR_1":30
					},
					"indices":31,
					"material":4
				},
				{
					"attributes":{
						"POSITION":32,
						"NORMAL":33,
						"TEXCOORD_0":34,
						"TEXCOORD_1":35,
						"COLOR_0":36,
						"COLOR_1":37
					},
					"indices":38,
					"material":5
				}
			]
		}
	],
	"textures":[
		{
			"sampler":0,
			"source":0
		},
		{
			"sampler":0,
			"source":1
		},
		{
			"sampler":0,
			"source":2
		},
		{
			"sampler":0,
			"source":3
		},
		{
			"sampler":0,
			"source":4
		},
		{
			"sampler":0,
			"source":5
		},
		{
			"sampler":0,
			"source":6
		},
		{
			"sampler":0,
			"source":7
		},
		{
			"sampler":0,
			"source":8
		}
	],
	"images":[
		{
			"mimeType":"image/png",
			"name":"T_MetalConcrete_Normal",
			"uri":"../../materials/T_MetalConcrete_Normal.png"
		},
		{
			"mimeType":"image/png",
			"name":"T_MetalConcrete_BaseColor",
			"uri":"../../materials/T_MetalConcrete_BaseColor.png"
		},
		{
			"mimeType":"image/png",
			"name":"T_MetalConcrete_ORM",
			"uri":"../../materials/T_MetalConcrete_ORM.png"
		},
		{
			"mimeType":"image/png",
			"name":"T_Trim_Normal",
			"uri":"../../materials/T_Trim_Normal.png"
		},
		{
			"mimeType":"image/png",
			"name":"T_Trim_BaseColor",
			"uri":"../../materials/T_Trim_BaseColor.png"
		},
		{
			"mimeType":"image/png",
			"name":"T_Trim_ORM",
			"uri":"../../materials/T_Trim_ORM.png"
		},
		{
			"mimeType":"image/png",
			"name":"T_RedBrick_Normal",
			"uri":"../../materials/T_RedBrick_Normal.png"
		},
		{
			"mimeType":"image/png",
			"name":"T_RedBrick_BaseColor",
			"uri":"../../materials/T_RedBrick_BaseColor.png"
		},
		{
			"mimeType":"image/png",
			"name":"T_RedBrick_ORM",
			"uri":"../../materials/T_RedBrick_ORM.png"
		}
	],
	"accessors":[
		{
			"bufferView":0,
			"componentType":5126,
			"count":24,
			"max":[
				2.0000007152557373,
				3,
				0
			],
			"min":[
				-2.0000007152557373,
				0,
				-0.19999998807907104
			],
			"type":"VEC3"
		},
		{
			"bufferView":1,
			"componentType":5126,
			"count":24,
			"type":"VEC3"
		},
		{
			"bufferView":2,
			"componentType":5126,
			"count":24,
			"type":"VEC2"
		},
		{
			"bufferView":3,
			"componentType":5123,
			"count":36,
			"type":"SCALAR"
		},
		{
			"bufferView":4,
			"componentType":5126,
			"count":220,
			"max":[
				0.3714212477207184,
				2.5159378051757812,
				-0.05162134766578674
			],
			"min":[
				-0.3648757040500641,
				0.5017309188842773,
				-0.2778746485710144
			],
			"type":"VEC3"
		},
		{
			"bufferView":5,
			"componentType":5126,
			"count":220,
			"type":"VEC3"
		},
		{
			"bufferView":6,
			"componentType":5126,
			"count":220,
			"type":"VEC2"
		},
		{
			"bufferView":7,
			"componentType":5126,
			"count":220,
			"type":"VEC2"
		},
		{
			"bufferView":8,
			"componentType":5121,
			"count":220,
			"normalized":true,
			"type":"VEC4"
		},
		{
			"bufferView":9,
			"componentType":5123,
			"count":220,
			"normalized":true,
			"type":"VEC4"
		},
		{
			"bufferView":10,
			"componentType":5123,
			"count":408,
			"type":"SCALAR"
		},
		{
			"bufferView":11,
			"componentType":5126,
			"count":12,
			"max":[
				0.307951956987381,
				2.46071195602417,
				-0.16474799811840057
			],
			"min":[
				-0.301406592130661,
				0.5646083354949951,
				-0.16474799811840057
			],
			"type":"VEC3"
		},
		{
			"bufferView":12,
			"componentType":5126,
			"count":12,
			"type":"VEC3"
		},
		{
			"bufferView":13,
			"componentType":5126,
			"count":12,
			"type":"VEC2"
		},
		{
			"bufferView":14,
			"componentType":5126,
			"count":12,
			"type":"VEC2"
		},
		{
			"bufferView":15,
			"componentType":5121,
			"count":12,
			"normalized":true,
			"type":"VEC4"
		},
		{
			"bufferView":16,
			"componentType":5123,
			"count":12,
			"normalized":true,
			"type":"VEC4"
		},
		{
			"bufferView":17,
			"componentType":5123,
			"count":24,
			"type":"SCALAR"
		},
		{
			"bufferView":18,
			"componentType":5126,
			"count":84,
			"max":[
				2,
				3,
				1.3113415775478643e-07
			],
			"min":[
				-2,
				0,
				-0.18446576595306396
			],
			"type":"VEC3"
		},
		{
			"bufferView":19,
			"componentType":5126,
			"count":84,
			"type":"VEC3"
		},
		{
			"bufferView":20,
			"componentType":5126,
			"count":84,
			"type":"VEC2"
		},
		{
			"bufferView":21,
			"componentType":5126,
			"count":84,
			"type":"VEC2"
		},
		{
			"bufferView":22,
			"componentType":5121,
			"count":84,
			"normalized":true,
			"type":"VEC4"
		},
		{
			"bufferView":23,
			"componentType":5123,
			"count":84,
			"normalized":true,
			"type":"VEC4"
		},
		{
			"bufferView":24,
			"componentType":5123,
			"count":168,
			"type":"SCALAR"
		},
		{
			"bufferView":25,
			"componentType":5126,
			"count":4,
			"max":[
				1.4260249137878418,
				2.8756752014160156,
				-0.1970006227493286
			],
			"min":[
				-1.4260249137878418,
				0.09556138515472412,
				-0.1970006227493286
			],
			"type":"VEC3"
		},
		{
			"bufferView":26,
			"componentType":5126,
			"count":4,
			"type":"VEC3"
		},
		{
			"bufferView":27,
			"componentType":5126,
			"count":4,
			"type":"VEC2"
		},
		{
			"bufferView":28,
			"componentType":5126,
			"count":4,
			"type":"VEC2"
		},
		{
			"bufferView":29,
			"componentType":5121,
			"count":4,
			"normalized":true,
			"type":"VEC4"
		},
		{
			"bufferView":30,
			"componentType":5123,
			"count":4,
			"normalized":true,
			"type":"VEC4"
		},
		{
			"bufferView":31,
			"componentType":5123,
			"count":6,
			"type":"SCALAR"
		},
		{
			"bufferView":32,
			"componentType":5126,
			"count":24,
			"max":[
				2,
				3.000000476837158,
				-0.2000000923871994
			],
			"min":[
				-2,
				0,
				-0.2000000923871994
			],
			"type":"VEC3"
		},
		{
			"bufferView":33,
			"componentType":5126,
			"count":24,
			"type":"VEC3"
		},
		{
			"bufferView":34,
			"componentType":5126,
			"count":24,
			"type":"VEC2"
		},
		{
			"bufferView":35,
			"componentType":5126,
			"count":24,
			"type":"VEC2"
		},
		{
			"bufferView":36,
			"componentType":5121,
			"count":24,
			"normalized":true,
			"type":"VEC4"
		},
		{
			"bufferView":37,
			"componentType":5123,
			"count":24,
			"normalized":true,
			"type":"VEC4"
		},
		{
			"bufferView":38,
			"componentType":5123,
			"count":60,
			"type":"SCALAR"
		}
	],
	"bufferViews":[
		{
			"buffer":0,
			"byteLength":288,
			"byteOffset":0,
			"target":34962
		},
		{
			"buffer":0,
			"byteLength":288,
			"byteOffset":288,
			"target":34962
		},
		{
			"buffer":0,
			"byteLength":192,
			"byteOffset":576,
			"target":34962
		},
		{
			"buffer":0,
			"byteLength":72,
			"byteOffset":768,
			"target":34963
		},
		{
			"buffer":0,
			"byteLength":2640,
			"byteOffset":840,
			"target":34962
		},
		{
			"buffer":0,
			"byteLength":2640,
			"byteOffset":3480,
			"target":34962
		},
		{
			"buffer":0,
			"byteLength":1760,
			"byteOffset":6120,
			"target":34962
		},
		{
			"buffer":0,
			"byteLength":1760,
			"byteOffset":7880,
			"target":34962
		},
		{
			"buffer":0,
			"byteLength":880,
			"byteOffset":9640,
			"target":34962
		},
		{
			"buffer":0,
			"byteLength":1760,
			"byteOffset":10520,
			"target":34962
		},
		{
			"buffer":0,
			"byteLength":816,
			"byteOffset":12280,
			"target":34963
		},
		{
			"buffer":0,
			"byteLength":144,
			"byteOffset":13096,
			"target":34962
		},
		{
			"buffer":0,
			"byteLength":144,
			"byteOffset":13240,
			"target":34962
		},
		{
			"buffer":0,
			"byteLength":96,
			"byteOffset":13384,
			"target":34962
		},
		{
			"buffer":0,
			"byteLength":96,
			"byteOffset":13480,
			"target":34962
		},
		{
			"buffer":0,
			"byteLength":48,
			"byteOffset":13576,
			"target":34962
		},
		{
			"buffer":0,
			"byteLength":96,
			"byteOffset":13624,
			"target":34962
		},
		{
			"buffer":0,
			"byteLength":48,
			"byteOffset":13720,
			"target":34963
		},
		{
			"buffer":0,
			"byteLength":1008,
			"byteOffset":13768,
			"target":34962
		},
		{
			"buffer":0,
			"byteLength":1008,
			"byteOffset":14776,
			"target":34962
		},
		{
			"buffer":0,
			"byteLength":672,
			"byteOffset":15784,
			"target":34962
		},
		{
			"buffer":0,
			"byteLength":672,
			"byteOffset":16456,
			"target":34962
		},
		{
			"buffer":0,
			"byteLength":336,
			"byteOffset":17128,
			"target":34962
		},
		{
			"buffer":0,
			"byteLength":672,
			"byteOffset":17464,
			"target":34962
		},
		{
			"buffer":0,
			"byteLength":336,
			"byteOffset":18136,
			"target":34963
		},
		{
			"buffer":0,
			"byteLength":48,
			"byteOffset":18472,
			"target":34962
		},
		{
			"buffer":0,
			"byteLength":48,
			"byteOffset":18520,
			"target":34962
		},
		{
			"buffer":0,
			"byteLength":32,
			"byteOffset":18568,
			"target":34962
		},
		{
			"buffer":0,
			"byteLength":32,
			"byteOffset":18600,
			"target":34962
		},
		{
			"buffer":0,
			"byteLength":16,
			"byteOffset":18632,
			"target":34962
		},
		{
			"buffer":0,
			"byteLength":32,
			"byteOffset":18648,
			"target":34962
		},
		{
			"buffer":0,
			"byteLength":12,
			"byteOffset":18680,
			"target":34963
		},
		{
			"buffer":0,
			"byteLength":288,
			"byteOffset":18692,
			"target":34962
		},
		{
			"buffer":0,
			"byteLength":288,
			"byteOffset":18980,
			"target":34962
		},
		{
			"buffer":0,
			"byteLength":192,
			"byteOffset":19268,
			"target":34962
		},
		{
			"buffer":0,
			"byteLength":192,
			"byteOffset":19460,
			"target":34962
		},
		{
			"buffer":0,
			"byteLength":96,
			"byteOffset":19652,
			"target":34962
		},
		{
			"buffer":0,
			"byteLength":192,
			"byteOffset":19748,
			"target":34962
		},
		{
			"buffer":0,
			"byteLength":120,
			"byteOffset":19940,
			"target":34963
		}
	],
	"samplers":[
		{
			"magFilter":9729,
			"minFilter":9987
		}
	],
	"buffers":[
		{
			"byteLength":20060,
			"uri":"Marble_Window_Single.bin"
		}
	]
}
