{
	"asset":{
		"generator":"Khronos glTF Blender I/O v4.3.47",
		"version":"2.0"
	},
	"scene":0,
	"scenes":[
		{
			"name":"Scene",
			"nodes":[
				3
			]
		}
	],
	"nodes":[
		{
			"mesh":0,
			"name":"Marble_BevelColumn_Bottom_1-convcolonly"
		},
		{
			"mesh":1,
			"name":"Marble_BevelColumn_Bottom_2-convcolonly"
		},
		{
			"mesh":2,
			"name":"Marble_BevelColumn_Bottom_3-convcolonly"
		},
		{
			"children":[
				0,
				1,
				2
			],
			"mesh":3,
			"name":"Marble_BevelColumn_Bottom"
		}
	],
	"materials":[
		{
			"doubleSided":true,
			"name":"Collision",
			"pbrMetallicRoughness":{
				"baseColorFactor":[
					0.036788325756788254,
					0.5504099726676941,
					0.8000074625015259,
					1
				],
				"metallicFactor":0
			}
		},
		{
			"doubleSided":true,
			"name":"MI_Trim",
			"normalTexture":{
				"index":0
			},
			"pbrMetallicRoughness":{
				"baseColorTexture":{
					"index":1
				},
				"metallicRoughnessTexture":{
					"index":2
				}
			}
		}
	],
	"meshes":[
		{
			"name":"Cube.442",
			"primitives":[
				{
					"attributes":{
						"POSITION":0,
						"NORMAL":1,
						"TEXCOORD_0":2
					},
					"indices":3,
					"material":0
				}
			]
		},
		{
			"name":"Cube.443",
			"primitives":[
				{
					"attributes":{
						"POSITION":4,
						"NORMAL":5,
						"TEXCOORD_0":6
					},
					"indices":7,
					"material":0
				}
			]
		},
		{
			"name":"Cube.455",
			"primitives":[
				{
					"attributes":{
						"POSITION":8,
						"NORMAL":9,
						"TEXCOORD_0":10
					},
					"indices":11,
					"material":0
				}
			]
		},
		{
			"name":"Cube.035",
			"primitives":[
				{
					"attributes":{
						"POSITION":12,
						"NORMAL":13,
						"TEXCOORD_0":14,
						"TEXCOORD_1":15
					},
					"indices":16,
					"material":1
				}
			]
		}
	],
	"textures":[
		{
			"sampler":0,
			"source":0
		},
		{
			"sampler":0,
			"source":1
		},
		{
			"sampler":0,
			"source":2
		}
	],
	"images":[
		{
			"mimeType":"image/png",
			"name":"T_Trim_Normal",
			"uri":"../../materials/T_Trim_Normal.png"
		},
		{
			"mimeType":"image/png",
			"name":"T_Trim_BaseColor",
			"uri":"../../materials/T_Trim_BaseColor.png"
		},
		{
			"mimeType":"image/png",
			"name":"T_Trim_ORM",
			"uri":"../../materials/T_Trim_ORM.png"
		}
	],
	"accessors":[
		{
			"bufferView":0,
			"componentType":5126,
			"count":36,
			"max":[
				0.2999999523162842,
				4,
				0.21270616352558136
			],
			"min":[
				-0.3000001311302185,
				0,
				0
			],
			"type":"VEC3"
		},
		{
			"bufferView":1,
			"componentType":5126,
			"count":36,
			"type":"VEC3"
		},
		{
			"bufferView":2,
			"componentType":5126,
			"count":36,
			"type":"VEC2"
		},
		{
			"bufferView":3,
			"componentType":5123,
			"count":60,
			"type":"SCALAR"
		},
		{
			"bufferView":4,
			"componentType":5126,
			"count":36,
			"max":[
				0.38814079761505127,
				0.20672225952148438,
				0.3085780739784241
			],
			"min":[
				-0.3881431221961975,
				0,
				-0.02865453250706196
			],
			"type":"VEC3"
		},
		{
			"bufferView":5,
			"componentType":5126,
			"count":36,
			"type":"VEC3"
		},
		{
			"bufferView":6,
			"componentType":5126,
			"count":36,
			"type":"VEC2"
		},
		{
			"bufferView":7,
			"componentType":5123,
			"count":60,
			"type":"SCALAR"
		},
		{
			"bufferView":8,
			"componentType":5126,
			"count":58,
			"max":[
				0.36007586121559143,
				1.532942771911621,
				0.31680047512054443
			],
			"min":[
				-0.3600773811340332,
				1.2671797275543213,
				-0.00884654838591814
			],
			"type":"VEC3"
		},
		{
			"bufferView":9,
			"componentType":5126,
			"count":58,
			"type":"VEC3"
		},
		{
			"bufferView":10,
			"componentType":5126,
			"count":58,
			"type":"VEC2"
		},
		{
			"bufferView":11,
			"componentType":5123,
			"count":96,
			"type":"SCALAR"
		},
		{
			"bufferView":12,
			"componentType":5126,
			"count":328,
			"max":[
				0.3844025731086731,
				4,
				0.3002515733242035
			],
			"min":[
				-0.3844025731086731,
				0,
				-0.0023827524855732918
			],
			"type":"VEC3"
		},
		{
			"bufferView":13,
			"componentType":5126,
			"count":328,
			"type":"VEC3"
		},
		{
			"bufferView":14,
			"componentType":5126,
			"count":328,
			"type":"VEC2"
		},
		{
			"bufferView":15,
			"componentType":5126,
			"count":328,
			"type":"VEC2"
		},
		{
			"bufferView":16,
			"componentType":5123,
			"count":504,
			"type":"SCALAR"
		}
	],
	"bufferViews":[
		{
			"buffer":0,
			"byteLength":432,
			"byteOffset":0,
			"target":34962
		},
		{
			"buffer":0,
			"byteLength":432,
			"byteOffset":432,
			"target":34962
		},
		{
			"buffer":0,
			"byteLength":288,
			"byteOffset":864,
			"target":34962
		},
		{
			"buffer":0,
			"byteLength":120,
			"byteOffset":1152,
			"target":34963
		},
		{
			"buffer":0,
			"byteLength":432,
			"byteOffset":1272,
			"target":34962
		},
		{
			"buffer":0,
			"byteLength":432,
			"byteOffset":1704,
			"target":34962
		},
		{
			"buffer":0,
			"byteLength":288,
			"byteOffset":2136,
			"target":34962
		},
		{
			"buffer":0,
			"byteLength":120,
			"byteOffset":2424,
			"target":34963
		},
		{
			"buffer":0,
			"byteLength":696,
			"byteOffset":2544,
			"target":34962
		},
		{
			"buffer":0,
			"byteLength":696,
			"byteOffset":3240,
			"target":34962
		},
		{
			"buffer":0,
			"byteLength":464,
			"byteOffset":3936,
			"target":34962
		},
		{
			"buffer":0,
			"byteLength":192,
			"byteOffset":4400,
			"target":34963
		},
		{
			"buffer":0,
			"byteLength":3936,
			"byteOffset":4592,
			"target":34962
		},
		{
			"buffer":0,
			"byteLength":3936,
			"byteOffset":8528,
			"target":34962
		},
		{
			"buffer":0,
			"byteLength":2624,
			"byteOffset":12464,
			"target":34962
		},
		{
			"buffer":0,
			"byteLength":2624,
			"byteOffset":15088,
			"target":34962
		},
		{
			"buffer":0,
			"byteLength":1008,
			"byteOffset":17712,
			"target":34963
		}
	],
	"samplers":[
		{
			"magFilter":9729,
			"minFilter":9987
		}
	],
	"buffers":[
		{
			"byteLength":18720,
			"uri":"Marble_BevelColumn_Bottom.bin"
		}
	]
}
