{
	"asset":{
		"generator":"Khronos glTF Blender I/O v4.3.47",
		"version":"2.0"
	},
	"scene":0,
	"scenes":[
		{
			"name":"Scene",
			"nodes":[
				9
			]
		}
	],
	"nodes":[
		{
			"mesh":0,
			"name":"Marble_WindowTriple_1-convcolonly"
		},
		{
			"mesh":1,
			"name":"Marble_WindowTriple_2-convcolonly"
		},
		{
			"mesh":2,
			"name":"Marble_WindowTriple_3-convcolonly"
		},
		{
			"mesh":3,
			"name":"Marble_WindowTriple_4-convcolonly"
		},
		{
			"mesh":4,
			"name":"Marble_WindowTriple_5-convcolonly"
		},
		{
			"mesh":5,
			"name":"Marble_WindowTriple_6-convcolonly"
		},
		{
			"mesh":6,
			"name":"Marble_WindowTriple_7-convcolonly"
		},
		{
			"mesh":7,
			"name":"Marble_WindowTriple_8-convcolonly"
		},
		{
			"mesh":8,
			"name":"Marble_WindowTriple_9-convcolonly"
		},
		{
			"children":[
				0,
				1,
				2,
				3,
				4,
				5,
				6,
				7,
				8
			],
			"mesh":9,
			"name":"Marble_WindowTriple"
		}
	],
	"materials":[
		{
			"doubleSided":true,
			"name":"Collision",
			"pbrMetallicRoughness":{
				"baseColorFactor":[
					0.036788325756788254,
					0.5504099726676941,
					0.8000074625015259,
					1
				],
				"metallicFactor":0
			}
		},
		{
			"doubleSided":true,
			"name":"MI_Trim",
			"normalTexture":{
				"index":0
			},
			"pbrMetallicRoughness":{
				"baseColorTexture":{
					"index":1
				},
				"metallicRoughnessTexture":{
					"index":2
				}
			}
		},
		{
			"doubleSided":true,
			"name":"MI_Trim_MetalConcrete",
			"normalTexture":{
				"index":3
			},
			"pbrMetallicRoughness":{
				"baseColorTexture":{
					"index":4
				},
				"metallicRoughnessTexture":{
					"index":5
				}
			}
		},
		{
			"alphaMode":"BLEND",
			"doubleSided":true,
			"name":"MI_Glass",
			"pbrMetallicRoughness":{
				"baseColorFactor":[
					0.05215025693178177,
					0.05215025693178177,
					0.05215025693178177,
					0.586363673210144
				],
				"metallicFactor":0,
				"roughnessFactor":0.5
			}
		},
		{
			"doubleSided":true,
			"name":"MI_Ornaments",
			"normalTexture":{
				"index":6
			},
			"pbrMetallicRoughness":{
				"baseColorTexture":{
					"index":7
				},
				"metallicRoughnessTexture":{
					"index":8
				}
			}
		},
		{
			"doubleSided":true,
			"name":"MI_FakeInterior",
			"pbrMetallicRoughness":{
				"baseColorFactor":[
					0.800000011920929,
					0.800000011920929,
					0.800000011920929,
					1
				],
				"metallicFactor":0,
				"roughnessFactor":0.5
			}
		},
		{
			"doubleSided":true,
			"name":"MI_InteriorWall",
			"normalTexture":{
				"index":9
			},
			"pbrMetallicRoughness":{
				"baseColorTexture":{
					"index":10
				},
				"metallicRoughnessTexture":{
					"index":11
				}
			}
		}
	],
	"meshes":[
		{
			"name":"Cube.591",
			"primitives":[
				{
					"attributes":{
						"POSITION":0,
						"NORMAL":1,
						"TEXCOORD_0":2,
						"TEXCOORD_1":3,
						"COLOR_0":4,
						"COLOR_1":5
					},
					"indices":6,
					"material":0
				}
			]
		},
		{
			"name":"Cube.592",
			"primitives":[
				{
					"attributes":{
						"POSITION":7,
						"NORMAL":8,
						"TEXCOORD_0":9,
						"TEXCOORD_1":10,
						"COLOR_0":11,
						"COLOR_1":12
					},
					"indices":13,
					"material":0
				}
			]
		},
		{
			"name":"Cube.593",
			"primitives":[
				{
					"attributes":{
						"POSITION":14,
						"NORMAL":15,
						"TEXCOORD_0":16,
						"TEXCOORD_1":17,
						"COLOR_0":18,
						"COLOR_1":19
					},
					"indices":20,
					"material":0
				}
			]
		},
		{
			"name":"Cube.594",
			"primitives":[
				{
					"attributes":{
						"POSITION":21,
						"NORMAL":22,
						"TEXCOORD_0":23,
						"TEXCOORD_1":24,
						"COLOR_0":25,
						"COLOR_1":26
					},
					"indices":20,
					"material":0
				}
			]
		},
		{
			"name":"Cube.595",
			"primitives":[
				{
					"attributes":{
						"POSITION":27,
						"NORMAL":28,
						"TEXCOORD_0":29,
						"TEXCOORD_1":30,
						"COLOR_0":31,
						"COLOR_1":32
					},
					"indices":33,
					"material":0
				}
			]
		},
		{
			"name":"Cube.596",
			"primitives":[
				{
					"attributes":{
						"POSITION":34,
						"NORMAL":35,
						"TEXCOORD_0":36,
						"TEXCOORD_1":37,
						"COLOR_0":38,
						"COLOR_1":39
					},
					"indices":40,
					"material":0
				}
			]
		},
		{
			"name":"Cube.597",
			"primitives":[
				{
					"attributes":{
						"POSITION":41,
						"NORMAL":42,
						"TEXCOORD_0":43,
						"TEXCOORD_1":44,
						"COLOR_0":45,
						"COLOR_1":46
					},
					"indices":47,
					"material":0
				}
			]
		},
		{
			"name":"Cube.598",
			"primitives":[
				{
					"attributes":{
						"POSITION":48,
						"NORMAL":49,
						"TEXCOORD_0":50,
						"TEXCOORD_1":51,
						"COLOR_0":52,
						"COLOR_1":53
					},
					"indices":47,
					"material":0
				}
			]
		},
		{
			"name":"Cube.599",
			"primitives":[
				{
					"attributes":{
						"POSITION":54,
						"NORMAL":55,
						"TEXCOORD_0":56,
						"TEXCOORD_1":57,
						"COLOR_0":58,
						"COLOR_1":59
					},
					"indices":47,
					"material":0
				}
			]
		},
		{
			"name":"Cube.033",
			"primitives":[
				{
					"attributes":{
						"POSITION":60,
						"NORMAL":61,
						"TEXCOORD_0":62,
						"TEXCOORD_1":63,
						"COLOR_0":64
					},
					"indices":65,
					"material":1
				},
				{
					"attributes":{
						"POSITION":66,
						"NORMAL":67,
						"TEXCOORD_0":68,
						"TEXCOORD_1":69,
						"COLOR_0":70
					},
					"indices":71,
					"material":2
				},
				{
					"attributes":{
						"POSITION":72,
						"NORMAL":73,
						"TEXCOORD_0":74,
						"TEXCOORD_1":75,
						"COLOR_0":76
					},
					"indices":77,
					"material":3
				},
				{
					"attributes":{
						"POSITION":78,
						"NORMAL":79,
						"TEXCOORD_0":80,
						"TEXCOORD_1":81,
						"COLOR_0":82
					},
					"indices":83,
					"material":4
				},
				{
					"attributes":{
						"POSITION":84,
						"NORMAL":85,
						"TEXCOORD_0":86,
						"TEXCOORD_1":87,
						"COLOR_0":88
					},
					"indices":89,
					"material":5
				},
				{
					"attributes":{
						"POSITION":90,
						"NORMAL":91,
						"TEXCOORD_0":92,
						"TEXCOORD_1":93,
						"COLOR_0":94
					},
					"indices":95,
					"material":6
				}
			]
		}
	],
	"textures":[
		{
			"sampler":0,
			"source":0
		},
		{
			"sampler":0,
			"source":1
		},
		{
			"sampler":0,
			"source":2
		},
		{
			"sampler":0,
			"source":3
		},
		{
			"sampler":0,
			"source":4
		},
		{
			"sampler":0,
			"source":5
		},
		{
			"sampler":0,
			"source":6
		},
		{
			"sampler":0,
			"source":7
		},
		{
			"sampler":0,
			"source":8
		},
		{
			"sampler":0,
			"source":9
		},
		{
			"sampler":0,
			"source":10
		},
		{
			"sampler":0,
			"source":11
		}
	],
	"images":[
		{
			"mimeType":"image/png",
			"name":"T_Trim_Normal",
			"uri":"../../materials/T_Trim_Normal.png"
		},
		{
			"mimeType":"image/png",
			"name":"T_Trim_BaseColor",
			"uri":"../../materials/T_Trim_BaseColor.png"
		},
		{
			"mimeType":"image/png",
			"name":"T_Trim_ORM",
			"uri":"../../materials/T_Trim_ORM.png"
		},
		{
			"mimeType":"image/png",
			"name":"T_MetalConcrete_Normal",
			"uri":"../../materials/T_MetalConcrete_Normal.png"
		},
		{
			"mimeType":"image/png",
			"name":"T_MetalConcrete_BaseColor",
			"uri":"../../materials/T_MetalConcrete_BaseColor.png"
		},
		{
			"mimeType":"image/png",
			"name":"T_MetalConcrete_ORM",
			"uri":"../../materials/T_MetalConcrete_ORM.png"
		},
		{
			"mimeType":"image/png",
			"name":"T_Ornaments_Normal",
			"uri":"../../materials/T_Ornaments_Normal.png"
		},
		{
			"mimeType":"image/png",
			"name":"T_Ornaments_BaseColor",
			"uri":"../../materials/T_Ornaments_BaseColor.png"
		},
		{
			"mimeType":"image/png",
			"name":"T_Ornaments_ORM",
			"uri":"../../materials/T_Ornaments_ORM.png"
		},
		{
			"mimeType":"image/png",
			"name":"T_RedBrick_Normal",
			"uri":"../../materials/T_RedBrick_Normal.png"
		},
		{
			"mimeType":"image/png",
			"name":"T_RedBrick_BaseColor",
			"uri":"../../materials/T_RedBrick_BaseColor.png"
		},
		{
			"mimeType":"image/png",
			"name":"T_RedBrick_ORM",
			"uri":"../../materials/T_RedBrick_ORM.png"
		}
	],
	"accessors":[
		{
			"bufferView":0,
			"componentType":5126,
			"count":24,
			"max":[
				1.4781851768493652,
				4.001242637634277,
				0.036465078592300415
			],
			"min":[
				-1.4652013778686523,
				3.789902925491333,
				-0.19999998807907104
			],
			"type":"VEC3"
		},
		{
			"bufferView":1,
			"componentType":5126,
			"count":24,
			"type":"VEC3"
		},
		{
			"bufferView":2,
			"componentType":5126,
			"count":24,
			"type":"VEC2"
		},
		{
			"bufferView":3,
			"componentType":5126,
			"count":24,
			"type":"VEC2"
		},
		{
			"bufferView":4,
			"componentType":5121,
			"count":24,
			"normalized":true,
			"type":"VEC4"
		},
		{
			"bufferView":5,
			"componentType":5123,
			"count":24,
			"normalized":true,
			"type":"VEC4"
		},
		{
			"bufferView":6,
			"componentType":5123,
			"count":36,
			"type":"SCALAR"
		},
		{
			"bufferView":7,
			"componentType":5126,
			"count":24,
			"max":[
				1.4781851768493652,
				3.810821294784546,
				-0.10815998166799545
			],
			"min":[
				-1.455676555633545,
				1.012331247329712,
				-0.2000000923871994
			],
			"type":"VEC3"
		},
		{
			"bufferView":8,
			"componentType":5126,
			"count":24,
			"type":"VEC3"
		},
		{
			"bufferView":9,
			"componentType":5126,
			"count":24,
			"type":"VEC2"
		},
		{
			"bufferView":10,
			"componentType":5126,
			"count":24,
			"type":"VEC2"
		},
		{
			"bufferView":11,
			"componentType":5121,
			"count":24,
			"normalized":true,
			"type":"VEC4"
		},
		{
			"bufferView":12,
			"componentType":5123,
			"count":24,
			"normalized":true,
			"type":"VEC4"
		},
		{
			"bufferView":13,
			"componentType":5123,
			"count":36,
			"type":"SCALAR"
		},
		{
			"bufferView":14,
			"componentType":5126,
			"count":24,
			"max":[
				1.4425441026687622,
				1.038145899772644,
				0.09416462481021881
			],
			"min":[
				-1.420035481452942,
				0.8838193416595459,
				-0.2000000923871994
			],
			"type":"VEC3"
		},
		{
			"bufferView":15,
			"componentType":5126,
			"count":24,
			"type":"VEC3"
		},
		{
			"bufferView":16,
			"componentType":5126,
			"count":24,
			"type":"VEC2"
		},
		{
			"bufferView":17,
			"componentType":5126,
			"count":24,
			"type":"VEC2"
		},
		{
			"bufferView":18,
			"componentType":5121,
			"count":24,
			"normalized":true,
			"type":"VEC4"
		},
		{
			"bufferView":19,
			"componentType":5123,
			"count":24,
			"normalized":true,
			"type":"VEC4"
		},
		{
			"bufferView":20,
			"componentType":5123,
			"count":36,
			"type":"SCALAR"
		},
		{
			"bufferView":21,
			"componentType":5126,
			"count":24,
			"max":[
				1.4425441026687622,
				0.8838193416595459,
				0.0020142942667007446
			],
			"min":[
				-1.420035481452942,
				0,
				-0.2000000923871994
			],
			"type":"VEC3"
		},
		{
			"bufferView":22,
			"componentType":5126,
			"count":24,
			"type":"VEC3"
		},
		{
			"bufferView":23,
			"componentType":5126,
			"count":24,
			"type":"VEC2"
		},
		{
			"bufferView":24,
			"componentType":5126,
			"count":24,
			"type":"VEC2"
		},
		{
			"bufferView":25,
			"componentType":5121,
			"count":24,
			"normalized":true,
			"type":"VEC4"
		},
		{
			"bufferView":26,
			"componentType":5123,
			"count":24,
			"normalized":true,
			"type":"VEC4"
		},
		{
			"bufferView":27,
			"componentType":5126,
			"count":24,
			"max":[
				-1.3999993801116943,
				3.999999761581421,
				0
			],
			"min":[
				-2.0000007152557373,
				0,
				-0.19999998807907104
			],
			"type":"VEC3"
		},
		{
			"bufferView":28,
			"componentType":5126,
			"count":24,
			"type":"VEC3"
		},
		{
			"bufferView":29,
			"componentType":5126,
			"count":24,
			"type":"VEC2"
		},
		{
			"bufferView":30,
			"componentType":5126,
			"count":24,
			"type":"VEC2"
		},
		{
			"bufferView":31,
			"componentType":5121,
			"count":24,
			"normalized":true,
			"type":"VEC4"
		},
		{
			"bufferView":32,
			"componentType":5123,
			"count":24,
			"normalized":true,
			"type":"VEC4"
		},
		{
			"bufferView":33,
			"componentType":5123,
			"count":36,
			"type":"SCALAR"
		},
		{
			"bufferView":34,
			"componentType":5126,
			"count":24,
			"max":[
				2.0000007152557373,
				3.999999761581421,
				0
			],
			"min":[
				1.3999993801116943,
				0,
				-0.19999998807907104
			],
			"type":"VEC3"
		},
		{
			"bufferView":35,
			"componentType":5126,
			"count":24,
			"type":"VEC3"
		},
		{
			"bufferView":36,
			"componentType":5126,
			"count":24,
			"type":"VEC2"
		},
		{
			"bufferView":37,
			"componentType":5126,
			"count":24,
			"type":"VEC2"
		},
		{
			"bufferView":38,
			"componentType":5121,
			"count":24,
			"normalized":true,
			"type":"VEC4"
		},
		{
			"bufferView":39,
			"componentType":5123,
			"count":24,
			"normalized":true,
			"type":"VEC4"
		},
		{
			"bufferView":40,
			"componentType":5123,
			"count":36,
			"type":"SCALAR"
		},
		{
			"bufferView":41,
			"componentType":5126,
			"count":24,
			"max":[
				1.2705730199813843,
				3.6687300205230713,
				-0.19999998807907104
			],
			"min":[
				0.5943320989608765,
				1.1590689420700073,
				-0.24176719784736633
			],
			"type":"VEC3"
		},
		{
			"bufferView":42,
			"componentType":5126,
			"count":24,
			"type":"VEC3"
		},
		{
			"bufferView":43,
			"componentType":5126,
			"count":24,
			"type":"VEC2"
		},
		{
			"bufferView":44,
			"componentType":5126,
			"count":24,
			"type":"VEC2"
		},
		{
			"bufferView":45,
			"componentType":5121,
			"count":24,
			"normalized":true,
			"type":"VEC4"
		},
		{
			"bufferView":46,
			"componentType":5123,
			"count":24,
			"normalized":true,
			"type":"VEC4"
		},
		{
			"bufferView":47,
			"componentType":5123,
			"count":36,
			"type":"SCALAR"
		},
		{
			"bufferView":48,
			"componentType":5126,
			"count":24,
			"max":[
				0.34012502431869507,
				3.6687300205230713,
				-0.19999998807907104
			],
			"min":[
				-0.33611589670181274,
				1.1590689420700073,
				-0.24176719784736633
			],
			"type":"VEC3"
		},
		{
			"bufferView":49,
			"componentType":5126,
			"count":24,
			"type":"VEC3"
		},
		{
			"bufferView":50,
			"componentType":5126,
			"count":24,
			"type":"VEC2"
		},
		{
			"bufferView":51,
			"componentType":5126,
			"count":24,
			"type":"VEC2"
		},
		{
			"bufferView":52,
			"componentType":5121,
			"count":24,
			"normalized":true,
			"type":"VEC4"
		},
		{
			"bufferView":53,
			"componentType":5123,
			"count":24,
			"normalized":true,
			"type":"VEC4"
		},
		{
			"bufferView":54,
			"componentType":5126,
			"count":24,
			"max":[
				-0.5981971025466919,
				3.6687300205230713,
				-0.19999998807907104
			],
			"min":[
				-1.2744379043579102,
				1.1590689420700073,
				-0.24176719784736633
			],
			"type":"VEC3"
		},
		{
			"bufferView":55,
			"componentType":5126,
			"count":24,
			"type":"VEC3"
		},
		{
			"bufferView":56,
			"componentType":5126,
			"count":24,
			"type":"VEC2"
		},
		{
			"bufferView":57,
			"componentType":5126,
			"count":24,
			"type":"VEC2"
		},
		{
			"bufferView":58,
			"componentType":5121,
			"count":24,
			"normalized":true,
			"type":"VEC4"
		},
		{
			"bufferView":59,
			"componentType":5123,
			"count":24,
			"normalized":true,
			"type":"VEC4"
		},
		{
			"bufferView":60,
			"componentType":5126,
			"count":549,
			"max":[
				2,
				4,
				0.06681960076093674
			],
			"min":[
				-2,
				-2.9325731176754744e-08,
				-0.19537700712680817
			],
			"type":"VEC3"
		},
		{
			"bufferView":61,
			"componentType":5126,
			"count":549,
			"type":"VEC3"
		},
		{
			"bufferView":62,
			"componentType":5126,
			"count":549,
			"type":"VEC2"
		},
		{
			"bufferView":63,
			"componentType":5126,
			"count":549,
			"type":"VEC2"
		},
		{
			"bufferView":64,
			"componentType":5123,
			"count":549,
			"normalized":true,
			"type":"VEC4"
		},
		{
			"bufferView":65,
			"componentType":5123,
			"count":1176,
			"type":"SCALAR"
		},
		{
			"bufferView":66,
			"componentType":5126,
			"count":672,
			"max":[
				1.2716801166534424,
				3.6675987243652344,
				-0.1604013442993164
			],
			"min":[
				-1.271918773651123,
				1.16304349899292,
				-0.23764222860336304
			],
			"type":"VEC3"
		},
		{
			"bufferView":67,
			"componentType":5126,
			"count":672,
			"type":"VEC3"
		},
		{
			"bufferView":68,
			"componentType":5126,
			"count":672,
			"type":"VEC2"
		},
		{
			"bufferView":69,
			"componentType":5126,
			"count":672,
			"type":"VEC2"
		},
		{
			"bufferView":70,
			"componentType":5123,
			"count":672,
			"normalized":true,
			"type":"VEC4"
		},
		{
			"bufferView":71,
			"componentType":5123,
			"count":1260,
			"type":"SCALAR"
		},
		{
			"bufferView":72,
			"componentType":5126,
			"count":36,
			"max":[
				1.213590383529663,
				3.606574058532715,
				-0.19902178645133972
			],
			"min":[
				-1.2138291597366333,
				1.2325234413146973,
				-0.19902178645133972
			],
			"type":"VEC3"
		},
		{
			"bufferView":73,
			"componentType":5126,
			"count":36,
			"type":"VEC3"
		},
		{
			"bufferView":74,
			"componentType":5126,
			"count":36,
			"type":"VEC2"
		},
		{
			"bufferView":75,
			"componentType":5126,
			"count":36,
			"type":"VEC2"
		},
		{
			"bufferView":76,
			"componentType":5123,
			"count":36,
			"normalized":true,
			"type":"VEC4"
		},
		{
			"bufferView":77,
			"componentType":5123,
			"count":72,
			"type":"SCALAR"
		},
		{
			"bufferView":78,
			"componentType":5126,
			"count":60,
			"max":[
				1.318599820137024,
				0.7908378839492798,
				-0.0010893243597820401
			],
			"min":[
				-1.318599820137024,
				0.20916184782981873,
				-0.03912605717778206
			],
			"type":"VEC3"
		},
		{
			"bufferView":79,
			"componentType":5126,
			"count":60,
			"type":"VEC3"
		},
		{
			"bufferView":80,
			"componentType":5126,
			"count":60,
			"type":"VEC2"
		},
		{
			"bufferView":81,
			"componentType":5126,
			"count":60,
			"type":"VEC2"
		},
		{
			"bufferView":82,
			"componentType":5123,
			"count":60,
			"normalized":true,
			"type":"VEC4"
		},
		{
			"bufferView":83,
			"componentType":5123,
			"count":90,
			"type":"SCALAR"
		},
		{
			"bufferView":84,
			"componentType":5126,
			"count":4,
			"max":[
				1.2715657949447632,
				3.6434903144836426,
				-0.19933724403381348
			],
			"min":[
				-1.2715657949447632,
				1.1645030975341797,
				-0.19933724403381348
			],
			"type":"VEC3"
		},
		{
			"bufferView":85,
			"componentType":5126,
			"count":4,
			"type":"VEC3"
		},
		{
			"bufferView":86,
			"componentType":5126,
			"count":4,
			"type":"VEC2"
		},
		{
			"bufferView":87,
			"componentType":5126,
			"count":4,
			"type":"VEC2"
		},
		{
			"bufferView":88,
			"componentType":5123,
			"count":4,
			"normalized":true,
			"type":"VEC4"
		},
		{
			"bufferView":89,
			"componentType":5123,
			"count":6,
			"type":"SCALAR"
		},
		{
			"bufferView":90,
			"componentType":5126,
			"count":56,
			"max":[
				2,
				4.000000476837158,
				-0.2000000923871994
			],
			"min":[
				-2,
				0,
				-0.2000000923871994
			],
			"type":"VEC3"
		},
		{
			"bufferView":91,
			"componentType":5126,
			"count":56,
			"type":"VEC3"
		},
		{
			"bufferView":92,
			"componentType":5126,
			"count":56,
			"type":"VEC2"
		},
		{
			"bufferView":93,
			"componentType":5126,
			"count":56,
			"type":"VEC2"
		},
		{
			"bufferView":94,
			"componentType":5123,
			"count":56,
			"normalized":true,
			"type":"VEC4"
		},
		{
			"bufferView":95,
			"componentType":5123,
			"count":144,
			"type":"SCALAR"
		}
	],
	"bufferViews":[
		{
			"buffer":0,
			"byteLength":288,
			"byteOffset":0,
			"target":34962
		},
		{
			"buffer":0,
			"byteLength":288,
			"byteOffset":288,
			"target":34962
		},
		{
			"buffer":0,
			"byteLength":192,
			"byteOffset":576,
			"target":34962
		},
		{
			"buffer":0,
			"byteLength":192,
			"byteOffset":768,
			"target":34962
		},
		{
			"buffer":0,
			"byteLength":96,
			"byteOffset":960,
			"target":34962
		},
		{
			"buffer":0,
			"byteLength":192,
			"byteOffset":1056,
			"target":34962
		},
		{
			"buffer":0,
			"byteLength":72,
			"byteOffset":1248,
			"target":34963
		},
		{
			"buffer":0,
			"byteLength":288,
			"byteOffset":1320,
			"target":34962
		},
		{
			"buffer":0,
			"byteLength":288,
			"byteOffset":1608,
			"target":34962
		},
		{
			"buffer":0,
			"byteLength":192,
			"byteOffset":1896,
			"target":34962
		},
		{
			"buffer":0,
			"byteLength":192,
			"byteOffset":2088,
			"target":34962
		},
		{
			"buffer":0,
			"byteLength":96,
			"byteOffset":2280,
			"target":34962
		},
		{
			"buffer":0,
			"byteLength":192,
			"byteOffset":2376,
			"target":34962
		},
		{
			"buffer":0,
			"byteLength":72,
			"byteOffset":2568,
			"target":34963
		},
		{
			"buffer":0,
			"byteLength":288,
			"byteOffset":2640,
			"target":34962
		},
		{
			"buffer":0,
			"byteLength":288,
			"byteOffset":2928,
			"target":34962
		},
		{
			"buffer":0,
			"byteLength":192,
			"byteOffset":3216,
			"target":34962
		},
		{
			"buffer":0,
			"byteLength":192,
			"byteOffset":3408,
			"target":34962
		},
		{
			"buffer":0,
			"byteLength":96,
			"byteOffset":3600,
			"target":34962
		},
		{
			"buffer":0,
			"byteLength":192,
			"byteOffset":3696,
			"target":34962
		},
		{
			"buffer":0,
			"byteLength":72,
			"byteOffset":3888,
			"target":34963
		},
		{
			"buffer":0,
			"byteLength":288,
			"byteOffset":3960,
			"target":34962
		},
		{
			"buffer":0,
			"byteLength":288,
			"byteOffset":4248,
			"target":34962
		},
		{
			"buffer":0,
			"byteLength":192,
			"byteOffset":4536,
			"target":34962
		},
		{
			"buffer":0,
			"byteLength":192,
			"byteOffset":4728,
			"target":34962
		},
		{
			"buffer":0,
			"byteLength":96,
			"byteOffset":4920,
			"target":34962
		},
		{
			"buffer":0,
			"byteLength":192,
			"byteOffset":5016,
			"target":34962
		},
		{
			"buffer":0,
			"byteLength":288,
			"byteOffset":5208,
			"target":34962
		},
		{
			"buffer":0,
			"byteLength":288,
			"byteOffset":5496,
			"target":34962
		},
		{
			"buffer":0,
			"byteLength":192,
			"byteOffset":5784,
			"target":34962
		},
		{
			"buffer":0,
			"byteLength":192,
			"byteOffset":5976,
			"target":34962
		},
		{
			"buffer":0,
			"byteLength":96,
			"byteOffset":6168,
			"target":34962
		},
		{
			"buffer":0,
			"byteLength":192,
			"byteOffset":6264,
			"target":34962
		},
		{
			"buffer":0,
			"byteLength":72,
			"byteOffset":6456,
			"target":34963
		},
		{
			"buffer":0,
			"byteLength":288,
			"byteOffset":6528,
			"target":34962
		},
		{
			"buffer":0,
			"byteLength":288,
			"byteOffset":6816,
			"target":34962
		},
		{
			"buffer":0,
			"byteLength":192,
			"byteOffset":7104,
			"target":34962
		},
		{
			"buffer":0,
			"byteLength":192,
			"byteOffset":7296,
			"target":34962
		},
		{
			"buffer":0,
			"byteLength":96,
			"byteOffset":7488,
			"target":34962
		},
		{
			"buffer":0,
			"byteLength":192,
			"byteOffset":7584,
			"target":34962
		},
		{
			"buffer":0,
			"byteLength":72,
			"byteOffset":7776,
			"target":34963
		},
		{
			"buffer":0,
			"byteLength":288,
			"byteOffset":7848,
			"target":34962
		},
		{
			"buffer":0,
			"byteLength":288,
			"byteOffset":8136,
			"target":34962
		},
		{
			"buffer":0,
			"byteLength":192,
			"byteOffset":8424,
			"target":34962
		},
		{
			"buffer":0,
			"byteLength":192,
			"byteOffset":8616,
			"target":34962
		},
		{
			"buffer":0,
			"byteLength":96,
			"byteOffset":8808,
			"target":34962
		},
		{
			"buffer":0,
			"byteLength":192,
			"byteOffset":8904,
			"target":34962
		},
		{
			"buffer":0,
			"byteLength":72,
			"byteOffset":9096,
			"target":34963
		},
		{
			"buffer":0,
			"byteLength":288,
			"byteOffset":9168,
			"target":34962
		},
		{
			"buffer":0,
			"byteLength":288,
			"byteOffset":9456,
			"target":34962
		},
		{
			"buffer":0,
			"byteLength":192,
			"byteOffset":9744,
			"target":34962
		},
		{
			"buffer":0,
			"byteLength":192,
			"byteOffset":9936,
			"target":34962
		},
		{
			"buffer":0,
			"byteLength":96,
			"byteOffset":10128,
			"target":34962
		},
		{
			"buffer":0,
			"byteLength":192,
			"byteOffset":10224,
			"target":34962
		},
		{
			"buffer":0,
			"byteLength":288,
			"byteOffset":10416,
			"target":34962
		},
		{
			"buffer":0,
			"byteLength":288,
			"byteOffset":10704,
			"target":34962
		},
		{
			"buffer":0,
			"byteLength":192,
			"byteOffset":10992,
			"target":34962
		},
		{
			"buffer":0,
			"byteLength":192,
			"byteOffset":11184,
			"target":34962
		},
		{
			"buffer":0,
			"byteLength":96,
			"byteOffset":11376,
			"target":34962
		},
		{
			"buffer":0,
			"byteLength":192,
			"byteOffset":11472,
			"target":34962
		},
		{
			"buffer":0,
			"byteLength":6588,
			"byteOffset":11664,
			"target":34962
		},
		{
			"buffer":0,
			"byteLength":6588,
			"byteOffset":18252,
			"target":34962
		},
		{
			"buffer":0,
			"byteLength":4392,
			"byteOffset":24840,
			"target":34962
		},
		{
			"buffer":0,
			"byteLength":4392,
			"byteOffset":29232,
			"target":34962
		},
		{
			"buffer":0,
			"byteLength":4392,
			"byteOffset":33624,
			"target":34962
		},
		{
			"buffer":0,
			"byteLength":2352,
			"byteOffset":38016,
			"target":34963
		},
		{
			"buffer":0,
			"byteLength":8064,
			"byteOffset":40368,
			"target":34962
		},
		{
			"buffer":0,
			"byteLength":8064,
			"byteOffset":48432,
			"target":34962
		},
		{
			"buffer":0,
			"byteLength":5376,
			"byteOffset":56496,
			"target":34962
		},
		{
			"buffer":0,
			"byteLength":5376,
			"byteOffset":61872,
			"target":34962
		},
		{
			"buffer":0,
			"byteLength":5376,
			"byteOffset":67248,
			"target":34962
		},
		{
			"buffer":0,
			"byteLength":2520,
			"byteOffset":72624,
			"target":34963
		},
		{
			"buffer":0,
			"byteLength":432,
			"byteOffset":75144,
			"target":34962
		},
		{
			"buffer":0,
			"byteLength":432,
			"byteOffset":75576,
			"target":34962
		},
		{
			"buffer":0,
			"byteLength":288,
			"byteOffset":76008,
			"target":34962
		},
		{
			"buffer":0,
			"byteLength":288,
			"byteOffset":76296,
			"target":34962
		},
		{
			"buffer":0,
			"byteLength":288,
			"byteOffset":76584,
			"target":34962
		},
		{
			"buffer":0,
			"byteLength":144,
			"byteOffset":76872,
			"target":34963
		},
		{
			"buffer":0,
			"byteLength":720,
			"byteOffset":77016,
			"target":34962
		},
		{
			"buffer":0,
			"byteLength":720,
			"byteOffset":77736,
			"target":34962
		},
		{
			"buffer":0,
			"byteLength":480,
			"byteOffset":78456,
			"target":34962
		},
		{
			"buffer":0,
			"byteLength":480,
			"byteOffset":78936,
			"target":34962
		},
		{
			"buffer":0,
			"byteLength":480,
			"byteOffset":79416,
			"target":34962
		},
		{
			"buffer":0,
			"byteLength":180,
			"byteOffset":79896,
			"target":34963
		},
		{
			"buffer":0,
			"byteLength":48,
			"byteOffset":80076,
			"target":34962
		},
		{
			"buffer":0,
			"byteLength":48,
			"byteOffset":80124,
			"target":34962
		},
		{
			"buffer":0,
			"byteLength":32,
			"byteOffset":80172,
			"target":34962
		},
		{
			"buffer":0,
			"byteLength":32,
			"byteOffset":80204,
			"target":34962
		},
		{
			"buffer":0,
			"byteLength":32,
			"byteOffset":80236,
			"target":34962
		},
		{
			"buffer":0,
			"byteLength":12,
			"byteOffset":80268,
			"target":34963
		},
		{
			"buffer":0,
			"byteLength":672,
			"byteOffset":80280,
			"target":34962
		},
		{
			"buffer":0,
			"byteLength":672,
			"byteOffset":80952,
			"target":34962
		},
		{
			"buffer":0,
			"byteLength":448,
			"byteOffset":81624,
			"target":34962
		},
		{
			"buffer":0,
			"byteLength":448,
			"byteOffset":82072,
			"target":34962
		},
		{
			"buffer":0,
			"byteLength":448,
			"byteOffset":82520,
			"target":34962
		},
		{
			"buffer":0,
			"byteLength":288,
			"byteOffset":82968,
			"target":34963
		}
	],
	"samplers":[
		{
			"magFilter":9729,
			"minFilter":9987
		}
	],
	"buffers":[
		{
			"byteLength":83256,
			"uri":"Marble_WindowTriple.bin"
		}
	]
}
