{
	"asset":{
		"generator":"Khronos glTF Blender I/O v4.3.47",
		"version":"2.0"
	},
	"scene":0,
	"scenes":[
		{
			"name":"Scene",
			"nodes":[
				12
			]
		}
	],
	"nodes":[
		{
			"mesh":0,
			"name":"Marble_ColumnInset_Large_Top_01-convcolonly"
		},
		{
			"mesh":1,
			"name":"Marble_ColumnInset_Large_Top_02-convcolonly"
		},
		{
			"mesh":2,
			"name":"Marble_ColumnInset_Large_Top_03-convcolonly"
		},
		{
			"mesh":3,
			"name":"Marble_ColumnInset_Large_Top_04-convcolonly"
		},
		{
			"mesh":4,
			"name":"Marble_ColumnInset_Large_Top_05-convcolonly"
		},
		{
			"mesh":5,
			"name":"Marble_ColumnInset_Large_Top_06-convcolonly"
		},
		{
			"mesh":6,
			"name":"Marble_ColumnInset_Large_Top_07-convcolonly"
		},
		{
			"mesh":7,
			"name":"Marble_ColumnInset_Large_Top_08-convcolonly"
		},
		{
			"mesh":8,
			"name":"Marble_ColumnInset_Large_Top_09-convcolonly"
		},
		{
			"mesh":9,
			"name":"Marble_ColumnInset_Large_Top_10-convcolonly"
		},
		{
			"mesh":10,
			"name":"Marble_ColumnInset_Large_Top_11-convcolonly"
		},
		{
			"mesh":11,
			"name":"Marble_ColumnInset_Large_Top_12-convcolonly"
		},
		{
			"children":[
				0,
				1,
				2,
				3,
				4,
				5,
				6,
				7,
				8,
				9,
				10,
				11
			],
			"mesh":12,
			"name":"Marble_ColumnInset_Large_Top"
		}
	],
	"materials":[
		{
			"doubleSided":true,
			"name":"Collision",
			"pbrMetallicRoughness":{
				"baseColorFactor":[
					0.036788325756788254,
					0.5504099726676941,
					0.8000074625015259,
					1
				],
				"metallicFactor":0
			}
		},
		{
			"doubleSided":true,
			"name":"MI_Trim",
			"normalTexture":{
				"index":0
			},
			"pbrMetallicRoughness":{
				"baseColorTexture":{
					"index":1
				},
				"metallicRoughnessTexture":{
					"index":2
				}
			}
		},
		{
			"doubleSided":true,
			"name":"MI_Ornaments",
			"normalTexture":{
				"index":3
			},
			"pbrMetallicRoughness":{
				"baseColorTexture":{
					"index":4
				},
				"metallicRoughnessTexture":{
					"index":5
				}
			}
		}
	],
	"meshes":[
		{
			"name":"Cube.3583",
			"primitives":[
				{
					"attributes":{
						"POSITION":0,
						"NORMAL":1,
						"TEXCOORD_0":2
					},
					"indices":3,
					"material":0
				}
			]
		},
		{
			"name":"Cube.3584",
			"primitives":[
				{
					"attributes":{
						"POSITION":4,
						"NORMAL":5,
						"TEXCOORD_0":6
					},
					"indices":7,
					"material":0
				}
			]
		},
		{
			"name":"Cube.3585",
			"primitives":[
				{
					"attributes":{
						"POSITION":8,
						"NORMAL":9,
						"TEXCOORD_0":10
					},
					"indices":11,
					"material":0
				}
			]
		},
		{
			"name":"Cube.3586",
			"primitives":[
				{
					"attributes":{
						"POSITION":12,
						"NORMAL":13,
						"TEXCOORD_0":14
					},
					"indices":15,
					"material":0
				}
			]
		},
		{
			"name":"Cube.3587",
			"primitives":[
				{
					"attributes":{
						"POSITION":16,
						"NORMAL":17,
						"TEXCOORD_0":18
					},
					"indices":19,
					"material":0
				}
			]
		},
		{
			"name":"Cube.3588",
			"primitives":[
				{
					"attributes":{
						"POSITION":20,
						"NORMAL":21,
						"TEXCOORD_0":22
					},
					"indices":23,
					"material":0
				}
			]
		},
		{
			"name":"Cube.3589",
			"primitives":[
				{
					"attributes":{
						"POSITION":24,
						"NORMAL":25,
						"TEXCOORD_0":26
					},
					"indices":27,
					"material":0
				}
			]
		},
		{
			"name":"Cube.3590",
			"primitives":[
				{
					"attributes":{
						"POSITION":28,
						"NORMAL":29,
						"TEXCOORD_0":30
					},
					"indices":31,
					"material":0
				}
			]
		},
		{
			"name":"Cube.3591",
			"primitives":[
				{
					"attributes":{
						"POSITION":32,
						"NORMAL":33,
						"TEXCOORD_0":34
					},
					"indices":19,
					"material":0
				}
			]
		},
		{
			"name":"Cube.3592",
			"primitives":[
				{
					"attributes":{
						"POSITION":35,
						"NORMAL":36,
						"TEXCOORD_0":37
					},
					"indices":23,
					"material":0
				}
			]
		},
		{
			"name":"Cube.3593",
			"primitives":[
				{
					"attributes":{
						"POSITION":38,
						"NORMAL":39,
						"TEXCOORD_0":40
					},
					"indices":41,
					"material":0
				}
			]
		},
		{
			"name":"Cube.3594",
			"primitives":[
				{
					"attributes":{
						"POSITION":42,
						"NORMAL":43,
						"TEXCOORD_0":44
					},
					"indices":45,
					"material":0
				}
			]
		},
		{
			"name":"Cube.3572",
			"primitives":[
				{
					"attributes":{
						"POSITION":46,
						"NORMAL":47,
						"TEXCOORD_0":48,
						"TEXCOORD_1":49
					},
					"indices":50,
					"material":1
				},
				{
					"attributes":{
						"POSITION":51,
						"NORMAL":52,
						"TEXCOORD_0":53,
						"TEXCOORD_1":54
					},
					"indices":55,
					"material":2
				}
			]
		}
	],
	"textures":[
		{
			"sampler":0,
			"source":0
		},
		{
			"sampler":0,
			"source":1
		},
		{
			"sampler":0,
			"source":2
		},
		{
			"sampler":0,
			"source":3
		},
		{
			"sampler":0,
			"source":4
		},
		{
			"sampler":0,
			"source":5
		}
	],
	"images":[
		{
			"mimeType":"image/png",
			"name":"T_Trim_Normal",
			"uri":"../../materials/T_Trim_Normal.png"
		},
		{
			"mimeType":"image/png",
			"name":"T_Trim_BaseColor",
			"uri":"../../materials/T_Trim_BaseColor.png"
		},
		{
			"mimeType":"image/png",
			"name":"T_Trim_ORM",
			"uri":"../../materials/T_Trim_ORM.png"
		},
		{
			"mimeType":"image/png",
			"name":"T_Ornaments_Normal",
			"uri":"../../materials/T_Ornaments_Normal.png"
		},
		{
			"mimeType":"image/png",
			"name":"T_Ornaments_BaseColor",
			"uri":"../../materials/T_Ornaments_BaseColor.png"
		},
		{
			"mimeType":"image/png",
			"name":"T_Ornaments_ORM",
			"uri":"../../materials/T_Ornaments_ORM.png"
		}
	],
	"accessors":[
		{
			"bufferView":0,
			"componentType":5126,
			"count":48,
			"max":[
				0.4319334626197815,
				3.902216911315918,
				0.4319344162940979
			],
			"min":[
				-0.06121259927749634,
				3.7981481552124023,
				-1.4319344758987427
			],
			"type":"VEC3"
		},
		{
			"bufferView":1,
			"componentType":5126,
			"count":48,
			"type":"VEC3"
		},
		{
			"bufferView":2,
			"componentType":5126,
			"count":48,
			"type":"VEC2"
		},
		{
			"bufferView":3,
			"componentType":5123,
			"count":90,
			"type":"SCALAR"
		},
		{
			"bufferView":4,
			"componentType":5126,
			"count":34,
			"max":[
				-0.04793065786361694,
				3.902216911315918,
				0.4319344162940979
			],
			"min":[
				-1.4319353103637695,
				3.7981486320495605,
				-0.06231969594955444
			],
			"type":"VEC3"
		},
		{
			"bufferView":5,
			"componentType":5126,
			"count":34,
			"type":"VEC3"
		},
		{
			"bufferView":6,
			"componentType":5126,
			"count":34,
			"type":"VEC2"
		},
		{
			"bufferView":7,
			"componentType":5123,
			"count":54,
			"type":"SCALAR"
		},
		{
			"bufferView":8,
			"componentType":5126,
			"count":48,
			"max":[
				0.3221510648727417,
				3.7981491088867188,
				0.3221520185470581
			],
			"min":[
				-0.06121265888214111,
				3.6189184188842773,
				-1.3221521377563477
			],
			"type":"VEC3"
		},
		{
			"bufferView":9,
			"componentType":5126,
			"count":48,
			"type":"VEC3"
		},
		{
			"bufferView":10,
			"componentType":5126,
			"count":48,
			"type":"VEC2"
		},
		{
			"bufferView":11,
			"componentType":5123,
			"count":90,
			"type":"SCALAR"
		},
		{
			"bufferView":12,
			"componentType":5126,
			"count":34,
			"max":[
				-0.047930777072906494,
				3.7981491088867188,
				0.3221520185470581
			],
			"min":[
				-1.322153091430664,
				3.6189184188842773,
				-0.06231975555419922
			],
			"type":"VEC3"
		},
		{
			"bufferView":13,
			"componentType":5126,
			"count":34,
			"type":"VEC3"
		},
		{
			"bufferView":14,
			"componentType":5126,
			"count":34,
			"type":"VEC2"
		},
		{
			"bufferView":15,
			"componentType":5123,
			"count":54,
			"type":"SCALAR"
		},
		{
			"bufferView":16,
			"componentType":5126,
			"count":32,
			"max":[
				0.1980447769165039,
				3.6189188957214355,
				0.1980457305908203
			],
			"min":[
				-0.06121283769607544,
				3.0709495544433594,
				-1.198046088218689
			],
			"type":"VEC3"
		},
		{
			"bufferView":17,
			"componentType":5126,
			"count":32,
			"type":"VEC3"
		},
		{
			"bufferView":18,
			"componentType":5126,
			"count":32,
			"type":"VEC2"
		},
		{
			"bufferView":19,
			"componentType":5123,
			"count":60,
			"type":"SCALAR"
		},
		{
			"bufferView":20,
			"componentType":5126,
			"count":24,
			"max":[
				-0.04793083667755127,
				3.6189188957214355,
				0.1980457305908203
			],
			"min":[
				-1.198047161102295,
				3.0709495544433594,
				-0.06231987476348877
			],
			"type":"VEC3"
		},
		{
			"bufferView":21,
			"componentType":5126,
			"count":24,
			"type":"VEC3"
		},
		{
			"bufferView":22,
			"componentType":5126,
			"count":24,
			"type":"VEC2"
		},
		{
			"bufferView":23,
			"componentType":5123,
			"count":36,
			"type":"SCALAR"
		},
		{
			"bufferView":24,
			"componentType":5126,
			"count":64,
			"max":[
				0.2576743960380554,
				3.070950508117676,
				0.2576754093170166
			],
			"min":[
				-0.061212897300720215,
				2.932292938232422,
				-1.2576758861541748
			],
			"type":"VEC3"
		},
		{
			"bufferView":25,
			"componentType":5126,
			"count":64,
			"type":"VEC3"
		},
		{
			"bufferView":26,
			"componentType":5126,
			"count":64,
			"type":"VEC2"
		},
		{
			"bufferView":27,
			"componentType":5123,
			"count":120,
			"type":"SCALAR"
		},
		{
			"bufferView":28,
			"componentType":5126,
			"count":44,
			"max":[
				-0.047931015491485596,
				3.070950508117676,
				0.2576754093170166
			],
			"min":[
				-1.2576769590377808,
				2.932292938232422,
				-0.062319934368133545
			],
			"type":"VEC3"
		},
		{
			"bufferView":29,
			"componentType":5126,
			"count":44,
			"type":"VEC3"
		},
		{
			"bufferView":30,
			"componentType":5126,
			"count":44,
			"type":"VEC2"
		},
		{
			"bufferView":31,
			"componentType":5123,
			"count":72,
			"type":"SCALAR"
		},
		{
			"bufferView":32,
			"componentType":5126,
			"count":32,
			"max":[
				0.1895742416381836,
				2.93229341506958,
				0.18957525491714478
			],
			"min":[
				-0.06121385097503662,
				-4.76837158203125e-07,
				-1.1895766258239746
			],
			"type":"VEC3"
		},
		{
			"bufferView":33,
			"componentType":5126,
			"count":32,
			"type":"VEC3"
		},
		{
			"bufferView":34,
			"componentType":5126,
			"count":32,
			"type":"VEC2"
		},
		{
			"bufferView":35,
			"componentType":5126,
			"count":24,
			"max":[
				-0.04793107509613037,
				2.93229341506958,
				0.18957525491714478
			],
			"min":[
				-1.1895778179168701,
				-2.384185791015625e-07,
				-0.062320709228515625
			],
			"type":"VEC3"
		},
		{
			"bufferView":36,
			"componentType":5126,
			"count":24,
			"type":"VEC3"
		},
		{
			"bufferView":37,
			"componentType":5126,
			"count":24,
			"type":"VEC2"
		},
		{
			"bufferView":38,
			"componentType":5126,
			"count":32,
			"max":[
				0.4020015001296997,
				4.001657485961914,
				0.4020025134086609
			],
			"min":[
				-0.06121253967285156,
				3.9022159576416016,
				-1.4020023345947266
			],
			"type":"VEC3"
		},
		{
			"bufferView":39,
			"componentType":5126,
			"count":32,
			"type":"VEC3"
		},
		{
			"bufferView":40,
			"componentType":5126,
			"count":32,
			"type":"VEC2"
		},
		{
			"bufferView":41,
			"componentType":5123,
			"count":60,
			"type":"SCALAR"
		},
		{
			"bufferView":42,
			"componentType":5126,
			"count":24,
			"max":[
				-0.04793065786361694,
				4.001657485961914,
				0.4020025134086609
			],
			"min":[
				-1.402003288269043,
				3.9022159576416016,
				-0.06231957674026489
			],
			"type":"VEC3"
		},
		{
			"bufferView":43,
			"componentType":5126,
			"count":24,
			"type":"VEC3"
		},
		{
			"bufferView":44,
			"componentType":5126,
			"count":24,
			"type":"VEC2"
		},
		{
			"bufferView":45,
			"componentType":5123,
			"count":36,
			"type":"SCALAR"
		},
		{
			"bufferView":46,
			"componentType":5126,
			"count":452,
			"max":[
				0.4332025647163391,
				4,
				0.43320316076278687
			],
			"min":[
				-1.4332038164138794,
				-2.384185791015625e-07,
				-1.4332032203674316
			],
			"type":"VEC3"
		},
		{
			"bufferView":47,
			"componentType":5126,
			"count":452,
			"type":"VEC3"
		},
		{
			"bufferView":48,
			"componentType":5126,
			"count":452,
			"type":"VEC2"
		},
		{
			"bufferView":49,
			"componentType":5126,
			"count":452,
			"type":"VEC2"
		},
		{
			"bufferView":50,
			"componentType":5123,
			"count":780,
			"type":"SCALAR"
		},
		{
			"bufferView":51,
			"componentType":5126,
			"count":16,
			"max":[
				0.1678828001022339,
				3.552124500274658,
				0.17523163557052612
			],
			"min":[
				-1.167885184288025,
				3.131718158721924,
				-1.17523193359375
			],
			"type":"VEC3"
		},
		{
			"bufferView":52,
			"componentType":5126,
			"count":16,
			"type":"VEC3"
		},
		{
			"bufferView":53,
			"componentType":5126,
			"count":16,
			"type":"VEC2"
		},
		{
			"bufferView":54,
			"componentType":5126,
			"count":16,
			"type":"VEC2"
		},
		{
			"bufferView":55,
			"componentType":5123,
			"count":24,
			"type":"SCALAR"
		}
	],
	"bufferViews":[
		{
			"buffer":0,
			"byteLength":576,
			"byteOffset":0,
			"target":34962
		},
		{
			"buffer":0,
			"byteLength":576,
			"byteOffset":576,
			"target":34962
		},
		{
			"buffer":0,
			"byteLength":384,
			"byteOffset":1152,
			"target":34962
		},
		{
			"buffer":0,
			"byteLength":180,
			"byteOffset":1536,
			"target":34963
		},
		{
			"buffer":0,
			"byteLength":408,
			"byteOffset":1716,
			"target":34962
		},
		{
			"buffer":0,
			"byteLength":408,
			"byteOffset":2124,
			"target":34962
		},
		{
			"buffer":0,
			"byteLength":272,
			"byteOffset":2532,
			"target":34962
		},
		{
			"buffer":0,
			"byteLength":108,
			"byteOffset":2804,
			"target":34963
		},
		{
			"buffer":0,
			"byteLength":576,
			"byteOffset":2912,
			"target":34962
		},
		{
			"buffer":0,
			"byteLength":576,
			"byteOffset":3488,
			"target":34962
		},
		{
			"buffer":0,
			"byteLength":384,
			"byteOffset":4064,
			"target":34962
		},
		{
			"buffer":0,
			"byteLength":180,
			"byteOffset":4448,
			"target":34963
		},
		{
			"buffer":0,
			"byteLength":408,
			"byteOffset":4628,
			"target":34962
		},
		{
			"buffer":0,
			"byteLength":408,
			"byteOffset":5036,
			"target":34962
		},
		{
			"buffer":0,
			"byteLength":272,
			"byteOffset":5444,
			"target":34962
		},
		{
			"buffer":0,
			"byteLength":108,
			"byteOffset":5716,
			"target":34963
		},
		{
			"buffer":0,
			"byteLength":384,
			"byteOffset":5824,
			"target":34962
		},
		{
			"buffer":0,
			"byteLength":384,
			"byteOffset":6208,
			"target":34962
		},
		{
			"buffer":0,
			"byteLength":256,
			"byteOffset":6592,
			"target":34962
		},
		{
			"buffer":0,
			"byteLength":120,
			"byteOffset":6848,
			"target":34963
		},
		{
			"buffer":0,
			"byteLength":288,
			"byteOffset":6968,
			"target":34962
		},
		{
			"buffer":0,
			"byteLength":288,
			"byteOffset":7256,
			"target":34962
		},
		{
			"buffer":0,
			"byteLength":192,
			"byteOffset":7544,
			"target":34962
		},
		{
			"buffer":0,
			"byteLength":72,
			"byteOffset":7736,
			"target":34963
		},
		{
			"buffer":0,
			"byteLength":768,
			"byteOffset":7808,
			"target":34962
		},
		{
			"buffer":0,
			"byteLength":768,
			"byteOffset":8576,
			"target":34962
		},
		{
			"buffer":0,
			"byteLength":512,
			"byteOffset":9344,
			"target":34962
		},
		{
			"buffer":0,
			"byteLength":240,
			"byteOffset":9856,
			"target":34963
		},
		{
			"buffer":0,
			"byteLength":528,
			"byteOffset":10096,
			"target":34962
		},
		{
			"buffer":0,
			"byteLength":528,
			"byteOffset":10624,
			"target":34962
		},
		{
			"buffer":0,
			"byteLength":352,
			"byteOffset":11152,
			"target":34962
		},
		{
			"buffer":0,
			"byteLength":144,
			"byteOffset":11504,
			"target":34963
		},
		{
			"buffer":0,
			"byteLength":384,
			"byteOffset":11648,
			"target":34962
		},
		{
			"buffer":0,
			"byteLength":384,
			"byteOffset":12032,
			"target":34962
		},
		{
			"buffer":0,
			"byteLength":256,
			"byteOffset":12416,
			"target":34962
		},
		{
			"buffer":0,
			"byteLength":288,
			"byteOffset":12672,
			"target":34962
		},
		{
			"buffer":0,
			"byteLength":288,
			"byteOffset":12960,
			"target":34962
		},
		{
			"buffer":0,
			"byteLength":192,
			"byteOffset":13248,
			"target":34962
		},
		{
			"buffer":0,
			"byteLength":384,
			"byteOffset":13440,
			"target":34962
		},
		{
			"buffer":0,
			"byteLength":384,
			"byteOffset":13824,
			"target":34962
		},
		{
			"buffer":0,
			"byteLength":256,
			"byteOffset":14208,
			"target":34962
		},
		{
			"buffer":0,
			"byteLength":120,
			"byteOffset":14464,
			"target":34963
		},
		{
			"buffer":0,
			"byteLength":288,
			"byteOffset":14584,
			"target":34962
		},
		{
			"buffer":0,
			"byteLength":288,
			"byteOffset":14872,
			"target":34962
		},
		{
			"buffer":0,
			"byteLength":192,
			"byteOffset":15160,
			"target":34962
		},
		{
			"buffer":0,
			"byteLength":72,
			"byteOffset":15352,
			"target":34963
		},
		{
			"buffer":0,
			"byteLength":5424,
			"byteOffset":15424,
			"target":34962
		},
		{
			"buffer":0,
			"byteLength":5424,
			"byteOffset":20848,
			"target":34962
		},
		{
			"buffer":0,
			"byteLength":3616,
			"byteOffset":26272,
			"target":34962
		},
		{
			"buffer":0,
			"byteLength":3616,
			"byteOffset":29888,
			"target":34962
		},
		{
			"buffer":0,
			"byteLength":1560,
			"byteOffset":33504,
			"target":34963
		},
		{
			"buffer":0,
			"byteLength":192,
			"byteOffset":35064,
			"target":34962
		},
		{
			"buffer":0,
			"byteLength":192,
			"byteOffset":35256,
			"target":34962
		},
		{
			"buffer":0,
			"byteLength":128,
			"byteOffset":35448,
			"target":34962
		},
		{
			"buffer":0,
			"byteLength":128,
			"byteOffset":35576,
			"target":34962
		},
		{
			"buffer":0,
			"byteLength":48,
			"byteOffset":35704,
			"target":34963
		}
	],
	"samplers":[
		{
			"magFilter":9729,
			"minFilter":9987
		}
	],
	"buffers":[
		{
			"byteLength":35752,
			"uri":"Marble_ColumnInset_Large_Top.bin"
		}
	]
}
