{
	"asset":{
		"generator":"Khronos glTF Blender I/O v4.3.47",
		"version":"2.0"
	},
	"scene":0,
	"scenes":[
		{
			"name":"Scene",
			"nodes":[
				6
			]
		}
	],
	"nodes":[
		{
			"mesh":0,
			"name":"Marble_Column_Large_Top_1-convcolonly"
		},
		{
			"mesh":1,
			"name":"Marble_Column_Large_Top_2-convcolonly"
		},
		{
			"mesh":2,
			"name":"Marble_Column_Large_Top_3-convcolonly"
		},
		{
			"mesh":3,
			"name":"Marble_Column_Large_Top_4-convcolonly"
		},
		{
			"mesh":4,
			"name":"Marble_Column_Large_Top_5-convcolonly"
		},
		{
			"mesh":5,
			"name":"Marble_Column_Large_Top_6-convcolonly"
		},
		{
			"children":[
				0,
				1,
				2,
				3,
				4,
				5
			],
			"mesh":6,
			"name":"Marble_Column_Large_Top"
		}
	],
	"materials":[
		{
			"doubleSided":true,
			"name":"Collision",
			"pbrMetallicRoughness":{
				"baseColorFactor":[
					0.036788325756788254,
					0.5504099726676941,
					0.8000074625015259,
					1
				],
				"metallicFactor":0
			}
		},
		{
			"doubleSided":true,
			"name":"MI_Trim",
			"normalTexture":{
				"index":0
			},
			"pbrMetallicRoughness":{
				"baseColorTexture":{
					"index":1
				},
				"metallicRoughnessTexture":{
					"index":2
				}
			}
		},
		{
			"doubleSided":true,
			"name":"MI_Ornaments",
			"normalTexture":{
				"index":3
			},
			"pbrMetallicRoughness":{
				"baseColorTexture":{
					"index":4
				},
				"metallicRoughnessTexture":{
					"index":5
				}
			}
		}
	],
	"meshes":[
		{
			"name":"Cube.632",
			"primitives":[
				{
					"attributes":{
						"POSITION":0,
						"NORMAL":1,
						"TEXCOORD_0":2
					},
					"indices":3,
					"material":0
				}
			]
		},
		{
			"name":"Cube.647",
			"primitives":[
				{
					"attributes":{
						"POSITION":4,
						"NORMAL":5,
						"TEXCOORD_0":6
					},
					"indices":7,
					"material":0
				}
			]
		},
		{
			"name":"Cube.648",
			"primitives":[
				{
					"attributes":{
						"POSITION":8,
						"NORMAL":9,
						"TEXCOORD_0":10
					},
					"indices":11,
					"material":0
				}
			]
		},
		{
			"name":"Cube.649",
			"primitives":[
				{
					"attributes":{
						"POSITION":12,
						"NORMAL":13,
						"TEXCOORD_0":14
					},
					"indices":15,
					"material":0
				}
			]
		},
		{
			"name":"Cube.650",
			"primitives":[
				{
					"attributes":{
						"POSITION":16,
						"NORMAL":17,
						"TEXCOORD_0":18
					},
					"indices":11,
					"material":0
				}
			]
		},
		{
			"name":"Cube.651",
			"primitives":[
				{
					"attributes":{
						"POSITION":19,
						"NORMAL":20,
						"TEXCOORD_0":21
					},
					"indices":22,
					"material":0
				}
			]
		},
		{
			"name":"Cube.087",
			"primitives":[
				{
					"attributes":{
						"POSITION":23,
						"NORMAL":24,
						"TEXCOORD_0":25,
						"TEXCOORD_1":26
					},
					"indices":27,
					"material":1
				},
				{
					"attributes":{
						"POSITION":28,
						"NORMAL":29,
						"TEXCOORD_0":30,
						"TEXCOORD_1":31
					},
					"indices":32,
					"material":2
				}
			]
		}
	],
	"textures":[
		{
			"sampler":0,
			"source":0
		},
		{
			"sampler":0,
			"source":1
		},
		{
			"sampler":0,
			"source":2
		},
		{
			"sampler":0,
			"source":3
		},
		{
			"sampler":0,
			"source":4
		},
		{
			"sampler":0,
			"source":5
		}
	],
	"images":[
		{
			"mimeType":"image/png",
			"name":"T_Trim_Normal",
			"uri":"../../materials/T_Trim_Normal.png"
		},
		{
			"mimeType":"image/png",
			"name":"T_Trim_BaseColor",
			"uri":"../../materials/T_Trim_BaseColor.png"
		},
		{
			"mimeType":"image/png",
			"name":"T_Trim_ORM",
			"uri":"../../materials/T_Trim_ORM.png"
		},
		{
			"mimeType":"image/png",
			"name":"T_Ornaments_Normal",
			"uri":"../../materials/T_Ornaments_Normal.png"
		},
		{
			"mimeType":"image/png",
			"name":"T_Ornaments_BaseColor",
			"uri":"../../materials/T_Ornaments_BaseColor.png"
		},
		{
			"mimeType":"image/png",
			"name":"T_Ornaments_ORM",
			"uri":"../../materials/T_Ornaments_ORM.png"
		}
	],
	"accessors":[
		{
			"bufferView":0,
			"componentType":5126,
			"count":40,
			"max":[
				0.9319344162940979,
				3.902216911315918,
				0.9319344162940979
			],
			"min":[
				-0.9319344162940979,
				3.7981483936309814,
				-0.9319344758987427
			],
			"type":"VEC3"
		},
		{
			"bufferView":1,
			"componentType":5126,
			"count":40,
			"type":"VEC3"
		},
		{
			"bufferView":2,
			"componentType":5126,
			"count":40,
			"type":"VEC2"
		},
		{
			"bufferView":3,
			"componentType":5123,
			"count":60,
			"type":"SCALAR"
		},
		{
			"bufferView":4,
			"componentType":5126,
			"count":40,
			"max":[
				0.8221520185470581,
				3.798149347305298,
				0.8221520185470581
			],
			"min":[
				-0.8221521377563477,
				3.6189181804656982,
				-0.8221521377563477
			],
			"type":"VEC3"
		},
		{
			"bufferView":5,
			"componentType":5126,
			"count":40,
			"type":"VEC3"
		},
		{
			"bufferView":6,
			"componentType":5126,
			"count":40,
			"type":"VEC2"
		},
		{
			"bufferView":7,
			"componentType":5123,
			"count":60,
			"type":"SCALAR"
		},
		{
			"bufferView":8,
			"componentType":5126,
			"count":24,
			"max":[
				0.6980457305908203,
				3.6189191341400146,
				0.6980457305908203
			],
			"min":[
				-0.6980461478233337,
				3.0709495544433594,
				-0.698046088218689
			],
			"type":"VEC3"
		},
		{
			"bufferView":9,
			"componentType":5126,
			"count":24,
			"type":"VEC3"
		},
		{
			"bufferView":10,
			"componentType":5126,
			"count":24,
			"type":"VEC2"
		},
		{
			"bufferView":11,
			"componentType":5123,
			"count":36,
			"type":"SCALAR"
		},
		{
			"bufferView":12,
			"componentType":5126,
			"count":56,
			"max":[
				0.7576753497123718,
				3.070950508117676,
				0.7576754093170166
			],
			"min":[
				-0.7576760053634644,
				2.9322926998138428,
				-0.7576759457588196
			],
			"type":"VEC3"
		},
		{
			"bufferView":13,
			"componentType":5126,
			"count":56,
			"type":"VEC3"
		},
		{
			"bufferView":14,
			"componentType":5126,
			"count":56,
			"type":"VEC2"
		},
		{
			"bufferView":15,
			"componentType":5123,
			"count":84,
			"type":"SCALAR"
		},
		{
			"bufferView":16,
			"componentType":5126,
			"count":24,
			"max":[
				0.6895751953125,
				2.932293653488159,
				0.6895752549171448
			],
			"min":[
				-0.6895768642425537,
				-4.09992679806237e-07,
				-0.6895766258239746
			],
			"type":"VEC3"
		},
		{
			"bufferView":17,
			"componentType":5126,
			"count":24,
			"type":"VEC3"
		},
		{
			"bufferView":18,
			"componentType":5126,
			"count":24,
			"type":"VEC2"
		},
		{
			"bufferView":19,
			"componentType":5126,
			"count":24,
			"max":[
				0.9020024538040161,
				4.001657485961914,
				0.9020025134086609
			],
			"min":[
				-0.9020023941993713,
				3.9022159576416016,
				-0.9020023941993713
			],
			"type":"VEC3"
		},
		{
			"bufferView":20,
			"componentType":5126,
			"count":24,
			"type":"VEC3"
		},
		{
			"bufferView":21,
			"componentType":5126,
			"count":24,
			"type":"VEC2"
		},
		{
			"bufferView":22,
			"componentType":5123,
			"count":36,
			"type":"SCALAR"
		},
		{
			"bufferView":23,
			"componentType":5126,
			"count":506,
			"max":[
				0.9332035183906555,
				4.000000476837158,
				0.9332031607627869
			],
			"min":[
				-0.9332029223442078,
				-1.7523120732221287e-07,
				-0.9332032799720764
			],
			"type":"VEC3"
		},
		{
			"bufferView":24,
			"componentType":5126,
			"count":506,
			"type":"VEC3"
		},
		{
			"bufferView":25,
			"componentType":5126,
			"count":506,
			"type":"VEC2"
		},
		{
			"bufferView":26,
			"componentType":5126,
			"count":506,
			"type":"VEC2"
		},
		{
			"bufferView":27,
			"componentType":5123,
			"count":876,
			"type":"SCALAR"
		},
		{
			"bufferView":28,
			"componentType":5126,
			"count":16,
			"max":[
				0.6678837537765503,
				3.5521249771118164,
				0.6752316355705261
			],
			"min":[
				-0.6678842306137085,
				3.131718158721924,
				-0.6752319931983948
			],
			"type":"VEC3"
		},
		{
			"bufferView":29,
			"componentType":5126,
			"count":16,
			"type":"VEC3"
		},
		{
			"bufferView":30,
			"componentType":5126,
			"count":16,
			"type":"VEC2"
		},
		{
			"bufferView":31,
			"componentType":5126,
			"count":16,
			"type":"VEC2"
		},
		{
			"bufferView":32,
			"componentType":5123,
			"count":24,
			"type":"SCALAR"
		}
	],
	"bufferViews":[
		{
			"buffer":0,
			"byteLength":480,
			"byteOffset":0,
			"target":34962
		},
		{
			"buffer":0,
			"byteLength":480,
			"byteOffset":480,
			"target":34962
		},
		{
			"buffer":0,
			"byteLength":320,
			"byteOffset":960,
			"target":34962
		},
		{
			"buffer":0,
			"byteLength":120,
			"byteOffset":1280,
			"target":34963
		},
		{
			"buffer":0,
			"byteLength":480,
			"byteOffset":1400,
			"target":34962
		},
		{
			"buffer":0,
			"byteLength":480,
			"byteOffset":1880,
			"target":34962
		},
		{
			"buffer":0,
			"byteLength":320,
			"byteOffset":2360,
			"target":34962
		},
		{
			"buffer":0,
			"byteLength":120,
			"byteOffset":2680,
			"target":34963
		},
		{
			"buffer":0,
			"byteLength":288,
			"byteOffset":2800,
			"target":34962
		},
		{
			"buffer":0,
			"byteLength":288,
			"byteOffset":3088,
			"target":34962
		},
		{
			"buffer":0,
			"byteLength":192,
			"byteOffset":3376,
			"target":34962
		},
		{
			"buffer":0,
			"byteLength":72,
			"byteOffset":3568,
			"target":34963
		},
		{
			"buffer":0,
			"byteLength":672,
			"byteOffset":3640,
			"target":34962
		},
		{
			"buffer":0,
			"byteLength":672,
			"byteOffset":4312,
			"target":34962
		},
		{
			"buffer":0,
			"byteLength":448,
			"byteOffset":4984,
			"target":34962
		},
		{
			"buffer":0,
			"byteLength":168,
			"byteOffset":5432,
			"target":34963
		},
		{
			"buffer":0,
			"byteLength":288,
			"byteOffset":5600,
			"target":34962
		},
		{
			"buffer":0,
			"byteLength":288,
			"byteOffset":5888,
			"target":34962
		},
		{
			"buffer":0,
			"byteLength":192,
			"byteOffset":6176,
			"target":34962
		},
		{
			"buffer":0,
			"byteLength":288,
			"byteOffset":6368,
			"target":34962
		},
		{
			"buffer":0,
			"byteLength":288,
			"byteOffset":6656,
			"target":34962
		},
		{
			"buffer":0,
			"byteLength":192,
			"byteOffset":6944,
			"target":34962
		},
		{
			"buffer":0,
			"byteLength":72,
			"byteOffset":7136,
			"target":34963
		},
		{
			"buffer":0,
			"byteLength":6072,
			"byteOffset":7208,
			"target":34962
		},
		{
			"buffer":0,
			"byteLength":6072,
			"byteOffset":13280,
			"target":34962
		},
		{
			"buffer":0,
			"byteLength":4048,
			"byteOffset":19352,
			"target":34962
		},
		{
			"buffer":0,
			"byteLength":4048,
			"byteOffset":23400,
			"target":34962
		},
		{
			"buffer":0,
			"byteLength":1752,
			"byteOffset":27448,
			"target":34963
		},
		{
			"buffer":0,
			"byteLength":192,
			"byteOffset":29200,
			"target":34962
		},
		{
			"buffer":0,
			"byteLength":192,
			"byteOffset":29392,
			"target":34962
		},
		{
			"buffer":0,
			"byteLength":128,
			"byteOffset":29584,
			"target":34962
		},
		{
			"buffer":0,
			"byteLength":128,
			"byteOffset":29712,
			"target":34962
		},
		{
			"buffer":0,
			"byteLength":48,
			"byteOffset":29840,
			"target":34963
		}
	],
	"samplers":[
		{
			"magFilter":9729,
			"minFilter":9987
		}
	],
	"buffers":[
		{
			"byteLength":29888,
			"uri":"Marble_Column_Large_Top.bin"
		}
	]
}
