{
	"asset":{
		"generator":"Khronos glTF Blender I/O v4.3.47",
		"version":"2.0"
	},
	"scene":0,
	"scenes":[
		{
			"name":"Scene",
			"nodes":[
				10
			]
		}
	],
	"nodes":[
		{
			"mesh":0,
			"name":"Marble_ShopWindow_01-convcolonly"
		},
		{
			"mesh":1,
			"name":"Marble_ShopWindow_02-convcolonly"
		},
		{
			"mesh":2,
			"name":"Marble_ShopWindow_03-convcolonly"
		},
		{
			"mesh":3,
			"name":"Marble_ShopWindow_04-convcolonly"
		},
		{
			"mesh":4,
			"name":"Marble_ShopWindow_05-convcolonly"
		},
		{
			"mesh":5,
			"name":"Marble_ShopWindow_07-convcolonly"
		},
		{
			"mesh":6,
			"name":"Marble_ShopWindow_09-convcolonly"
		},
		{
			"mesh":7,
			"name":"Marble_ShopWindow_10-convcolonly"
		},
		{
			"mesh":8,
			"name":"Marble_ShopWindow_13-convcolonly"
		},
		{
			"mesh":9,
			"name":"Marble_ShopWindow_14-convcolonly"
		},
		{
			"children":[
				0,
				1,
				2,
				3,
				4,
				5,
				6,
				7,
				8,
				9
			],
			"mesh":10,
			"name":"Marble_ShopWindow"
		}
	],
	"materials":[
		{
			"doubleSided":true,
			"name":"Collision",
			"pbrMetallicRoughness":{
				"baseColorFactor":[
					0.036788325756788254,
					0.5504099726676941,
					0.8000074625015259,
					1
				],
				"metallicFactor":0
			}
		},
		{
			"doubleSided":true,
			"name":"MI_Trim",
			"normalTexture":{
				"index":0
			},
			"pbrMetallicRoughness":{
				"baseColorTexture":{
					"index":1
				},
				"metallicRoughnessTexture":{
					"index":2
				}
			}
		},
		{
			"doubleSided":true,
			"name":"MI_Trim_MetalConcrete",
			"normalTexture":{
				"index":3
			},
			"pbrMetallicRoughness":{
				"baseColorTexture":{
					"index":4
				},
				"metallicRoughnessTexture":{
					"index":5
				}
			}
		},
		{
			"alphaMode":"BLEND",
			"doubleSided":true,
			"name":"MI_Glass",
			"pbrMetallicRoughness":{
				"baseColorFactor":[
					0.05215025693178177,
					0.05215025693178177,
					0.05215025693178177,
					0.586363673210144
				],
				"metallicFactor":0,
				"roughnessFactor":0.5
			}
		},
		{
			"doubleSided":true,
			"name":"MI_FakeInterior",
			"pbrMetallicRoughness":{
				"baseColorFactor":[
					0.800000011920929,
					0.800000011920929,
					0.800000011920929,
					1
				],
				"metallicFactor":0,
				"roughnessFactor":0.5
			}
		},
		{
			"doubleSided":true,
			"name":"MI_InteriorWall",
			"normalTexture":{
				"index":6
			},
			"pbrMetallicRoughness":{
				"baseColorTexture":{
					"index":7
				},
				"metallicRoughnessTexture":{
					"index":8
				}
			}
		}
	],
	"meshes":[
		{
			"name":"Cube.575",
			"primitives":[
				{
					"attributes":{
						"POSITION":0,
						"NORMAL":1,
						"TEXCOORD_0":2,
						"TEXCOORD_1":3,
						"COLOR_0":4,
						"COLOR_1":5
					},
					"indices":6,
					"material":0
				}
			]
		},
		{
			"name":"Cube.576",
			"primitives":[
				{
					"attributes":{
						"POSITION":7,
						"NORMAL":8,
						"TEXCOORD_0":9,
						"TEXCOORD_1":10,
						"COLOR_0":11,
						"COLOR_1":12
					},
					"indices":13,
					"material":0
				}
			]
		},
		{
			"name":"Cube.577",
			"primitives":[
				{
					"attributes":{
						"POSITION":14,
						"NORMAL":15,
						"TEXCOORD_0":16,
						"TEXCOORD_1":17,
						"COLOR_0":18,
						"COLOR_1":19
					},
					"indices":20,
					"material":0
				}
			]
		},
		{
			"name":"Cube.578",
			"primitives":[
				{
					"attributes":{
						"POSITION":21,
						"NORMAL":22,
						"TEXCOORD_0":23,
						"TEXCOORD_1":24,
						"COLOR_0":25,
						"COLOR_1":26
					},
					"indices":27,
					"material":0
				}
			]
		},
		{
			"name":"Cube.579",
			"primitives":[
				{
					"attributes":{
						"POSITION":28,
						"NORMAL":29,
						"TEXCOORD_0":30,
						"TEXCOORD_1":31,
						"COLOR_0":32,
						"COLOR_1":33
					},
					"indices":34,
					"material":0
				}
			]
		},
		{
			"name":"Cube.581",
			"primitives":[
				{
					"attributes":{
						"POSITION":35,
						"NORMAL":36,
						"TEXCOORD_0":37,
						"TEXCOORD_1":38,
						"COLOR_0":39,
						"COLOR_1":40
					},
					"indices":41,
					"material":0
				}
			]
		},
		{
			"name":"Cube.583",
			"primitives":[
				{
					"attributes":{
						"POSITION":42,
						"NORMAL":43,
						"TEXCOORD_0":44,
						"TEXCOORD_1":45,
						"COLOR_0":46,
						"COLOR_1":47
					},
					"indices":13,
					"material":0
				}
			]
		},
		{
			"name":"Cube.584",
			"primitives":[
				{
					"attributes":{
						"POSITION":48,
						"NORMAL":49,
						"TEXCOORD_0":50,
						"TEXCOORD_1":51,
						"COLOR_0":52,
						"COLOR_1":53
					},
					"indices":20,
					"material":0
				}
			]
		},
		{
			"name":"Cube.587",
			"primitives":[
				{
					"attributes":{
						"POSITION":54,
						"NORMAL":55,
						"TEXCOORD_0":56,
						"TEXCOORD_1":57,
						"COLOR_0":58,
						"COLOR_1":59
					},
					"indices":41,
					"material":0
				}
			]
		},
		{
			"name":"Cube.588",
			"primitives":[
				{
					"attributes":{
						"POSITION":60,
						"NORMAL":61,
						"TEXCOORD_0":62,
						"TEXCOORD_1":63,
						"COLOR_0":64,
						"COLOR_1":65
					},
					"indices":41,
					"material":0
				}
			]
		},
		{
			"name":"Cube.006",
			"primitives":[
				{
					"attributes":{
						"POSITION":66,
						"NORMAL":67,
						"TEXCOORD_0":68,
						"TEXCOORD_1":69,
						"COLOR_0":70,
						"COLOR_1":71
					},
					"indices":72,
					"material":1
				},
				{
					"attributes":{
						"POSITION":73,
						"NORMAL":74,
						"TEXCOORD_0":75,
						"TEXCOORD_1":76,
						"COLOR_0":77,
						"COLOR_1":78
					},
					"indices":79,
					"material":2
				},
				{
					"attributes":{
						"POSITION":80,
						"NORMAL":81,
						"TEXCOORD_0":82,
						"TEXCOORD_1":83,
						"COLOR_0":84,
						"COLOR_1":85
					},
					"indices":86,
					"material":3
				},
				{
					"attributes":{
						"POSITION":87,
						"NORMAL":88,
						"TEXCOORD_0":89,
						"TEXCOORD_1":90,
						"COLOR_0":91,
						"COLOR_1":92
					},
					"indices":93,
					"material":4
				},
				{
					"attributes":{
						"POSITION":94,
						"NORMAL":95,
						"TEXCOORD_0":96,
						"TEXCOORD_1":97,
						"COLOR_0":98,
						"COLOR_1":99
					},
					"indices":100,
					"material":5
				}
			]
		}
	],
	"textures":[
		{
			"sampler":0,
			"source":0
		},
		{
			"sampler":0,
			"source":1
		},
		{
			"sampler":0,
			"source":2
		},
		{
			"sampler":0,
			"source":3
		},
		{
			"sampler":0,
			"source":4
		},
		{
			"sampler":0,
			"source":5
		},
		{
			"sampler":0,
			"source":6
		},
		{
			"sampler":0,
			"source":7
		},
		{
			"sampler":0,
			"source":8
		}
	],
	"images":[
		{
			"mimeType":"image/png",
			"name":"T_Trim_Normal",
			"uri":"../../materials/T_Trim_Normal.png"
		},
		{
			"mimeType":"image/png",
			"name":"T_Trim_BaseColor",
			"uri":"../../materials/T_Trim_BaseColor.png"
		},
		{
			"mimeType":"image/png",
			"name":"T_Trim_ORM",
			"uri":"../../materials/T_Trim_ORM.png"
		},
		{
			"mimeType":"image/png",
			"name":"T_MetalConcrete_Normal",
			"uri":"../../materials/T_MetalConcrete_Normal.png"
		},
		{
			"mimeType":"image/png",
			"name":"T_MetalConcrete_BaseColor",
			"uri":"../../materials/T_MetalConcrete_BaseColor.png"
		},
		{
			"mimeType":"image/png",
			"name":"T_MetalConcrete_ORM",
			"uri":"../../materials/T_MetalConcrete_ORM.png"
		},
		{
			"mimeType":"image/png",
			"name":"T_RedBrick_Normal",
			"uri":"../../materials/T_RedBrick_Normal.png"
		},
		{
			"mimeType":"image/png",
			"name":"T_RedBrick_BaseColor",
			"uri":"../../materials/T_RedBrick_BaseColor.png"
		},
		{
			"mimeType":"image/png",
			"name":"T_RedBrick_ORM",
			"uri":"../../materials/T_RedBrick_ORM.png"
		}
	],
	"accessors":[
		{
			"bufferView":0,
			"componentType":5126,
			"count":24,
			"max":[
				2.0000007152557373,
				3.999999761581421,
				0
			],
			"min":[
				1.3999993801116943,
				0,
				-0.19999998807907104
			],
			"type":"VEC3"
		},
		{
			"bufferView":1,
			"componentType":5126,
			"count":24,
			"type":"VEC3"
		},
		{
			"bufferView":2,
			"componentType":5126,
			"count":24,
			"type":"VEC2"
		},
		{
			"bufferView":3,
			"componentType":5126,
			"count":24,
			"type":"VEC2"
		},
		{
			"bufferView":4,
			"componentType":5121,
			"count":24,
			"normalized":true,
			"type":"VEC4"
		},
		{
			"bufferView":5,
			"componentType":5123,
			"count":24,
			"normalized":true,
			"type":"VEC4"
		},
		{
			"bufferView":6,
			"componentType":5123,
			"count":36,
			"type":"SCALAR"
		},
		{
			"bufferView":7,
			"componentType":5126,
			"count":24,
			"max":[
				2.0000007152557373,
				0.10517841577529907,
				0
			],
			"min":[
				-2.0000007152557373,
				0,
				-0.19999998807907104
			],
			"type":"VEC3"
		},
		{
			"bufferView":8,
			"componentType":5126,
			"count":24,
			"type":"VEC3"
		},
		{
			"bufferView":9,
			"componentType":5126,
			"count":24,
			"type":"VEC2"
		},
		{
			"bufferView":10,
			"componentType":5126,
			"count":24,
			"type":"VEC2"
		},
		{
			"bufferView":11,
			"componentType":5121,
			"count":24,
			"normalized":true,
			"type":"VEC4"
		},
		{
			"bufferView":12,
			"componentType":5123,
			"count":24,
			"normalized":true,
			"type":"VEC4"
		},
		{
			"bufferView":13,
			"componentType":5123,
			"count":36,
			"type":"SCALAR"
		},
		{
			"bufferView":14,
			"componentType":5126,
			"count":40,
			"max":[
				1.4008945226669312,
				0.1612323522567749,
				-0.10300640761852264
			],
			"min":[
				-1.4008945226669312,
				0.10517841577529907,
				-0.22695650160312653
			],
			"type":"VEC3"
		},
		{
			"bufferView":15,
			"componentType":5126,
			"count":40,
			"type":"VEC3"
		},
		{
			"bufferView":16,
			"componentType":5126,
			"count":40,
			"type":"VEC2"
		},
		{
			"bufferView":17,
			"componentType":5126,
			"count":40,
			"type":"VEC2"
		},
		{
			"bufferView":18,
			"componentType":5121,
			"count":40,
			"normalized":true,
			"type":"VEC4"
		},
		{
			"bufferView":19,
			"componentType":5123,
			"count":40,
			"normalized":true,
			"type":"VEC4"
		},
		{
			"bufferView":20,
			"componentType":5123,
			"count":84,
			"type":"SCALAR"
		},
		{
			"bufferView":21,
			"componentType":5126,
			"count":24,
			"max":[
				-1.3437172174453735,
				2.692718267440796,
				-0.10300640761852264
			],
			"min":[
				-1.4008945226669312,
				0.1612323522567749,
				-0.22695650160312653
			],
			"type":"VEC3"
		},
		{
			"bufferView":22,
			"componentType":5126,
			"count":24,
			"type":"VEC3"
		},
		{
			"bufferView":23,
			"componentType":5126,
			"count":24,
			"type":"VEC2"
		},
		{
			"bufferView":24,
			"componentType":5126,
			"count":24,
			"type":"VEC2"
		},
		{
			"bufferView":25,
			"componentType":5121,
			"count":24,
			"normalized":true,
			"type":"VEC4"
		},
		{
			"bufferView":26,
			"componentType":5123,
			"count":24,
			"normalized":true,
			"type":"VEC4"
		},
		{
			"bufferView":27,
			"componentType":5123,
			"count":36,
			"type":"SCALAR"
		},
		{
			"bufferView":28,
			"componentType":5126,
			"count":24,
			"max":[
				1.4008945226669312,
				2.692718267440796,
				-0.10300640761852264
			],
			"min":[
				1.3437172174453735,
				0.1612323522567749,
				-0.22695650160312653
			],
			"type":"VEC3"
		},
		{
			"bufferView":29,
			"componentType":5126,
			"count":24,
			"type":"VEC3"
		},
		{
			"bufferView":30,
			"componentType":5126,
			"count":24,
			"type":"VEC2"
		},
		{
			"bufferView":31,
			"componentType":5126,
			"count":24,
			"type":"VEC2"
		},
		{
			"bufferView":32,
			"componentType":5121,
			"count":24,
			"normalized":true,
			"type":"VEC4"
		},
		{
			"bufferView":33,
			"componentType":5123,
			"count":24,
			"normalized":true,
			"type":"VEC4"
		},
		{
			"bufferView":34,
			"componentType":5123,
			"count":36,
			"type":"SCALAR"
		},
		{
			"bufferView":35,
			"componentType":5126,
			"count":24,
			"max":[
				1.4008935689926147,
				2.755675792694092,
				-0.06540585309267044
			],
			"min":[
				-1.4008935689926147,
				2.452836513519287,
				-0.2650887072086334
			],
			"type":"VEC3"
		},
		{
			"bufferView":36,
			"componentType":5126,
			"count":24,
			"type":"VEC3"
		},
		{
			"bufferView":37,
			"componentType":5126,
			"count":24,
			"type":"VEC2"
		},
		{
			"bufferView":38,
			"componentType":5126,
			"count":24,
			"type":"VEC2"
		},
		{
			"bufferView":39,
			"componentType":5121,
			"count":24,
			"normalized":true,
			"type":"VEC4"
		},
		{
			"bufferView":40,
			"componentType":5123,
			"count":24,
			"normalized":true,
			"type":"VEC4"
		},
		{
			"bufferView":41,
			"componentType":5123,
			"count":36,
			"type":"SCALAR"
		},
		{
			"bufferView":42,
			"componentType":5126,
			"count":24,
			"max":[
				1.4781851768493652,
				4.001242637634277,
				0
			],
			"min":[
				-1.4652013778686523,
				3.789902925491333,
				-0.19999998807907104
			],
			"type":"VEC3"
		},
		{
			"bufferView":43,
			"componentType":5126,
			"count":24,
			"type":"VEC3"
		},
		{
			"bufferView":44,
			"componentType":5126,
			"count":24,
			"type":"VEC2"
		},
		{
			"bufferView":45,
			"componentType":5126,
			"count":24,
			"type":"VEC2"
		},
		{
			"bufferView":46,
			"componentType":5121,
			"count":24,
			"normalized":true,
			"type":"VEC4"
		},
		{
			"bufferView":47,
			"componentType":5123,
			"count":24,
			"normalized":true,
			"type":"VEC4"
		},
		{
			"bufferView":48,
			"componentType":5126,
			"count":40,
			"max":[
				1.4008945226669312,
				3.8057477474212646,
				-0.1394931972026825
			],
			"min":[
				-1.4008945226669312,
				3.7496936321258545,
				-0.2634432911872864
			],
			"type":"VEC3"
		},
		{
			"bufferView":49,
			"componentType":5126,
			"count":40,
			"type":"VEC3"
		},
		{
			"bufferView":50,
			"componentType":5126,
			"count":40,
			"type":"VEC2"
		},
		{
			"bufferView":51,
			"componentType":5126,
			"count":40,
			"type":"VEC2"
		},
		{
			"bufferView":52,
			"componentType":5121,
			"count":40,
			"normalized":true,
			"type":"VEC4"
		},
		{
			"bufferView":53,
			"componentType":5123,
			"count":40,
			"normalized":true,
			"type":"VEC4"
		},
		{
			"bufferView":54,
			"componentType":5126,
			"count":24,
			"max":[
				1.3432419300079346,
				2.445418357849121,
				-0.18240390717983246
			],
			"min":[
				-1.3432419300079346,
				0.15958142280578613,
				-0.21009105443954468
			],
			"type":"VEC3"
		},
		{
			"bufferView":55,
			"componentType":5126,
			"count":24,
			"type":"VEC3"
		},
		{
			"bufferView":56,
			"componentType":5126,
			"count":24,
			"type":"VEC2"
		},
		{
			"bufferView":57,
			"componentType":5126,
			"count":24,
			"type":"VEC2"
		},
		{
			"bufferView":58,
			"componentType":5121,
			"count":24,
			"normalized":true,
			"type":"VEC4"
		},
		{
			"bufferView":59,
			"componentType":5123,
			"count":24,
			"normalized":true,
			"type":"VEC4"
		},
		{
			"bufferView":60,
			"componentType":5126,
			"count":24,
			"max":[
				1.439121127128601,
				3.749147415161133,
				-0.18240390717983246
			],
			"min":[
				-1.4391217231750488,
				2.7570817470550537,
				-0.21009105443954468
			],
			"type":"VEC3"
		},
		{
			"bufferView":61,
			"componentType":5126,
			"count":24,
			"type":"VEC3"
		},
		{
			"bufferView":62,
			"componentType":5126,
			"count":24,
			"type":"VEC2"
		},
		{
			"bufferView":63,
			"componentType":5126,
			"count":24,
			"type":"VEC2"
		},
		{
			"bufferView":64,
			"componentType":5121,
			"count":24,
			"normalized":true,
			"type":"VEC4"
		},
		{
			"bufferView":65,
			"componentType":5123,
			"count":24,
			"normalized":true,
			"type":"VEC4"
		},
		{
			"bufferView":66,
			"componentType":5126,
			"count":139,
			"max":[
				2,
				4,
				0.030000070109963417
			],
			"min":[
				-2,
				-2.809779964252357e-09,
				-0.188253253698349
			],
			"type":"VEC3"
		},
		{
			"bufferView":67,
			"componentType":5126,
			"count":139,
			"type":"VEC3"
		},
		{
			"bufferView":68,
			"componentType":5126,
			"count":139,
			"type":"VEC2"
		},
		{
			"bufferView":69,
			"componentType":5126,
			"count":139,
			"type":"VEC2"
		},
		{
			"bufferView":70,
			"componentType":5121,
			"count":139,
			"normalized":true,
			"type":"VEC4"
		},
		{
			"bufferView":71,
			"componentType":5123,
			"count":139,
			"normalized":true,
			"type":"VEC4"
		},
		{
			"bufferView":72,
			"componentType":5123,
			"count":312,
			"type":"SCALAR"
		},
		{
			"bufferView":73,
			"componentType":5126,
			"count":180,
			"max":[
				1.4028234481811523,
				3.8087286949157715,
				-0.06575538218021393
			],
			"min":[
				-1.4028234481811523,
				0.10000000149011612,
				-0.26331591606140137
			],
			"type":"VEC3"
		},
		{
			"bufferView":74,
			"componentType":5126,
			"count":180,
			"type":"VEC3"
		},
		{
			"bufferView":75,
			"componentType":5126,
			"count":180,
			"type":"VEC2"
		},
		{
			"bufferView":76,
			"componentType":5126,
			"count":180,
			"type":"VEC2"
		},
		{
			"bufferView":77,
			"componentType":5121,
			"count":180,
			"normalized":true,
			"type":"VEC4"
		},
		{
			"bufferView":78,
			"componentType":5123,
			"count":180,
			"normalized":true,
			"type":"VEC4"
		},
		{
			"bufferView":79,
			"componentType":5123,
			"count":306,
			"type":"SCALAR"
		},
		{
			"bufferView":80,
			"componentType":5126,
			"count":8,
			"max":[
				1.3432419300079346,
				3.749147415161133,
				-0.18240390717983246
			],
			"min":[
				-1.3432419300079346,
				0.15958142280578613,
				-0.18240390717983246
			],
			"type":"VEC3"
		},
		{
			"bufferView":81,
			"componentType":5126,
			"count":8,
			"type":"VEC3"
		},
		{
			"bufferView":82,
			"componentType":5126,
			"count":8,
			"type":"VEC2"
		},
		{
			"bufferView":83,
			"componentType":5126,
			"count":8,
			"type":"VEC2"
		},
		{
			"bufferView":84,
			"componentType":5121,
			"count":8,
			"normalized":true,
			"type":"VEC4"
		},
		{
			"bufferView":85,
			"componentType":5123,
			"count":8,
			"normalized":true,
			"type":"VEC4"
		},
		{
			"bufferView":86,
			"componentType":5123,
			"count":12,
			"type":"SCALAR"
		},
		{
			"bufferView":87,
			"componentType":5126,
			"count":4,
			"max":[
				1.37549889087677,
				3.808354377746582,
				-0.18932071328163147
			],
			"min":[
				-1.37549889087677,
				0.10743021965026855,
				-0.18932071328163147
			],
			"type":"VEC3"
		},
		{
			"bufferView":88,
			"componentType":5126,
			"count":4,
			"type":"VEC3"
		},
		{
			"bufferView":89,
			"componentType":5126,
			"count":4,
			"type":"VEC2"
		},
		{
			"bufferView":90,
			"componentType":5126,
			"count":4,
			"type":"VEC2"
		},
		{
			"bufferView":91,
			"componentType":5121,
			"count":4,
			"normalized":true,
			"type":"VEC4"
		},
		{
			"bufferView":92,
			"componentType":5123,
			"count":4,
			"normalized":true,
			"type":"VEC4"
		},
		{
			"bufferView":93,
			"componentType":5123,
			"count":6,
			"type":"SCALAR"
		},
		{
			"bufferView":94,
			"componentType":5126,
			"count":32,
			"max":[
				2,
				4.000000476837158,
				-0.2000000923871994
			],
			"min":[
				-2,
				0,
				-0.2000000923871994
			],
			"type":"VEC3"
		},
		{
			"bufferView":95,
			"componentType":5126,
			"count":32,
			"type":"VEC3"
		},
		{
			"bufferView":96,
			"componentType":5126,
			"count":32,
			"type":"VEC2"
		},
		{
			"bufferView":97,
			"componentType":5126,
			"count":32,
			"type":"VEC2"
		},
		{
			"bufferView":98,
			"componentType":5121,
			"count":32,
			"normalized":true,
			"type":"VEC4"
		},
		{
			"bufferView":99,
			"componentType":5123,
			"count":32,
			"normalized":true,
			"type":"VEC4"
		},
		{
			"bufferView":100,
			"componentType":5123,
			"count":72,
			"type":"SCALAR"
		}
	],
	"bufferViews":[
		{
			"buffer":0,
			"byteLength":288,
			"byteOffset":0,
			"target":34962
		},
		{
			"buffer":0,
			"byteLength":288,
			"byteOffset":288,
			"target":34962
		},
		{
			"buffer":0,
			"byteLength":192,
			"byteOffset":576,
			"target":34962
		},
		{
			"buffer":0,
			"byteLength":192,
			"byteOffset":768,
			"target":34962
		},
		{
			"buffer":0,
			"byteLength":96,
			"byteOffset":960,
			"target":34962
		},
		{
			"buffer":0,
			"byteLength":192,
			"byteOffset":1056,
			"target":34962
		},
		{
			"buffer":0,
			"byteLength":72,
			"byteOffset":1248,
			"target":34963
		},
		{
			"buffer":0,
			"byteLength":288,
			"byteOffset":1320,
			"target":34962
		},
		{
			"buffer":0,
			"byteLength":288,
			"byteOffset":1608,
			"target":34962
		},
		{
			"buffer":0,
			"byteLength":192,
			"byteOffset":1896,
			"target":34962
		},
		{
			"buffer":0,
			"byteLength":192,
			"byteOffset":2088,
			"target":34962
		},
		{
			"buffer":0,
			"byteLength":96,
			"byteOffset":2280,
			"target":34962
		},
		{
			"buffer":0,
			"byteLength":192,
			"byteOffset":2376,
			"target":34962
		},
		{
			"buffer":0,
			"byteLength":72,
			"byteOffset":2568,
			"target":34963
		},
		{
			"buffer":0,
			"byteLength":480,
			"byteOffset":2640,
			"target":34962
		},
		{
			"buffer":0,
			"byteLength":480,
			"byteOffset":3120,
			"target":34962
		},
		{
			"buffer":0,
			"byteLength":320,
			"byteOffset":3600,
			"target":34962
		},
		{
			"buffer":0,
			"byteLength":320,
			"byteOffset":3920,
			"target":34962
		},
		{
			"buffer":0,
			"byteLength":160,
			"byteOffset":4240,
			"target":34962
		},
		{
			"buffer":0,
			"byteLength":320,
			"byteOffset":4400,
			"target":34962
		},
		{
			"buffer":0,
			"byteLength":168,
			"byteOffset":4720,
			"target":34963
		},
		{
			"buffer":0,
			"byteLength":288,
			"byteOffset":4888,
			"target":34962
		},
		{
			"buffer":0,
			"byteLength":288,
			"byteOffset":5176,
			"target":34962
		},
		{
			"buffer":0,
			"byteLength":192,
			"byteOffset":5464,
			"target":34962
		},
		{
			"buffer":0,
			"byteLength":192,
			"byteOffset":5656,
			"target":34962
		},
		{
			"buffer":0,
			"byteLength":96,
			"byteOffset":5848,
			"target":34962
		},
		{
			"buffer":0,
			"byteLength":192,
			"byteOffset":5944,
			"target":34962
		},
		{
			"buffer":0,
			"byteLength":72,
			"byteOffset":6136,
			"target":34963
		},
		{
			"buffer":0,
			"byteLength":288,
			"byteOffset":6208,
			"target":34962
		},
		{
			"buffer":0,
			"byteLength":288,
			"byteOffset":6496,
			"target":34962
		},
		{
			"buffer":0,
			"byteLength":192,
			"byteOffset":6784,
			"target":34962
		},
		{
			"buffer":0,
			"byteLength":192,
			"byteOffset":6976,
			"target":34962
		},
		{
			"buffer":0,
			"byteLength":96,
			"byteOffset":7168,
			"target":34962
		},
		{
			"buffer":0,
			"byteLength":192,
			"byteOffset":7264,
			"target":34962
		},
		{
			"buffer":0,
			"byteLength":72,
			"byteOffset":7456,
			"target":34963
		},
		{
			"buffer":0,
			"byteLength":288,
			"byteOffset":7528,
			"target":34962
		},
		{
			"buffer":0,
			"byteLength":288,
			"byteOffset":7816,
			"target":34962
		},
		{
			"buffer":0,
			"byteLength":192,
			"byteOffset":8104,
			"target":34962
		},
		{
			"buffer":0,
			"byteLength":192,
			"byteOffset":8296,
			"target":34962
		},
		{
			"buffer":0,
			"byteLength":96,
			"byteOffset":8488,
			"target":34962
		},
		{
			"buffer":0,
			"byteLength":192,
			"byteOffset":8584,
			"target":34962
		},
		{
			"buffer":0,
			"byteLength":72,
			"byteOffset":8776,
			"target":34963
		},
		{
			"buffer":0,
			"byteLength":288,
			"byteOffset":8848,
			"target":34962
		},
		{
			"buffer":0,
			"byteLength":288,
			"byteOffset":9136,
			"target":34962
		},
		{
			"buffer":0,
			"byteLength":192,
			"byteOffset":9424,
			"target":34962
		},
		{
			"buffer":0,
			"byteLength":192,
			"byteOffset":9616,
			"target":34962
		},
		{
			"buffer":0,
			"byteLength":96,
			"byteOffset":9808,
			"target":34962
		},
		{
			"buffer":0,
			"byteLength":192,
			"byteOffset":9904,
			"target":34962
		},
		{
			"buffer":0,
			"byteLength":480,
			"byteOffset":10096,
			"target":34962
		},
		{
			"buffer":0,
			"byteLength":480,
			"byteOffset":10576,
			"target":34962
		},
		{
			"buffer":0,
			"byteLength":320,
			"byteOffset":11056,
			"target":34962
		},
		{
			"buffer":0,
			"byteLength":320,
			"byteOffset":11376,
			"target":34962
		},
		{
			"buffer":0,
			"byteLength":160,
			"byteOffset":11696,
			"target":34962
		},
		{
			"buffer":0,
			"byteLength":320,
			"byteOffset":11856,
			"target":34962
		},
		{
			"buffer":0,
			"byteLength":288,
			"byteOffset":12176,
			"target":34962
		},
		{
			"buffer":0,
			"byteLength":288,
			"byteOffset":12464,
			"target":34962
		},
		{
			"buffer":0,
			"byteLength":192,
			"byteOffset":12752,
			"target":34962
		},
		{
			"buffer":0,
			"byteLength":192,
			"byteOffset":12944,
			"target":34962
		},
		{
			"buffer":0,
			"byteLength":96,
			"byteOffset":13136,
			"target":34962
		},
		{
			"buffer":0,
			"byteLength":192,
			"byteOffset":13232,
			"target":34962
		},
		{
			"buffer":0,
			"byteLength":288,
			"byteOffset":13424,
			"target":34962
		},
		{
			"buffer":0,
			"byteLength":288,
			"byteOffset":13712,
			"target":34962
		},
		{
			"buffer":0,
			"byteLength":192,
			"byteOffset":14000,
			"target":34962
		},
		{
			"buffer":0,
			"byteLength":192,
			"byteOffset":14192,
			"target":34962
		},
		{
			"buffer":0,
			"byteLength":96,
			"byteOffset":14384,
			"target":34962
		},
		{
			"buffer":0,
			"byteLength":192,
			"byteOffset":14480,
			"target":34962
		},
		{
			"buffer":0,
			"byteLength":1668,
			"byteOffset":14672,
			"target":34962
		},
		{
			"buffer":0,
			"byteLength":1668,
			"byteOffset":16340,
			"target":34962
		},
		{
			"buffer":0,
			"byteLength":1112,
			"byteOffset":18008,
			"target":34962
		},
		{
			"buffer":0,
			"byteLength":1112,
			"byteOffset":19120,
			"target":34962
		},
		{
			"buffer":0,
			"byteLength":556,
			"byteOffset":20232,
			"target":34962
		},
		{
			"buffer":0,
			"byteLength":1112,
			"byteOffset":20788,
			"target":34962
		},
		{
			"buffer":0,
			"byteLength":624,
			"byteOffset":21900,
			"target":34963
		},
		{
			"buffer":0,
			"byteLength":2160,
			"byteOffset":22524,
			"target":34962
		},
		{
			"buffer":0,
			"byteLength":2160,
			"byteOffset":24684,
			"target":34962
		},
		{
			"buffer":0,
			"byteLength":1440,
			"byteOffset":26844,
			"target":34962
		},
		{
			"buffer":0,
			"byteLength":1440,
			"byteOffset":28284,
			"target":34962
		},
		{
			"buffer":0,
			"byteLength":720,
			"byteOffset":29724,
			"target":34962
		},
		{
			"buffer":0,
			"byteLength":1440,
			"byteOffset":30444,
			"target":34962
		},
		{
			"buffer":0,
			"byteLength":612,
			"byteOffset":31884,
			"target":34963
		},
		{
			"buffer":0,
			"byteLength":96,
			"byteOffset":32496,
			"target":34962
		},
		{
			"buffer":0,
			"byteLength":96,
			"byteOffset":32592,
			"target":34962
		},
		{
			"buffer":0,
			"byteLength":64,
			"byteOffset":32688,
			"target":34962
		},
		{
			"buffer":0,
			"byteLength":64,
			"byteOffset":32752,
			"target":34962
		},
		{
			"buffer":0,
			"byteLength":32,
			"byteOffset":32816,
			"target":34962
		},
		{
			"buffer":0,
			"byteLength":64,
			"byteOffset":32848,
			"target":34962
		},
		{
			"buffer":0,
			"byteLength":24,
			"byteOffset":32912,
			"target":34963
		},
		{
			"buffer":0,
			"byteLength":48,
			"byteOffset":32936,
			"target":34962
		},
		{
			"buffer":0,
			"byteLength":48,
			"byteOffset":32984,
			"target":34962
		},
		{
			"buffer":0,
			"byteLength":32,
			"byteOffset":33032,
			"target":34962
		},
		{
			"buffer":0,
			"byteLength":32,
			"byteOffset":33064,
			"target":34962
		},
		{
			"buffer":0,
			"byteLength":16,
			"byteOffset":33096,
			"target":34962
		},
		{
			"buffer":0,
			"byteLength":32,
			"byteOffset":33112,
			"target":34962
		},
		{
			"buffer":0,
			"byteLength":12,
			"byteOffset":33144,
			"target":34963
		},
		{
			"buffer":0,
			"byteLength":384,
			"byteOffset":33156,
			"target":34962
		},
		{
			"buffer":0,
			"byteLength":384,
			"byteOffset":33540,
			"target":34962
		},
		{
			"buffer":0,
			"byteLength":256,
			"byteOffset":33924,
			"target":34962
		},
		{
			"buffer":0,
			"byteLength":256,
			"byteOffset":34180,
			"target":34962
		},
		{
			"buffer":0,
			"byteLength":128,
			"byteOffset":34436,
			"target":34962
		},
		{
			"buffer":0,
			"byteLength":256,
			"byteOffset":34564,
			"target":34962
		},
		{
			"buffer":0,
			"byteLength":144,
			"byteOffset":34820,
			"target":34963
		}
	],
	"samplers":[
		{
			"magFilter":9729,
			"minFilter":9987
		}
	],
	"buffers":[
		{
			"byteLength":34964,
			"uri":"Marble_ShopWindow.bin"
		}
	]
}
