{
	"asset":{
		"generator":"Khronos glTF Blender I/O v4.3.47",
		"version":"2.0"
	},
	"scene":0,
	"scenes":[
		{
			"name":"Scene",
			"nodes":[
				6
			]
		}
	],
	"nodes":[
		{
			"mesh":0,
			"name":"Metal_BayWindow_Bottom_1-convcolonly"
		},
		{
			"mesh":1,
			"name":"Metal_BayWindow_Bottom_2-convcolonly"
		},
		{
			"mesh":2,
			"name":"Metal_BayWindow_Bottom_3-convcolonly"
		},
		{
			"mesh":3,
			"name":"Metal_BayWindow_Bottom_4-convcolonly"
		},
		{
			"mesh":4,
			"name":"Metal_BayWindow_Bottom_5-convcolonly"
		},
		{
			"mesh":5,
			"name":"Metal_BayWindow_Bottom_6-convcolonly"
		},
		{
			"children":[
				0,
				1,
				2,
				3,
				4,
				5
			],
			"mesh":6,
			"name":"Metal_BayWindow_Bottom"
		}
	],
	"materials":[
		{
			"doubleSided":true,
			"name":"Collision",
			"pbrMetallicRoughness":{
				"baseColorFactor":[
					0.036788325756788254,
					0.5504099726676941,
					0.8000074625015259,
					1
				],
				"metallicFactor":0
			}
		},
		{
			"alphaMode":"BLEND",
			"doubleSided":true,
			"name":"MI_Glass",
			"pbrMetallicRoughness":{
				"baseColorFactor":[
					0.05215025693178177,
					0.05215025693178177,
					0.05215025693178177,
					0.586363673210144
				],
				"metallicFactor":0,
				"roughnessFactor":0.5
			}
		},
		{
			"doubleSided":true,
			"name":"MI_FakeInterior",
			"pbrMetallicRoughness":{
				"baseColorFactor":[
					0.800000011920929,
					0.800000011920929,
					0.800000011920929,
					1
				],
				"metallicFactor":0,
				"roughnessFactor":0.5
			}
		},
		{
			"doubleSided":true,
			"name":"MI_Trim_MetalConcrete",
			"normalTexture":{
				"index":0
			},
			"pbrMetallicRoughness":{
				"baseColorTexture":{
					"index":1
				},
				"metallicRoughnessTexture":{
					"index":2
				}
			}
		},
		{
			"doubleSided":true,
			"name":"MI_InteriorWall",
			"normalTexture":{
				"index":3
			},
			"pbrMetallicRoughness":{
				"baseColorTexture":{
					"index":4
				},
				"metallicRoughnessTexture":{
					"index":5
				}
			}
		}
	],
	"meshes":[
		{
			"name":"Cube.707",
			"primitives":[
				{
					"attributes":{
						"POSITION":0,
						"NORMAL":1,
						"TEXCOORD_0":2,
						"TEXCOORD_1":3,
						"COLOR_0":4,
						"COLOR_1":5
					},
					"indices":6,
					"material":0
				}
			]
		},
		{
			"name":"Cube.708",
			"primitives":[
				{
					"attributes":{
						"POSITION":7,
						"NORMAL":8,
						"TEXCOORD_0":9,
						"TEXCOORD_1":10,
						"COLOR_0":11,
						"COLOR_1":12
					},
					"indices":13,
					"material":0
				}
			]
		},
		{
			"name":"Cube.709",
			"primitives":[
				{
					"attributes":{
						"POSITION":14,
						"NORMAL":15,
						"TEXCOORD_0":16,
						"TEXCOORD_1":17,
						"COLOR_0":18,
						"COLOR_1":19
					},
					"indices":20,
					"material":0
				}
			]
		},
		{
			"name":"Cube.710",
			"primitives":[
				{
					"attributes":{
						"POSITION":21,
						"NORMAL":22,
						"TEXCOORD_0":23,
						"TEXCOORD_1":24,
						"COLOR_0":25,
						"COLOR_1":26
					},
					"indices":6,
					"material":0
				}
			]
		},
		{
			"name":"Cube.711",
			"primitives":[
				{
					"attributes":{
						"POSITION":27,
						"NORMAL":28,
						"TEXCOORD_0":29,
						"TEXCOORD_1":30,
						"COLOR_0":31,
						"COLOR_1":32
					},
					"indices":33,
					"material":0
				}
			]
		},
		{
			"name":"Cube.788",
			"primitives":[
				{
					"attributes":{
						"POSITION":34,
						"NORMAL":35,
						"TEXCOORD_0":36,
						"TEXCOORD_1":37,
						"COLOR_0":38,
						"COLOR_1":39
					},
					"indices":40,
					"material":0
				}
			]
		},
		{
			"name":"Cube.263",
			"primitives":[
				{
					"attributes":{
						"POSITION":41,
						"NORMAL":42,
						"TEXCOORD_0":43,
						"TEXCOORD_1":44,
						"COLOR_0":45,
						"COLOR_1":46
					},
					"indices":47,
					"material":1
				},
				{
					"attributes":{
						"POSITION":48,
						"NORMAL":49,
						"TEXCOORD_0":50,
						"TEXCOORD_1":51,
						"COLOR_0":52,
						"COLOR_1":53
					},
					"indices":54,
					"material":2
				},
				{
					"attributes":{
						"POSITION":55,
						"NORMAL":56,
						"TEXCOORD_0":57,
						"TEXCOORD_1":58,
						"COLOR_0":59,
						"COLOR_1":60
					},
					"indices":61,
					"material":3
				},
				{
					"attributes":{
						"POSITION":62,
						"NORMAL":63,
						"TEXCOORD_0":64,
						"TEXCOORD_1":65,
						"COLOR_0":66,
						"COLOR_1":67
					},
					"indices":68,
					"material":4
				}
			]
		}
	],
	"textures":[
		{
			"sampler":0,
			"source":0
		},
		{
			"sampler":0,
			"source":1
		},
		{
			"sampler":0,
			"source":2
		},
		{
			"sampler":0,
			"source":3
		},
		{
			"sampler":0,
			"source":4
		},
		{
			"sampler":0,
			"source":5
		}
	],
	"images":[
		{
			"mimeType":"image/png",
			"name":"T_MetalConcrete_Normal",
			"uri":"../../materials/T_MetalConcrete_Normal.png"
		},
		{
			"mimeType":"image/png",
			"name":"T_MetalConcrete_BaseColor",
			"uri":"../../materials/T_MetalConcrete_BaseColor.png"
		},
		{
			"mimeType":"image/png",
			"name":"T_MetalConcrete_ORM",
			"uri":"../../materials/T_MetalConcrete_ORM.png"
		},
		{
			"mimeType":"image/png",
			"name":"T_RedBrick_Normal",
			"uri":"../../materials/T_RedBrick_Normal.png"
		},
		{
			"mimeType":"image/png",
			"name":"T_RedBrick_BaseColor",
			"uri":"../../materials/T_RedBrick_BaseColor.png"
		},
		{
			"mimeType":"image/png",
			"name":"T_RedBrick_ORM",
			"uri":"../../materials/T_RedBrick_ORM.png"
		}
	],
	"accessors":[
		{
			"bufferView":0,
			"componentType":5126,
			"count":24,
			"max":[
				1,
				3.0001044273376465,
				0.9999998807907104
			],
			"min":[
				-1,
				0.00020873546600341797,
				0.7999999523162842
			],
			"type":"VEC3"
		},
		{
			"bufferView":1,
			"componentType":5126,
			"count":24,
			"type":"VEC3"
		},
		{
			"bufferView":2,
			"componentType":5126,
			"count":24,
			"type":"VEC2"
		},
		{
			"bufferView":3,
			"componentType":5126,
			"count":24,
			"type":"VEC2"
		},
		{
			"bufferView":4,
			"componentType":5121,
			"count":24,
			"normalized":true,
			"type":"VEC4"
		},
		{
			"bufferView":5,
			"componentType":5123,
			"count":24,
			"normalized":true,
			"type":"VEC4"
		},
		{
			"bufferView":6,
			"componentType":5123,
			"count":36,
			"type":"SCALAR"
		},
		{
			"bufferView":7,
			"componentType":5126,
			"count":24,
			"max":[
				2,
				3.0001044273376465,
				0.9999998807907104
			],
			"min":[
				1,
				0,
				-0.19999992847442627
			],
			"type":"VEC3"
		},
		{
			"bufferView":8,
			"componentType":5126,
			"count":24,
			"type":"VEC3"
		},
		{
			"bufferView":9,
			"componentType":5126,
			"count":24,
			"type":"VEC2"
		},
		{
			"bufferView":10,
			"componentType":5126,
			"count":24,
			"type":"VEC2"
		},
		{
			"bufferView":11,
			"componentType":5121,
			"count":24,
			"normalized":true,
			"type":"VEC4"
		},
		{
			"bufferView":12,
			"componentType":5123,
			"count":24,
			"normalized":true,
			"type":"VEC4"
		},
		{
			"bufferView":13,
			"componentType":5123,
			"count":36,
			"type":"SCALAR"
		},
		{
			"bufferView":14,
			"componentType":5126,
			"count":24,
			"max":[
				-1,
				3.0001044273376465,
				0.9999998807907104
			],
			"min":[
				-2,
				0,
				-0.19999992847442627
			],
			"type":"VEC3"
		},
		{
			"bufferView":15,
			"componentType":5126,
			"count":24,
			"type":"VEC3"
		},
		{
			"bufferView":16,
			"componentType":5126,
			"count":24,
			"type":"VEC2"
		},
		{
			"bufferView":17,
			"componentType":5126,
			"count":24,
			"type":"VEC2"
		},
		{
			"bufferView":18,
			"componentType":5121,
			"count":24,
			"normalized":true,
			"type":"VEC4"
		},
		{
			"bufferView":19,
			"componentType":5123,
			"count":24,
			"normalized":true,
			"type":"VEC4"
		},
		{
			"bufferView":20,
			"componentType":5123,
			"count":36,
			"type":"SCALAR"
		},
		{
			"bufferView":21,
			"componentType":5126,
			"count":24,
			"max":[
				1,
				2.4938316345214844,
				0.9270799160003662
			],
			"min":[
				-1,
				0.00020873546600341797,
				0.7270799875259399
			],
			"type":"VEC3"
		},
		{
			"bufferView":22,
			"componentType":5126,
			"count":24,
			"type":"VEC3"
		},
		{
			"bufferView":23,
			"componentType":5126,
			"count":24,
			"type":"VEC2"
		},
		{
			"bufferView":24,
			"componentType":5126,
			"count":24,
			"type":"VEC2"
		},
		{
			"bufferView":25,
			"componentType":5121,
			"count":24,
			"normalized":true,
			"type":"VEC4"
		},
		{
			"bufferView":26,
			"componentType":5123,
			"count":24,
			"normalized":true,
			"type":"VEC4"
		},
		{
			"bufferView":27,
			"componentType":5126,
			"count":24,
			"max":[
				1.9999998807907104,
				2.4938316345214844,
				0.9388411641120911
			],
			"min":[
				0.9388412833213806,
				0,
				-0.20000000298023224
			],
			"type":"VEC3"
		},
		{
			"bufferView":28,
			"componentType":5126,
			"count":24,
			"type":"VEC3"
		},
		{
			"bufferView":29,
			"componentType":5126,
			"count":24,
			"type":"VEC2"
		},
		{
			"bufferView":30,
			"componentType":5126,
			"count":24,
			"type":"VEC2"
		},
		{
			"bufferView":31,
			"componentType":5121,
			"count":24,
			"normalized":true,
			"type":"VEC4"
		},
		{
			"bufferView":32,
			"componentType":5123,
			"count":24,
			"normalized":true,
			"type":"VEC4"
		},
		{
			"bufferView":33,
			"componentType":5123,
			"count":36,
			"type":"SCALAR"
		},
		{
			"bufferView":34,
			"componentType":5126,
			"count":24,
			"max":[
				-0.9388412833213806,
				2.4938316345214844,
				0.9388411641120911
			],
			"min":[
				-1.9999998807907104,
				0,
				-0.20000000298023224
			],
			"type":"VEC3"
		},
		{
			"bufferView":35,
			"componentType":5126,
			"count":24,
			"type":"VEC3"
		},
		{
			"bufferView":36,
			"componentType":5126,
			"count":24,
			"type":"VEC2"
		},
		{
			"bufferView":37,
			"componentType":5126,
			"count":24,
			"type":"VEC2"
		},
		{
			"bufferView":38,
			"componentType":5121,
			"count":24,
			"normalized":true,
			"type":"VEC4"
		},
		{
			"bufferView":39,
			"componentType":5123,
			"count":24,
			"normalized":true,
			"type":"VEC4"
		},
		{
			"bufferView":40,
			"componentType":5123,
			"count":36,
			"type":"SCALAR"
		},
		{
			"bufferView":41,
			"componentType":5126,
			"count":32,
			"max":[
				1.853119969367981,
				2.445091485977173,
				0.8563531041145325
			],
			"min":[
				-1.853119969367981,
				0.0414847731590271,
				-0.042901620268821716
			],
			"type":"VEC3"
		},
		{
			"bufferView":42,
			"componentType":5126,
			"count":32,
			"type":"VEC3"
		},
		{
			"bufferView":43,
			"componentType":5126,
			"count":32,
			"type":"VEC2"
		},
		{
			"bufferView":44,
			"componentType":5126,
			"count":32,
			"type":"VEC2"
		},
		{
			"bufferView":45,
			"componentType":5121,
			"count":32,
			"normalized":true,
			"type":"VEC4"
		},
		{
			"bufferView":46,
			"componentType":5123,
			"count":32,
			"normalized":true,
			"type":"VEC4"
		},
		{
			"bufferView":47,
			"componentType":5123,
			"count":48,
			"type":"SCALAR"
		},
		{
			"bufferView":48,
			"componentType":5126,
			"count":12,
			"max":[
				1.8630461692810059,
				2.4652676582336426,
				0.8539459109306335
			],
			"min":[
				-1.8531475067138672,
				0.02259528636932373,
				-0.08203127980232239
			],
			"type":"VEC3"
		},
		{
			"bufferView":49,
			"componentType":5126,
			"count":12,
			"type":"VEC3"
		},
		{
			"bufferView":50,
			"componentType":5126,
			"count":12,
			"type":"VEC2"
		},
		{
			"bufferView":51,
			"componentType":5126,
			"count":12,
			"type":"VEC2"
		},
		{
			"bufferView":52,
			"componentType":5121,
			"count":12,
			"normalized":true,
			"type":"VEC4"
		},
		{
			"bufferView":53,
			"componentType":5123,
			"count":12,
			"normalized":true,
			"type":"VEC4"
		},
		{
			"bufferView":54,
			"componentType":5123,
			"count":18,
			"type":"SCALAR"
		},
		{
			"bufferView":55,
			"componentType":5126,
			"count":739,
			"max":[
				2.000002384185791,
				3,
				1.0000001192092896
			],
			"min":[
				-2.000002384185791,
				-0.000594273442402482,
				-0.20000045001506805
			],
			"type":"VEC3"
		},
		{
			"bufferView":56,
			"componentType":5126,
			"count":739,
			"type":"VEC3"
		},
		{
			"bufferView":57,
			"componentType":5126,
			"count":739,
			"type":"VEC2"
		},
		{
			"bufferView":58,
			"componentType":5126,
			"count":739,
			"type":"VEC2"
		},
		{
			"bufferView":59,
			"componentType":5121,
			"count":739,
			"normalized":true,
			"type":"VEC4"
		},
		{
			"bufferView":60,
			"componentType":5123,
			"count":739,
			"normalized":true,
			"type":"VEC4"
		},
		{
			"bufferView":61,
			"componentType":5123,
			"count":1554,
			"type":"SCALAR"
		},
		{
			"bufferView":62,
			"componentType":5126,
			"count":14,
			"max":[
				2,
				3.000000476837158,
				0.7999998927116394
			],
			"min":[
				-2,
				2.483945369720459,
				-0.20000004768371582
			],
			"type":"VEC3"
		},
		{
			"bufferView":63,
			"componentType":5126,
			"count":14,
			"type":"VEC3"
		},
		{
			"bufferView":64,
			"componentType":5126,
			"count":14,
			"type":"VEC2"
		},
		{
			"bufferView":65,
			"componentType":5126,
			"count":14,
			"type":"VEC2"
		},
		{
			"bufferView":66,
			"componentType":5121,
			"count":14,
			"normalized":true,
			"type":"VEC4"
		},
		{
			"bufferView":67,
			"componentType":5123,
			"count":14,
			"normalized":true,
			"type":"VEC4"
		},
		{
			"bufferView":68,
			"componentType":5123,
			"count":24,
			"type":"SCALAR"
		}
	],
	"bufferViews":[
		{
			"buffer":0,
			"byteLength":288,
			"byteOffset":0,
			"target":34962
		},
		{
			"buffer":0,
			"byteLength":288,
			"byteOffset":288,
			"target":34962
		},
		{
			"buffer":0,
			"byteLength":192,
			"byteOffset":576,
			"target":34962
		},
		{
			"buffer":0,
			"byteLength":192,
			"byteOffset":768,
			"target":34962
		},
		{
			"buffer":0,
			"byteLength":96,
			"byteOffset":960,
			"target":34962
		},
		{
			"buffer":0,
			"byteLength":192,
			"byteOffset":1056,
			"target":34962
		},
		{
			"buffer":0,
			"byteLength":72,
			"byteOffset":1248,
			"target":34963
		},
		{
			"buffer":0,
			"byteLength":288,
			"byteOffset":1320,
			"target":34962
		},
		{
			"buffer":0,
			"byteLength":288,
			"byteOffset":1608,
			"target":34962
		},
		{
			"buffer":0,
			"byteLength":192,
			"byteOffset":1896,
			"target":34962
		},
		{
			"buffer":0,
			"byteLength":192,
			"byteOffset":2088,
			"target":34962
		},
		{
			"buffer":0,
			"byteLength":96,
			"byteOffset":2280,
			"target":34962
		},
		{
			"buffer":0,
			"byteLength":192,
			"byteOffset":2376,
			"target":34962
		},
		{
			"buffer":0,
			"byteLength":72,
			"byteOffset":2568,
			"target":34963
		},
		{
			"buffer":0,
			"byteLength":288,
			"byteOffset":2640,
			"target":34962
		},
		{
			"buffer":0,
			"byteLength":288,
			"byteOffset":2928,
			"target":34962
		},
		{
			"buffer":0,
			"byteLength":192,
			"byteOffset":3216,
			"target":34962
		},
		{
			"buffer":0,
			"byteLength":192,
			"byteOffset":3408,
			"target":34962
		},
		{
			"buffer":0,
			"byteLength":96,
			"byteOffset":3600,
			"target":34962
		},
		{
			"buffer":0,
			"byteLength":192,
			"byteOffset":3696,
			"target":34962
		},
		{
			"buffer":0,
			"byteLength":72,
			"byteOffset":3888,
			"target":34963
		},
		{
			"buffer":0,
			"byteLength":288,
			"byteOffset":3960,
			"target":34962
		},
		{
			"buffer":0,
			"byteLength":288,
			"byteOffset":4248,
			"target":34962
		},
		{
			"buffer":0,
			"byteLength":192,
			"byteOffset":4536,
			"target":34962
		},
		{
			"buffer":0,
			"byteLength":192,
			"byteOffset":4728,
			"target":34962
		},
		{
			"buffer":0,
			"byteLength":96,
			"byteOffset":4920,
			"target":34962
		},
		{
			"buffer":0,
			"byteLength":192,
			"byteOffset":5016,
			"target":34962
		},
		{
			"buffer":0,
			"byteLength":288,
			"byteOffset":5208,
			"target":34962
		},
		{
			"buffer":0,
			"byteLength":288,
			"byteOffset":5496,
			"target":34962
		},
		{
			"buffer":0,
			"byteLength":192,
			"byteOffset":5784,
			"target":34962
		},
		{
			"buffer":0,
			"byteLength":192,
			"byteOffset":5976,
			"target":34962
		},
		{
			"buffer":0,
			"byteLength":96,
			"byteOffset":6168,
			"target":34962
		},
		{
			"buffer":0,
			"byteLength":192,
			"byteOffset":6264,
			"target":34962
		},
		{
			"buffer":0,
			"byteLength":72,
			"byteOffset":6456,
			"target":34963
		},
		{
			"buffer":0,
			"byteLength":288,
			"byteOffset":6528,
			"target":34962
		},
		{
			"buffer":0,
			"byteLength":288,
			"byteOffset":6816,
			"target":34962
		},
		{
			"buffer":0,
			"byteLength":192,
			"byteOffset":7104,
			"target":34962
		},
		{
			"buffer":0,
			"byteLength":192,
			"byteOffset":7296,
			"target":34962
		},
		{
			"buffer":0,
			"byteLength":96,
			"byteOffset":7488,
			"target":34962
		},
		{
			"buffer":0,
			"byteLength":192,
			"byteOffset":7584,
			"target":34962
		},
		{
			"buffer":0,
			"byteLength":72,
			"byteOffset":7776,
			"target":34963
		},
		{
			"buffer":0,
			"byteLength":384,
			"byteOffset":7848,
			"target":34962
		},
		{
			"buffer":0,
			"byteLength":384,
			"byteOffset":8232,
			"target":34962
		},
		{
			"buffer":0,
			"byteLength":256,
			"byteOffset":8616,
			"target":34962
		},
		{
			"buffer":0,
			"byteLength":256,
			"byteOffset":8872,
			"target":34962
		},
		{
			"buffer":0,
			"byteLength":128,
			"byteOffset":9128,
			"target":34962
		},
		{
			"buffer":0,
			"byteLength":256,
			"byteOffset":9256,
			"target":34962
		},
		{
			"buffer":0,
			"byteLength":96,
			"byteOffset":9512,
			"target":34963
		},
		{
			"buffer":0,
			"byteLength":144,
			"byteOffset":9608,
			"target":34962
		},
		{
			"buffer":0,
			"byteLength":144,
			"byteOffset":9752,
			"target":34962
		},
		{
			"buffer":0,
			"byteLength":96,
			"byteOffset":9896,
			"target":34962
		},
		{
			"buffer":0,
			"byteLength":96,
			"byteOffset":9992,
			"target":34962
		},
		{
			"buffer":0,
			"byteLength":48,
			"byteOffset":10088,
			"target":34962
		},
		{
			"buffer":0,
			"byteLength":96,
			"byteOffset":10136,
			"target":34962
		},
		{
			"buffer":0,
			"byteLength":36,
			"byteOffset":10232,
			"target":34963
		},
		{
			"buffer":0,
			"byteLength":8868,
			"byteOffset":10268,
			"target":34962
		},
		{
			"buffer":0,
			"byteLength":8868,
			"byteOffset":19136,
			"target":34962
		},
		{
			"buffer":0,
			"byteLength":5912,
			"byteOffset":28004,
			"target":34962
		},
		{
			"buffer":0,
			"byteLength":5912,
			"byteOffset":33916,
			"target":34962
		},
		{
			"buffer":0,
			"byteLength":2956,
			"byteOffset":39828,
			"target":34962
		},
		{
			"buffer":0,
			"byteLength":5912,
			"byteOffset":42784,
			"target":34962
		},
		{
			"buffer":0,
			"byteLength":3108,
			"byteOffset":48696,
			"target":34963
		},
		{
			"buffer":0,
			"byteLength":168,
			"byteOffset":51804,
			"target":34962
		},
		{
			"buffer":0,
			"byteLength":168,
			"byteOffset":51972,
			"target":34962
		},
		{
			"buffer":0,
			"byteLength":112,
			"byteOffset":52140,
			"target":34962
		},
		{
			"buffer":0,
			"byteLength":112,
			"byteOffset":52252,
			"target":34962
		},
		{
			"buffer":0,
			"byteLength":56,
			"byteOffset":52364,
			"target":34962
		},
		{
			"buffer":0,
			"byteLength":112,
			"byteOffset":52420,
			"target":34962
		},
		{
			"buffer":0,
			"byteLength":48,
			"byteOffset":52532,
			"target":34963
		}
	],
	"samplers":[
		{
			"magFilter":9729,
			"minFilter":9987
		}
	],
	"buffers":[
		{
			"byteLength":52580,
			"uri":"Metal_BayWindow_Bottom.bin"
		}
	]
}
