{
	"asset":{
		"generator":"Khronos glTF Blender I/O v4.3.47",
		"version":"2.0"
	},
	"scene":0,
	"scenes":[
		{
			"name":"Scene",
			"nodes":[
				3
			]
		}
	],
	"nodes":[
		{
			"mesh":0,
			"name":"Metal_Column_Top_1-convcolonly"
		},
		{
			"mesh":1,
			"name":"Metal_Column_Top_2-convcolonly"
		},
		{
			"mesh":2,
			"name":"Metal_Column_Top_3-convcolonly"
		},
		{
			"children":[
				0,
				1,
				2
			],
			"mesh":3,
			"name":"Metal_Column_Top"
		}
	],
	"materials":[
		{
			"doubleSided":true,
			"name":"Collision",
			"pbrMetallicRoughness":{
				"baseColorFactor":[
					0.036788325756788254,
					0.5504099726676941,
					0.8000074625015259,
					1
				],
				"metallicFactor":0
			}
		},
		{
			"doubleSided":true,
			"name":"MI_Trim_MetalConcrete",
			"normalTexture":{
				"index":0
			},
			"pbrMetallicRoughness":{
				"baseColorTexture":{
					"index":1
				},
				"metallicRoughnessTexture":{
					"index":2
				}
			}
		}
	],
	"meshes":[
		{
			"name":"Cube.352",
			"primitives":[
				{
					"attributes":{
						"POSITION":0,
						"NORMAL":1,
						"TEXCOORD_0":2
					},
					"indices":3,
					"material":0
				}
			]
		},
		{
			"name":"Cube.353",
			"primitives":[
				{
					"attributes":{
						"POSITION":4,
						"NORMAL":5,
						"TEXCOORD_0":6
					},
					"indices":7,
					"material":0
				}
			]
		},
		{
			"name":"Cube.354",
			"primitives":[
				{
					"attributes":{
						"POSITION":8,
						"NORMAL":9,
						"TEXCOORD_0":10
					},
					"indices":11,
					"material":0
				}
			]
		},
		{
			"name":"Cube.105",
			"primitives":[
				{
					"attributes":{
						"POSITION":12,
						"NORMAL":13,
						"TEXCOORD_0":14,
						"TEXCOORD_1":15
					},
					"indices":16,
					"material":1
				}
			]
		}
	],
	"textures":[
		{
			"sampler":0,
			"source":0
		},
		{
			"sampler":0,
			"source":1
		},
		{
			"sampler":0,
			"source":2
		}
	],
	"images":[
		{
			"mimeType":"image/png",
			"name":"T_MetalConcrete_Normal",
			"uri":"../../materials/T_MetalConcrete_Normal.png"
		},
		{
			"mimeType":"image/png",
			"name":"T_MetalConcrete_BaseColor",
			"uri":"../../materials/T_MetalConcrete_BaseColor.png"
		},
		{
			"mimeType":"image/png",
			"name":"T_MetalConcrete_ORM",
			"uri":"../../materials/T_MetalConcrete_ORM.png"
		}
	],
	"accessors":[
		{
			"bufferView":0,
			"componentType":5126,
			"count":24,
			"max":[
				0.25073277950286865,
				3.000617027282715,
				0.2507338523864746
			],
			"min":[
				-0.25073525309562683,
				3.5762786865234375e-07,
				-0.25073423981666565
			],
			"type":"VEC3"
		},
		{
			"bufferView":1,
			"componentType":5126,
			"count":24,
			"type":"VEC3"
		},
		{
			"bufferView":2,
			"componentType":5126,
			"count":24,
			"type":"VEC2"
		},
		{
			"bufferView":3,
			"componentType":5123,
			"count":36,
			"type":"SCALAR"
		},
		{
			"bufferView":4,
			"componentType":5126,
			"count":24,
			"max":[
				0.28473562002182007,
				2.6565213203430176,
				0.2847368121147156
			],
			"min":[
				-0.2847383916378021,
				2.603046178817749,
				-0.2847372591495514
			],
			"type":"VEC3"
		},
		{
			"bufferView":5,
			"componentType":5126,
			"count":24,
			"type":"VEC3"
		},
		{
			"bufferView":6,
			"componentType":5126,
			"count":24,
			"type":"VEC2"
		},
		{
			"bufferView":7,
			"componentType":5123,
			"count":36,
			"type":"SCALAR"
		},
		{
			"bufferView":8,
			"componentType":5126,
			"count":40,
			"max":[
				0.33077946305274963,
				3.000617027282715,
				0.33077967166900635
			],
			"min":[
				-0.3307803273200989,
				2.6565213203430176,
				-0.33078017830848694
			],
			"type":"VEC3"
		},
		{
			"bufferView":9,
			"componentType":5126,
			"count":40,
			"type":"VEC3"
		},
		{
			"bufferView":10,
			"componentType":5126,
			"count":40,
			"type":"VEC2"
		},
		{
			"bufferView":11,
			"componentType":5123,
			"count":60,
			"type":"SCALAR"
		},
		{
			"bufferView":12,
			"componentType":5126,
			"count":233,
			"max":[
				0.3220544457435608,
				2.9956233501434326,
				0.3222980201244354
			],
			"min":[
				-0.32205432653427124,
				0,
				-0.3222976624965668
			],
			"type":"VEC3"
		},
		{
			"bufferView":13,
			"componentType":5126,
			"count":233,
			"type":"VEC3"
		},
		{
			"bufferView":14,
			"componentType":5126,
			"count":233,
			"type":"VEC2"
		},
		{
			"bufferView":15,
			"componentType":5126,
			"count":233,
			"type":"VEC2"
		},
		{
			"bufferView":16,
			"componentType":5123,
			"count":360,
			"type":"SCALAR"
		}
	],
	"bufferViews":[
		{
			"buffer":0,
			"byteLength":288,
			"byteOffset":0,
			"target":34962
		},
		{
			"buffer":0,
			"byteLength":288,
			"byteOffset":288,
			"target":34962
		},
		{
			"buffer":0,
			"byteLength":192,
			"byteOffset":576,
			"target":34962
		},
		{
			"buffer":0,
			"byteLength":72,
			"byteOffset":768,
			"target":34963
		},
		{
			"buffer":0,
			"byteLength":288,
			"byteOffset":840,
			"target":34962
		},
		{
			"buffer":0,
			"byteLength":288,
			"byteOffset":1128,
			"target":34962
		},
		{
			"buffer":0,
			"byteLength":192,
			"byteOffset":1416,
			"target":34962
		},
		{
			"buffer":0,
			"byteLength":72,
			"byteOffset":1608,
			"target":34963
		},
		{
			"buffer":0,
			"byteLength":480,
			"byteOffset":1680,
			"target":34962
		},
		{
			"buffer":0,
			"byteLength":480,
			"byteOffset":2160,
			"target":34962
		},
		{
			"buffer":0,
			"byteLength":320,
			"byteOffset":2640,
			"target":34962
		},
		{
			"buffer":0,
			"byteLength":120,
			"byteOffset":2960,
			"target":34963
		},
		{
			"buffer":0,
			"byteLength":2796,
			"byteOffset":3080,
			"target":34962
		},
		{
			"buffer":0,
			"byteLength":2796,
			"byteOffset":5876,
			"target":34962
		},
		{
			"buffer":0,
			"byteLength":1864,
			"byteOffset":8672,
			"target":34962
		},
		{
			"buffer":0,
			"byteLength":1864,
			"byteOffset":10536,
			"target":34962
		},
		{
			"buffer":0,
			"byteLength":720,
			"byteOffset":12400,
			"target":34963
		}
	],
	"samplers":[
		{
			"magFilter":9729,
			"minFilter":9987
		}
	],
	"buffers":[
		{
			"byteLength":13120,
			"uri":"Metal_Column_Top.bin"
		}
	]
}
