{
	"asset":{
		"generator":"Khronos glTF Blender I/O v4.3.47",
		"version":"2.0"
	},
	"scene":0,
	"scenes":[
		{
			"name":"Scene",
			"nodes":[
				1
			]
		}
	],
	"nodes":[
		{
			"mesh":0,
			"name":"Metal_Window_1-convcolonly"
		},
		{
			"children":[
				0
			],
			"mesh":1,
			"name":"Metal_Window"
		}
	],
	"materials":[
		{
			"doubleSided":true,
			"name":"Collision",
			"pbrMetallicRoughness":{
				"baseColorFactor":[
					0.036788325756788254,
					0.5504099726676941,
					0.8000074625015259,
					1
				],
				"metallicFactor":0
			}
		},
		{
			"doubleSided":true,
			"name":"MI_RedBrick",
			"normalTexture":{
				"index":0
			},
			"pbrMetallicRoughness":{
				"baseColorTexture":{
					"index":1
				},
				"metallicRoughnessTexture":{
					"index":2
				}
			}
		},
		{
			"doubleSided":true,
			"name":"MI_Trim_MetalConcrete",
			"normalTexture":{
				"index":3
			},
			"pbrMetallicRoughness":{
				"baseColorTexture":{
					"index":4
				},
				"metallicRoughnessTexture":{
					"index":5
				}
			}
		},
		{
			"alphaMode":"BLEND",
			"doubleSided":true,
			"name":"MI_Glass",
			"pbrMetallicRoughness":{
				"baseColorFactor":[
					0.05215025693178177,
					0.05215025693178177,
					0.05215025693178177,
					0.586363673210144
				],
				"metallicFactor":0,
				"roughnessFactor":0.5
			}
		},
		{
			"doubleSided":true,
			"name":"MI_FakeInterior",
			"pbrMetallicRoughness":{
				"baseColorFactor":[
					0.800000011920929,
					0.800000011920929,
					0.800000011920929,
					1
				],
				"metallicFactor":0,
				"roughnessFactor":0.5
			}
		},
		{
			"doubleSided":true,
			"name":"MI_InteriorWall",
			"normalTexture":{
				"index":6
			},
			"pbrMetallicRoughness":{
				"baseColorTexture":{
					"index":7
				},
				"metallicRoughnessTexture":{
					"index":8
				}
			}
		}
	],
	"meshes":[
		{
			"name":"Cube.357",
			"primitives":[
				{
					"attributes":{
						"POSITION":0,
						"NORMAL":1,
						"TEXCOORD_0":2
					},
					"indices":3,
					"material":0
				}
			]
		},
		{
			"name":"Cube.044",
			"primitives":[
				{
					"attributes":{
						"POSITION":4,
						"NORMAL":5,
						"TEXCOORD_0":6,
						"TEXCOORD_1":7,
						"COLOR_0":8,
						"COLOR_1":9
					},
					"indices":10,
					"material":1
				},
				{
					"attributes":{
						"POSITION":11,
						"NORMAL":12,
						"TEXCOORD_0":13,
						"TEXCOORD_1":14,
						"COLOR_0":15,
						"COLOR_1":16
					},
					"indices":17,
					"material":2
				},
				{
					"attributes":{
						"POSITION":18,
						"NORMAL":19,
						"TEXCOORD_0":20,
						"TEXCOORD_1":21,
						"COLOR_0":22,
						"COLOR_1":23
					},
					"indices":24,
					"material":3
				},
				{
					"attributes":{
						"POSITION":25,
						"NORMAL":26,
						"TEXCOORD_0":27,
						"TEXCOORD_1":28,
						"COLOR_0":29,
						"COLOR_1":30
					},
					"indices":31,
					"material":4
				},
				{
					"attributes":{
						"POSITION":32,
						"NORMAL":33,
						"TEXCOORD_0":34,
						"TEXCOORD_1":35,
						"COLOR_0":36,
						"COLOR_1":37
					},
					"indices":38,
					"material":5
				}
			]
		}
	],
	"textures":[
		{
			"sampler":0,
			"source":0
		},
		{
			"sampler":0,
			"source":1
		},
		{
			"sampler":0,
			"source":2
		},
		{
			"sampler":0,
			"source":3
		},
		{
			"sampler":0,
			"source":4
		},
		{
			"sampler":0,
			"source":5
		},
		{
			"sampler":0,
			"source":0
		},
		{
			"sampler":0,
			"source":1
		},
		{
			"sampler":0,
			"source":2
		}
	],
	"images":[
		{
			"mimeType":"image/png",
			"name":"T_RedBrick_Normal",
			"uri":"../../materials/T_RedBrick_Normal.png"
		},
		{
			"mimeType":"image/png",
			"name":"T_RedBrick_BaseColor",
			"uri":"../../materials/T_RedBrick_BaseColor.png"
		},
		{
			"mimeType":"image/png",
			"name":"T_RedBrick_ORM",
			"uri":"../../materials/T_RedBrick_ORM.png"
		},
		{
			"mimeType":"image/png",
			"name":"T_MetalConcrete_Normal",
			"uri":"../../materials/T_MetalConcrete_Normal.png"
		},
		{
			"mimeType":"image/png",
			"name":"T_MetalConcrete_BaseColor",
			"uri":"../../materials/T_MetalConcrete_BaseColor.png"
		},
		{
			"mimeType":"image/png",
			"name":"T_MetalConcrete_ORM",
			"uri":"../../materials/T_MetalConcrete_ORM.png"
		}
	],
	"accessors":[
		{
			"bufferView":0,
			"componentType":5126,
			"count":24,
			"max":[
				2.0000007152557373,
				3,
				0
			],
			"min":[
				-2.0000007152557373,
				0,
				-0.19999998807907104
			],
			"type":"VEC3"
		},
		{
			"bufferView":1,
			"componentType":5126,
			"count":24,
			"type":"VEC3"
		},
		{
			"bufferView":2,
			"componentType":5126,
			"count":24,
			"type":"VEC2"
		},
		{
			"bufferView":3,
			"componentType":5123,
			"count":36,
			"type":"SCALAR"
		},
		{
			"bufferView":4,
			"componentType":5126,
			"count":46,
			"max":[
				2,
				3,
				1.3113415775478643e-07
			],
			"min":[
				-2,
				0,
				-0.1000000610947609
			],
			"type":"VEC3"
		},
		{
			"bufferView":5,
			"componentType":5126,
			"count":46,
			"type":"VEC3"
		},
		{
			"bufferView":6,
			"componentType":5126,
			"count":46,
			"type":"VEC2"
		},
		{
			"bufferView":7,
			"componentType":5126,
			"count":46,
			"type":"VEC2"
		},
		{
			"bufferView":8,
			"componentType":5121,
			"count":46,
			"normalized":true,
			"type":"VEC4"
		},
		{
			"bufferView":9,
			"componentType":5123,
			"count":46,
			"normalized":true,
			"type":"VEC4"
		},
		{
			"bufferView":10,
			"componentType":5123,
			"count":120,
			"type":"SCALAR"
		},
		{
			"bufferView":11,
			"componentType":5126,
			"count":654,
			"max":[
				1.5,
				3,
				0
			],
			"min":[
				-1.5,
				-0.0005897581577301025,
				-0.2239021360874176
			],
			"type":"VEC3"
		},
		{
			"bufferView":12,
			"componentType":5126,
			"count":654,
			"type":"VEC3"
		},
		{
			"bufferView":13,
			"componentType":5126,
			"count":654,
			"type":"VEC2"
		},
		{
			"bufferView":14,
			"componentType":5126,
			"count":654,
			"type":"VEC2"
		},
		{
			"bufferView":15,
			"componentType":5121,
			"count":654,
			"normalized":true,
			"type":"VEC4"
		},
		{
			"bufferView":16,
			"componentType":5123,
			"count":654,
			"normalized":true,
			"type":"VEC4"
		},
		{
			"bufferView":17,
			"componentType":5123,
			"count":1500,
			"type":"SCALAR"
		},
		{
			"bufferView":18,
			"componentType":5126,
			"count":28,
			"max":[
				1.430086612701416,
				2.430180072784424,
				-0.13850083947181702
			],
			"min":[
				-1.430086612701416,
				0.041484713554382324,
				-0.13850083947181702
			],
			"type":"VEC3"
		},
		{
			"bufferView":19,
			"componentType":5126,
			"count":28,
			"type":"VEC3"
		},
		{
			"bufferView":20,
			"componentType":5126,
			"count":28,
			"type":"VEC2"
		},
		{
			"bufferView":21,
			"componentType":5126,
			"count":28,
			"type":"VEC2"
		},
		{
			"bufferView":22,
			"componentType":5121,
			"count":28,
			"normalized":true,
			"type":"VEC4"
		},
		{
			"bufferView":23,
			"componentType":5123,
			"count":28,
			"normalized":true,
			"type":"VEC4"
		},
		{
			"bufferView":24,
			"componentType":5123,
			"count":48,
			"type":"SCALAR"
		},
		{
			"bufferView":25,
			"componentType":5126,
			"count":4,
			"max":[
				1.6066439151763916,
				2.989975929260254,
				-0.14119315147399902
			],
			"min":[
				-1.6066439151763916,
				0.015627866610884666,
				-0.14119315147399902
			],
			"type":"VEC3"
		},
		{
			"bufferView":26,
			"componentType":5126,
			"count":4,
			"type":"VEC3"
		},
		{
			"bufferView":27,
			"componentType":5126,
			"count":4,
			"type":"VEC2"
		},
		{
			"bufferView":28,
			"componentType":5126,
			"count":4,
			"type":"VEC2"
		},
		{
			"bufferView":29,
			"componentType":5121,
			"count":4,
			"normalized":true,
			"type":"VEC4"
		},
		{
			"bufferView":30,
			"componentType":5123,
			"count":4,
			"normalized":true,
			"type":"VEC4"
		},
		{
			"bufferView":31,
			"componentType":5123,
			"count":6,
			"type":"SCALAR"
		},
		{
			"bufferView":32,
			"componentType":5126,
			"count":26,
			"max":[
				2,
				3.000000476837158,
				-0.2000000923871994
			],
			"min":[
				-2,
				0,
				-0.2000000923871994
			],
			"type":"VEC3"
		},
		{
			"bufferView":33,
			"componentType":5126,
			"count":26,
			"type":"VEC3"
		},
		{
			"bufferView":34,
			"componentType":5126,
			"count":26,
			"type":"VEC2"
		},
		{
			"bufferView":35,
			"componentType":5126,
			"count":26,
			"type":"VEC2"
		},
		{
			"bufferView":36,
			"componentType":5121,
			"count":26,
			"normalized":true,
			"type":"VEC4"
		},
		{
			"bufferView":37,
			"componentType":5123,
			"count":26,
			"normalized":true,
			"type":"VEC4"
		},
		{
			"bufferView":38,
			"componentType":5123,
			"count":60,
			"type":"SCALAR"
		}
	],
	"bufferViews":[
		{
			"buffer":0,
			"byteLength":288,
			"byteOffset":0,
			"target":34962
		},
		{
			"buffer":0,
			"byteLength":288,
			"byteOffset":288,
			"target":34962
		},
		{
			"buffer":0,
			"byteLength":192,
			"byteOffset":576,
			"target":34962
		},
		{
			"buffer":0,
			"byteLength":72,
			"byteOffset":768,
			"target":34963
		},
		{
			"buffer":0,
			"byteLength":552,
			"byteOffset":840,
			"target":34962
		},
		{
			"buffer":0,
			"byteLength":552,
			"byteOffset":1392,
			"target":34962
		},
		{
			"buffer":0,
			"byteLength":368,
			"byteOffset":1944,
			"target":34962
		},
		{
			"buffer":0,
			"byteLength":368,
			"byteOffset":2312,
			"target":34962
		},
		{
			"buffer":0,
			"byteLength":184,
			"byteOffset":2680,
			"target":34962
		},
		{
			"buffer":0,
			"byteLength":368,
			"byteOffset":2864,
			"target":34962
		},
		{
			"buffer":0,
			"byteLength":240,
			"byteOffset":3232,
			"target":34963
		},
		{
			"buffer":0,
			"byteLength":7848,
			"byteOffset":3472,
			"target":34962
		},
		{
			"buffer":0,
			"byteLength":7848,
			"byteOffset":11320,
			"target":34962
		},
		{
			"buffer":0,
			"byteLength":5232,
			"byteOffset":19168,
			"target":34962
		},
		{
			"buffer":0,
			"byteLength":5232,
			"byteOffset":24400,
			"target":34962
		},
		{
			"buffer":0,
			"byteLength":2616,
			"byteOffset":29632,
			"target":34962
		},
		{
			"buffer":0,
			"byteLength":5232,
			"byteOffset":32248,
			"target":34962
		},
		{
			"buffer":0,
			"byteLength":3000,
			"byteOffset":37480,
			"target":34963
		},
		{
			"buffer":0,
			"byteLength":336,
			"byteOffset":40480,
			"target":34962
		},
		{
			"buffer":0,
			"byteLength":336,
			"byteOffset":40816,
			"target":34962
		},
		{
			"buffer":0,
			"byteLength":224,
			"byteOffset":41152,
			"target":34962
		},
		{
			"buffer":0,
			"byteLength":224,
			"byteOffset":41376,
			"target":34962
		},
		{
			"buffer":0,
			"byteLength":112,
			"byteOffset":41600,
			"target":34962
		},
		{
			"buffer":0,
			"byteLength":224,
			"byteOffset":41712,
			"target":34962
		},
		{
			"buffer":0,
			"byteLength":96,
			"byteOffset":41936,
			"target":34963
		},
		{
			"buffer":0,
			"byteLength":48,
			"byteOffset":42032,
			"target":34962
		},
		{
			"buffer":0,
			"byteLength":48,
			"byteOffset":42080,
			"target":34962
		},
		{
			"buffer":0,
			"byteLength":32,
			"byteOffset":42128,
			"target":34962
		},
		{
			"buffer":0,
			"byteLength":32,
			"byteOffset":42160,
			"target":34962
		},
		{
			"buffer":0,
			"byteLength":16,
			"byteOffset":42192,
			"target":34962
		},
		{
			"buffer":0,
			"byteLength":32,
			"byteOffset":42208,
			"target":34962
		},
		{
			"buffer":0,
			"byteLength":12,
			"byteOffset":42240,
			"target":34963
		},
		{
			"buffer":0,
			"byteLength":312,
			"byteOffset":42252,
			"target":34962
		},
		{
			"buffer":0,
			"byteLength":312,
			"byteOffset":42564,
			"target":34962
		},
		{
			"buffer":0,
			"byteLength":208,
			"byteOffset":42876,
			"target":34962
		},
		{
			"buffer":0,
			"byteLength":208,
			"byteOffset":43084,
			"target":34962
		},
		{
			"buffer":0,
			"byteLength":104,
			"byteOffset":43292,
			"target":34962
		},
		{
			"buffer":0,
			"byteLength":208,
			"byteOffset":43396,
			"target":34962
		},
		{
			"buffer":0,
			"byteLength":120,
			"byteOffset":43604,
			"target":34963
		}
	],
	"samplers":[
		{
			"magFilter":9729,
			"minFilter":9987
		}
	],
	"buffers":[
		{
			"byteLength":43724,
			"uri":"Metal_Window.bin"
		}
	]
}
