{
	"asset":{
		"generator":"Khronos glTF Blender I/O v4.3.47",
		"version":"2.0"
	},
	"scene":0,
	"scenes":[
		{
			"name":"Scene",
			"nodes":[
				1
			]
		}
	],
	"nodes":[
		{
			"mesh":0,
			"name":"Metal_FullWindow_1-convcolonly"
		},
		{
			"children":[
				0
			],
			"mesh":1,
			"name":"Metal_FullWindow"
		}
	],
	"materials":[
		{
			"doubleSided":true,
			"name":"Collision",
			"pbrMetallicRoughness":{
				"baseColorFactor":[
					0.036788325756788254,
					0.5504099726676941,
					0.8000074625015259,
					1
				],
				"metallicFactor":0
			}
		},
		{
			"doubleSided":true,
			"name":"MI_Trim_MetalConcrete",
			"normalTexture":{
				"index":0
			},
			"pbrMetallicRoughness":{
				"baseColorTexture":{
					"index":1
				},
				"metallicRoughnessTexture":{
					"index":2
				}
			}
		},
		{
			"alphaMode":"BLEND",
			"doubleSided":true,
			"name":"MI_Glass",
			"pbrMetallicRoughness":{
				"baseColorFactor":[
					0.05215025693178177,
					0.05215025693178177,
					0.05215025693178177,
					0.586363673210144
				],
				"metallicFactor":0,
				"roughnessFactor":0.5
			}
		},
		{
			"doubleSided":true,
			"name":"MI_FakeInterior",
			"pbrMetallicRoughness":{
				"baseColorFactor":[
					0.800000011920929,
					0.800000011920929,
					0.800000011920929,
					1
				],
				"metallicFactor":0,
				"roughnessFactor":0.5
			}
		}
	],
	"meshes":[
		{
			"name":"Cube.346",
			"primitives":[
				{
					"attributes":{
						"POSITION":0,
						"NORMAL":1,
						"TEXCOORD_0":2
					},
					"indices":3,
					"material":0
				}
			]
		},
		{
			"name":"Cube.168",
			"primitives":[
				{
					"attributes":{
						"POSITION":4,
						"NORMAL":5,
						"TEXCOORD_0":6,
						"TEXCOORD_1":7,
						"COLOR_0":8,
						"COLOR_1":9
					},
					"indices":10,
					"material":1
				},
				{
					"attributes":{
						"POSITION":11,
						"NORMAL":12,
						"TEXCOORD_0":13,
						"TEXCOORD_1":14,
						"COLOR_0":15,
						"COLOR_1":16
					},
					"indices":17,
					"material":2
				},
				{
					"attributes":{
						"POSITION":18,
						"NORMAL":19,
						"TEXCOORD_0":20,
						"TEXCOORD_1":21,
						"COLOR_0":22,
						"COLOR_1":23
					},
					"indices":24,
					"material":3
				}
			]
		}
	],
	"textures":[
		{
			"sampler":0,
			"source":0
		},
		{
			"sampler":0,
			"source":1
		},
		{
			"sampler":0,
			"source":2
		}
	],
	"images":[
		{
			"mimeType":"image/png",
			"name":"T_MetalConcrete_Normal",
			"uri":"../../materials/T_MetalConcrete_Normal.png"
		},
		{
			"mimeType":"image/png",
			"name":"T_MetalConcrete_BaseColor",
			"uri":"../../materials/T_MetalConcrete_BaseColor.png"
		},
		{
			"mimeType":"image/png",
			"name":"T_MetalConcrete_ORM",
			"uri":"../../materials/T_MetalConcrete_ORM.png"
		}
	],
	"accessors":[
		{
			"bufferView":0,
			"componentType":5126,
			"count":24,
			"max":[
				1.0000003576278687,
				3,
				0
			],
			"min":[
				-1.0000003576278687,
				0,
				-0.19999998807907104
			],
			"type":"VEC3"
		},
		{
			"bufferView":1,
			"componentType":5126,
			"count":24,
			"type":"VEC3"
		},
		{
			"bufferView":2,
			"componentType":5126,
			"count":24,
			"type":"VEC2"
		},
		{
			"bufferView":3,
			"componentType":5123,
			"count":36,
			"type":"SCALAR"
		},
		{
			"bufferView":4,
			"componentType":5126,
			"count":268,
			"max":[
				1,
				3,
				0.015472263097763062
			],
			"min":[
				-1,
				0,
				-0.21562494337558746
			],
			"type":"VEC3"
		},
		{
			"bufferView":5,
			"componentType":5126,
			"count":268,
			"type":"VEC3"
		},
		{
			"bufferView":6,
			"componentType":5126,
			"count":268,
			"type":"VEC2"
		},
		{
			"bufferView":7,
			"componentType":5126,
			"count":268,
			"type":"VEC2"
		},
		{
			"bufferView":8,
			"componentType":5121,
			"count":268,
			"normalized":true,
			"type":"VEC4"
		},
		{
			"bufferView":9,
			"componentType":5123,
			"count":268,
			"normalized":true,
			"type":"VEC4"
		},
		{
			"bufferView":10,
			"componentType":5123,
			"count":600,
			"type":"SCALAR"
		},
		{
			"bufferView":11,
			"componentType":5126,
			"count":12,
			"max":[
				0.9026076793670654,
				2.700000286102295,
				-0.06675991415977478
			],
			"min":[
				-0.9026076793670654,
				0.05869913101196289,
				-0.06675997376441956
			],
			"type":"VEC3"
		},
		{
			"bufferView":12,
			"componentType":5126,
			"count":12,
			"type":"VEC3"
		},
		{
			"bufferView":13,
			"componentType":5126,
			"count":12,
			"type":"VEC2"
		},
		{
			"bufferView":14,
			"componentType":5126,
			"count":12,
			"type":"VEC2"
		},
		{
			"bufferView":15,
			"componentType":5121,
			"count":12,
			"normalized":true,
			"type":"VEC4"
		},
		{
			"bufferView":16,
			"componentType":5123,
			"count":12,
			"normalized":true,
			"type":"VEC4"
		},
		{
			"bufferView":17,
			"componentType":5123,
			"count":24,
			"type":"SCALAR"
		},
		{
			"bufferView":18,
			"componentType":5126,
			"count":4,
			"max":[
				0.9872606992721558,
				2.828357219696045,
				-0.06820318102836609
			],
			"min":[
				-0.9872606992721558,
				0.04824328422546387,
				-0.06820318102836609
			],
			"type":"VEC3"
		},
		{
			"bufferView":19,
			"componentType":5126,
			"count":4,
			"type":"VEC3"
		},
		{
			"bufferView":20,
			"componentType":5126,
			"count":4,
			"type":"VEC2"
		},
		{
			"bufferView":21,
			"componentType":5126,
			"count":4,
			"type":"VEC2"
		},
		{
			"bufferView":22,
			"componentType":5121,
			"count":4,
			"normalized":true,
			"type":"VEC4"
		},
		{
			"bufferView":23,
			"componentType":5123,
			"count":4,
			"normalized":true,
			"type":"VEC4"
		},
		{
			"bufferView":24,
			"componentType":5123,
			"count":6,
			"type":"SCALAR"
		}
	],
	"bufferViews":[
		{
			"buffer":0,
			"byteLength":288,
			"byteOffset":0,
			"target":34962
		},
		{
			"buffer":0,
			"byteLength":288,
			"byteOffset":288,
			"target":34962
		},
		{
			"buffer":0,
			"byteLength":192,
			"byteOffset":576,
			"target":34962
		},
		{
			"buffer":0,
			"byteLength":72,
			"byteOffset":768,
			"target":34963
		},
		{
			"buffer":0,
			"byteLength":3216,
			"byteOffset":840,
			"target":34962
		},
		{
			"buffer":0,
			"byteLength":3216,
			"byteOffset":4056,
			"target":34962
		},
		{
			"buffer":0,
			"byteLength":2144,
			"byteOffset":7272,
			"target":34962
		},
		{
			"buffer":0,
			"byteLength":2144,
			"byteOffset":9416,
			"target":34962
		},
		{
			"buffer":0,
			"byteLength":1072,
			"byteOffset":11560,
			"target":34962
		},
		{
			"buffer":0,
			"byteLength":2144,
			"byteOffset":12632,
			"target":34962
		},
		{
			"buffer":0,
			"byteLength":1200,
			"byteOffset":14776,
			"target":34963
		},
		{
			"buffer":0,
			"byteLength":144,
			"byteOffset":15976,
			"target":34962
		},
		{
			"buffer":0,
			"byteLength":144,
			"byteOffset":16120,
			"target":34962
		},
		{
			"buffer":0,
			"byteLength":96,
			"byteOffset":16264,
			"target":34962
		},
		{
			"buffer":0,
			"byteLength":96,
			"byteOffset":16360,
			"target":34962
		},
		{
			"buffer":0,
			"byteLength":48,
			"byteOffset":16456,
			"target":34962
		},
		{
			"buffer":0,
			"byteLength":96,
			"byteOffset":16504,
			"target":34962
		},
		{
			"buffer":0,
			"byteLength":48,
			"byteOffset":16600,
			"target":34963
		},
		{
			"buffer":0,
			"byteLength":48,
			"byteOffset":16648,
			"target":34962
		},
		{
			"buffer":0,
			"byteLength":48,
			"byteOffset":16696,
			"target":34962
		},
		{
			"buffer":0,
			"byteLength":32,
			"byteOffset":16744,
			"target":34962
		},
		{
			"buffer":0,
			"byteLength":32,
			"byteOffset":16776,
			"target":34962
		},
		{
			"buffer":0,
			"byteLength":16,
			"byteOffset":16808,
			"target":34962
		},
		{
			"buffer":0,
			"byteLength":32,
			"byteOffset":16824,
			"target":34962
		},
		{
			"buffer":0,
			"byteLength":12,
			"byteOffset":16856,
			"target":34963
		}
	],
	"samplers":[
		{
			"magFilter":9729,
			"minFilter":9987
		}
	],
	"buffers":[
		{
			"byteLength":16868,
			"uri":"Metal_FullWindow.bin"
		}
	]
}
