{
	"asset":{
		"generator":"Khronos glTF Blender I/O v4.3.47",
		"version":"2.0"
	},
	"scene":0,
	"scenes":[
		{
			"name":"Scene",
			"nodes":[
				21
			]
		}
	],
	"nodes":[
		{
			"mesh":0,
			"name":"Prop_FireEscape_Bottom_01-convcolonly"
		},
		{
			"mesh":1,
			"name":"Prop_FireEscape_Bottom_02-convcolonly"
		},
		{
			"mesh":2,
			"name":"Prop_FireEscape_Bottom_03-convcolonly"
		},
		{
			"mesh":3,
			"name":"Prop_FireEscape_Bottom_04-convcolonly"
		},
		{
			"mesh":4,
			"name":"Prop_FireEscape_Bottom_05-convcolonly"
		},
		{
			"mesh":5,
			"name":"Prop_FireEscape_Bottom_06-convcolonly"
		},
		{
			"mesh":6,
			"name":"Prop_FireEscape_Bottom_07-convcolonly"
		},
		{
			"mesh":7,
			"name":"Prop_FireEscape_Bottom_08-convcolonly"
		},
		{
			"mesh":8,
			"name":"Prop_FireEscape_Bottom_09-convcolonly"
		},
		{
			"mesh":9,
			"name":"Prop_FireEscape_Bottom_10-convcolonly"
		},
		{
			"mesh":10,
			"name":"Prop_FireEscape_Bottom_11-convcolonly"
		},
		{
			"mesh":11,
			"name":"Prop_FireEscape_Bottom_12-convcolonly"
		},
		{
			"mesh":12,
			"name":"Prop_FireEscape_Bottom_13-convcolonly"
		},
		{
			"mesh":13,
			"name":"Prop_FireEscape_Bottom_14-convcolonly"
		},
		{
			"mesh":14,
			"name":"Prop_FireEscape_Bottom_15-convcolonly"
		},
		{
			"mesh":15,
			"name":"Prop_FireEscape_Bottom_16-convcolonly"
		},
		{
			"mesh":16,
			"name":"Prop_FireEscape_Bottom_17-convcolonly"
		},
		{
			"mesh":17,
			"name":"Prop_FireEscape_Bottom_18-convcolonly"
		},
		{
			"mesh":18,
			"name":"Prop_FireEscape_Bottom_19-convcolonly"
		},
		{
			"mesh":19,
			"name":"Prop_FireEscape_Bottom_20-convcolonly"
		},
		{
			"mesh":20,
			"name":"Prop_FireEscape_Bottom_21-convcolonly"
		},
		{
			"children":[
				0,
				1,
				2,
				3,
				4,
				5,
				6,
				7,
				8,
				9,
				10,
				11,
				12,
				13,
				14,
				15,
				16,
				17,
				18,
				19,
				20
			],
			"mesh":21,
			"name":"Prop_FireEscape_Bottom"
		}
	],
	"materials":[
		{
			"doubleSided":true,
			"name":"Collision",
			"pbrMetallicRoughness":{
				"baseColorFactor":[
					0.036788325756788254,
					0.5504099726676941,
					0.8000074625015259,
					1
				],
				"metallicFactor":0
			}
		},
		{
			"doubleSided":true,
			"name":"MI_Trim_MetalConcrete",
			"normalTexture":{
				"index":0
			},
			"pbrMetallicRoughness":{
				"baseColorTexture":{
					"index":1
				},
				"metallicRoughnessTexture":{
					"index":2
				}
			}
		}
	],
	"meshes":[
		{
			"name":"UCX_Prop_FireEscape_Bottom_01",
			"primitives":[
				{
					"attributes":{
						"POSITION":0,
						"NORMAL":1,
						"TEXCOORD_0":2,
						"TEXCOORD_1":3
					},
					"indices":4,
					"material":0
				}
			]
		},
		{
			"name":"UCX_Prop_FireEscape_Bottom_02",
			"primitives":[
				{
					"attributes":{
						"POSITION":5,
						"NORMAL":6,
						"TEXCOORD_0":7,
						"TEXCOORD_1":8
					},
					"indices":9,
					"material":0
				}
			]
		},
		{
			"name":"UCX_Prop_FireEscape_Bottom_03",
			"primitives":[
				{
					"attributes":{
						"POSITION":10,
						"NORMAL":11,
						"TEXCOORD_0":12,
						"TEXCOORD_1":13
					},
					"indices":14,
					"material":0
				}
			]
		},
		{
			"name":"UCX_Prop_FireEscape_Bottom_04",
			"primitives":[
				{
					"attributes":{
						"POSITION":15,
						"NORMAL":16,
						"TEXCOORD_0":17,
						"TEXCOORD_1":18
					},
					"indices":19,
					"material":0
				}
			]
		},
		{
			"name":"UCX_Prop_FireEscape_Bottom_05",
			"primitives":[
				{
					"attributes":{
						"POSITION":20,
						"NORMAL":21,
						"TEXCOORD_0":22,
						"TEXCOORD_1":23
					},
					"indices":24,
					"material":0
				}
			]
		},
		{
			"name":"UCX_Prop_FireEscape_Bottom_06",
			"primitives":[
				{
					"attributes":{
						"POSITION":25,
						"NORMAL":26,
						"TEXCOORD_0":27,
						"TEXCOORD_1":28
					},
					"indices":24,
					"material":0
				}
			]
		},
		{
			"name":"UCX_Prop_FireEscape_Bottom_07",
			"primitives":[
				{
					"attributes":{
						"POSITION":29,
						"NORMAL":30,
						"TEXCOORD_0":31,
						"TEXCOORD_1":32
					},
					"indices":33,
					"material":0
				}
			]
		},
		{
			"name":"UCX_Prop_FireEscape_Bottom_08",
			"primitives":[
				{
					"attributes":{
						"POSITION":34,
						"NORMAL":35,
						"TEXCOORD_0":36,
						"TEXCOORD_1":37
					},
					"indices":38,
					"material":0
				}
			]
		},
		{
			"name":"UCX_Prop_FireEscape_Bottom_09",
			"primitives":[
				{
					"attributes":{
						"POSITION":39,
						"NORMAL":40,
						"TEXCOORD_0":41,
						"TEXCOORD_1":42
					},
					"indices":43,
					"material":0
				}
			]
		},
		{
			"name":"UCX_Prop_FireEscape_Bottom_10",
			"primitives":[
				{
					"attributes":{
						"POSITION":44,
						"NORMAL":45,
						"TEXCOORD_0":46,
						"TEXCOORD_1":47
					},
					"indices":48,
					"material":0
				}
			]
		},
		{
			"name":"UCX_Prop_FireEscape_Bottom_11",
			"primitives":[
				{
					"attributes":{
						"POSITION":49,
						"NORMAL":50,
						"TEXCOORD_0":51,
						"TEXCOORD_1":52
					},
					"indices":53,
					"material":0
				}
			]
		},
		{
			"name":"UCX_Prop_FireEscape_Bottom_12",
			"primitives":[
				{
					"attributes":{
						"POSITION":54,
						"NORMAL":55,
						"TEXCOORD_0":56,
						"TEXCOORD_1":57
					},
					"indices":58,
					"material":0
				}
			]
		},
		{
			"name":"UCX_Prop_FireEscape_Bottom_13",
			"primitives":[
				{
					"attributes":{
						"POSITION":59,
						"NORMAL":60,
						"TEXCOORD_0":61,
						"TEXCOORD_1":62
					},
					"indices":63,
					"material":0
				}
			]
		},
		{
			"name":"UCX_Prop_FireEscape_Bottom_14",
			"primitives":[
				{
					"attributes":{
						"POSITION":64,
						"NORMAL":65,
						"TEXCOORD_0":66,
						"TEXCOORD_1":67
					},
					"indices":68,
					"material":0
				}
			]
		},
		{
			"name":"UCX_Prop_FireEscape_Bottom_15",
			"primitives":[
				{
					"attributes":{
						"POSITION":69,
						"NORMAL":70,
						"TEXCOORD_0":71,
						"TEXCOORD_1":72
					},
					"indices":68,
					"material":0
				}
			]
		},
		{
			"name":"UCX_Prop_FireEscape_Bottom_16",
			"primitives":[
				{
					"attributes":{
						"POSITION":73,
						"NORMAL":74,
						"TEXCOORD_0":75,
						"TEXCOORD_1":76
					},
					"indices":68,
					"material":0
				}
			]
		},
		{
			"name":"UCX_Prop_FireEscape_Bottom_17",
			"primitives":[
				{
					"attributes":{
						"POSITION":77,
						"NORMAL":78,
						"TEXCOORD_0":79,
						"TEXCOORD_1":80
					},
					"indices":68,
					"material":0
				}
			]
		},
		{
			"name":"UCX_Prop_FireEscape_Bottom_18",
			"primitives":[
				{
					"attributes":{
						"POSITION":81,
						"NORMAL":82,
						"TEXCOORD_0":83,
						"TEXCOORD_1":84
					},
					"indices":68,
					"material":0
				}
			]
		},
		{
			"name":"UCX_Prop_FireEscape_Bottom_19",
			"primitives":[
				{
					"attributes":{
						"POSITION":85,
						"NORMAL":86,
						"TEXCOORD_0":87,
						"TEXCOORD_1":88
					},
					"indices":89,
					"material":0
				}
			]
		},
		{
			"name":"UCX_Prop_FireEscape_Bottom_20",
			"primitives":[
				{
					"attributes":{
						"POSITION":90,
						"NORMAL":91,
						"TEXCOORD_0":92,
						"TEXCOORD_1":93
					},
					"indices":68,
					"material":0
				}
			]
		},
		{
			"name":"UCX_Prop_FireEscape_Bottom_21",
			"primitives":[
				{
					"attributes":{
						"POSITION":94,
						"NORMAL":95,
						"TEXCOORD_0":96,
						"TEXCOORD_1":97
					},
					"indices":68,
					"material":0
				}
			]
		},
		{
			"name":"Plane.037",
			"primitives":[
				{
					"attributes":{
						"POSITION":98,
						"NORMAL":99,
						"TEXCOORD_0":100,
						"TEXCOORD_1":101
					},
					"indices":102,
					"material":1
				}
			]
		}
	],
	"textures":[
		{
			"sampler":0,
			"source":0
		},
		{
			"sampler":0,
			"source":1
		},
		{
			"sampler":0,
			"source":2
		}
	],
	"images":[
		{
			"mimeType":"image/png",
			"name":"T_MetalConcrete_Normal",
			"uri":"../../materials/T_MetalConcrete_Normal.png"
		},
		{
			"mimeType":"image/png",
			"name":"T_MetalConcrete_BaseColor",
			"uri":"../../materials/T_MetalConcrete_BaseColor.png"
		},
		{
			"mimeType":"image/png",
			"name":"T_MetalConcrete_ORM",
			"uri":"../../materials/T_MetalConcrete_ORM.png"
		}
	],
	"accessors":[
		{
			"bufferView":0,
			"componentType":5126,
			"count":40,
			"max":[
				2.3532235622406006,
				0.08689767867326736,
				1.9027074575424194
			],
			"min":[
				-2.357316255569458,
				-0.03421005606651306,
				0.9221910238265991
			],
			"type":"VEC3"
		},
		{
			"bufferView":1,
			"componentType":5126,
			"count":40,
			"type":"VEC3"
		},
		{
			"bufferView":2,
			"componentType":5126,
			"count":40,
			"type":"VEC2"
		},
		{
			"bufferView":3,
			"componentType":5126,
			"count":40,
			"type":"VEC2"
		},
		{
			"bufferView":4,
			"componentType":5123,
			"count":84,
			"type":"SCALAR"
		},
		{
			"bufferView":5,
			"componentType":5126,
			"count":24,
			"max":[
				-0.9791229367256165,
				0.08689767867326736,
				0.9221910238265991
			],
			"min":[
				-2.357316255569458,
				-0.03421005606651306,
				0.0028571700677275658
			],
			"type":"VEC3"
		},
		{
			"bufferView":6,
			"componentType":5126,
			"count":24,
			"type":"VEC3"
		},
		{
			"bufferView":7,
			"componentType":5126,
			"count":24,
			"type":"VEC2"
		},
		{
			"bufferView":8,
			"componentType":5126,
			"count":24,
			"type":"VEC2"
		},
		{
			"bufferView":9,
			"componentType":5123,
			"count":36,
			"type":"SCALAR"
		},
		{
			"bufferView":10,
			"componentType":5126,
			"count":24,
			"max":[
				2.3567054271698,
				0.08689767867326736,
				0.9236552715301514
			],
			"min":[
				0.9750288128852844,
				-0.03421005606651306,
				0.0028571700677275658
			],
			"type":"VEC3"
		},
		{
			"bufferView":11,
			"componentType":5126,
			"count":24,
			"type":"VEC3"
		},
		{
			"bufferView":12,
			"componentType":5126,
			"count":24,
			"type":"VEC2"
		},
		{
			"bufferView":13,
			"componentType":5126,
			"count":24,
			"type":"VEC2"
		},
		{
			"bufferView":14,
			"componentType":5123,
			"count":36,
			"type":"SCALAR"
		},
		{
			"bufferView":15,
			"componentType":5126,
			"count":24,
			"max":[
				2.3538875579833984,
				0.08874839544296265,
				0.08446718752384186
			],
			"min":[
				-2.3161110877990723,
				-0.03235933557152748,
				0.0030837287195026875
			],
			"type":"VEC3"
		},
		{
			"bufferView":16,
			"componentType":5126,
			"count":24,
			"type":"VEC3"
		},
		{
			"bufferView":17,
			"componentType":5126,
			"count":24,
			"type":"VEC2"
		},
		{
			"bufferView":18,
			"componentType":5126,
			"count":24,
			"type":"VEC2"
		},
		{
			"bufferView":19,
			"componentType":5123,
			"count":36,
			"type":"SCALAR"
		},
		{
			"bufferView":20,
			"componentType":5126,
			"count":24,
			"max":[
				-2.2379865646362305,
				1.2478519678115845,
				1.9002469778060913
			],
			"min":[
				-2.39215350151062,
				-0.03421005606651306,
				0.0028571700677275658
			],
			"type":"VEC3"
		},
		{
			"bufferView":21,
			"componentType":5126,
			"count":24,
			"type":"VEC3"
		},
		{
			"bufferView":22,
			"componentType":5126,
			"count":24,
			"type":"VEC2"
		},
		{
			"bufferView":23,
			"componentType":5126,
			"count":24,
			"type":"VEC2"
		},
		{
			"bufferView":24,
			"componentType":5123,
			"count":36,
			"type":"SCALAR"
		},
		{
			"bufferView":25,
			"componentType":5126,
			"count":24,
			"max":[
				2.402184247970581,
				1.2478519678115845,
				1.9002470970153809
			],
			"min":[
				2.2480170726776123,
				-0.034210026264190674,
				0.002857208251953125
			],
			"type":"VEC3"
		},
		{
			"bufferView":26,
			"componentType":5126,
			"count":24,
			"type":"VEC3"
		},
		{
			"bufferView":27,
			"componentType":5126,
			"count":24,
			"type":"VEC2"
		},
		{
			"bufferView":28,
			"componentType":5126,
			"count":24,
			"type":"VEC2"
		},
		{
			"bufferView":29,
			"componentType":5126,
			"count":24,
			"max":[
				2.3346452713012695,
				1.082680344581604,
				1.9470106363296509
			],
			"min":[
				-2.3275468349456787,
				-0.0342099666595459,
				1.8789101839065552
			],
			"type":"VEC3"
		},
		{
			"bufferView":30,
			"componentType":5126,
			"count":24,
			"type":"VEC3"
		},
		{
			"bufferView":31,
			"componentType":5126,
			"count":24,
			"type":"VEC2"
		},
		{
			"bufferView":32,
			"componentType":5126,
			"count":24,
			"type":"VEC2"
		},
		{
			"bufferView":33,
			"componentType":5123,
			"count":36,
			"type":"SCALAR"
		},
		{
			"bufferView":34,
			"componentType":5126,
			"count":24,
			"max":[
				2.3346452713012695,
				1.2476140260696411,
				1.901390552520752
			],
			"min":[
				-2.3275468349456787,
				1.2001395225524902,
				1.8100756406784058
			],
			"type":"VEC3"
		},
		{
			"bufferView":35,
			"componentType":5126,
			"count":24,
			"type":"VEC3"
		},
		{
			"bufferView":36,
			"componentType":5126,
			"count":24,
			"type":"VEC2"
		},
		{
			"bufferView":37,
			"componentType":5126,
			"count":24,
			"type":"VEC2"
		},
		{
			"bufferView":38,
			"componentType":5123,
			"count":36,
			"type":"SCALAR"
		},
		{
			"bufferView":39,
			"componentType":5126,
			"count":24,
			"max":[
				2.3346452713012695,
				1.2001395225524902,
				1.941327691078186
			],
			"min":[
				-2.3275468349456787,
				1.0753231048583984,
				1.8100756406784058
			],
			"type":"VEC3"
		},
		{
			"bufferView":40,
			"componentType":5126,
			"count":24,
			"type":"VEC3"
		},
		{
			"bufferView":41,
			"componentType":5126,
			"count":24,
			"type":"VEC2"
		},
		{
			"bufferView":42,
			"componentType":5126,
			"count":24,
			"type":"VEC2"
		},
		{
			"bufferView":43,
			"componentType":5123,
			"count":36,
			"type":"SCALAR"
		},
		{
			"bufferView":44,
			"componentType":5126,
			"count":24,
			"max":[
				-2.335787773132324,
				1.322853922843933,
				1.2326489686965942
			],
			"min":[
				-2.622157335281372,
				-0.034210026264190674,
				0.6704551577568054
			],
			"type":"VEC3"
		},
		{
			"bufferView":45,
			"componentType":5126,
			"count":24,
			"type":"VEC3"
		},
		{
			"bufferView":46,
			"componentType":5126,
			"count":24,
			"type":"VEC2"
		},
		{
			"bufferView":47,
			"componentType":5126,
			"count":24,
			"type":"VEC2"
		},
		{
			"bufferView":48,
			"componentType":5123,
			"count":36,
			"type":"SCALAR"
		},
		{
			"bufferView":49,
			"componentType":5126,
			"count":34,
			"max":[
				-2.39215350151062,
				-0.024097928777337074,
				1.2326489686965942
			],
			"min":[
				-2.622157335281372,
				-3.331146001815796,
				0.6704551577568054
			],
			"type":"VEC3"
		},
		{
			"bufferView":50,
			"componentType":5126,
			"count":34,
			"type":"VEC3"
		},
		{
			"bufferView":51,
			"componentType":5126,
			"count":34,
			"type":"VEC2"
		},
		{
			"bufferView":52,
			"componentType":5126,
			"count":34,
			"type":"VEC2"
		},
		{
			"bufferView":53,
			"componentType":5123,
			"count":60,
			"type":"SCALAR"
		},
		{
			"bufferView":54,
			"componentType":5126,
			"count":24,
			"max":[
				1.1409674882888794,
				3.0390713214874268,
				0.15786248445510864
			],
			"min":[
				-1.2390985488891602,
				0.04398220777511597,
				0.09221791476011276
			],
			"type":"VEC3"
		},
		{
			"bufferView":55,
			"componentType":5126,
			"count":24,
			"type":"VEC3"
		},
		{
			"bufferView":56,
			"componentType":5126,
			"count":24,
			"type":"VEC2"
		},
		{
			"bufferView":57,
			"componentType":5126,
			"count":24,
			"type":"VEC2"
		},
		{
			"bufferView":58,
			"componentType":5123,
			"count":36,
			"type":"SCALAR"
		},
		{
			"bufferView":59,
			"componentType":5126,
			"count":24,
			"max":[
				1.1409674882888794,
				3.0390713214874268,
				0.9893496036529541
			],
			"min":[
				-1.2390985488891602,
				0.04398220777511597,
				0.9237050414085388
			],
			"type":"VEC3"
		},
		{
			"bufferView":60,
			"componentType":5126,
			"count":24,
			"type":"VEC3"
		},
		{
			"bufferView":61,
			"componentType":5126,
			"count":24,
			"type":"VEC2"
		},
		{
			"bufferView":62,
			"componentType":5126,
			"count":24,
			"type":"VEC2"
		},
		{
			"bufferView":63,
			"componentType":5123,
			"count":36,
			"type":"SCALAR"
		},
		{
			"bufferView":64,
			"componentType":5126,
			"count":24,
			"max":[
				0.9779728651046753,
				0.43952906131744385,
				0.931149959564209
			],
			"min":[
				0.6471234560012817,
				0.3901298940181732,
				0.13830815255641937
			],
			"type":"VEC3"
		},
		{
			"bufferView":65,
			"componentType":5126,
			"count":24,
			"type":"VEC3"
		},
		{
			"bufferView":66,
			"componentType":5126,
			"count":24,
			"type":"VEC2"
		},
		{
			"bufferView":67,
			"componentType":5126,
			"count":24,
			"type":"VEC2"
		},
		{
			"bufferView":68,
			"componentType":5123,
			"count":36,
			"type":"SCALAR"
		},
		{
			"bufferView":69,
			"componentType":5126,
			"count":24,
			"max":[
				0.7232188582420349,
				0.7655634880065918,
				0.931149959564209
			],
			"min":[
				0.39236941933631897,
				0.7161642909049988,
				0.13830815255641937
			],
			"type":"VEC3"
		},
		{
			"bufferView":70,
			"componentType":5126,
			"count":24,
			"type":"VEC3"
		},
		{
			"bufferView":71,
			"componentType":5126,
			"count":24,
			"type":"VEC2"
		},
		{
			"bufferView":72,
			"componentType":5126,
			"count":24,
			"type":"VEC2"
		},
		{
			"bufferView":73,
			"componentType":5126,
			"count":24,
			"max":[
				0.46846479177474976,
				1.0915979146957397,
				0.931149959564209
			],
			"min":[
				0.1376153528690338,
				1.042198896408081,
				0.13830815255641937
			],
			"type":"VEC3"
		},
		{
			"bufferView":74,
			"componentType":5126,
			"count":24,
			"type":"VEC3"
		},
		{
			"bufferView":75,
			"componentType":5126,
			"count":24,
			"type":"VEC2"
		},
		{
			"bufferView":76,
			"componentType":5126,
			"count":24,
			"type":"VEC2"
		},
		{
			"bufferView":77,
			"componentType":5126,
			"count":24,
			"max":[
				0.21371077001094818,
				1.4176324605941772,
				0.931149959564209
			],
			"min":[
				-0.11713867634534836,
				1.3682332038879395,
				0.13830815255641937
			],
			"type":"VEC3"
		},
		{
			"bufferView":78,
			"componentType":5126,
			"count":24,
			"type":"VEC3"
		},
		{
			"bufferView":79,
			"componentType":5126,
			"count":24,
			"type":"VEC2"
		},
		{
			"bufferView":80,
			"componentType":5126,
			"count":24,
			"type":"VEC2"
		},
		{
			"bufferView":81,
			"componentType":5126,
			"count":24,
			"max":[
				-0.041043322533369064,
				1.7436667680740356,
				0.931149959564209
			],
			"min":[
				-0.3718927502632141,
				1.6942676305770874,
				0.13830815255641937
			],
			"type":"VEC3"
		},
		{
			"bufferView":82,
			"componentType":5126,
			"count":24,
			"type":"VEC3"
		},
		{
			"bufferView":83,
			"componentType":5126,
			"count":24,
			"type":"VEC2"
		},
		{
			"bufferView":84,
			"componentType":5126,
			"count":24,
			"type":"VEC2"
		},
		{
			"bufferView":85,
			"componentType":5126,
			"count":24,
			"max":[
				-0.2957974076271057,
				2.0697011947631836,
				0.931149959564209
			],
			"min":[
				-0.6266468167304993,
				2.0203018188476562,
				0.13830815255641937
			],
			"type":"VEC3"
		},
		{
			"bufferView":86,
			"componentType":5126,
			"count":24,
			"type":"VEC3"
		},
		{
			"bufferView":87,
			"componentType":5126,
			"count":24,
			"type":"VEC2"
		},
		{
			"bufferView":88,
			"componentType":5126,
			"count":24,
			"type":"VEC2"
		},
		{
			"bufferView":89,
			"componentType":5123,
			"count":36,
			"type":"SCALAR"
		},
		{
			"bufferView":90,
			"componentType":5126,
			"count":24,
			"max":[
				-0.5505514740943909,
				2.395735740661621,
				0.931149959564209
			],
			"min":[
				-0.8814009428024292,
				2.3463363647460938,
				0.13830815255641937
			],
			"type":"VEC3"
		},
		{
			"bufferView":91,
			"componentType":5126,
			"count":24,
			"type":"VEC3"
		},
		{
			"bufferView":92,
			"componentType":5126,
			"count":24,
			"type":"VEC2"
		},
		{
			"bufferView":93,
			"componentType":5126,
			"count":24,
			"type":"VEC2"
		},
		{
			"bufferView":94,
			"componentType":5126,
			"count":24,
			"max":[
				-0.8053054809570312,
				2.7217702865600586,
				0.931149959564209
			],
			"min":[
				-1.1361550092697144,
				2.6723709106445312,
				0.13830815255641937
			],
			"type":"VEC3"
		},
		{
			"bufferView":95,
			"componentType":5126,
			"count":24,
			"type":"VEC3"
		},
		{
			"bufferView":96,
			"componentType":5126,
			"count":24,
			"type":"VEC2"
		},
		{
			"bufferView":97,
			"componentType":5126,
			"count":24,
			"type":"VEC2"
		},
		{
			"bufferView":98,
			"componentType":5126,
			"count":3320,
			"max":[
				2.4006612300872803,
				3.0360779762268066,
				1.9445557594299316
			],
			"min":[
				-2.612548351287842,
				-3.311121702194214,
				-0.03115733712911606
			],
			"type":"VEC3"
		},
		{
			"bufferView":99,
			"componentType":5126,
			"count":3320,
			"type":"VEC3"
		},
		{
			"bufferView":100,
			"componentType":5126,
			"count":3320,
			"type":"VEC2"
		},
		{
			"bufferView":101,
			"componentType":5126,
			"count":3320,
			"type":"VEC2"
		},
		{
			"bufferView":102,
			"componentType":5123,
			"count":5472,
			"type":"SCALAR"
		}
	],
	"bufferViews":[
		{
			"buffer":0,
			"byteLength":480,
			"byteOffset":0,
			"target":34962
		},
		{
			"buffer":0,
			"byteLength":480,
			"byteOffset":480,
			"target":34962
		},
		{
			"buffer":0,
			"byteLength":320,
			"byteOffset":960,
			"target":34962
		},
		{
			"buffer":0,
			"byteLength":320,
			"byteOffset":1280,
			"target":34962
		},
		{
			"buffer":0,
			"byteLength":168,
			"byteOffset":1600,
			"target":34963
		},
		{
			"buffer":0,
			"byteLength":288,
			"byteOffset":1768,
			"target":34962
		},
		{
			"buffer":0,
			"byteLength":288,
			"byteOffset":2056,
			"target":34962
		},
		{
			"buffer":0,
			"byteLength":192,
			"byteOffset":2344,
			"target":34962
		},
		{
			"buffer":0,
			"byteLength":192,
			"byteOffset":2536,
			"target":34962
		},
		{
			"buffer":0,
			"byteLength":72,
			"byteOffset":2728,
			"target":34963
		},
		{
			"buffer":0,
			"byteLength":288,
			"byteOffset":2800,
			"target":34962
		},
		{
			"buffer":0,
			"byteLength":288,
			"byteOffset":3088,
			"target":34962
		},
		{
			"buffer":0,
			"byteLength":192,
			"byteOffset":3376,
			"target":34962
		},
		{
			"buffer":0,
			"byteLength":192,
			"byteOffset":3568,
			"target":34962
		},
		{
			"buffer":0,
			"byteLength":72,
			"byteOffset":3760,
			"target":34963
		},
		{
			"buffer":0,
			"byteLength":288,
			"byteOffset":3832,
			"target":34962
		},
		{
			"buffer":0,
			"byteLength":288,
			"byteOffset":4120,
			"target":34962
		},
		{
			"buffer":0,
			"byteLength":192,
			"byteOffset":4408,
			"target":34962
		},
		{
			"buffer":0,
			"byteLength":192,
			"byteOffset":4600,
			"target":34962
		},
		{
			"buffer":0,
			"byteLength":72,
			"byteOffset":4792,
			"target":34963
		},
		{
			"buffer":0,
			"byteLength":288,
			"byteOffset":4864,
			"target":34962
		},
		{
			"buffer":0,
			"byteLength":288,
			"byteOffset":5152,
			"target":34962
		},
		{
			"buffer":0,
			"byteLength":192,
			"byteOffset":5440,
			"target":34962
		},
		{
			"buffer":0,
			"byteLength":192,
			"byteOffset":5632,
			"target":34962
		},
		{
			"buffer":0,
			"byteLength":72,
			"byteOffset":5824,
			"target":34963
		},
		{
			"buffer":0,
			"byteLength":288,
			"byteOffset":5896,
			"target":34962
		},
		{
			"buffer":0,
			"byteLength":288,
			"byteOffset":6184,
			"target":34962
		},
		{
			"buffer":0,
			"byteLength":192,
			"byteOffset":6472,
			"target":34962
		},
		{
			"buffer":0,
			"byteLength":192,
			"byteOffset":6664,
			"target":34962
		},
		{
			"buffer":0,
			"byteLength":288,
			"byteOffset":6856,
			"target":34962
		},
		{
			"buffer":0,
			"byteLength":288,
			"byteOffset":7144,
			"target":34962
		},
		{
			"buffer":0,
			"byteLength":192,
			"byteOffset":7432,
			"target":34962
		},
		{
			"buffer":0,
			"byteLength":192,
			"byteOffset":7624,
			"target":34962
		},
		{
			"buffer":0,
			"byteLength":72,
			"byteOffset":7816,
			"target":34963
		},
		{
			"buffer":0,
			"byteLength":288,
			"byteOffset":7888,
			"target":34962
		},
		{
			"buffer":0,
			"byteLength":288,
			"byteOffset":8176,
			"target":34962
		},
		{
			"buffer":0,
			"byteLength":192,
			"byteOffset":8464,
			"target":34962
		},
		{
			"buffer":0,
			"byteLength":192,
			"byteOffset":8656,
			"target":34962
		},
		{
			"buffer":0,
			"byteLength":72,
			"byteOffset":8848,
			"target":34963
		},
		{
			"buffer":0,
			"byteLength":288,
			"byteOffset":8920,
			"target":34962
		},
		{
			"buffer":0,
			"byteLength":288,
			"byteOffset":9208,
			"target":34962
		},
		{
			"buffer":0,
			"byteLength":192,
			"byteOffset":9496,
			"target":34962
		},
		{
			"buffer":0,
			"byteLength":192,
			"byteOffset":9688,
			"target":34962
		},
		{
			"buffer":0,
			"byteLength":72,
			"byteOffset":9880,
			"target":34963
		},
		{
			"buffer":0,
			"byteLength":288,
			"byteOffset":9952,
			"target":34962
		},
		{
			"buffer":0,
			"byteLength":288,
			"byteOffset":10240,
			"target":34962
		},
		{
			"buffer":0,
			"byteLength":192,
			"byteOffset":10528,
			"target":34962
		},
		{
			"buffer":0,
			"byteLength":192,
			"byteOffset":10720,
			"target":34962
		},
		{
			"buffer":0,
			"byteLength":72,
			"byteOffset":10912,
			"target":34963
		},
		{
			"buffer":0,
			"byteLength":408,
			"byteOffset":10984,
			"target":34962
		},
		{
			"buffer":0,
			"byteLength":408,
			"byteOffset":11392,
			"target":34962
		},
		{
			"buffer":0,
			"byteLength":272,
			"byteOffset":11800,
			"target":34962
		},
		{
			"buffer":0,
			"byteLength":272,
			"byteOffset":12072,
			"target":34962
		},
		{
			"buffer":0,
			"byteLength":120,
			"byteOffset":12344,
			"target":34963
		},
		{
			"buffer":0,
			"byteLength":288,
			"byteOffset":12464,
			"target":34962
		},
		{
			"buffer":0,
			"byteLength":288,
			"byteOffset":12752,
			"target":34962
		},
		{
			"buffer":0,
			"byteLength":192,
			"byteOffset":13040,
			"target":34962
		},
		{
			"buffer":0,
			"byteLength":192,
			"byteOffset":13232,
			"target":34962
		},
		{
			"buffer":0,
			"byteLength":72,
			"byteOffset":13424,
			"target":34963
		},
		{
			"buffer":0,
			"byteLength":288,
			"byteOffset":13496,
			"target":34962
		},
		{
			"buffer":0,
			"byteLength":288,
			"byteOffset":13784,
			"target":34962
		},
		{
			"buffer":0,
			"byteLength":192,
			"byteOffset":14072,
			"target":34962
		},
		{
			"buffer":0,
			"byteLength":192,
			"byteOffset":14264,
			"target":34962
		},
		{
			"buffer":0,
			"byteLength":72,
			"byteOffset":14456,
			"target":34963
		},
		{
			"buffer":0,
			"byteLength":288,
			"byteOffset":14528,
			"target":34962
		},
		{
			"buffer":0,
			"byteLength":288,
			"byteOffset":14816,
			"target":34962
		},
		{
			"buffer":0,
			"byteLength":192,
			"byteOffset":15104,
			"target":34962
		},
		{
			"buffer":0,
			"byteLength":192,
			"byteOffset":15296,
			"target":34962
		},
		{
			"buffer":0,
			"byteLength":72,
			"byteOffset":15488,
			"target":34963
		},
		{
			"buffer":0,
			"byteLength":288,
			"byteOffset":15560,
			"target":34962
		},
		{
			"buffer":0,
			"byteLength":288,
			"byteOffset":15848,
			"target":34962
		},
		{
			"buffer":0,
			"byteLength":192,
			"byteOffset":16136,
			"target":34962
		},
		{
			"buffer":0,
			"byteLength":192,
			"byteOffset":16328,
			"target":34962
		},
		{
			"buffer":0,
			"byteLength":288,
			"byteOffset":16520,
			"target":34962
		},
		{
			"buffer":0,
			"byteLength":288,
			"byteOffset":16808,
			"target":34962
		},
		{
			"buffer":0,
			"byteLength":192,
			"byteOffset":17096,
			"target":34962
		},
		{
			"buffer":0,
			"byteLength":192,
			"byteOffset":17288,
			"target":34962
		},
		{
			"buffer":0,
			"byteLength":288,
			"byteOffset":17480,
			"target":34962
		},
		{
			"buffer":0,
			"byteLength":288,
			"byteOffset":17768,
			"target":34962
		},
		{
			"buffer":0,
			"byteLength":192,
			"byteOffset":18056,
			"target":34962
		},
		{
			"buffer":0,
			"byteLength":192,
			"byteOffset":18248,
			"target":34962
		},
		{
			"buffer":0,
			"byteLength":288,
			"byteOffset":18440,
			"target":34962
		},
		{
			"buffer":0,
			"byteLength":288,
			"byteOffset":18728,
			"target":34962
		},
		{
			"buffer":0,
			"byteLength":192,
			"byteOffset":19016,
			"target":34962
		},
		{
			"buffer":0,
			"byteLength":192,
			"byteOffset":19208,
			"target":34962
		},
		{
			"buffer":0,
			"byteLength":288,
			"byteOffset":19400,
			"target":34962
		},
		{
			"buffer":0,
			"byteLength":288,
			"byteOffset":19688,
			"target":34962
		},
		{
			"buffer":0,
			"byteLength":192,
			"byteOffset":19976,
			"target":34962
		},
		{
			"buffer":0,
			"byteLength":192,
			"byteOffset":20168,
			"target":34962
		},
		{
			"buffer":0,
			"byteLength":72,
			"byteOffset":20360,
			"target":34963
		},
		{
			"buffer":0,
			"byteLength":288,
			"byteOffset":20432,
			"target":34962
		},
		{
			"buffer":0,
			"byteLength":288,
			"byteOffset":20720,
			"target":34962
		},
		{
			"buffer":0,
			"byteLength":192,
			"byteOffset":21008,
			"target":34962
		},
		{
			"buffer":0,
			"byteLength":192,
			"byteOffset":21200,
			"target":34962
		},
		{
			"buffer":0,
			"byteLength":288,
			"byteOffset":21392,
			"target":34962
		},
		{
			"buffer":0,
			"byteLength":288,
			"byteOffset":21680,
			"target":34962
		},
		{
			"buffer":0,
			"byteLength":192,
			"byteOffset":21968,
			"target":34962
		},
		{
			"buffer":0,
			"byteLength":192,
			"byteOffset":22160,
			"target":34962
		},
		{
			"buffer":0,
			"byteLength":39840,
			"byteOffset":22352,
			"target":34962
		},
		{
			"buffer":0,
			"byteLength":39840,
			"byteOffset":62192,
			"target":34962
		},
		{
			"buffer":0,
			"byteLength":26560,
			"byteOffset":102032,
			"target":34962
		},
		{
			"buffer":0,
			"byteLength":26560,
			"byteOffset":128592,
			"target":34962
		},
		{
			"buffer":0,
			"byteLength":10944,
			"byteOffset":155152,
			"target":34963
		}
	],
	"samplers":[
		{
			"magFilter":9729,
			"minFilter":9987
		}
	],
	"buffers":[
		{
			"byteLength":166096,
			"uri":"Prop_FireEscape_Bottom.bin"
		}
	]
}
