{
	"asset":{
		"generator":"Khronos glTF Blender I/O v4.3.47",
		"version":"2.0"
	},
	"scene":0,
	"scenes":[
		{
			"name":"Scene",
			"nodes":[
				1
			]
		}
	],
	"nodes":[
		{
			"mesh":0,
			"name":"Prop_Awning_Pub_Long_1-convcolonly"
		},
		{
			"children":[
				0
			],
			"mesh":1,
			"name":"Prop_Awning_Pub_Long"
		}
	],
	"materials":[
		{
			"doubleSided":true,
			"name":"Collision",
			"pbrMetallicRoughness":{
				"baseColorFactor":[
					0.036788325756788254,
					0.5504099726676941,
					0.8000074625015259,
					1
				],
				"metallicFactor":0
			}
		},
		{
			"doubleSided":true,
			"name":"MI_Awning",
			"normalTexture":{
				"index":0
			},
			"pbrMetallicRoughness":{
				"baseColorTexture":{
					"index":1
				},
				"metallicRoughnessTexture":{
					"index":2
				}
			}
		},
		{
			"doubleSided":true,
			"name":"MI_Trim_MetalConcrete",
			"normalTexture":{
				"index":3
			},
			"pbrMetallicRoughness":{
				"baseColorTexture":{
					"index":4
				},
				"metallicRoughnessTexture":{
					"index":5
				}
			}
		},
		{
			"doubleSided":true,
			"name":"MI_Shop_Signs",
			"normalTexture":{
				"index":6
			},
			"pbrMetallicRoughness":{
				"baseColorTexture":{
					"index":7
				},
				"metallicFactor":0
			}
		}
	],
	"meshes":[
		{
			"name":"Cube.277",
			"primitives":[
				{
					"attributes":{
						"POSITION":0,
						"NORMAL":1,
						"TEXCOORD_0":2
					},
					"indices":3,
					"material":0
				}
			]
		},
		{
			"name":"Cube.139",
			"primitives":[
				{
					"attributes":{
						"POSITION":4,
						"NORMAL":5,
						"TEXCOORD_0":6,
						"TEXCOORD_1":7,
						"COLOR_0":8,
						"COLOR_1":9
					},
					"indices":10,
					"material":1
				},
				{
					"attributes":{
						"POSITION":11,
						"NORMAL":12,
						"TEXCOORD_0":13,
						"TEXCOORD_1":14,
						"COLOR_0":15,
						"COLOR_1":16
					},
					"indices":17,
					"material":2
				},
				{
					"attributes":{
						"POSITION":18,
						"NORMAL":19,
						"TEXCOORD_0":20,
						"TEXCOORD_1":21,
						"COLOR_0":22,
						"COLOR_1":23
					},
					"indices":24,
					"material":3
				}
			]
		}
	],
	"textures":[
		{
			"sampler":0,
			"source":0
		},
		{
			"sampler":0,
			"source":1
		},
		{
			"sampler":0,
			"source":2
		},
		{
			"sampler":0,
			"source":3
		},
		{
			"sampler":0,
			"source":4
		},
		{
			"sampler":0,
			"source":5
		},
		{
			"sampler":0,
			"source":6
		},
		{
			"sampler":0,
			"source":7
		}
	],
	"images":[
		{
			"mimeType":"image/png",
			"name":"T_Ornaments_Normal",
			"uri":"../../materials/T_Ornaments_Normal.png"
		},
		{
			"mimeType":"image/png",
			"name":"T_Ornaments_BaseColor",
			"uri":"../../materials/T_Ornaments_BaseColor.png"
		},
		{
			"mimeType":"image/png",
			"name":"T_Ornaments_ORM",
			"uri":"../../materials/T_Ornaments_ORM.png"
		},
		{
			"mimeType":"image/png",
			"name":"T_MetalConcrete_Normal",
			"uri":"../../materials/T_MetalConcrete_Normal.png"
		},
		{
			"mimeType":"image/png",
			"name":"T_MetalConcrete_BaseColor",
			"uri":"../../materials/T_MetalConcrete_BaseColor.png"
		},
		{
			"mimeType":"image/png",
			"name":"T_MetalConcrete_ORM",
			"uri":"../../materials/T_MetalConcrete_ORM.png"
		},
		{
			"mimeType":"image/png",
			"name":"T_Shop_Signs_Normal",
			"uri":"../../materials/T_Shop_Signs_Normal.png"
		},
		{
			"mimeType":"image/png",
			"name":"T_Shop_Signs_BaseColor",
			"uri":"../../materials/T_Shop_Signs_BaseColor.png"
		}
	],
	"accessors":[
		{
			"bufferView":0,
			"componentType":5126,
			"count":24,
			"max":[
				2.8000001907348633,
				3.826129198074341,
				1.5114822387695312
			],
			"min":[
				-2.8000001907348633,
				2.884284496307373,
				-0.007768899202346802
			],
			"type":"VEC3"
		},
		{
			"bufferView":1,
			"componentType":5126,
			"count":24,
			"type":"VEC3"
		},
		{
			"bufferView":2,
			"componentType":5126,
			"count":24,
			"type":"VEC2"
		},
		{
			"bufferView":3,
			"componentType":5123,
			"count":36,
			"type":"SCALAR"
		},
		{
			"bufferView":4,
			"componentType":5126,
			"count":52,
			"max":[
				2.8056468963623047,
				3.804994583129883,
				1.5102041959762573
			],
			"min":[
				-2.8056468963623047,
				3.088200807571411,
				0.0299999862909317
			],
			"type":"VEC3"
		},
		{
			"bufferView":5,
			"componentType":5126,
			"count":52,
			"type":"VEC3"
		},
		{
			"bufferView":6,
			"componentType":5126,
			"count":52,
			"type":"VEC2"
		},
		{
			"bufferView":7,
			"componentType":5126,
			"count":52,
			"type":"VEC2"
		},
		{
			"bufferView":8,
			"componentType":5121,
			"count":52,
			"normalized":true,
			"type":"VEC4"
		},
		{
			"bufferView":9,
			"componentType":5123,
			"count":52,
			"normalized":true,
			"type":"VEC4"
		},
		{
			"bufferView":10,
			"componentType":5123,
			"count":96,
			"type":"SCALAR"
		},
		{
			"bufferView":11,
			"componentType":5126,
			"count":116,
			"max":[
				2.8500261306762695,
				3.8070178031921387,
				1.4988514184951782
			],
			"min":[
				-2.850024938583374,
				3.0549991130828857,
				-0.017791926860809326
			],
			"type":"VEC3"
		},
		{
			"bufferView":12,
			"componentType":5126,
			"count":116,
			"type":"VEC3"
		},
		{
			"bufferView":13,
			"componentType":5126,
			"count":116,
			"type":"VEC2"
		},
		{
			"bufferView":14,
			"componentType":5126,
			"count":116,
			"type":"VEC2"
		},
		{
			"bufferView":15,
			"componentType":5121,
			"count":116,
			"normalized":true,
			"type":"VEC4"
		},
		{
			"bufferView":16,
			"componentType":5123,
			"count":116,
			"normalized":true,
			"type":"VEC4"
		},
		{
			"bufferView":17,
			"componentType":5123,
			"count":228,
			"type":"SCALAR"
		},
		{
			"bufferView":18,
			"componentType":5126,
			"count":20,
			"max":[
				2.8056468963623047,
				3.093195676803589,
				1.5102041959762573
			],
			"min":[
				-2.8056468963623047,
				2.882481575012207,
				1.4999998807907104
			],
			"type":"VEC3"
		},
		{
			"bufferView":19,
			"componentType":5126,
			"count":20,
			"type":"VEC3"
		},
		{
			"bufferView":20,
			"componentType":5126,
			"count":20,
			"type":"VEC2"
		},
		{
			"bufferView":21,
			"componentType":5126,
			"count":20,
			"type":"VEC2"
		},
		{
			"bufferView":22,
			"componentType":5121,
			"count":20,
			"normalized":true,
			"type":"VEC4"
		},
		{
			"bufferView":23,
			"componentType":5123,
			"count":20,
			"normalized":true,
			"type":"VEC4"
		},
		{
			"bufferView":24,
			"componentType":5123,
			"count":30,
			"type":"SCALAR"
		}
	],
	"bufferViews":[
		{
			"buffer":0,
			"byteLength":288,
			"byteOffset":0,
			"target":34962
		},
		{
			"buffer":0,
			"byteLength":288,
			"byteOffset":288,
			"target":34962
		},
		{
			"buffer":0,
			"byteLength":192,
			"byteOffset":576,
			"target":34962
		},
		{
			"buffer":0,
			"byteLength":72,
			"byteOffset":768,
			"target":34963
		},
		{
			"buffer":0,
			"byteLength":624,
			"byteOffset":840,
			"target":34962
		},
		{
			"buffer":0,
			"byteLength":624,
			"byteOffset":1464,
			"target":34962
		},
		{
			"buffer":0,
			"byteLength":416,
			"byteOffset":2088,
			"target":34962
		},
		{
			"buffer":0,
			"byteLength":416,
			"byteOffset":2504,
			"target":34962
		},
		{
			"buffer":0,
			"byteLength":208,
			"byteOffset":2920,
			"target":34962
		},
		{
			"buffer":0,
			"byteLength":416,
			"byteOffset":3128,
			"target":34962
		},
		{
			"buffer":0,
			"byteLength":192,
			"byteOffset":3544,
			"target":34963
		},
		{
			"buffer":0,
			"byteLength":1392,
			"byteOffset":3736,
			"target":34962
		},
		{
			"buffer":0,
			"byteLength":1392,
			"byteOffset":5128,
			"target":34962
		},
		{
			"buffer":0,
			"byteLength":928,
			"byteOffset":6520,
			"target":34962
		},
		{
			"buffer":0,
			"byteLength":928,
			"byteOffset":7448,
			"target":34962
		},
		{
			"buffer":0,
			"byteLength":464,
			"byteOffset":8376,
			"target":34962
		},
		{
			"buffer":0,
			"byteLength":928,
			"byteOffset":8840,
			"target":34962
		},
		{
			"buffer":0,
			"byteLength":456,
			"byteOffset":9768,
			"target":34963
		},
		{
			"buffer":0,
			"byteLength":240,
			"byteOffset":10224,
			"target":34962
		},
		{
			"buffer":0,
			"byteLength":240,
			"byteOffset":10464,
			"target":34962
		},
		{
			"buffer":0,
			"byteLength":160,
			"byteOffset":10704,
			"target":34962
		},
		{
			"buffer":0,
			"byteLength":160,
			"byteOffset":10864,
			"target":34962
		},
		{
			"buffer":0,
			"byteLength":80,
			"byteOffset":11024,
			"target":34962
		},
		{
			"buffer":0,
			"byteLength":160,
			"byteOffset":11104,
			"target":34962
		},
		{
			"buffer":0,
			"byteLength":60,
			"byteOffset":11264,
			"target":34963
		}
	],
	"samplers":[
		{
			"magFilter":9729,
			"minFilter":9987
		}
	],
	"buffers":[
		{
			"byteLength":11324,
			"uri":"Prop_Awning_Pub_Long.bin"
		}
	]
}
