{
	"asset":{
		"generator":"Khronos glTF Blender I/O v4.3.47",
		"version":"2.0"
	},
	"scene":0,
	"scenes":[
		{
			"name":"Scene",
			"nodes":[
				20
			]
		}
	],
	"nodes":[
		{
			"mesh":0,
			"name":"Prop_EntranceArch_01-convcolonly"
		},
		{
			"mesh":1,
			"name":"Prop_EntranceArch_02-convcolonly"
		},
		{
			"mesh":2,
			"name":"Prop_EntranceArch_03-convcolonly"
		},
		{
			"mesh":3,
			"name":"Prop_EntranceArch_04-convcolonly"
		},
		{
			"mesh":4,
			"name":"Prop_EntranceArch_05-convcolonly"
		},
		{
			"mesh":5,
			"name":"Prop_EntranceArch_06-convcolonly"
		},
		{
			"mesh":6,
			"name":"Prop_EntranceArch_07-convcolonly"
		},
		{
			"mesh":7,
			"name":"Prop_EntranceArch_08-convcolonly"
		},
		{
			"mesh":8,
			"name":"Prop_EntranceArch_09-convcolonly"
		},
		{
			"mesh":9,
			"name":"Prop_EntranceArch_10-convcolonly"
		},
		{
			"mesh":10,
			"name":"Prop_EntranceArch_11-convcolonly"
		},
		{
			"mesh":11,
			"name":"Prop_EntranceArch_12-convcolonly"
		},
		{
			"mesh":12,
			"name":"Prop_EntranceArch_13-convcolonly"
		},
		{
			"mesh":13,
			"name":"Prop_EntranceArch_14-convcolonly"
		},
		{
			"mesh":14,
			"name":"Prop_EntranceArch_15-convcolonly"
		},
		{
			"mesh":15,
			"name":"Prop_EntranceArch_16-convcolonly"
		},
		{
			"mesh":16,
			"name":"Prop_EntranceArch_17-convcolonly"
		},
		{
			"mesh":17,
			"name":"Prop_EntranceArch_18-convcolonly"
		},
		{
			"mesh":18,
			"name":"Prop_EntranceArch_19-convcolonly"
		},
		{
			"mesh":19,
			"name":"Prop_EntranceArch_20-convcolonly"
		},
		{
			"children":[
				0,
				1,
				2,
				3,
				4,
				5,
				6,
				7,
				8,
				9,
				10,
				11,
				12,
				13,
				14,
				15,
				16,
				17,
				18,
				19
			],
			"mesh":20,
			"name":"Prop_EntranceArch"
		}
	],
	"materials":[
		{
			"doubleSided":true,
			"name":"Collision",
			"pbrMetallicRoughness":{
				"baseColorFactor":[
					0.036788325756788254,
					0.5504099726676941,
					0.8000074625015259,
					1
				],
				"metallicFactor":0
			}
		},
		{
			"doubleSided":true,
			"name":"MI_Trim",
			"normalTexture":{
				"index":0
			},
			"pbrMetallicRoughness":{
				"baseColorTexture":{
					"index":1
				},
				"metallicRoughnessTexture":{
					"index":2
				}
			}
		},
		{
			"doubleSided":true,
			"name":"MI_Ornaments",
			"normalTexture":{
				"index":3
			},
			"pbrMetallicRoughness":{
				"baseColorTexture":{
					"index":4
				},
				"metallicRoughnessTexture":{
					"index":5
				}
			}
		}
	],
	"meshes":[
		{
			"name":"Cube.475",
			"primitives":[
				{
					"attributes":{
						"POSITION":0,
						"NORMAL":1,
						"TEXCOORD_0":2
					},
					"indices":3,
					"material":0
				}
			]
		},
		{
			"name":"Cube.486",
			"primitives":[
				{
					"attributes":{
						"POSITION":4,
						"NORMAL":5,
						"TEXCOORD_0":6
					},
					"indices":7,
					"material":0
				}
			]
		},
		{
			"name":"Cube.487",
			"primitives":[
				{
					"attributes":{
						"POSITION":8,
						"NORMAL":9,
						"TEXCOORD_0":10
					},
					"indices":11,
					"material":0
				}
			]
		},
		{
			"name":"Cube.488",
			"primitives":[
				{
					"attributes":{
						"POSITION":12,
						"NORMAL":13,
						"TEXCOORD_0":14
					},
					"indices":15,
					"material":0
				}
			]
		},
		{
			"name":"Cube.489",
			"primitives":[
				{
					"attributes":{
						"POSITION":16,
						"NORMAL":17,
						"TEXCOORD_0":18
					},
					"indices":19,
					"material":0
				}
			]
		},
		{
			"name":"Cube.490",
			"primitives":[
				{
					"attributes":{
						"POSITION":20,
						"NORMAL":21,
						"TEXCOORD_0":22
					},
					"indices":23,
					"material":0
				}
			]
		},
		{
			"name":"Cube.491",
			"primitives":[
				{
					"attributes":{
						"POSITION":24,
						"NORMAL":25,
						"TEXCOORD_0":26
					},
					"indices":27,
					"material":0
				}
			]
		},
		{
			"name":"Cube.492",
			"primitives":[
				{
					"attributes":{
						"POSITION":28,
						"NORMAL":29,
						"TEXCOORD_0":30
					},
					"indices":31,
					"material":0
				}
			]
		},
		{
			"name":"Cube.493",
			"primitives":[
				{
					"attributes":{
						"POSITION":32,
						"NORMAL":33,
						"TEXCOORD_0":34
					},
					"indices":35,
					"material":0
				}
			]
		},
		{
			"name":"Cube.494",
			"primitives":[
				{
					"attributes":{
						"POSITION":36,
						"NORMAL":37,
						"TEXCOORD_0":38
					},
					"indices":39,
					"material":0
				}
			]
		},
		{
			"name":"Cube.495",
			"primitives":[
				{
					"attributes":{
						"POSITION":40,
						"NORMAL":41,
						"TEXCOORD_0":42
					},
					"indices":43,
					"material":0
				}
			]
		},
		{
			"name":"Cube.496",
			"primitives":[
				{
					"attributes":{
						"POSITION":44,
						"NORMAL":45,
						"TEXCOORD_0":46
					},
					"indices":47,
					"material":0
				}
			]
		},
		{
			"name":"Cube.497",
			"primitives":[
				{
					"attributes":{
						"POSITION":48,
						"NORMAL":49,
						"TEXCOORD_0":50
					},
					"indices":51,
					"material":0
				}
			]
		},
		{
			"name":"Cube.498",
			"primitives":[
				{
					"attributes":{
						"POSITION":52,
						"NORMAL":53,
						"TEXCOORD_0":54
					},
					"indices":55,
					"material":0
				}
			]
		},
		{
			"name":"Cube.499",
			"primitives":[
				{
					"attributes":{
						"POSITION":56,
						"NORMAL":57,
						"TEXCOORD_0":58
					},
					"indices":59,
					"material":0
				}
			]
		},
		{
			"name":"Cube.500",
			"primitives":[
				{
					"attributes":{
						"POSITION":60,
						"NORMAL":61,
						"TEXCOORD_0":62
					},
					"indices":55,
					"material":0
				}
			]
		},
		{
			"name":"Cube.501",
			"primitives":[
				{
					"attributes":{
						"POSITION":63,
						"NORMAL":64,
						"TEXCOORD_0":65
					},
					"indices":66,
					"material":0
				}
			]
		},
		{
			"name":"Cube.502",
			"primitives":[
				{
					"attributes":{
						"POSITION":67,
						"NORMAL":68,
						"TEXCOORD_0":69
					},
					"indices":70,
					"material":0
				}
			]
		},
		{
			"name":"Cube.503",
			"primitives":[
				{
					"attributes":{
						"POSITION":71,
						"NORMAL":72,
						"TEXCOORD_0":73
					},
					"indices":74,
					"material":0
				}
			]
		},
		{
			"name":"Cube.504",
			"primitives":[
				{
					"attributes":{
						"POSITION":75,
						"NORMAL":76,
						"TEXCOORD_0":77
					},
					"indices":78,
					"material":0
				}
			]
		},
		{
			"name":"Cube.004",
			"primitives":[
				{
					"attributes":{
						"POSITION":79,
						"NORMAL":80,
						"TEXCOORD_0":81,
						"TEXCOORD_1":82,
						"COLOR_0":83,
						"COLOR_1":84
					},
					"indices":85,
					"material":1
				},
				{
					"attributes":{
						"POSITION":86,
						"NORMAL":87,
						"TEXCOORD_0":88,
						"TEXCOORD_1":89,
						"COLOR_0":90,
						"COLOR_1":91
					},
					"indices":92,
					"material":2
				}
			]
		}
	],
	"textures":[
		{
			"sampler":0,
			"source":0
		},
		{
			"sampler":0,
			"source":1
		},
		{
			"sampler":0,
			"source":2
		},
		{
			"sampler":0,
			"source":3
		},
		{
			"sampler":0,
			"source":4
		},
		{
			"sampler":0,
			"source":5
		}
	],
	"images":[
		{
			"mimeType":"image/png",
			"name":"T_Trim_Normal",
			"uri":"../../materials/T_Trim_Normal.png"
		},
		{
			"mimeType":"image/png",
			"name":"T_Trim_BaseColor",
			"uri":"../../materials/T_Trim_BaseColor.png"
		},
		{
			"mimeType":"image/png",
			"name":"T_Trim_ORM",
			"uri":"../../materials/T_Trim_ORM.png"
		},
		{
			"mimeType":"image/png",
			"name":"T_Ornaments_Normal",
			"uri":"../../materials/T_Ornaments_Normal.png"
		},
		{
			"mimeType":"image/png",
			"name":"T_Ornaments_BaseColor",
			"uri":"../../materials/T_Ornaments_BaseColor.png"
		},
		{
			"mimeType":"image/png",
			"name":"T_Ornaments_ORM",
			"uri":"../../materials/T_Ornaments_ORM.png"
		}
	],
	"accessors":[
		{
			"bufferView":0,
			"componentType":5126,
			"count":34,
			"max":[
				-0.8977195620536804,
				0.7696864008903503,
				0.34287041425704956
			],
			"min":[
				-1.6388554573059082,
				0,
				-0.33657968044281006
			],
			"type":"VEC3"
		},
		{
			"bufferView":1,
			"componentType":5126,
			"count":34,
			"type":"VEC3"
		},
		{
			"bufferView":2,
			"componentType":5126,
			"count":34,
			"type":"VEC2"
		},
		{
			"bufferView":3,
			"componentType":5123,
			"count":60,
			"type":"SCALAR"
		},
		{
			"bufferView":4,
			"componentType":5126,
			"count":56,
			"max":[
				-0.8852627873420715,
				0.9062541723251343,
				0.35926252603530884
			],
			"min":[
				-1.6388554573059082,
				0.7696864008903503,
				-0.3582172989845276
			],
			"type":"VEC3"
		},
		{
			"bufferView":5,
			"componentType":5126,
			"count":56,
			"type":"VEC3"
		},
		{
			"bufferView":6,
			"componentType":5126,
			"count":56,
			"type":"VEC2"
		},
		{
			"bufferView":7,
			"componentType":5123,
			"count":84,
			"type":"SCALAR"
		},
		{
			"bufferView":8,
			"componentType":5126,
			"count":34,
			"max":[
				-0.9147476553916931,
				1.3656389713287354,
				0.34652236104011536
			],
			"min":[
				-1.6122971773147583,
				0.9062541723251343,
				-0.3446308970451355
			],
			"type":"VEC3"
		},
		{
			"bufferView":9,
			"componentType":5126,
			"count":34,
			"type":"VEC3"
		},
		{
			"bufferView":10,
			"componentType":5126,
			"count":34,
			"type":"VEC2"
		},
		{
			"bufferView":11,
			"componentType":5123,
			"count":60,
			"type":"SCALAR"
		},
		{
			"bufferView":12,
			"componentType":5126,
			"count":34,
			"max":[
				1.6388554573059082,
				0.7696864008903503,
				0.34287041425704956
			],
			"min":[
				0.8977195620536804,
				0,
				-0.33657968044281006
			],
			"type":"VEC3"
		},
		{
			"bufferView":13,
			"componentType":5126,
			"count":34,
			"type":"VEC3"
		},
		{
			"bufferView":14,
			"componentType":5126,
			"count":34,
			"type":"VEC2"
		},
		{
			"bufferView":15,
			"componentType":5123,
			"count":60,
			"type":"SCALAR"
		},
		{
			"bufferView":16,
			"componentType":5126,
			"count":56,
			"max":[
				1.6388554573059082,
				0.9062541723251343,
				0.35926252603530884
			],
			"min":[
				0.8852627873420715,
				0.7696864008903503,
				-0.3582172989845276
			],
			"type":"VEC3"
		},
		{
			"bufferView":17,
			"componentType":5126,
			"count":56,
			"type":"VEC3"
		},
		{
			"bufferView":18,
			"componentType":5126,
			"count":56,
			"type":"VEC2"
		},
		{
			"bufferView":19,
			"componentType":5123,
			"count":84,
			"type":"SCALAR"
		},
		{
			"bufferView":20,
			"componentType":5126,
			"count":34,
			"max":[
				1.6122971773147583,
				1.3656389713287354,
				0.34652236104011536
			],
			"min":[
				0.9147476553916931,
				0.9062541723251343,
				-0.3446308970451355
			],
			"type":"VEC3"
		},
		{
			"bufferView":21,
			"componentType":5126,
			"count":34,
			"type":"VEC3"
		},
		{
			"bufferView":22,
			"componentType":5126,
			"count":34,
			"type":"VEC2"
		},
		{
			"bufferView":23,
			"componentType":5123,
			"count":60,
			"type":"SCALAR"
		},
		{
			"bufferView":24,
			"componentType":5126,
			"count":32,
			"max":[
				-0.9147476553916931,
				3.6577253341674805,
				0.34652236104011536
			],
			"min":[
				-1.5678379535675049,
				1.3656389713287354,
				-0.3446308970451355
			],
			"type":"VEC3"
		},
		{
			"bufferView":25,
			"componentType":5126,
			"count":32,
			"type":"VEC3"
		},
		{
			"bufferView":26,
			"componentType":5126,
			"count":32,
			"type":"VEC2"
		},
		{
			"bufferView":27,
			"componentType":5123,
			"count":60,
			"type":"SCALAR"
		},
		{
			"bufferView":28,
			"componentType":5126,
			"count":32,
			"max":[
				1.5678379535675049,
				3.6577253341674805,
				0.34652236104011536
			],
			"min":[
				0.9147476553916931,
				1.3656389713287354,
				-0.3446308970451355
			],
			"type":"VEC3"
		},
		{
			"bufferView":29,
			"componentType":5126,
			"count":32,
			"type":"VEC3"
		},
		{
			"bufferView":30,
			"componentType":5126,
			"count":32,
			"type":"VEC2"
		},
		{
			"bufferView":31,
			"componentType":5123,
			"count":60,
			"type":"SCALAR"
		},
		{
			"bufferView":32,
			"componentType":5126,
			"count":24,
			"max":[
				-0.6979159116744995,
				3.6577253341674805,
				0.34652236104011536
			],
			"min":[
				-0.9147476553916931,
				3.1199824810028076,
				-0.3446308970451355
			],
			"type":"VEC3"
		},
		{
			"bufferView":33,
			"componentType":5126,
			"count":24,
			"type":"VEC3"
		},
		{
			"bufferView":34,
			"componentType":5126,
			"count":24,
			"type":"VEC2"
		},
		{
			"bufferView":35,
			"componentType":5123,
			"count":36,
			"type":"SCALAR"
		},
		{
			"bufferView":36,
			"componentType":5126,
			"count":24,
			"max":[
				0.9147476553916931,
				3.6577253341674805,
				0.34652236104011536
			],
			"min":[
				0.6979159116744995,
				3.1199824810028076,
				-0.3446308970451355
			],
			"type":"VEC3"
		},
		{
			"bufferView":37,
			"componentType":5126,
			"count":24,
			"type":"VEC3"
		},
		{
			"bufferView":38,
			"componentType":5126,
			"count":24,
			"type":"VEC2"
		},
		{
			"bufferView":39,
			"componentType":5123,
			"count":36,
			"type":"SCALAR"
		},
		{
			"bufferView":40,
			"componentType":5126,
			"count":24,
			"max":[
				-0.14333012700080872,
				3.6577253341674805,
				0.34652236104011536
			],
			"min":[
				-0.48108410835266113,
				3.318345069885254,
				-0.3446308970451355
			],
			"type":"VEC3"
		},
		{
			"bufferView":41,
			"componentType":5126,
			"count":24,
			"type":"VEC3"
		},
		{
			"bufferView":42,
			"componentType":5126,
			"count":24,
			"type":"VEC2"
		},
		{
			"bufferView":43,
			"componentType":5123,
			"count":36,
			"type":"SCALAR"
		},
		{
			"bufferView":44,
			"componentType":5126,
			"count":24,
			"max":[
				0.48108410835266113,
				3.6577253341674805,
				0.34652236104011536
			],
			"min":[
				0.14333012700080872,
				3.318345069885254,
				-0.3446308970451355
			],
			"type":"VEC3"
		},
		{
			"bufferView":45,
			"componentType":5126,
			"count":24,
			"type":"VEC3"
		},
		{
			"bufferView":46,
			"componentType":5126,
			"count":24,
			"type":"VEC2"
		},
		{
			"bufferView":47,
			"componentType":5123,
			"count":36,
			"type":"SCALAR"
		},
		{
			"bufferView":48,
			"componentType":5126,
			"count":36,
			"max":[
				0.14333012700080872,
				3.6577253341674805,
				0.34652236104011536
			],
			"min":[
				-0.14333012700080872,
				3.3507611751556396,
				-0.3446308970451355
			],
			"type":"VEC3"
		},
		{
			"bufferView":49,
			"componentType":5126,
			"count":36,
			"type":"VEC3"
		},
		{
			"bufferView":50,
			"componentType":5126,
			"count":36,
			"type":"VEC2"
		},
		{
			"bufferView":51,
			"componentType":5123,
			"count":66,
			"type":"SCALAR"
		},
		{
			"bufferView":52,
			"componentType":5126,
			"count":32,
			"max":[
				1.6019582748413086,
				3.8960838317871094,
				0.3953607678413391
			],
			"min":[
				-1.6019582748413086,
				3.6401283740997314,
				-0.35512781143188477
			],
			"type":"VEC3"
		},
		{
			"bufferView":53,
			"componentType":5126,
			"count":32,
			"type":"VEC3"
		},
		{
			"bufferView":54,
			"componentType":5126,
			"count":32,
			"type":"VEC2"
		},
		{
			"bufferView":55,
			"componentType":5123,
			"count":60,
			"type":"SCALAR"
		},
		{
			"bufferView":56,
			"componentType":5126,
			"count":32,
			"max":[
				1.6501431465148926,
				4.01496696472168,
				0.44682177901268005
			],
			"min":[
				-1.6501431465148926,
				3.8960838317871094,
				-0.35512781143188477
			],
			"type":"VEC3"
		},
		{
			"bufferView":57,
			"componentType":5126,
			"count":32,
			"type":"VEC3"
		},
		{
			"bufferView":58,
			"componentType":5126,
			"count":32,
			"type":"VEC2"
		},
		{
			"bufferView":59,
			"componentType":5123,
			"count":60,
			"type":"SCALAR"
		},
		{
			"bufferView":60,
			"componentType":5126,
			"count":32,
			"max":[
				1.8519530296325684,
				4.185088634490967,
				0.6717144846916199
			],
			"min":[
				-1.8519530296325684,
				4.133850574493408,
				-0.35999998450279236
			],
			"type":"VEC3"
		},
		{
			"bufferView":61,
			"componentType":5126,
			"count":32,
			"type":"VEC3"
		},
		{
			"bufferView":62,
			"componentType":5126,
			"count":32,
			"type":"VEC2"
		},
		{
			"bufferView":63,
			"componentType":5126,
			"count":66,
			"max":[
				2.0276269912719727,
				4.444972515106201,
				0.8475858569145203
			],
			"min":[
				-2.0276269912719727,
				4.185088634490967,
				-0.35999998450279236
			],
			"type":"VEC3"
		},
		{
			"bufferView":64,
			"componentType":5126,
			"count":66,
			"type":"VEC3"
		},
		{
			"bufferView":65,
			"componentType":5126,
			"count":66,
			"type":"VEC2"
		},
		{
			"bufferView":66,
			"componentType":5123,
			"count":132,
			"type":"SCALAR"
		},
		{
			"bufferView":67,
			"componentType":5126,
			"count":24,
			"max":[
				-0.48108410835266113,
				3.6577253341674805,
				0.34652236104011536
			],
			"min":[
				-0.6979159116744995,
				3.2656962871551514,
				-0.3446308970451355
			],
			"type":"VEC3"
		},
		{
			"bufferView":68,
			"componentType":5126,
			"count":24,
			"type":"VEC3"
		},
		{
			"bufferView":69,
			"componentType":5126,
			"count":24,
			"type":"VEC2"
		},
		{
			"bufferView":70,
			"componentType":5123,
			"count":36,
			"type":"SCALAR"
		},
		{
			"bufferView":71,
			"componentType":5126,
			"count":24,
			"max":[
				0.6979159116744995,
				3.6577253341674805,
				0.34652236104011536
			],
			"min":[
				0.48108410835266113,
				3.2656962871551514,
				-0.3446308970451355
			],
			"type":"VEC3"
		},
		{
			"bufferView":72,
			"componentType":5126,
			"count":24,
			"type":"VEC3"
		},
		{
			"bufferView":73,
			"componentType":5126,
			"count":24,
			"type":"VEC2"
		},
		{
			"bufferView":74,
			"componentType":5123,
			"count":36,
			"type":"SCALAR"
		},
		{
			"bufferView":75,
			"componentType":5126,
			"count":32,
			"max":[
				1.7856630086898804,
				4.133850574493408,
				0.6006755828857422
			],
			"min":[
				-1.7856630086898804,
				4.01496696472168,
				-0.35512781143188477
			],
			"type":"VEC3"
		},
		{
			"bufferView":76,
			"componentType":5126,
			"count":32,
			"type":"VEC3"
		},
		{
			"bufferView":77,
			"componentType":5126,
			"count":32,
			"type":"VEC2"
		},
		{
			"bufferView":78,
			"componentType":5123,
			"count":60,
			"type":"SCALAR"
		},
		{
			"bufferView":79,
			"componentType":5126,
			"count":1449,
			"max":[
				2.020371437072754,
				4.443244934082031,
				0.8534330129623413
			],
			"min":[
				-2.020371437072754,
				0,
				-0.3741428256034851
			],
			"type":"VEC3"
		},
		{
			"bufferView":80,
			"componentType":5126,
			"count":1449,
			"type":"VEC3"
		},
		{
			"bufferView":81,
			"componentType":5126,
			"count":1449,
			"type":"VEC2"
		},
		{
			"bufferView":82,
			"componentType":5126,
			"count":1449,
			"type":"VEC2"
		},
		{
			"bufferView":83,
			"componentType":5121,
			"count":1449,
			"normalized":true,
			"type":"VEC4"
		},
		{
			"bufferView":84,
			"componentType":5123,
			"count":1449,
			"normalized":true,
			"type":"VEC4"
		},
		{
			"bufferView":85,
			"componentType":5123,
			"count":3456,
			"type":"SCALAR"
		},
		{
			"bufferView":86,
			"componentType":5126,
			"count":234,
			"max":[
				1.6374868154525757,
				3.522329092025757,
				0.3458438515663147
			],
			"min":[
				-1.6374868154525757,
				0,
				-0.3458438515663147
			],
			"type":"VEC3"
		},
		{
			"bufferView":87,
			"componentType":5126,
			"count":234,
			"type":"VEC3"
		},
		{
			"bufferView":88,
			"componentType":5126,
			"count":234,
			"type":"VEC2"
		},
		{
			"bufferView":89,
			"componentType":5126,
			"count":234,
			"type":"VEC2"
		},
		{
			"bufferView":90,
			"componentType":5121,
			"count":234,
			"normalized":true,
			"type":"VEC4"
		},
		{
			"bufferView":91,
			"componentType":5123,
			"count":234,
			"normalized":true,
			"type":"VEC4"
		},
		{
			"bufferView":92,
			"componentType":5123,
			"count":552,
			"type":"SCALAR"
		}
	],
	"bufferViews":[
		{
			"buffer":0,
			"byteLength":408,
			"byteOffset":0,
			"target":34962
		},
		{
			"buffer":0,
			"byteLength":408,
			"byteOffset":408,
			"target":34962
		},
		{
			"buffer":0,
			"byteLength":272,
			"byteOffset":816,
			"target":34962
		},
		{
			"buffer":0,
			"byteLength":120,
			"byteOffset":1088,
			"target":34963
		},
		{
			"buffer":0,
			"byteLength":672,
			"byteOffset":1208,
			"target":34962
		},
		{
			"buffer":0,
			"byteLength":672,
			"byteOffset":1880,
			"target":34962
		},
		{
			"buffer":0,
			"byteLength":448,
			"byteOffset":2552,
			"target":34962
		},
		{
			"buffer":0,
			"byteLength":168,
			"byteOffset":3000,
			"target":34963
		},
		{
			"buffer":0,
			"byteLength":408,
			"byteOffset":3168,
			"target":34962
		},
		{
			"buffer":0,
			"byteLength":408,
			"byteOffset":3576,
			"target":34962
		},
		{
			"buffer":0,
			"byteLength":272,
			"byteOffset":3984,
			"target":34962
		},
		{
			"buffer":0,
			"byteLength":120,
			"byteOffset":4256,
			"target":34963
		},
		{
			"buffer":0,
			"byteLength":408,
			"byteOffset":4376,
			"target":34962
		},
		{
			"buffer":0,
			"byteLength":408,
			"byteOffset":4784,
			"target":34962
		},
		{
			"buffer":0,
			"byteLength":272,
			"byteOffset":5192,
			"target":34962
		},
		{
			"buffer":0,
			"byteLength":120,
			"byteOffset":5464,
			"target":34963
		},
		{
			"buffer":0,
			"byteLength":672,
			"byteOffset":5584,
			"target":34962
		},
		{
			"buffer":0,
			"byteLength":672,
			"byteOffset":6256,
			"target":34962
		},
		{
			"buffer":0,
			"byteLength":448,
			"byteOffset":6928,
			"target":34962
		},
		{
			"buffer":0,
			"byteLength":168,
			"byteOffset":7376,
			"target":34963
		},
		{
			"buffer":0,
			"byteLength":408,
			"byteOffset":7544,
			"target":34962
		},
		{
			"buffer":0,
			"byteLength":408,
			"byteOffset":7952,
			"target":34962
		},
		{
			"buffer":0,
			"byteLength":272,
			"byteOffset":8360,
			"target":34962
		},
		{
			"buffer":0,
			"byteLength":120,
			"byteOffset":8632,
			"target":34963
		},
		{
			"buffer":0,
			"byteLength":384,
			"byteOffset":8752,
			"target":34962
		},
		{
			"buffer":0,
			"byteLength":384,
			"byteOffset":9136,
			"target":34962
		},
		{
			"buffer":0,
			"byteLength":256,
			"byteOffset":9520,
			"target":34962
		},
		{
			"buffer":0,
			"byteLength":120,
			"byteOffset":9776,
			"target":34963
		},
		{
			"buffer":0,
			"byteLength":384,
			"byteOffset":9896,
			"target":34962
		},
		{
			"buffer":0,
			"byteLength":384,
			"byteOffset":10280,
			"target":34962
		},
		{
			"buffer":0,
			"byteLength":256,
			"byteOffset":10664,
			"target":34962
		},
		{
			"buffer":0,
			"byteLength":120,
			"byteOffset":10920,
			"target":34963
		},
		{
			"buffer":0,
			"byteLength":288,
			"byteOffset":11040,
			"target":34962
		},
		{
			"buffer":0,
			"byteLength":288,
			"byteOffset":11328,
			"target":34962
		},
		{
			"buffer":0,
			"byteLength":192,
			"byteOffset":11616,
			"target":34962
		},
		{
			"buffer":0,
			"byteLength":72,
			"byteOffset":11808,
			"target":34963
		},
		{
			"buffer":0,
			"byteLength":288,
			"byteOffset":11880,
			"target":34962
		},
		{
			"buffer":0,
			"byteLength":288,
			"byteOffset":12168,
			"target":34962
		},
		{
			"buffer":0,
			"byteLength":192,
			"byteOffset":12456,
			"target":34962
		},
		{
			"buffer":0,
			"byteLength":72,
			"byteOffset":12648,
			"target":34963
		},
		{
			"buffer":0,
			"byteLength":288,
			"byteOffset":12720,
			"target":34962
		},
		{
			"buffer":0,
			"byteLength":288,
			"byteOffset":13008,
			"target":34962
		},
		{
			"buffer":0,
			"byteLength":192,
			"byteOffset":13296,
			"target":34962
		},
		{
			"buffer":0,
			"byteLength":72,
			"byteOffset":13488,
			"target":34963
		},
		{
			"buffer":0,
			"byteLength":288,
			"byteOffset":13560,
			"target":34962
		},
		{
			"buffer":0,
			"byteLength":288,
			"byteOffset":13848,
			"target":34962
		},
		{
			"buffer":0,
			"byteLength":192,
			"byteOffset":14136,
			"target":34962
		},
		{
			"buffer":0,
			"byteLength":72,
			"byteOffset":14328,
			"target":34963
		},
		{
			"buffer":0,
			"byteLength":432,
			"byteOffset":14400,
			"target":34962
		},
		{
			"buffer":0,
			"byteLength":432,
			"byteOffset":14832,
			"target":34962
		},
		{
			"buffer":0,
			"byteLength":288,
			"byteOffset":15264,
			"target":34962
		},
		{
			"buffer":0,
			"byteLength":132,
			"byteOffset":15552,
			"target":34963
		},
		{
			"buffer":0,
			"byteLength":384,
			"byteOffset":15684,
			"target":34962
		},
		{
			"buffer":0,
			"byteLength":384,
			"byteOffset":16068,
			"target":34962
		},
		{
			"buffer":0,
			"byteLength":256,
			"byteOffset":16452,
			"target":34962
		},
		{
			"buffer":0,
			"byteLength":120,
			"byteOffset":16708,
			"target":34963
		},
		{
			"buffer":0,
			"byteLength":384,
			"byteOffset":16828,
			"target":34962
		},
		{
			"buffer":0,
			"byteLength":384,
			"byteOffset":17212,
			"target":34962
		},
		{
			"buffer":0,
			"byteLength":256,
			"byteOffset":17596,
			"target":34962
		},
		{
			"buffer":0,
			"byteLength":120,
			"byteOffset":17852,
			"target":34963
		},
		{
			"buffer":0,
			"byteLength":384,
			"byteOffset":17972,
			"target":34962
		},
		{
			"buffer":0,
			"byteLength":384,
			"byteOffset":18356,
			"target":34962
		},
		{
			"buffer":0,
			"byteLength":256,
			"byteOffset":18740,
			"target":34962
		},
		{
			"buffer":0,
			"byteLength":792,
			"byteOffset":18996,
			"target":34962
		},
		{
			"buffer":0,
			"byteLength":792,
			"byteOffset":19788,
			"target":34962
		},
		{
			"buffer":0,
			"byteLength":528,
			"byteOffset":20580,
			"target":34962
		},
		{
			"buffer":0,
			"byteLength":264,
			"byteOffset":21108,
			"target":34963
		},
		{
			"buffer":0,
			"byteLength":288,
			"byteOffset":21372,
			"target":34962
		},
		{
			"buffer":0,
			"byteLength":288,
			"byteOffset":21660,
			"target":34962
		},
		{
			"buffer":0,
			"byteLength":192,
			"byteOffset":21948,
			"target":34962
		},
		{
			"buffer":0,
			"byteLength":72,
			"byteOffset":22140,
			"target":34963
		},
		{
			"buffer":0,
			"byteLength":288,
			"byteOffset":22212,
			"target":34962
		},
		{
			"buffer":0,
			"byteLength":288,
			"byteOffset":22500,
			"target":34962
		},
		{
			"buffer":0,
			"byteLength":192,
			"byteOffset":22788,
			"target":34962
		},
		{
			"buffer":0,
			"byteLength":72,
			"byteOffset":22980,
			"target":34963
		},
		{
			"buffer":0,
			"byteLength":384,
			"byteOffset":23052,
			"target":34962
		},
		{
			"buffer":0,
			"byteLength":384,
			"byteOffset":23436,
			"target":34962
		},
		{
			"buffer":0,
			"byteLength":256,
			"byteOffset":23820,
			"target":34962
		},
		{
			"buffer":0,
			"byteLength":120,
			"byteOffset":24076,
			"target":34963
		},
		{
			"buffer":0,
			"byteLength":17388,
			"byteOffset":24196,
			"target":34962
		},
		{
			"buffer":0,
			"byteLength":17388,
			"byteOffset":41584,
			"target":34962
		},
		{
			"buffer":0,
			"byteLength":11592,
			"byteOffset":58972,
			"target":34962
		},
		{
			"buffer":0,
			"byteLength":11592,
			"byteOffset":70564,
			"target":34962
		},
		{
			"buffer":0,
			"byteLength":5796,
			"byteOffset":82156,
			"target":34962
		},
		{
			"buffer":0,
			"byteLength":11592,
			"byteOffset":87952,
			"target":34962
		},
		{
			"buffer":0,
			"byteLength":6912,
			"byteOffset":99544,
			"target":34963
		},
		{
			"buffer":0,
			"byteLength":2808,
			"byteOffset":106456,
			"target":34962
		},
		{
			"buffer":0,
			"byteLength":2808,
			"byteOffset":109264,
			"target":34962
		},
		{
			"buffer":0,
			"byteLength":1872,
			"byteOffset":112072,
			"target":34962
		},
		{
			"buffer":0,
			"byteLength":1872,
			"byteOffset":113944,
			"target":34962
		},
		{
			"buffer":0,
			"byteLength":936,
			"byteOffset":115816,
			"target":34962
		},
		{
			"buffer":0,
			"byteLength":1872,
			"byteOffset":116752,
			"target":34962
		},
		{
			"buffer":0,
			"byteLength":1104,
			"byteOffset":118624,
			"target":34963
		}
	],
	"samplers":[
		{
			"magFilter":9729,
			"minFilter":9987
		}
	],
	"buffers":[
		{
			"byteLength":119728,
			"uri":"Prop_EntranceArch.bin"
		}
	]
}
