{
	"asset":{
		"generator":"Khronos glTF Blender I/O v4.3.47",
		"version":"2.0"
	},
	"scene":0,
	"scenes":[
		{
			"name":"Scene",
			"nodes":[
				15
			]
		}
	],
	"nodes":[
		{
			"mesh":0,
			"name":"Prop_ColumnArch_01-convcolonly"
		},
		{
			"mesh":1,
			"name":"Prop_ColumnArch_02-convcolonly"
		},
		{
			"mesh":2,
			"name":"Prop_ColumnArch_03-convcolonly"
		},
		{
			"mesh":3,
			"name":"Prop_ColumnArch_04-convcolonly"
		},
		{
			"mesh":4,
			"name":"Prop_ColumnArch_05-convcolonly"
		},
		{
			"mesh":5,
			"name":"Prop_ColumnArch_06-convcolonly"
		},
		{
			"mesh":6,
			"name":"Prop_ColumnArch_07-convcolonly"
		},
		{
			"mesh":7,
			"name":"Prop_ColumnArch_08-convcolonly"
		},
		{
			"mesh":8,
			"name":"Prop_ColumnArch_09-convcolonly"
		},
		{
			"mesh":9,
			"name":"Prop_ColumnArch_10-convcolonly"
		},
		{
			"mesh":10,
			"name":"Prop_ColumnArch_11-convcolonly"
		},
		{
			"mesh":11,
			"name":"Prop_ColumnArch_12-convcolonly"
		},
		{
			"mesh":12,
			"name":"Prop_ColumnArch_13-convcolonly"
		},
		{
			"mesh":13,
			"name":"Prop_ColumnArch_14-convcolonly"
		},
		{
			"mesh":14,
			"name":"Prop_ColumnArch_15-convcolonly"
		},
		{
			"children":[
				0,
				1,
				2,
				3,
				4,
				5,
				6,
				7,
				8,
				9,
				10,
				11,
				12,
				13,
				14
			],
			"mesh":15,
			"name":"Prop_ColumnArch",
			"scale":[
				1.0965100526809692,
				1,
				1
			]
		}
	],
	"materials":[
		{
			"doubleSided":true,
			"name":"Collision",
			"pbrMetallicRoughness":{
				"baseColorFactor":[
					0.036788325756788254,
					0.5504099726676941,
					0.8000074625015259,
					1
				],
				"metallicFactor":0
			}
		},
		{
			"doubleSided":true,
			"name":"MI_Trim",
			"normalTexture":{
				"index":0
			},
			"pbrMetallicRoughness":{
				"baseColorTexture":{
					"index":1
				},
				"metallicRoughnessTexture":{
					"index":2
				}
			}
		}
	],
	"meshes":[
		{
			"name":"Cube.460",
			"primitives":[
				{
					"attributes":{
						"POSITION":0,
						"NORMAL":1,
						"TEXCOORD_0":2
					},
					"indices":3,
					"material":0
				}
			]
		},
		{
			"name":"Cube.461",
			"primitives":[
				{
					"attributes":{
						"POSITION":4,
						"NORMAL":5,
						"TEXCOORD_0":6
					},
					"indices":7,
					"material":0
				}
			]
		},
		{
			"name":"Cube.462",
			"primitives":[
				{
					"attributes":{
						"POSITION":8,
						"NORMAL":9,
						"TEXCOORD_0":10
					},
					"indices":11,
					"material":0
				}
			]
		},
		{
			"name":"Cube.463",
			"primitives":[
				{
					"attributes":{
						"POSITION":12,
						"NORMAL":13,
						"TEXCOORD_0":14
					},
					"indices":15,
					"material":0
				}
			]
		},
		{
			"name":"Cube.464",
			"primitives":[
				{
					"attributes":{
						"POSITION":16,
						"NORMAL":17,
						"TEXCOORD_0":18
					},
					"indices":19,
					"material":0
				}
			]
		},
		{
			"name":"Cube.465",
			"primitives":[
				{
					"attributes":{
						"POSITION":20,
						"NORMAL":21,
						"TEXCOORD_0":22
					},
					"indices":23,
					"material":0
				}
			]
		},
		{
			"name":"Cube.466",
			"primitives":[
				{
					"attributes":{
						"POSITION":24,
						"NORMAL":25,
						"TEXCOORD_0":26
					},
					"indices":23,
					"material":0
				}
			]
		},
		{
			"name":"Cube.467",
			"primitives":[
				{
					"attributes":{
						"POSITION":27,
						"NORMAL":28,
						"TEXCOORD_0":29
					},
					"indices":23,
					"material":0
				}
			]
		},
		{
			"name":"Cube.468",
			"primitives":[
				{
					"attributes":{
						"POSITION":30,
						"NORMAL":31,
						"TEXCOORD_0":32
					},
					"indices":33,
					"material":0
				}
			]
		},
		{
			"name":"Cube.469",
			"primitives":[
				{
					"attributes":{
						"POSITION":34,
						"NORMAL":35,
						"TEXCOORD_0":36
					},
					"indices":37,
					"material":0
				}
			]
		},
		{
			"name":"Cube.470",
			"primitives":[
				{
					"attributes":{
						"POSITION":38,
						"NORMAL":39,
						"TEXCOORD_0":40
					},
					"indices":3,
					"material":0
				}
			]
		},
		{
			"name":"Cube.471",
			"primitives":[
				{
					"attributes":{
						"POSITION":41,
						"NORMAL":42,
						"TEXCOORD_0":43
					},
					"indices":44,
					"material":0
				}
			]
		},
		{
			"name":"Cube.472",
			"primitives":[
				{
					"attributes":{
						"POSITION":45,
						"NORMAL":46,
						"TEXCOORD_0":47
					},
					"indices":48,
					"material":0
				}
			]
		},
		{
			"name":"Cube.473",
			"primitives":[
				{
					"attributes":{
						"POSITION":49,
						"NORMAL":50,
						"TEXCOORD_0":51
					},
					"indices":52,
					"material":0
				}
			]
		},
		{
			"name":"Cube.474",
			"primitives":[
				{
					"attributes":{
						"POSITION":53,
						"NORMAL":54,
						"TEXCOORD_0":55
					},
					"indices":56,
					"material":0
				}
			]
		},
		{
			"name":"Cube.103",
			"primitives":[
				{
					"attributes":{
						"POSITION":57,
						"NORMAL":58,
						"TEXCOORD_0":59,
						"TEXCOORD_1":60,
						"COLOR_0":61,
						"COLOR_1":62
					},
					"indices":63,
					"material":1
				}
			]
		}
	],
	"textures":[
		{
			"sampler":0,
			"source":0
		},
		{
			"sampler":0,
			"source":1
		},
		{
			"sampler":0,
			"source":2
		}
	],
	"images":[
		{
			"mimeType":"image/png",
			"name":"T_Trim_Normal",
			"uri":"../../materials/T_Trim_Normal.png"
		},
		{
			"mimeType":"image/png",
			"name":"T_Trim_BaseColor",
			"uri":"../../materials/T_Trim_BaseColor.png"
		},
		{
			"mimeType":"image/png",
			"name":"T_Trim_ORM",
			"uri":"../../materials/T_Trim_ORM.png"
		}
	],
	"accessors":[
		{
			"bufferView":0,
			"componentType":5126,
			"count":40,
			"max":[
				-0.8857447504997253,
				2.4241747856140137,
				0.6248028874397278
			],
			"min":[
				-1.3142553567886353,
				2.3381786346435547,
				0.19629229605197906
			],
			"type":"VEC3"
		},
		{
			"bufferView":1,
			"componentType":5126,
			"count":40,
			"type":"VEC3"
		},
		{
			"bufferView":2,
			"componentType":5126,
			"count":40,
			"type":"VEC2"
		},
		{
			"bufferView":3,
			"componentType":5123,
			"count":60,
			"type":"SCALAR"
		},
		{
			"bufferView":4,
			"componentType":5126,
			"count":24,
			"max":[
				1.3493815660476685,
				2.577934503555298,
				0.7040953636169434
			],
			"min":[
				-1.3493815660476685,
				2.419895887374878,
				-0.056949466466903687
			],
			"type":"VEC3"
		},
		{
			"bufferView":5,
			"componentType":5126,
			"count":24,
			"type":"VEC3"
		},
		{
			"bufferView":6,
			"componentType":5126,
			"count":24,
			"type":"VEC2"
		},
		{
			"bufferView":7,
			"componentType":5123,
			"count":36,
			"type":"SCALAR"
		},
		{
			"bufferView":8,
			"componentType":5126,
			"count":40,
			"max":[
				1.8216803073883057,
				3.2259960174560547,
				1.1560438871383667
			],
			"min":[
				-1.8216805458068848,
				3.058540105819702,
				-0.06257390975952148
			],
			"type":"VEC3"
		},
		{
			"bufferView":9,
			"componentType":5126,
			"count":40,
			"type":"VEC3"
		},
		{
			"bufferView":10,
			"componentType":5126,
			"count":40,
			"type":"VEC2"
		},
		{
			"bufferView":11,
			"componentType":5123,
			"count":60,
			"type":"SCALAR"
		},
		{
			"bufferView":12,
			"componentType":5126,
			"count":24,
			"max":[
				1.8045766353607178,
				3.058540105819702,
				1.129891037940979
			],
			"min":[
				-1.8045768737792969,
				2.919541120529175,
				-0.056949496269226074
			],
			"type":"VEC3"
		},
		{
			"bufferView":13,
			"componentType":5126,
			"count":24,
			"type":"VEC3"
		},
		{
			"bufferView":14,
			"componentType":5126,
			"count":24,
			"type":"VEC2"
		},
		{
			"bufferView":15,
			"componentType":5123,
			"count":36,
			"type":"SCALAR"
		},
		{
			"bufferView":16,
			"componentType":5126,
			"count":24,
			"max":[
				1.3738524913787842,
				2.754810333251953,
				0.7163236737251282
			],
			"min":[
				-1.3738524913787842,
				2.5694949626922607,
				-0.056949466466903687
			],
			"type":"VEC3"
		},
		{
			"bufferView":17,
			"componentType":5126,
			"count":24,
			"type":"VEC3"
		},
		{
			"bufferView":18,
			"componentType":5126,
			"count":24,
			"type":"VEC2"
		},
		{
			"bufferView":19,
			"componentType":5123,
			"count":36,
			"type":"SCALAR"
		},
		{
			"bufferView":20,
			"componentType":5126,
			"count":34,
			"max":[
				0.08886891603469849,
				2.9694223403930664,
				0.9139353036880493
			],
			"min":[
				-0.08886891603469849,
				2.588935375213623,
				0.7040953636169434
			],
			"type":"VEC3"
		},
		{
			"bufferView":21,
			"componentType":5126,
			"count":34,
			"type":"VEC3"
		},
		{
			"bufferView":22,
			"componentType":5126,
			"count":34,
			"type":"VEC2"
		},
		{
			"bufferView":23,
			"componentType":5123,
			"count":60,
			"type":"SCALAR"
		},
		{
			"bufferView":24,
			"componentType":5126,
			"count":34,
			"max":[
				-0.9736645817756653,
				2.9694223403930664,
				0.9139353036880493
			],
			"min":[
				-1.151402473449707,
				2.588935375213623,
				0.7040953636169434
			],
			"type":"VEC3"
		},
		{
			"bufferView":25,
			"componentType":5126,
			"count":34,
			"type":"VEC3"
		},
		{
			"bufferView":26,
			"componentType":5126,
			"count":34,
			"type":"VEC2"
		},
		{
			"bufferView":27,
			"componentType":5126,
			"count":34,
			"max":[
				1.1498932838439941,
				2.9694223403930664,
				0.9139353036880493
			],
			"min":[
				0.9721553325653076,
				2.588935375213623,
				0.7040953636169434
			],
			"type":"VEC3"
		},
		{
			"bufferView":28,
			"componentType":5126,
			"count":34,
			"type":"VEC3"
		},
		{
			"bufferView":29,
			"componentType":5126,
			"count":34,
			"type":"VEC2"
		},
		{
			"bufferView":30,
			"componentType":5126,
			"count":24,
			"max":[
				1.6318604946136475,
				2.919541120529175,
				0.9502350091934204
			],
			"min":[
				-1.6318604946136475,
				2.8474678993225098,
				-0.056949496269226074
			],
			"type":"VEC3"
		},
		{
			"bufferView":31,
			"componentType":5126,
			"count":24,
			"type":"VEC3"
		},
		{
			"bufferView":32,
			"componentType":5126,
			"count":24,
			"type":"VEC2"
		},
		{
			"bufferView":33,
			"componentType":5123,
			"count":36,
			"type":"SCALAR"
		},
		{
			"bufferView":34,
			"componentType":5126,
			"count":24,
			"max":[
				1.453579306602478,
				2.8474678993225098,
				0.7883949279785156
			],
			"min":[
				-1.453579306602478,
				2.754810333251953,
				-0.056949466466903687
			],
			"type":"VEC3"
		},
		{
			"bufferView":35,
			"componentType":5126,
			"count":24,
			"type":"VEC3"
		},
		{
			"bufferView":36,
			"componentType":5126,
			"count":24,
			"type":"VEC2"
		},
		{
			"bufferView":37,
			"componentType":5123,
			"count":36,
			"type":"SCALAR"
		},
		{
			"bufferView":38,
			"componentType":5126,
			"count":40,
			"max":[
				-0.820802628993988,
				0.15084286034107208,
				0.6897449493408203
			],
			"min":[
				-1.379197359085083,
				0,
				0.13135018944740295
			],
			"type":"VEC3"
		},
		{
			"bufferView":39,
			"componentType":5126,
			"count":40,
			"type":"VEC3"
		},
		{
			"bufferView":40,
			"componentType":5126,
			"count":40,
			"type":"VEC2"
		},
		{
			"bufferView":41,
			"componentType":5126,
			"count":48,
			"max":[
				-0.8912051320075989,
				2.336623430252075,
				0.6193425059318542
			],
			"min":[
				-1.3087949752807617,
				0,
				0.2017526775598526
			],
			"type":"VEC3"
		},
		{
			"bufferView":42,
			"componentType":5126,
			"count":48,
			"type":"VEC3"
		},
		{
			"bufferView":43,
			"componentType":5126,
			"count":48,
			"type":"VEC2"
		},
		{
			"bufferView":44,
			"componentType":5123,
			"count":84,
			"type":"SCALAR"
		},
		{
			"bufferView":45,
			"componentType":5126,
			"count":40,
			"max":[
				1.3142553567886353,
				2.4241747856140137,
				0.6248028874397278
			],
			"min":[
				0.8857447504997253,
				2.3381786346435547,
				0.19629229605197906
			],
			"type":"VEC3"
		},
		{
			"bufferView":46,
			"componentType":5126,
			"count":40,
			"type":"VEC3"
		},
		{
			"bufferView":47,
			"componentType":5126,
			"count":40,
			"type":"VEC2"
		},
		{
			"bufferView":48,
			"componentType":5123,
			"count":60,
			"type":"SCALAR"
		},
		{
			"bufferView":49,
			"componentType":5126,
			"count":40,
			"max":[
				1.379197359085083,
				0.15084286034107208,
				0.6897449493408203
			],
			"min":[
				0.820802628993988,
				0,
				0.13135018944740295
			],
			"type":"VEC3"
		},
		{
			"bufferView":50,
			"componentType":5126,
			"count":40,
			"type":"VEC3"
		},
		{
			"bufferView":51,
			"componentType":5126,
			"count":40,
			"type":"VEC2"
		},
		{
			"bufferView":52,
			"componentType":5123,
			"count":60,
			"type":"SCALAR"
		},
		{
			"bufferView":53,
			"componentType":5126,
			"count":48,
			"max":[
				1.3087949752807617,
				2.336623430252075,
				0.6193425059318542
			],
			"min":[
				0.8912051320075989,
				0,
				0.2017526775598526
			],
			"type":"VEC3"
		},
		{
			"bufferView":54,
			"componentType":5126,
			"count":48,
			"type":"VEC3"
		},
		{
			"bufferView":55,
			"componentType":5126,
			"count":48,
			"type":"VEC2"
		},
		{
			"bufferView":56,
			"componentType":5123,
			"count":84,
			"type":"SCALAR"
		},
		{
			"bufferView":57,
			"componentType":5126,
			"count":1906,
			"max":[
				1.6676371097564697,
				3.222198486328125,
				1.153433084487915
			],
			"min":[
				-1.6676371097564697,
				0.0033148527145385742,
				-0.054182227700948715
			],
			"type":"VEC3"
		},
		{
			"bufferView":58,
			"componentType":5126,
			"count":1906,
			"type":"VEC3"
		},
		{
			"bufferView":59,
			"componentType":5126,
			"count":1906,
			"type":"VEC2"
		},
		{
			"bufferView":60,
			"componentType":5126,
			"count":1906,
			"type":"VEC2"
		},
		{
			"bufferView":61,
			"componentType":5121,
			"count":1906,
			"normalized":true,
			"type":"VEC4"
		},
		{
			"bufferView":62,
			"componentType":5123,
			"count":1906,
			"normalized":true,
			"type":"VEC4"
		},
		{
			"bufferView":63,
			"componentType":5123,
			"count":5316,
			"type":"SCALAR"
		}
	],
	"bufferViews":[
		{
			"buffer":0,
			"byteLength":480,
			"byteOffset":0,
			"target":34962
		},
		{
			"buffer":0,
			"byteLength":480,
			"byteOffset":480,
			"target":34962
		},
		{
			"buffer":0,
			"byteLength":320,
			"byteOffset":960,
			"target":34962
		},
		{
			"buffer":0,
			"byteLength":120,
			"byteOffset":1280,
			"target":34963
		},
		{
			"buffer":0,
			"byteLength":288,
			"byteOffset":1400,
			"target":34962
		},
		{
			"buffer":0,
			"byteLength":288,
			"byteOffset":1688,
			"target":34962
		},
		{
			"buffer":0,
			"byteLength":192,
			"byteOffset":1976,
			"target":34962
		},
		{
			"buffer":0,
			"byteLength":72,
			"byteOffset":2168,
			"target":34963
		},
		{
			"buffer":0,
			"byteLength":480,
			"byteOffset":2240,
			"target":34962
		},
		{
			"buffer":0,
			"byteLength":480,
			"byteOffset":2720,
			"target":34962
		},
		{
			"buffer":0,
			"byteLength":320,
			"byteOffset":3200,
			"target":34962
		},
		{
			"buffer":0,
			"byteLength":120,
			"byteOffset":3520,
			"target":34963
		},
		{
			"buffer":0,
			"byteLength":288,
			"byteOffset":3640,
			"target":34962
		},
		{
			"buffer":0,
			"byteLength":288,
			"byteOffset":3928,
			"target":34962
		},
		{
			"buffer":0,
			"byteLength":192,
			"byteOffset":4216,
			"target":34962
		},
		{
			"buffer":0,
			"byteLength":72,
			"byteOffset":4408,
			"target":34963
		},
		{
			"buffer":0,
			"byteLength":288,
			"byteOffset":4480,
			"target":34962
		},
		{
			"buffer":0,
			"byteLength":288,
			"byteOffset":4768,
			"target":34962
		},
		{
			"buffer":0,
			"byteLength":192,
			"byteOffset":5056,
			"target":34962
		},
		{
			"buffer":0,
			"byteLength":72,
			"byteOffset":5248,
			"target":34963
		},
		{
			"buffer":0,
			"byteLength":408,
			"byteOffset":5320,
			"target":34962
		},
		{
			"buffer":0,
			"byteLength":408,
			"byteOffset":5728,
			"target":34962
		},
		{
			"buffer":0,
			"byteLength":272,
			"byteOffset":6136,
			"target":34962
		},
		{
			"buffer":0,
			"byteLength":120,
			"byteOffset":6408,
			"target":34963
		},
		{
			"buffer":0,
			"byteLength":408,
			"byteOffset":6528,
			"target":34962
		},
		{
			"buffer":0,
			"byteLength":408,
			"byteOffset":6936,
			"target":34962
		},
		{
			"buffer":0,
			"byteLength":272,
			"byteOffset":7344,
			"target":34962
		},
		{
			"buffer":0,
			"byteLength":408,
			"byteOffset":7616,
			"target":34962
		},
		{
			"buffer":0,
			"byteLength":408,
			"byteOffset":8024,
			"target":34962
		},
		{
			"buffer":0,
			"byteLength":272,
			"byteOffset":8432,
			"target":34962
		},
		{
			"buffer":0,
			"byteLength":288,
			"byteOffset":8704,
			"target":34962
		},
		{
			"buffer":0,
			"byteLength":288,
			"byteOffset":8992,
			"target":34962
		},
		{
			"buffer":0,
			"byteLength":192,
			"byteOffset":9280,
			"target":34962
		},
		{
			"buffer":0,
			"byteLength":72,
			"byteOffset":9472,
			"target":34963
		},
		{
			"buffer":0,
			"byteLength":288,
			"byteOffset":9544,
			"target":34962
		},
		{
			"buffer":0,
			"byteLength":288,
			"byteOffset":9832,
			"target":34962
		},
		{
			"buffer":0,
			"byteLength":192,
			"byteOffset":10120,
			"target":34962
		},
		{
			"buffer":0,
			"byteLength":72,
			"byteOffset":10312,
			"target":34963
		},
		{
			"buffer":0,
			"byteLength":480,
			"byteOffset":10384,
			"target":34962
		},
		{
			"buffer":0,
			"byteLength":480,
			"byteOffset":10864,
			"target":34962
		},
		{
			"buffer":0,
			"byteLength":320,
			"byteOffset":11344,
			"target":34962
		},
		{
			"buffer":0,
			"byteLength":576,
			"byteOffset":11664,
			"target":34962
		},
		{
			"buffer":0,
			"byteLength":576,
			"byteOffset":12240,
			"target":34962
		},
		{
			"buffer":0,
			"byteLength":384,
			"byteOffset":12816,
			"target":34962
		},
		{
			"buffer":0,
			"byteLength":168,
			"byteOffset":13200,
			"target":34963
		},
		{
			"buffer":0,
			"byteLength":480,
			"byteOffset":13368,
			"target":34962
		},
		{
			"buffer":0,
			"byteLength":480,
			"byteOffset":13848,
			"target":34962
		},
		{
			"buffer":0,
			"byteLength":320,
			"byteOffset":14328,
			"target":34962
		},
		{
			"buffer":0,
			"byteLength":120,
			"byteOffset":14648,
			"target":34963
		},
		{
			"buffer":0,
			"byteLength":480,
			"byteOffset":14768,
			"target":34962
		},
		{
			"buffer":0,
			"byteLength":480,
			"byteOffset":15248,
			"target":34962
		},
		{
			"buffer":0,
			"byteLength":320,
			"byteOffset":15728,
			"target":34962
		},
		{
			"buffer":0,
			"byteLength":120,
			"byteOffset":16048,
			"target":34963
		},
		{
			"buffer":0,
			"byteLength":576,
			"byteOffset":16168,
			"target":34962
		},
		{
			"buffer":0,
			"byteLength":576,
			"byteOffset":16744,
			"target":34962
		},
		{
			"buffer":0,
			"byteLength":384,
			"byteOffset":17320,
			"target":34962
		},
		{
			"buffer":0,
			"byteLength":168,
			"byteOffset":17704,
			"target":34963
		},
		{
			"buffer":0,
			"byteLength":22872,
			"byteOffset":17872,
			"target":34962
		},
		{
			"buffer":0,
			"byteLength":22872,
			"byteOffset":40744,
			"target":34962
		},
		{
			"buffer":0,
			"byteLength":15248,
			"byteOffset":63616,
			"target":34962
		},
		{
			"buffer":0,
			"byteLength":15248,
			"byteOffset":78864,
			"target":34962
		},
		{
			"buffer":0,
			"byteLength":7624,
			"byteOffset":94112,
			"target":34962
		},
		{
			"buffer":0,
			"byteLength":15248,
			"byteOffset":101736,
			"target":34962
		},
		{
			"buffer":0,
			"byteLength":10632,
			"byteOffset":116984,
			"target":34963
		}
	],
	"samplers":[
		{
			"magFilter":9729,
			"minFilter":9987
		}
	],
	"buffers":[
		{
			"byteLength":127616,
			"uri":"Prop_ColumnArch.bin"
		}
	]
}
