{
	"asset":{
		"generator":"Khronos glTF Blender I/O v4.3.47",
		"version":"2.0"
	},
	"scene":0,
	"scenes":[
		{
			"name":"Scene",
			"nodes":[
				1
			]
		}
	],
	"nodes":[
		{
			"mesh":0,
			"name":"Prop_Planter_Small_Side_R_1-convcolonly"
		},
		{
			"children":[
				0
			],
			"mesh":1,
			"name":"Prop_Planter_Small_Side_R"
		}
	],
	"materials":[
		{
			"doubleSided":true,
			"name":"Collision",
			"pbrMetallicRoughness":{
				"baseColorFactor":[
					0.036788325756788254,
					0.5504099726676941,
					0.8000074625015259,
					1
				],
				"metallicFactor":0
			}
		},
		{
			"doubleSided":true,
			"name":"MI_Trim_MetalConcrete",
			"normalTexture":{
				"index":0
			},
			"pbrMetallicRoughness":{
				"baseColorTexture":{
					"index":1
				},
				"metallicRoughnessTexture":{
					"index":2
				}
			}
		},
		{
			"doubleSided":true,
			"name":"MI_Dirt",
			"normalTexture":{
				"index":3
			},
			"pbrMetallicRoughness":{
				"baseColorTexture":{
					"index":4
				},
				"metallicRoughnessTexture":{
					"index":5
				}
			}
		}
	],
	"meshes":[
		{
			"name":"Cube.182",
			"primitives":[
				{
					"attributes":{
						"POSITION":0,
						"NORMAL":1,
						"TEXCOORD_0":2
					},
					"indices":3,
					"material":0
				}
			]
		},
		{
			"name":"Cube.127",
			"primitives":[
				{
					"attributes":{
						"POSITION":4,
						"NORMAL":5,
						"TEXCOORD_0":6,
						"TEXCOORD_1":7
					},
					"indices":8,
					"material":1
				},
				{
					"attributes":{
						"POSITION":9,
						"NORMAL":10,
						"TEXCOORD_0":11,
						"TEXCOORD_1":12
					},
					"indices":13,
					"material":2
				}
			]
		}
	],
	"textures":[
		{
			"sampler":0,
			"source":0
		},
		{
			"sampler":0,
			"source":1
		},
		{
			"sampler":0,
			"source":2
		},
		{
			"sampler":0,
			"source":3
		},
		{
			"sampler":0,
			"source":4
		},
		{
			"sampler":0,
			"source":5
		}
	],
	"images":[
		{
			"mimeType":"image/png",
			"name":"T_MetalConcrete_Normal",
			"uri":"../../materials/T_MetalConcrete_Normal.png"
		},
		{
			"mimeType":"image/png",
			"name":"T_MetalConcrete_BaseColor",
			"uri":"../../materials/T_MetalConcrete_BaseColor.png"
		},
		{
			"mimeType":"image/png",
			"name":"T_MetalConcrete_ORM",
			"uri":"../../materials/T_MetalConcrete_ORM.png"
		},
		{
			"mimeType":"image/png",
			"name":"T_Dirt_Normal",
			"uri":"../../materials/T_Dirt_Normal.png"
		},
		{
			"mimeType":"image/png",
			"name":"T_Dirt_BaseColor",
			"uri":"../../materials/T_Dirt_BaseColor.png"
		},
		{
			"mimeType":"image/png",
			"name":"T_Dirt_ORM",
			"uri":"../../materials/T_Dirt_ORM.png"
		}
	],
	"accessors":[
		{
			"bufferView":0,
			"componentType":5126,
			"count":36,
			"max":[
				1.0015614032745361,
				0.6000000238418579,
				0.49592286348342896
			],
			"min":[
				-0.998583197593689,
				0,
				-0.4895075559616089
			],
			"type":"VEC3"
		},
		{
			"bufferView":1,
			"componentType":5126,
			"count":36,
			"type":"VEC3"
		},
		{
			"bufferView":2,
			"componentType":5126,
			"count":36,
			"type":"VEC2"
		},
		{
			"bufferView":3,
			"componentType":5123,
			"count":60,
			"type":"SCALAR"
		},
		{
			"bufferView":4,
			"componentType":5126,
			"count":155,
			"max":[
				1,
				0.6000000238418579,
				0.49987339973449707
			],
			"min":[
				-1.000000238418579,
				0,
				-0.49987339973449707
			],
			"type":"VEC3"
		},
		{
			"bufferView":5,
			"componentType":5126,
			"count":155,
			"type":"VEC3"
		},
		{
			"bufferView":6,
			"componentType":5126,
			"count":155,
			"type":"VEC2"
		},
		{
			"bufferView":7,
			"componentType":5126,
			"count":155,
			"type":"VEC2"
		},
		{
			"bufferView":8,
			"componentType":5123,
			"count":267,
			"type":"SCALAR"
		},
		{
			"bufferView":9,
			"componentType":5126,
			"count":4,
			"max":[
				0.8249040842056274,
				0.5786258578300476,
				0.31642407178878784
			],
			"min":[
				-1,
				0.5786258578300476,
				-0.32357603311538696
			],
			"type":"VEC3"
		},
		{
			"bufferView":10,
			"componentType":5126,
			"count":4,
			"type":"VEC3"
		},
		{
			"bufferView":11,
			"componentType":5126,
			"count":4,
			"type":"VEC2"
		},
		{
			"bufferView":12,
			"componentType":5126,
			"count":4,
			"type":"VEC2"
		},
		{
			"bufferView":13,
			"componentType":5123,
			"count":6,
			"type":"SCALAR"
		}
	],
	"bufferViews":[
		{
			"buffer":0,
			"byteLength":432,
			"byteOffset":0,
			"target":34962
		},
		{
			"buffer":0,
			"byteLength":432,
			"byteOffset":432,
			"target":34962
		},
		{
			"buffer":0,
			"byteLength":288,
			"byteOffset":864,
			"target":34962
		},
		{
			"buffer":0,
			"byteLength":120,
			"byteOffset":1152,
			"target":34963
		},
		{
			"buffer":0,
			"byteLength":1860,
			"byteOffset":1272,
			"target":34962
		},
		{
			"buffer":0,
			"byteLength":1860,
			"byteOffset":3132,
			"target":34962
		},
		{
			"buffer":0,
			"byteLength":1240,
			"byteOffset":4992,
			"target":34962
		},
		{
			"buffer":0,
			"byteLength":1240,
			"byteOffset":6232,
			"target":34962
		},
		{
			"buffer":0,
			"byteLength":534,
			"byteOffset":7472,
			"target":34963
		},
		{
			"buffer":0,
			"byteLength":48,
			"byteOffset":8008,
			"target":34962
		},
		{
			"buffer":0,
			"byteLength":48,
			"byteOffset":8056,
			"target":34962
		},
		{
			"buffer":0,
			"byteLength":32,
			"byteOffset":8104,
			"target":34962
		},
		{
			"buffer":0,
			"byteLength":32,
			"byteOffset":8136,
			"target":34962
		},
		{
			"buffer":0,
			"byteLength":12,
			"byteOffset":8168,
			"target":34963
		}
	],
	"samplers":[
		{
			"magFilter":9729,
			"minFilter":9987
		}
	],
	"buffers":[
		{
			"byteLength":8180,
			"uri":"Prop_Planter_Small_Side_R.bin"
		}
	]
}
