{
	"asset":{
		"generator":"Khronos glTF Blender I/O v4.3.47",
		"version":"2.0"
	},
	"scene":0,
	"scenes":[
		{
			"name":"Scene",
			"nodes":[
				9
			]
		}
	],
	"nodes":[
		{
			"mesh":0,
			"name":"Prop_FireEscape_Top_01-convcolonly"
		},
		{
			"mesh":1,
			"name":"Prop_FireEscape_Top_02-convcolonly"
		},
		{
			"mesh":2,
			"name":"Prop_FireEscape_Top_03-convcolonly"
		},
		{
			"mesh":3,
			"name":"Prop_FireEscape_Top_04-convcolonly"
		},
		{
			"mesh":4,
			"name":"Prop_FireEscape_Top_05-convcolonly"
		},
		{
			"mesh":5,
			"name":"Prop_FireEscape_Top_06-convcolonly"
		},
		{
			"mesh":6,
			"name":"Prop_FireEscape_Top_07-convcolonly"
		},
		{
			"mesh":7,
			"name":"Prop_FireEscape_Top_08-convcolonly"
		},
		{
			"mesh":8,
			"name":"Prop_FireEscape_Top_09-convcolonly"
		},
		{
			"children":[
				0,
				1,
				2,
				3,
				4,
				5,
				6,
				7,
				8
			],
			"mesh":9,
			"name":"Prop_FireEscape_Top"
		}
	],
	"materials":[
		{
			"doubleSided":true,
			"name":"Collision",
			"pbrMetallicRoughness":{
				"baseColorFactor":[
					0.036788325756788254,
					0.5504099726676941,
					0.8000074625015259,
					1
				],
				"metallicFactor":0
			}
		},
		{
			"doubleSided":true,
			"name":"MI_Trim_MetalConcrete",
			"normalTexture":{
				"index":0
			},
			"pbrMetallicRoughness":{
				"baseColorTexture":{
					"index":1
				},
				"metallicRoughnessTexture":{
					"index":2
				}
			}
		}
	],
	"meshes":[
		{
			"name":"Cube.328",
			"primitives":[
				{
					"attributes":{
						"POSITION":0,
						"NORMAL":1,
						"TEXCOORD_0":2,
						"TEXCOORD_1":3
					},
					"indices":4,
					"material":0
				}
			]
		},
		{
			"name":"Cube.329",
			"primitives":[
				{
					"attributes":{
						"POSITION":5,
						"NORMAL":6,
						"TEXCOORD_0":7,
						"TEXCOORD_1":8
					},
					"indices":9,
					"material":0
				}
			]
		},
		{
			"name":"Cube.330",
			"primitives":[
				{
					"attributes":{
						"POSITION":10,
						"NORMAL":11,
						"TEXCOORD_0":12,
						"TEXCOORD_1":13
					},
					"indices":14,
					"material":0
				}
			]
		},
		{
			"name":"Cube.331",
			"primitives":[
				{
					"attributes":{
						"POSITION":15,
						"NORMAL":16,
						"TEXCOORD_0":17,
						"TEXCOORD_1":18
					},
					"indices":19,
					"material":0
				}
			]
		},
		{
			"name":"Cube.332",
			"primitives":[
				{
					"attributes":{
						"POSITION":20,
						"NORMAL":21,
						"TEXCOORD_0":22,
						"TEXCOORD_1":23
					},
					"indices":24,
					"material":0
				}
			]
		},
		{
			"name":"Cube.333",
			"primitives":[
				{
					"attributes":{
						"POSITION":25,
						"NORMAL":26,
						"TEXCOORD_0":27,
						"TEXCOORD_1":28
					},
					"indices":24,
					"material":0
				}
			]
		},
		{
			"name":"Cube.334",
			"primitives":[
				{
					"attributes":{
						"POSITION":29,
						"NORMAL":30,
						"TEXCOORD_0":31,
						"TEXCOORD_1":32
					},
					"indices":33,
					"material":0
				}
			]
		},
		{
			"name":"Cube.335",
			"primitives":[
				{
					"attributes":{
						"POSITION":34,
						"NORMAL":35,
						"TEXCOORD_0":36,
						"TEXCOORD_1":37
					},
					"indices":38,
					"material":0
				}
			]
		},
		{
			"name":"Cube.336",
			"primitives":[
				{
					"attributes":{
						"POSITION":39,
						"NORMAL":40,
						"TEXCOORD_0":41,
						"TEXCOORD_1":42
					},
					"indices":43,
					"material":0
				}
			]
		},
		{
			"name":"Plane.045",
			"primitives":[
				{
					"attributes":{
						"POSITION":44,
						"NORMAL":45,
						"TEXCOORD_0":46,
						"TEXCOORD_1":47
					},
					"indices":48,
					"material":1
				}
			]
		}
	],
	"textures":[
		{
			"sampler":0,
			"source":0
		},
		{
			"sampler":0,
			"source":1
		},
		{
			"sampler":0,
			"source":2
		}
	],
	"images":[
		{
			"mimeType":"image/png",
			"name":"T_MetalConcrete_Normal",
			"uri":"../../materials/T_MetalConcrete_Normal.png"
		},
		{
			"mimeType":"image/png",
			"name":"T_MetalConcrete_BaseColor",
			"uri":"../../materials/T_MetalConcrete_BaseColor.png"
		},
		{
			"mimeType":"image/png",
			"name":"T_MetalConcrete_ORM",
			"uri":"../../materials/T_MetalConcrete_ORM.png"
		}
	],
	"accessors":[
		{
			"bufferView":0,
			"componentType":5126,
			"count":40,
			"max":[
				2.3532235622406006,
				0.08689767867326736,
				1.9027074575424194
			],
			"min":[
				-2.357316255569458,
				-0.03421005606651306,
				0.9221910238265991
			],
			"type":"VEC3"
		},
		{
			"bufferView":1,
			"componentType":5126,
			"count":40,
			"type":"VEC3"
		},
		{
			"bufferView":2,
			"componentType":5126,
			"count":40,
			"type":"VEC2"
		},
		{
			"bufferView":3,
			"componentType":5126,
			"count":40,
			"type":"VEC2"
		},
		{
			"bufferView":4,
			"componentType":5123,
			"count":84,
			"type":"SCALAR"
		},
		{
			"bufferView":5,
			"componentType":5126,
			"count":24,
			"max":[
				-0.9791229367256165,
				0.08689767867326736,
				0.9221910238265991
			],
			"min":[
				-2.357316255569458,
				-0.03421005606651306,
				0.0028571700677275658
			],
			"type":"VEC3"
		},
		{
			"bufferView":6,
			"componentType":5126,
			"count":24,
			"type":"VEC3"
		},
		{
			"bufferView":7,
			"componentType":5126,
			"count":24,
			"type":"VEC2"
		},
		{
			"bufferView":8,
			"componentType":5126,
			"count":24,
			"type":"VEC2"
		},
		{
			"bufferView":9,
			"componentType":5123,
			"count":36,
			"type":"SCALAR"
		},
		{
			"bufferView":10,
			"componentType":5126,
			"count":24,
			"max":[
				2.3567054271698,
				0.08689767867326736,
				0.9236552715301514
			],
			"min":[
				0.9750288128852844,
				-0.03421005606651306,
				0.0028571700677275658
			],
			"type":"VEC3"
		},
		{
			"bufferView":11,
			"componentType":5126,
			"count":24,
			"type":"VEC3"
		},
		{
			"bufferView":12,
			"componentType":5126,
			"count":24,
			"type":"VEC2"
		},
		{
			"bufferView":13,
			"componentType":5126,
			"count":24,
			"type":"VEC2"
		},
		{
			"bufferView":14,
			"componentType":5123,
			"count":36,
			"type":"SCALAR"
		},
		{
			"bufferView":15,
			"componentType":5126,
			"count":24,
			"max":[
				2.3538875579833984,
				0.08874839544296265,
				0.08446718752384186
			],
			"min":[
				-2.3161110877990723,
				-0.03235933557152748,
				0.0030837287195026875
			],
			"type":"VEC3"
		},
		{
			"bufferView":16,
			"componentType":5126,
			"count":24,
			"type":"VEC3"
		},
		{
			"bufferView":17,
			"componentType":5126,
			"count":24,
			"type":"VEC2"
		},
		{
			"bufferView":18,
			"componentType":5126,
			"count":24,
			"type":"VEC2"
		},
		{
			"bufferView":19,
			"componentType":5123,
			"count":36,
			"type":"SCALAR"
		},
		{
			"bufferView":20,
			"componentType":5126,
			"count":24,
			"max":[
				-2.2379865646362305,
				1.2478519678115845,
				1.9002469778060913
			],
			"min":[
				-2.39215350151062,
				-0.03421005606651306,
				0.0028571700677275658
			],
			"type":"VEC3"
		},
		{
			"bufferView":21,
			"componentType":5126,
			"count":24,
			"type":"VEC3"
		},
		{
			"bufferView":22,
			"componentType":5126,
			"count":24,
			"type":"VEC2"
		},
		{
			"bufferView":23,
			"componentType":5126,
			"count":24,
			"type":"VEC2"
		},
		{
			"bufferView":24,
			"componentType":5123,
			"count":36,
			"type":"SCALAR"
		},
		{
			"bufferView":25,
			"componentType":5126,
			"count":24,
			"max":[
				2.402184247970581,
				1.2478519678115845,
				1.9002470970153809
			],
			"min":[
				2.2480170726776123,
				-0.034210026264190674,
				0.002857208251953125
			],
			"type":"VEC3"
		},
		{
			"bufferView":26,
			"componentType":5126,
			"count":24,
			"type":"VEC3"
		},
		{
			"bufferView":27,
			"componentType":5126,
			"count":24,
			"type":"VEC2"
		},
		{
			"bufferView":28,
			"componentType":5126,
			"count":24,
			"type":"VEC2"
		},
		{
			"bufferView":29,
			"componentType":5126,
			"count":24,
			"max":[
				2.3346452713012695,
				1.082680344581604,
				1.9470106363296509
			],
			"min":[
				-2.3275468349456787,
				-0.0342099666595459,
				1.8789101839065552
			],
			"type":"VEC3"
		},
		{
			"bufferView":30,
			"componentType":5126,
			"count":24,
			"type":"VEC3"
		},
		{
			"bufferView":31,
			"componentType":5126,
			"count":24,
			"type":"VEC2"
		},
		{
			"bufferView":32,
			"componentType":5126,
			"count":24,
			"type":"VEC2"
		},
		{
			"bufferView":33,
			"componentType":5123,
			"count":36,
			"type":"SCALAR"
		},
		{
			"bufferView":34,
			"componentType":5126,
			"count":24,
			"max":[
				2.3346452713012695,
				1.2476140260696411,
				1.901390552520752
			],
			"min":[
				-2.3275468349456787,
				1.2001395225524902,
				1.8100756406784058
			],
			"type":"VEC3"
		},
		{
			"bufferView":35,
			"componentType":5126,
			"count":24,
			"type":"VEC3"
		},
		{
			"bufferView":36,
			"componentType":5126,
			"count":24,
			"type":"VEC2"
		},
		{
			"bufferView":37,
			"componentType":5126,
			"count":24,
			"type":"VEC2"
		},
		{
			"bufferView":38,
			"componentType":5123,
			"count":36,
			"type":"SCALAR"
		},
		{
			"bufferView":39,
			"componentType":5126,
			"count":24,
			"max":[
				2.3346452713012695,
				1.2001395225524902,
				1.941327691078186
			],
			"min":[
				-2.3275468349456787,
				1.0753231048583984,
				1.8100756406784058
			],
			"type":"VEC3"
		},
		{
			"bufferView":40,
			"componentType":5126,
			"count":24,
			"type":"VEC3"
		},
		{
			"bufferView":41,
			"componentType":5126,
			"count":24,
			"type":"VEC2"
		},
		{
			"bufferView":42,
			"componentType":5126,
			"count":24,
			"type":"VEC2"
		},
		{
			"bufferView":43,
			"componentType":5123,
			"count":36,
			"type":"SCALAR"
		},
		{
			"bufferView":44,
			"componentType":5126,
			"count":2548,
			"max":[
				2.4006612300872803,
				1.2457332611083984,
				1.9445557594299316
			],
			"min":[
				-2.4006612300872803,
				-0.036416295915842056,
				-0.03115733712911606
			],
			"type":"VEC3"
		},
		{
			"bufferView":45,
			"componentType":5126,
			"count":2548,
			"type":"VEC3"
		},
		{
			"bufferView":46,
			"componentType":5126,
			"count":2548,
			"type":"VEC2"
		},
		{
			"bufferView":47,
			"componentType":5126,
			"count":2548,
			"type":"VEC2"
		},
		{
			"bufferView":48,
			"componentType":5123,
			"count":3840,
			"type":"SCALAR"
		}
	],
	"bufferViews":[
		{
			"buffer":0,
			"byteLength":480,
			"byteOffset":0,
			"target":34962
		},
		{
			"buffer":0,
			"byteLength":480,
			"byteOffset":480,
			"target":34962
		},
		{
			"buffer":0,
			"byteLength":320,
			"byteOffset":960,
			"target":34962
		},
		{
			"buffer":0,
			"byteLength":320,
			"byteOffset":1280,
			"target":34962
		},
		{
			"buffer":0,
			"byteLength":168,
			"byteOffset":1600,
			"target":34963
		},
		{
			"buffer":0,
			"byteLength":288,
			"byteOffset":1768,
			"target":34962
		},
		{
			"buffer":0,
			"byteLength":288,
			"byteOffset":2056,
			"target":34962
		},
		{
			"buffer":0,
			"byteLength":192,
			"byteOffset":2344,
			"target":34962
		},
		{
			"buffer":0,
			"byteLength":192,
			"byteOffset":2536,
			"target":34962
		},
		{
			"buffer":0,
			"byteLength":72,
			"byteOffset":2728,
			"target":34963
		},
		{
			"buffer":0,
			"byteLength":288,
			"byteOffset":2800,
			"target":34962
		},
		{
			"buffer":0,
			"byteLength":288,
			"byteOffset":3088,
			"target":34962
		},
		{
			"buffer":0,
			"byteLength":192,
			"byteOffset":3376,
			"target":34962
		},
		{
			"buffer":0,
			"byteLength":192,
			"byteOffset":3568,
			"target":34962
		},
		{
			"buffer":0,
			"byteLength":72,
			"byteOffset":3760,
			"target":34963
		},
		{
			"buffer":0,
			"byteLength":288,
			"byteOffset":3832,
			"target":34962
		},
		{
			"buffer":0,
			"byteLength":288,
			"byteOffset":4120,
			"target":34962
		},
		{
			"buffer":0,
			"byteLength":192,
			"byteOffset":4408,
			"target":34962
		},
		{
			"buffer":0,
			"byteLength":192,
			"byteOffset":4600,
			"target":34962
		},
		{
			"buffer":0,
			"byteLength":72,
			"byteOffset":4792,
			"target":34963
		},
		{
			"buffer":0,
			"byteLength":288,
			"byteOffset":4864,
			"target":34962
		},
		{
			"buffer":0,
			"byteLength":288,
			"byteOffset":5152,
			"target":34962
		},
		{
			"buffer":0,
			"byteLength":192,
			"byteOffset":5440,
			"target":34962
		},
		{
			"buffer":0,
			"byteLength":192,
			"byteOffset":5632,
			"target":34962
		},
		{
			"buffer":0,
			"byteLength":72,
			"byteOffset":5824,
			"target":34963
		},
		{
			"buffer":0,
			"byteLength":288,
			"byteOffset":5896,
			"target":34962
		},
		{
			"buffer":0,
			"byteLength":288,
			"byteOffset":6184,
			"target":34962
		},
		{
			"buffer":0,
			"byteLength":192,
			"byteOffset":6472,
			"target":34962
		},
		{
			"buffer":0,
			"byteLength":192,
			"byteOffset":6664,
			"target":34962
		},
		{
			"buffer":0,
			"byteLength":288,
			"byteOffset":6856,
			"target":34962
		},
		{
			"buffer":0,
			"byteLength":288,
			"byteOffset":7144,
			"target":34962
		},
		{
			"buffer":0,
			"byteLength":192,
			"byteOffset":7432,
			"target":34962
		},
		{
			"buffer":0,
			"byteLength":192,
			"byteOffset":7624,
			"target":34962
		},
		{
			"buffer":0,
			"byteLength":72,
			"byteOffset":7816,
			"target":34963
		},
		{
			"buffer":0,
			"byteLength":288,
			"byteOffset":7888,
			"target":34962
		},
		{
			"buffer":0,
			"byteLength":288,
			"byteOffset":8176,
			"target":34962
		},
		{
			"buffer":0,
			"byteLength":192,
			"byteOffset":8464,
			"target":34962
		},
		{
			"buffer":0,
			"byteLength":192,
			"byteOffset":8656,
			"target":34962
		},
		{
			"buffer":0,
			"byteLength":72,
			"byteOffset":8848,
			"target":34963
		},
		{
			"buffer":0,
			"byteLength":288,
			"byteOffset":8920,
			"target":34962
		},
		{
			"buffer":0,
			"byteLength":288,
			"byteOffset":9208,
			"target":34962
		},
		{
			"buffer":0,
			"byteLength":192,
			"byteOffset":9496,
			"target":34962
		},
		{
			"buffer":0,
			"byteLength":192,
			"byteOffset":9688,
			"target":34962
		},
		{
			"buffer":0,
			"byteLength":72,
			"byteOffset":9880,
			"target":34963
		},
		{
			"buffer":0,
			"byteLength":30576,
			"byteOffset":9952,
			"target":34962
		},
		{
			"buffer":0,
			"byteLength":30576,
			"byteOffset":40528,
			"target":34962
		},
		{
			"buffer":0,
			"byteLength":20384,
			"byteOffset":71104,
			"target":34962
		},
		{
			"buffer":0,
			"byteLength":20384,
			"byteOffset":91488,
			"target":34962
		},
		{
			"buffer":0,
			"byteLength":7680,
			"byteOffset":111872,
			"target":34963
		}
	],
	"samplers":[
		{
			"magFilter":9729,
			"minFilter":9987
		}
	],
	"buffers":[
		{
			"byteLength":119552,
			"uri":"Prop_FireEscape_Top.bin"
		}
	]
}
