{
	"asset":{
		"generator":"Khronos glTF Blender I/O v4.3.47",
		"version":"2.0"
	},
	"scene":0,
	"scenes":[
		{
			"name":"Scene",
			"nodes":[
				3
			]
		}
	],
	"nodes":[
		{
			"mesh":0,
			"name":"Prop_Column_Trim_1-convcolonly"
		},
		{
			"mesh":1,
			"name":"Prop_Column_Trim_2-convcolonly"
		},
		{
			"mesh":2,
			"name":"Prop_Column_Trim_3-convcolonly"
		},
		{
			"children":[
				0,
				1,
				2
			],
			"mesh":3,
			"name":"Prop_Column_Trim"
		}
	],
	"materials":[
		{
			"doubleSided":true,
			"name":"Collision",
			"pbrMetallicRoughness":{
				"baseColorFactor":[
					0.036788325756788254,
					0.5504099726676941,
					0.8000074625015259,
					1
				],
				"metallicFactor":0
			}
		},
		{
			"doubleSided":true,
			"name":"MI_Trim",
			"normalTexture":{
				"index":0
			},
			"pbrMetallicRoughness":{
				"baseColorTexture":{
					"index":1
				},
				"metallicRoughnessTexture":{
					"index":2
				}
			}
		}
	],
	"meshes":[
		{
			"name":"Cube.457",
			"primitives":[
				{
					"attributes":{
						"POSITION":0,
						"NORMAL":1,
						"TEXCOORD_0":2
					},
					"indices":3,
					"material":0
				}
			]
		},
		{
			"name":"Cylinder.001",
			"primitives":[
				{
					"attributes":{
						"POSITION":4,
						"NORMAL":5,
						"TEXCOORD_0":6
					},
					"indices":7,
					"material":0
				}
			]
		},
		{
			"name":"Cube.458",
			"primitives":[
				{
					"attributes":{
						"POSITION":8,
						"NORMAL":9,
						"TEXCOORD_0":10
					},
					"indices":11,
					"material":0
				}
			]
		},
		{
			"name":"Cube.107",
			"primitives":[
				{
					"attributes":{
						"POSITION":12,
						"NORMAL":13,
						"TEXCOORD_0":14,
						"TEXCOORD_1":15,
						"COLOR_0":16,
						"COLOR_1":17
					},
					"indices":18,
					"material":1
				}
			]
		}
	],
	"textures":[
		{
			"sampler":0,
			"source":0
		},
		{
			"sampler":0,
			"source":1
		},
		{
			"sampler":0,
			"source":2
		}
	],
	"images":[
		{
			"mimeType":"image/png",
			"name":"T_Trim_Normal",
			"uri":"../../materials/T_Trim_Normal.png"
		},
		{
			"mimeType":"image/png",
			"name":"T_Trim_BaseColor",
			"uri":"../../materials/T_Trim_BaseColor.png"
		},
		{
			"mimeType":"image/png",
			"name":"T_Trim_ORM",
			"uri":"../../materials/T_Trim_ORM.png"
		}
	],
	"accessors":[
		{
			"bufferView":0,
			"componentType":5126,
			"count":40,
			"max":[
				0.2791973948478699,
				0.15084286034107208,
				0.2791973948478699
			],
			"min":[
				-0.2791973948478699,
				0,
				-0.2791973948478699
			],
			"type":"VEC3"
		},
		{
			"bufferView":1,
			"componentType":5126,
			"count":40,
			"type":"VEC3"
		},
		{
			"bufferView":2,
			"componentType":5126,
			"count":40,
			"type":"VEC2"
		},
		{
			"bufferView":3,
			"componentType":5123,
			"count":60,
			"type":"SCALAR"
		},
		{
			"bufferView":4,
			"componentType":5126,
			"count":48,
			"max":[
				0.20879490673542023,
				2.8893160820007324,
				0.20879490673542023
			],
			"min":[
				-0.20879490673542023,
				0,
				-0.20879490673542023
			],
			"type":"VEC3"
		},
		{
			"bufferView":5,
			"componentType":5126,
			"count":48,
			"type":"VEC3"
		},
		{
			"bufferView":6,
			"componentType":5126,
			"count":48,
			"type":"VEC2"
		},
		{
			"bufferView":7,
			"componentType":5123,
			"count":84,
			"type":"SCALAR"
		},
		{
			"bufferView":8,
			"componentType":5126,
			"count":40,
			"max":[
				0.21425528824329376,
				2.976867437362671,
				0.21425528824329376
			],
			"min":[
				-0.21425528824329376,
				2.890871286392212,
				-0.21425528824329376
			],
			"type":"VEC3"
		},
		{
			"bufferView":9,
			"componentType":5126,
			"count":40,
			"type":"VEC3"
		},
		{
			"bufferView":10,
			"componentType":5126,
			"count":40,
			"type":"VEC2"
		},
		{
			"bufferView":11,
			"componentType":5123,
			"count":60,
			"type":"SCALAR"
		},
		{
			"bufferView":12,
			"componentType":5126,
			"count":701,
			"max":[
				0.27146297693252563,
				2.976278781890869,
				0.2769604027271271
			],
			"min":[
				-0.2714895009994507,
				0,
				-0.27696043252944946
			],
			"type":"VEC3"
		},
		{
			"bufferView":13,
			"componentType":5126,
			"count":701,
			"type":"VEC3"
		},
		{
			"bufferView":14,
			"componentType":5126,
			"count":701,
			"type":"VEC2"
		},
		{
			"bufferView":15,
			"componentType":5126,
			"count":701,
			"type":"VEC2"
		},
		{
			"bufferView":16,
			"componentType":5121,
			"count":701,
			"normalized":true,
			"type":"VEC4"
		},
		{
			"bufferView":17,
			"componentType":5123,
			"count":701,
			"normalized":true,
			"type":"VEC4"
		},
		{
			"bufferView":18,
			"componentType":5123,
			"count":2208,
			"type":"SCALAR"
		}
	],
	"bufferViews":[
		{
			"buffer":0,
			"byteLength":480,
			"byteOffset":0,
			"target":34962
		},
		{
			"buffer":0,
			"byteLength":480,
			"byteOffset":480,
			"target":34962
		},
		{
			"buffer":0,
			"byteLength":320,
			"byteOffset":960,
			"target":34962
		},
		{
			"buffer":0,
			"byteLength":120,
			"byteOffset":1280,
			"target":34963
		},
		{
			"buffer":0,
			"byteLength":576,
			"byteOffset":1400,
			"target":34962
		},
		{
			"buffer":0,
			"byteLength":576,
			"byteOffset":1976,
			"target":34962
		},
		{
			"buffer":0,
			"byteLength":384,
			"byteOffset":2552,
			"target":34962
		},
		{
			"buffer":0,
			"byteLength":168,
			"byteOffset":2936,
			"target":34963
		},
		{
			"buffer":0,
			"byteLength":480,
			"byteOffset":3104,
			"target":34962
		},
		{
			"buffer":0,
			"byteLength":480,
			"byteOffset":3584,
			"target":34962
		},
		{
			"buffer":0,
			"byteLength":320,
			"byteOffset":4064,
			"target":34962
		},
		{
			"buffer":0,
			"byteLength":120,
			"byteOffset":4384,
			"target":34963
		},
		{
			"buffer":0,
			"byteLength":8412,
			"byteOffset":4504,
			"target":34962
		},
		{
			"buffer":0,
			"byteLength":8412,
			"byteOffset":12916,
			"target":34962
		},
		{
			"buffer":0,
			"byteLength":5608,
			"byteOffset":21328,
			"target":34962
		},
		{
			"buffer":0,
			"byteLength":5608,
			"byteOffset":26936,
			"target":34962
		},
		{
			"buffer":0,
			"byteLength":2804,
			"byteOffset":32544,
			"target":34962
		},
		{
			"buffer":0,
			"byteLength":5608,
			"byteOffset":35348,
			"target":34962
		},
		{
			"buffer":0,
			"byteLength":4416,
			"byteOffset":40956,
			"target":34963
		}
	],
	"samplers":[
		{
			"magFilter":9729,
			"minFilter":9987
		}
	],
	"buffers":[
		{
			"byteLength":45372,
			"uri":"Prop_Column_Trim.bin"
		}
	]
}
