{
	"asset":{
		"generator":"Khronos glTF Blender I/O v4.3.47",
		"version":"2.0"
	},
	"scene":0,
	"scenes":[
		{
			"name":"Scene",
			"nodes":[
				2
			]
		}
	],
	"nodes":[
		{
			"mesh":0,
			"name":"Prop_Sign_Carmines_Side_1-convcolonly"
		},
		{
			"mesh":1,
			"name":"Prop_Sign_Carmines_Side_2-convcolonly"
		},
		{
			"children":[
				0,
				1
			],
			"mesh":2,
			"name":"Prop_Sign_Carmines_Side"
		}
	],
	"materials":[
		{
			"doubleSided":true,
			"name":"Collision",
			"pbrMetallicRoughness":{
				"baseColorFactor":[
					0.036788325756788254,
					0.5504099726676941,
					0.8000074625015259,
					1
				],
				"metallicFactor":0
			}
		},
		{
			"doubleSided":true,
			"name":"MI_Shop_Signs",
			"normalTexture":{
				"index":0
			},
			"pbrMetallicRoughness":{
				"baseColorTexture":{
					"index":1
				},
				"metallicFactor":0
			}
		},
		{
			"doubleSided":true,
			"name":"MI_Trim_MetalConcrete",
			"normalTexture":{
				"index":2
			},
			"pbrMetallicRoughness":{
				"baseColorTexture":{
					"index":3
				},
				"metallicRoughnessTexture":{
					"index":4
				}
			}
		}
	],
	"meshes":[
		{
			"name":"Cube.266",
			"primitives":[
				{
					"attributes":{
						"POSITION":0,
						"NORMAL":1,
						"TEXCOORD_0":2
					},
					"indices":3,
					"material":0
				}
			]
		},
		{
			"name":"Cube.267",
			"primitives":[
				{
					"attributes":{
						"POSITION":4,
						"NORMAL":5,
						"TEXCOORD_0":6
					},
					"indices":7,
					"material":0
				}
			]
		},
		{
			"name":"Plane.096",
			"primitives":[
				{
					"attributes":{
						"POSITION":8,
						"NORMAL":9,
						"TEXCOORD_0":10,
						"TEXCOORD_1":11,
						"COLOR_0":12
					},
					"indices":13,
					"material":1
				},
				{
					"attributes":{
						"POSITION":14,
						"NORMAL":15,
						"TEXCOORD_0":16,
						"TEXCOORD_1":17,
						"COLOR_0":18
					},
					"indices":19,
					"material":2
				}
			]
		}
	],
	"textures":[
		{
			"sampler":0,
			"source":0
		},
		{
			"sampler":0,
			"source":1
		},
		{
			"sampler":0,
			"source":2
		},
		{
			"sampler":0,
			"source":3
		},
		{
			"sampler":0,
			"source":4
		}
	],
	"images":[
		{
			"mimeType":"image/png",
			"name":"T_Shop_Signs_Normal",
			"uri":"../../materials/T_Shop_Signs_Normal.png"
		},
		{
			"mimeType":"image/png",
			"name":"T_Shop_Signs_BaseColor",
			"uri":"../../materials/T_Shop_Signs_BaseColor.png"
		},
		{
			"mimeType":"image/png",
			"name":"T_MetalConcrete_Normal",
			"uri":"../../materials/T_MetalConcrete_Normal.png"
		},
		{
			"mimeType":"image/png",
			"name":"T_MetalConcrete_BaseColor",
			"uri":"../../materials/T_MetalConcrete_BaseColor.png"
		},
		{
			"mimeType":"image/png",
			"name":"T_MetalConcrete_ORM",
			"uri":"../../materials/T_MetalConcrete_ORM.png"
		}
	],
	"accessors":[
		{
			"bufferView":0,
			"componentType":5126,
			"count":24,
			"max":[
				0.164723202586174,
				1.0370862483978271,
				2.354578971862793
			],
			"min":[
				-0.00832529366016388,
				-0.9191151857376099,
				0.6342480182647705
			],
			"type":"VEC3"
		},
		{
			"bufferView":1,
			"componentType":5126,
			"count":24,
			"type":"VEC3"
		},
		{
			"bufferView":2,
			"componentType":5126,
			"count":24,
			"type":"VEC2"
		},
		{
			"bufferView":3,
			"componentType":5123,
			"count":36,
			"type":"SCALAR"
		},
		{
			"bufferView":4,
			"componentType":5126,
			"count":24,
			"max":[
				0.10890606045722961,
				1.1773101091384888,
				2.3231358528137207
			],
			"min":[
				0.03055398166179657,
				1.0370862483978271,
				0.0169450044631958
			],
			"type":"VEC3"
		},
		{
			"bufferView":5,
			"componentType":5126,
			"count":24,
			"type":"VEC3"
		},
		{
			"bufferView":6,
			"componentType":5126,
			"count":24,
			"type":"VEC2"
		},
		{
			"bufferView":7,
			"componentType":5123,
			"count":36,
			"type":"SCALAR"
		},
		{
			"bufferView":8,
			"componentType":5126,
			"count":8,
			"max":[
				0.15609315037727356,
				0.818108320236206,
				2.243540048599243
			],
			"min":[
				0.0010189006570726633,
				-0.8181084394454956,
				0.7536858320236206
			],
			"type":"VEC3"
		},
		{
			"bufferView":9,
			"componentType":5126,
			"count":8,
			"type":"VEC3"
		},
		{
			"bufferView":10,
			"componentType":5126,
			"count":8,
			"type":"VEC2"
		},
		{
			"bufferView":11,
			"componentType":5126,
			"count":8,
			"type":"VEC2"
		},
		{
			"bufferView":12,
			"componentType":5123,
			"count":8,
			"normalized":true,
			"type":"VEC4"
		},
		{
			"bufferView":13,
			"componentType":5123,
			"count":12,
			"type":"SCALAR"
		},
		{
			"bufferView":14,
			"componentType":5126,
			"count":144,
			"max":[
				0.1638634204864502,
				1.2133201360702515,
				2.3492050170898438
			],
			"min":[
				-0.025151649489998817,
				-0.8996385335922241,
				-0.005009210202842951
			],
			"type":"VEC3"
		},
		{
			"bufferView":15,
			"componentType":5126,
			"count":144,
			"type":"VEC3"
		},
		{
			"bufferView":16,
			"componentType":5126,
			"count":144,
			"type":"VEC2"
		},
		{
			"bufferView":17,
			"componentType":5126,
			"count":144,
			"type":"VEC2"
		},
		{
			"bufferView":18,
			"componentType":5123,
			"count":144,
			"normalized":true,
			"type":"VEC4"
		},
		{
			"bufferView":19,
			"componentType":5123,
			"count":216,
			"type":"SCALAR"
		}
	],
	"bufferViews":[
		{
			"buffer":0,
			"byteLength":288,
			"byteOffset":0,
			"target":34962
		},
		{
			"buffer":0,
			"byteLength":288,
			"byteOffset":288,
			"target":34962
		},
		{
			"buffer":0,
			"byteLength":192,
			"byteOffset":576,
			"target":34962
		},
		{
			"buffer":0,
			"byteLength":72,
			"byteOffset":768,
			"target":34963
		},
		{
			"buffer":0,
			"byteLength":288,
			"byteOffset":840,
			"target":34962
		},
		{
			"buffer":0,
			"byteLength":288,
			"byteOffset":1128,
			"target":34962
		},
		{
			"buffer":0,
			"byteLength":192,
			"byteOffset":1416,
			"target":34962
		},
		{
			"buffer":0,
			"byteLength":72,
			"byteOffset":1608,
			"target":34963
		},
		{
			"buffer":0,
			"byteLength":96,
			"byteOffset":1680,
			"target":34962
		},
		{
			"buffer":0,
			"byteLength":96,
			"byteOffset":1776,
			"target":34962
		},
		{
			"buffer":0,
			"byteLength":64,
			"byteOffset":1872,
			"target":34962
		},
		{
			"buffer":0,
			"byteLength":64,
			"byteOffset":1936,
			"target":34962
		},
		{
			"buffer":0,
			"byteLength":64,
			"byteOffset":2000,
			"target":34962
		},
		{
			"buffer":0,
			"byteLength":24,
			"byteOffset":2064,
			"target":34963
		},
		{
			"buffer":0,
			"byteLength":1728,
			"byteOffset":2088,
			"target":34962
		},
		{
			"buffer":0,
			"byteLength":1728,
			"byteOffset":3816,
			"target":34962
		},
		{
			"buffer":0,
			"byteLength":1152,
			"byteOffset":5544,
			"target":34962
		},
		{
			"buffer":0,
			"byteLength":1152,
			"byteOffset":6696,
			"target":34962
		},
		{
			"buffer":0,
			"byteLength":1152,
			"byteOffset":7848,
			"target":34962
		},
		{
			"buffer":0,
			"byteLength":432,
			"byteOffset":9000,
			"target":34963
		}
	],
	"samplers":[
		{
			"magFilter":9729,
			"minFilter":9987
		}
	],
	"buffers":[
		{
			"byteLength":9432,
			"uri":"Prop_Sign_Carmines_Side.bin"
		}
	]
}
