{
	"asset":{
		"generator":"Khronos glTF Blender I/O v4.3.47",
		"version":"2.0"
	},
	"scene":0,
	"scenes":[
		{
			"name":"Scene",
			"nodes":[
				2
			]
		}
	],
	"nodes":[
		{
			"mesh":0,
			"name":"Prop_Sign_HW_Side_L_1-convcolonly"
		},
		{
			"mesh":1,
			"name":"Prop_Sign_HW_Side_L_2-convcolonly"
		},
		{
			"children":[
				0,
				1
			],
			"mesh":2,
			"name":"Prop_Sign_HW_Side_L"
		}
	],
	"materials":[
		{
			"doubleSided":true,
			"name":"Collision",
			"pbrMetallicRoughness":{
				"baseColorFactor":[
					0.036788325756788254,
					0.5504099726676941,
					0.8000074625015259,
					1
				],
				"metallicFactor":0
			}
		},
		{
			"doubleSided":true,
			"name":"MI_Shop_Signs",
			"normalTexture":{
				"index":0
			},
			"pbrMetallicRoughness":{
				"baseColorTexture":{
					"index":1
				},
				"metallicFactor":0
			}
		},
		{
			"doubleSided":true,
			"name":"MI_Trim_MetalConcrete",
			"normalTexture":{
				"index":2
			},
			"pbrMetallicRoughness":{
				"baseColorTexture":{
					"index":3
				},
				"metallicRoughnessTexture":{
					"index":4
				}
			}
		}
	],
	"meshes":[
		{
			"name":"Cube.056",
			"primitives":[
				{
					"attributes":{
						"POSITION":0,
						"NORMAL":1,
						"TEXCOORD_0":2
					},
					"indices":3,
					"material":0
				}
			]
		},
		{
			"name":"Cube.060",
			"primitives":[
				{
					"attributes":{
						"POSITION":4,
						"NORMAL":5,
						"TEXCOORD_0":6
					},
					"indices":7,
					"material":0
				}
			]
		},
		{
			"name":"Plane.087",
			"primitives":[
				{
					"attributes":{
						"POSITION":8,
						"NORMAL":9,
						"TEXCOORD_0":10,
						"TEXCOORD_1":11,
						"COLOR_0":12,
						"COLOR_1":13
					},
					"indices":14,
					"material":1
				},
				{
					"attributes":{
						"POSITION":15,
						"NORMAL":16,
						"TEXCOORD_0":17,
						"TEXCOORD_1":18,
						"COLOR_0":19,
						"COLOR_1":20
					},
					"indices":21,
					"material":2
				}
			]
		}
	],
	"textures":[
		{
			"sampler":0,
			"source":0
		},
		{
			"sampler":0,
			"source":1
		},
		{
			"sampler":0,
			"source":2
		},
		{
			"sampler":0,
			"source":3
		},
		{
			"sampler":0,
			"source":4
		}
	],
	"images":[
		{
			"mimeType":"image/png",
			"name":"T_Shop_Signs_Normal",
			"uri":"../../materials/T_Shop_Signs_Normal.png"
		},
		{
			"mimeType":"image/png",
			"name":"T_Shop_Signs_BaseColor",
			"uri":"../../materials/T_Shop_Signs_BaseColor.png"
		},
		{
			"mimeType":"image/png",
			"name":"T_MetalConcrete_Normal",
			"uri":"../../materials/T_MetalConcrete_Normal.png"
		},
		{
			"mimeType":"image/png",
			"name":"T_MetalConcrete_BaseColor",
			"uri":"../../materials/T_MetalConcrete_BaseColor.png"
		},
		{
			"mimeType":"image/png",
			"name":"T_MetalConcrete_ORM",
			"uri":"../../materials/T_MetalConcrete_ORM.png"
		}
	],
	"accessors":[
		{
			"bufferView":0,
			"componentType":5126,
			"count":24,
			"max":[
				0.0007732398808002472,
				1.1790797710418701,
				1.5726006031036377
			],
			"min":[
				-0.12582698464393616,
				-0.00637488067150116,
				0.45220598578453064
			],
			"type":"VEC3"
		},
		{
			"bufferView":1,
			"componentType":5126,
			"count":24,
			"type":"VEC3"
		},
		{
			"bufferView":2,
			"componentType":5126,
			"count":24,
			"type":"VEC2"
		},
		{
			"bufferView":3,
			"componentType":5123,
			"count":36,
			"type":"SCALAR"
		},
		{
			"bufferView":4,
			"componentType":5126,
			"count":24,
			"max":[
				0.028368426486849785,
				0.9532430768013,
				1.0465842485427856
			],
			"min":[
				-0.011361287906765938,
				0.2882123589515686,
				0.014363408088684082
			],
			"type":"VEC3"
		},
		{
			"bufferView":5,
			"componentType":5126,
			"count":24,
			"type":"VEC3"
		},
		{
			"bufferView":6,
			"componentType":5126,
			"count":24,
			"type":"VEC2"
		},
		{
			"bufferView":7,
			"componentType":5123,
			"count":36,
			"type":"SCALAR"
		},
		{
			"bufferView":8,
			"componentType":5126,
			"count":4,
			"max":[
				-0.10225699096918106,
				1.1253011226654053,
				1.4978948831558228
			],
			"min":[
				-0.10225719213485718,
				0.05341063067317009,
				0.5218871235847473
			],
			"type":"VEC3"
		},
		{
			"bufferView":9,
			"componentType":5126,
			"count":4,
			"type":"VEC3"
		},
		{
			"bufferView":10,
			"componentType":5126,
			"count":4,
			"type":"VEC2"
		},
		{
			"bufferView":11,
			"componentType":5126,
			"count":4,
			"type":"VEC2"
		},
		{
			"bufferView":12,
			"componentType":5123,
			"count":4,
			"normalized":true,
			"type":"VEC4"
		},
		{
			"bufferView":13,
			"componentType":5123,
			"count":4,
			"normalized":true,
			"type":"VEC4"
		},
		{
			"bufferView":14,
			"componentType":5123,
			"count":6,
			"type":"SCALAR"
		},
		{
			"bufferView":15,
			"componentType":5126,
			"count":180,
			"max":[
				0.049246229231357574,
				1.34928297996521,
				1.567116379737854
			],
			"min":[
				-0.10359195619821548,
				0,
				-0.0031532645225524902
			],
			"type":"VEC3"
		},
		{
			"bufferView":16,
			"componentType":5126,
			"count":180,
			"type":"VEC3"
		},
		{
			"bufferView":17,
			"componentType":5126,
			"count":180,
			"type":"VEC2"
		},
		{
			"bufferView":18,
			"componentType":5126,
			"count":180,
			"type":"VEC2"
		},
		{
			"bufferView":19,
			"componentType":5123,
			"count":180,
			"normalized":true,
			"type":"VEC4"
		},
		{
			"bufferView":20,
			"componentType":5123,
			"count":180,
			"normalized":true,
			"type":"VEC4"
		},
		{
			"bufferView":21,
			"componentType":5123,
			"count":270,
			"type":"SCALAR"
		}
	],
	"bufferViews":[
		{
			"buffer":0,
			"byteLength":288,
			"byteOffset":0,
			"target":34962
		},
		{
			"buffer":0,
			"byteLength":288,
			"byteOffset":288,
			"target":34962
		},
		{
			"buffer":0,
			"byteLength":192,
			"byteOffset":576,
			"target":34962
		},
		{
			"buffer":0,
			"byteLength":72,
			"byteOffset":768,
			"target":34963
		},
		{
			"buffer":0,
			"byteLength":288,
			"byteOffset":840,
			"target":34962
		},
		{
			"buffer":0,
			"byteLength":288,
			"byteOffset":1128,
			"target":34962
		},
		{
			"buffer":0,
			"byteLength":192,
			"byteOffset":1416,
			"target":34962
		},
		{
			"buffer":0,
			"byteLength":72,
			"byteOffset":1608,
			"target":34963
		},
		{
			"buffer":0,
			"byteLength":48,
			"byteOffset":1680,
			"target":34962
		},
		{
			"buffer":0,
			"byteLength":48,
			"byteOffset":1728,
			"target":34962
		},
		{
			"buffer":0,
			"byteLength":32,
			"byteOffset":1776,
			"target":34962
		},
		{
			"buffer":0,
			"byteLength":32,
			"byteOffset":1808,
			"target":34962
		},
		{
			"buffer":0,
			"byteLength":32,
			"byteOffset":1840,
			"target":34962
		},
		{
			"buffer":0,
			"byteLength":32,
			"byteOffset":1872,
			"target":34962
		},
		{
			"buffer":0,
			"byteLength":12,
			"byteOffset":1904,
			"target":34963
		},
		{
			"buffer":0,
			"byteLength":2160,
			"byteOffset":1916,
			"target":34962
		},
		{
			"buffer":0,
			"byteLength":2160,
			"byteOffset":4076,
			"target":34962
		},
		{
			"buffer":0,
			"byteLength":1440,
			"byteOffset":6236,
			"target":34962
		},
		{
			"buffer":0,
			"byteLength":1440,
			"byteOffset":7676,
			"target":34962
		},
		{
			"buffer":0,
			"byteLength":1440,
			"byteOffset":9116,
			"target":34962
		},
		{
			"buffer":0,
			"byteLength":1440,
			"byteOffset":10556,
			"target":34962
		},
		{
			"buffer":0,
			"byteLength":540,
			"byteOffset":11996,
			"target":34963
		}
	],
	"samplers":[
		{
			"magFilter":9729,
			"minFilter":9987
		}
	],
	"buffers":[
		{
			"byteLength":12536,
			"uri":"Prop_Sign_HW_Side_L.bin"
		}
	]
}
