{
	"asset":{
		"generator":"Khronos glTF Blender I/O v4.3.47",
		"version":"2.0"
	},
	"scene":0,
	"scenes":[
		{
			"name":"Scene",
			"nodes":[
				3
			]
		}
	],
	"nodes":[
		{
			"mesh":0,
			"name":"Roof_Slate_Window_1_01-convcolonly"
		},
		{
			"mesh":1,
			"name":"Roof_Slate_Window_1_02-convcolonly"
		},
		{
			"mesh":2,
			"name":"Roof_Slate_Window_1_03-convcolonly"
		},
		{
			"children":[
				0,
				1,
				2
			],
			"mesh":3,
			"name":"Roof_Slate_Window_1"
		}
	],
	"materials":[
		{
			"doubleSided":true,
			"name":"Collision",
			"pbrMetallicRoughness":{
				"baseColorFactor":[
					0.036788325756788254,
					0.5504099726676941,
					0.8000074625015259,
					1
				],
				"metallicFactor":0
			}
		},
		{
			"doubleSided":true,
			"name":"MI_Roof_Slate",
			"normalTexture":{
				"index":0
			},
			"pbrMetallicRoughness":{
				"baseColorTexture":{
					"index":1
				},
				"metallicRoughnessTexture":{
					"index":2
				}
			}
		},
		{
			"doubleSided":true,
			"name":"MI_Trim",
			"normalTexture":{
				"index":3
			},
			"pbrMetallicRoughness":{
				"baseColorTexture":{
					"index":4
				},
				"metallicRoughnessTexture":{
					"index":5
				}
			}
		},
		{
			"alphaMode":"BLEND",
			"doubleSided":true,
			"name":"MI_Glass",
			"pbrMetallicRoughness":{
				"baseColorFactor":[
					0.05215025693178177,
					0.05215025693178177,
					0.05215025693178177,
					0.586363673210144
				],
				"metallicFactor":0,
				"roughnessFactor":0.5
			}
		},
		{
			"doubleSided":true,
			"name":"MI_FakeInterior",
			"pbrMetallicRoughness":{
				"baseColorFactor":[
					0.800000011920929,
					0.800000011920929,
					0.800000011920929,
					1
				],
				"metallicFactor":0,
				"roughnessFactor":0.5
			}
		},
		{
			"doubleSided":true,
			"name":"MI_Trim_MetalConcrete",
			"normalTexture":{
				"index":6
			},
			"pbrMetallicRoughness":{
				"baseColorTexture":{
					"index":7
				},
				"metallicRoughnessTexture":{
					"index":8
				}
			}
		}
	],
	"meshes":[
		{
			"name":"Cube.813",
			"primitives":[
				{
					"attributes":{
						"POSITION":0,
						"NORMAL":1,
						"TEXCOORD_0":2,
						"TEXCOORD_1":3,
						"COLOR_0":4,
						"COLOR_1":5
					},
					"indices":6,
					"material":0
				}
			]
		},
		{
			"name":"Cube.814",
			"primitives":[
				{
					"attributes":{
						"POSITION":7,
						"NORMAL":8,
						"TEXCOORD_0":9,
						"TEXCOORD_1":10,
						"COLOR_0":11,
						"COLOR_1":12
					},
					"indices":13,
					"material":0
				}
			]
		},
		{
			"name":"Cube.815",
			"primitives":[
				{
					"attributes":{
						"POSITION":14,
						"NORMAL":15,
						"TEXCOORD_0":16
					},
					"indices":17,
					"material":0
				}
			]
		},
		{
			"name":"Plane.050",
			"primitives":[
				{
					"attributes":{
						"POSITION":18,
						"NORMAL":19,
						"TEXCOORD_0":20,
						"TEXCOORD_1":21
					},
					"indices":22,
					"material":1
				},
				{
					"attributes":{
						"POSITION":23,
						"NORMAL":24,
						"TEXCOORD_0":25,
						"TEXCOORD_1":26
					},
					"indices":27,
					"material":2
				},
				{
					"attributes":{
						"POSITION":28,
						"NORMAL":29,
						"TEXCOORD_0":30,
						"TEXCOORD_1":31
					},
					"indices":32,
					"material":3
				},
				{
					"attributes":{
						"POSITION":33,
						"NORMAL":34,
						"TEXCOORD_0":35,
						"TEXCOORD_1":36
					},
					"indices":37,
					"material":4
				},
				{
					"attributes":{
						"POSITION":38,
						"NORMAL":39,
						"TEXCOORD_0":40,
						"TEXCOORD_1":41
					},
					"indices":42,
					"material":5
				}
			]
		}
	],
	"textures":[
		{
			"sampler":0,
			"source":0
		},
		{
			"sampler":0,
			"source":1
		},
		{
			"sampler":0,
			"source":2
		},
		{
			"sampler":0,
			"source":3
		},
		{
			"sampler":0,
			"source":4
		},
		{
			"sampler":0,
			"source":5
		},
		{
			"sampler":0,
			"source":6
		},
		{
			"sampler":0,
			"source":7
		},
		{
			"sampler":0,
			"source":8
		}
	],
	"images":[
		{
			"mimeType":"image/png",
			"name":"T_RoofSlate_Normal",
			"uri":"../../materials/T_RoofSlate_Normal.png"
		},
		{
			"mimeType":"image/png",
			"name":"T_RoofSlate_BaseColor",
			"uri":"../../materials/T_RoofSlate_BaseColor.png"
		},
		{
			"mimeType":"image/png",
			"name":"T_RoofSlate_ORM",
			"uri":"../../materials/T_RoofSlate_ORM.png"
		},
		{
			"mimeType":"image/png",
			"name":"T_Trim_Normal",
			"uri":"../../materials/T_Trim_Normal.png"
		},
		{
			"mimeType":"image/png",
			"name":"T_Trim_BaseColor",
			"uri":"../../materials/T_Trim_BaseColor.png"
		},
		{
			"mimeType":"image/png",
			"name":"T_Trim_ORM",
			"uri":"../../materials/T_Trim_ORM.png"
		},
		{
			"mimeType":"image/png",
			"name":"T_MetalConcrete_Normal",
			"uri":"../../materials/T_MetalConcrete_Normal.png"
		},
		{
			"mimeType":"image/png",
			"name":"T_MetalConcrete_BaseColor",
			"uri":"../../materials/T_MetalConcrete_BaseColor.png"
		},
		{
			"mimeType":"image/png",
			"name":"T_MetalConcrete_ORM",
			"uri":"../../materials/T_MetalConcrete_ORM.png"
		}
	],
	"accessors":[
		{
			"bufferView":0,
			"componentType":5126,
			"count":24,
			"max":[
				0.5811909437179565,
				2.3258163928985596,
				0.025275707244873047
			],
			"min":[
				-0.5811909437179565,
				0.035283565521240234,
				-0.9572983980178833
			],
			"type":"VEC3"
		},
		{
			"bufferView":1,
			"componentType":5126,
			"count":24,
			"type":"VEC3"
		},
		{
			"bufferView":2,
			"componentType":5126,
			"count":24,
			"type":"VEC2"
		},
		{
			"bufferView":3,
			"componentType":5126,
			"count":24,
			"type":"VEC2"
		},
		{
			"bufferView":4,
			"componentType":5121,
			"count":24,
			"normalized":true,
			"type":"VEC4"
		},
		{
			"bufferView":5,
			"componentType":5123,
			"count":24,
			"normalized":true,
			"type":"VEC4"
		},
		{
			"bufferView":6,
			"componentType":5123,
			"count":36,
			"type":"SCALAR"
		},
		{
			"bufferView":7,
			"componentType":5126,
			"count":34,
			"max":[
				0.7766293287277222,
				2.63529896736145,
				0.11591660976409912
			],
			"min":[
				-0.7766293287277222,
				2.3174705505371094,
				-0.8847163915634155
			],
			"type":"VEC3"
		},
		{
			"bufferView":8,
			"componentType":5126,
			"count":34,
			"type":"VEC3"
		},
		{
			"bufferView":9,
			"componentType":5126,
			"count":34,
			"type":"VEC2"
		},
		{
			"bufferView":10,
			"componentType":5126,
			"count":34,
			"type":"VEC2"
		},
		{
			"bufferView":11,
			"componentType":5121,
			"count":34,
			"normalized":true,
			"type":"VEC4"
		},
		{
			"bufferView":12,
			"componentType":5123,
			"count":34,
			"normalized":true,
			"type":"VEC4"
		},
		{
			"bufferView":13,
			"componentType":5123,
			"count":60,
			"type":"SCALAR"
		},
		{
			"bufferView":14,
			"componentType":5126,
			"count":24,
			"max":[
				1,
				3,
				0
			],
			"min":[
				-1,
				0,
				-2
			],
			"type":"VEC3"
		},
		{
			"bufferView":15,
			"componentType":5126,
			"count":24,
			"type":"VEC3"
		},
		{
			"bufferView":16,
			"componentType":5126,
			"count":24,
			"type":"VEC2"
		},
		{
			"bufferView":17,
			"componentType":5123,
			"count":36,
			"type":"SCALAR"
		},
		{
			"bufferView":18,
			"componentType":5126,
			"count":24,
			"max":[
				1,
				3,
				0
			],
			"min":[
				-1,
				0,
				-2
			],
			"type":"VEC3"
		},
		{
			"bufferView":19,
			"componentType":5126,
			"count":24,
			"type":"VEC3"
		},
		{
			"bufferView":20,
			"componentType":5126,
			"count":24,
			"type":"VEC2"
		},
		{
			"bufferView":21,
			"componentType":5126,
			"count":24,
			"type":"VEC2"
		},
		{
			"bufferView":22,
			"componentType":5123,
			"count":66,
			"type":"SCALAR"
		},
		{
			"bufferView":23,
			"componentType":5126,
			"count":483,
			"max":[
				0.7709819078445435,
				2.6379785537719727,
				0.1186903715133667
			],
			"min":[
				-0.7709819078445435,
				0.030997157096862793,
				-0.8816167712211609
			],
			"type":"VEC3"
		},
		{
			"bufferView":24,
			"componentType":5126,
			"count":483,
			"type":"VEC3"
		},
		{
			"bufferView":25,
			"componentType":5126,
			"count":483,
			"type":"VEC2"
		},
		{
			"bufferView":26,
			"componentType":5126,
			"count":483,
			"type":"VEC2"
		},
		{
			"bufferView":27,
			"componentType":5123,
			"count":996,
			"type":"SCALAR"
		},
		{
			"bufferView":28,
			"componentType":5126,
			"count":16,
			"max":[
				0.30977874994277954,
				1.9567503929138184,
				-0.10610312223434448
			],
			"min":[
				-0.30977874994277954,
				0.207726389169693,
				-0.13160943984985352
			],
			"type":"VEC3"
		},
		{
			"bufferView":29,
			"componentType":5126,
			"count":16,
			"type":"VEC3"
		},
		{
			"bufferView":30,
			"componentType":5126,
			"count":16,
			"type":"VEC2"
		},
		{
			"bufferView":31,
			"componentType":5126,
			"count":16,
			"type":"VEC2"
		},
		{
			"bufferView":32,
			"componentType":5123,
			"count":24,
			"type":"SCALAR"
		},
		{
			"bufferView":33,
			"componentType":5126,
			"count":4,
			"max":[
				0.5516629219055176,
				2.491422176361084,
				-0.13368356227874756
			],
			"min":[
				-0.5516629219055176,
				0.02259528636932373,
				-0.13368356227874756
			],
			"type":"VEC3"
		},
		{
			"bufferView":34,
			"componentType":5126,
			"count":4,
			"type":"VEC3"
		},
		{
			"bufferView":35,
			"componentType":5126,
			"count":4,
			"type":"VEC2"
		},
		{
			"bufferView":36,
			"componentType":5126,
			"count":4,
			"type":"VEC2"
		},
		{
			"bufferView":37,
			"componentType":5123,
			"count":6,
			"type":"SCALAR"
		},
		{
			"bufferView":38,
			"componentType":5126,
			"count":8,
			"max":[
				1,
				3,
				-2
			],
			"min":[
				-1,
				2.799999952316284,
				-2
			],
			"type":"VEC3"
		},
		{
			"bufferView":39,
			"componentType":5126,
			"count":8,
			"type":"VEC3"
		},
		{
			"bufferView":40,
			"componentType":5126,
			"count":8,
			"type":"VEC2"
		},
		{
			"bufferView":41,
			"componentType":5126,
			"count":8,
			"type":"VEC2"
		},
		{
			"bufferView":42,
			"componentType":5123,
			"count":18,
			"type":"SCALAR"
		}
	],
	"bufferViews":[
		{
			"buffer":0,
			"byteLength":288,
			"byteOffset":0,
			"target":34962
		},
		{
			"buffer":0,
			"byteLength":288,
			"byteOffset":288,
			"target":34962
		},
		{
			"buffer":0,
			"byteLength":192,
			"byteOffset":576,
			"target":34962
		},
		{
			"buffer":0,
			"byteLength":192,
			"byteOffset":768,
			"target":34962
		},
		{
			"buffer":0,
			"byteLength":96,
			"byteOffset":960,
			"target":34962
		},
		{
			"buffer":0,
			"byteLength":192,
			"byteOffset":1056,
			"target":34962
		},
		{
			"buffer":0,
			"byteLength":72,
			"byteOffset":1248,
			"target":34963
		},
		{
			"buffer":0,
			"byteLength":408,
			"byteOffset":1320,
			"target":34962
		},
		{
			"buffer":0,
			"byteLength":408,
			"byteOffset":1728,
			"target":34962
		},
		{
			"buffer":0,
			"byteLength":272,
			"byteOffset":2136,
			"target":34962
		},
		{
			"buffer":0,
			"byteLength":272,
			"byteOffset":2408,
			"target":34962
		},
		{
			"buffer":0,
			"byteLength":136,
			"byteOffset":2680,
			"target":34962
		},
		{
			"buffer":0,
			"byteLength":272,
			"byteOffset":2816,
			"target":34962
		},
		{
			"buffer":0,
			"byteLength":120,
			"byteOffset":3088,
			"target":34963
		},
		{
			"buffer":0,
			"byteLength":288,
			"byteOffset":3208,
			"target":34962
		},
		{
			"buffer":0,
			"byteLength":288,
			"byteOffset":3496,
			"target":34962
		},
		{
			"buffer":0,
			"byteLength":192,
			"byteOffset":3784,
			"target":34962
		},
		{
			"buffer":0,
			"byteLength":72,
			"byteOffset":3976,
			"target":34963
		},
		{
			"buffer":0,
			"byteLength":288,
			"byteOffset":4048,
			"target":34962
		},
		{
			"buffer":0,
			"byteLength":288,
			"byteOffset":4336,
			"target":34962
		},
		{
			"buffer":0,
			"byteLength":192,
			"byteOffset":4624,
			"target":34962
		},
		{
			"buffer":0,
			"byteLength":192,
			"byteOffset":4816,
			"target":34962
		},
		{
			"buffer":0,
			"byteLength":132,
			"byteOffset":5008,
			"target":34963
		},
		{
			"buffer":0,
			"byteLength":5796,
			"byteOffset":5140,
			"target":34962
		},
		{
			"buffer":0,
			"byteLength":5796,
			"byteOffset":10936,
			"target":34962
		},
		{
			"buffer":0,
			"byteLength":3864,
			"byteOffset":16732,
			"target":34962
		},
		{
			"buffer":0,
			"byteLength":3864,
			"byteOffset":20596,
			"target":34962
		},
		{
			"buffer":0,
			"byteLength":1992,
			"byteOffset":24460,
			"target":34963
		},
		{
			"buffer":0,
			"byteLength":192,
			"byteOffset":26452,
			"target":34962
		},
		{
			"buffer":0,
			"byteLength":192,
			"byteOffset":26644,
			"target":34962
		},
		{
			"buffer":0,
			"byteLength":128,
			"byteOffset":26836,
			"target":34962
		},
		{
			"buffer":0,
			"byteLength":128,
			"byteOffset":26964,
			"target":34962
		},
		{
			"buffer":0,
			"byteLength":48,
			"byteOffset":27092,
			"target":34963
		},
		{
			"buffer":0,
			"byteLength":48,
			"byteOffset":27140,
			"target":34962
		},
		{
			"buffer":0,
			"byteLength":48,
			"byteOffset":27188,
			"target":34962
		},
		{
			"buffer":0,
			"byteLength":32,
			"byteOffset":27236,
			"target":34962
		},
		{
			"buffer":0,
			"byteLength":32,
			"byteOffset":27268,
			"target":34962
		},
		{
			"buffer":0,
			"byteLength":12,
			"byteOffset":27300,
			"target":34963
		},
		{
			"buffer":0,
			"byteLength":96,
			"byteOffset":27312,
			"target":34962
		},
		{
			"buffer":0,
			"byteLength":96,
			"byteOffset":27408,
			"target":34962
		},
		{
			"buffer":0,
			"byteLength":64,
			"byteOffset":27504,
			"target":34962
		},
		{
			"buffer":0,
			"byteLength":64,
			"byteOffset":27568,
			"target":34962
		},
		{
			"buffer":0,
			"byteLength":36,
			"byteOffset":27632,
			"target":34963
		}
	],
	"samplers":[
		{
			"magFilter":9729,
			"minFilter":9987
		}
	],
	"buffers":[
		{
			"byteLength":27668,
			"uri":"Roof_Slate_Window_1.bin"
		}
	]
}
