{
	"asset":{
		"generator":"Khronos glTF Blender I/O v4.3.47",
		"version":"2.0"
	},
	"scene":0,
	"scenes":[
		{
			"name":"Scene",
			"nodes":[
				4
			]
		}
	],
	"nodes":[
		{
			"mesh":0,
			"name":"Sidewalk_Straight_3m_Broken2_1-convcolonly"
		},
		{
			"mesh":1,
			"name":"Sidewalk_Straight_3m_Broken2_2-convcolonly"
		},
		{
			"mesh":2,
			"name":"Sidewalk_Straight_3m_Broken2_3-convcolonly"
		},
		{
			"mesh":3,
			"name":"Sidewalk_Straight_3m_Broken2_4-convcolonly"
		},
		{
			"children":[
				0,
				1,
				2,
				3
			],
			"mesh":4,
			"name":"Sidewalk_Straight_3m_Broken2"
		}
	],
	"materials":[
		{
			"doubleSided":true,
			"name":"Collision",
			"pbrMetallicRoughness":{
				"baseColorFactor":[
					0.036788325756788254,
					0.5504099726676941,
					0.8000074625015259,
					1
				],
				"metallicFactor":0
			}
		},
		{
			"doubleSided":true,
			"name":"MI_Trim_MetalConcrete",
			"normalTexture":{
				"index":0
			},
			"pbrMetallicRoughness":{
				"baseColorTexture":{
					"index":1
				},
				"metallicRoughnessTexture":{
					"index":2
				}
			}
		}
	],
	"meshes":[
		{
			"name":"Cube.827",
			"primitives":[
				{
					"attributes":{
						"POSITION":0,
						"NORMAL":1,
						"TEXCOORD_0":2,
						"TEXCOORD_1":3,
						"COLOR_0":4
					},
					"indices":5,
					"material":0
				}
			]
		},
		{
			"name":"Cube.828",
			"primitives":[
				{
					"attributes":{
						"POSITION":6,
						"NORMAL":7,
						"TEXCOORD_0":8,
						"TEXCOORD_1":9,
						"COLOR_0":10
					},
					"indices":11,
					"material":0
				}
			]
		},
		{
			"name":"Cube.829",
			"primitives":[
				{
					"attributes":{
						"POSITION":12,
						"NORMAL":13,
						"TEXCOORD_0":14,
						"TEXCOORD_1":15,
						"COLOR_0":16
					},
					"indices":17,
					"material":0
				}
			]
		},
		{
			"name":"Cube.830",
			"primitives":[
				{
					"attributes":{
						"POSITION":18,
						"NORMAL":19,
						"TEXCOORD_0":20,
						"TEXCOORD_1":21,
						"COLOR_0":22
					},
					"indices":23,
					"material":0
				}
			]
		},
		{
			"name":"Cube.086",
			"primitives":[
				{
					"attributes":{
						"POSITION":24,
						"NORMAL":25,
						"TEXCOORD_0":26,
						"TEXCOORD_1":27,
						"COLOR_0":28
					},
					"indices":29,
					"material":1
				}
			]
		}
	],
	"textures":[
		{
			"sampler":0,
			"source":0
		},
		{
			"sampler":0,
			"source":1
		},
		{
			"sampler":0,
			"source":2
		}
	],
	"images":[
		{
			"mimeType":"image/png",
			"name":"T_MetalConcrete_Normal",
			"uri":"../../materials/T_MetalConcrete_Normal.png"
		},
		{
			"mimeType":"image/png",
			"name":"T_MetalConcrete_BaseColor",
			"uri":"../../materials/T_MetalConcrete_BaseColor.png"
		},
		{
			"mimeType":"image/png",
			"name":"T_MetalConcrete_ORM",
			"uri":"../../materials/T_MetalConcrete_ORM.png"
		}
	],
	"accessors":[
		{
			"bufferView":0,
			"componentType":5126,
			"count":36,
			"max":[
				1.5,
				2.9802322387695312e-08,
				1.5099998712539673
			],
			"min":[
				-1.5,
				-0.15000000596046448,
				-1.5
			],
			"type":"VEC3"
		},
		{
			"bufferView":1,
			"componentType":5126,
			"count":36,
			"type":"VEC3"
		},
		{
			"bufferView":2,
			"componentType":5126,
			"count":36,
			"type":"VEC2"
		},
		{
			"bufferView":3,
			"componentType":5126,
			"count":36,
			"type":"VEC2"
		},
		{
			"bufferView":4,
			"componentType":5123,
			"count":36,
			"normalized":true,
			"type":"VEC4"
		},
		{
			"bufferView":5,
			"componentType":5123,
			"count":72,
			"type":"SCALAR"
		},
		{
			"bufferView":6,
			"componentType":5126,
			"count":14,
			"max":[
				0.4999999701976776,
				0.033725470304489136,
				1.2999999523162842
			],
			"min":[
				-0.4999999701976776,
				8.940696716308594e-08,
				0.4999999701976776
			],
			"type":"VEC3"
		},
		{
			"bufferView":7,
			"componentType":5126,
			"count":14,
			"type":"VEC3"
		},
		{
			"bufferView":8,
			"componentType":5126,
			"count":14,
			"type":"VEC2"
		},
		{
			"bufferView":9,
			"componentType":5126,
			"count":14,
			"type":"VEC2"
		},
		{
			"bufferView":10,
			"componentType":5123,
			"count":14,
			"normalized":true,
			"type":"VEC4"
		},
		{
			"bufferView":11,
			"componentType":5123,
			"count":18,
			"type":"SCALAR"
		},
		{
			"bufferView":12,
			"componentType":5126,
			"count":15,
			"max":[
				-0.4999999701976776,
				0.03884609043598175,
				1.2999999523162842
			],
			"min":[
				-1.5,
				8.940696716308594e-08,
				0.4999999701976776
			],
			"type":"VEC3"
		},
		{
			"bufferView":13,
			"componentType":5126,
			"count":15,
			"type":"VEC3"
		},
		{
			"bufferView":14,
			"componentType":5126,
			"count":15,
			"type":"VEC2"
		},
		{
			"bufferView":15,
			"componentType":5126,
			"count":15,
			"type":"VEC2"
		},
		{
			"bufferView":16,
			"componentType":5123,
			"count":15,
			"normalized":true,
			"type":"VEC4"
		},
		{
			"bufferView":17,
			"componentType":5123,
			"count":21,
			"type":"SCALAR"
		},
		{
			"bufferView":18,
			"componentType":5126,
			"count":14,
			"max":[
				1.5,
				0.02912631630897522,
				-0.5
			],
			"min":[
				0.4999999701976776,
				-2.086162567138672e-07,
				-1.5
			],
			"type":"VEC3"
		},
		{
			"bufferView":19,
			"componentType":5126,
			"count":14,
			"type":"VEC3"
		},
		{
			"bufferView":20,
			"componentType":5126,
			"count":14,
			"type":"VEC2"
		},
		{
			"bufferView":21,
			"componentType":5126,
			"count":14,
			"type":"VEC2"
		},
		{
			"bufferView":22,
			"componentType":5123,
			"count":14,
			"normalized":true,
			"type":"VEC4"
		},
		{
			"bufferView":23,
			"componentType":5123,
			"count":18,
			"type":"SCALAR"
		},
		{
			"bufferView":24,
			"componentType":5126,
			"count":118,
			"max":[
				1.5,
				0.03884609043598175,
				1.5099998712539673
			],
			"min":[
				-1.5,
				-0.15000024437904358,
				-1.5
			],
			"type":"VEC3"
		},
		{
			"bufferView":25,
			"componentType":5126,
			"count":118,
			"type":"VEC3"
		},
		{
			"bufferView":26,
			"componentType":5126,
			"count":118,
			"type":"VEC2"
		},
		{
			"bufferView":27,
			"componentType":5126,
			"count":118,
			"type":"VEC2"
		},
		{
			"bufferView":28,
			"componentType":5123,
			"count":118,
			"normalized":true,
			"type":"VEC4"
		},
		{
			"bufferView":29,
			"componentType":5123,
			"count":216,
			"type":"SCALAR"
		}
	],
	"bufferViews":[
		{
			"buffer":0,
			"byteLength":432,
			"byteOffset":0,
			"target":34962
		},
		{
			"buffer":0,
			"byteLength":432,
			"byteOffset":432,
			"target":34962
		},
		{
			"buffer":0,
			"byteLength":288,
			"byteOffset":864,
			"target":34962
		},
		{
			"buffer":0,
			"byteLength":288,
			"byteOffset":1152,
			"target":34962
		},
		{
			"buffer":0,
			"byteLength":288,
			"byteOffset":1440,
			"target":34962
		},
		{
			"buffer":0,
			"byteLength":144,
			"byteOffset":1728,
			"target":34963
		},
		{
			"buffer":0,
			"byteLength":168,
			"byteOffset":1872,
			"target":34962
		},
		{
			"buffer":0,
			"byteLength":168,
			"byteOffset":2040,
			"target":34962
		},
		{
			"buffer":0,
			"byteLength":112,
			"byteOffset":2208,
			"target":34962
		},
		{
			"buffer":0,
			"byteLength":112,
			"byteOffset":2320,
			"target":34962
		},
		{
			"buffer":0,
			"byteLength":112,
			"byteOffset":2432,
			"target":34962
		},
		{
			"buffer":0,
			"byteLength":36,
			"byteOffset":2544,
			"target":34963
		},
		{
			"buffer":0,
			"byteLength":180,
			"byteOffset":2580,
			"target":34962
		},
		{
			"buffer":0,
			"byteLength":180,
			"byteOffset":2760,
			"target":34962
		},
		{
			"buffer":0,
			"byteLength":120,
			"byteOffset":2940,
			"target":34962
		},
		{
			"buffer":0,
			"byteLength":120,
			"byteOffset":3060,
			"target":34962
		},
		{
			"buffer":0,
			"byteLength":120,
			"byteOffset":3180,
			"target":34962
		},
		{
			"buffer":0,
			"byteLength":42,
			"byteOffset":3300,
			"target":34963
		},
		{
			"buffer":0,
			"byteLength":168,
			"byteOffset":3344,
			"target":34962
		},
		{
			"buffer":0,
			"byteLength":168,
			"byteOffset":3512,
			"target":34962
		},
		{
			"buffer":0,
			"byteLength":112,
			"byteOffset":3680,
			"target":34962
		},
		{
			"buffer":0,
			"byteLength":112,
			"byteOffset":3792,
			"target":34962
		},
		{
			"buffer":0,
			"byteLength":112,
			"byteOffset":3904,
			"target":34962
		},
		{
			"buffer":0,
			"byteLength":36,
			"byteOffset":4016,
			"target":34963
		},
		{
			"buffer":0,
			"byteLength":1416,
			"byteOffset":4052,
			"target":34962
		},
		{
			"buffer":0,
			"byteLength":1416,
			"byteOffset":5468,
			"target":34962
		},
		{
			"buffer":0,
			"byteLength":944,
			"byteOffset":6884,
			"target":34962
		},
		{
			"buffer":0,
			"byteLength":944,
			"byteOffset":7828,
			"target":34962
		},
		{
			"buffer":0,
			"byteLength":944,
			"byteOffset":8772,
			"target":34962
		},
		{
			"buffer":0,
			"byteLength":432,
			"byteOffset":9716,
			"target":34963
		}
	],
	"samplers":[
		{
			"magFilter":9729,
			"minFilter":9987
		}
	],
	"buffers":[
		{
			"byteLength":10148,
			"uri":"Sidewalk_Straight_3m_Broken2.bin"
		}
	]
}
