{
	"asset":{
		"generator":"Khronos glTF Blender I/O v4.3.47",
		"version":"2.0"
	},
	"scene":0,
	"scenes":[
		{
			"name":"Scene",
			"nodes":[
				2
			]
		}
	],
	"nodes":[
		{
			"mesh":0,
			"name":"Sidewalk_Straight_3m_Broken1_1-convcolonly"
		},
		{
			"mesh":1,
			"name":"Sidewalk_Straight_3m_Broken1_2-convcolonly"
		},
		{
			"children":[
				0,
				1
			],
			"mesh":2,
			"name":"Sidewalk_Straight_3m_Broken1"
		}
	],
	"materials":[
		{
			"doubleSided":true,
			"name":"Collision",
			"pbrMetallicRoughness":{
				"baseColorFactor":[
					0.036788325756788254,
					0.5504099726676941,
					0.8000074625015259,
					1
				],
				"metallicFactor":0
			}
		},
		{
			"doubleSided":true,
			"name":"MI_Trim_MetalConcrete",
			"normalTexture":{
				"index":0
			},
			"pbrMetallicRoughness":{
				"baseColorTexture":{
					"index":1
				},
				"metallicRoughnessTexture":{
					"index":2
				}
			}
		}
	],
	"meshes":[
		{
			"name":"Cube.824",
			"primitives":[
				{
					"attributes":{
						"POSITION":0,
						"NORMAL":1,
						"TEXCOORD_0":2,
						"TEXCOORD_1":3,
						"COLOR_0":4
					},
					"indices":5,
					"material":0
				}
			]
		},
		{
			"name":"Cube.826",
			"primitives":[
				{
					"attributes":{
						"POSITION":6,
						"NORMAL":7,
						"TEXCOORD_0":8,
						"TEXCOORD_1":9,
						"COLOR_0":10
					},
					"indices":11,
					"material":0
				}
			]
		},
		{
			"name":"Cube.054",
			"primitives":[
				{
					"attributes":{
						"POSITION":12,
						"NORMAL":13,
						"TEXCOORD_0":14,
						"TEXCOORD_1":15,
						"COLOR_0":16
					},
					"indices":17,
					"material":1
				}
			]
		}
	],
	"textures":[
		{
			"sampler":0,
			"source":0
		},
		{
			"sampler":0,
			"source":1
		},
		{
			"sampler":0,
			"source":2
		}
	],
	"images":[
		{
			"mimeType":"image/png",
			"name":"T_MetalConcrete_Normal",
			"uri":"../../materials/T_MetalConcrete_Normal.png"
		},
		{
			"mimeType":"image/png",
			"name":"T_MetalConcrete_BaseColor",
			"uri":"../../materials/T_MetalConcrete_BaseColor.png"
		},
		{
			"mimeType":"image/png",
			"name":"T_MetalConcrete_ORM",
			"uri":"../../materials/T_MetalConcrete_ORM.png"
		}
	],
	"accessors":[
		{
			"bufferView":0,
			"componentType":5126,
			"count":36,
			"max":[
				1.5,
				2.9802322387695312e-08,
				1.5099998712539673
			],
			"min":[
				-1.5,
				-0.15000000596046448,
				-1.5
			],
			"type":"VEC3"
		},
		{
			"bufferView":1,
			"componentType":5126,
			"count":36,
			"type":"VEC3"
		},
		{
			"bufferView":2,
			"componentType":5126,
			"count":36,
			"type":"VEC2"
		},
		{
			"bufferView":3,
			"componentType":5126,
			"count":36,
			"type":"VEC2"
		},
		{
			"bufferView":4,
			"componentType":5123,
			"count":36,
			"normalized":true,
			"type":"VEC4"
		},
		{
			"bufferView":5,
			"componentType":5123,
			"count":72,
			"type":"SCALAR"
		},
		{
			"bufferView":6,
			"componentType":5126,
			"count":14,
			"max":[
				0.4999999701976776,
				0.043643563985824585,
				0.4999999701976776
			],
			"min":[
				-0.4999999701976776,
				-5.960464477539063e-08,
				-0.5
			],
			"type":"VEC3"
		},
		{
			"bufferView":7,
			"componentType":5126,
			"count":14,
			"type":"VEC3"
		},
		{
			"bufferView":8,
			"componentType":5126,
			"count":14,
			"type":"VEC2"
		},
		{
			"bufferView":9,
			"componentType":5126,
			"count":14,
			"type":"VEC2"
		},
		{
			"bufferView":10,
			"componentType":5123,
			"count":14,
			"normalized":true,
			"type":"VEC4"
		},
		{
			"bufferView":11,
			"componentType":5123,
			"count":18,
			"type":"SCALAR"
		},
		{
			"bufferView":12,
			"componentType":5126,
			"count":99,
			"max":[
				1.5,
				0.043643563985824585,
				1.5099998712539673
			],
			"min":[
				-1.5,
				-0.15000024437904358,
				-1.5
			],
			"type":"VEC3"
		},
		{
			"bufferView":13,
			"componentType":5126,
			"count":99,
			"type":"VEC3"
		},
		{
			"bufferView":14,
			"componentType":5126,
			"count":99,
			"type":"VEC2"
		},
		{
			"bufferView":15,
			"componentType":5126,
			"count":99,
			"type":"VEC2"
		},
		{
			"bufferView":16,
			"componentType":5123,
			"count":99,
			"normalized":true,
			"type":"VEC4"
		},
		{
			"bufferView":17,
			"componentType":5123,
			"count":192,
			"type":"SCALAR"
		}
	],
	"bufferViews":[
		{
			"buffer":0,
			"byteLength":432,
			"byteOffset":0,
			"target":34962
		},
		{
			"buffer":0,
			"byteLength":432,
			"byteOffset":432,
			"target":34962
		},
		{
			"buffer":0,
			"byteLength":288,
			"byteOffset":864,
			"target":34962
		},
		{
			"buffer":0,
			"byteLength":288,
			"byteOffset":1152,
			"target":34962
		},
		{
			"buffer":0,
			"byteLength":288,
			"byteOffset":1440,
			"target":34962
		},
		{
			"buffer":0,
			"byteLength":144,
			"byteOffset":1728,
			"target":34963
		},
		{
			"buffer":0,
			"byteLength":168,
			"byteOffset":1872,
			"target":34962
		},
		{
			"buffer":0,
			"byteLength":168,
			"byteOffset":2040,
			"target":34962
		},
		{
			"buffer":0,
			"byteLength":112,
			"byteOffset":2208,
			"target":34962
		},
		{
			"buffer":0,
			"byteLength":112,
			"byteOffset":2320,
			"target":34962
		},
		{
			"buffer":0,
			"byteLength":112,
			"byteOffset":2432,
			"target":34962
		},
		{
			"buffer":0,
			"byteLength":36,
			"byteOffset":2544,
			"target":34963
		},
		{
			"buffer":0,
			"byteLength":1188,
			"byteOffset":2580,
			"target":34962
		},
		{
			"buffer":0,
			"byteLength":1188,
			"byteOffset":3768,
			"target":34962
		},
		{
			"buffer":0,
			"byteLength":792,
			"byteOffset":4956,
			"target":34962
		},
		{
			"buffer":0,
			"byteLength":792,
			"byteOffset":5748,
			"target":34962
		},
		{
			"buffer":0,
			"byteLength":792,
			"byteOffset":6540,
			"target":34962
		},
		{
			"buffer":0,
			"byteLength":384,
			"byteOffset":7332,
			"target":34963
		}
	],
	"samplers":[
		{
			"magFilter":9729,
			"minFilter":9987
		}
	],
	"buffers":[
		{
			"byteLength":7716,
			"uri":"Sidewalk_Straight_3m_Broken1.bin"
		}
	]
}
