{
	"asset":{
		"generator":"Khronos glTF Blender I/O v4.3.47",
		"version":"2.0"
	},
	"scene":0,
	"scenes":[
		{
			"name":"Scene",
			"nodes":[
				1
			]
		}
	],
	"nodes":[
		{
			"mesh":0,
			"name":"Sidewalk_Corner_Flat_3m_1-convcolonly"
		},
		{
			"children":[
				0
			],
			"mesh":1,
			"name":"Sidewalk_Corner_Flat_3m"
		}
	],
	"materials":[
		{
			"doubleSided":true,
			"name":"Collision",
			"pbrMetallicRoughness":{
				"baseColorFactor":[
					0.036788325756788254,
					0.5504099726676941,
					0.8000074625015259,
					1
				],
				"metallicFactor":0
			}
		},
		{
			"doubleSided":true,
			"name":"MI_Trim_MetalConcrete",
			"normalTexture":{
				"index":0
			},
			"pbrMetallicRoughness":{
				"baseColorTexture":{
					"index":1
				},
				"metallicRoughnessTexture":{
					"index":2
				}
			}
		}
	],
	"meshes":[
		{
			"name":"Cube.818",
			"primitives":[
				{
					"attributes":{
						"POSITION":0,
						"NORMAL":1,
						"TEXCOORD_0":2,
						"TEXCOORD_1":3,
						"COLOR_0":4
					},
					"indices":5,
					"material":0
				}
			]
		},
		{
			"name":"Cube.055",
			"primitives":[
				{
					"attributes":{
						"POSITION":6,
						"NORMAL":7,
						"TEXCOORD_0":8,
						"TEXCOORD_1":9,
						"COLOR_0":10
					},
					"indices":11,
					"material":1
				}
			]
		}
	],
	"textures":[
		{
			"sampler":0,
			"source":0
		},
		{
			"sampler":0,
			"source":1
		},
		{
			"sampler":0,
			"source":2
		}
	],
	"images":[
		{
			"mimeType":"image/png",
			"name":"T_MetalConcrete_Normal",
			"uri":"../../materials/T_MetalConcrete_Normal.png"
		},
		{
			"mimeType":"image/png",
			"name":"T_MetalConcrete_BaseColor",
			"uri":"../../materials/T_MetalConcrete_BaseColor.png"
		},
		{
			"mimeType":"image/png",
			"name":"T_MetalConcrete_ORM",
			"uri":"../../materials/T_MetalConcrete_ORM.png"
		}
	],
	"accessors":[
		{
			"bufferView":0,
			"componentType":5126,
			"count":53,
			"max":[
				1.5,
				2.9802322387695312e-08,
				1.5100001096725464
			],
			"min":[
				-1.5099999904632568,
				-0.15000000596046448,
				-1.5000001192092896
			],
			"type":"VEC3"
		},
		{
			"bufferView":1,
			"componentType":5126,
			"count":53,
			"type":"VEC3"
		},
		{
			"bufferView":2,
			"componentType":5126,
			"count":53,
			"type":"VEC2"
		},
		{
			"bufferView":3,
			"componentType":5126,
			"count":53,
			"type":"VEC2"
		},
		{
			"bufferView":4,
			"componentType":5123,
			"count":53,
			"normalized":true,
			"type":"VEC4"
		},
		{
			"bufferView":5,
			"componentType":5123,
			"count":123,
			"type":"SCALAR"
		},
		{
			"bufferView":6,
			"componentType":5126,
			"count":119,
			"max":[
				1.5,
				2.9802322387695312e-08,
				1.5100001096725464
			],
			"min":[
				-1.5099999904632568,
				-0.15000000596046448,
				-1.5000001192092896
			],
			"type":"VEC3"
		},
		{
			"bufferView":7,
			"componentType":5126,
			"count":119,
			"type":"VEC3"
		},
		{
			"bufferView":8,
			"componentType":5126,
			"count":119,
			"type":"VEC2"
		},
		{
			"bufferView":9,
			"componentType":5126,
			"count":119,
			"type":"VEC2"
		},
		{
			"bufferView":10,
			"componentType":5123,
			"count":119,
			"normalized":true,
			"type":"VEC4"
		},
		{
			"bufferView":11,
			"componentType":5123,
			"count":291,
			"type":"SCALAR"
		}
	],
	"bufferViews":[
		{
			"buffer":0,
			"byteLength":636,
			"byteOffset":0,
			"target":34962
		},
		{
			"buffer":0,
			"byteLength":636,
			"byteOffset":636,
			"target":34962
		},
		{
			"buffer":0,
			"byteLength":424,
			"byteOffset":1272,
			"target":34962
		},
		{
			"buffer":0,
			"byteLength":424,
			"byteOffset":1696,
			"target":34962
		},
		{
			"buffer":0,
			"byteLength":424,
			"byteOffset":2120,
			"target":34962
		},
		{
			"buffer":0,
			"byteLength":246,
			"byteOffset":2544,
			"target":34963
		},
		{
			"buffer":0,
			"byteLength":1428,
			"byteOffset":2792,
			"target":34962
		},
		{
			"buffer":0,
			"byteLength":1428,
			"byteOffset":4220,
			"target":34962
		},
		{
			"buffer":0,
			"byteLength":952,
			"byteOffset":5648,
			"target":34962
		},
		{
			"buffer":0,
			"byteLength":952,
			"byteOffset":6600,
			"target":34962
		},
		{
			"buffer":0,
			"byteLength":952,
			"byteOffset":7552,
			"target":34962
		},
		{
			"buffer":0,
			"byteLength":582,
			"byteOffset":8504,
			"target":34963
		}
	],
	"samplers":[
		{
			"magFilter":9729,
			"minFilter":9987
		}
	],
	"buffers":[
		{
			"byteLength":9088,
			"uri":"Sidewalk_Corner_Flat_3m.bin"
		}
	]
}
