{
	"asset":{
		"generator":"Khronos glTF Blender I/O v4.3.47",
		"version":"2.0"
	},
	"scene":0,
	"scenes":[
		{
			"name":"Scene",
			"nodes":[
				5
			]
		}
	],
	"nodes":[
		{
			"mesh":0,
			"name":"Sidewalk_Planter_1-convcolonly"
		},
		{
			"mesh":1,
			"name":"Sidewalk_Planter_2-convcolonly"
		},
		{
			"mesh":2,
			"name":"Sidewalk_Planter_3-convcolonly"
		},
		{
			"mesh":3,
			"name":"Sidewalk_Planter_4-convcolonly"
		},
		{
			"mesh":4,
			"name":"Sidewalk_Planter_5-convcolonly"
		},
		{
			"children":[
				0,
				1,
				2,
				3,
				4
			],
			"mesh":5,
			"name":"Sidewalk_Planter"
		}
	],
	"materials":[
		{
			"doubleSided":true,
			"name":"Collision",
			"pbrMetallicRoughness":{
				"baseColorFactor":[
					0.036788325756788254,
					0.5504099726676941,
					0.8000074625015259,
					1
				],
				"metallicFactor":0
			}
		},
		{
			"doubleSided":true,
			"name":"MI_Trim_MetalConcrete",
			"normalTexture":{
				"index":0
			},
			"pbrMetallicRoughness":{
				"baseColorTexture":{
					"index":1
				},
				"metallicRoughnessTexture":{
					"index":2
				}
			}
		},
		{
			"doubleSided":true,
			"name":"MI_Dirt",
			"normalTexture":{
				"index":3
			},
			"pbrMetallicRoughness":{
				"baseColorTexture":{
					"index":4
				},
				"metallicRoughnessTexture":{
					"index":5
				}
			}
		}
	],
	"meshes":[
		{
			"name":"Cube.11765",
			"primitives":[
				{
					"attributes":{
						"POSITION":0,
						"NORMAL":1,
						"TEXCOORD_0":2,
						"TEXCOORD_1":3
					},
					"indices":4,
					"material":0
				}
			]
		},
		{
			"name":"Cube.11766",
			"primitives":[
				{
					"attributes":{
						"POSITION":5,
						"NORMAL":6,
						"TEXCOORD_0":7,
						"TEXCOORD_1":8
					},
					"indices":9,
					"material":0
				}
			]
		},
		{
			"name":"Cube.11767",
			"primitives":[
				{
					"attributes":{
						"POSITION":10,
						"NORMAL":11,
						"TEXCOORD_0":12,
						"TEXCOORD_1":13
					},
					"indices":9,
					"material":0
				}
			]
		},
		{
			"name":"Cube.11768",
			"primitives":[
				{
					"attributes":{
						"POSITION":14,
						"NORMAL":15,
						"TEXCOORD_0":16,
						"TEXCOORD_1":17
					},
					"indices":18,
					"material":0
				}
			]
		},
		{
			"name":"Cube.11769",
			"primitives":[
				{
					"attributes":{
						"POSITION":19,
						"NORMAL":20,
						"TEXCOORD_0":21,
						"TEXCOORD_1":22
					},
					"indices":18,
					"material":0
				}
			]
		},
		{
			"name":"Cube.11762",
			"primitives":[
				{
					"attributes":{
						"POSITION":23,
						"NORMAL":24,
						"TEXCOORD_0":25,
						"TEXCOORD_1":26
					},
					"indices":27,
					"material":1
				},
				{
					"attributes":{
						"POSITION":28,
						"NORMAL":29,
						"TEXCOORD_0":30,
						"TEXCOORD_1":31
					},
					"indices":32,
					"material":2
				}
			]
		}
	],
	"textures":[
		{
			"sampler":0,
			"source":0
		},
		{
			"sampler":0,
			"source":1
		},
		{
			"sampler":0,
			"source":2
		},
		{
			"sampler":0,
			"source":3
		},
		{
			"sampler":0,
			"source":4
		},
		{
			"sampler":0,
			"source":5
		}
	],
	"images":[
		{
			"mimeType":"image/png",
			"name":"T_MetalConcrete_Normal",
			"uri":"../../materials/T_MetalConcrete_Normal.png"
		},
		{
			"mimeType":"image/png",
			"name":"T_MetalConcrete_BaseColor",
			"uri":"../../materials/T_MetalConcrete_BaseColor.png"
		},
		{
			"mimeType":"image/png",
			"name":"T_MetalConcrete_ORM",
			"uri":"../../materials/T_MetalConcrete_ORM.png"
		},
		{
			"mimeType":"image/png",
			"name":"T_Dirt_Normal",
			"uri":"../../materials/T_Dirt_Normal.png"
		},
		{
			"mimeType":"image/png",
			"name":"T_Dirt_BaseColor",
			"uri":"../../materials/T_Dirt_BaseColor.png"
		},
		{
			"mimeType":"image/png",
			"name":"T_Dirt_ORM",
			"uri":"../../materials/T_Dirt_ORM.png"
		}
	],
	"accessors":[
		{
			"bufferView":0,
			"componentType":5126,
			"count":24,
			"max":[
				0.9892590045928955,
				0.10614819824695587,
				0.8851747512817383
			],
			"min":[
				-0.9892898797988892,
				0.01292161550372839,
				-0.8851748108863831
			],
			"type":"VEC3"
		},
		{
			"bufferView":1,
			"componentType":5126,
			"count":24,
			"type":"VEC3"
		},
		{
			"bufferView":2,
			"componentType":5126,
			"count":24,
			"type":"VEC2"
		},
		{
			"bufferView":3,
			"componentType":5126,
			"count":24,
			"type":"VEC2"
		},
		{
			"bufferView":4,
			"componentType":5123,
			"count":36,
			"type":"SCALAR"
		},
		{
			"bufferView":5,
			"componentType":5126,
			"count":24,
			"max":[
				0.9141703844070435,
				0.5124036073684692,
				0.780848503112793
			],
			"min":[
				0.848145604133606,
				0.01733773946762085,
				-0.8038381338119507
			],
			"type":"VEC3"
		},
		{
			"bufferView":6,
			"componentType":5126,
			"count":24,
			"type":"VEC3"
		},
		{
			"bufferView":7,
			"componentType":5126,
			"count":24,
			"type":"VEC2"
		},
		{
			"bufferView":8,
			"componentType":5126,
			"count":24,
			"type":"VEC2"
		},
		{
			"bufferView":9,
			"componentType":5123,
			"count":36,
			"type":"SCALAR"
		},
		{
			"bufferView":10,
			"componentType":5126,
			"count":24,
			"max":[
				-0.8439472913742065,
				0.5124036073684692,
				0.780848503112793
			],
			"min":[
				-0.909972071647644,
				0.01733773946762085,
				-0.8038381338119507
			],
			"type":"VEC3"
		},
		{
			"bufferView":11,
			"componentType":5126,
			"count":24,
			"type":"VEC3"
		},
		{
			"bufferView":12,
			"componentType":5126,
			"count":24,
			"type":"VEC2"
		},
		{
			"bufferView":13,
			"componentType":5126,
			"count":24,
			"type":"VEC2"
		},
		{
			"bufferView":14,
			"componentType":5126,
			"count":24,
			"max":[
				0.9165770411491394,
				0.5124036073684692,
				0.7843602895736694
			],
			"min":[
				-0.9123631715774536,
				0.017337767407298088,
				0.7255854606628418
			],
			"type":"VEC3"
		},
		{
			"bufferView":15,
			"componentType":5126,
			"count":24,
			"type":"VEC3"
		},
		{
			"bufferView":16,
			"componentType":5126,
			"count":24,
			"type":"VEC2"
		},
		{
			"bufferView":17,
			"componentType":5126,
			"count":24,
			"type":"VEC2"
		},
		{
			"bufferView":18,
			"componentType":5123,
			"count":36,
			"type":"SCALAR"
		},
		{
			"bufferView":19,
			"componentType":5126,
			"count":24,
			"max":[
				0.916577160358429,
				0.5124036073684692,
				-0.7531537413597107
			],
			"min":[
				-0.912362813949585,
				0.017337767407298088,
				-0.8119286298751831
			],
			"type":"VEC3"
		},
		{
			"bufferView":20,
			"componentType":5126,
			"count":24,
			"type":"VEC3"
		},
		{
			"bufferView":21,
			"componentType":5126,
			"count":24,
			"type":"VEC2"
		},
		{
			"bufferView":22,
			"componentType":5126,
			"count":24,
			"type":"VEC2"
		},
		{
			"bufferView":23,
			"componentType":5126,
			"count":1170,
			"max":[
				0.9865391254425049,
				0.5057358741760254,
				0.882699728012085
			],
			"min":[
				-0.9865477085113525,
				0,
				-0.882699728012085
			],
			"type":"VEC3"
		},
		{
			"bufferView":24,
			"componentType":5126,
			"count":1170,
			"type":"VEC3"
		},
		{
			"bufferView":25,
			"componentType":5126,
			"count":1170,
			"type":"VEC2"
		},
		{
			"bufferView":26,
			"componentType":5126,
			"count":1170,
			"type":"VEC2"
		},
		{
			"bufferView":27,
			"componentType":5123,
			"count":1776,
			"type":"SCALAR"
		},
		{
			"bufferView":28,
			"componentType":5126,
			"count":8,
			"max":[
				0.8099992275238037,
				0.0801272839307785,
				0.7061598300933838
			],
			"min":[
				-0.8100078105926514,
				0.0801272839307785,
				-0.706159770488739
			],
			"type":"VEC3"
		},
		{
			"bufferView":29,
			"componentType":5126,
			"count":8,
			"type":"VEC3"
		},
		{
			"bufferView":30,
			"componentType":5126,
			"count":8,
			"type":"VEC2"
		},
		{
			"bufferView":31,
			"componentType":5126,
			"count":8,
			"type":"VEC2"
		},
		{
			"bufferView":32,
			"componentType":5123,
			"count":18,
			"type":"SCALAR"
		}
	],
	"bufferViews":[
		{
			"buffer":0,
			"byteLength":288,
			"byteOffset":0,
			"target":34962
		},
		{
			"buffer":0,
			"byteLength":288,
			"byteOffset":288,
			"target":34962
		},
		{
			"buffer":0,
			"byteLength":192,
			"byteOffset":576,
			"target":34962
		},
		{
			"buffer":0,
			"byteLength":192,
			"byteOffset":768,
			"target":34962
		},
		{
			"buffer":0,
			"byteLength":72,
			"byteOffset":960,
			"target":34963
		},
		{
			"buffer":0,
			"byteLength":288,
			"byteOffset":1032,
			"target":34962
		},
		{
			"buffer":0,
			"byteLength":288,
			"byteOffset":1320,
			"target":34962
		},
		{
			"buffer":0,
			"byteLength":192,
			"byteOffset":1608,
			"target":34962
		},
		{
			"buffer":0,
			"byteLength":192,
			"byteOffset":1800,
			"target":34962
		},
		{
			"buffer":0,
			"byteLength":72,
			"byteOffset":1992,
			"target":34963
		},
		{
			"buffer":0,
			"byteLength":288,
			"byteOffset":2064,
			"target":34962
		},
		{
			"buffer":0,
			"byteLength":288,
			"byteOffset":2352,
			"target":34962
		},
		{
			"buffer":0,
			"byteLength":192,
			"byteOffset":2640,
			"target":34962
		},
		{
			"buffer":0,
			"byteLength":192,
			"byteOffset":2832,
			"target":34962
		},
		{
			"buffer":0,
			"byteLength":288,
			"byteOffset":3024,
			"target":34962
		},
		{
			"buffer":0,
			"byteLength":288,
			"byteOffset":3312,
			"target":34962
		},
		{
			"buffer":0,
			"byteLength":192,
			"byteOffset":3600,
			"target":34962
		},
		{
			"buffer":0,
			"byteLength":192,
			"byteOffset":3792,
			"target":34962
		},
		{
			"buffer":0,
			"byteLength":72,
			"byteOffset":3984,
			"target":34963
		},
		{
			"buffer":0,
			"byteLength":288,
			"byteOffset":4056,
			"target":34962
		},
		{
			"buffer":0,
			"byteLength":288,
			"byteOffset":4344,
			"target":34962
		},
		{
			"buffer":0,
			"byteLength":192,
			"byteOffset":4632,
			"target":34962
		},
		{
			"buffer":0,
			"byteLength":192,
			"byteOffset":4824,
			"target":34962
		},
		{
			"buffer":0,
			"byteLength":14040,
			"byteOffset":5016,
			"target":34962
		},
		{
			"buffer":0,
			"byteLength":14040,
			"byteOffset":19056,
			"target":34962
		},
		{
			"buffer":0,
			"byteLength":9360,
			"byteOffset":33096,
			"target":34962
		},
		{
			"buffer":0,
			"byteLength":9360,
			"byteOffset":42456,
			"target":34962
		},
		{
			"buffer":0,
			"byteLength":3552,
			"byteOffset":51816,
			"target":34963
		},
		{
			"buffer":0,
			"byteLength":96,
			"byteOffset":55368,
			"target":34962
		},
		{
			"buffer":0,
			"byteLength":96,
			"byteOffset":55464,
			"target":34962
		},
		{
			"buffer":0,
			"byteLength":64,
			"byteOffset":55560,
			"target":34962
		},
		{
			"buffer":0,
			"byteLength":64,
			"byteOffset":55624,
			"target":34962
		},
		{
			"buffer":0,
			"byteLength":36,
			"byteOffset":55688,
			"target":34963
		}
	],
	"samplers":[
		{
			"magFilter":9729,
			"minFilter":9987
		}
	],
	"buffers":[
		{
			"byteLength":55724,
			"uri":"Sidewalk_Planter.bin"
		}
	]
}
