{
	"asset":{
		"generator":"Khronos glTF Blender I/O v4.3.47",
		"version":"2.0"
	},
	"scene":0,
	"scenes":[
		{
			"name":"Scene",
			"nodes":[
				1
			]
		}
	],
	"nodes":[
		{
			"mesh":0,
			"name":"Sidewalk_Corner_Round_2m_1-convcolonly"
		},
		{
			"children":[
				0
			],
			"mesh":1,
			"name":"Sidewalk_Corner_Round_2m"
		}
	],
	"materials":[
		{
			"doubleSided":true,
			"name":"Collision",
			"pbrMetallicRoughness":{
				"baseColorFactor":[
					0.036788325756788254,
					0.5504099726676941,
					0.8000074625015259,
					1
				],
				"metallicFactor":0
			}
		},
		{
			"doubleSided":true,
			"name":"MI_Trim_MetalConcrete",
			"normalTexture":{
				"index":0
			},
			"pbrMetallicRoughness":{
				"baseColorTexture":{
					"index":1
				},
				"metallicRoughnessTexture":{
					"index":2
				}
			}
		}
	],
	"meshes":[
		{
			"name":"Cube.800",
			"primitives":[
				{
					"attributes":{
						"POSITION":0,
						"NORMAL":1,
						"TEXCOORD_0":2,
						"TEXCOORD_1":3
					},
					"indices":4,
					"material":0
				}
			]
		},
		{
			"name":"Cube.102",
			"primitives":[
				{
					"attributes":{
						"POSITION":5,
						"NORMAL":6,
						"TEXCOORD_0":7,
						"TEXCOORD_1":8
					},
					"indices":9,
					"material":1
				}
			]
		}
	],
	"textures":[
		{
			"sampler":0,
			"source":0
		},
		{
			"sampler":0,
			"source":1
		},
		{
			"sampler":0,
			"source":2
		}
	],
	"images":[
		{
			"mimeType":"image/png",
			"name":"T_MetalConcrete_Normal",
			"uri":"../../materials/T_MetalConcrete_Normal.png"
		},
		{
			"mimeType":"image/png",
			"name":"T_MetalConcrete_BaseColor",
			"uri":"../../materials/T_MetalConcrete_BaseColor.png"
		},
		{
			"mimeType":"image/png",
			"name":"T_MetalConcrete_ORM",
			"uri":"../../materials/T_MetalConcrete_ORM.png"
		}
	],
	"accessors":[
		{
			"bufferView":0,
			"componentType":5126,
			"count":65,
			"max":[
				1.0031566619873047,
				2.9802322387695312e-08,
				1.0100003480911255
			],
			"min":[
				-1.0099998712539673,
				-0.15000000596046448,
				-1
			],
			"type":"VEC3"
		},
		{
			"bufferView":1,
			"componentType":5126,
			"count":65,
			"type":"VEC3"
		},
		{
			"bufferView":2,
			"componentType":5126,
			"count":65,
			"type":"VEC2"
		},
		{
			"bufferView":3,
			"componentType":5126,
			"count":65,
			"type":"VEC2"
		},
		{
			"bufferView":4,
			"componentType":5123,
			"count":198,
			"type":"SCALAR"
		},
		{
			"bufferView":5,
			"componentType":5126,
			"count":110,
			"max":[
				1.000000238418579,
				2.9802322387695312e-08,
				1.0100003480911255
			],
			"min":[
				-1.0099998712539673,
				-0.15000000596046448,
				-1
			],
			"type":"VEC3"
		},
		{
			"bufferView":6,
			"componentType":5126,
			"count":110,
			"type":"VEC3"
		},
		{
			"bufferView":7,
			"componentType":5126,
			"count":110,
			"type":"VEC2"
		},
		{
			"bufferView":8,
			"componentType":5126,
			"count":110,
			"type":"VEC2"
		},
		{
			"bufferView":9,
			"componentType":5123,
			"count":330,
			"type":"SCALAR"
		}
	],
	"bufferViews":[
		{
			"buffer":0,
			"byteLength":780,
			"byteOffset":0,
			"target":34962
		},
		{
			"buffer":0,
			"byteLength":780,
			"byteOffset":780,
			"target":34962
		},
		{
			"buffer":0,
			"byteLength":520,
			"byteOffset":1560,
			"target":34962
		},
		{
			"buffer":0,
			"byteLength":520,
			"byteOffset":2080,
			"target":34962
		},
		{
			"buffer":0,
			"byteLength":396,
			"byteOffset":2600,
			"target":34963
		},
		{
			"buffer":0,
			"byteLength":1320,
			"byteOffset":2996,
			"target":34962
		},
		{
			"buffer":0,
			"byteLength":1320,
			"byteOffset":4316,
			"target":34962
		},
		{
			"buffer":0,
			"byteLength":880,
			"byteOffset":5636,
			"target":34962
		},
		{
			"buffer":0,
			"byteLength":880,
			"byteOffset":6516,
			"target":34962
		},
		{
			"buffer":0,
			"byteLength":660,
			"byteOffset":7396,
			"target":34963
		}
	],
	"samplers":[
		{
			"magFilter":9729,
			"minFilter":9987
		}
	],
	"buffers":[
		{
			"byteLength":8056,
			"uri":"Sidewalk_Corner_Round_2m.bin"
		}
	]
}
