{
	"asset":{
		"generator":"Khronos glTF Blender I/O v4.3.47",
		"version":"2.0"
	},
	"scene":0,
	"scenes":[
		{
			"name":"Scene",
			"nodes":[
				1
			]
		}
	],
	"nodes":[
		{
			"mesh":0,
			"name":"Sidewalk_Straight_1x3m_1-convcolonly"
		},
		{
			"children":[
				0
			],
			"mesh":1,
			"name":"Sidewalk_Straight_1x3m"
		}
	],
	"materials":[
		{
			"doubleSided":true,
			"name":"Collision",
			"pbrMetallicRoughness":{
				"baseColorFactor":[
					0.036788325756788254,
					0.5504099726676941,
					0.8000074625015259,
					1
				],
				"metallicFactor":0
			}
		},
		{
			"doubleSided":true,
			"name":"MI_Trim_MetalConcrete",
			"normalTexture":{
				"index":0
			},
			"pbrMetallicRoughness":{
				"baseColorTexture":{
					"index":1
				},
				"metallicRoughnessTexture":{
					"index":2
				}
			}
		}
	],
	"meshes":[
		{
			"name":"Cube.835",
			"primitives":[
				{
					"attributes":{
						"POSITION":0,
						"NORMAL":1,
						"TEXCOORD_0":2,
						"TEXCOORD_1":3,
						"COLOR_0":4
					},
					"indices":5,
					"material":0
				}
			]
		},
		{
			"name":"Cube.082",
			"primitives":[
				{
					"attributes":{
						"POSITION":6,
						"NORMAL":7,
						"TEXCOORD_0":8,
						"TEXCOORD_1":9,
						"COLOR_0":10
					},
					"indices":11,
					"material":1
				}
			]
		}
	],
	"textures":[
		{
			"sampler":0,
			"source":0
		},
		{
			"sampler":0,
			"source":1
		},
		{
			"sampler":0,
			"source":2
		}
	],
	"images":[
		{
			"mimeType":"image/png",
			"name":"T_MetalConcrete_Normal",
			"uri":"../../materials/T_MetalConcrete_Normal.png"
		},
		{
			"mimeType":"image/png",
			"name":"T_MetalConcrete_BaseColor",
			"uri":"../../materials/T_MetalConcrete_BaseColor.png"
		},
		{
			"mimeType":"image/png",
			"name":"T_MetalConcrete_ORM",
			"uri":"../../materials/T_MetalConcrete_ORM.png"
		}
	],
	"accessors":[
		{
			"bufferView":0,
			"componentType":5126,
			"count":43,
			"max":[
				1.5,
				2.682209014892578e-07,
				0.5099998712539673
			],
			"min":[
				-1.5,
				-0.15000024437904358,
				-0.5
			],
			"type":"VEC3"
		},
		{
			"bufferView":1,
			"componentType":5126,
			"count":43,
			"type":"VEC3"
		},
		{
			"bufferView":2,
			"componentType":5126,
			"count":43,
			"type":"VEC2"
		},
		{
			"bufferView":3,
			"componentType":5126,
			"count":43,
			"type":"VEC2"
		},
		{
			"bufferView":4,
			"componentType":5123,
			"count":43,
			"normalized":true,
			"type":"VEC4"
		},
		{
			"bufferView":5,
			"componentType":5123,
			"count":72,
			"type":"SCALAR"
		},
		{
			"bufferView":6,
			"componentType":5126,
			"count":58,
			"max":[
				1.5,
				2.682209014892578e-07,
				0.5099998712539673
			],
			"min":[
				-1.5,
				-0.15000024437904358,
				-0.5
			],
			"type":"VEC3"
		},
		{
			"bufferView":7,
			"componentType":5126,
			"count":58,
			"type":"VEC3"
		},
		{
			"bufferView":8,
			"componentType":5126,
			"count":58,
			"type":"VEC2"
		},
		{
			"bufferView":9,
			"componentType":5126,
			"count":58,
			"type":"VEC2"
		},
		{
			"bufferView":10,
			"componentType":5123,
			"count":58,
			"normalized":true,
			"type":"VEC4"
		},
		{
			"bufferView":11,
			"componentType":5123,
			"count":120,
			"type":"SCALAR"
		}
	],
	"bufferViews":[
		{
			"buffer":0,
			"byteLength":516,
			"byteOffset":0,
			"target":34962
		},
		{
			"buffer":0,
			"byteLength":516,
			"byteOffset":516,
			"target":34962
		},
		{
			"buffer":0,
			"byteLength":344,
			"byteOffset":1032,
			"target":34962
		},
		{
			"buffer":0,
			"byteLength":344,
			"byteOffset":1376,
			"target":34962
		},
		{
			"buffer":0,
			"byteLength":344,
			"byteOffset":1720,
			"target":34962
		},
		{
			"buffer":0,
			"byteLength":144,
			"byteOffset":2064,
			"target":34963
		},
		{
			"buffer":0,
			"byteLength":696,
			"byteOffset":2208,
			"target":34962
		},
		{
			"buffer":0,
			"byteLength":696,
			"byteOffset":2904,
			"target":34962
		},
		{
			"buffer":0,
			"byteLength":464,
			"byteOffset":3600,
			"target":34962
		},
		{
			"buffer":0,
			"byteLength":464,
			"byteOffset":4064,
			"target":34962
		},
		{
			"buffer":0,
			"byteLength":464,
			"byteOffset":4528,
			"target":34962
		},
		{
			"buffer":0,
			"byteLength":240,
			"byteOffset":4992,
			"target":34963
		}
	],
	"samplers":[
		{
			"magFilter":9729,
			"minFilter":9987
		}
	],
	"buffers":[
		{
			"byteLength":5232,
			"uri":"Sidewalk_Straight_1x3m.bin"
		}
	]
}
