{
	"asset":{
		"generator":"Khronos glTF Blender I/O v4.3.47",
		"version":"2.0"
	},
	"scene":0,
	"scenes":[
		{
			"name":"Scene",
			"nodes":[
				9
			]
		}
	],
	"nodes":[
		{
			"mesh":0,
			"name":"Sidewalk_Inset_3m_L_01-convcolonly"
		},
		{
			"mesh":1,
			"name":"Sidewalk_Inset_3m_L_02-convcolonly"
		},
		{
			"mesh":2,
			"name":"Sidewalk_Inset_3m_L_03-convcolonly"
		},
		{
			"mesh":3,
			"name":"Sidewalk_Inset_3m_L_04-convcolonly"
		},
		{
			"mesh":4,
			"name":"Sidewalk_Inset_3m_L_05-convcolonly"
		},
		{
			"mesh":5,
			"name":"Sidewalk_Inset_3m_L_06-convcolonly"
		},
		{
			"mesh":6,
			"name":"Sidewalk_Inset_3m_L_07-convcolonly"
		},
		{
			"mesh":7,
			"name":"Sidewalk_Inset_3m_L_08-convcolonly"
		},
		{
			"mesh":8,
			"name":"Sidewalk_Inset_3m_L_09-convcolonly"
		},
		{
			"children":[
				0,
				1,
				2,
				3,
				4,
				5,
				6,
				7,
				8
			],
			"mesh":9,
			"name":"Sidewalk_Inset_3m_L"
		}
	],
	"materials":[
		{
			"doubleSided":true,
			"name":"Collision",
			"pbrMetallicRoughness":{
				"baseColorFactor":[
					0.036788325756788254,
					0.5504099726676941,
					0.8000074625015259,
					1
				],
				"metallicFactor":0
			}
		},
		{
			"doubleSided":true,
			"name":"MI_Trim_MetalConcrete",
			"normalTexture":{
				"index":0
			},
			"pbrMetallicRoughness":{
				"baseColorTexture":{
					"index":1
				},
				"metallicRoughnessTexture":{
					"index":2
				}
			}
		}
	],
	"meshes":[
		{
			"name":"Cube.845",
			"primitives":[
				{
					"attributes":{
						"POSITION":0,
						"NORMAL":1,
						"TEXCOORD_0":2,
						"TEXCOORD_1":3,
						"COLOR_0":4
					},
					"indices":5,
					"material":0
				}
			]
		},
		{
			"name":"Cube.846",
			"primitives":[
				{
					"attributes":{
						"POSITION":6,
						"NORMAL":7,
						"TEXCOORD_0":8,
						"TEXCOORD_1":9,
						"COLOR_0":10
					},
					"indices":11,
					"material":0
				}
			]
		},
		{
			"name":"Cube.847",
			"primitives":[
				{
					"attributes":{
						"POSITION":12,
						"NORMAL":13,
						"TEXCOORD_0":14,
						"TEXCOORD_1":15,
						"COLOR_0":16
					},
					"indices":17,
					"material":0
				}
			]
		},
		{
			"name":"Cube.848",
			"primitives":[
				{
					"attributes":{
						"POSITION":18,
						"NORMAL":19,
						"TEXCOORD_0":20,
						"TEXCOORD_1":21,
						"COLOR_0":22
					},
					"indices":23,
					"material":0
				}
			]
		},
		{
			"name":"Cube.849",
			"primitives":[
				{
					"attributes":{
						"POSITION":24,
						"NORMAL":25,
						"TEXCOORD_0":26,
						"TEXCOORD_1":27,
						"COLOR_0":28
					},
					"indices":29,
					"material":0
				}
			]
		},
		{
			"name":"Cube.850",
			"primitives":[
				{
					"attributes":{
						"POSITION":30,
						"NORMAL":31,
						"TEXCOORD_0":32,
						"TEXCOORD_1":33,
						"COLOR_0":34
					},
					"indices":35,
					"material":0
				}
			]
		},
		{
			"name":"Cube.851",
			"primitives":[
				{
					"attributes":{
						"POSITION":36,
						"NORMAL":37,
						"TEXCOORD_0":38,
						"TEXCOORD_1":39,
						"COLOR_0":40
					},
					"indices":41,
					"material":0
				}
			]
		},
		{
			"name":"Cube.852",
			"primitives":[
				{
					"attributes":{
						"POSITION":42,
						"NORMAL":43,
						"TEXCOORD_0":44,
						"TEXCOORD_1":45,
						"COLOR_0":46
					},
					"indices":47,
					"material":0
				}
			]
		},
		{
			"name":"Cube.853",
			"primitives":[
				{
					"attributes":{
						"POSITION":48,
						"NORMAL":49,
						"TEXCOORD_0":50,
						"TEXCOORD_1":51,
						"COLOR_0":52
					},
					"indices":53,
					"material":0
				}
			]
		},
		{
			"name":"Cube.034",
			"primitives":[
				{
					"attributes":{
						"POSITION":54,
						"NORMAL":55,
						"TEXCOORD_0":56,
						"TEXCOORD_1":57,
						"COLOR_0":58
					},
					"indices":59,
					"material":1
				}
			]
		}
	],
	"textures":[
		{
			"sampler":0,
			"source":0
		},
		{
			"sampler":0,
			"source":1
		},
		{
			"sampler":0,
			"source":2
		}
	],
	"images":[
		{
			"mimeType":"image/png",
			"name":"T_MetalConcrete_Normal",
			"uri":"../../materials/T_MetalConcrete_Normal.png"
		},
		{
			"mimeType":"image/png",
			"name":"T_MetalConcrete_BaseColor",
			"uri":"../../materials/T_MetalConcrete_BaseColor.png"
		},
		{
			"mimeType":"image/png",
			"name":"T_MetalConcrete_ORM",
			"uri":"../../materials/T_MetalConcrete_ORM.png"
		}
	],
	"accessors":[
		{
			"bufferView":0,
			"componentType":5126,
			"count":30,
			"max":[
				1.2546865940093994,
				2.682209014892578e-07,
				-0.3888283371925354
			],
			"min":[
				1.16666841506958,
				-0.14999979734420776,
				-1.5
			],
			"type":"VEC3"
		},
		{
			"bufferView":1,
			"componentType":5126,
			"count":30,
			"type":"VEC3"
		},
		{
			"bufferView":2,
			"componentType":5126,
			"count":30,
			"type":"VEC2"
		},
		{
			"bufferView":3,
			"componentType":5126,
			"count":30,
			"type":"VEC2"
		},
		{
			"bufferView":4,
			"componentType":5123,
			"count":30,
			"normalized":true,
			"type":"VEC4"
		},
		{
			"bufferView":5,
			"componentType":5123,
			"count":48,
			"type":"SCALAR"
		},
		{
			"bufferView":6,
			"componentType":5126,
			"count":30,
			"max":[
				-1.4509165287017822,
				2.682209014892578e-07,
				1.5099998712539673
			],
			"min":[
				-1.5,
				-0.14999979734420776,
				-1.5
			],
			"type":"VEC3"
		},
		{
			"bufferView":7,
			"componentType":5126,
			"count":30,
			"type":"VEC3"
		},
		{
			"bufferView":8,
			"componentType":5126,
			"count":30,
			"type":"VEC2"
		},
		{
			"bufferView":9,
			"componentType":5126,
			"count":30,
			"type":"VEC2"
		},
		{
			"bufferView":10,
			"componentType":5123,
			"count":30,
			"normalized":true,
			"type":"VEC4"
		},
		{
			"bufferView":11,
			"componentType":5123,
			"count":48,
			"type":"SCALAR"
		},
		{
			"bufferView":12,
			"componentType":5126,
			"count":30,
			"max":[
				1.16893470287323,
				2.682209014892578e-07,
				1.4091802835464478
			],
			"min":[
				-1.1689344644546509,
				-0.14999979734420776,
				-1.5
			],
			"type":"VEC3"
		},
		{
			"bufferView":13,
			"componentType":5126,
			"count":30,
			"type":"VEC3"
		},
		{
			"bufferView":14,
			"componentType":5126,
			"count":30,
			"type":"VEC2"
		},
		{
			"bufferView":15,
			"componentType":5126,
			"count":30,
			"type":"VEC2"
		},
		{
			"bufferView":16,
			"componentType":5123,
			"count":30,
			"normalized":true,
			"type":"VEC4"
		},
		{
			"bufferView":17,
			"componentType":5123,
			"count":48,
			"type":"SCALAR"
		},
		{
			"bufferView":18,
			"componentType":5126,
			"count":30,
			"max":[
				1.3578991889953613,
				2.682209014892578e-07,
				-0.43941420316696167
			],
			"min":[
				1.2535532712936401,
				-0.14999979734420776,
				-1.5
			],
			"type":"VEC3"
		},
		{
			"bufferView":19,
			"componentType":5126,
			"count":30,
			"type":"VEC3"
		},
		{
			"bufferView":20,
			"componentType":5126,
			"count":30,
			"type":"VEC2"
		},
		{
			"bufferView":21,
			"componentType":5126,
			"count":30,
			"type":"VEC2"
		},
		{
			"bufferView":22,
			"componentType":5123,
			"count":30,
			"normalized":true,
			"type":"VEC4"
		},
		{
			"bufferView":23,
			"componentType":5123,
			"count":48,
			"type":"SCALAR"
		},
		{
			"bufferView":24,
			"componentType":5126,
			"count":30,
			"max":[
				-1.253553032875061,
				2.682209014892578e-07,
				1.496492624282837
			],
			"min":[
				-1.3578989505767822,
				-0.14999979734420776,
				-1.5
			],
			"type":"VEC3"
		},
		{
			"bufferView":25,
			"componentType":5126,
			"count":30,
			"type":"VEC3"
		},
		{
			"bufferView":26,
			"componentType":5126,
			"count":30,
			"type":"VEC2"
		},
		{
			"bufferView":27,
			"componentType":5126,
			"count":30,
			"type":"VEC2"
		},
		{
			"bufferView":28,
			"componentType":5123,
			"count":30,
			"normalized":true,
			"type":"VEC4"
		},
		{
			"bufferView":29,
			"componentType":5123,
			"count":48,
			"type":"SCALAR"
		},
		{
			"bufferView":30,
			"componentType":5126,
			"count":30,
			"max":[
				1.4509167671203613,
				2.682209014892578e-07,
				-0.47644561529159546
			],
			"min":[
				1.357595443725586,
				-0.14999979734420776,
				-1.5
			],
			"type":"VEC3"
		},
		{
			"bufferView":31,
			"componentType":5126,
			"count":30,
			"type":"VEC3"
		},
		{
			"bufferView":32,
			"componentType":5126,
			"count":30,
			"type":"VEC2"
		},
		{
			"bufferView":33,
			"componentType":5126,
			"count":30,
			"type":"VEC2"
		},
		{
			"bufferView":34,
			"componentType":5123,
			"count":30,
			"normalized":true,
			"type":"VEC4"
		},
		{
			"bufferView":35,
			"componentType":5123,
			"count":48,
			"type":"SCALAR"
		},
		{
			"bufferView":36,
			"componentType":5126,
			"count":30,
			"max":[
				-1.3575952053070068,
				2.682209014892578e-07,
				1.5099998712539673
			],
			"min":[
				-1.4509165287017822,
				-0.14999979734420776,
				-1.5
			],
			"type":"VEC3"
		},
		{
			"bufferView":37,
			"componentType":5126,
			"count":30,
			"type":"VEC3"
		},
		{
			"bufferView":38,
			"componentType":5126,
			"count":30,
			"type":"VEC2"
		},
		{
			"bufferView":39,
			"componentType":5126,
			"count":30,
			"type":"VEC2"
		},
		{
			"bufferView":40,
			"componentType":5123,
			"count":30,
			"normalized":true,
			"type":"VEC4"
		},
		{
			"bufferView":41,
			"componentType":5123,
			"count":48,
			"type":"SCALAR"
		},
		{
			"bufferView":42,
			"componentType":5126,
			"count":30,
			"max":[
				-1.166668176651001,
				2.682209014892578e-07,
				1.4595900774002075
			],
			"min":[
				-1.2546863555908203,
				-0.14999979734420776,
				-1.5
			],
			"type":"VEC3"
		},
		{
			"bufferView":43,
			"componentType":5126,
			"count":30,
			"type":"VEC3"
		},
		{
			"bufferView":44,
			"componentType":5126,
			"count":30,
			"type":"VEC2"
		},
		{
			"bufferView":45,
			"componentType":5126,
			"count":30,
			"type":"VEC2"
		},
		{
			"bufferView":46,
			"componentType":5123,
			"count":30,
			"normalized":true,
			"type":"VEC4"
		},
		{
			"bufferView":47,
			"componentType":5123,
			"count":48,
			"type":"SCALAR"
		},
		{
			"bufferView":48,
			"componentType":5126,
			"count":30,
			"max":[
				1.5,
				2.682209014892578e-07,
				-0.49000006914138794
			],
			"min":[
				1.4509167671203613,
				-0.14999979734420776,
				-1.5
			],
			"type":"VEC3"
		},
		{
			"bufferView":49,
			"componentType":5126,
			"count":30,
			"type":"VEC3"
		},
		{
			"bufferView":50,
			"componentType":5126,
			"count":30,
			"type":"VEC2"
		},
		{
			"bufferView":51,
			"componentType":5126,
			"count":30,
			"type":"VEC2"
		},
		{
			"bufferView":52,
			"componentType":5123,
			"count":30,
			"normalized":true,
			"type":"VEC4"
		},
		{
			"bufferView":53,
			"componentType":5123,
			"count":48,
			"type":"SCALAR"
		},
		{
			"bufferView":54,
			"componentType":5126,
			"count":114,
			"max":[
				1.5,
				2.682209014892578e-07,
				1.5099998712539673
			],
			"min":[
				-1.5,
				-0.15000024437904358,
				-1.5
			],
			"type":"VEC3"
		},
		{
			"bufferView":55,
			"componentType":5126,
			"count":114,
			"type":"VEC3"
		},
		{
			"bufferView":56,
			"componentType":5126,
			"count":114,
			"type":"VEC2"
		},
		{
			"bufferView":57,
			"componentType":5126,
			"count":114,
			"type":"VEC2"
		},
		{
			"bufferView":58,
			"componentType":5123,
			"count":114,
			"normalized":true,
			"type":"VEC4"
		},
		{
			"bufferView":59,
			"componentType":5123,
			"count":294,
			"type":"SCALAR"
		}
	],
	"bufferViews":[
		{
			"buffer":0,
			"byteLength":360,
			"byteOffset":0,
			"target":34962
		},
		{
			"buffer":0,
			"byteLength":360,
			"byteOffset":360,
			"target":34962
		},
		{
			"buffer":0,
			"byteLength":240,
			"byteOffset":720,
			"target":34962
		},
		{
			"buffer":0,
			"byteLength":240,
			"byteOffset":960,
			"target":34962
		},
		{
			"buffer":0,
			"byteLength":240,
			"byteOffset":1200,
			"target":34962
		},
		{
			"buffer":0,
			"byteLength":96,
			"byteOffset":1440,
			"target":34963
		},
		{
			"buffer":0,
			"byteLength":360,
			"byteOffset":1536,
			"target":34962
		},
		{
			"buffer":0,
			"byteLength":360,
			"byteOffset":1896,
			"target":34962
		},
		{
			"buffer":0,
			"byteLength":240,
			"byteOffset":2256,
			"target":34962
		},
		{
			"buffer":0,
			"byteLength":240,
			"byteOffset":2496,
			"target":34962
		},
		{
			"buffer":0,
			"byteLength":240,
			"byteOffset":2736,
			"target":34962
		},
		{
			"buffer":0,
			"byteLength":96,
			"byteOffset":2976,
			"target":34963
		},
		{
			"buffer":0,
			"byteLength":360,
			"byteOffset":3072,
			"target":34962
		},
		{
			"buffer":0,
			"byteLength":360,
			"byteOffset":3432,
			"target":34962
		},
		{
			"buffer":0,
			"byteLength":240,
			"byteOffset":3792,
			"target":34962
		},
		{
			"buffer":0,
			"byteLength":240,
			"byteOffset":4032,
			"target":34962
		},
		{
			"buffer":0,
			"byteLength":240,
			"byteOffset":4272,
			"target":34962
		},
		{
			"buffer":0,
			"byteLength":96,
			"byteOffset":4512,
			"target":34963
		},
		{
			"buffer":0,
			"byteLength":360,
			"byteOffset":4608,
			"target":34962
		},
		{
			"buffer":0,
			"byteLength":360,
			"byteOffset":4968,
			"target":34962
		},
		{
			"buffer":0,
			"byteLength":240,
			"byteOffset":5328,
			"target":34962
		},
		{
			"buffer":0,
			"byteLength":240,
			"byteOffset":5568,
			"target":34962
		},
		{
			"buffer":0,
			"byteLength":240,
			"byteOffset":5808,
			"target":34962
		},
		{
			"buffer":0,
			"byteLength":96,
			"byteOffset":6048,
			"target":34963
		},
		{
			"buffer":0,
			"byteLength":360,
			"byteOffset":6144,
			"target":34962
		},
		{
			"buffer":0,
			"byteLength":360,
			"byteOffset":6504,
			"target":34962
		},
		{
			"buffer":0,
			"byteLength":240,
			"byteOffset":6864,
			"target":34962
		},
		{
			"buffer":0,
			"byteLength":240,
			"byteOffset":7104,
			"target":34962
		},
		{
			"buffer":0,
			"byteLength":240,
			"byteOffset":7344,
			"target":34962
		},
		{
			"buffer":0,
			"byteLength":96,
			"byteOffset":7584,
			"target":34963
		},
		{
			"buffer":0,
			"byteLength":360,
			"byteOffset":7680,
			"target":34962
		},
		{
			"buffer":0,
			"byteLength":360,
			"byteOffset":8040,
			"target":34962
		},
		{
			"buffer":0,
			"byteLength":240,
			"byteOffset":8400,
			"target":34962
		},
		{
			"buffer":0,
			"byteLength":240,
			"byteOffset":8640,
			"target":34962
		},
		{
			"buffer":0,
			"byteLength":240,
			"byteOffset":8880,
			"target":34962
		},
		{
			"buffer":0,
			"byteLength":96,
			"byteOffset":9120,
			"target":34963
		},
		{
			"buffer":0,
			"byteLength":360,
			"byteOffset":9216,
			"target":34962
		},
		{
			"buffer":0,
			"byteLength":360,
			"byteOffset":9576,
			"target":34962
		},
		{
			"buffer":0,
			"byteLength":240,
			"byteOffset":9936,
			"target":34962
		},
		{
			"buffer":0,
			"byteLength":240,
			"byteOffset":10176,
			"target":34962
		},
		{
			"buffer":0,
			"byteLength":240,
			"byteOffset":10416,
			"target":34962
		},
		{
			"buffer":0,
			"byteLength":96,
			"byteOffset":10656,
			"target":34963
		},
		{
			"buffer":0,
			"byteLength":360,
			"byteOffset":10752,
			"target":34962
		},
		{
			"buffer":0,
			"byteLength":360,
			"byteOffset":11112,
			"target":34962
		},
		{
			"buffer":0,
			"byteLength":240,
			"byteOffset":11472,
			"target":34962
		},
		{
			"buffer":0,
			"byteLength":240,
			"byteOffset":11712,
			"target":34962
		},
		{
			"buffer":0,
			"byteLength":240,
			"byteOffset":11952,
			"target":34962
		},
		{
			"buffer":0,
			"byteLength":96,
			"byteOffset":12192,
			"target":34963
		},
		{
			"buffer":0,
			"byteLength":360,
			"byteOffset":12288,
			"target":34962
		},
		{
			"buffer":0,
			"byteLength":360,
			"byteOffset":12648,
			"target":34962
		},
		{
			"buffer":0,
			"byteLength":240,
			"byteOffset":13008,
			"target":34962
		},
		{
			"buffer":0,
			"byteLength":240,
			"byteOffset":13248,
			"target":34962
		},
		{
			"buffer":0,
			"byteLength":240,
			"byteOffset":13488,
			"target":34962
		},
		{
			"buffer":0,
			"byteLength":96,
			"byteOffset":13728,
			"target":34963
		},
		{
			"buffer":0,
			"byteLength":1368,
			"byteOffset":13824,
			"target":34962
		},
		{
			"buffer":0,
			"byteLength":1368,
			"byteOffset":15192,
			"target":34962
		},
		{
			"buffer":0,
			"byteLength":912,
			"byteOffset":16560,
			"target":34962
		},
		{
			"buffer":0,
			"byteLength":912,
			"byteOffset":17472,
			"target":34962
		},
		{
			"buffer":0,
			"byteLength":912,
			"byteOffset":18384,
			"target":34962
		},
		{
			"buffer":0,
			"byteLength":588,
			"byteOffset":19296,
			"target":34963
		}
	],
	"samplers":[
		{
			"magFilter":9729,
			"minFilter":9987
		}
	],
	"buffers":[
		{
			"byteLength":19884,
			"uri":"Sidewalk_Inset_3m_L.bin"
		}
	]
}
