{
	"asset":{
		"generator":"Khronos glTF Blender I/O v4.3.47",
		"version":"2.0"
	},
	"scene":0,
	"scenes":[
		{
			"name":"Scene",
			"nodes":[
				7
			]
		}
	],
	"nodes":[
		{
			"mesh":0,
			"name":"Sidewalk_CornerRamp_Round_3m_1-convcolonly"
		},
		{
			"mesh":1,
			"name":"Sidewalk_CornerRamp_Round_3m_2-convcolonly"
		},
		{
			"mesh":2,
			"name":"Sidewalk_CornerRamp_Round_3m_3-convcolonly"
		},
		{
			"mesh":3,
			"name":"Sidewalk_CornerRamp_Round_3m_4-convcolonly"
		},
		{
			"mesh":4,
			"name":"Sidewalk_CornerRamp_Round_3m_5-convcolonly"
		},
		{
			"mesh":5,
			"name":"Sidewalk_CornerRamp_Round_3m_6-convcolonly"
		},
		{
			"mesh":6,
			"name":"Sidewalk_CornerRamp_Round_3m_7-convcolonly"
		},
		{
			"children":[
				0,
				1,
				2,
				3,
				4,
				5,
				6
			],
			"mesh":7,
			"name":"Sidewalk_CornerRamp_Round_3m"
		}
	],
	"materials":[
		{
			"doubleSided":true,
			"name":"Collision",
			"pbrMetallicRoughness":{
				"baseColorFactor":[
					0.036788325756788254,
					0.5504099726676941,
					0.8000074625015259,
					1
				],
				"metallicFactor":0
			}
		},
		{
			"doubleSided":true,
			"name":"MI_Trim_MetalConcrete",
			"normalTexture":{
				"index":0
			},
			"pbrMetallicRoughness":{
				"baseColorTexture":{
					"index":1
				},
				"metallicRoughnessTexture":{
					"index":2
				}
			}
		}
	],
	"meshes":[
		{
			"name":"Cube.833",
			"primitives":[
				{
					"attributes":{
						"POSITION":0,
						"NORMAL":1,
						"TEXCOORD_0":2,
						"TEXCOORD_1":3,
						"COLOR_0":4
					},
					"indices":5,
					"material":0
				}
			]
		},
		{
			"name":"Cube.680",
			"primitives":[
				{
					"attributes":{
						"POSITION":6,
						"NORMAL":7,
						"TEXCOORD_0":8,
						"TEXCOORD_1":9,
						"COLOR_0":10
					},
					"indices":11,
					"material":0
				}
			]
		},
		{
			"name":"Cube.681",
			"primitives":[
				{
					"attributes":{
						"POSITION":12,
						"NORMAL":13,
						"TEXCOORD_0":14,
						"TEXCOORD_1":15,
						"COLOR_0":16
					},
					"indices":17,
					"material":0
				}
			]
		},
		{
			"name":"Cube.682",
			"primitives":[
				{
					"attributes":{
						"POSITION":18,
						"NORMAL":19,
						"TEXCOORD_0":20,
						"TEXCOORD_1":21,
						"COLOR_0":22
					},
					"indices":23,
					"material":0
				}
			]
		},
		{
			"name":"Cube.683",
			"primitives":[
				{
					"attributes":{
						"POSITION":24,
						"NORMAL":25,
						"TEXCOORD_0":26,
						"TEXCOORD_1":27,
						"COLOR_0":28
					},
					"indices":29,
					"material":0
				}
			]
		},
		{
			"name":"Cube.684",
			"primitives":[
				{
					"attributes":{
						"POSITION":30,
						"NORMAL":31,
						"TEXCOORD_0":32,
						"TEXCOORD_1":33,
						"COLOR_0":34
					},
					"indices":35,
					"material":0
				}
			]
		},
		{
			"name":"Cube.787",
			"primitives":[
				{
					"attributes":{
						"POSITION":36,
						"NORMAL":37,
						"TEXCOORD_0":38,
						"TEXCOORD_1":39,
						"COLOR_0":40
					},
					"indices":41,
					"material":0
				}
			]
		},
		{
			"name":"Cube.013",
			"primitives":[
				{
					"attributes":{
						"POSITION":42,
						"NORMAL":43,
						"TEXCOORD_0":44,
						"TEXCOORD_1":45,
						"COLOR_0":46
					},
					"indices":47,
					"material":1
				}
			]
		}
	],
	"textures":[
		{
			"sampler":0,
			"source":0
		},
		{
			"sampler":0,
			"source":1
		},
		{
			"sampler":0,
			"source":2
		}
	],
	"images":[
		{
			"mimeType":"image/png",
			"name":"T_MetalConcrete_Normal",
			"uri":"../../materials/T_MetalConcrete_Normal.png"
		},
		{
			"mimeType":"image/png",
			"name":"T_MetalConcrete_BaseColor",
			"uri":"../../materials/T_MetalConcrete_BaseColor.png"
		},
		{
			"mimeType":"image/png",
			"name":"T_MetalConcrete_ORM",
			"uri":"../../materials/T_MetalConcrete_ORM.png"
		}
	],
	"accessors":[
		{
			"bufferView":0,
			"componentType":5126,
			"count":75,
			"max":[
				1,
				-0.00459715723991394,
				1.4521636962890625
			],
			"min":[
				-1.452163577079773,
				-0.15000000596046448,
				-1.1000001430511475
			],
			"type":"VEC3"
		},
		{
			"bufferView":1,
			"componentType":5126,
			"count":75,
			"type":"VEC3"
		},
		{
			"bufferView":2,
			"componentType":5126,
			"count":75,
			"type":"VEC2"
		},
		{
			"bufferView":3,
			"componentType":5126,
			"count":75,
			"type":"VEC2"
		},
		{
			"bufferView":4,
			"componentType":5123,
			"count":75,
			"normalized":true,
			"type":"VEC4"
		},
		{
			"bufferView":5,
			"componentType":5123,
			"count":234,
			"type":"SCALAR"
		},
		{
			"bufferView":6,
			"componentType":5126,
			"count":31,
			"max":[
				-1.2461986541748047,
				2.9802322387695312e-08,
				-0.9127781987190247
			],
			"min":[
				-1.5099997520446777,
				-0.15000000596046448,
				-1.5000001192092896
			],
			"type":"VEC3"
		},
		{
			"bufferView":7,
			"componentType":5126,
			"count":31,
			"type":"VEC3"
		},
		{
			"bufferView":8,
			"componentType":5126,
			"count":31,
			"type":"VEC2"
		},
		{
			"bufferView":9,
			"componentType":5126,
			"count":31,
			"type":"VEC2"
		},
		{
			"bufferView":10,
			"componentType":5123,
			"count":31,
			"normalized":true,
			"type":"VEC4"
		},
		{
			"bufferView":11,
			"componentType":5123,
			"count":78,
			"type":"SCALAR"
		},
		{
			"bufferView":12,
			"componentType":5126,
			"count":31,
			"max":[
				1.4999998807907104,
				2.9802322387695312e-08,
				1.5100001096725464
			],
			"min":[
				0.9127780795097351,
				-0.15000000596046448,
				1.2461990118026733
			],
			"type":"VEC3"
		},
		{
			"bufferView":13,
			"componentType":5126,
			"count":31,
			"type":"VEC3"
		},
		{
			"bufferView":14,
			"componentType":5126,
			"count":31,
			"type":"VEC2"
		},
		{
			"bufferView":15,
			"componentType":5126,
			"count":31,
			"type":"VEC2"
		},
		{
			"bufferView":16,
			"componentType":5123,
			"count":31,
			"normalized":true,
			"type":"VEC4"
		},
		{
			"bufferView":17,
			"componentType":5123,
			"count":78,
			"type":"SCALAR"
		},
		{
			"bufferView":18,
			"componentType":5126,
			"count":56,
			"max":[
				1.5,
				2.9802322387695312e-08,
				-1.2255518436431885
			],
			"min":[
				-1.2999998331069946,
				-0.14978404343128204,
				-1.5
			],
			"type":"VEC3"
		},
		{
			"bufferView":19,
			"componentType":5126,
			"count":56,
			"type":"VEC3"
		},
		{
			"bufferView":20,
			"componentType":5126,
			"count":56,
			"type":"VEC2"
		},
		{
			"bufferView":21,
			"componentType":5126,
			"count":56,
			"type":"VEC2"
		},
		{
			"bufferView":22,
			"componentType":5123,
			"count":56,
			"normalized":true,
			"type":"VEC4"
		},
		{
			"bufferView":23,
			"componentType":5123,
			"count":132,
			"type":"SCALAR"
		},
		{
			"bufferView":24,
			"componentType":5126,
			"count":68,
			"max":[
				1.5,
				2.9802322387695312e-08,
				1.2999999523162842
			],
			"min":[
				1.2255511283874512,
				-0.15475215017795563,
				-1.2255518436431885
			],
			"type":"VEC3"
		},
		{
			"bufferView":25,
			"componentType":5126,
			"count":68,
			"type":"VEC3"
		},
		{
			"bufferView":26,
			"componentType":5126,
			"count":68,
			"type":"VEC2"
		},
		{
			"bufferView":27,
			"componentType":5126,
			"count":68,
			"type":"VEC2"
		},
		{
			"bufferView":28,
			"componentType":5123,
			"count":68,
			"normalized":true,
			"type":"VEC4"
		},
		{
			"bufferView":29,
			"componentType":5123,
			"count":120,
			"type":"SCALAR"
		},
		{
			"bufferView":30,
			"componentType":5126,
			"count":26,
			"max":[
				1.2289983034133911,
				-0.00020264089107513428,
				-0.8975696563720703
			],
			"min":[
				-1.2999999523162842,
				-0.1551898717880249,
				-1.254776954650879
			],
			"type":"VEC3"
		},
		{
			"bufferView":31,
			"componentType":5126,
			"count":26,
			"type":"VEC3"
		},
		{
			"bufferView":32,
			"componentType":5126,
			"count":26,
			"type":"VEC2"
		},
		{
			"bufferView":33,
			"componentType":5126,
			"count":26,
			"type":"VEC2"
		},
		{
			"bufferView":34,
			"componentType":5123,
			"count":26,
			"normalized":true,
			"type":"VEC4"
		},
		{
			"bufferView":35,
			"componentType":5123,
			"count":36,
			"type":"SCALAR"
		},
		{
			"bufferView":36,
			"componentType":5126,
			"count":26,
			"max":[
				1.2547768354415894,
				-0.00020267069339752197,
				1.2999998331069946
			],
			"min":[
				0.897569477558136,
				-0.1551898866891861,
				-1.2289984226226807
			],
			"type":"VEC3"
		},
		{
			"bufferView":37,
			"componentType":5126,
			"count":26,
			"type":"VEC3"
		},
		{
			"bufferView":38,
			"componentType":5126,
			"count":26,
			"type":"VEC2"
		},
		{
			"bufferView":39,
			"componentType":5126,
			"count":26,
			"type":"VEC2"
		},
		{
			"bufferView":40,
			"componentType":5123,
			"count":26,
			"normalized":true,
			"type":"VEC4"
		},
		{
			"bufferView":41,
			"componentType":5123,
			"count":36,
			"type":"SCALAR"
		},
		{
			"bufferView":42,
			"componentType":5126,
			"count":193,
			"max":[
				1.5,
				2.9802322387695312e-08,
				1.5100001096725464
			],
			"min":[
				-1.5099997520446777,
				-0.15000000596046448,
				-1.5000001192092896
			],
			"type":"VEC3"
		},
		{
			"bufferView":43,
			"componentType":5126,
			"count":193,
			"type":"VEC3"
		},
		{
			"bufferView":44,
			"componentType":5126,
			"count":193,
			"type":"VEC2"
		},
		{
			"bufferView":45,
			"componentType":5126,
			"count":193,
			"type":"VEC2"
		},
		{
			"bufferView":46,
			"componentType":5123,
			"count":193,
			"normalized":true,
			"type":"VEC4"
		},
		{
			"bufferView":47,
			"componentType":5123,
			"count":639,
			"type":"SCALAR"
		}
	],
	"bufferViews":[
		{
			"buffer":0,
			"byteLength":900,
			"byteOffset":0,
			"target":34962
		},
		{
			"buffer":0,
			"byteLength":900,
			"byteOffset":900,
			"target":34962
		},
		{
			"buffer":0,
			"byteLength":600,
			"byteOffset":1800,
			"target":34962
		},
		{
			"buffer":0,
			"byteLength":600,
			"byteOffset":2400,
			"target":34962
		},
		{
			"buffer":0,
			"byteLength":600,
			"byteOffset":3000,
			"target":34962
		},
		{
			"buffer":0,
			"byteLength":468,
			"byteOffset":3600,
			"target":34963
		},
		{
			"buffer":0,
			"byteLength":372,
			"byteOffset":4068,
			"target":34962
		},
		{
			"buffer":0,
			"byteLength":372,
			"byteOffset":4440,
			"target":34962
		},
		{
			"buffer":0,
			"byteLength":248,
			"byteOffset":4812,
			"target":34962
		},
		{
			"buffer":0,
			"byteLength":248,
			"byteOffset":5060,
			"target":34962
		},
		{
			"buffer":0,
			"byteLength":248,
			"byteOffset":5308,
			"target":34962
		},
		{
			"buffer":0,
			"byteLength":156,
			"byteOffset":5556,
			"target":34963
		},
		{
			"buffer":0,
			"byteLength":372,
			"byteOffset":5712,
			"target":34962
		},
		{
			"buffer":0,
			"byteLength":372,
			"byteOffset":6084,
			"target":34962
		},
		{
			"buffer":0,
			"byteLength":248,
			"byteOffset":6456,
			"target":34962
		},
		{
			"buffer":0,
			"byteLength":248,
			"byteOffset":6704,
			"target":34962
		},
		{
			"buffer":0,
			"byteLength":248,
			"byteOffset":6952,
			"target":34962
		},
		{
			"buffer":0,
			"byteLength":156,
			"byteOffset":7200,
			"target":34963
		},
		{
			"buffer":0,
			"byteLength":672,
			"byteOffset":7356,
			"target":34962
		},
		{
			"buffer":0,
			"byteLength":672,
			"byteOffset":8028,
			"target":34962
		},
		{
			"buffer":0,
			"byteLength":448,
			"byteOffset":8700,
			"target":34962
		},
		{
			"buffer":0,
			"byteLength":448,
			"byteOffset":9148,
			"target":34962
		},
		{
			"buffer":0,
			"byteLength":448,
			"byteOffset":9596,
			"target":34962
		},
		{
			"buffer":0,
			"byteLength":264,
			"byteOffset":10044,
			"target":34963
		},
		{
			"buffer":0,
			"byteLength":816,
			"byteOffset":10308,
			"target":34962
		},
		{
			"buffer":0,
			"byteLength":816,
			"byteOffset":11124,
			"target":34962
		},
		{
			"buffer":0,
			"byteLength":544,
			"byteOffset":11940,
			"target":34962
		},
		{
			"buffer":0,
			"byteLength":544,
			"byteOffset":12484,
			"target":34962
		},
		{
			"buffer":0,
			"byteLength":544,
			"byteOffset":13028,
			"target":34962
		},
		{
			"buffer":0,
			"byteLength":240,
			"byteOffset":13572,
			"target":34963
		},
		{
			"buffer":0,
			"byteLength":312,
			"byteOffset":13812,
			"target":34962
		},
		{
			"buffer":0,
			"byteLength":312,
			"byteOffset":14124,
			"target":34962
		},
		{
			"buffer":0,
			"byteLength":208,
			"byteOffset":14436,
			"target":34962
		},
		{
			"buffer":0,
			"byteLength":208,
			"byteOffset":14644,
			"target":34962
		},
		{
			"buffer":0,
			"byteLength":208,
			"byteOffset":14852,
			"target":34962
		},
		{
			"buffer":0,
			"byteLength":72,
			"byteOffset":15060,
			"target":34963
		},
		{
			"buffer":0,
			"byteLength":312,
			"byteOffset":15132,
			"target":34962
		},
		{
			"buffer":0,
			"byteLength":312,
			"byteOffset":15444,
			"target":34962
		},
		{
			"buffer":0,
			"byteLength":208,
			"byteOffset":15756,
			"target":34962
		},
		{
			"buffer":0,
			"byteLength":208,
			"byteOffset":15964,
			"target":34962
		},
		{
			"buffer":0,
			"byteLength":208,
			"byteOffset":16172,
			"target":34962
		},
		{
			"buffer":0,
			"byteLength":72,
			"byteOffset":16380,
			"target":34963
		},
		{
			"buffer":0,
			"byteLength":2316,
			"byteOffset":16452,
			"target":34962
		},
		{
			"buffer":0,
			"byteLength":2316,
			"byteOffset":18768,
			"target":34962
		},
		{
			"buffer":0,
			"byteLength":1544,
			"byteOffset":21084,
			"target":34962
		},
		{
			"buffer":0,
			"byteLength":1544,
			"byteOffset":22628,
			"target":34962
		},
		{
			"buffer":0,
			"byteLength":1544,
			"byteOffset":24172,
			"target":34962
		},
		{
			"buffer":0,
			"byteLength":1278,
			"byteOffset":25716,
			"target":34963
		}
	],
	"samplers":[
		{
			"magFilter":9729,
			"minFilter":9987
		}
	],
	"buffers":[
		{
			"byteLength":26996,
			"uri":"Sidewalk_CornerRamp_Round_3m.bin"
		}
	]
}
