{
	"asset":{
		"generator":"Khronos glTF Blender I/O v4.3.47",
		"version":"2.0"
	},
	"scene":0,
	"scenes":[
		{
			"name":"Scene",
			"nodes":[
				1
			]
		}
	],
	"nodes":[
		{
			"mesh":0,
			"name":"Sidewalk_Corner_Round_1m_1-convcolonly"
		},
		{
			"children":[
				0
			],
			"mesh":1,
			"name":"Sidewalk_Corner_Round_1m"
		}
	],
	"materials":[
		{
			"doubleSided":true,
			"name":"Collision",
			"pbrMetallicRoughness":{
				"baseColorFactor":[
					0.036788325756788254,
					0.5504099726676941,
					0.8000074625015259,
					1
				],
				"metallicFactor":0
			}
		},
		{
			"doubleSided":true,
			"name":"MI_Trim_MetalConcrete",
			"normalTexture":{
				"index":0
			},
			"pbrMetallicRoughness":{
				"baseColorTexture":{
					"index":1
				},
				"metallicRoughnessTexture":{
					"index":2
				}
			}
		}
	],
	"meshes":[
		{
			"name":"Cube.821",
			"primitives":[
				{
					"attributes":{
						"POSITION":0,
						"NORMAL":1,
						"TEXCOORD_0":2,
						"TEXCOORD_1":3,
						"COLOR_0":4
					},
					"indices":5,
					"material":0
				}
			]
		},
		{
			"name":"Cube.122",
			"primitives":[
				{
					"attributes":{
						"POSITION":6,
						"NORMAL":7,
						"TEXCOORD_0":8,
						"TEXCOORD_1":9,
						"COLOR_0":10
					},
					"indices":11,
					"material":1
				}
			]
		}
	],
	"textures":[
		{
			"sampler":0,
			"source":0
		},
		{
			"sampler":0,
			"source":1
		},
		{
			"sampler":0,
			"source":2
		}
	],
	"images":[
		{
			"mimeType":"image/png",
			"name":"T_MetalConcrete_Normal",
			"uri":"../../materials/T_MetalConcrete_Normal.png"
		},
		{
			"mimeType":"image/png",
			"name":"T_MetalConcrete_BaseColor",
			"uri":"../../materials/T_MetalConcrete_BaseColor.png"
		},
		{
			"mimeType":"image/png",
			"name":"T_MetalConcrete_ORM",
			"uri":"../../materials/T_MetalConcrete_ORM.png"
		}
	],
	"accessors":[
		{
			"bufferView":0,
			"componentType":5126,
			"count":76,
			"max":[
				0.5,
				2.9802322387695312e-08,
				0.5099996328353882
			],
			"min":[
				-0.5099998712539673,
				-0.15000000596046448,
				-0.5
			],
			"type":"VEC3"
		},
		{
			"bufferView":1,
			"componentType":5126,
			"count":76,
			"type":"VEC3"
		},
		{
			"bufferView":2,
			"componentType":5126,
			"count":76,
			"type":"VEC2"
		},
		{
			"bufferView":3,
			"componentType":5126,
			"count":76,
			"type":"VEC2"
		},
		{
			"bufferView":4,
			"componentType":5123,
			"count":76,
			"normalized":true,
			"type":"VEC4"
		},
		{
			"bufferView":5,
			"componentType":5123,
			"count":246,
			"type":"SCALAR"
		},
		{
			"bufferView":6,
			"componentType":5126,
			"count":79,
			"max":[
				0.5,
				2.9802322387695312e-08,
				0.5099996328353882
			],
			"min":[
				-0.5099998712539673,
				-0.15000000596046448,
				-0.5
			],
			"type":"VEC3"
		},
		{
			"bufferView":7,
			"componentType":5126,
			"count":79,
			"type":"VEC3"
		},
		{
			"bufferView":8,
			"componentType":5126,
			"count":79,
			"type":"VEC2"
		},
		{
			"bufferView":9,
			"componentType":5126,
			"count":79,
			"type":"VEC2"
		},
		{
			"bufferView":10,
			"componentType":5123,
			"count":79,
			"normalized":true,
			"type":"VEC4"
		},
		{
			"bufferView":11,
			"componentType":5123,
			"count":249,
			"type":"SCALAR"
		}
	],
	"bufferViews":[
		{
			"buffer":0,
			"byteLength":912,
			"byteOffset":0,
			"target":34962
		},
		{
			"buffer":0,
			"byteLength":912,
			"byteOffset":912,
			"target":34962
		},
		{
			"buffer":0,
			"byteLength":608,
			"byteOffset":1824,
			"target":34962
		},
		{
			"buffer":0,
			"byteLength":608,
			"byteOffset":2432,
			"target":34962
		},
		{
			"buffer":0,
			"byteLength":608,
			"byteOffset":3040,
			"target":34962
		},
		{
			"buffer":0,
			"byteLength":492,
			"byteOffset":3648,
			"target":34963
		},
		{
			"buffer":0,
			"byteLength":948,
			"byteOffset":4140,
			"target":34962
		},
		{
			"buffer":0,
			"byteLength":948,
			"byteOffset":5088,
			"target":34962
		},
		{
			"buffer":0,
			"byteLength":632,
			"byteOffset":6036,
			"target":34962
		},
		{
			"buffer":0,
			"byteLength":632,
			"byteOffset":6668,
			"target":34962
		},
		{
			"buffer":0,
			"byteLength":632,
			"byteOffset":7300,
			"target":34962
		},
		{
			"buffer":0,
			"byteLength":498,
			"byteOffset":7932,
			"target":34963
		}
	],
	"samplers":[
		{
			"magFilter":9729,
			"minFilter":9987
		}
	],
	"buffers":[
		{
			"byteLength":8432,
			"uri":"Sidewalk_Corner_Round_1m.bin"
		}
	]
}
