{
	"asset":{
		"generator":"Khronos glTF Blender I/O v4.3.47",
		"version":"2.0"
	},
	"scene":0,
	"scenes":[
		{
			"name":"Scene",
			"nodes":[
				4
			]
		}
	],
	"nodes":[
		{
			"mesh":0,
			"name":"Stairs_Rails_Metal_1-convcolonly"
		},
		{
			"mesh":1,
			"name":"Stairs_Rails_Metal_2-convcolonly"
		},
		{
			"mesh":2,
			"name":"Stairs_Rails_Metal_3-convcolonly"
		},
		{
			"mesh":3,
			"name":"Stairs_Rails_Metal_4-convcolonly"
		},
		{
			"children":[
				0,
				1,
				2,
				3
			],
			"mesh":4,
			"name":"Stairs_Rails_Metal"
		}
	],
	"materials":[
		{
			"doubleSided":true,
			"name":"Collision",
			"pbrMetallicRoughness":{
				"baseColorFactor":[
					0.036788325756788254,
					0.5504099726676941,
					0.8000074625015259,
					1
				],
				"metallicFactor":0
			}
		},
		{
			"doubleSided":true,
			"name":"MI_Trim_MetalConcrete",
			"normalTexture":{
				"index":0
			},
			"pbrMetallicRoughness":{
				"baseColorTexture":{
					"index":1
				},
				"metallicRoughnessTexture":{
					"index":2
				}
			}
		}
	],
	"meshes":[
		{
			"name":"Cube.125",
			"primitives":[
				{
					"attributes":{
						"POSITION":0,
						"NORMAL":1,
						"TEXCOORD_0":2
					},
					"indices":3,
					"material":0
				}
			]
		},
		{
			"name":"Cube.131",
			"primitives":[
				{
					"attributes":{
						"POSITION":4,
						"NORMAL":5,
						"TEXCOORD_0":6
					},
					"indices":7,
					"material":0
				}
			]
		},
		{
			"name":"Cube.136",
			"primitives":[
				{
					"attributes":{
						"POSITION":8,
						"NORMAL":9,
						"TEXCOORD_0":10
					},
					"indices":11,
					"material":0
				}
			]
		},
		{
			"name":"Cube.138",
			"primitives":[
				{
					"attributes":{
						"POSITION":12,
						"NORMAL":13,
						"TEXCOORD_0":14
					},
					"indices":15,
					"material":0
				}
			]
		},
		{
			"name":"Cube.211",
			"primitives":[
				{
					"attributes":{
						"POSITION":16,
						"NORMAL":17,
						"TEXCOORD_0":18,
						"TEXCOORD_1":19
					},
					"indices":20,
					"material":1
				}
			]
		}
	],
	"textures":[
		{
			"sampler":0,
			"source":0
		},
		{
			"sampler":0,
			"source":1
		},
		{
			"sampler":0,
			"source":2
		}
	],
	"images":[
		{
			"mimeType":"image/png",
			"name":"T_MetalConcrete_Normal",
			"uri":"../../materials/T_MetalConcrete_Normal.png"
		},
		{
			"mimeType":"image/png",
			"name":"T_MetalConcrete_BaseColor",
			"uri":"../../materials/T_MetalConcrete_BaseColor.png"
		},
		{
			"mimeType":"image/png",
			"name":"T_MetalConcrete_ORM",
			"uri":"../../materials/T_MetalConcrete_ORM.png"
		}
	],
	"accessors":[
		{
			"bufferView":0,
			"componentType":5126,
			"count":34,
			"max":[
				-0.887325644493103,
				1.974538803100586,
				2.0513224601745605
			],
			"min":[
				-0.979485273361206,
				-4.470348358154297e-08,
				-0.001073598861694336
			],
			"type":"VEC3"
		},
		{
			"bufferView":1,
			"componentType":5126,
			"count":34,
			"type":"VEC3"
		},
		{
			"bufferView":2,
			"componentType":5126,
			"count":34,
			"type":"VEC2"
		},
		{
			"bufferView":3,
			"componentType":5123,
			"count":60,
			"type":"SCALAR"
		},
		{
			"bufferView":4,
			"componentType":5126,
			"count":34,
			"max":[
				0.9888955354690552,
				1.974538803100586,
				2.0513224601745605
			],
			"min":[
				0.8856980204582214,
				-4.470348358154297e-08,
				-0.001073598861694336
			],
			"type":"VEC3"
		},
		{
			"bufferView":5,
			"componentType":5126,
			"count":34,
			"type":"VEC3"
		},
		{
			"bufferView":6,
			"componentType":5126,
			"count":34,
			"type":"VEC2"
		},
		{
			"bufferView":7,
			"componentType":5123,
			"count":60,
			"type":"SCALAR"
		},
		{
			"bufferView":8,
			"componentType":5126,
			"count":24,
			"max":[
				-0.887325644493103,
				1.164940595626831,
				2.3057360649108887
			],
			"min":[
				-0.9794849753379822,
				-4.470348358154297e-08,
				2.0513224601745605
			],
			"type":"VEC3"
		},
		{
			"bufferView":9,
			"componentType":5126,
			"count":24,
			"type":"VEC3"
		},
		{
			"bufferView":10,
			"componentType":5126,
			"count":24,
			"type":"VEC2"
		},
		{
			"bufferView":11,
			"componentType":5123,
			"count":36,
			"type":"SCALAR"
		},
		{
			"bufferView":12,
			"componentType":5126,
			"count":24,
			"max":[
				0.9888951182365417,
				1.164940595626831,
				2.3057360649108887
			],
			"min":[
				0.8856980204582214,
				-4.470348358154297e-08,
				2.0513224601745605
			],
			"type":"VEC3"
		},
		{
			"bufferView":13,
			"componentType":5126,
			"count":24,
			"type":"VEC3"
		},
		{
			"bufferView":14,
			"componentType":5126,
			"count":24,
			"type":"VEC2"
		},
		{
			"bufferView":15,
			"componentType":5123,
			"count":36,
			"type":"SCALAR"
		},
		{
			"bufferView":16,
			"componentType":5126,
			"count":888,
			"max":[
				0.9820034503936768,
				1.9694111347198486,
				2.3060078620910645
			],
			"min":[
				-0.9820034503936768,
				-0.01194706466048956,
				0
			],
			"type":"VEC3"
		},
		{
			"bufferView":17,
			"componentType":5126,
			"count":888,
			"type":"VEC3"
		},
		{
			"bufferView":18,
			"componentType":5126,
			"count":888,
			"type":"VEC2"
		},
		{
			"bufferView":19,
			"componentType":5126,
			"count":888,
			"type":"VEC2"
		},
		{
			"bufferView":20,
			"componentType":5123,
			"count":1692,
			"type":"SCALAR"
		}
	],
	"bufferViews":[
		{
			"buffer":0,
			"byteLength":408,
			"byteOffset":0,
			"target":34962
		},
		{
			"buffer":0,
			"byteLength":408,
			"byteOffset":408,
			"target":34962
		},
		{
			"buffer":0,
			"byteLength":272,
			"byteOffset":816,
			"target":34962
		},
		{
			"buffer":0,
			"byteLength":120,
			"byteOffset":1088,
			"target":34963
		},
		{
			"buffer":0,
			"byteLength":408,
			"byteOffset":1208,
			"target":34962
		},
		{
			"buffer":0,
			"byteLength":408,
			"byteOffset":1616,
			"target":34962
		},
		{
			"buffer":0,
			"byteLength":272,
			"byteOffset":2024,
			"target":34962
		},
		{
			"buffer":0,
			"byteLength":120,
			"byteOffset":2296,
			"target":34963
		},
		{
			"buffer":0,
			"byteLength":288,
			"byteOffset":2416,
			"target":34962
		},
		{
			"buffer":0,
			"byteLength":288,
			"byteOffset":2704,
			"target":34962
		},
		{
			"buffer":0,
			"byteLength":192,
			"byteOffset":2992,
			"target":34962
		},
		{
			"buffer":0,
			"byteLength":72,
			"byteOffset":3184,
			"target":34963
		},
		{
			"buffer":0,
			"byteLength":288,
			"byteOffset":3256,
			"target":34962
		},
		{
			"buffer":0,
			"byteLength":288,
			"byteOffset":3544,
			"target":34962
		},
		{
			"buffer":0,
			"byteLength":192,
			"byteOffset":3832,
			"target":34962
		},
		{
			"buffer":0,
			"byteLength":72,
			"byteOffset":4024,
			"target":34963
		},
		{
			"buffer":0,
			"byteLength":10656,
			"byteOffset":4096,
			"target":34962
		},
		{
			"buffer":0,
			"byteLength":10656,
			"byteOffset":14752,
			"target":34962
		},
		{
			"buffer":0,
			"byteLength":7104,
			"byteOffset":25408,
			"target":34962
		},
		{
			"buffer":0,
			"byteLength":7104,
			"byteOffset":32512,
			"target":34962
		},
		{
			"buffer":0,
			"byteLength":3384,
			"byteOffset":39616,
			"target":34963
		}
	],
	"samplers":[
		{
			"magFilter":9729,
			"minFilter":9987
		}
	],
	"buffers":[
		{
			"byteLength":43000,
			"uri":"Stairs_Rails_Metal.bin"
		}
	]
}
