{
	"asset":{
		"generator":"Khronos glTF Blender I/O v4.3.47",
		"version":"2.0"
	},
	"scene":0,
	"scenes":[
		{
			"name":"Scene",
			"nodes":[
				1
			]
		}
	],
	"nodes":[
		{
			"mesh":0,
			"name":"Stairs_Entrance_Marble_1-convcolonly"
		},
		{
			"children":[
				0
			],
			"mesh":1,
			"name":"Stairs_Entrance_Marble"
		}
	],
	"materials":[
		{
			"doubleSided":true,
			"name":"Collision",
			"pbrMetallicRoughness":{
				"baseColorFactor":[
					0.036788325756788254,
					0.5504099726676941,
					0.8000074625015259,
					1
				],
				"metallicFactor":0
			}
		},
		{
			"doubleSided":true,
			"name":"MI_Trim",
			"normalTexture":{
				"index":0
			},
			"pbrMetallicRoughness":{
				"baseColorTexture":{
					"index":1
				},
				"metallicRoughnessTexture":{
					"index":2
				}
			}
		}
	],
	"meshes":[
		{
			"name":"Cube.202",
			"primitives":[
				{
					"attributes":{
						"POSITION":0,
						"NORMAL":1,
						"TEXCOORD_0":2,
						"TEXCOORD_1":3
					},
					"indices":4,
					"material":0
				}
			]
		},
		{
			"name":"Cube.085",
			"primitives":[
				{
					"attributes":{
						"POSITION":5,
						"NORMAL":6,
						"TEXCOORD_0":7,
						"TEXCOORD_1":8
					},
					"indices":9,
					"material":1
				}
			]
		}
	],
	"textures":[
		{
			"sampler":0,
			"source":0
		},
		{
			"sampler":0,
			"source":1
		},
		{
			"sampler":0,
			"source":2
		}
	],
	"images":[
		{
			"mimeType":"image/png",
			"name":"T_Trim_Normal",
			"uri":"../../materials/T_Trim_Normal.png"
		},
		{
			"mimeType":"image/png",
			"name":"T_Trim_BaseColor",
			"uri":"../../materials/T_Trim_BaseColor.png"
		},
		{
			"mimeType":"image/png",
			"name":"T_Trim_ORM",
			"uri":"../../materials/T_Trim_ORM.png"
		}
	],
	"accessors":[
		{
			"bufferView":0,
			"componentType":5126,
			"count":22,
			"max":[
				1.000000238418579,
				1,
				2.4000000953674316
			],
			"min":[
				-1.000000238418579,
				0,
				5.587935447692871e-09
			],
			"type":"VEC3"
		},
		{
			"bufferView":1,
			"componentType":5126,
			"count":22,
			"type":"VEC3"
		},
		{
			"bufferView":2,
			"componentType":5126,
			"count":22,
			"type":"VEC2"
		},
		{
			"bufferView":3,
			"componentType":5126,
			"count":22,
			"type":"VEC2"
		},
		{
			"bufferView":4,
			"componentType":5123,
			"count":36,
			"type":"SCALAR"
		},
		{
			"bufferView":5,
			"componentType":5126,
			"count":238,
			"max":[
				0.9999998211860657,
				1.007594108581543,
				2.0806021690368652
			],
			"min":[
				-0.9999997615814209,
				0,
				-0.0013655200600624084
			],
			"type":"VEC3"
		},
		{
			"bufferView":6,
			"componentType":5126,
			"count":238,
			"type":"VEC3"
		},
		{
			"bufferView":7,
			"componentType":5126,
			"count":238,
			"type":"VEC2"
		},
		{
			"bufferView":8,
			"componentType":5126,
			"count":238,
			"type":"VEC2"
		},
		{
			"bufferView":9,
			"componentType":5123,
			"count":540,
			"type":"SCALAR"
		}
	],
	"bufferViews":[
		{
			"buffer":0,
			"byteLength":264,
			"byteOffset":0,
			"target":34962
		},
		{
			"buffer":0,
			"byteLength":264,
			"byteOffset":264,
			"target":34962
		},
		{
			"buffer":0,
			"byteLength":176,
			"byteOffset":528,
			"target":34962
		},
		{
			"buffer":0,
			"byteLength":176,
			"byteOffset":704,
			"target":34962
		},
		{
			"buffer":0,
			"byteLength":72,
			"byteOffset":880,
			"target":34963
		},
		{
			"buffer":0,
			"byteLength":2856,
			"byteOffset":952,
			"target":34962
		},
		{
			"buffer":0,
			"byteLength":2856,
			"byteOffset":3808,
			"target":34962
		},
		{
			"buffer":0,
			"byteLength":1904,
			"byteOffset":6664,
			"target":34962
		},
		{
			"buffer":0,
			"byteLength":1904,
			"byteOffset":8568,
			"target":34962
		},
		{
			"buffer":0,
			"byteLength":1080,
			"byteOffset":10472,
			"target":34963
		}
	],
	"samplers":[
		{
			"magFilter":9729,
			"minFilter":9987
		}
	],
	"buffers":[
		{
			"byteLength":11552,
			"uri":"Stairs_Entrance_Marble.bin"
		}
	]
}
