{
	"asset":{
		"generator":"Khronos glTF Blender I/O v4.3.47",
		"version":"2.0"
	},
	"scene":0,
	"scenes":[
		{
			"name":"Scene",
			"nodes":[
				4
			]
		}
	],
	"nodes":[
		{
			"mesh":0,
			"name":"Stairs_Rails_Marble_1-convcolonly"
		},
		{
			"mesh":1,
			"name":"Stairs_Rails_Marble_2-convcolonly"
		},
		{
			"mesh":2,
			"name":"Stairs_Rails_Marble_3-convcolonly"
		},
		{
			"mesh":3,
			"name":"Stairs_Rails_Marble_4-convcolonly"
		},
		{
			"children":[
				0,
				1,
				2,
				3
			],
			"mesh":4,
			"name":"Stairs_Rails_Marble"
		}
	],
	"materials":[
		{
			"doubleSided":true,
			"name":"Collision",
			"pbrMetallicRoughness":{
				"baseColorFactor":[
					0.036788325756788254,
					0.5504099726676941,
					0.8000074625015259,
					1
				],
				"metallicFactor":0
			}
		},
		{
			"doubleSided":true,
			"name":"MI_Trim",
			"normalTexture":{
				"index":0
			},
			"pbrMetallicRoughness":{
				"baseColorTexture":{
					"index":1
				},
				"metallicRoughnessTexture":{
					"index":2
				}
			}
		}
	],
	"meshes":[
		{
			"name":"Cube.049",
			"primitives":[
				{
					"attributes":{
						"POSITION":0,
						"NORMAL":1,
						"TEXCOORD_0":2
					},
					"indices":3,
					"material":0
				}
			]
		},
		{
			"name":"Cube.070",
			"primitives":[
				{
					"attributes":{
						"POSITION":4,
						"NORMAL":5,
						"TEXCOORD_0":6
					},
					"indices":7,
					"material":0
				}
			]
		},
		{
			"name":"Cube.071",
			"primitives":[
				{
					"attributes":{
						"POSITION":8,
						"NORMAL":9,
						"TEXCOORD_0":10
					},
					"indices":11,
					"material":0
				}
			]
		},
		{
			"name":"Cube.076",
			"primitives":[
				{
					"attributes":{
						"POSITION":12,
						"NORMAL":13,
						"TEXCOORD_0":14
					},
					"indices":15,
					"material":0
				}
			]
		},
		{
			"name":"Cube.216",
			"primitives":[
				{
					"attributes":{
						"POSITION":16,
						"NORMAL":17,
						"TEXCOORD_0":18,
						"TEXCOORD_1":19
					},
					"indices":20,
					"material":1
				}
			]
		}
	],
	"textures":[
		{
			"sampler":0,
			"source":0
		},
		{
			"sampler":0,
			"source":1
		},
		{
			"sampler":0,
			"source":2
		}
	],
	"images":[
		{
			"mimeType":"image/png",
			"name":"T_Trim_Normal",
			"uri":"../../materials/T_Trim_Normal.png"
		},
		{
			"mimeType":"image/png",
			"name":"T_Trim_BaseColor",
			"uri":"../../materials/T_Trim_BaseColor.png"
		},
		{
			"mimeType":"image/png",
			"name":"T_Trim_ORM",
			"uri":"../../materials/T_Trim_ORM.png"
		}
	],
	"accessors":[
		{
			"bufferView":0,
			"componentType":5126,
			"count":34,
			"max":[
				-0.961982250213623,
				1.7566232681274414,
				2.0513224601745605
			],
			"min":[
				-1.1745736598968506,
				0,
				-0.001073598861694336
			],
			"type":"VEC3"
		},
		{
			"bufferView":1,
			"componentType":5126,
			"count":34,
			"type":"VEC3"
		},
		{
			"bufferView":2,
			"componentType":5126,
			"count":34,
			"type":"VEC2"
		},
		{
			"bufferView":3,
			"componentType":5123,
			"count":60,
			"type":"SCALAR"
		},
		{
			"bufferView":4,
			"componentType":5126,
			"count":34,
			"max":[
				1.1745736598968506,
				1.7566232681274414,
				2.0513224601745605
			],
			"min":[
				0.961982250213623,
				0,
				-0.001073598861694336
			],
			"type":"VEC3"
		},
		{
			"bufferView":5,
			"componentType":5126,
			"count":34,
			"type":"VEC3"
		},
		{
			"bufferView":6,
			"componentType":5126,
			"count":34,
			"type":"VEC2"
		},
		{
			"bufferView":7,
			"componentType":5123,
			"count":60,
			"type":"SCALAR"
		},
		{
			"bufferView":8,
			"componentType":5126,
			"count":24,
			"max":[
				-0.961982250213623,
				0.9355821013450623,
				2.40295672416687
			],
			"min":[
				-1.1745729446411133,
				0,
				2.0513224601745605
			],
			"type":"VEC3"
		},
		{
			"bufferView":9,
			"componentType":5126,
			"count":24,
			"type":"VEC3"
		},
		{
			"bufferView":10,
			"componentType":5126,
			"count":24,
			"type":"VEC2"
		},
		{
			"bufferView":11,
			"componentType":5123,
			"count":36,
			"type":"SCALAR"
		},
		{
			"bufferView":12,
			"componentType":5126,
			"count":24,
			"max":[
				1.1745729446411133,
				0.9355821013450623,
				2.40295672416687
			],
			"min":[
				0.961982250213623,
				0,
				2.0513224601745605
			],
			"type":"VEC3"
		},
		{
			"bufferView":13,
			"componentType":5126,
			"count":24,
			"type":"VEC3"
		},
		{
			"bufferView":14,
			"componentType":5126,
			"count":24,
			"type":"VEC2"
		},
		{
			"bufferView":15,
			"componentType":5123,
			"count":36,
			"type":"SCALAR"
		},
		{
			"bufferView":16,
			"componentType":5126,
			"count":472,
			"max":[
				1.1586179733276367,
				1.742659091949463,
				2.4000000953674316
			],
			"min":[
				-1.1586179733276367,
				0,
				0
			],
			"type":"VEC3"
		},
		{
			"bufferView":17,
			"componentType":5126,
			"count":472,
			"type":"VEC3"
		},
		{
			"bufferView":18,
			"componentType":5126,
			"count":472,
			"type":"VEC2"
		},
		{
			"bufferView":19,
			"componentType":5126,
			"count":472,
			"type":"VEC2"
		},
		{
			"bufferView":20,
			"componentType":5123,
			"count":1248,
			"type":"SCALAR"
		}
	],
	"bufferViews":[
		{
			"buffer":0,
			"byteLength":408,
			"byteOffset":0,
			"target":34962
		},
		{
			"buffer":0,
			"byteLength":408,
			"byteOffset":408,
			"target":34962
		},
		{
			"buffer":0,
			"byteLength":272,
			"byteOffset":816,
			"target":34962
		},
		{
			"buffer":0,
			"byteLength":120,
			"byteOffset":1088,
			"target":34963
		},
		{
			"buffer":0,
			"byteLength":408,
			"byteOffset":1208,
			"target":34962
		},
		{
			"buffer":0,
			"byteLength":408,
			"byteOffset":1616,
			"target":34962
		},
		{
			"buffer":0,
			"byteLength":272,
			"byteOffset":2024,
			"target":34962
		},
		{
			"buffer":0,
			"byteLength":120,
			"byteOffset":2296,
			"target":34963
		},
		{
			"buffer":0,
			"byteLength":288,
			"byteOffset":2416,
			"target":34962
		},
		{
			"buffer":0,
			"byteLength":288,
			"byteOffset":2704,
			"target":34962
		},
		{
			"buffer":0,
			"byteLength":192,
			"byteOffset":2992,
			"target":34962
		},
		{
			"buffer":0,
			"byteLength":72,
			"byteOffset":3184,
			"target":34963
		},
		{
			"buffer":0,
			"byteLength":288,
			"byteOffset":3256,
			"target":34962
		},
		{
			"buffer":0,
			"byteLength":288,
			"byteOffset":3544,
			"target":34962
		},
		{
			"buffer":0,
			"byteLength":192,
			"byteOffset":3832,
			"target":34962
		},
		{
			"buffer":0,
			"byteLength":72,
			"byteOffset":4024,
			"target":34963
		},
		{
			"buffer":0,
			"byteLength":5664,
			"byteOffset":4096,
			"target":34962
		},
		{
			"buffer":0,
			"byteLength":5664,
			"byteOffset":9760,
			"target":34962
		},
		{
			"buffer":0,
			"byteLength":3776,
			"byteOffset":15424,
			"target":34962
		},
		{
			"buffer":0,
			"byteLength":3776,
			"byteOffset":19200,
			"target":34962
		},
		{
			"buffer":0,
			"byteLength":2496,
			"byteOffset":22976,
			"target":34963
		}
	],
	"samplers":[
		{
			"magFilter":9729,
			"minFilter":9987
		}
	],
	"buffers":[
		{
			"byteLength":25472,
			"uri":"Stairs_Rails_Marble.bin"
		}
	]
}
