{
	"asset":{
		"generator":"Khronos glTF Blender I/O v4.3.47",
		"version":"2.0"
	},
	"scene":0,
	"scenes":[
		{
			"name":"Scene",
			"nodes":[
				1
			]
		}
	],
	"nodes":[
		{
			"mesh":0,
			"name":"Street_4Lane_noSidewalk_1-convcolonly"
		},
		{
			"children":[
				0
			],
			"mesh":1,
			"name":"Street_4Lane_noSidewalk"
		}
	],
	"materials":[
		{
			"doubleSided":true,
			"name":"Collision",
			"pbrMetallicRoughness":{
				"baseColorFactor":[
					0.036788325756788254,
					0.5504099726676941,
					0.8000074625015259,
					1
				],
				"metallicFactor":0
			}
		},
		{
			"doubleSided":true,
			"name":"MI_Asphalt",
			"normalTexture":{
				"index":0
			},
			"pbrMetallicRoughness":{
				"baseColorTexture":{
					"index":1
				},
				"metallicRoughnessTexture":{
					"index":2
				}
			}
		},
		{
			"alphaMode":"BLEND",
			"doubleSided":true,
			"name":"MI_StreetDecals",
			"pbrMetallicRoughness":{
				"baseColorTexture":{
					"index":3
				},
				"metallicFactor":0,
				"roughnessFactor":0.5
			}
		}
	],
	"meshes":[
		{
			"name":"Plane.233",
			"primitives":[
				{
					"attributes":{
						"POSITION":0,
						"NORMAL":1,
						"TEXCOORD_0":2,
						"TEXCOORD_1":3,
						"COLOR_0":4
					},
					"indices":5,
					"material":0
				}
			]
		},
		{
			"name":"Plane.232",
			"primitives":[
				{
					"attributes":{
						"POSITION":6,
						"NORMAL":7,
						"TEXCOORD_0":8,
						"TEXCOORD_1":9,
						"COLOR_0":10
					},
					"indices":11,
					"material":1
				},
				{
					"attributes":{
						"POSITION":12,
						"NORMAL":13,
						"TEXCOORD_0":14,
						"TEXCOORD_1":15,
						"COLOR_0":16
					},
					"indices":17,
					"material":2
				}
			]
		}
	],
	"textures":[
		{
			"sampler":0,
			"source":0
		},
		{
			"sampler":0,
			"source":1
		},
		{
			"sampler":0,
			"source":2
		},
		{
			"sampler":0,
			"source":3
		}
	],
	"images":[
		{
			"mimeType":"image/png",
			"name":"T_Concrete_Normal",
			"uri":"../../materials/T_Concrete_Normal.png"
		},
		{
			"mimeType":"image/png",
			"name":"T_Concrete_Asphalt_BaseColor",
			"uri":"../../materials/T_Concrete_Asphalt_BaseColor.png"
		},
		{
			"mimeType":"image/png",
			"name":"T_Concrete_ORM",
			"uri":"../../materials/T_Concrete_ORM.png"
		},
		{
			"mimeType":"image/png",
			"name":"T_Street_Decals",
			"uri":"../../materials/T_Street_Decals.png"
		}
	],
	"accessors":[
		{
			"bufferView":0,
			"componentType":5126,
			"count":24,
			"max":[
				3,
				-0.15000000596046448,
				6.706127643585205
			],
			"min":[
				-3.000000476837158,
				-0.3582433760166168,
				-6.49387264251709
			],
			"type":"VEC3"
		},
		{
			"bufferView":1,
			"componentType":5126,
			"count":24,
			"type":"VEC3"
		},
		{
			"bufferView":2,
			"componentType":5126,
			"count":24,
			"type":"VEC2"
		},
		{
			"bufferView":3,
			"componentType":5126,
			"count":24,
			"type":"VEC2"
		},
		{
			"bufferView":4,
			"componentType":5123,
			"count":24,
			"normalized":true,
			"type":"VEC4"
		},
		{
			"bufferView":5,
			"componentType":5123,
			"count":36,
			"type":"SCALAR"
		},
		{
			"bufferView":6,
			"componentType":5126,
			"count":8,
			"max":[
				3,
				-0.15000000596046448,
				6
			],
			"min":[
				-3.000000238418579,
				-0.15000000596046448,
				-6
			],
			"type":"VEC3"
		},
		{
			"bufferView":7,
			"componentType":5126,
			"count":8,
			"type":"VEC3"
		},
		{
			"bufferView":8,
			"componentType":5126,
			"count":8,
			"type":"VEC2"
		},
		{
			"bufferView":9,
			"componentType":5126,
			"count":8,
			"type":"VEC2"
		},
		{
			"bufferView":10,
			"componentType":5123,
			"count":8,
			"normalized":true,
			"type":"VEC4"
		},
		{
			"bufferView":11,
			"componentType":5123,
			"count":12,
			"type":"SCALAR"
		},
		{
			"bufferView":12,
			"componentType":5126,
			"count":16,
			"max":[
				3,
				-0.14800000190734863,
				5.8000006675720215
			],
			"min":[
				-3.000001907348633,
				-0.14800000190734863,
				-5.799999713897705
			],
			"type":"VEC3"
		},
		{
			"bufferView":13,
			"componentType":5126,
			"count":16,
			"type":"VEC3"
		},
		{
			"bufferView":14,
			"componentType":5126,
			"count":16,
			"type":"VEC2"
		},
		{
			"bufferView":15,
			"componentType":5126,
			"count":16,
			"type":"VEC2"
		},
		{
			"bufferView":16,
			"componentType":5123,
			"count":16,
			"normalized":true,
			"type":"VEC4"
		},
		{
			"bufferView":17,
			"componentType":5123,
			"count":24,
			"type":"SCALAR"
		}
	],
	"bufferViews":[
		{
			"buffer":0,
			"byteLength":288,
			"byteOffset":0,
			"target":34962
		},
		{
			"buffer":0,
			"byteLength":288,
			"byteOffset":288,
			"target":34962
		},
		{
			"buffer":0,
			"byteLength":192,
			"byteOffset":576,
			"target":34962
		},
		{
			"buffer":0,
			"byteLength":192,
			"byteOffset":768,
			"target":34962
		},
		{
			"buffer":0,
			"byteLength":192,
			"byteOffset":960,
			"target":34962
		},
		{
			"buffer":0,
			"byteLength":72,
			"byteOffset":1152,
			"target":34963
		},
		{
			"buffer":0,
			"byteLength":96,
			"byteOffset":1224,
			"target":34962
		},
		{
			"buffer":0,
			"byteLength":96,
			"byteOffset":1320,
			"target":34962
		},
		{
			"buffer":0,
			"byteLength":64,
			"byteOffset":1416,
			"target":34962
		},
		{
			"buffer":0,
			"byteLength":64,
			"byteOffset":1480,
			"target":34962
		},
		{
			"buffer":0,
			"byteLength":64,
			"byteOffset":1544,
			"target":34962
		},
		{
			"buffer":0,
			"byteLength":24,
			"byteOffset":1608,
			"target":34963
		},
		{
			"buffer":0,
			"byteLength":192,
			"byteOffset":1632,
			"target":34962
		},
		{
			"buffer":0,
			"byteLength":192,
			"byteOffset":1824,
			"target":34962
		},
		{
			"buffer":0,
			"byteLength":128,
			"byteOffset":2016,
			"target":34962
		},
		{
			"buffer":0,
			"byteLength":128,
			"byteOffset":2144,
			"target":34962
		},
		{
			"buffer":0,
			"byteLength":128,
			"byteOffset":2272,
			"target":34962
		},
		{
			"buffer":0,
			"byteLength":48,
			"byteOffset":2400,
			"target":34963
		}
	],
	"samplers":[
		{
			"magFilter":9729,
			"minFilter":9987
		}
	],
	"buffers":[
		{
			"byteLength":2448,
			"uri":"Street_4Lane_noSidewalk.bin"
		}
	]
}
