{
	"asset":{
		"generator":"Khronos glTF Blender I/O v4.3.47",
		"version":"2.0"
	},
	"scene":0,
	"scenes":[
		{
			"name":"Scene",
			"nodes":[
				16
			]
		}
	],
	"nodes":[
		{
			"mesh":0,
			"name":"Street_Curve_2Lane_Curb_01-convcolonly"
		},
		{
			"mesh":1,
			"name":"Street_Curve_2Lane_Curb_02-convcolonly"
		},
		{
			"mesh":2,
			"name":"Street_Curve_2Lane_Curb_03-convcolonly"
		},
		{
			"mesh":3,
			"name":"Street_Curve_2Lane_Curb_04-convcolonly"
		},
		{
			"mesh":4,
			"name":"Street_Curve_2Lane_Curb_05-convcolonly"
		},
		{
			"mesh":5,
			"name":"Street_Curve_2Lane_Curb_06-convcolonly"
		},
		{
			"mesh":6,
			"name":"Street_Curve_2Lane_Curb_07-convcolonly"
		},
		{
			"mesh":7,
			"name":"Street_Curve_2Lane_Curb_08-convcolonly"
		},
		{
			"mesh":8,
			"name":"Street_Curve_2Lane_Curb_09-convcolonly"
		},
		{
			"mesh":9,
			"name":"Street_Curve_2Lane_Curb_10-convcolonly"
		},
		{
			"mesh":10,
			"name":"Street_Curve_2Lane_Curb_11-convcolonly"
		},
		{
			"mesh":11,
			"name":"Street_Curve_2Lane_Curb_12-convcolonly"
		},
		{
			"mesh":12,
			"name":"Street_Curve_2Lane_Curb_13-convcolonly"
		},
		{
			"mesh":13,
			"name":"Street_Curve_2Lane_Curb_14-convcolonly"
		},
		{
			"mesh":14,
			"name":"Street_Curve_2Lane_Curb_15-convcolonly"
		},
		{
			"mesh":15,
			"name":"Street_Curve_2Lane_Curb_16-convcolonly"
		},
		{
			"children":[
				0,
				1,
				2,
				3,
				4,
				5,
				6,
				7,
				8,
				9,
				10,
				11,
				12,
				13,
				14,
				15
			],
			"mesh":16,
			"name":"Street_Curve_2Lane_Curb"
		}
	],
	"materials":[
		{
			"doubleSided":true,
			"name":"Collision",
			"pbrMetallicRoughness":{
				"baseColorFactor":[
					0.036788325756788254,
					0.5504099726676941,
					0.8000074625015259,
					1
				],
				"metallicFactor":0
			}
		},
		{
			"doubleSided":true,
			"name":"MI_Trim_MetalConcrete",
			"normalTexture":{
				"index":0
			},
			"pbrMetallicRoughness":{
				"baseColorTexture":{
					"index":1
				},
				"metallicRoughnessTexture":{
					"index":2
				}
			}
		}
	],
	"meshes":[
		{
			"name":"Plane.049",
			"primitives":[
				{
					"attributes":{
						"POSITION":0,
						"NORMAL":1,
						"TEXCOORD_0":2,
						"TEXCOORD_1":3,
						"COLOR_0":4
					},
					"indices":5,
					"material":0
				}
			]
		},
		{
			"name":"Plane.051",
			"primitives":[
				{
					"attributes":{
						"POSITION":6,
						"NORMAL":7,
						"TEXCOORD_0":8,
						"TEXCOORD_1":9,
						"COLOR_0":10
					},
					"indices":11,
					"material":0
				}
			]
		},
		{
			"name":"Plane.055",
			"primitives":[
				{
					"attributes":{
						"POSITION":12,
						"NORMAL":13,
						"TEXCOORD_0":14,
						"TEXCOORD_1":15,
						"COLOR_0":16
					},
					"indices":11,
					"material":0
				}
			]
		},
		{
			"name":"Plane.065",
			"primitives":[
				{
					"attributes":{
						"POSITION":17,
						"NORMAL":18,
						"TEXCOORD_0":19,
						"TEXCOORD_1":20,
						"COLOR_0":21
					},
					"indices":11,
					"material":0
				}
			]
		},
		{
			"name":"Plane.071",
			"primitives":[
				{
					"attributes":{
						"POSITION":22,
						"NORMAL":23,
						"TEXCOORD_0":24,
						"TEXCOORD_1":25,
						"COLOR_0":26
					},
					"indices":27,
					"material":0
				}
			]
		},
		{
			"name":"Plane.082",
			"primitives":[
				{
					"attributes":{
						"POSITION":28,
						"NORMAL":29,
						"TEXCOORD_0":30,
						"TEXCOORD_1":31,
						"COLOR_0":32
					},
					"indices":33,
					"material":0
				}
			]
		},
		{
			"name":"Plane.084",
			"primitives":[
				{
					"attributes":{
						"POSITION":34,
						"NORMAL":35,
						"TEXCOORD_0":36,
						"TEXCOORD_1":37,
						"COLOR_0":38
					},
					"indices":39,
					"material":0
				}
			]
		},
		{
			"name":"Plane.090",
			"primitives":[
				{
					"attributes":{
						"POSITION":40,
						"NORMAL":41,
						"TEXCOORD_0":42,
						"TEXCOORD_1":43,
						"COLOR_0":44
					},
					"indices":45,
					"material":0
				}
			]
		},
		{
			"name":"Plane.092",
			"primitives":[
				{
					"attributes":{
						"POSITION":46,
						"NORMAL":47,
						"TEXCOORD_0":48,
						"TEXCOORD_1":49,
						"COLOR_0":50
					},
					"indices":51,
					"material":0
				}
			]
		},
		{
			"name":"Plane.093",
			"primitives":[
				{
					"attributes":{
						"POSITION":52,
						"NORMAL":53,
						"TEXCOORD_0":54,
						"TEXCOORD_1":55,
						"COLOR_0":56
					},
					"indices":57,
					"material":0
				}
			]
		},
		{
			"name":"Plane.094",
			"primitives":[
				{
					"attributes":{
						"POSITION":58,
						"NORMAL":59,
						"TEXCOORD_0":60,
						"TEXCOORD_1":61,
						"COLOR_0":62
					},
					"indices":63,
					"material":0
				}
			]
		},
		{
			"name":"Plane.097",
			"primitives":[
				{
					"attributes":{
						"POSITION":64,
						"NORMAL":65,
						"TEXCOORD_0":66,
						"TEXCOORD_1":67,
						"COLOR_0":68
					},
					"indices":63,
					"material":0
				}
			]
		},
		{
			"name":"Plane.098",
			"primitives":[
				{
					"attributes":{
						"POSITION":69,
						"NORMAL":70,
						"TEXCOORD_0":71,
						"TEXCOORD_1":72,
						"COLOR_0":73
					},
					"indices":74,
					"material":0
				}
			]
		},
		{
			"name":"Plane.100",
			"primitives":[
				{
					"attributes":{
						"POSITION":75,
						"NORMAL":76,
						"TEXCOORD_0":77,
						"TEXCOORD_1":78,
						"COLOR_0":79
					},
					"indices":80,
					"material":0
				}
			]
		},
		{
			"name":"Plane.101",
			"primitives":[
				{
					"attributes":{
						"POSITION":81,
						"NORMAL":82,
						"TEXCOORD_0":83,
						"TEXCOORD_1":84,
						"COLOR_0":85
					},
					"indices":86,
					"material":0
				}
			]
		},
		{
			"name":"Plane.102",
			"primitives":[
				{
					"attributes":{
						"POSITION":87,
						"NORMAL":88,
						"TEXCOORD_0":89,
						"TEXCOORD_1":90,
						"COLOR_0":91
					},
					"indices":92,
					"material":0
				}
			]
		},
		{
			"name":"Plane.064",
			"primitives":[
				{
					"attributes":{
						"POSITION":93,
						"NORMAL":94,
						"TEXCOORD_0":95,
						"TEXCOORD_1":96,
						"COLOR_0":97
					},
					"indices":98,
					"material":1
				}
			]
		}
	],
	"textures":[
		{
			"sampler":0,
			"source":0
		},
		{
			"sampler":0,
			"source":1
		},
		{
			"sampler":0,
			"source":2
		}
	],
	"images":[
		{
			"mimeType":"image/png",
			"name":"T_MetalConcrete_Normal",
			"uri":"../../materials/T_MetalConcrete_Normal.png"
		},
		{
			"mimeType":"image/png",
			"name":"T_MetalConcrete_BaseColor",
			"uri":"../../materials/T_MetalConcrete_BaseColor.png"
		},
		{
			"mimeType":"image/png",
			"name":"T_MetalConcrete_ORM",
			"uri":"../../materials/T_MetalConcrete_ORM.png"
		}
	],
	"accessors":[
		{
			"bufferView":0,
			"componentType":5126,
			"count":28,
			"max":[
				1.1762027740478516,
				2.682209014892578e-07,
				12.000000953674316
			],
			"min":[
				-2.86102294921875e-06,
				-0.15000024437904358,
				8.946712493896484
			],
			"type":"VEC3"
		},
		{
			"bufferView":1,
			"componentType":5126,
			"count":28,
			"type":"VEC3"
		},
		{
			"bufferView":2,
			"componentType":5126,
			"count":28,
			"type":"VEC2"
		},
		{
			"bufferView":3,
			"componentType":5126,
			"count":28,
			"type":"VEC2"
		},
		{
			"bufferView":4,
			"componentType":5123,
			"count":28,
			"normalized":true,
			"type":"VEC4"
		},
		{
			"bufferView":5,
			"componentType":5123,
			"count":48,
			"type":"SCALAR"
		},
		{
			"bufferView":6,
			"componentType":5126,
			"count":28,
			"max":[
				3.4834132194519043,
				2.682209014892578e-07,
				11.769424438476562
			],
			"min":[
				1.7538599967956543,
				-0.15000024437904358,
				8.60289478302002
			],
			"type":"VEC3"
		},
		{
			"bufferView":7,
			"componentType":5126,
			"count":28,
			"type":"VEC3"
		},
		{
			"bufferView":8,
			"componentType":5126,
			"count":28,
			"type":"VEC2"
		},
		{
			"bufferView":9,
			"componentType":5126,
			"count":28,
			"type":"VEC2"
		},
		{
			"bufferView":10,
			"componentType":5123,
			"count":28,
			"normalized":true,
			"type":"VEC4"
		},
		{
			"bufferView":11,
			"componentType":5123,
			"count":48,
			"type":"SCALAR"
		},
		{
			"bufferView":12,
			"componentType":5126,
			"count":28,
			"max":[
				5.6567583084106445,
				2.682209014892578e-07,
				11.086555480957031
			],
			"min":[
				3.4403223991394043,
				-0.15000024437904358,
				7.928473472595215
			],
			"type":"VEC3"
		},
		{
			"bufferView":13,
			"componentType":5126,
			"count":28,
			"type":"VEC3"
		},
		{
			"bufferView":14,
			"componentType":5126,
			"count":28,
			"type":"VEC2"
		},
		{
			"bufferView":15,
			"componentType":5126,
			"count":28,
			"type":"VEC2"
		},
		{
			"bufferView":16,
			"componentType":5123,
			"count":28,
			"normalized":true,
			"type":"VEC4"
		},
		{
			"bufferView":17,
			"componentType":5126,
			"count":28,
			"max":[
				7.612715721130371,
				2.682209014892578e-07,
				9.977636337280273
			],
			"min":[
				4.994574546813965,
				-0.15000024437904358,
				6.949365139007568
			],
			"type":"VEC3"
		},
		{
			"bufferView":18,
			"componentType":5126,
			"count":28,
			"type":"VEC3"
		},
		{
			"bufferView":19,
			"componentType":5126,
			"count":28,
			"type":"VEC2"
		},
		{
			"bufferView":20,
			"componentType":5126,
			"count":28,
			"type":"VEC2"
		},
		{
			"bufferView":21,
			"componentType":5123,
			"count":28,
			"normalized":true,
			"type":"VEC4"
		},
		{
			"bufferView":22,
			"componentType":5126,
			"count":28,
			"max":[
				9.276121139526367,
				2.682209014892578e-07,
				8.485282897949219
			],
			"min":[
				6.3568878173828125,
				-0.15000024437904358,
				5.7031965255737305
			],
			"type":"VEC3"
		},
		{
			"bufferView":23,
			"componentType":5126,
			"count":28,
			"type":"VEC3"
		},
		{
			"bufferView":24,
			"componentType":5126,
			"count":28,
			"type":"VEC2"
		},
		{
			"bufferView":25,
			"componentType":5126,
			"count":28,
			"type":"VEC2"
		},
		{
			"bufferView":26,
			"componentType":5123,
			"count":28,
			"normalized":true,
			"type":"VEC4"
		},
		{
			"bufferView":27,
			"componentType":5123,
			"count":48,
			"type":"SCALAR"
		},
		{
			"bufferView":28,
			"componentType":5126,
			"count":28,
			"max":[
				10.583051681518555,
				2.682209014892578e-07,
				6.666845321655273
			],
			"min":[
				7.474909782409668,
				-0.15000024437904358,
				4.237857818603516
			],
			"type":"VEC3"
		},
		{
			"bufferView":29,
			"componentType":5126,
			"count":28,
			"type":"VEC3"
		},
		{
			"bufferView":30,
			"componentType":5126,
			"count":28,
			"type":"VEC2"
		},
		{
			"bufferView":31,
			"componentType":5126,
			"count":28,
			"type":"VEC2"
		},
		{
			"bufferView":32,
			"componentType":5123,
			"count":28,
			"normalized":true,
			"type":"VEC4"
		},
		{
			"bufferView":33,
			"componentType":5123,
			"count":48,
			"type":"SCALAR"
		},
		{
			"bufferView":34,
			"componentType":5126,
			"count":28,
			"max":[
				11.483281135559082,
				2.682209014892578e-07,
				4.5922040939331055
			],
			"min":[
				8.30567455291748,
				-0.15000024437904358,
				2.6096606254577637
			],
			"type":"VEC3"
		},
		{
			"bufferView":35,
			"componentType":5126,
			"count":28,
			"type":"VEC3"
		},
		{
			"bufferView":36,
			"componentType":5126,
			"count":28,
			"type":"VEC2"
		},
		{
			"bufferView":37,
			"componentType":5126,
			"count":28,
			"type":"VEC2"
		},
		{
			"bufferView":38,
			"componentType":5123,
			"count":28,
			"normalized":true,
			"type":"VEC4"
		},
		{
			"bufferView":39,
			"componentType":5123,
			"count":48,
			"type":"SCALAR"
		},
		{
			"bufferView":40,
			"componentType":5126,
			"count":28,
			"max":[
				11.942214012145996,
				2.682209014892578e-07,
				2.3410868644714355
			],
			"min":[
				8.81725788116455,
				-0.15000024437904358,
				0.8811755180358887
			],
			"type":"VEC3"
		},
		{
			"bufferView":41,
			"componentType":5126,
			"count":28,
			"type":"VEC3"
		},
		{
			"bufferView":42,
			"componentType":5126,
			"count":28,
			"type":"VEC2"
		},
		{
			"bufferView":43,
			"componentType":5126,
			"count":28,
			"type":"VEC2"
		},
		{
			"bufferView":44,
			"componentType":5123,
			"count":28,
			"normalized":true,
			"type":"VEC4"
		},
		{
			"bufferView":45,
			"componentType":5123,
			"count":48,
			"type":"SCALAR"
		},
		{
			"bufferView":46,
			"componentType":5126,
			"count":28,
			"max":[
				2.341080665588379,
				2.682209014892578e-07,
				11.942217826843262
			],
			"min":[
				0.8811721801757812,
				-0.15000024437904358,
				8.8172607421875
			],
			"type":"VEC3"
		},
		{
			"bufferView":47,
			"componentType":5126,
			"count":28,
			"type":"VEC3"
		},
		{
			"bufferView":48,
			"componentType":5126,
			"count":28,
			"type":"VEC2"
		},
		{
			"bufferView":49,
			"componentType":5126,
			"count":28,
			"type":"VEC2"
		},
		{
			"bufferView":50,
			"componentType":5123,
			"count":28,
			"normalized":true,
			"type":"VEC4"
		},
		{
			"bufferView":51,
			"componentType":5123,
			"count":48,
			"type":"SCALAR"
		},
		{
			"bufferView":52,
			"componentType":5126,
			"count":28,
			"max":[
				4.592198371887207,
				2.682209014892578e-07,
				11.483284950256348
			],
			"min":[
				2.6096572875976562,
				-0.15000024437904358,
				8.305678367614746
			],
			"type":"VEC3"
		},
		{
			"bufferView":53,
			"componentType":5126,
			"count":28,
			"type":"VEC3"
		},
		{
			"bufferView":54,
			"componentType":5126,
			"count":28,
			"type":"VEC2"
		},
		{
			"bufferView":55,
			"componentType":5126,
			"count":28,
			"type":"VEC2"
		},
		{
			"bufferView":56,
			"componentType":5123,
			"count":28,
			"normalized":true,
			"type":"VEC4"
		},
		{
			"bufferView":57,
			"componentType":5123,
			"count":48,
			"type":"SCALAR"
		},
		{
			"bufferView":58,
			"componentType":5126,
			"count":28,
			"max":[
				6.666839599609375,
				2.682209014892578e-07,
				10.583056449890137
			],
			"min":[
				4.237854957580566,
				-0.15000024437904358,
				7.474912643432617
			],
			"type":"VEC3"
		},
		{
			"bufferView":59,
			"componentType":5126,
			"count":28,
			"type":"VEC3"
		},
		{
			"bufferView":60,
			"componentType":5126,
			"count":28,
			"type":"VEC2"
		},
		{
			"bufferView":61,
			"componentType":5126,
			"count":28,
			"type":"VEC2"
		},
		{
			"bufferView":62,
			"componentType":5123,
			"count":28,
			"normalized":true,
			"type":"VEC4"
		},
		{
			"bufferView":63,
			"componentType":5123,
			"count":48,
			"type":"SCALAR"
		},
		{
			"bufferView":64,
			"componentType":5126,
			"count":28,
			"max":[
				8.48527717590332,
				2.682209014892578e-07,
				9.276126861572266
			],
			"min":[
				5.703193664550781,
				-0.15000024437904358,
				6.35689115524292
			],
			"type":"VEC3"
		},
		{
			"bufferView":65,
			"componentType":5126,
			"count":28,
			"type":"VEC3"
		},
		{
			"bufferView":66,
			"componentType":5126,
			"count":28,
			"type":"VEC2"
		},
		{
			"bufferView":67,
			"componentType":5126,
			"count":28,
			"type":"VEC2"
		},
		{
			"bufferView":68,
			"componentType":5123,
			"count":28,
			"normalized":true,
			"type":"VEC4"
		},
		{
			"bufferView":69,
			"componentType":5126,
			"count":28,
			"max":[
				9.977631568908691,
				2.682209014892578e-07,
				7.6127214431762695
			],
			"min":[
				6.949361801147461,
				-0.15000024437904358,
				4.994577407836914
			],
			"type":"VEC3"
		},
		{
			"bufferView":70,
			"componentType":5126,
			"count":28,
			"type":"VEC3"
		},
		{
			"bufferView":71,
			"componentType":5126,
			"count":28,
			"type":"VEC2"
		},
		{
			"bufferView":72,
			"componentType":5126,
			"count":28,
			"type":"VEC2"
		},
		{
			"bufferView":73,
			"componentType":5123,
			"count":28,
			"normalized":true,
			"type":"VEC4"
		},
		{
			"bufferView":74,
			"componentType":5123,
			"count":48,
			"type":"SCALAR"
		},
		{
			"bufferView":75,
			"componentType":5126,
			"count":28,
			"max":[
				11.086551666259766,
				2.682209014892578e-07,
				5.656763553619385
			],
			"min":[
				7.928469657897949,
				-0.15000024437904358,
				3.4403252601623535
			],
			"type":"VEC3"
		},
		{
			"bufferView":76,
			"componentType":5126,
			"count":28,
			"type":"VEC3"
		},
		{
			"bufferView":77,
			"componentType":5126,
			"count":28,
			"type":"VEC2"
		},
		{
			"bufferView":78,
			"componentType":5126,
			"count":28,
			"type":"VEC2"
		},
		{
			"bufferView":79,
			"componentType":5123,
			"count":28,
			"normalized":true,
			"type":"VEC4"
		},
		{
			"bufferView":80,
			"componentType":5123,
			"count":48,
			"type":"SCALAR"
		},
		{
			"bufferView":81,
			"componentType":5126,
			"count":28,
			"max":[
				11.769420623779297,
				2.682209014892578e-07,
				3.4834189414978027
			],
			"min":[
				8.60289192199707,
				-0.15000024437904358,
				1.7538633346557617
			],
			"type":"VEC3"
		},
		{
			"bufferView":82,
			"componentType":5126,
			"count":28,
			"type":"VEC3"
		},
		{
			"bufferView":83,
			"componentType":5126,
			"count":28,
			"type":"VEC2"
		},
		{
			"bufferView":84,
			"componentType":5126,
			"count":28,
			"type":"VEC2"
		},
		{
			"bufferView":85,
			"componentType":5123,
			"count":28,
			"normalized":true,
			"type":"VEC4"
		},
		{
			"bufferView":86,
			"componentType":5123,
			"count":48,
			"type":"SCALAR"
		},
		{
			"bufferView":87,
			"componentType":5126,
			"count":28,
			"max":[
				11.99999713897705,
				2.682209014892578e-07,
				1.17620849609375
			],
			"min":[
				8.946708679199219,
				-0.15000024437904358,
				1.430511474609375e-06
			],
			"type":"VEC3"
		},
		{
			"bufferView":88,
			"componentType":5126,
			"count":28,
			"type":"VEC3"
		},
		{
			"bufferView":89,
			"componentType":5126,
			"count":28,
			"type":"VEC2"
		},
		{
			"bufferView":90,
			"componentType":5126,
			"count":28,
			"type":"VEC2"
		},
		{
			"bufferView":91,
			"componentType":5123,
			"count":28,
			"normalized":true,
			"type":"VEC4"
		},
		{
			"bufferView":92,
			"componentType":5123,
			"count":48,
			"type":"SCALAR"
		},
		{
			"bufferView":93,
			"componentType":5126,
			"count":221,
			"max":[
				11.99999713897705,
				2.682209014892578e-07,
				12.000000953674316
			],
			"min":[
				-2.86102294921875e-06,
				-0.15000024437904358,
				-4.76837158203125e-07
			],
			"type":"VEC3"
		},
		{
			"bufferView":94,
			"componentType":5126,
			"count":221,
			"type":"VEC3"
		},
		{
			"bufferView":95,
			"componentType":5126,
			"count":221,
			"type":"VEC2"
		},
		{
			"bufferView":96,
			"componentType":5126,
			"count":221,
			"type":"VEC2"
		},
		{
			"bufferView":97,
			"componentType":5123,
			"count":221,
			"normalized":true,
			"type":"VEC4"
		},
		{
			"bufferView":98,
			"componentType":5123,
			"count":672,
			"type":"SCALAR"
		}
	],
	"bufferViews":[
		{
			"buffer":0,
			"byteLength":336,
			"byteOffset":0,
			"target":34962
		},
		{
			"buffer":0,
			"byteLength":336,
			"byteOffset":336,
			"target":34962
		},
		{
			"buffer":0,
			"byteLength":224,
			"byteOffset":672,
			"target":34962
		},
		{
			"buffer":0,
			"byteLength":224,
			"byteOffset":896,
			"target":34962
		},
		{
			"buffer":0,
			"byteLength":224,
			"byteOffset":1120,
			"target":34962
		},
		{
			"buffer":0,
			"byteLength":96,
			"byteOffset":1344,
			"target":34963
		},
		{
			"buffer":0,
			"byteLength":336,
			"byteOffset":1440,
			"target":34962
		},
		{
			"buffer":0,
			"byteLength":336,
			"byteOffset":1776,
			"target":34962
		},
		{
			"buffer":0,
			"byteLength":224,
			"byteOffset":2112,
			"target":34962
		},
		{
			"buffer":0,
			"byteLength":224,
			"byteOffset":2336,
			"target":34962
		},
		{
			"buffer":0,
			"byteLength":224,
			"byteOffset":2560,
			"target":34962
		},
		{
			"buffer":0,
			"byteLength":96,
			"byteOffset":2784,
			"target":34963
		},
		{
			"buffer":0,
			"byteLength":336,
			"byteOffset":2880,
			"target":34962
		},
		{
			"buffer":0,
			"byteLength":336,
			"byteOffset":3216,
			"target":34962
		},
		{
			"buffer":0,
			"byteLength":224,
			"byteOffset":3552,
			"target":34962
		},
		{
			"buffer":0,
			"byteLength":224,
			"byteOffset":3776,
			"target":34962
		},
		{
			"buffer":0,
			"byteLength":224,
			"byteOffset":4000,
			"target":34962
		},
		{
			"buffer":0,
			"byteLength":336,
			"byteOffset":4224,
			"target":34962
		},
		{
			"buffer":0,
			"byteLength":336,
			"byteOffset":4560,
			"target":34962
		},
		{
			"buffer":0,
			"byteLength":224,
			"byteOffset":4896,
			"target":34962
		},
		{
			"buffer":0,
			"byteLength":224,
			"byteOffset":5120,
			"target":34962
		},
		{
			"buffer":0,
			"byteLength":224,
			"byteOffset":5344,
			"target":34962
		},
		{
			"buffer":0,
			"byteLength":336,
			"byteOffset":5568,
			"target":34962
		},
		{
			"buffer":0,
			"byteLength":336,
			"byteOffset":5904,
			"target":34962
		},
		{
			"buffer":0,
			"byteLength":224,
			"byteOffset":6240,
			"target":34962
		},
		{
			"buffer":0,
			"byteLength":224,
			"byteOffset":6464,
			"target":34962
		},
		{
			"buffer":0,
			"byteLength":224,
			"byteOffset":6688,
			"target":34962
		},
		{
			"buffer":0,
			"byteLength":96,
			"byteOffset":6912,
			"target":34963
		},
		{
			"buffer":0,
			"byteLength":336,
			"byteOffset":7008,
			"target":34962
		},
		{
			"buffer":0,
			"byteLength":336,
			"byteOffset":7344,
			"target":34962
		},
		{
			"buffer":0,
			"byteLength":224,
			"byteOffset":7680,
			"target":34962
		},
		{
			"buffer":0,
			"byteLength":224,
			"byteOffset":7904,
			"target":34962
		},
		{
			"buffer":0,
			"byteLength":224,
			"byteOffset":8128,
			"target":34962
		},
		{
			"buffer":0,
			"byteLength":96,
			"byteOffset":8352,
			"target":34963
		},
		{
			"buffer":0,
			"byteLength":336,
			"byteOffset":8448,
			"target":34962
		},
		{
			"buffer":0,
			"byteLength":336,
			"byteOffset":8784,
			"target":34962
		},
		{
			"buffer":0,
			"byteLength":224,
			"byteOffset":9120,
			"target":34962
		},
		{
			"buffer":0,
			"byteLength":224,
			"byteOffset":9344,
			"target":34962
		},
		{
			"buffer":0,
			"byteLength":224,
			"byteOffset":9568,
			"target":34962
		},
		{
			"buffer":0,
			"byteLength":96,
			"byteOffset":9792,
			"target":34963
		},
		{
			"buffer":0,
			"byteLength":336,
			"byteOffset":9888,
			"target":34962
		},
		{
			"buffer":0,
			"byteLength":336,
			"byteOffset":10224,
			"target":34962
		},
		{
			"buffer":0,
			"byteLength":224,
			"byteOffset":10560,
			"target":34962
		},
		{
			"buffer":0,
			"byteLength":224,
			"byteOffset":10784,
			"target":34962
		},
		{
			"buffer":0,
			"byteLength":224,
			"byteOffset":11008,
			"target":34962
		},
		{
			"buffer":0,
			"byteLength":96,
			"byteOffset":11232,
			"target":34963
		},
		{
			"buffer":0,
			"byteLength":336,
			"byteOffset":11328,
			"target":34962
		},
		{
			"buffer":0,
			"byteLength":336,
			"byteOffset":11664,
			"target":34962
		},
		{
			"buffer":0,
			"byteLength":224,
			"byteOffset":12000,
			"target":34962
		},
		{
			"buffer":0,
			"byteLength":224,
			"byteOffset":12224,
			"target":34962
		},
		{
			"buffer":0,
			"byteLength":224,
			"byteOffset":12448,
			"target":34962
		},
		{
			"buffer":0,
			"byteLength":96,
			"byteOffset":12672,
			"target":34963
		},
		{
			"buffer":0,
			"byteLength":336,
			"byteOffset":12768,
			"target":34962
		},
		{
			"buffer":0,
			"byteLength":336,
			"byteOffset":13104,
			"target":34962
		},
		{
			"buffer":0,
			"byteLength":224,
			"byteOffset":13440,
			"target":34962
		},
		{
			"buffer":0,
			"byteLength":224,
			"byteOffset":13664,
			"target":34962
		},
		{
			"buffer":0,
			"byteLength":224,
			"byteOffset":13888,
			"target":34962
		},
		{
			"buffer":0,
			"byteLength":96,
			"byteOffset":14112,
			"target":34963
		},
		{
			"buffer":0,
			"byteLength":336,
			"byteOffset":14208,
			"target":34962
		},
		{
			"buffer":0,
			"byteLength":336,
			"byteOffset":14544,
			"target":34962
		},
		{
			"buffer":0,
			"byteLength":224,
			"byteOffset":14880,
			"target":34962
		},
		{
			"buffer":0,
			"byteLength":224,
			"byteOffset":15104,
			"target":34962
		},
		{
			"buffer":0,
			"byteLength":224,
			"byteOffset":15328,
			"target":34962
		},
		{
			"buffer":0,
			"byteLength":96,
			"byteOffset":15552,
			"target":34963
		},
		{
			"buffer":0,
			"byteLength":336,
			"byteOffset":15648,
			"target":34962
		},
		{
			"buffer":0,
			"byteLength":336,
			"byteOffset":15984,
			"target":34962
		},
		{
			"buffer":0,
			"byteLength":224,
			"byteOffset":16320,
			"target":34962
		},
		{
			"buffer":0,
			"byteLength":224,
			"byteOffset":16544,
			"target":34962
		},
		{
			"buffer":0,
			"byteLength":224,
			"byteOffset":16768,
			"target":34962
		},
		{
			"buffer":0,
			"byteLength":336,
			"byteOffset":16992,
			"target":34962
		},
		{
			"buffer":0,
			"byteLength":336,
			"byteOffset":17328,
			"target":34962
		},
		{
			"buffer":0,
			"byteLength":224,
			"byteOffset":17664,
			"target":34962
		},
		{
			"buffer":0,
			"byteLength":224,
			"byteOffset":17888,
			"target":34962
		},
		{
			"buffer":0,
			"byteLength":224,
			"byteOffset":18112,
			"target":34962
		},
		{
			"buffer":0,
			"byteLength":96,
			"byteOffset":18336,
			"target":34963
		},
		{
			"buffer":0,
			"byteLength":336,
			"byteOffset":18432,
			"target":34962
		},
		{
			"buffer":0,
			"byteLength":336,
			"byteOffset":18768,
			"target":34962
		},
		{
			"buffer":0,
			"byteLength":224,
			"byteOffset":19104,
			"target":34962
		},
		{
			"buffer":0,
			"byteLength":224,
			"byteOffset":19328,
			"target":34962
		},
		{
			"buffer":0,
			"byteLength":224,
			"byteOffset":19552,
			"target":34962
		},
		{
			"buffer":0,
			"byteLength":96,
			"byteOffset":19776,
			"target":34963
		},
		{
			"buffer":0,
			"byteLength":336,
			"byteOffset":19872,
			"target":34962
		},
		{
			"buffer":0,
			"byteLength":336,
			"byteOffset":20208,
			"target":34962
		},
		{
			"buffer":0,
			"byteLength":224,
			"byteOffset":20544,
			"target":34962
		},
		{
			"buffer":0,
			"byteLength":224,
			"byteOffset":20768,
			"target":34962
		},
		{
			"buffer":0,
			"byteLength":224,
			"byteOffset":20992,
			"target":34962
		},
		{
			"buffer":0,
			"byteLength":96,
			"byteOffset":21216,
			"target":34963
		},
		{
			"buffer":0,
			"byteLength":336,
			"byteOffset":21312,
			"target":34962
		},
		{
			"buffer":0,
			"byteLength":336,
			"byteOffset":21648,
			"target":34962
		},
		{
			"buffer":0,
			"byteLength":224,
			"byteOffset":21984,
			"target":34962
		},
		{
			"buffer":0,
			"byteLength":224,
			"byteOffset":22208,
			"target":34962
		},
		{
			"buffer":0,
			"byteLength":224,
			"byteOffset":22432,
			"target":34962
		},
		{
			"buffer":0,
			"byteLength":96,
			"byteOffset":22656,
			"target":34963
		},
		{
			"buffer":0,
			"byteLength":2652,
			"byteOffset":22752,
			"target":34962
		},
		{
			"buffer":0,
			"byteLength":2652,
			"byteOffset":25404,
			"target":34962
		},
		{
			"buffer":0,
			"byteLength":1768,
			"byteOffset":28056,
			"target":34962
		},
		{
			"buffer":0,
			"byteLength":1768,
			"byteOffset":29824,
			"target":34962
		},
		{
			"buffer":0,
			"byteLength":1768,
			"byteOffset":31592,
			"target":34962
		},
		{
			"buffer":0,
			"byteLength":1344,
			"byteOffset":33360,
			"target":34963
		}
	],
	"samplers":[
		{
			"magFilter":9729,
			"minFilter":9987
		}
	],
	"buffers":[
		{
			"byteLength":34704,
			"uri":"Street_Curve_2Lane_Curb.bin"
		}
	]
}
