{
	"asset":{
		"generator":"Khronos glTF Blender I/O v4.3.47",
		"version":"2.0"
	},
	"scene":0,
	"scenes":[
		{
			"name":"Scene",
			"nodes":[
				28
			]
		}
	],
	"nodes":[
		{
			"mesh":0,
			"name":"Street_Curve_4LaneLong_01-convcolonly"
		},
		{
			"mesh":1,
			"name":"Street_Curve_4LaneLong_02-convcolonly"
		},
		{
			"mesh":2,
			"name":"Street_Curve_4LaneLong_03-convcolonly"
		},
		{
			"mesh":3,
			"name":"Street_Curve_4LaneLong_04-convcolonly"
		},
		{
			"mesh":4,
			"name":"Street_Curve_4LaneLong_05-convcolonly"
		},
		{
			"mesh":5,
			"name":"Street_Curve_4LaneLong_06-convcolonly"
		},
		{
			"mesh":6,
			"name":"Street_Curve_4LaneLong_07-convcolonly"
		},
		{
			"mesh":7,
			"name":"Street_Curve_4LaneLong_08-convcolonly"
		},
		{
			"mesh":8,
			"name":"Street_Curve_4LaneLong_09-convcolonly"
		},
		{
			"mesh":9,
			"name":"Street_Curve_4LaneLong_10-convcolonly"
		},
		{
			"mesh":10,
			"name":"Street_Curve_4LaneLong_11-convcolonly"
		},
		{
			"mesh":11,
			"name":"Street_Curve_4LaneLong_12-convcolonly"
		},
		{
			"mesh":12,
			"name":"Street_Curve_4LaneLong_13-convcolonly"
		},
		{
			"mesh":13,
			"name":"Street_Curve_4LaneLong_14-convcolonly"
		},
		{
			"mesh":14,
			"name":"Street_Curve_4LaneLong_15-convcolonly"
		},
		{
			"mesh":15,
			"name":"Street_Curve_4LaneLong_16-convcolonly"
		},
		{
			"mesh":16,
			"name":"Street_Curve_4LaneLong_17-convcolonly"
		},
		{
			"mesh":17,
			"name":"Street_Curve_4LaneLong_18-convcolonly"
		},
		{
			"mesh":18,
			"name":"Street_Curve_4LaneLong_19-convcolonly"
		},
		{
			"mesh":19,
			"name":"Street_Curve_4LaneLong_20-convcolonly"
		},
		{
			"mesh":20,
			"name":"Street_Curve_4LaneLong_21-convcolonly"
		},
		{
			"mesh":21,
			"name":"Street_Curve_4LaneLong_22-convcolonly"
		},
		{
			"mesh":22,
			"name":"Street_Curve_4LaneLong_23-convcolonly"
		},
		{
			"mesh":23,
			"name":"Street_Curve_4LaneLong_24-convcolonly"
		},
		{
			"mesh":24,
			"name":"Street_Curve_4LaneLong_25-convcolonly"
		},
		{
			"mesh":25,
			"name":"Street_Curve_4LaneLong_26-convcolonly"
		},
		{
			"mesh":26,
			"name":"Street_Curve_4LaneLong_27-convcolonly"
		},
		{
			"mesh":27,
			"name":"Street_Curve_4LaneLong_28-convcolonly"
		},
		{
			"children":[
				0,
				1,
				2,
				3,
				4,
				5,
				6,
				7,
				8,
				9,
				10,
				11,
				12,
				13,
				14,
				15,
				16,
				17,
				18,
				19,
				20,
				21,
				22,
				23,
				24,
				25,
				26,
				27
			],
			"mesh":28,
			"name":"Street_Curve_4LaneLong"
		}
	],
	"materials":[
		{
			"doubleSided":true,
			"name":"Collision",
			"pbrMetallicRoughness":{
				"baseColorFactor":[
					0.036788325756788254,
					0.5504099726676941,
					0.8000074625015259,
					1
				],
				"metallicFactor":0
			}
		},
		{
			"doubleSided":true,
			"name":"MI_Asphalt",
			"normalTexture":{
				"index":0
			},
			"pbrMetallicRoughness":{
				"baseColorTexture":{
					"index":1
				},
				"metallicRoughnessTexture":{
					"index":2
				}
			}
		},
		{
			"alphaMode":"BLEND",
			"doubleSided":true,
			"name":"MI_StreetDecals",
			"pbrMetallicRoughness":{
				"baseColorTexture":{
					"index":3
				},
				"metallicFactor":0,
				"roughnessFactor":0.5
			}
		},
		{
			"doubleSided":true,
			"name":"MI_Trim_MetalConcrete",
			"normalTexture":{
				"index":4
			},
			"pbrMetallicRoughness":{
				"baseColorTexture":{
					"index":5
				},
				"metallicRoughnessTexture":{
					"index":6
				}
			}
		}
	],
	"meshes":[
		{
			"name":"Plane.200",
			"primitives":[
				{
					"attributes":{
						"POSITION":0,
						"NORMAL":1,
						"TEXCOORD_0":2,
						"TEXCOORD_1":3,
						"COLOR_0":4
					},
					"indices":5,
					"material":0
				}
			]
		},
		{
			"name":"Plane.201",
			"primitives":[
				{
					"attributes":{
						"POSITION":6,
						"NORMAL":7,
						"TEXCOORD_0":8,
						"TEXCOORD_1":9,
						"COLOR_0":10
					},
					"indices":11,
					"material":0
				}
			]
		},
		{
			"name":"Plane.202",
			"primitives":[
				{
					"attributes":{
						"POSITION":12,
						"NORMAL":13,
						"TEXCOORD_0":14,
						"TEXCOORD_1":15,
						"COLOR_0":16
					},
					"indices":17,
					"material":0
				}
			]
		},
		{
			"name":"Plane.203",
			"primitives":[
				{
					"attributes":{
						"POSITION":18,
						"NORMAL":19,
						"TEXCOORD_0":20,
						"TEXCOORD_1":21,
						"COLOR_0":22
					},
					"indices":23,
					"material":0
				}
			]
		},
		{
			"name":"Plane.204",
			"primitives":[
				{
					"attributes":{
						"POSITION":24,
						"NORMAL":25,
						"TEXCOORD_0":26,
						"TEXCOORD_1":27,
						"COLOR_0":28
					},
					"indices":23,
					"material":0
				}
			]
		},
		{
			"name":"Plane.205",
			"primitives":[
				{
					"attributes":{
						"POSITION":29,
						"NORMAL":30,
						"TEXCOORD_0":31,
						"TEXCOORD_1":32,
						"COLOR_0":33
					},
					"indices":34,
					"material":0
				}
			]
		},
		{
			"name":"Plane.206",
			"primitives":[
				{
					"attributes":{
						"POSITION":35,
						"NORMAL":36,
						"TEXCOORD_0":37,
						"TEXCOORD_1":38,
						"COLOR_0":39
					},
					"indices":40,
					"material":0
				}
			]
		},
		{
			"name":"Plane.207",
			"primitives":[
				{
					"attributes":{
						"POSITION":41,
						"NORMAL":42,
						"TEXCOORD_0":43,
						"TEXCOORD_1":44,
						"COLOR_0":45
					},
					"indices":46,
					"material":0
				}
			]
		},
		{
			"name":"Plane.208",
			"primitives":[
				{
					"attributes":{
						"POSITION":47,
						"NORMAL":48,
						"TEXCOORD_0":49,
						"TEXCOORD_1":50,
						"COLOR_0":51
					},
					"indices":34,
					"material":0
				}
			]
		},
		{
			"name":"Plane.209",
			"primitives":[
				{
					"attributes":{
						"POSITION":52,
						"NORMAL":53,
						"TEXCOORD_0":54,
						"TEXCOORD_1":55,
						"COLOR_0":56
					},
					"indices":40,
					"material":0
				}
			]
		},
		{
			"name":"Plane.210",
			"primitives":[
				{
					"attributes":{
						"POSITION":57,
						"NORMAL":58,
						"TEXCOORD_0":59,
						"TEXCOORD_1":60,
						"COLOR_0":61
					},
					"indices":40,
					"material":0
				}
			]
		},
		{
			"name":"Plane.211",
			"primitives":[
				{
					"attributes":{
						"POSITION":62,
						"NORMAL":63,
						"TEXCOORD_0":64,
						"TEXCOORD_1":65,
						"COLOR_0":66
					},
					"indices":40,
					"material":0
				}
			]
		},
		{
			"name":"Plane.212",
			"primitives":[
				{
					"attributes":{
						"POSITION":67,
						"NORMAL":68,
						"TEXCOORD_0":69,
						"TEXCOORD_1":70,
						"COLOR_0":71
					},
					"indices":46,
					"material":0
				}
			]
		},
		{
			"name":"Plane.213",
			"primitives":[
				{
					"attributes":{
						"POSITION":72,
						"NORMAL":73,
						"TEXCOORD_0":74,
						"TEXCOORD_1":75,
						"COLOR_0":76
					},
					"indices":77,
					"material":0
				}
			]
		},
		{
			"name":"Plane.214",
			"primitives":[
				{
					"attributes":{
						"POSITION":78,
						"NORMAL":79,
						"TEXCOORD_0":80,
						"TEXCOORD_1":81,
						"COLOR_0":82
					},
					"indices":17,
					"material":0
				}
			]
		},
		{
			"name":"Plane.215",
			"primitives":[
				{
					"attributes":{
						"POSITION":83,
						"NORMAL":84,
						"TEXCOORD_0":85,
						"TEXCOORD_1":86,
						"COLOR_0":87
					},
					"indices":88,
					"material":0
				}
			]
		},
		{
			"name":"Plane.216",
			"primitives":[
				{
					"attributes":{
						"POSITION":89,
						"NORMAL":90,
						"TEXCOORD_0":91,
						"TEXCOORD_1":92,
						"COLOR_0":93
					},
					"indices":46,
					"material":0
				}
			]
		},
		{
			"name":"Plane.217",
			"primitives":[
				{
					"attributes":{
						"POSITION":94,
						"NORMAL":95,
						"TEXCOORD_0":96,
						"TEXCOORD_1":97,
						"COLOR_0":98
					},
					"indices":77,
					"material":0
				}
			]
		},
		{
			"name":"Plane.218",
			"primitives":[
				{
					"attributes":{
						"POSITION":99,
						"NORMAL":100,
						"TEXCOORD_0":101,
						"TEXCOORD_1":102,
						"COLOR_0":103
					},
					"indices":23,
					"material":0
				}
			]
		},
		{
			"name":"Plane.219",
			"primitives":[
				{
					"attributes":{
						"POSITION":104,
						"NORMAL":105,
						"TEXCOORD_0":106,
						"TEXCOORD_1":107,
						"COLOR_0":108
					},
					"indices":34,
					"material":0
				}
			]
		},
		{
			"name":"Plane.220",
			"primitives":[
				{
					"attributes":{
						"POSITION":109,
						"NORMAL":110,
						"TEXCOORD_0":111,
						"TEXCOORD_1":112,
						"COLOR_0":113
					},
					"indices":40,
					"material":0
				}
			]
		},
		{
			"name":"Plane.221",
			"primitives":[
				{
					"attributes":{
						"POSITION":114,
						"NORMAL":115,
						"TEXCOORD_0":116,
						"TEXCOORD_1":117,
						"COLOR_0":118
					},
					"indices":46,
					"material":0
				}
			]
		},
		{
			"name":"Plane.222",
			"primitives":[
				{
					"attributes":{
						"POSITION":119,
						"NORMAL":120,
						"TEXCOORD_0":121,
						"TEXCOORD_1":122,
						"COLOR_0":123
					},
					"indices":34,
					"material":0
				}
			]
		},
		{
			"name":"Plane.223",
			"primitives":[
				{
					"attributes":{
						"POSITION":124,
						"NORMAL":125,
						"TEXCOORD_0":126,
						"TEXCOORD_1":127,
						"COLOR_0":128
					},
					"indices":40,
					"material":0
				}
			]
		},
		{
			"name":"Plane.224",
			"primitives":[
				{
					"attributes":{
						"POSITION":129,
						"NORMAL":130,
						"TEXCOORD_0":131,
						"TEXCOORD_1":132,
						"COLOR_0":133
					},
					"indices":23,
					"material":0
				}
			]
		},
		{
			"name":"Plane.225",
			"primitives":[
				{
					"attributes":{
						"POSITION":134,
						"NORMAL":135,
						"TEXCOORD_0":136,
						"TEXCOORD_1":137,
						"COLOR_0":138
					},
					"indices":23,
					"material":0
				}
			]
		},
		{
			"name":"Plane.226",
			"primitives":[
				{
					"attributes":{
						"POSITION":139,
						"NORMAL":140,
						"TEXCOORD_0":141,
						"TEXCOORD_1":142,
						"COLOR_0":143
					},
					"indices":144,
					"material":0
				}
			]
		},
		{
			"name":"Plane.227",
			"primitives":[
				{
					"attributes":{
						"POSITION":145,
						"NORMAL":146,
						"TEXCOORD_0":147,
						"TEXCOORD_1":148,
						"COLOR_0":149
					},
					"indices":150,
					"material":0
				}
			]
		},
		{
			"name":"Plane.116",
			"primitives":[
				{
					"attributes":{
						"POSITION":151,
						"NORMAL":152,
						"TEXCOORD_0":153,
						"TEXCOORD_1":154,
						"COLOR_0":155
					},
					"indices":156,
					"material":1
				},
				{
					"attributes":{
						"POSITION":157,
						"NORMAL":158,
						"TEXCOORD_0":159,
						"TEXCOORD_1":160,
						"COLOR_0":161
					},
					"indices":162,
					"material":2
				},
				{
					"attributes":{
						"POSITION":163,
						"NORMAL":164,
						"TEXCOORD_0":165,
						"TEXCOORD_1":166,
						"COLOR_0":167
					},
					"indices":168,
					"material":3
				}
			]
		}
	],
	"textures":[
		{
			"sampler":0,
			"source":0
		},
		{
			"sampler":0,
			"source":1
		},
		{
			"sampler":0,
			"source":2
		},
		{
			"sampler":0,
			"source":3
		},
		{
			"sampler":0,
			"source":4
		},
		{
			"sampler":0,
			"source":5
		},
		{
			"sampler":0,
			"source":6
		}
	],
	"images":[
		{
			"mimeType":"image/png",
			"name":"T_Concrete_Normal",
			"uri":"../../materials/T_Concrete_Normal.png"
		},
		{
			"mimeType":"image/png",
			"name":"T_Concrete_Asphalt_BaseColor",
			"uri":"../../materials/T_Concrete_Asphalt_BaseColor.png"
		},
		{
			"mimeType":"image/png",
			"name":"T_Concrete_ORM",
			"uri":"../../materials/T_Concrete_ORM.png"
		},
		{
			"mimeType":"image/png",
			"name":"T_Street_Decals",
			"uri":"../../materials/T_Street_Decals.png"
		},
		{
			"mimeType":"image/png",
			"name":"T_MetalConcrete_Normal",
			"uri":"../../materials/T_MetalConcrete_Normal.png"
		},
		{
			"mimeType":"image/png",
			"name":"T_MetalConcrete_BaseColor",
			"uri":"../../materials/T_MetalConcrete_BaseColor.png"
		},
		{
			"mimeType":"image/png",
			"name":"T_MetalConcrete_ORM",
			"uri":"../../materials/T_MetalConcrete_ORM.png"
		}
	],
	"accessors":[
		{
			"bufferView":0,
			"componentType":5126,
			"count":46,
			"max":[
				20.451501846313477,
				-0.15000000596046448,
				20.761165618896484
			],
			"min":[
				0,
				-0.3500000238418579,
				0
			],
			"type":"VEC3"
		},
		{
			"bufferView":1,
			"componentType":5126,
			"count":46,
			"type":"VEC3"
		},
		{
			"bufferView":2,
			"componentType":5126,
			"count":46,
			"type":"VEC2"
		},
		{
			"bufferView":3,
			"componentType":5126,
			"count":46,
			"type":"VEC2"
		},
		{
			"bufferView":4,
			"componentType":5123,
			"count":46,
			"normalized":true,
			"type":"VEC4"
		},
		{
			"bufferView":5,
			"componentType":5123,
			"count":96,
			"type":"SCALAR"
		},
		{
			"bufferView":6,
			"componentType":5126,
			"count":14,
			"max":[
				1.2679452896118164,
				2.7939677238464355e-07,
				21
			],
			"min":[
				-2.86102294921875e-06,
				-0.15000024437904358,
				17.95718002319336
			],
			"type":"VEC3"
		},
		{
			"bufferView":7,
			"componentType":5126,
			"count":14,
			"type":"VEC3"
		},
		{
			"bufferView":8,
			"componentType":5126,
			"count":14,
			"type":"VEC2"
		},
		{
			"bufferView":9,
			"componentType":5126,
			"count":14,
			"type":"VEC2"
		},
		{
			"bufferView":10,
			"componentType":5123,
			"count":14,
			"normalized":true,
			"type":"VEC4"
		},
		{
			"bufferView":11,
			"componentType":5123,
			"count":48,
			"type":"SCALAR"
		},
		{
			"bufferView":12,
			"componentType":5126,
			"count":14,
			"max":[
				3.785353183746338,
				2.7939677238464355e-07,
				20.846885681152344
			],
			"min":[
				2.1684534549713135,
				-0.15000024437904358,
				17.695323944091797
			],
			"type":"VEC3"
		},
		{
			"bufferView":13,
			"componentType":5126,
			"count":14,
			"type":"VEC3"
		},
		{
			"bufferView":14,
			"componentType":5126,
			"count":14,
			"type":"VEC2"
		},
		{
			"bufferView":15,
			"componentType":5126,
			"count":14,
			"type":"VEC2"
		},
		{
			"bufferView":16,
			"componentType":5123,
			"count":14,
			"normalized":true,
			"type":"VEC4"
		},
		{
			"bufferView":17,
			"componentType":5123,
			"count":48,
			"type":"SCALAR"
		},
		{
			"bufferView":18,
			"componentType":5126,
			"count":14,
			"max":[
				6.247560501098633,
				2.7939677238464355e-07,
				20.38977813720703
			],
			"min":[
				4.3052873611450195,
				-0.15000024437904358,
				17.17542839050293
			],
			"type":"VEC3"
		},
		{
			"bufferView":19,
			"componentType":5126,
			"count":14,
			"type":"VEC3"
		},
		{
			"bufferView":20,
			"componentType":5126,
			"count":14,
			"type":"VEC2"
		},
		{
			"bufferView":21,
			"componentType":5126,
			"count":14,
			"type":"VEC2"
		},
		{
			"bufferView":22,
			"componentType":5123,
			"count":14,
			"normalized":true,
			"type":"VEC4"
		},
		{
			"bufferView":23,
			"componentType":5123,
			"count":48,
			"type":"SCALAR"
		},
		{
			"bufferView":24,
			"componentType":5126,
			"count":14,
			"max":[
				8.61866569519043,
				2.7939677238464355e-07,
				19.635339736938477
			],
			"min":[
				6.379342079162598,
				-0.15000024437904358,
				16.40507698059082
			],
			"type":"VEC3"
		},
		{
			"bufferView":25,
			"componentType":5126,
			"count":14,
			"type":"VEC3"
		},
		{
			"bufferView":26,
			"componentType":5126,
			"count":14,
			"type":"VEC2"
		},
		{
			"bufferView":27,
			"componentType":5126,
			"count":14,
			"type":"VEC2"
		},
		{
			"bufferView":28,
			"componentType":5123,
			"count":14,
			"normalized":true,
			"type":"VEC4"
		},
		{
			"bufferView":29,
			"componentType":5126,
			"count":14,
			"max":[
				10.864091873168945,
				2.7939677238464355e-07,
				18.594575881958008
			],
			"min":[
				8.360369682312012,
				-0.15000024437904358,
				15.39550495147705
			],
			"type":"VEC3"
		},
		{
			"bufferView":30,
			"componentType":5126,
			"count":14,
			"type":"VEC3"
		},
		{
			"bufferView":31,
			"componentType":5126,
			"count":14,
			"type":"VEC2"
		},
		{
			"bufferView":32,
			"componentType":5126,
			"count":14,
			"type":"VEC2"
		},
		{
			"bufferView":33,
			"componentType":5123,
			"count":14,
			"normalized":true,
			"type":"VEC4"
		},
		{
			"bufferView":34,
			"componentType":5123,
			"count":48,
			"type":"SCALAR"
		},
		{
			"bufferView":35,
			"componentType":5126,
			"count":14,
			"max":[
				12.951093673706055,
				2.7939677238464355e-07,
				17.282657623291016
			],
			"min":[
				10.219482421875,
				-0.15000024437904358,
				14.161428451538086
			],
			"type":"VEC3"
		},
		{
			"bufferView":36,
			"componentType":5126,
			"count":14,
			"type":"VEC3"
		},
		{
			"bufferView":37,
			"componentType":5126,
			"count":14,
			"type":"VEC2"
		},
		{
			"bufferView":38,
			"componentType":5126,
			"count":14,
			"type":"VEC2"
		},
		{
			"bufferView":39,
			"componentType":5123,
			"count":14,
			"normalized":true,
			"type":"VEC4"
		},
		{
			"bufferView":40,
			"componentType":5123,
			"count":48,
			"type":"SCALAR"
		},
		{
			"bufferView":41,
			"componentType":5126,
			"count":14,
			"max":[
				14.849239349365234,
				2.7939677238464355e-07,
				15.718724250793457
			],
			"min":[
				11.929574966430664,
				-0.15000024437904358,
				12.720848083496094
			],
			"type":"VEC3"
		},
		{
			"bufferView":42,
			"componentType":5126,
			"count":14,
			"type":"VEC3"
		},
		{
			"bufferView":43,
			"componentType":5126,
			"count":14,
			"type":"VEC2"
		},
		{
			"bufferView":44,
			"componentType":5126,
			"count":14,
			"type":"VEC2"
		},
		{
			"bufferView":45,
			"componentType":5123,
			"count":14,
			"normalized":true,
			"type":"VEC4"
		},
		{
			"bufferView":46,
			"componentType":5123,
			"count":48,
			"type":"SCALAR"
		},
		{
			"bufferView":47,
			"componentType":5126,
			"count":14,
			"max":[
				16.530851364135742,
				2.7939677238464355e-07,
				13.925572395324707
			],
			"min":[
				13.465707778930664,
				-0.15000024437904358,
				11.094769477844238
			],
			"type":"VEC3"
		},
		{
			"bufferView":48,
			"componentType":5126,
			"count":14,
			"type":"VEC3"
		},
		{
			"bufferView":49,
			"componentType":5126,
			"count":14,
			"type":"VEC2"
		},
		{
			"bufferView":50,
			"componentType":5126,
			"count":14,
			"type":"VEC2"
		},
		{
			"bufferView":51,
			"componentType":5123,
			"count":14,
			"normalized":true,
			"type":"VEC4"
		},
		{
			"bufferView":52,
			"componentType":5126,
			"count":14,
			"max":[
				17.971403121948242,
				2.7939677238464355e-07,
				11.92935562133789
			],
			"min":[
				14.805479049682617,
				-0.15000024437904358,
				9.306901931762695
			],
			"type":"VEC3"
		},
		{
			"bufferView":53,
			"componentType":5126,
			"count":14,
			"type":"VEC3"
		},
		{
			"bufferView":54,
			"componentType":5126,
			"count":14,
			"type":"VEC2"
		},
		{
			"bufferView":55,
			"componentType":5126,
			"count":14,
			"type":"VEC2"
		},
		{
			"bufferView":56,
			"componentType":5123,
			"count":14,
			"normalized":true,
			"type":"VEC4"
		},
		{
			"bufferView":57,
			"componentType":5126,
			"count":14,
			"max":[
				19.149892807006836,
				2.7939677238464355e-07,
				9.75918197631836
			],
			"min":[
				15.929351806640625,
				-0.15000024437904358,
				7.383320331573486
			],
			"type":"VEC3"
		},
		{
			"bufferView":58,
			"componentType":5126,
			"count":14,
			"type":"VEC3"
		},
		{
			"bufferView":59,
			"componentType":5126,
			"count":14,
			"type":"VEC2"
		},
		{
			"bufferView":60,
			"componentType":5126,
			"count":14,
			"type":"VEC2"
		},
		{
			"bufferView":61,
			"componentType":5123,
			"count":14,
			"normalized":true,
			"type":"VEC4"
		},
		{
			"bufferView":62,
			"componentType":5126,
			"count":14,
			"max":[
				20.049131393432617,
				2.7939677238464355e-07,
				7.44669771194458
			],
			"min":[
				16.820938110351562,
				-0.15000024437904358,
				5.352072715759277
			],
			"type":"VEC3"
		},
		{
			"bufferView":63,
			"componentType":5126,
			"count":14,
			"type":"VEC3"
		},
		{
			"bufferView":64,
			"componentType":5126,
			"count":14,
			"type":"VEC2"
		},
		{
			"bufferView":65,
			"componentType":5126,
			"count":14,
			"type":"VEC2"
		},
		{
			"bufferView":66,
			"componentType":5123,
			"count":14,
			"normalized":true,
			"type":"VEC4"
		},
		{
			"bufferView":67,
			"componentType":5126,
			"count":14,
			"max":[
				20.656009674072266,
				2.7939677238464355e-07,
				5.025623321533203
			],
			"min":[
				17.467239379882812,
				-0.15000024437904358,
				3.2427806854248047
			],
			"type":"VEC3"
		},
		{
			"bufferView":68,
			"componentType":5126,
			"count":14,
			"type":"VEC3"
		},
		{
			"bufferView":69,
			"componentType":5126,
			"count":14,
			"type":"VEC2"
		},
		{
			"bufferView":70,
			"componentType":5126,
			"count":14,
			"type":"VEC2"
		},
		{
			"bufferView":71,
			"componentType":5123,
			"count":14,
			"normalized":true,
			"type":"VEC4"
		},
		{
			"bufferView":72,
			"componentType":5126,
			"count":14,
			"max":[
				20.96167755126953,
				2.7939677238464355e-07,
				2.531264305114746
			],
			"min":[
				17.85882568359375,
				-0.15000024437904358,
				1.0862016677856445
			],
			"type":"VEC3"
		},
		{
			"bufferView":73,
			"componentType":5126,
			"count":14,
			"type":"VEC3"
		},
		{
			"bufferView":74,
			"componentType":5126,
			"count":14,
			"type":"VEC2"
		},
		{
			"bufferView":75,
			"componentType":5126,
			"count":14,
			"type":"VEC2"
		},
		{
			"bufferView":76,
			"componentType":5123,
			"count":14,
			"normalized":true,
			"type":"VEC4"
		},
		{
			"bufferView":77,
			"componentType":5123,
			"count":48,
			"type":"SCALAR"
		},
		{
			"bufferView":78,
			"componentType":5126,
			"count":14,
			"max":[
				2.5312671661376953,
				2.7939677238464355e-07,
				20.961688995361328
			],
			"min":[
				1.086207389831543,
				-0.15000024437904358,
				17.85883331298828
			],
			"type":"VEC3"
		},
		{
			"bufferView":79,
			"componentType":5126,
			"count":14,
			"type":"VEC3"
		},
		{
			"bufferView":80,
			"componentType":5126,
			"count":14,
			"type":"VEC2"
		},
		{
			"bufferView":81,
			"componentType":5126,
			"count":14,
			"type":"VEC2"
		},
		{
			"bufferView":82,
			"componentType":5123,
			"count":14,
			"normalized":true,
			"type":"VEC4"
		},
		{
			"bufferView":83,
			"componentType":5126,
			"count":14,
			"max":[
				5.025625228881836,
				2.7939677238464355e-07,
				20.65601921081543
			],
			"min":[
				3.2427871227264404,
				-0.15000024437904358,
				17.467243194580078
			],
			"type":"VEC3"
		},
		{
			"bufferView":84,
			"componentType":5126,
			"count":14,
			"type":"VEC3"
		},
		{
			"bufferView":85,
			"componentType":5126,
			"count":14,
			"type":"VEC2"
		},
		{
			"bufferView":86,
			"componentType":5126,
			"count":14,
			"type":"VEC2"
		},
		{
			"bufferView":87,
			"componentType":5123,
			"count":14,
			"normalized":true,
			"type":"VEC4"
		},
		{
			"bufferView":88,
			"componentType":5123,
			"count":48,
			"type":"SCALAR"
		},
		{
			"bufferView":89,
			"componentType":5126,
			"count":14,
			"max":[
				7.446699619293213,
				2.7939677238464355e-07,
				20.04913902282715
			],
			"min":[
				5.352078437805176,
				-0.15000024437904358,
				16.82094383239746
			],
			"type":"VEC3"
		},
		{
			"bufferView":90,
			"componentType":5126,
			"count":14,
			"type":"VEC3"
		},
		{
			"bufferView":91,
			"componentType":5126,
			"count":14,
			"type":"VEC2"
		},
		{
			"bufferView":92,
			"componentType":5126,
			"count":14,
			"type":"VEC2"
		},
		{
			"bufferView":93,
			"componentType":5123,
			"count":14,
			"normalized":true,
			"type":"VEC4"
		},
		{
			"bufferView":94,
			"componentType":5126,
			"count":14,
			"max":[
				9.759183883666992,
				2.7939677238464355e-07,
				19.14989471435547
			],
			"min":[
				7.383326053619385,
				-0.15000024437904358,
				15.929352760314941
			],
			"type":"VEC3"
		},
		{
			"bufferView":95,
			"componentType":5126,
			"count":14,
			"type":"VEC3"
		},
		{
			"bufferView":96,
			"componentType":5126,
			"count":14,
			"type":"VEC2"
		},
		{
			"bufferView":97,
			"componentType":5126,
			"count":14,
			"type":"VEC2"
		},
		{
			"bufferView":98,
			"componentType":5123,
			"count":14,
			"normalized":true,
			"type":"VEC4"
		},
		{
			"bufferView":99,
			"componentType":5126,
			"count":14,
			"max":[
				11.929357528686523,
				2.7939677238464355e-07,
				17.971406936645508
			],
			"min":[
				9.306906700134277,
				-0.15000024437904358,
				14.805479049682617
			],
			"type":"VEC3"
		},
		{
			"bufferView":100,
			"componentType":5126,
			"count":14,
			"type":"VEC3"
		},
		{
			"bufferView":101,
			"componentType":5126,
			"count":14,
			"type":"VEC2"
		},
		{
			"bufferView":102,
			"componentType":5126,
			"count":14,
			"type":"VEC2"
		},
		{
			"bufferView":103,
			"componentType":5123,
			"count":14,
			"normalized":true,
			"type":"VEC4"
		},
		{
			"bufferView":104,
			"componentType":5126,
			"count":14,
			"max":[
				13.925575256347656,
				2.7939677238464355e-07,
				16.53084945678711
			],
			"min":[
				11.094770431518555,
				-0.15000024437904358,
				13.465705871582031
			],
			"type":"VEC3"
		},
		{
			"bufferView":105,
			"componentType":5126,
			"count":14,
			"type":"VEC3"
		},
		{
			"bufferView":106,
			"componentType":5126,
			"count":14,
			"type":"VEC2"
		},
		{
			"bufferView":107,
			"componentType":5126,
			"count":14,
			"type":"VEC2"
		},
		{
			"bufferView":108,
			"componentType":5123,
			"count":14,
			"normalized":true,
			"type":"VEC4"
		},
		{
			"bufferView":109,
			"componentType":5126,
			"count":14,
			"max":[
				15.718722343444824,
				2.7939677238464355e-07,
				14.84924030303955
			],
			"min":[
				12.720850944519043,
				-0.15000024437904358,
				11.929574012756348
			],
			"type":"VEC3"
		},
		{
			"bufferView":110,
			"componentType":5126,
			"count":14,
			"type":"VEC3"
		},
		{
			"bufferView":111,
			"componentType":5126,
			"count":14,
			"type":"VEC2"
		},
		{
			"bufferView":112,
			"componentType":5126,
			"count":14,
			"type":"VEC2"
		},
		{
			"bufferView":113,
			"componentType":5123,
			"count":14,
			"normalized":true,
			"type":"VEC4"
		},
		{
			"bufferView":114,
			"componentType":5126,
			"count":14,
			"max":[
				17.28265953063965,
				2.7939677238464355e-07,
				12.951092720031738
			],
			"min":[
				14.161432266235352,
				-0.15000024437904358,
				10.219480514526367
			],
			"type":"VEC3"
		},
		{
			"bufferView":115,
			"componentType":5126,
			"count":14,
			"type":"VEC3"
		},
		{
			"bufferView":116,
			"componentType":5126,
			"count":14,
			"type":"VEC2"
		},
		{
			"bufferView":117,
			"componentType":5126,
			"count":14,
			"type":"VEC2"
		},
		{
			"bufferView":118,
			"componentType":5123,
			"count":14,
			"normalized":true,
			"type":"VEC4"
		},
		{
			"bufferView":119,
			"componentType":5126,
			"count":14,
			"max":[
				18.59457015991211,
				2.7939677238464355e-07,
				10.864089965820312
			],
			"min":[
				15.39550495147705,
				-0.15000024437904358,
				8.36036491394043
			],
			"type":"VEC3"
		},
		{
			"bufferView":120,
			"componentType":5126,
			"count":14,
			"type":"VEC3"
		},
		{
			"bufferView":121,
			"componentType":5126,
			"count":14,
			"type":"VEC2"
		},
		{
			"bufferView":122,
			"componentType":5126,
			"count":14,
			"type":"VEC2"
		},
		{
			"bufferView":123,
			"componentType":5123,
			"count":14,
			"normalized":true,
			"type":"VEC4"
		},
		{
			"bufferView":124,
			"componentType":5126,
			"count":14,
			"max":[
				19.63533592224121,
				2.7939677238464355e-07,
				8.618664741516113
			],
			"min":[
				16.40507698059082,
				-0.15000024437904358,
				6.379335403442383
			],
			"type":"VEC3"
		},
		{
			"bufferView":125,
			"componentType":5126,
			"count":14,
			"type":"VEC3"
		},
		{
			"bufferView":126,
			"componentType":5126,
			"count":14,
			"type":"VEC2"
		},
		{
			"bufferView":127,
			"componentType":5126,
			"count":14,
			"type":"VEC2"
		},
		{
			"bufferView":128,
			"componentType":5123,
			"count":14,
			"normalized":true,
			"type":"VEC4"
		},
		{
			"bufferView":129,
			"componentType":5126,
			"count":14,
			"max":[
				20.3897705078125,
				2.7939677238464355e-07,
				6.24755859375
			],
			"min":[
				17.175424575805664,
				-0.15000024437904358,
				4.305281639099121
			],
			"type":"VEC3"
		},
		{
			"bufferView":130,
			"componentType":5126,
			"count":14,
			"type":"VEC3"
		},
		{
			"bufferView":131,
			"componentType":5126,
			"count":14,
			"type":"VEC2"
		},
		{
			"bufferView":132,
			"componentType":5126,
			"count":14,
			"type":"VEC2"
		},
		{
			"bufferView":133,
			"componentType":5123,
			"count":14,
			"normalized":true,
			"type":"VEC4"
		},
		{
			"bufferView":134,
			"componentType":5126,
			"count":14,
			"max":[
				20.846878051757812,
				2.7939677238464355e-07,
				3.7853498458862305
			],
			"min":[
				17.695316314697266,
				-0.15000024437904358,
				2.168447494506836
			],
			"type":"VEC3"
		},
		{
			"bufferView":135,
			"componentType":5126,
			"count":14,
			"type":"VEC3"
		},
		{
			"bufferView":136,
			"componentType":5126,
			"count":14,
			"type":"VEC2"
		},
		{
			"bufferView":137,
			"componentType":5126,
			"count":14,
			"type":"VEC2"
		},
		{
			"bufferView":138,
			"componentType":5123,
			"count":14,
			"normalized":true,
			"type":"VEC4"
		},
		{
			"bufferView":139,
			"componentType":5126,
			"count":19,
			"max":[
				20.999988555908203,
				2.7939677238464355e-07,
				1.2679424285888672
			],
			"min":[
				17.957170486450195,
				-0.15000024437904358,
				-7.62939453125e-06
			],
			"type":"VEC3"
		},
		{
			"bufferView":140,
			"componentType":5126,
			"count":19,
			"type":"VEC3"
		},
		{
			"bufferView":141,
			"componentType":5126,
			"count":19,
			"type":"VEC2"
		},
		{
			"bufferView":142,
			"componentType":5126,
			"count":19,
			"type":"VEC2"
		},
		{
			"bufferView":143,
			"componentType":5123,
			"count":19,
			"normalized":true,
			"type":"VEC4"
		},
		{
			"bufferView":144,
			"componentType":5123,
			"count":48,
			"type":"SCALAR"
		},
		{
			"bufferView":145,
			"componentType":5126,
			"count":145,
			"max":[
				6.010003089904785,
				2.7939677238464355e-07,
				6.010000228881836
			],
			"min":[
				-2.6067297653753485e-07,
				-0.14999987185001373,
				-8.940705242821423e-08
			],
			"type":"VEC3"
		},
		{
			"bufferView":146,
			"componentType":5126,
			"count":145,
			"type":"VEC3"
		},
		{
			"bufferView":147,
			"componentType":5126,
			"count":145,
			"type":"VEC2"
		},
		{
			"bufferView":148,
			"componentType":5126,
			"count":145,
			"type":"VEC2"
		},
		{
			"bufferView":149,
			"componentType":5123,
			"count":145,
			"normalized":true,
			"type":"VEC4"
		},
		{
			"bufferView":150,
			"componentType":5123,
			"count":234,
			"type":"SCALAR"
		},
		{
			"bufferView":151,
			"componentType":5126,
			"count":55,
			"max":[
				19.999990463256836,
				-0.15000000596046448,
				20
			],
			"min":[
				-6.516827852465212e-06,
				-0.15000000596046448,
				0
			],
			"type":"VEC3"
		},
		{
			"bufferView":152,
			"componentType":5126,
			"count":55,
			"type":"VEC3"
		},
		{
			"bufferView":153,
			"componentType":5126,
			"count":55,
			"type":"VEC2"
		},
		{
			"bufferView":154,
			"componentType":5126,
			"count":55,
			"type":"VEC2"
		},
		{
			"bufferView":155,
			"componentType":5123,
			"count":55,
			"normalized":true,
			"type":"VEC4"
		},
		{
			"bufferView":156,
			"componentType":5123,
			"count":234,
			"type":"SCALAR"
		},
		{
			"bufferView":157,
			"componentType":5126,
			"count":80,
			"max":[
				17.799989700317383,
				-0.14800000190734863,
				17.80000114440918
			],
			"min":[
				-1.907349087559851e-06,
				-0.14800000190734863,
				-6.67572021484375e-06
			],
			"type":"VEC3"
		},
		{
			"bufferView":158,
			"componentType":5126,
			"count":80,
			"type":"VEC3"
		},
		{
			"bufferView":159,
			"componentType":5126,
			"count":80,
			"type":"VEC2"
		},
		{
			"bufferView":160,
			"componentType":5126,
			"count":80,
			"type":"VEC2"
		},
		{
			"bufferView":161,
			"componentType":5123,
			"count":80,
			"normalized":true,
			"type":"VEC4"
		},
		{
			"bufferView":162,
			"componentType":5123,
			"count":228,
			"type":"SCALAR"
		},
		{
			"bufferView":163,
			"componentType":5126,
			"count":534,
			"max":[
				20.999988555908203,
				2.7939677238464355e-07,
				21
			],
			"min":[
				-2.86102294921875e-06,
				-0.15000024437904358,
				-7.62939453125e-06
			],
			"type":"VEC3"
		},
		{
			"bufferView":164,
			"componentType":5126,
			"count":534,
			"type":"VEC3"
		},
		{
			"bufferView":165,
			"componentType":5126,
			"count":534,
			"type":"VEC2"
		},
		{
			"bufferView":166,
			"componentType":5126,
			"count":534,
			"type":"VEC2"
		},
		{
			"bufferView":167,
			"componentType":5123,
			"count":534,
			"normalized":true,
			"type":"VEC4"
		},
		{
			"bufferView":168,
			"componentType":5123,
			"count":1554,
			"type":"SCALAR"
		}
	],
	"bufferViews":[
		{
			"buffer":0,
			"byteLength":552,
			"byteOffset":0,
			"target":34962
		},
		{
			"buffer":0,
			"byteLength":552,
			"byteOffset":552,
			"target":34962
		},
		{
			"buffer":0,
			"byteLength":368,
			"byteOffset":1104,
			"target":34962
		},
		{
			"buffer":0,
			"byteLength":368,
			"byteOffset":1472,
			"target":34962
		},
		{
			"buffer":0,
			"byteLength":368,
			"byteOffset":1840,
			"target":34962
		},
		{
			"buffer":0,
			"byteLength":192,
			"byteOffset":2208,
			"target":34963
		},
		{
			"buffer":0,
			"byteLength":168,
			"byteOffset":2400,
			"target":34962
		},
		{
			"buffer":0,
			"byteLength":168,
			"byteOffset":2568,
			"target":34962
		},
		{
			"buffer":0,
			"byteLength":112,
			"byteOffset":2736,
			"target":34962
		},
		{
			"buffer":0,
			"byteLength":112,
			"byteOffset":2848,
			"target":34962
		},
		{
			"buffer":0,
			"byteLength":112,
			"byteOffset":2960,
			"target":34962
		},
		{
			"buffer":0,
			"byteLength":96,
			"byteOffset":3072,
			"target":34963
		},
		{
			"buffer":0,
			"byteLength":168,
			"byteOffset":3168,
			"target":34962
		},
		{
			"buffer":0,
			"byteLength":168,
			"byteOffset":3336,
			"target":34962
		},
		{
			"buffer":0,
			"byteLength":112,
			"byteOffset":3504,
			"target":34962
		},
		{
			"buffer":0,
			"byteLength":112,
			"byteOffset":3616,
			"target":34962
		},
		{
			"buffer":0,
			"byteLength":112,
			"byteOffset":3728,
			"target":34962
		},
		{
			"buffer":0,
			"byteLength":96,
			"byteOffset":3840,
			"target":34963
		},
		{
			"buffer":0,
			"byteLength":168,
			"byteOffset":3936,
			"target":34962
		},
		{
			"buffer":0,
			"byteLength":168,
			"byteOffset":4104,
			"target":34962
		},
		{
			"buffer":0,
			"byteLength":112,
			"byteOffset":4272,
			"target":34962
		},
		{
			"buffer":0,
			"byteLength":112,
			"byteOffset":4384,
			"target":34962
		},
		{
			"buffer":0,
			"byteLength":112,
			"byteOffset":4496,
			"target":34962
		},
		{
			"buffer":0,
			"byteLength":96,
			"byteOffset":4608,
			"target":34963
		},
		{
			"buffer":0,
			"byteLength":168,
			"byteOffset":4704,
			"target":34962
		},
		{
			"buffer":0,
			"byteLength":168,
			"byteOffset":4872,
			"target":34962
		},
		{
			"buffer":0,
			"byteLength":112,
			"byteOffset":5040,
			"target":34962
		},
		{
			"buffer":0,
			"byteLength":112,
			"byteOffset":5152,
			"target":34962
		},
		{
			"buffer":0,
			"byteLength":112,
			"byteOffset":5264,
			"target":34962
		},
		{
			"buffer":0,
			"byteLength":168,
			"byteOffset":5376,
			"target":34962
		},
		{
			"buffer":0,
			"byteLength":168,
			"byteOffset":5544,
			"target":34962
		},
		{
			"buffer":0,
			"byteLength":112,
			"byteOffset":5712,
			"target":34962
		},
		{
			"buffer":0,
			"byteLength":112,
			"byteOffset":5824,
			"target":34962
		},
		{
			"buffer":0,
			"byteLength":112,
			"byteOffset":5936,
			"target":34962
		},
		{
			"buffer":0,
			"byteLength":96,
			"byteOffset":6048,
			"target":34963
		},
		{
			"buffer":0,
			"byteLength":168,
			"byteOffset":6144,
			"target":34962
		},
		{
			"buffer":0,
			"byteLength":168,
			"byteOffset":6312,
			"target":34962
		},
		{
			"buffer":0,
			"byteLength":112,
			"byteOffset":6480,
			"target":34962
		},
		{
			"buffer":0,
			"byteLength":112,
			"byteOffset":6592,
			"target":34962
		},
		{
			"buffer":0,
			"byteLength":112,
			"byteOffset":6704,
			"target":34962
		},
		{
			"buffer":0,
			"byteLength":96,
			"byteOffset":6816,
			"target":34963
		},
		{
			"buffer":0,
			"byteLength":168,
			"byteOffset":6912,
			"target":34962
		},
		{
			"buffer":0,
			"byteLength":168,
			"byteOffset":7080,
			"target":34962
		},
		{
			"buffer":0,
			"byteLength":112,
			"byteOffset":7248,
			"target":34962
		},
		{
			"buffer":0,
			"byteLength":112,
			"byteOffset":7360,
			"target":34962
		},
		{
			"buffer":0,
			"byteLength":112,
			"byteOffset":7472,
			"target":34962
		},
		{
			"buffer":0,
			"byteLength":96,
			"byteOffset":7584,
			"target":34963
		},
		{
			"buffer":0,
			"byteLength":168,
			"byteOffset":7680,
			"target":34962
		},
		{
			"buffer":0,
			"byteLength":168,
			"byteOffset":7848,
			"target":34962
		},
		{
			"buffer":0,
			"byteLength":112,
			"byteOffset":8016,
			"target":34962
		},
		{
			"buffer":0,
			"byteLength":112,
			"byteOffset":8128,
			"target":34962
		},
		{
			"buffer":0,
			"byteLength":112,
			"byteOffset":8240,
			"target":34962
		},
		{
			"buffer":0,
			"byteLength":168,
			"byteOffset":8352,
			"target":34962
		},
		{
			"buffer":0,
			"byteLength":168,
			"byteOffset":8520,
			"target":34962
		},
		{
			"buffer":0,
			"byteLength":112,
			"byteOffset":8688,
			"target":34962
		},
		{
			"buffer":0,
			"byteLength":112,
			"byteOffset":8800,
			"target":34962
		},
		{
			"buffer":0,
			"byteLength":112,
			"byteOffset":8912,
			"target":34962
		},
		{
			"buffer":0,
			"byteLength":168,
			"byteOffset":9024,
			"target":34962
		},
		{
			"buffer":0,
			"byteLength":168,
			"byteOffset":9192,
			"target":34962
		},
		{
			"buffer":0,
			"byteLength":112,
			"byteOffset":9360,
			"target":34962
		},
		{
			"buffer":0,
			"byteLength":112,
			"byteOffset":9472,
			"target":34962
		},
		{
			"buffer":0,
			"byteLength":112,
			"byteOffset":9584,
			"target":34962
		},
		{
			"buffer":0,
			"byteLength":168,
			"byteOffset":9696,
			"target":34962
		},
		{
			"buffer":0,
			"byteLength":168,
			"byteOffset":9864,
			"target":34962
		},
		{
			"buffer":0,
			"byteLength":112,
			"byteOffset":10032,
			"target":34962
		},
		{
			"buffer":0,
			"byteLength":112,
			"byteOffset":10144,
			"target":34962
		},
		{
			"buffer":0,
			"byteLength":112,
			"byteOffset":10256,
			"target":34962
		},
		{
			"buffer":0,
			"byteLength":168,
			"byteOffset":10368,
			"target":34962
		},
		{
			"buffer":0,
			"byteLength":168,
			"byteOffset":10536,
			"target":34962
		},
		{
			"buffer":0,
			"byteLength":112,
			"byteOffset":10704,
			"target":34962
		},
		{
			"buffer":0,
			"byteLength":112,
			"byteOffset":10816,
			"target":34962
		},
		{
			"buffer":0,
			"byteLength":112,
			"byteOffset":10928,
			"target":34962
		},
		{
			"buffer":0,
			"byteLength":168,
			"byteOffset":11040,
			"target":34962
		},
		{
			"buffer":0,
			"byteLength":168,
			"byteOffset":11208,
			"target":34962
		},
		{
			"buffer":0,
			"byteLength":112,
			"byteOffset":11376,
			"target":34962
		},
		{
			"buffer":0,
			"byteLength":112,
			"byteOffset":11488,
			"target":34962
		},
		{
			"buffer":0,
			"byteLength":112,
			"byteOffset":11600,
			"target":34962
		},
		{
			"buffer":0,
			"byteLength":96,
			"byteOffset":11712,
			"target":34963
		},
		{
			"buffer":0,
			"byteLength":168,
			"byteOffset":11808,
			"target":34962
		},
		{
			"buffer":0,
			"byteLength":168,
			"byteOffset":11976,
			"target":34962
		},
		{
			"buffer":0,
			"byteLength":112,
			"byteOffset":12144,
			"target":34962
		},
		{
			"buffer":0,
			"byteLength":112,
			"byteOffset":12256,
			"target":34962
		},
		{
			"buffer":0,
			"byteLength":112,
			"byteOffset":12368,
			"target":34962
		},
		{
			"buffer":0,
			"byteLength":168,
			"byteOffset":12480,
			"target":34962
		},
		{
			"buffer":0,
			"byteLength":168,
			"byteOffset":12648,
			"target":34962
		},
		{
			"buffer":0,
			"byteLength":112,
			"byteOffset":12816,
			"target":34962
		},
		{
			"buffer":0,
			"byteLength":112,
			"byteOffset":12928,
			"target":34962
		},
		{
			"buffer":0,
			"byteLength":112,
			"byteOffset":13040,
			"target":34962
		},
		{
			"buffer":0,
			"byteLength":96,
			"byteOffset":13152,
			"target":34963
		},
		{
			"buffer":0,
			"byteLength":168,
			"byteOffset":13248,
			"target":34962
		},
		{
			"buffer":0,
			"byteLength":168,
			"byteOffset":13416,
			"target":34962
		},
		{
			"buffer":0,
			"byteLength":112,
			"byteOffset":13584,
			"target":34962
		},
		{
			"buffer":0,
			"byteLength":112,
			"byteOffset":13696,
			"target":34962
		},
		{
			"buffer":0,
			"byteLength":112,
			"byteOffset":13808,
			"target":34962
		},
		{
			"buffer":0,
			"byteLength":168,
			"byteOffset":13920,
			"target":34962
		},
		{
			"buffer":0,
			"byteLength":168,
			"byteOffset":14088,
			"target":34962
		},
		{
			"buffer":0,
			"byteLength":112,
			"byteOffset":14256,
			"target":34962
		},
		{
			"buffer":0,
			"byteLength":112,
			"byteOffset":14368,
			"target":34962
		},
		{
			"buffer":0,
			"byteLength":112,
			"byteOffset":14480,
			"target":34962
		},
		{
			"buffer":0,
			"byteLength":168,
			"byteOffset":14592,
			"target":34962
		},
		{
			"buffer":0,
			"byteLength":168,
			"byteOffset":14760,
			"target":34962
		},
		{
			"buffer":0,
			"byteLength":112,
			"byteOffset":14928,
			"target":34962
		},
		{
			"buffer":0,
			"byteLength":112,
			"byteOffset":15040,
			"target":34962
		},
		{
			"buffer":0,
			"byteLength":112,
			"byteOffset":15152,
			"target":34962
		},
		{
			"buffer":0,
			"byteLength":168,
			"byteOffset":15264,
			"target":34962
		},
		{
			"buffer":0,
			"byteLength":168,
			"byteOffset":15432,
			"target":34962
		},
		{
			"buffer":0,
			"byteLength":112,
			"byteOffset":15600,
			"target":34962
		},
		{
			"buffer":0,
			"byteLength":112,
			"byteOffset":15712,
			"target":34962
		},
		{
			"buffer":0,
			"byteLength":112,
			"byteOffset":15824,
			"target":34962
		},
		{
			"buffer":0,
			"byteLength":168,
			"byteOffset":15936,
			"target":34962
		},
		{
			"buffer":0,
			"byteLength":168,
			"byteOffset":16104,
			"target":34962
		},
		{
			"buffer":0,
			"byteLength":112,
			"byteOffset":16272,
			"target":34962
		},
		{
			"buffer":0,
			"byteLength":112,
			"byteOffset":16384,
			"target":34962
		},
		{
			"buffer":0,
			"byteLength":112,
			"byteOffset":16496,
			"target":34962
		},
		{
			"buffer":0,
			"byteLength":168,
			"byteOffset":16608,
			"target":34962
		},
		{
			"buffer":0,
			"byteLength":168,
			"byteOffset":16776,
			"target":34962
		},
		{
			"buffer":0,
			"byteLength":112,
			"byteOffset":16944,
			"target":34962
		},
		{
			"buffer":0,
			"byteLength":112,
			"byteOffset":17056,
			"target":34962
		},
		{
			"buffer":0,
			"byteLength":112,
			"byteOffset":17168,
			"target":34962
		},
		{
			"buffer":0,
			"byteLength":168,
			"byteOffset":17280,
			"target":34962
		},
		{
			"buffer":0,
			"byteLength":168,
			"byteOffset":17448,
			"target":34962
		},
		{
			"buffer":0,
			"byteLength":112,
			"byteOffset":17616,
			"target":34962
		},
		{
			"buffer":0,
			"byteLength":112,
			"byteOffset":17728,
			"target":34962
		},
		{
			"buffer":0,
			"byteLength":112,
			"byteOffset":17840,
			"target":34962
		},
		{
			"buffer":0,
			"byteLength":168,
			"byteOffset":17952,
			"target":34962
		},
		{
			"buffer":0,
			"byteLength":168,
			"byteOffset":18120,
			"target":34962
		},
		{
			"buffer":0,
			"byteLength":112,
			"byteOffset":18288,
			"target":34962
		},
		{
			"buffer":0,
			"byteLength":112,
			"byteOffset":18400,
			"target":34962
		},
		{
			"buffer":0,
			"byteLength":112,
			"byteOffset":18512,
			"target":34962
		},
		{
			"buffer":0,
			"byteLength":168,
			"byteOffset":18624,
			"target":34962
		},
		{
			"buffer":0,
			"byteLength":168,
			"byteOffset":18792,
			"target":34962
		},
		{
			"buffer":0,
			"byteLength":112,
			"byteOffset":18960,
			"target":34962
		},
		{
			"buffer":0,
			"byteLength":112,
			"byteOffset":19072,
			"target":34962
		},
		{
			"buffer":0,
			"byteLength":112,
			"byteOffset":19184,
			"target":34962
		},
		{
			"buffer":0,
			"byteLength":168,
			"byteOffset":19296,
			"target":34962
		},
		{
			"buffer":0,
			"byteLength":168,
			"byteOffset":19464,
			"target":34962
		},
		{
			"buffer":0,
			"byteLength":112,
			"byteOffset":19632,
			"target":34962
		},
		{
			"buffer":0,
			"byteLength":112,
			"byteOffset":19744,
			"target":34962
		},
		{
			"buffer":0,
			"byteLength":112,
			"byteOffset":19856,
			"target":34962
		},
		{
			"buffer":0,
			"byteLength":228,
			"byteOffset":19968,
			"target":34962
		},
		{
			"buffer":0,
			"byteLength":228,
			"byteOffset":20196,
			"target":34962
		},
		{
			"buffer":0,
			"byteLength":152,
			"byteOffset":20424,
			"target":34962
		},
		{
			"buffer":0,
			"byteLength":152,
			"byteOffset":20576,
			"target":34962
		},
		{
			"buffer":0,
			"byteLength":152,
			"byteOffset":20728,
			"target":34962
		},
		{
			"buffer":0,
			"byteLength":96,
			"byteOffset":20880,
			"target":34963
		},
		{
			"buffer":0,
			"byteLength":1740,
			"byteOffset":20976,
			"target":34962
		},
		{
			"buffer":0,
			"byteLength":1740,
			"byteOffset":22716,
			"target":34962
		},
		{
			"buffer":0,
			"byteLength":1160,
			"byteOffset":24456,
			"target":34962
		},
		{
			"buffer":0,
			"byteLength":1160,
			"byteOffset":25616,
			"target":34962
		},
		{
			"buffer":0,
			"byteLength":1160,
			"byteOffset":26776,
			"target":34962
		},
		{
			"buffer":0,
			"byteLength":468,
			"byteOffset":27936,
			"target":34963
		},
		{
			"buffer":0,
			"byteLength":660,
			"byteOffset":28404,
			"target":34962
		},
		{
			"buffer":0,
			"byteLength":660,
			"byteOffset":29064,
			"target":34962
		},
		{
			"buffer":0,
			"byteLength":440,
			"byteOffset":29724,
			"target":34962
		},
		{
			"buffer":0,
			"byteLength":440,
			"byteOffset":30164,
			"target":34962
		},
		{
			"buffer":0,
			"byteLength":440,
			"byteOffset":30604,
			"target":34962
		},
		{
			"buffer":0,
			"byteLength":468,
			"byteOffset":31044,
			"target":34963
		},
		{
			"buffer":0,
			"byteLength":960,
			"byteOffset":31512,
			"target":34962
		},
		{
			"buffer":0,
			"byteLength":960,
			"byteOffset":32472,
			"target":34962
		},
		{
			"buffer":0,
			"byteLength":640,
			"byteOffset":33432,
			"target":34962
		},
		{
			"buffer":0,
			"byteLength":640,
			"byteOffset":34072,
			"target":34962
		},
		{
			"buffer":0,
			"byteLength":640,
			"byteOffset":34712,
			"target":34962
		},
		{
			"buffer":0,
			"byteLength":456,
			"byteOffset":35352,
			"target":34963
		},
		{
			"buffer":0,
			"byteLength":6408,
			"byteOffset":35808,
			"target":34962
		},
		{
			"buffer":0,
			"byteLength":6408,
			"byteOffset":42216,
			"target":34962
		},
		{
			"buffer":0,
			"byteLength":4272,
			"byteOffset":48624,
			"target":34962
		},
		{
			"buffer":0,
			"byteLength":4272,
			"byteOffset":52896,
			"target":34962
		},
		{
			"buffer":0,
			"byteLength":4272,
			"byteOffset":57168,
			"target":34962
		},
		{
			"buffer":0,
			"byteLength":3108,
			"byteOffset":61440,
			"target":34963
		}
	],
	"samplers":[
		{
			"magFilter":9729,
			"minFilter":9987
		}
	],
	"buffers":[
		{
			"byteLength":64548,
			"uri":"Street_Curve_4LaneLong.bin"
		}
	]
}
