{
	"asset":{
		"generator":"Khronos glTF Blender I/O v4.3.47",
		"version":"2.0"
	},
	"scene":0,
	"scenes":[
		{
			"name":"Scene",
			"nodes":[
				24
			]
		}
	],
	"nodes":[
		{
			"mesh":0,
			"name":"Street_Curve_4Lane_Short_Curb_01-convcolonly"
		},
		{
			"mesh":1,
			"name":"Street_Curve_4Lane_Short_Curb_02-convcolonly"
		},
		{
			"mesh":2,
			"name":"Street_Curve_4Lane_Short_Curb_03-convcolonly"
		},
		{
			"mesh":3,
			"name":"Street_Curve_4Lane_Short_Curb_04-convcolonly"
		},
		{
			"mesh":4,
			"name":"Street_Curve_4Lane_Short_Curb_05-convcolonly"
		},
		{
			"mesh":5,
			"name":"Street_Curve_4Lane_Short_Curb_06-convcolonly"
		},
		{
			"mesh":6,
			"name":"Street_Curve_4Lane_Short_Curb_07-convcolonly"
		},
		{
			"mesh":7,
			"name":"Street_Curve_4Lane_Short_Curb_08-convcolonly"
		},
		{
			"mesh":8,
			"name":"Street_Curve_4Lane_Short_Curb_09-convcolonly"
		},
		{
			"mesh":9,
			"name":"Street_Curve_4Lane_Short_Curb_10-convcolonly"
		},
		{
			"mesh":10,
			"name":"Street_Curve_4Lane_Short_Curb_11-convcolonly"
		},
		{
			"mesh":11,
			"name":"Street_Curve_4Lane_Short_Curb_12-convcolonly"
		},
		{
			"mesh":12,
			"name":"Street_Curve_4Lane_Short_Curb_13-convcolonly"
		},
		{
			"mesh":13,
			"name":"Street_Curve_4Lane_Short_Curb_14-convcolonly"
		},
		{
			"mesh":14,
			"name":"Street_Curve_4Lane_Short_Curb_15-convcolonly"
		},
		{
			"mesh":15,
			"name":"Street_Curve_4Lane_Short_Curb_16-convcolonly"
		},
		{
			"mesh":16,
			"name":"Street_Curve_4Lane_Short_Curb_17-convcolonly"
		},
		{
			"mesh":17,
			"name":"Street_Curve_4Lane_Short_Curb_18-convcolonly"
		},
		{
			"mesh":18,
			"name":"Street_Curve_4Lane_Short_Curb_19-convcolonly"
		},
		{
			"mesh":19,
			"name":"Street_Curve_4Lane_Short_Curb_20-convcolonly"
		},
		{
			"mesh":20,
			"name":"Street_Curve_4Lane_Short_Curb_21-convcolonly"
		},
		{
			"mesh":21,
			"name":"Street_Curve_4Lane_Short_Curb_22-convcolonly"
		},
		{
			"mesh":22,
			"name":"Street_Curve_4Lane_Short_Curb_23-convcolonly"
		},
		{
			"mesh":23,
			"name":"Street_Curve_4Lane_Short_Curb_24-convcolonly"
		},
		{
			"children":[
				0,
				1,
				2,
				3,
				4,
				5,
				6,
				7,
				8,
				9,
				10,
				11,
				12,
				13,
				14,
				15,
				16,
				17,
				18,
				19,
				20,
				21,
				22,
				23
			],
			"mesh":24,
			"name":"Street_Curve_4Lane_Short_Curb"
		}
	],
	"materials":[
		{
			"doubleSided":true,
			"name":"Collision",
			"pbrMetallicRoughness":{
				"baseColorFactor":[
					0.036788325756788254,
					0.5504099726676941,
					0.8000074625015259,
					1
				],
				"metallicFactor":0
			}
		},
		{
			"doubleSided":true,
			"name":"MI_Trim_MetalConcrete",
			"normalTexture":{
				"index":0
			},
			"pbrMetallicRoughness":{
				"baseColorTexture":{
					"index":1
				},
				"metallicRoughnessTexture":{
					"index":2
				}
			}
		}
	],
	"meshes":[
		{
			"name":"Plane.103",
			"primitives":[
				{
					"attributes":{
						"POSITION":0,
						"NORMAL":1,
						"TEXCOORD_0":2,
						"TEXCOORD_1":3,
						"COLOR_0":4
					},
					"indices":5,
					"material":0
				}
			]
		},
		{
			"name":"Plane.104",
			"primitives":[
				{
					"attributes":{
						"POSITION":6,
						"NORMAL":7,
						"TEXCOORD_0":8,
						"TEXCOORD_1":9,
						"COLOR_0":10
					},
					"indices":11,
					"material":0
				}
			]
		},
		{
			"name":"Plane.106",
			"primitives":[
				{
					"attributes":{
						"POSITION":12,
						"NORMAL":13,
						"TEXCOORD_0":14,
						"TEXCOORD_1":15,
						"COLOR_0":16
					},
					"indices":11,
					"material":0
				}
			]
		},
		{
			"name":"Plane.107",
			"primitives":[
				{
					"attributes":{
						"POSITION":17,
						"NORMAL":18,
						"TEXCOORD_0":19,
						"TEXCOORD_1":20,
						"COLOR_0":21
					},
					"indices":22,
					"material":0
				}
			]
		},
		{
			"name":"Plane.108",
			"primitives":[
				{
					"attributes":{
						"POSITION":23,
						"NORMAL":24,
						"TEXCOORD_0":25,
						"TEXCOORD_1":26,
						"COLOR_0":27
					},
					"indices":28,
					"material":0
				}
			]
		},
		{
			"name":"Plane.109",
			"primitives":[
				{
					"attributes":{
						"POSITION":29,
						"NORMAL":30,
						"TEXCOORD_0":31,
						"TEXCOORD_1":32,
						"COLOR_0":33
					},
					"indices":28,
					"material":0
				}
			]
		},
		{
			"name":"Plane.110",
			"primitives":[
				{
					"attributes":{
						"POSITION":34,
						"NORMAL":35,
						"TEXCOORD_0":36,
						"TEXCOORD_1":37,
						"COLOR_0":38
					},
					"indices":39,
					"material":0
				}
			]
		},
		{
			"name":"Plane.111",
			"primitives":[
				{
					"attributes":{
						"POSITION":40,
						"NORMAL":41,
						"TEXCOORD_0":42,
						"TEXCOORD_1":43,
						"COLOR_0":44
					},
					"indices":45,
					"material":0
				}
			]
		},
		{
			"name":"Plane.112",
			"primitives":[
				{
					"attributes":{
						"POSITION":46,
						"NORMAL":47,
						"TEXCOORD_0":48,
						"TEXCOORD_1":49,
						"COLOR_0":50
					},
					"indices":51,
					"material":0
				}
			]
		},
		{
			"name":"Plane.113",
			"primitives":[
				{
					"attributes":{
						"POSITION":52,
						"NORMAL":53,
						"TEXCOORD_0":54,
						"TEXCOORD_1":55,
						"COLOR_0":56
					},
					"indices":51,
					"material":0
				}
			]
		},
		{
			"name":"Plane.114",
			"primitives":[
				{
					"attributes":{
						"POSITION":57,
						"NORMAL":58,
						"TEXCOORD_0":59,
						"TEXCOORD_1":60,
						"COLOR_0":61
					},
					"indices":62,
					"material":0
				}
			]
		},
		{
			"name":"Plane.115",
			"primitives":[
				{
					"attributes":{
						"POSITION":63,
						"NORMAL":64,
						"TEXCOORD_0":65,
						"TEXCOORD_1":66,
						"COLOR_0":67
					},
					"indices":68,
					"material":0
				}
			]
		},
		{
			"name":"Plane.117",
			"primitives":[
				{
					"attributes":{
						"POSITION":69,
						"NORMAL":70,
						"TEXCOORD_0":71,
						"TEXCOORD_1":72,
						"COLOR_0":73
					},
					"indices":74,
					"material":0
				}
			]
		},
		{
			"name":"Plane.120",
			"primitives":[
				{
					"attributes":{
						"POSITION":75,
						"NORMAL":76,
						"TEXCOORD_0":77,
						"TEXCOORD_1":78,
						"COLOR_0":79
					},
					"indices":80,
					"material":0
				}
			]
		},
		{
			"name":"Plane.121",
			"primitives":[
				{
					"attributes":{
						"POSITION":81,
						"NORMAL":82,
						"TEXCOORD_0":83,
						"TEXCOORD_1":84,
						"COLOR_0":85
					},
					"indices":22,
					"material":0
				}
			]
		},
		{
			"name":"Plane.122",
			"primitives":[
				{
					"attributes":{
						"POSITION":86,
						"NORMAL":87,
						"TEXCOORD_0":88,
						"TEXCOORD_1":89,
						"COLOR_0":90
					},
					"indices":22,
					"material":0
				}
			]
		},
		{
			"name":"Plane.123",
			"primitives":[
				{
					"attributes":{
						"POSITION":91,
						"NORMAL":92,
						"TEXCOORD_0":93,
						"TEXCOORD_1":94,
						"COLOR_0":95
					},
					"indices":22,
					"material":0
				}
			]
		},
		{
			"name":"Plane.124",
			"primitives":[
				{
					"attributes":{
						"POSITION":96,
						"NORMAL":97,
						"TEXCOORD_0":98,
						"TEXCOORD_1":99,
						"COLOR_0":100
					},
					"indices":22,
					"material":0
				}
			]
		},
		{
			"name":"Plane.125",
			"primitives":[
				{
					"attributes":{
						"POSITION":101,
						"NORMAL":102,
						"TEXCOORD_0":103,
						"TEXCOORD_1":104,
						"COLOR_0":105
					},
					"indices":106,
					"material":0
				}
			]
		},
		{
			"name":"Plane.126",
			"primitives":[
				{
					"attributes":{
						"POSITION":107,
						"NORMAL":108,
						"TEXCOORD_0":109,
						"TEXCOORD_1":110,
						"COLOR_0":111
					},
					"indices":106,
					"material":0
				}
			]
		},
		{
			"name":"Plane.127",
			"primitives":[
				{
					"attributes":{
						"POSITION":112,
						"NORMAL":113,
						"TEXCOORD_0":114,
						"TEXCOORD_1":115,
						"COLOR_0":116
					},
					"indices":106,
					"material":0
				}
			]
		},
		{
			"name":"Plane.128",
			"primitives":[
				{
					"attributes":{
						"POSITION":117,
						"NORMAL":118,
						"TEXCOORD_0":119,
						"TEXCOORD_1":120,
						"COLOR_0":121
					},
					"indices":122,
					"material":0
				}
			]
		},
		{
			"name":"Plane.129",
			"primitives":[
				{
					"attributes":{
						"POSITION":123,
						"NORMAL":124,
						"TEXCOORD_0":125,
						"TEXCOORD_1":126,
						"COLOR_0":127
					},
					"indices":122,
					"material":0
				}
			]
		},
		{
			"name":"Plane.130",
			"primitives":[
				{
					"attributes":{
						"POSITION":128,
						"NORMAL":129,
						"TEXCOORD_0":130,
						"TEXCOORD_1":131,
						"COLOR_0":132
					},
					"indices":133,
					"material":0
				}
			]
		},
		{
			"name":"Plane.074",
			"primitives":[
				{
					"attributes":{
						"POSITION":134,
						"NORMAL":135,
						"TEXCOORD_0":136,
						"TEXCOORD_1":137,
						"COLOR_0":138
					},
					"indices":139,
					"material":1
				}
			]
		}
	],
	"textures":[
		{
			"sampler":0,
			"source":0
		},
		{
			"sampler":0,
			"source":1
		},
		{
			"sampler":0,
			"source":2
		}
	],
	"images":[
		{
			"mimeType":"image/png",
			"name":"T_MetalConcrete_Normal",
			"uri":"../../materials/T_MetalConcrete_Normal.png"
		},
		{
			"mimeType":"image/png",
			"name":"T_MetalConcrete_BaseColor",
			"uri":"../../materials/T_MetalConcrete_BaseColor.png"
		},
		{
			"mimeType":"image/png",
			"name":"T_MetalConcrete_ORM",
			"uri":"../../materials/T_MetalConcrete_ORM.png"
		}
	],
	"accessors":[
		{
			"bufferView":0,
			"componentType":5126,
			"count":28,
			"max":[
				1.1772537231445312,
				2.682209014892578e-07,
				18
			],
			"min":[
				-2.86102294921875e-06,
				-0.15000024437904358,
				14.957905769348145
			],
			"type":"VEC3"
		},
		{
			"bufferView":1,
			"componentType":5126,
			"count":28,
			"type":"VEC3"
		},
		{
			"bufferView":2,
			"componentType":5126,
			"count":28,
			"type":"VEC2"
		},
		{
			"bufferView":3,
			"componentType":5126,
			"count":28,
			"type":"VEC2"
		},
		{
			"bufferView":4,
			"componentType":5123,
			"count":28,
			"normalized":true,
			"type":"VEC4"
		},
		{
			"bufferView":5,
			"componentType":5123,
			"count":48,
			"type":"SCALAR"
		},
		{
			"bufferView":6,
			"componentType":5126,
			"count":28,
			"max":[
				3.5116233825683594,
				2.682209014892578e-07,
				17.84600830078125
			],
			"min":[
				1.9565858840942383,
				-0.15000024437904358,
				14.701971054077148
			],
			"type":"VEC3"
		},
		{
			"bufferView":7,
			"componentType":5126,
			"count":28,
			"type":"VEC3"
		},
		{
			"bufferView":8,
			"componentType":5126,
			"count":28,
			"type":"VEC2"
		},
		{
			"bufferView":9,
			"componentType":5126,
			"count":28,
			"type":"VEC2"
		},
		{
			"bufferView":10,
			"componentType":5123,
			"count":28,
			"normalized":true,
			"type":"VEC4"
		},
		{
			"bufferView":11,
			"componentType":5123,
			"count":48,
			"type":"SCALAR"
		},
		{
			"bufferView":12,
			"componentType":5126,
			"count":28,
			"max":[
				5.785907745361328,
				2.682209014892578e-07,
				17.38666534423828
			],
			"min":[
				3.8796958923339844,
				-0.15000024437904358,
				14.194480895996094
			],
			"type":"VEC3"
		},
		{
			"bufferView":13,
			"componentType":5126,
			"count":28,
			"type":"VEC3"
		},
		{
			"bufferView":14,
			"componentType":5126,
			"count":28,
			"type":"VEC2"
		},
		{
			"bufferView":15,
			"componentType":5126,
			"count":28,
			"type":"VEC2"
		},
		{
			"bufferView":16,
			"componentType":5123,
			"count":28,
			"normalized":true,
			"type":"VEC4"
		},
		{
			"bufferView":17,
			"componentType":5126,
			"count":28,
			"max":[
				7.96119499206543,
				2.682209014892578e-07,
				16.62982940673828
			],
			"min":[
				5.736423492431641,
				-0.15000024437904358,
				13.444119453430176
			],
			"type":"VEC3"
		},
		{
			"bufferView":18,
			"componentType":5126,
			"count":28,
			"type":"VEC3"
		},
		{
			"bufferView":19,
			"componentType":5126,
			"count":28,
			"type":"VEC2"
		},
		{
			"bufferView":20,
			"componentType":5126,
			"count":28,
			"type":"VEC2"
		},
		{
			"bufferView":21,
			"componentType":5123,
			"count":28,
			"normalized":true,
			"type":"VEC4"
		},
		{
			"bufferView":22,
			"componentType":5123,
			"count":48,
			"type":"SCALAR"
		},
		{
			"bufferView":23,
			"componentType":5126,
			"count":28,
			"max":[
				10.000261306762695,
				2.682209014892578e-07,
				15.588454246520996
			],
			"min":[
				7.494997024536133,
				-0.15000024437904358,
				12.463725090026855
			],
			"type":"VEC3"
		},
		{
			"bufferView":24,
			"componentType":5126,
			"count":28,
			"type":"VEC3"
		},
		{
			"bufferView":25,
			"componentType":5126,
			"count":28,
			"type":"VEC2"
		},
		{
			"bufferView":26,
			"componentType":5126,
			"count":28,
			"type":"VEC2"
		},
		{
			"bufferView":27,
			"componentType":5123,
			"count":28,
			"normalized":true,
			"type":"VEC4"
		},
		{
			"bufferView":28,
			"componentType":5123,
			"count":48,
			"type":"SCALAR"
		},
		{
			"bufferView":29,
			"componentType":5126,
			"count":28,
			"max":[
				11.868221282958984,
				2.682209014892578e-07,
				14.280356407165527
			],
			"min":[
				9.12533187866211,
				-0.15000024437904358,
				11.270072937011719
			],
			"type":"VEC3"
		},
		{
			"bufferView":30,
			"componentType":5126,
			"count":28,
			"type":"VEC3"
		},
		{
			"bufferView":31,
			"componentType":5126,
			"count":28,
			"type":"VEC2"
		},
		{
			"bufferView":32,
			"componentType":5126,
			"count":28,
			"type":"VEC2"
		},
		{
			"bufferView":33,
			"componentType":5123,
			"count":28,
			"normalized":true,
			"type":"VEC4"
		},
		{
			"bufferView":34,
			"componentType":5126,
			"count":28,
			"max":[
				13.533113479614258,
				2.682209014892578e-07,
				12.727917671203613
			],
			"min":[
				10.599529266357422,
				-0.15000024437904358,
				9.883586883544922
			],
			"type":"VEC3"
		},
		{
			"bufferView":35,
			"componentType":5126,
			"count":28,
			"type":"VEC3"
		},
		{
			"bufferView":36,
			"componentType":5126,
			"count":28,
			"type":"VEC2"
		},
		{
			"bufferView":37,
			"componentType":5126,
			"count":28,
			"type":"VEC2"
		},
		{
			"bufferView":38,
			"componentType":5123,
			"count":28,
			"normalized":true,
			"type":"VEC4"
		},
		{
			"bufferView":39,
			"componentType":5123,
			"count":48,
			"type":"SCALAR"
		},
		{
			"bufferView":40,
			"componentType":5126,
			"count":28,
			"max":[
				14.966447830200195,
				2.682209014892578e-07,
				10.957700729370117
			],
			"min":[
				11.892364501953125,
				-0.15000024437904358,
				8.327990531921387
			],
			"type":"VEC3"
		},
		{
			"bufferView":41,
			"componentType":5126,
			"count":28,
			"type":"VEC3"
		},
		{
			"bufferView":42,
			"componentType":5126,
			"count":28,
			"type":"VEC2"
		},
		{
			"bufferView":43,
			"componentType":5126,
			"count":28,
			"type":"VEC2"
		},
		{
			"bufferView":44,
			"componentType":5123,
			"count":28,
			"normalized":true,
			"type":"VEC4"
		},
		{
			"bufferView":45,
			"componentType":5123,
			"count":48,
			"type":"SCALAR"
		},
		{
			"bufferView":46,
			"componentType":5126,
			"count":28,
			"max":[
				16.14370346069336,
				2.682209014892578e-07,
				8.999994277954102
			],
			"min":[
				12.981718063354492,
				-0.15000024437904358,
				6.629898548126221
			],
			"type":"VEC3"
		},
		{
			"bufferView":47,
			"componentType":5126,
			"count":28,
			"type":"VEC3"
		},
		{
			"bufferView":48,
			"componentType":5126,
			"count":28,
			"type":"VEC2"
		},
		{
			"bufferView":49,
			"componentType":5126,
			"count":28,
			"type":"VEC2"
		},
		{
			"bufferView":50,
			"componentType":5123,
			"count":28,
			"normalized":true,
			"type":"VEC4"
		},
		{
			"bufferView":51,
			"componentType":5123,
			"count":48,
			"type":"SCALAR"
		},
		{
			"bufferView":52,
			"componentType":5126,
			"count":28,
			"max":[
				17.044734954833984,
				2.682209014892578e-07,
				6.8882951736450195
			],
			"min":[
				13.848949432373047,
				-0.15000024437904358,
				4.8183674812316895
			],
			"type":"VEC3"
		},
		{
			"bufferView":53,
			"componentType":5126,
			"count":28,
			"type":"VEC3"
		},
		{
			"bufferView":54,
			"componentType":5126,
			"count":28,
			"type":"VEC2"
		},
		{
			"bufferView":55,
			"componentType":5126,
			"count":28,
			"type":"VEC2"
		},
		{
			"bufferView":56,
			"componentType":5123,
			"count":28,
			"normalized":true,
			"type":"VEC4"
		},
		{
			"bufferView":57,
			"componentType":5126,
			"count":28,
			"max":[
				17.654125213623047,
				2.682209014892578e-07,
				4.658735275268555
			],
			"min":[
				14.47922134399414,
				-0.15000024437904358,
				2.9243927001953125
			],
			"type":"VEC3"
		},
		{
			"bufferView":58,
			"componentType":5126,
			"count":28,
			"type":"VEC3"
		},
		{
			"bufferView":59,
			"componentType":5126,
			"count":28,
			"type":"VEC2"
		},
		{
			"bufferView":60,
			"componentType":5126,
			"count":28,
			"type":"VEC2"
		},
		{
			"bufferView":61,
			"componentType":5123,
			"count":28,
			"normalized":true,
			"type":"VEC4"
		},
		{
			"bufferView":62,
			"componentType":5123,
			"count":48,
			"type":"SCALAR"
		},
		{
			"bufferView":63,
			"componentType":5126,
			"count":28,
			"max":[
				17.961450576782227,
				2.682209014892578e-07,
				2.349463939666748
			],
			"min":[
				14.861749649047852,
				-0.15000024437904358,
				0.9803810119628906
			],
			"type":"VEC3"
		},
		{
			"bufferView":64,
			"componentType":5126,
			"count":28,
			"type":"VEC3"
		},
		{
			"bufferView":65,
			"componentType":5126,
			"count":28,
			"type":"VEC2"
		},
		{
			"bufferView":66,
			"componentType":5126,
			"count":28,
			"type":"VEC2"
		},
		{
			"bufferView":67,
			"componentType":5123,
			"count":28,
			"normalized":true,
			"type":"VEC4"
		},
		{
			"bufferView":68,
			"componentType":5123,
			"count":48,
			"type":"SCALAR"
		},
		{
			"bufferView":69,
			"componentType":5126,
			"count":28,
			"max":[
				2.3494691848754883,
				2.682209014892578e-07,
				17.96146011352539
			],
			"min":[
				0.9803910255432129,
				-0.15000024437904358,
				14.8617582321167
			],
			"type":"VEC3"
		},
		{
			"bufferView":70,
			"componentType":5126,
			"count":28,
			"type":"VEC3"
		},
		{
			"bufferView":71,
			"componentType":5126,
			"count":28,
			"type":"VEC2"
		},
		{
			"bufferView":72,
			"componentType":5126,
			"count":28,
			"type":"VEC2"
		},
		{
			"bufferView":73,
			"componentType":5123,
			"count":28,
			"normalized":true,
			"type":"VEC4"
		},
		{
			"bufferView":74,
			"componentType":5123,
			"count":48,
			"type":"SCALAR"
		},
		{
			"bufferView":75,
			"componentType":5126,
			"count":28,
			"max":[
				4.658740520477295,
				2.682209014892578e-07,
				17.65413475036621
			],
			"min":[
				2.9244022369384766,
				-0.15000024437904358,
				14.479227066040039
			],
			"type":"VEC3"
		},
		{
			"bufferView":76,
			"componentType":5126,
			"count":28,
			"type":"VEC3"
		},
		{
			"bufferView":77,
			"componentType":5126,
			"count":28,
			"type":"VEC2"
		},
		{
			"bufferView":78,
			"componentType":5126,
			"count":28,
			"type":"VEC2"
		},
		{
			"bufferView":79,
			"componentType":5123,
			"count":28,
			"normalized":true,
			"type":"VEC4"
		},
		{
			"bufferView":80,
			"componentType":5123,
			"count":48,
			"type":"SCALAR"
		},
		{
			"bufferView":81,
			"componentType":5126,
			"count":28,
			"max":[
				6.888299942016602,
				2.682209014892578e-07,
				17.044740676879883
			],
			"min":[
				4.818375587463379,
				-0.15000024437904358,
				13.84895133972168
			],
			"type":"VEC3"
		},
		{
			"bufferView":82,
			"componentType":5126,
			"count":28,
			"type":"VEC3"
		},
		{
			"bufferView":83,
			"componentType":5126,
			"count":28,
			"type":"VEC2"
		},
		{
			"bufferView":84,
			"componentType":5126,
			"count":28,
			"type":"VEC2"
		},
		{
			"bufferView":85,
			"componentType":5123,
			"count":28,
			"normalized":true,
			"type":"VEC4"
		},
		{
			"bufferView":86,
			"componentType":5126,
			"count":28,
			"max":[
				8.999998092651367,
				2.682209014892578e-07,
				16.143707275390625
			],
			"min":[
				6.629905700683594,
				-0.15000024437904358,
				12.981717109680176
			],
			"type":"VEC3"
		},
		{
			"bufferView":87,
			"componentType":5126,
			"count":28,
			"type":"VEC3"
		},
		{
			"bufferView":88,
			"componentType":5126,
			"count":28,
			"type":"VEC2"
		},
		{
			"bufferView":89,
			"componentType":5126,
			"count":28,
			"type":"VEC2"
		},
		{
			"bufferView":90,
			"componentType":5123,
			"count":28,
			"normalized":true,
			"type":"VEC4"
		},
		{
			"bufferView":91,
			"componentType":5126,
			"count":28,
			"max":[
				10.95770263671875,
				2.682209014892578e-07,
				14.966449737548828
			],
			"min":[
				8.327995300292969,
				-0.15000024437904358,
				11.892361640930176
			],
			"type":"VEC3"
		},
		{
			"bufferView":92,
			"componentType":5126,
			"count":28,
			"type":"VEC3"
		},
		{
			"bufferView":93,
			"componentType":5126,
			"count":28,
			"type":"VEC2"
		},
		{
			"bufferView":94,
			"componentType":5126,
			"count":28,
			"type":"VEC2"
		},
		{
			"bufferView":95,
			"componentType":5123,
			"count":28,
			"normalized":true,
			"type":"VEC4"
		},
		{
			"bufferView":96,
			"componentType":5126,
			"count":28,
			"max":[
				12.72791862487793,
				2.682209014892578e-07,
				13.533112525939941
			],
			"min":[
				9.88359260559082,
				-0.15000024437904358,
				10.59952449798584
			],
			"type":"VEC3"
		},
		{
			"bufferView":97,
			"componentType":5126,
			"count":28,
			"type":"VEC3"
		},
		{
			"bufferView":98,
			"componentType":5126,
			"count":28,
			"type":"VEC2"
		},
		{
			"bufferView":99,
			"componentType":5126,
			"count":28,
			"type":"VEC2"
		},
		{
			"bufferView":100,
			"componentType":5123,
			"count":28,
			"normalized":true,
			"type":"VEC4"
		},
		{
			"bufferView":101,
			"componentType":5126,
			"count":28,
			"max":[
				14.280355453491211,
				2.682209014892578e-07,
				11.868219375610352
			],
			"min":[
				11.270076751708984,
				-0.15000024437904358,
				9.125327110290527
			],
			"type":"VEC3"
		},
		{
			"bufferView":102,
			"componentType":5126,
			"count":28,
			"type":"VEC3"
		},
		{
			"bufferView":103,
			"componentType":5126,
			"count":28,
			"type":"VEC2"
		},
		{
			"bufferView":104,
			"componentType":5126,
			"count":28,
			"type":"VEC2"
		},
		{
			"bufferView":105,
			"componentType":5123,
			"count":28,
			"normalized":true,
			"type":"VEC4"
		},
		{
			"bufferView":106,
			"componentType":5123,
			"count":48,
			"type":"SCALAR"
		},
		{
			"bufferView":107,
			"componentType":5126,
			"count":28,
			"max":[
				15.588451385498047,
				2.682209014892578e-07,
				10.000258445739746
			],
			"min":[
				12.463727951049805,
				-0.15000024437904358,
				7.494991779327393
			],
			"type":"VEC3"
		},
		{
			"bufferView":108,
			"componentType":5126,
			"count":28,
			"type":"VEC3"
		},
		{
			"bufferView":109,
			"componentType":5126,
			"count":28,
			"type":"VEC2"
		},
		{
			"bufferView":110,
			"componentType":5126,
			"count":28,
			"type":"VEC2"
		},
		{
			"bufferView":111,
			"componentType":5123,
			"count":28,
			"normalized":true,
			"type":"VEC4"
		},
		{
			"bufferView":112,
			"componentType":5126,
			"count":28,
			"max":[
				16.629825592041016,
				2.682209014892578e-07,
				7.961190223693848
			],
			"min":[
				13.44411849975586,
				-0.15000024437904358,
				5.736414909362793
			],
			"type":"VEC3"
		},
		{
			"bufferView":113,
			"componentType":5126,
			"count":28,
			"type":"VEC3"
		},
		{
			"bufferView":114,
			"componentType":5126,
			"count":28,
			"type":"VEC2"
		},
		{
			"bufferView":115,
			"componentType":5126,
			"count":28,
			"type":"VEC2"
		},
		{
			"bufferView":116,
			"componentType":5123,
			"count":28,
			"normalized":true,
			"type":"VEC4"
		},
		{
			"bufferView":117,
			"componentType":5126,
			"count":28,
			"max":[
				17.386655807495117,
				2.682209014892578e-07,
				5.785903453826904
			],
			"min":[
				14.194477081298828,
				-0.15000024437904358,
				3.8796868324279785
			],
			"type":"VEC3"
		},
		{
			"bufferView":118,
			"componentType":5126,
			"count":28,
			"type":"VEC3"
		},
		{
			"bufferView":119,
			"componentType":5126,
			"count":28,
			"type":"VEC2"
		},
		{
			"bufferView":120,
			"componentType":5126,
			"count":28,
			"type":"VEC2"
		},
		{
			"bufferView":121,
			"componentType":5123,
			"count":28,
			"normalized":true,
			"type":"VEC4"
		},
		{
			"bufferView":122,
			"componentType":5123,
			"count":48,
			"type":"SCALAR"
		},
		{
			"bufferView":123,
			"componentType":5126,
			"count":28,
			"max":[
				17.845996856689453,
				2.682209014892578e-07,
				3.511618137359619
			],
			"min":[
				14.701963424682617,
				-0.15000024437904358,
				1.956575870513916
			],
			"type":"VEC3"
		},
		{
			"bufferView":124,
			"componentType":5126,
			"count":28,
			"type":"VEC3"
		},
		{
			"bufferView":125,
			"componentType":5126,
			"count":28,
			"type":"VEC2"
		},
		{
			"bufferView":126,
			"componentType":5126,
			"count":28,
			"type":"VEC2"
		},
		{
			"bufferView":127,
			"componentType":5123,
			"count":28,
			"normalized":true,
			"type":"VEC4"
		},
		{
			"bufferView":128,
			"componentType":5126,
			"count":28,
			"max":[
				17.999988555908203,
				2.682209014892578e-07,
				1.1772489547729492
			],
			"min":[
				14.957895278930664,
				-0.15000024437904358,
				-1.1444091796875e-05
			],
			"type":"VEC3"
		},
		{
			"bufferView":129,
			"componentType":5126,
			"count":28,
			"type":"VEC3"
		},
		{
			"bufferView":130,
			"componentType":5126,
			"count":28,
			"type":"VEC2"
		},
		{
			"bufferView":131,
			"componentType":5126,
			"count":28,
			"type":"VEC2"
		},
		{
			"bufferView":132,
			"componentType":5123,
			"count":28,
			"normalized":true,
			"type":"VEC4"
		},
		{
			"bufferView":133,
			"componentType":5123,
			"count":48,
			"type":"SCALAR"
		},
		{
			"bufferView":134,
			"componentType":5126,
			"count":324,
			"max":[
				17.999988555908203,
				2.682209014892578e-07,
				18
			],
			"min":[
				-2.86102294921875e-06,
				-0.15000024437904358,
				-1.1444091796875e-05
			],
			"type":"VEC3"
		},
		{
			"bufferView":135,
			"componentType":5126,
			"count":324,
			"type":"VEC3"
		},
		{
			"bufferView":136,
			"componentType":5126,
			"count":324,
			"type":"VEC2"
		},
		{
			"bufferView":137,
			"componentType":5126,
			"count":324,
			"type":"VEC2"
		},
		{
			"bufferView":138,
			"componentType":5123,
			"count":324,
			"normalized":true,
			"type":"VEC4"
		},
		{
			"bufferView":139,
			"componentType":5123,
			"count":1008,
			"type":"SCALAR"
		}
	],
	"bufferViews":[
		{
			"buffer":0,
			"byteLength":336,
			"byteOffset":0,
			"target":34962
		},
		{
			"buffer":0,
			"byteLength":336,
			"byteOffset":336,
			"target":34962
		},
		{
			"buffer":0,
			"byteLength":224,
			"byteOffset":672,
			"target":34962
		},
		{
			"buffer":0,
			"byteLength":224,
			"byteOffset":896,
			"target":34962
		},
		{
			"buffer":0,
			"byteLength":224,
			"byteOffset":1120,
			"target":34962
		},
		{
			"buffer":0,
			"byteLength":96,
			"byteOffset":1344,
			"target":34963
		},
		{
			"buffer":0,
			"byteLength":336,
			"byteOffset":1440,
			"target":34962
		},
		{
			"buffer":0,
			"byteLength":336,
			"byteOffset":1776,
			"target":34962
		},
		{
			"buffer":0,
			"byteLength":224,
			"byteOffset":2112,
			"target":34962
		},
		{
			"buffer":0,
			"byteLength":224,
			"byteOffset":2336,
			"target":34962
		},
		{
			"buffer":0,
			"byteLength":224,
			"byteOffset":2560,
			"target":34962
		},
		{
			"buffer":0,
			"byteLength":96,
			"byteOffset":2784,
			"target":34963
		},
		{
			"buffer":0,
			"byteLength":336,
			"byteOffset":2880,
			"target":34962
		},
		{
			"buffer":0,
			"byteLength":336,
			"byteOffset":3216,
			"target":34962
		},
		{
			"buffer":0,
			"byteLength":224,
			"byteOffset":3552,
			"target":34962
		},
		{
			"buffer":0,
			"byteLength":224,
			"byteOffset":3776,
			"target":34962
		},
		{
			"buffer":0,
			"byteLength":224,
			"byteOffset":4000,
			"target":34962
		},
		{
			"buffer":0,
			"byteLength":336,
			"byteOffset":4224,
			"target":34962
		},
		{
			"buffer":0,
			"byteLength":336,
			"byteOffset":4560,
			"target":34962
		},
		{
			"buffer":0,
			"byteLength":224,
			"byteOffset":4896,
			"target":34962
		},
		{
			"buffer":0,
			"byteLength":224,
			"byteOffset":5120,
			"target":34962
		},
		{
			"buffer":0,
			"byteLength":224,
			"byteOffset":5344,
			"target":34962
		},
		{
			"buffer":0,
			"byteLength":96,
			"byteOffset":5568,
			"target":34963
		},
		{
			"buffer":0,
			"byteLength":336,
			"byteOffset":5664,
			"target":34962
		},
		{
			"buffer":0,
			"byteLength":336,
			"byteOffset":6000,
			"target":34962
		},
		{
			"buffer":0,
			"byteLength":224,
			"byteOffset":6336,
			"target":34962
		},
		{
			"buffer":0,
			"byteLength":224,
			"byteOffset":6560,
			"target":34962
		},
		{
			"buffer":0,
			"byteLength":224,
			"byteOffset":6784,
			"target":34962
		},
		{
			"buffer":0,
			"byteLength":96,
			"byteOffset":7008,
			"target":34963
		},
		{
			"buffer":0,
			"byteLength":336,
			"byteOffset":7104,
			"target":34962
		},
		{
			"buffer":0,
			"byteLength":336,
			"byteOffset":7440,
			"target":34962
		},
		{
			"buffer":0,
			"byteLength":224,
			"byteOffset":7776,
			"target":34962
		},
		{
			"buffer":0,
			"byteLength":224,
			"byteOffset":8000,
			"target":34962
		},
		{
			"buffer":0,
			"byteLength":224,
			"byteOffset":8224,
			"target":34962
		},
		{
			"buffer":0,
			"byteLength":336,
			"byteOffset":8448,
			"target":34962
		},
		{
			"buffer":0,
			"byteLength":336,
			"byteOffset":8784,
			"target":34962
		},
		{
			"buffer":0,
			"byteLength":224,
			"byteOffset":9120,
			"target":34962
		},
		{
			"buffer":0,
			"byteLength":224,
			"byteOffset":9344,
			"target":34962
		},
		{
			"buffer":0,
			"byteLength":224,
			"byteOffset":9568,
			"target":34962
		},
		{
			"buffer":0,
			"byteLength":96,
			"byteOffset":9792,
			"target":34963
		},
		{
			"buffer":0,
			"byteLength":336,
			"byteOffset":9888,
			"target":34962
		},
		{
			"buffer":0,
			"byteLength":336,
			"byteOffset":10224,
			"target":34962
		},
		{
			"buffer":0,
			"byteLength":224,
			"byteOffset":10560,
			"target":34962
		},
		{
			"buffer":0,
			"byteLength":224,
			"byteOffset":10784,
			"target":34962
		},
		{
			"buffer":0,
			"byteLength":224,
			"byteOffset":11008,
			"target":34962
		},
		{
			"buffer":0,
			"byteLength":96,
			"byteOffset":11232,
			"target":34963
		},
		{
			"buffer":0,
			"byteLength":336,
			"byteOffset":11328,
			"target":34962
		},
		{
			"buffer":0,
			"byteLength":336,
			"byteOffset":11664,
			"target":34962
		},
		{
			"buffer":0,
			"byteLength":224,
			"byteOffset":12000,
			"target":34962
		},
		{
			"buffer":0,
			"byteLength":224,
			"byteOffset":12224,
			"target":34962
		},
		{
			"buffer":0,
			"byteLength":224,
			"byteOffset":12448,
			"target":34962
		},
		{
			"buffer":0,
			"byteLength":96,
			"byteOffset":12672,
			"target":34963
		},
		{
			"buffer":0,
			"byteLength":336,
			"byteOffset":12768,
			"target":34962
		},
		{
			"buffer":0,
			"byteLength":336,
			"byteOffset":13104,
			"target":34962
		},
		{
			"buffer":0,
			"byteLength":224,
			"byteOffset":13440,
			"target":34962
		},
		{
			"buffer":0,
			"byteLength":224,
			"byteOffset":13664,
			"target":34962
		},
		{
			"buffer":0,
			"byteLength":224,
			"byteOffset":13888,
			"target":34962
		},
		{
			"buffer":0,
			"byteLength":336,
			"byteOffset":14112,
			"target":34962
		},
		{
			"buffer":0,
			"byteLength":336,
			"byteOffset":14448,
			"target":34962
		},
		{
			"buffer":0,
			"byteLength":224,
			"byteOffset":14784,
			"target":34962
		},
		{
			"buffer":0,
			"byteLength":224,
			"byteOffset":15008,
			"target":34962
		},
		{
			"buffer":0,
			"byteLength":224,
			"byteOffset":15232,
			"target":34962
		},
		{
			"buffer":0,
			"byteLength":96,
			"byteOffset":15456,
			"target":34963
		},
		{
			"buffer":0,
			"byteLength":336,
			"byteOffset":15552,
			"target":34962
		},
		{
			"buffer":0,
			"byteLength":336,
			"byteOffset":15888,
			"target":34962
		},
		{
			"buffer":0,
			"byteLength":224,
			"byteOffset":16224,
			"target":34962
		},
		{
			"buffer":0,
			"byteLength":224,
			"byteOffset":16448,
			"target":34962
		},
		{
			"buffer":0,
			"byteLength":224,
			"byteOffset":16672,
			"target":34962
		},
		{
			"buffer":0,
			"byteLength":96,
			"byteOffset":16896,
			"target":34963
		},
		{
			"buffer":0,
			"byteLength":336,
			"byteOffset":16992,
			"target":34962
		},
		{
			"buffer":0,
			"byteLength":336,
			"byteOffset":17328,
			"target":34962
		},
		{
			"buffer":0,
			"byteLength":224,
			"byteOffset":17664,
			"target":34962
		},
		{
			"buffer":0,
			"byteLength":224,
			"byteOffset":17888,
			"target":34962
		},
		{
			"buffer":0,
			"byteLength":224,
			"byteOffset":18112,
			"target":34962
		},
		{
			"buffer":0,
			"byteLength":96,
			"byteOffset":18336,
			"target":34963
		},
		{
			"buffer":0,
			"byteLength":336,
			"byteOffset":18432,
			"target":34962
		},
		{
			"buffer":0,
			"byteLength":336,
			"byteOffset":18768,
			"target":34962
		},
		{
			"buffer":0,
			"byteLength":224,
			"byteOffset":19104,
			"target":34962
		},
		{
			"buffer":0,
			"byteLength":224,
			"byteOffset":19328,
			"target":34962
		},
		{
			"buffer":0,
			"byteLength":224,
			"byteOffset":19552,
			"target":34962
		},
		{
			"buffer":0,
			"byteLength":96,
			"byteOffset":19776,
			"target":34963
		},
		{
			"buffer":0,
			"byteLength":336,
			"byteOffset":19872,
			"target":34962
		},
		{
			"buffer":0,
			"byteLength":336,
			"byteOffset":20208,
			"target":34962
		},
		{
			"buffer":0,
			"byteLength":224,
			"byteOffset":20544,
			"target":34962
		},
		{
			"buffer":0,
			"byteLength":224,
			"byteOffset":20768,
			"target":34962
		},
		{
			"buffer":0,
			"byteLength":224,
			"byteOffset":20992,
			"target":34962
		},
		{
			"buffer":0,
			"byteLength":336,
			"byteOffset":21216,
			"target":34962
		},
		{
			"buffer":0,
			"byteLength":336,
			"byteOffset":21552,
			"target":34962
		},
		{
			"buffer":0,
			"byteLength":224,
			"byteOffset":21888,
			"target":34962
		},
		{
			"buffer":0,
			"byteLength":224,
			"byteOffset":22112,
			"target":34962
		},
		{
			"buffer":0,
			"byteLength":224,
			"byteOffset":22336,
			"target":34962
		},
		{
			"buffer":0,
			"byteLength":336,
			"byteOffset":22560,
			"target":34962
		},
		{
			"buffer":0,
			"byteLength":336,
			"byteOffset":22896,
			"target":34962
		},
		{
			"buffer":0,
			"byteLength":224,
			"byteOffset":23232,
			"target":34962
		},
		{
			"buffer":0,
			"byteLength":224,
			"byteOffset":23456,
			"target":34962
		},
		{
			"buffer":0,
			"byteLength":224,
			"byteOffset":23680,
			"target":34962
		},
		{
			"buffer":0,
			"byteLength":336,
			"byteOffset":23904,
			"target":34962
		},
		{
			"buffer":0,
			"byteLength":336,
			"byteOffset":24240,
			"target":34962
		},
		{
			"buffer":0,
			"byteLength":224,
			"byteOffset":24576,
			"target":34962
		},
		{
			"buffer":0,
			"byteLength":224,
			"byteOffset":24800,
			"target":34962
		},
		{
			"buffer":0,
			"byteLength":224,
			"byteOffset":25024,
			"target":34962
		},
		{
			"buffer":0,
			"byteLength":336,
			"byteOffset":25248,
			"target":34962
		},
		{
			"buffer":0,
			"byteLength":336,
			"byteOffset":25584,
			"target":34962
		},
		{
			"buffer":0,
			"byteLength":224,
			"byteOffset":25920,
			"target":34962
		},
		{
			"buffer":0,
			"byteLength":224,
			"byteOffset":26144,
			"target":34962
		},
		{
			"buffer":0,
			"byteLength":224,
			"byteOffset":26368,
			"target":34962
		},
		{
			"buffer":0,
			"byteLength":96,
			"byteOffset":26592,
			"target":34963
		},
		{
			"buffer":0,
			"byteLength":336,
			"byteOffset":26688,
			"target":34962
		},
		{
			"buffer":0,
			"byteLength":336,
			"byteOffset":27024,
			"target":34962
		},
		{
			"buffer":0,
			"byteLength":224,
			"byteOffset":27360,
			"target":34962
		},
		{
			"buffer":0,
			"byteLength":224,
			"byteOffset":27584,
			"target":34962
		},
		{
			"buffer":0,
			"byteLength":224,
			"byteOffset":27808,
			"target":34962
		},
		{
			"buffer":0,
			"byteLength":336,
			"byteOffset":28032,
			"target":34962
		},
		{
			"buffer":0,
			"byteLength":336,
			"byteOffset":28368,
			"target":34962
		},
		{
			"buffer":0,
			"byteLength":224,
			"byteOffset":28704,
			"target":34962
		},
		{
			"buffer":0,
			"byteLength":224,
			"byteOffset":28928,
			"target":34962
		},
		{
			"buffer":0,
			"byteLength":224,
			"byteOffset":29152,
			"target":34962
		},
		{
			"buffer":0,
			"byteLength":336,
			"byteOffset":29376,
			"target":34962
		},
		{
			"buffer":0,
			"byteLength":336,
			"byteOffset":29712,
			"target":34962
		},
		{
			"buffer":0,
			"byteLength":224,
			"byteOffset":30048,
			"target":34962
		},
		{
			"buffer":0,
			"byteLength":224,
			"byteOffset":30272,
			"target":34962
		},
		{
			"buffer":0,
			"byteLength":224,
			"byteOffset":30496,
			"target":34962
		},
		{
			"buffer":0,
			"byteLength":96,
			"byteOffset":30720,
			"target":34963
		},
		{
			"buffer":0,
			"byteLength":336,
			"byteOffset":30816,
			"target":34962
		},
		{
			"buffer":0,
			"byteLength":336,
			"byteOffset":31152,
			"target":34962
		},
		{
			"buffer":0,
			"byteLength":224,
			"byteOffset":31488,
			"target":34962
		},
		{
			"buffer":0,
			"byteLength":224,
			"byteOffset":31712,
			"target":34962
		},
		{
			"buffer":0,
			"byteLength":224,
			"byteOffset":31936,
			"target":34962
		},
		{
			"buffer":0,
			"byteLength":336,
			"byteOffset":32160,
			"target":34962
		},
		{
			"buffer":0,
			"byteLength":336,
			"byteOffset":32496,
			"target":34962
		},
		{
			"buffer":0,
			"byteLength":224,
			"byteOffset":32832,
			"target":34962
		},
		{
			"buffer":0,
			"byteLength":224,
			"byteOffset":33056,
			"target":34962
		},
		{
			"buffer":0,
			"byteLength":224,
			"byteOffset":33280,
			"target":34962
		},
		{
			"buffer":0,
			"byteLength":96,
			"byteOffset":33504,
			"target":34963
		},
		{
			"buffer":0,
			"byteLength":3888,
			"byteOffset":33600,
			"target":34962
		},
		{
			"buffer":0,
			"byteLength":3888,
			"byteOffset":37488,
			"target":34962
		},
		{
			"buffer":0,
			"byteLength":2592,
			"byteOffset":41376,
			"target":34962
		},
		{
			"buffer":0,
			"byteLength":2592,
			"byteOffset":43968,
			"target":34962
		},
		{
			"buffer":0,
			"byteLength":2592,
			"byteOffset":46560,
			"target":34962
		},
		{
			"buffer":0,
			"byteLength":2016,
			"byteOffset":49152,
			"target":34963
		}
	],
	"samplers":[
		{
			"magFilter":9729,
			"minFilter":9987
		}
	],
	"buffers":[
		{
			"byteLength":51168,
			"uri":"Street_Curve_4Lane_Short_Curb.bin"
		}
	]
}
