{
	"asset":{
		"generator":"Khronos glTF Blender I/O v4.3.47",
		"version":"2.0"
	},
	"scene":0,
	"scenes":[
		{
			"name":"Scene",
			"nodes":[
				26
			]
		}
	],
	"nodes":[
		{
			"mesh":0,
			"name":"Street_Curve_4Lane_Long_Curb_01-convcolonly",
			"rotation":[
				0,
				1,
				0,
				1.6292071336465597e-07
			],
			"scale":[
				3,
				3,
				3
			]
		},
		{
			"mesh":1,
			"name":"Street_Curve_4Lane_Long_Curb_02-convcolonly",
			"rotation":[
				0,
				1,
				0,
				1.6292071336465597e-07
			],
			"scale":[
				3,
				3,
				3
			]
		},
		{
			"mesh":2,
			"name":"Street_Curve_4Lane_Long_Curb_03-convcolonly",
			"rotation":[
				0,
				1,
				0,
				1.6292071336465597e-07
			],
			"scale":[
				3,
				3,
				3
			]
		},
		{
			"mesh":3,
			"name":"Street_Curve_4Lane_Long_Curb_04-convcolonly",
			"rotation":[
				0,
				1,
				0,
				1.6292071336465597e-07
			],
			"scale":[
				3,
				3,
				3
			]
		},
		{
			"mesh":4,
			"name":"Street_Curve_4Lane_Long_Curb_05-convcolonly",
			"rotation":[
				0,
				1,
				0,
				1.6292071336465597e-07
			],
			"scale":[
				3,
				3,
				3
			]
		},
		{
			"mesh":5,
			"name":"Street_Curve_4Lane_Long_Curb_06-convcolonly",
			"rotation":[
				0,
				1,
				0,
				1.6292071336465597e-07
			],
			"scale":[
				3,
				3,
				3
			]
		},
		{
			"mesh":6,
			"name":"Street_Curve_4Lane_Long_Curb_07-convcolonly",
			"rotation":[
				0,
				1,
				0,
				1.6292071336465597e-07
			],
			"scale":[
				3,
				3,
				3
			]
		},
		{
			"mesh":7,
			"name":"Street_Curve_4Lane_Long_Curb_08-convcolonly",
			"rotation":[
				0,
				1,
				0,
				1.6292071336465597e-07
			],
			"scale":[
				3,
				3,
				3
			]
		},
		{
			"mesh":8,
			"name":"Street_Curve_4Lane_Long_Curb_09-convcolonly",
			"rotation":[
				0,
				1,
				0,
				1.6292071336465597e-07
			],
			"scale":[
				3,
				3,
				3
			]
		},
		{
			"mesh":9,
			"name":"Street_Curve_4Lane_Long_Curb_10-convcolonly",
			"rotation":[
				0,
				1,
				0,
				1.6292071336465597e-07
			],
			"scale":[
				3,
				3,
				3
			]
		},
		{
			"mesh":10,
			"name":"Street_Curve_4Lane_Long_Curb_11-convcolonly",
			"rotation":[
				0,
				1,
				0,
				1.6292071336465597e-07
			],
			"scale":[
				3,
				3,
				3
			]
		},
		{
			"mesh":11,
			"name":"Street_Curve_4Lane_Long_Curb_12-convcolonly",
			"rotation":[
				0,
				1,
				0,
				1.6292071336465597e-07
			],
			"scale":[
				3,
				3,
				3
			]
		},
		{
			"mesh":12,
			"name":"Street_Curve_4Lane_Long_Curb_13-convcolonly",
			"rotation":[
				0,
				1,
				0,
				1.6292071336465597e-07
			],
			"scale":[
				3,
				3,
				3
			]
		},
		{
			"mesh":13,
			"name":"Street_Curve_4Lane_Long_Curb_14-convcolonly",
			"rotation":[
				0,
				1,
				0,
				1.6292071336465597e-07
			],
			"scale":[
				3,
				3,
				3
			]
		},
		{
			"mesh":14,
			"name":"Street_Curve_4Lane_Long_Curb_15-convcolonly",
			"rotation":[
				0,
				1,
				0,
				1.6292071336465597e-07
			],
			"scale":[
				3,
				3,
				3
			]
		},
		{
			"mesh":15,
			"name":"Street_Curve_4Lane_Long_Curb_16-convcolonly",
			"rotation":[
				0,
				1,
				0,
				1.6292071336465597e-07
			],
			"scale":[
				3,
				3,
				3
			]
		},
		{
			"mesh":16,
			"name":"Street_Curve_4Lane_Long_Curb_17-convcolonly",
			"rotation":[
				0,
				1,
				0,
				1.6292071336465597e-07
			],
			"scale":[
				3,
				3,
				3
			]
		},
		{
			"mesh":17,
			"name":"Street_Curve_4Lane_Long_Curb_18-convcolonly",
			"rotation":[
				0,
				1,
				0,
				1.6292071336465597e-07
			],
			"scale":[
				3,
				3,
				3
			]
		},
		{
			"mesh":18,
			"name":"Street_Curve_4Lane_Long_Curb_19-convcolonly",
			"rotation":[
				0,
				1,
				0,
				1.6292071336465597e-07
			],
			"scale":[
				3,
				3,
				3
			]
		},
		{
			"mesh":19,
			"name":"Street_Curve_4Lane_Long_Curb_20-convcolonly",
			"rotation":[
				0,
				1,
				0,
				1.6292071336465597e-07
			],
			"scale":[
				3,
				3,
				3
			]
		},
		{
			"mesh":20,
			"name":"Street_Curve_4Lane_Long_Curb_21-convcolonly",
			"rotation":[
				0,
				1,
				0,
				1.6292071336465597e-07
			],
			"scale":[
				3,
				3,
				3
			]
		},
		{
			"mesh":21,
			"name":"Street_Curve_4Lane_Long_Curb_22-convcolonly",
			"rotation":[
				0,
				1,
				0,
				1.6292071336465597e-07
			],
			"scale":[
				3,
				3,
				3
			]
		},
		{
			"mesh":22,
			"name":"Street_Curve_4Lane_Long_Curb_23-convcolonly",
			"rotation":[
				0,
				1,
				0,
				1.6292071336465597e-07
			],
			"scale":[
				3,
				3,
				3
			]
		},
		{
			"mesh":23,
			"name":"Street_Curve_4Lane_Long_Curb_24-convcolonly",
			"rotation":[
				0,
				1,
				0,
				1.6292071336465597e-07
			],
			"scale":[
				3,
				3,
				3
			]
		},
		{
			"mesh":24,
			"name":"Street_Curve_4Lane_Long_Curb_25-convcolonly",
			"rotation":[
				0,
				1,
				0,
				1.6292071336465597e-07
			],
			"scale":[
				3,
				3,
				3
			]
		},
		{
			"mesh":25,
			"name":"Street_Curve_4Lane_Long_Curb_26-convcolonly",
			"rotation":[
				0,
				1,
				0,
				1.6292071336465597e-07
			],
			"scale":[
				3,
				3,
				3
			]
		},
		{
			"children":[
				0,
				1,
				2,
				3,
				4,
				5,
				6,
				7,
				8,
				9,
				10,
				11,
				12,
				13,
				14,
				15,
				16,
				17,
				18,
				19,
				20,
				21,
				22,
				23,
				24,
				25
			],
			"mesh":26,
			"name":"Street_Curve_4Lane_Long_Curb",
			"rotation":[
				0,
				1,
				0,
				1.6292068494294654e-07
			],
			"scale":[
				3,
				3,
				3
			]
		}
	],
	"materials":[
		{
			"doubleSided":true,
			"name":"Collision",
			"pbrMetallicRoughness":{
				"baseColorFactor":[
					0.036788325756788254,
					0.5504099726676941,
					0.8000074625015259,
					1
				],
				"metallicFactor":0
			}
		},
		{
			"doubleSided":true,
			"name":"MI_Trim_MetalConcrete",
			"normalTexture":{
				"index":0
			},
			"pbrMetallicRoughness":{
				"baseColorTexture":{
					"index":1
				},
				"metallicRoughnessTexture":{
					"index":2
				}
			}
		}
	],
	"meshes":[
		{
			"name":"Plane.131",
			"primitives":[
				{
					"attributes":{
						"POSITION":0,
						"NORMAL":1,
						"TEXCOORD_0":2,
						"TEXCOORD_1":3,
						"COLOR_0":4
					},
					"indices":5,
					"material":0
				}
			]
		},
		{
			"name":"Plane.132",
			"primitives":[
				{
					"attributes":{
						"POSITION":6,
						"NORMAL":7,
						"TEXCOORD_0":8,
						"TEXCOORD_1":9,
						"COLOR_0":10
					},
					"indices":11,
					"material":0
				}
			]
		},
		{
			"name":"Plane.133",
			"primitives":[
				{
					"attributes":{
						"POSITION":12,
						"NORMAL":13,
						"TEXCOORD_0":14,
						"TEXCOORD_1":15,
						"COLOR_0":16
					},
					"indices":17,
					"material":0
				}
			]
		},
		{
			"name":"Plane.134",
			"primitives":[
				{
					"attributes":{
						"POSITION":18,
						"NORMAL":19,
						"TEXCOORD_0":20,
						"TEXCOORD_1":21,
						"COLOR_0":22
					},
					"indices":17,
					"material":0
				}
			]
		},
		{
			"name":"Plane.135",
			"primitives":[
				{
					"attributes":{
						"POSITION":23,
						"NORMAL":24,
						"TEXCOORD_0":25,
						"TEXCOORD_1":26,
						"COLOR_0":27
					},
					"indices":28,
					"material":0
				}
			]
		},
		{
			"name":"Plane.136",
			"primitives":[
				{
					"attributes":{
						"POSITION":29,
						"NORMAL":30,
						"TEXCOORD_0":31,
						"TEXCOORD_1":32,
						"COLOR_0":33
					},
					"indices":34,
					"material":0
				}
			]
		},
		{
			"name":"Plane.137",
			"primitives":[
				{
					"attributes":{
						"POSITION":35,
						"NORMAL":36,
						"TEXCOORD_0":37,
						"TEXCOORD_1":38,
						"COLOR_0":39
					},
					"indices":40,
					"material":0
				}
			]
		},
		{
			"name":"Plane.138",
			"primitives":[
				{
					"attributes":{
						"POSITION":41,
						"NORMAL":42,
						"TEXCOORD_0":43,
						"TEXCOORD_1":44,
						"COLOR_0":45
					},
					"indices":28,
					"material":0
				}
			]
		},
		{
			"name":"Plane.139",
			"primitives":[
				{
					"attributes":{
						"POSITION":46,
						"NORMAL":47,
						"TEXCOORD_0":48,
						"TEXCOORD_1":49,
						"COLOR_0":50
					},
					"indices":34,
					"material":0
				}
			]
		},
		{
			"name":"Plane.140",
			"primitives":[
				{
					"attributes":{
						"POSITION":51,
						"NORMAL":52,
						"TEXCOORD_0":53,
						"TEXCOORD_1":54,
						"COLOR_0":55
					},
					"indices":34,
					"material":0
				}
			]
		},
		{
			"name":"Plane.141",
			"primitives":[
				{
					"attributes":{
						"POSITION":56,
						"NORMAL":57,
						"TEXCOORD_0":58,
						"TEXCOORD_1":59,
						"COLOR_0":60
					},
					"indices":34,
					"material":0
				}
			]
		},
		{
			"name":"Plane.142",
			"primitives":[
				{
					"attributes":{
						"POSITION":61,
						"NORMAL":62,
						"TEXCOORD_0":63,
						"TEXCOORD_1":64,
						"COLOR_0":65
					},
					"indices":40,
					"material":0
				}
			]
		},
		{
			"name":"Plane.143",
			"primitives":[
				{
					"attributes":{
						"POSITION":66,
						"NORMAL":67,
						"TEXCOORD_0":68,
						"TEXCOORD_1":69,
						"COLOR_0":70
					},
					"indices":71,
					"material":0
				}
			]
		},
		{
			"name":"Plane.144",
			"primitives":[
				{
					"attributes":{
						"POSITION":72,
						"NORMAL":73,
						"TEXCOORD_0":74,
						"TEXCOORD_1":75,
						"COLOR_0":76
					},
					"indices":11,
					"material":0
				}
			]
		},
		{
			"name":"Plane.145",
			"primitives":[
				{
					"attributes":{
						"POSITION":77,
						"NORMAL":78,
						"TEXCOORD_0":79,
						"TEXCOORD_1":80,
						"COLOR_0":81
					},
					"indices":82,
					"material":0
				}
			]
		},
		{
			"name":"Plane.146",
			"primitives":[
				{
					"attributes":{
						"POSITION":83,
						"NORMAL":84,
						"TEXCOORD_0":85,
						"TEXCOORD_1":86,
						"COLOR_0":87
					},
					"indices":40,
					"material":0
				}
			]
		},
		{
			"name":"Plane.147",
			"primitives":[
				{
					"attributes":{
						"POSITION":88,
						"NORMAL":89,
						"TEXCOORD_0":90,
						"TEXCOORD_1":91,
						"COLOR_0":92
					},
					"indices":71,
					"material":0
				}
			]
		},
		{
			"name":"Plane.148",
			"primitives":[
				{
					"attributes":{
						"POSITION":93,
						"NORMAL":94,
						"TEXCOORD_0":95,
						"TEXCOORD_1":96,
						"COLOR_0":97
					},
					"indices":17,
					"material":0
				}
			]
		},
		{
			"name":"Plane.149",
			"primitives":[
				{
					"attributes":{
						"POSITION":98,
						"NORMAL":99,
						"TEXCOORD_0":100,
						"TEXCOORD_1":101,
						"COLOR_0":102
					},
					"indices":28,
					"material":0
				}
			]
		},
		{
			"name":"Plane.150",
			"primitives":[
				{
					"attributes":{
						"POSITION":103,
						"NORMAL":104,
						"TEXCOORD_0":105,
						"TEXCOORD_1":106,
						"COLOR_0":107
					},
					"indices":34,
					"material":0
				}
			]
		},
		{
			"name":"Plane.151",
			"primitives":[
				{
					"attributes":{
						"POSITION":108,
						"NORMAL":109,
						"TEXCOORD_0":110,
						"TEXCOORD_1":111,
						"COLOR_0":112
					},
					"indices":40,
					"material":0
				}
			]
		},
		{
			"name":"Plane.152",
			"primitives":[
				{
					"attributes":{
						"POSITION":113,
						"NORMAL":114,
						"TEXCOORD_0":115,
						"TEXCOORD_1":116,
						"COLOR_0":117
					},
					"indices":28,
					"material":0
				}
			]
		},
		{
			"name":"Plane.153",
			"primitives":[
				{
					"attributes":{
						"POSITION":118,
						"NORMAL":119,
						"TEXCOORD_0":120,
						"TEXCOORD_1":121,
						"COLOR_0":122
					},
					"indices":34,
					"material":0
				}
			]
		},
		{
			"name":"Plane.154",
			"primitives":[
				{
					"attributes":{
						"POSITION":123,
						"NORMAL":124,
						"TEXCOORD_0":125,
						"TEXCOORD_1":126,
						"COLOR_0":127
					},
					"indices":17,
					"material":0
				}
			]
		},
		{
			"name":"Plane.155",
			"primitives":[
				{
					"attributes":{
						"POSITION":128,
						"NORMAL":129,
						"TEXCOORD_0":130,
						"TEXCOORD_1":131,
						"COLOR_0":132
					},
					"indices":17,
					"material":0
				}
			]
		},
		{
			"name":"Plane.156",
			"primitives":[
				{
					"attributes":{
						"POSITION":133,
						"NORMAL":134,
						"TEXCOORD_0":135,
						"TEXCOORD_1":136,
						"COLOR_0":137
					},
					"indices":138,
					"material":0
				}
			]
		},
		{
			"name":"Plane.077",
			"primitives":[
				{
					"attributes":{
						"POSITION":139,
						"NORMAL":140,
						"TEXCOORD_0":141,
						"TEXCOORD_1":142,
						"COLOR_0":143
					},
					"indices":144,
					"material":1
				}
			]
		}
	],
	"textures":[
		{
			"sampler":0,
			"source":0
		},
		{
			"sampler":0,
			"source":1
		},
		{
			"sampler":0,
			"source":2
		}
	],
	"images":[
		{
			"mimeType":"image/png",
			"name":"T_MetalConcrete_Normal",
			"uri":"../../materials/T_MetalConcrete_Normal.png"
		},
		{
			"mimeType":"image/png",
			"name":"T_MetalConcrete_BaseColor",
			"uri":"../../materials/T_MetalConcrete_BaseColor.png"
		},
		{
			"mimeType":"image/png",
			"name":"T_MetalConcrete_ORM",
			"uri":"../../materials/T_MetalConcrete_ORM.png"
		}
	],
	"accessors":[
		{
			"bufferView":0,
			"componentType":5126,
			"count":14,
			"max":[
				-1.3181793292460497e-06,
				9.313225746154785e-08,
				-5.985726833343506
			],
			"min":[
				-0.42265069484710693,
				-0.050000082701444626,
				-7
			],
			"type":"VEC3"
		},
		{
			"bufferView":1,
			"componentType":5126,
			"count":14,
			"type":"VEC3"
		},
		{
			"bufferView":2,
			"componentType":5126,
			"count":14,
			"type":"VEC2"
		},
		{
			"bufferView":3,
			"componentType":5126,
			"count":14,
			"type":"VEC2"
		},
		{
			"bufferView":4,
			"componentType":5123,
			"count":14,
			"normalized":true,
			"type":"VEC4"
		},
		{
			"bufferView":5,
			"componentType":5123,
			"count":48,
			"type":"SCALAR"
		},
		{
			"bufferView":6,
			"componentType":5126,
			"count":14,
			"max":[
				-0.7228197455406189,
				9.313225746154785e-08,
				-5.898440837860107
			],
			"min":[
				-1.2617865800857544,
				-0.050000082701444626,
				-6.9489617347717285
			],
			"type":"VEC3"
		},
		{
			"bufferView":7,
			"componentType":5126,
			"count":14,
			"type":"VEC3"
		},
		{
			"bufferView":8,
			"componentType":5126,
			"count":14,
			"type":"VEC2"
		},
		{
			"bufferView":9,
			"componentType":5126,
			"count":14,
			"type":"VEC2"
		},
		{
			"bufferView":10,
			"componentType":5123,
			"count":14,
			"normalized":true,
			"type":"VEC4"
		},
		{
			"bufferView":11,
			"componentType":5123,
			"count":48,
			"type":"SCALAR"
		},
		{
			"bufferView":12,
			"componentType":5126,
			"count":14,
			"max":[
				-1.4350976943969727,
				9.313225746154785e-08,
				-5.725142478942871
			],
			"min":[
				-2.082522392272949,
				-0.050000082701444626,
				-6.7965922355651855
			],
			"type":"VEC3"
		},
		{
			"bufferView":13,
			"componentType":5126,
			"count":14,
			"type":"VEC3"
		},
		{
			"bufferView":14,
			"componentType":5126,
			"count":14,
			"type":"VEC2"
		},
		{
			"bufferView":15,
			"componentType":5126,
			"count":14,
			"type":"VEC2"
		},
		{
			"bufferView":16,
			"componentType":5123,
			"count":14,
			"normalized":true,
			"type":"VEC4"
		},
		{
			"bufferView":17,
			"componentType":5123,
			"count":48,
			"type":"SCALAR"
		},
		{
			"bufferView":18,
			"componentType":5126,
			"count":14,
			"max":[
				-2.1264491081237793,
				9.313225746154785e-08,
				-5.468358039855957
			],
			"min":[
				-2.8728907108306885,
				-0.050000082701444626,
				-6.545112609863281
			],
			"type":"VEC3"
		},
		{
			"bufferView":19,
			"componentType":5126,
			"count":14,
			"type":"VEC3"
		},
		{
			"bufferView":20,
			"componentType":5126,
			"count":14,
			"type":"VEC2"
		},
		{
			"bufferView":21,
			"componentType":5126,
			"count":14,
			"type":"VEC2"
		},
		{
			"bufferView":22,
			"componentType":5123,
			"count":14,
			"normalized":true,
			"type":"VEC4"
		},
		{
			"bufferView":23,
			"componentType":5126,
			"count":14,
			"max":[
				-2.7867913246154785,
				9.313225746154785e-08,
				-5.131834030151367
			],
			"min":[
				-3.621366024017334,
				-0.050000082701444626,
				-6.198190689086914
			],
			"type":"VEC3"
		},
		{
			"bufferView":24,
			"componentType":5126,
			"count":14,
			"type":"VEC3"
		},
		{
			"bufferView":25,
			"componentType":5126,
			"count":14,
			"type":"VEC2"
		},
		{
			"bufferView":26,
			"componentType":5126,
			"count":14,
			"type":"VEC2"
		},
		{
			"bufferView":27,
			"componentType":5123,
			"count":14,
			"normalized":true,
			"type":"VEC4"
		},
		{
			"bufferView":28,
			"componentType":5123,
			"count":48,
			"type":"SCALAR"
		},
		{
			"bufferView":29,
			"componentType":5126,
			"count":14,
			"max":[
				-3.4064958095550537,
				9.313225746154785e-08,
				-4.720474720001221
			],
			"min":[
				-4.317033290863037,
				-0.050000082701444626,
				-5.760884761810303
			],
			"type":"VEC3"
		},
		{
			"bufferView":30,
			"componentType":5126,
			"count":14,
			"type":"VEC3"
		},
		{
			"bufferView":31,
			"componentType":5126,
			"count":14,
			"type":"VEC2"
		},
		{
			"bufferView":32,
			"componentType":5126,
			"count":14,
			"type":"VEC2"
		},
		{
			"bufferView":33,
			"componentType":5123,
			"count":14,
			"normalized":true,
			"type":"VEC4"
		},
		{
			"bufferView":34,
			"componentType":5123,
			"count":48,
			"type":"SCALAR"
		},
		{
			"bufferView":35,
			"componentType":5126,
			"count":14,
			"max":[
				-3.9765264987945557,
				9.313225746154785e-08,
				-4.240281581878662
			],
			"min":[
				-4.9497480392456055,
				-0.050000082701444626,
				-5.239573001861572
			],
			"type":"VEC3"
		},
		{
			"bufferView":36,
			"componentType":5126,
			"count":14,
			"type":"VEC3"
		},
		{
			"bufferView":37,
			"componentType":5126,
			"count":14,
			"type":"VEC2"
		},
		{
			"bufferView":38,
			"componentType":5126,
			"count":14,
			"type":"VEC2"
		},
		{
			"bufferView":39,
			"componentType":5123,
			"count":14,
			"normalized":true,
			"type":"VEC4"
		},
		{
			"bufferView":40,
			"componentType":5123,
			"count":48,
			"type":"SCALAR"
		},
		{
			"bufferView":41,
			"componentType":5126,
			"count":14,
			"max":[
				-4.488570690155029,
				9.313225746154785e-08,
				-3.6982548236846924
			],
			"min":[
				-5.510284900665283,
				-0.050000082701444626,
				-4.641855716705322
			],
			"type":"VEC3"
		},
		{
			"bufferView":42,
			"componentType":5126,
			"count":14,
			"type":"VEC3"
		},
		{
			"bufferView":43,
			"componentType":5126,
			"count":14,
			"type":"VEC2"
		},
		{
			"bufferView":44,
			"componentType":5126,
			"count":14,
			"type":"VEC2"
		},
		{
			"bufferView":45,
			"componentType":5123,
			"count":14,
			"normalized":true,
			"type":"VEC4"
		},
		{
			"bufferView":46,
			"componentType":5126,
			"count":14,
			"max":[
				-4.9351606369018555,
				9.313225746154785e-08,
				-3.1022989749908447
			],
			"min":[
				-5.990468978881836,
				-0.050000082701444626,
				-3.976449966430664
			],
			"type":"VEC3"
		},
		{
			"bufferView":47,
			"componentType":5126,
			"count":14,
			"type":"VEC3"
		},
		{
			"bufferView":48,
			"componentType":5126,
			"count":14,
			"type":"VEC2"
		},
		{
			"bufferView":49,
			"componentType":5126,
			"count":14,
			"type":"VEC2"
		},
		{
			"bufferView":50,
			"componentType":5123,
			"count":14,
			"normalized":true,
			"type":"VEC4"
		},
		{
			"bufferView":51,
			"componentType":5126,
			"count":14,
			"max":[
				-5.309784889221191,
				9.313225746154785e-08,
				-2.4611051082611084
			],
			"min":[
				-6.383297920227051,
				-0.050000082701444626,
				-3.253058910369873
			],
			"type":"VEC3"
		},
		{
			"bufferView":52,
			"componentType":5126,
			"count":14,
			"type":"VEC3"
		},
		{
			"bufferView":53,
			"componentType":5126,
			"count":14,
			"type":"VEC2"
		},
		{
			"bufferView":54,
			"componentType":5126,
			"count":14,
			"type":"VEC2"
		},
		{
			"bufferView":55,
			"componentType":5123,
			"count":14,
			"normalized":true,
			"type":"VEC4"
		},
		{
			"bufferView":56,
			"componentType":5126,
			"count":14,
			"max":[
				-5.606979846954346,
				9.313225746154785e-08,
				-1.784022331237793
			],
			"min":[
				-6.68304443359375,
				-0.050000082701444626,
				-2.4822304248809814
			],
			"type":"VEC3"
		},
		{
			"bufferView":57,
			"componentType":5126,
			"count":14,
			"type":"VEC3"
		},
		{
			"bufferView":58,
			"componentType":5126,
			"count":14,
			"type":"VEC2"
		},
		{
			"bufferView":59,
			"componentType":5126,
			"count":14,
			"type":"VEC2"
		},
		{
			"bufferView":60,
			"componentType":5123,
			"count":14,
			"normalized":true,
			"type":"VEC4"
		},
		{
			"bufferView":61,
			"componentType":5126,
			"count":14,
			"max":[
				-5.822413921356201,
				9.313225746154785e-08,
				-1.0809249877929688
			],
			"min":[
				-6.8853373527526855,
				-0.050000082701444626,
				-1.6752055883407593
			],
			"type":"VEC3"
		},
		{
			"bufferView":62,
			"componentType":5126,
			"count":14,
			"type":"VEC3"
		},
		{
			"bufferView":63,
			"componentType":5126,
			"count":14,
			"type":"VEC2"
		},
		{
			"bufferView":64,
			"componentType":5126,
			"count":14,
			"type":"VEC2"
		},
		{
			"bufferView":65,
			"componentType":5123,
			"count":14,
			"normalized":true,
			"type":"VEC4"
		},
		{
			"bufferView":66,
			"componentType":5126,
			"count":14,
			"max":[
				-5.95294189453125,
				9.313225746154785e-08,
				-0.36206528544425964
			],
			"min":[
				-6.987225532531738,
				-0.050000082701444626,
				-0.8437525033950806
			],
			"type":"VEC3"
		},
		{
			"bufferView":67,
			"componentType":5126,
			"count":14,
			"type":"VEC3"
		},
		{
			"bufferView":68,
			"componentType":5126,
			"count":14,
			"type":"VEC2"
		},
		{
			"bufferView":69,
			"componentType":5126,
			"count":14,
			"type":"VEC2"
		},
		{
			"bufferView":70,
			"componentType":5123,
			"count":14,
			"normalized":true,
			"type":"VEC4"
		},
		{
			"bufferView":71,
			"componentType":5123,
			"count":48,
			"type":"SCALAR"
		},
		{
			"bufferView":72,
			"componentType":5126,
			"count":14,
			"max":[
				-0.36207106709480286,
				9.313225746154785e-08,
				-5.952944755554199
			],
			"min":[
				-0.8437579870223999,
				-0.050000082701444626,
				-6.987229347229004
			],
			"type":"VEC3"
		},
		{
			"bufferView":73,
			"componentType":5126,
			"count":14,
			"type":"VEC3"
		},
		{
			"bufferView":74,
			"componentType":5126,
			"count":14,
			"type":"VEC2"
		},
		{
			"bufferView":75,
			"componentType":5126,
			"count":14,
			"type":"VEC2"
		},
		{
			"bufferView":76,
			"componentType":5123,
			"count":14,
			"normalized":true,
			"type":"VEC4"
		},
		{
			"bufferView":77,
			"componentType":5126,
			"count":14,
			"max":[
				-1.0809309482574463,
				9.313225746154785e-08,
				-5.822413921356201
			],
			"min":[
				-1.67521071434021,
				-0.050000082701444626,
				-6.88533878326416
			],
			"type":"VEC3"
		},
		{
			"bufferView":78,
			"componentType":5126,
			"count":14,
			"type":"VEC3"
		},
		{
			"bufferView":79,
			"componentType":5126,
			"count":14,
			"type":"VEC2"
		},
		{
			"bufferView":80,
			"componentType":5126,
			"count":14,
			"type":"VEC2"
		},
		{
			"bufferView":81,
			"componentType":5123,
			"count":14,
			"normalized":true,
			"type":"VEC4"
		},
		{
			"bufferView":82,
			"componentType":5123,
			"count":48,
			"type":"SCALAR"
		},
		{
			"bufferView":83,
			"componentType":5126,
			"count":14,
			"max":[
				-1.7840280532836914,
				9.313225746154785e-08,
				-5.606980323791504
			],
			"min":[
				-2.4822351932525635,
				-0.050000082701444626,
				-6.683045387268066
			],
			"type":"VEC3"
		},
		{
			"bufferView":84,
			"componentType":5126,
			"count":14,
			"type":"VEC3"
		},
		{
			"bufferView":85,
			"componentType":5126,
			"count":14,
			"type":"VEC2"
		},
		{
			"bufferView":86,
			"componentType":5126,
			"count":14,
			"type":"VEC2"
		},
		{
			"bufferView":87,
			"componentType":5123,
			"count":14,
			"normalized":true,
			"type":"VEC4"
		},
		{
			"bufferView":88,
			"componentType":5126,
			"count":14,
			"max":[
				-2.4611103534698486,
				9.313225746154785e-08,
				-5.309783458709717
			],
			"min":[
				-3.253063201904297,
				-0.050000082701444626,
				-6.383297443389893
			],
			"type":"VEC3"
		},
		{
			"bufferView":89,
			"componentType":5126,
			"count":14,
			"type":"VEC3"
		},
		{
			"bufferView":90,
			"componentType":5126,
			"count":14,
			"type":"VEC2"
		},
		{
			"bufferView":91,
			"componentType":5126,
			"count":14,
			"type":"VEC2"
		},
		{
			"bufferView":92,
			"componentType":5123,
			"count":14,
			"normalized":true,
			"type":"VEC4"
		},
		{
			"bufferView":93,
			"componentType":5126,
			"count":14,
			"max":[
				-3.1023037433624268,
				9.313225746154785e-08,
				-4.935158729553223
			],
			"min":[
				-3.976454496383667,
				-0.050000082701444626,
				-5.990467548370361
			],
			"type":"VEC3"
		},
		{
			"bufferView":94,
			"componentType":5126,
			"count":14,
			"type":"VEC3"
		},
		{
			"bufferView":95,
			"componentType":5126,
			"count":14,
			"type":"VEC2"
		},
		{
			"bufferView":96,
			"componentType":5126,
			"count":14,
			"type":"VEC2"
		},
		{
			"bufferView":97,
			"componentType":5123,
			"count":14,
			"normalized":true,
			"type":"VEC4"
		},
		{
			"bufferView":98,
			"componentType":5126,
			"count":14,
			"max":[
				-3.698258399963379,
				9.313225746154785e-08,
				-4.488567352294922
			],
			"min":[
				-4.641860008239746,
				-0.050000082701444626,
				-5.510282039642334
			],
			"type":"VEC3"
		},
		{
			"bufferView":99,
			"componentType":5126,
			"count":14,
			"type":"VEC3"
		},
		{
			"bufferView":100,
			"componentType":5126,
			"count":14,
			"type":"VEC2"
		},
		{
			"bufferView":101,
			"componentType":5126,
			"count":14,
			"type":"VEC2"
		},
		{
			"bufferView":102,
			"componentType":5123,
			"count":14,
			"normalized":true,
			"type":"VEC4"
		},
		{
			"bufferView":103,
			"componentType":5126,
			"count":14,
			"max":[
				-4.2402849197387695,
				9.313225746154785e-08,
				-3.976522922515869
			],
			"min":[
				-5.2395758628845215,
				-0.050000082701444626,
				-4.949745178222656
			],
			"type":"VEC3"
		},
		{
			"bufferView":104,
			"componentType":5126,
			"count":14,
			"type":"VEC3"
		},
		{
			"bufferView":105,
			"componentType":5126,
			"count":14,
			"type":"VEC2"
		},
		{
			"bufferView":106,
			"componentType":5126,
			"count":14,
			"type":"VEC2"
		},
		{
			"bufferView":107,
			"componentType":5123,
			"count":14,
			"normalized":true,
			"type":"VEC4"
		},
		{
			"bufferView":108,
			"componentType":5126,
			"count":14,
			"max":[
				-4.720478534698486,
				9.313225746154785e-08,
				-3.406491994857788
			],
			"min":[
				-5.760887622833252,
				-0.050000082701444626,
				-4.317028999328613
			],
			"type":"VEC3"
		},
		{
			"bufferView":109,
			"componentType":5126,
			"count":14,
			"type":"VEC3"
		},
		{
			"bufferView":110,
			"componentType":5126,
			"count":14,
			"type":"VEC2"
		},
		{
			"bufferView":111,
			"componentType":5126,
			"count":14,
			"type":"VEC2"
		},
		{
			"bufferView":112,
			"componentType":5123,
			"count":14,
			"normalized":true,
			"type":"VEC4"
		},
		{
			"bufferView":113,
			"componentType":5126,
			"count":14,
			"max":[
				-5.1318359375,
				9.313225746154785e-08,
				-2.7867867946624756
			],
			"min":[
				-6.1981916427612305,
				-0.050000082701444626,
				-3.621361494064331
			],
			"type":"VEC3"
		},
		{
			"bufferView":114,
			"componentType":5126,
			"count":14,
			"type":"VEC3"
		},
		{
			"bufferView":115,
			"componentType":5126,
			"count":14,
			"type":"VEC2"
		},
		{
			"bufferView":116,
			"componentType":5126,
			"count":14,
			"type":"VEC2"
		},
		{
			"bufferView":117,
			"componentType":5123,
			"count":14,
			"normalized":true,
			"type":"VEC4"
		},
		{
			"bufferView":118,
			"componentType":5126,
			"count":14,
			"max":[
				-5.468359470367432,
				9.313225746154785e-08,
				-2.126443386077881
			],
			"min":[
				-6.545112609863281,
				-0.050000082701444626,
				-2.8728859424591064
			],
			"type":"VEC3"
		},
		{
			"bufferView":119,
			"componentType":5126,
			"count":14,
			"type":"VEC3"
		},
		{
			"bufferView":120,
			"componentType":5126,
			"count":14,
			"type":"VEC2"
		},
		{
			"bufferView":121,
			"componentType":5126,
			"count":14,
			"type":"VEC2"
		},
		{
			"bufferView":122,
			"componentType":5123,
			"count":14,
			"normalized":true,
			"type":"VEC4"
		},
		{
			"bufferView":123,
			"componentType":5126,
			"count":14,
			"max":[
				-5.725142002105713,
				9.313225746154785e-08,
				-1.4350919723510742
			],
			"min":[
				-6.796590805053711,
				-0.050000082701444626,
				-2.082517385482788
			],
			"type":"VEC3"
		},
		{
			"bufferView":124,
			"componentType":5126,
			"count":14,
			"type":"VEC3"
		},
		{
			"bufferView":125,
			"componentType":5126,
			"count":14,
			"type":"VEC2"
		},
		{
			"bufferView":126,
			"componentType":5126,
			"count":14,
			"type":"VEC2"
		},
		{
			"bufferView":127,
			"componentType":5123,
			"count":14,
			"normalized":true,
			"type":"VEC4"
		},
		{
			"bufferView":128,
			"componentType":5126,
			"count":14,
			"max":[
				-5.898439407348633,
				9.313225746154785e-08,
				-0.7228139042854309
			],
			"min":[
				-6.9489593505859375,
				-0.050000082701444626,
				-1.261781096458435
			],
			"type":"VEC3"
		},
		{
			"bufferView":129,
			"componentType":5126,
			"count":14,
			"type":"VEC3"
		},
		{
			"bufferView":130,
			"componentType":5126,
			"count":14,
			"type":"VEC2"
		},
		{
			"bufferView":131,
			"componentType":5126,
			"count":14,
			"type":"VEC2"
		},
		{
			"bufferView":132,
			"componentType":5123,
			"count":14,
			"normalized":true,
			"type":"VEC4"
		},
		{
			"bufferView":133,
			"componentType":5126,
			"count":19,
			"max":[
				-5.985723495483398,
				9.313225746154785e-08,
				4.497092959354632e-06
			],
			"min":[
				-6.999996185302734,
				-0.050000082701444626,
				-0.4226452112197876
			],
			"type":"VEC3"
		},
		{
			"bufferView":134,
			"componentType":5126,
			"count":19,
			"type":"VEC3"
		},
		{
			"bufferView":135,
			"componentType":5126,
			"count":19,
			"type":"VEC2"
		},
		{
			"bufferView":136,
			"componentType":5126,
			"count":19,
			"type":"VEC2"
		},
		{
			"bufferView":137,
			"componentType":5123,
			"count":19,
			"normalized":true,
			"type":"VEC4"
		},
		{
			"bufferView":138,
			"componentType":5123,
			"count":48,
			"type":"SCALAR"
		},
		{
			"bufferView":139,
			"componentType":5126,
			"count":368,
			"max":[
				-1.2689334880633396e-06,
				9.313225746154785e-08,
				4.497092959354632e-06
			],
			"min":[
				-6.999996185302734,
				-0.050000082701444626,
				-7
			],
			"type":"VEC3"
		},
		{
			"bufferView":140,
			"componentType":5126,
			"count":368,
			"type":"VEC3"
		},
		{
			"bufferView":141,
			"componentType":5126,
			"count":368,
			"type":"VEC2"
		},
		{
			"bufferView":142,
			"componentType":5126,
			"count":368,
			"type":"VEC2"
		},
		{
			"bufferView":143,
			"componentType":5123,
			"count":368,
			"normalized":true,
			"type":"VEC4"
		},
		{
			"bufferView":144,
			"componentType":5123,
			"count":1119,
			"type":"SCALAR"
		}
	],
	"bufferViews":[
		{
			"buffer":0,
			"byteLength":168,
			"byteOffset":0,
			"target":34962
		},
		{
			"buffer":0,
			"byteLength":168,
			"byteOffset":168,
			"target":34962
		},
		{
			"buffer":0,
			"byteLength":112,
			"byteOffset":336,
			"target":34962
		},
		{
			"buffer":0,
			"byteLength":112,
			"byteOffset":448,
			"target":34962
		},
		{
			"buffer":0,
			"byteLength":112,
			"byteOffset":560,
			"target":34962
		},
		{
			"buffer":0,
			"byteLength":96,
			"byteOffset":672,
			"target":34963
		},
		{
			"buffer":0,
			"byteLength":168,
			"byteOffset":768,
			"target":34962
		},
		{
			"buffer":0,
			"byteLength":168,
			"byteOffset":936,
			"target":34962
		},
		{
			"buffer":0,
			"byteLength":112,
			"byteOffset":1104,
			"target":34962
		},
		{
			"buffer":0,
			"byteLength":112,
			"byteOffset":1216,
			"target":34962
		},
		{
			"buffer":0,
			"byteLength":112,
			"byteOffset":1328,
			"target":34962
		},
		{
			"buffer":0,
			"byteLength":96,
			"byteOffset":1440,
			"target":34963
		},
		{
			"buffer":0,
			"byteLength":168,
			"byteOffset":1536,
			"target":34962
		},
		{
			"buffer":0,
			"byteLength":168,
			"byteOffset":1704,
			"target":34962
		},
		{
			"buffer":0,
			"byteLength":112,
			"byteOffset":1872,
			"target":34962
		},
		{
			"buffer":0,
			"byteLength":112,
			"byteOffset":1984,
			"target":34962
		},
		{
			"buffer":0,
			"byteLength":112,
			"byteOffset":2096,
			"target":34962
		},
		{
			"buffer":0,
			"byteLength":96,
			"byteOffset":2208,
			"target":34963
		},
		{
			"buffer":0,
			"byteLength":168,
			"byteOffset":2304,
			"target":34962
		},
		{
			"buffer":0,
			"byteLength":168,
			"byteOffset":2472,
			"target":34962
		},
		{
			"buffer":0,
			"byteLength":112,
			"byteOffset":2640,
			"target":34962
		},
		{
			"buffer":0,
			"byteLength":112,
			"byteOffset":2752,
			"target":34962
		},
		{
			"buffer":0,
			"byteLength":112,
			"byteOffset":2864,
			"target":34962
		},
		{
			"buffer":0,
			"byteLength":168,
			"byteOffset":2976,
			"target":34962
		},
		{
			"buffer":0,
			"byteLength":168,
			"byteOffset":3144,
			"target":34962
		},
		{
			"buffer":0,
			"byteLength":112,
			"byteOffset":3312,
			"target":34962
		},
		{
			"buffer":0,
			"byteLength":112,
			"byteOffset":3424,
			"target":34962
		},
		{
			"buffer":0,
			"byteLength":112,
			"byteOffset":3536,
			"target":34962
		},
		{
			"buffer":0,
			"byteLength":96,
			"byteOffset":3648,
			"target":34963
		},
		{
			"buffer":0,
			"byteLength":168,
			"byteOffset":3744,
			"target":34962
		},
		{
			"buffer":0,
			"byteLength":168,
			"byteOffset":3912,
			"target":34962
		},
		{
			"buffer":0,
			"byteLength":112,
			"byteOffset":4080,
			"target":34962
		},
		{
			"buffer":0,
			"byteLength":112,
			"byteOffset":4192,
			"target":34962
		},
		{
			"buffer":0,
			"byteLength":112,
			"byteOffset":4304,
			"target":34962
		},
		{
			"buffer":0,
			"byteLength":96,
			"byteOffset":4416,
			"target":34963
		},
		{
			"buffer":0,
			"byteLength":168,
			"byteOffset":4512,
			"target":34962
		},
		{
			"buffer":0,
			"byteLength":168,
			"byteOffset":4680,
			"target":34962
		},
		{
			"buffer":0,
			"byteLength":112,
			"byteOffset":4848,
			"target":34962
		},
		{
			"buffer":0,
			"byteLength":112,
			"byteOffset":4960,
			"target":34962
		},
		{
			"buffer":0,
			"byteLength":112,
			"byteOffset":5072,
			"target":34962
		},
		{
			"buffer":0,
			"byteLength":96,
			"byteOffset":5184,
			"target":34963
		},
		{
			"buffer":0,
			"byteLength":168,
			"byteOffset":5280,
			"target":34962
		},
		{
			"buffer":0,
			"byteLength":168,
			"byteOffset":5448,
			"target":34962
		},
		{
			"buffer":0,
			"byteLength":112,
			"byteOffset":5616,
			"target":34962
		},
		{
			"buffer":0,
			"byteLength":112,
			"byteOffset":5728,
			"target":34962
		},
		{
			"buffer":0,
			"byteLength":112,
			"byteOffset":5840,
			"target":34962
		},
		{
			"buffer":0,
			"byteLength":168,
			"byteOffset":5952,
			"target":34962
		},
		{
			"buffer":0,
			"byteLength":168,
			"byteOffset":6120,
			"target":34962
		},
		{
			"buffer":0,
			"byteLength":112,
			"byteOffset":6288,
			"target":34962
		},
		{
			"buffer":0,
			"byteLength":112,
			"byteOffset":6400,
			"target":34962
		},
		{
			"buffer":0,
			"byteLength":112,
			"byteOffset":6512,
			"target":34962
		},
		{
			"buffer":0,
			"byteLength":168,
			"byteOffset":6624,
			"target":34962
		},
		{
			"buffer":0,
			"byteLength":168,
			"byteOffset":6792,
			"target":34962
		},
		{
			"buffer":0,
			"byteLength":112,
			"byteOffset":6960,
			"target":34962
		},
		{
			"buffer":0,
			"byteLength":112,
			"byteOffset":7072,
			"target":34962
		},
		{
			"buffer":0,
			"byteLength":112,
			"byteOffset":7184,
			"target":34962
		},
		{
			"buffer":0,
			"byteLength":168,
			"byteOffset":7296,
			"target":34962
		},
		{
			"buffer":0,
			"byteLength":168,
			"byteOffset":7464,
			"target":34962
		},
		{
			"buffer":0,
			"byteLength":112,
			"byteOffset":7632,
			"target":34962
		},
		{
			"buffer":0,
			"byteLength":112,
			"byteOffset":7744,
			"target":34962
		},
		{
			"buffer":0,
			"byteLength":112,
			"byteOffset":7856,
			"target":34962
		},
		{
			"buffer":0,
			"byteLength":168,
			"byteOffset":7968,
			"target":34962
		},
		{
			"buffer":0,
			"byteLength":168,
			"byteOffset":8136,
			"target":34962
		},
		{
			"buffer":0,
			"byteLength":112,
			"byteOffset":8304,
			"target":34962
		},
		{
			"buffer":0,
			"byteLength":112,
			"byteOffset":8416,
			"target":34962
		},
		{
			"buffer":0,
			"byteLength":112,
			"byteOffset":8528,
			"target":34962
		},
		{
			"buffer":0,
			"byteLength":168,
			"byteOffset":8640,
			"target":34962
		},
		{
			"buffer":0,
			"byteLength":168,
			"byteOffset":8808,
			"target":34962
		},
		{
			"buffer":0,
			"byteLength":112,
			"byteOffset":8976,
			"target":34962
		},
		{
			"buffer":0,
			"byteLength":112,
			"byteOffset":9088,
			"target":34962
		},
		{
			"buffer":0,
			"byteLength":112,
			"byteOffset":9200,
			"target":34962
		},
		{
			"buffer":0,
			"byteLength":96,
			"byteOffset":9312,
			"target":34963
		},
		{
			"buffer":0,
			"byteLength":168,
			"byteOffset":9408,
			"target":34962
		},
		{
			"buffer":0,
			"byteLength":168,
			"byteOffset":9576,
			"target":34962
		},
		{
			"buffer":0,
			"byteLength":112,
			"byteOffset":9744,
			"target":34962
		},
		{
			"buffer":0,
			"byteLength":112,
			"byteOffset":9856,
			"target":34962
		},
		{
			"buffer":0,
			"byteLength":112,
			"byteOffset":9968,
			"target":34962
		},
		{
			"buffer":0,
			"byteLength":168,
			"byteOffset":10080,
			"target":34962
		},
		{
			"buffer":0,
			"byteLength":168,
			"byteOffset":10248,
			"target":34962
		},
		{
			"buffer":0,
			"byteLength":112,
			"byteOffset":10416,
			"target":34962
		},
		{
			"buffer":0,
			"byteLength":112,
			"byteOffset":10528,
			"target":34962
		},
		{
			"buffer":0,
			"byteLength":112,
			"byteOffset":10640,
			"target":34962
		},
		{
			"buffer":0,
			"byteLength":96,
			"byteOffset":10752,
			"target":34963
		},
		{
			"buffer":0,
			"byteLength":168,
			"byteOffset":10848,
			"target":34962
		},
		{
			"buffer":0,
			"byteLength":168,
			"byteOffset":11016,
			"target":34962
		},
		{
			"buffer":0,
			"byteLength":112,
			"byteOffset":11184,
			"target":34962
		},
		{
			"buffer":0,
			"byteLength":112,
			"byteOffset":11296,
			"target":34962
		},
		{
			"buffer":0,
			"byteLength":112,
			"byteOffset":11408,
			"target":34962
		},
		{
			"buffer":0,
			"byteLength":168,
			"byteOffset":11520,
			"target":34962
		},
		{
			"buffer":0,
			"byteLength":168,
			"byteOffset":11688,
			"target":34962
		},
		{
			"buffer":0,
			"byteLength":112,
			"byteOffset":11856,
			"target":34962
		},
		{
			"buffer":0,
			"byteLength":112,
			"byteOffset":11968,
			"target":34962
		},
		{
			"buffer":0,
			"byteLength":112,
			"byteOffset":12080,
			"target":34962
		},
		{
			"buffer":0,
			"byteLength":168,
			"byteOffset":12192,
			"target":34962
		},
		{
			"buffer":0,
			"byteLength":168,
			"byteOffset":12360,
			"target":34962
		},
		{
			"buffer":0,
			"byteLength":112,
			"byteOffset":12528,
			"target":34962
		},
		{
			"buffer":0,
			"byteLength":112,
			"byteOffset":12640,
			"target":34962
		},
		{
			"buffer":0,
			"byteLength":112,
			"byteOffset":12752,
			"target":34962
		},
		{
			"buffer":0,
			"byteLength":168,
			"byteOffset":12864,
			"target":34962
		},
		{
			"buffer":0,
			"byteLength":168,
			"byteOffset":13032,
			"target":34962
		},
		{
			"buffer":0,
			"byteLength":112,
			"byteOffset":13200,
			"target":34962
		},
		{
			"buffer":0,
			"byteLength":112,
			"byteOffset":13312,
			"target":34962
		},
		{
			"buffer":0,
			"byteLength":112,
			"byteOffset":13424,
			"target":34962
		},
		{
			"buffer":0,
			"byteLength":168,
			"byteOffset":13536,
			"target":34962
		},
		{
			"buffer":0,
			"byteLength":168,
			"byteOffset":13704,
			"target":34962
		},
		{
			"buffer":0,
			"byteLength":112,
			"byteOffset":13872,
			"target":34962
		},
		{
			"buffer":0,
			"byteLength":112,
			"byteOffset":13984,
			"target":34962
		},
		{
			"buffer":0,
			"byteLength":112,
			"byteOffset":14096,
			"target":34962
		},
		{
			"buffer":0,
			"byteLength":168,
			"byteOffset":14208,
			"target":34962
		},
		{
			"buffer":0,
			"byteLength":168,
			"byteOffset":14376,
			"target":34962
		},
		{
			"buffer":0,
			"byteLength":112,
			"byteOffset":14544,
			"target":34962
		},
		{
			"buffer":0,
			"byteLength":112,
			"byteOffset":14656,
			"target":34962
		},
		{
			"buffer":0,
			"byteLength":112,
			"byteOffset":14768,
			"target":34962
		},
		{
			"buffer":0,
			"byteLength":168,
			"byteOffset":14880,
			"target":34962
		},
		{
			"buffer":0,
			"byteLength":168,
			"byteOffset":15048,
			"target":34962
		},
		{
			"buffer":0,
			"byteLength":112,
			"byteOffset":15216,
			"target":34962
		},
		{
			"buffer":0,
			"byteLength":112,
			"byteOffset":15328,
			"target":34962
		},
		{
			"buffer":0,
			"byteLength":112,
			"byteOffset":15440,
			"target":34962
		},
		{
			"buffer":0,
			"byteLength":168,
			"byteOffset":15552,
			"target":34962
		},
		{
			"buffer":0,
			"byteLength":168,
			"byteOffset":15720,
			"target":34962
		},
		{
			"buffer":0,
			"byteLength":112,
			"byteOffset":15888,
			"target":34962
		},
		{
			"buffer":0,
			"byteLength":112,
			"byteOffset":16000,
			"target":34962
		},
		{
			"buffer":0,
			"byteLength":112,
			"byteOffset":16112,
			"target":34962
		},
		{
			"buffer":0,
			"byteLength":168,
			"byteOffset":16224,
			"target":34962
		},
		{
			"buffer":0,
			"byteLength":168,
			"byteOffset":16392,
			"target":34962
		},
		{
			"buffer":0,
			"byteLength":112,
			"byteOffset":16560,
			"target":34962
		},
		{
			"buffer":0,
			"byteLength":112,
			"byteOffset":16672,
			"target":34962
		},
		{
			"buffer":0,
			"byteLength":112,
			"byteOffset":16784,
			"target":34962
		},
		{
			"buffer":0,
			"byteLength":168,
			"byteOffset":16896,
			"target":34962
		},
		{
			"buffer":0,
			"byteLength":168,
			"byteOffset":17064,
			"target":34962
		},
		{
			"buffer":0,
			"byteLength":112,
			"byteOffset":17232,
			"target":34962
		},
		{
			"buffer":0,
			"byteLength":112,
			"byteOffset":17344,
			"target":34962
		},
		{
			"buffer":0,
			"byteLength":112,
			"byteOffset":17456,
			"target":34962
		},
		{
			"buffer":0,
			"byteLength":228,
			"byteOffset":17568,
			"target":34962
		},
		{
			"buffer":0,
			"byteLength":228,
			"byteOffset":17796,
			"target":34962
		},
		{
			"buffer":0,
			"byteLength":152,
			"byteOffset":18024,
			"target":34962
		},
		{
			"buffer":0,
			"byteLength":152,
			"byteOffset":18176,
			"target":34962
		},
		{
			"buffer":0,
			"byteLength":152,
			"byteOffset":18328,
			"target":34962
		},
		{
			"buffer":0,
			"byteLength":96,
			"byteOffset":18480,
			"target":34963
		},
		{
			"buffer":0,
			"byteLength":4416,
			"byteOffset":18576,
			"target":34962
		},
		{
			"buffer":0,
			"byteLength":4416,
			"byteOffset":22992,
			"target":34962
		},
		{
			"buffer":0,
			"byteLength":2944,
			"byteOffset":27408,
			"target":34962
		},
		{
			"buffer":0,
			"byteLength":2944,
			"byteOffset":30352,
			"target":34962
		},
		{
			"buffer":0,
			"byteLength":2944,
			"byteOffset":33296,
			"target":34962
		},
		{
			"buffer":0,
			"byteLength":2238,
			"byteOffset":36240,
			"target":34963
		}
	],
	"samplers":[
		{
			"magFilter":9729,
			"minFilter":9987
		}
	],
	"buffers":[
		{
			"byteLength":38480,
			"uri":"Street_Curve_4Lane_Long_Curb.bin"
		}
	]
}
