{
	"asset":{
		"generator":"Khronos glTF Blender I/O v4.3.47",
		"version":"2.0"
	},
	"scene":0,
	"scenes":[
		{
			"name":"Scene",
			"nodes":[
				26
			]
		}
	],
	"nodes":[
		{
			"mesh":0,
			"name":"Trim_BayWindow_Corner_R_01-convcolonly"
		},
		{
			"mesh":1,
			"name":"Trim_BayWindow_Corner_R_02-convcolonly"
		},
		{
			"mesh":2,
			"name":"Trim_BayWindow_Corner_R_03-convcolonly"
		},
		{
			"mesh":3,
			"name":"Trim_BayWindow_Corner_R_04-convcolonly"
		},
		{
			"mesh":4,
			"name":"Trim_BayWindow_Corner_R_05-convcolonly"
		},
		{
			"mesh":5,
			"name":"Trim_BayWindow_Corner_R_06-convcolonly"
		},
		{
			"mesh":6,
			"name":"Trim_BayWindow_Corner_R_07-convcolonly"
		},
		{
			"mesh":7,
			"name":"Trim_BayWindow_Corner_R_08-convcolonly"
		},
		{
			"mesh":8,
			"name":"Trim_BayWindow_Corner_R_09-convcolonly"
		},
		{
			"mesh":9,
			"name":"Trim_BayWindow_Corner_R_10-convcolonly"
		},
		{
			"mesh":10,
			"name":"Trim_BayWindow_Corner_R_11-convcolonly"
		},
		{
			"mesh":11,
			"name":"Trim_BayWindow_Corner_R_12-convcolonly"
		},
		{
			"mesh":12,
			"name":"Trim_BayWindow_Corner_R_13-convcolonly"
		},
		{
			"mesh":13,
			"name":"Trim_BayWindow_Corner_R_14-convcolonly"
		},
		{
			"mesh":14,
			"name":"Trim_BayWindow_Corner_R_15-convcolonly"
		},
		{
			"mesh":15,
			"name":"Trim_BayWindow_Corner_R_16-convcolonly"
		},
		{
			"mesh":16,
			"name":"Trim_BayWindow_Corner_R_17-convcolonly"
		},
		{
			"mesh":17,
			"name":"Trim_BayWindow_Corner_R_18-convcolonly"
		},
		{
			"mesh":18,
			"name":"Trim_BayWindow_Corner_R_19-convcolonly"
		},
		{
			"mesh":19,
			"name":"Trim_BayWindow_Corner_R_20-convcolonly"
		},
		{
			"mesh":20,
			"name":"Trim_BayWindow_Corner_R_21-convcolonly"
		},
		{
			"mesh":21,
			"name":"Trim_BayWindow_Corner_R_22-convcolonly"
		},
		{
			"mesh":22,
			"name":"Trim_BayWindow_Corner_R_23-convcolonly"
		},
		{
			"mesh":23,
			"name":"Trim_BayWindow_Corner_R_24-convcolonly"
		},
		{
			"mesh":24,
			"name":"Trim_BayWindow_Corner_R_25-convcolonly"
		},
		{
			"mesh":25,
			"name":"Trim_BayWindow_Corner_R_26-convcolonly"
		},
		{
			"children":[
				0,
				1,
				2,
				3,
				4,
				5,
				6,
				7,
				8,
				9,
				10,
				11,
				12,
				13,
				14,
				15,
				16,
				17,
				18,
				19,
				20,
				21,
				22,
				23,
				24,
				25
			],
			"mesh":26,
			"name":"Trim_BayWindow_Corner_R"
		}
	],
	"materials":[
		{
			"doubleSided":true,
			"name":"Collision",
			"pbrMetallicRoughness":{
				"baseColorFactor":[
					0.036788325756788254,
					0.5504099726676941,
					0.8000074625015259,
					1
				],
				"metallicFactor":0
			}
		},
		{
			"doubleSided":true,
			"name":"MI_Trim",
			"normalTexture":{
				"index":0
			},
			"pbrMetallicRoughness":{
				"baseColorTexture":{
					"index":1
				},
				"metallicRoughnessTexture":{
					"index":2
				}
			}
		},
		{
			"doubleSided":true,
			"name":"MI_Asphalt",
			"normalTexture":{
				"index":3
			},
			"pbrMetallicRoughness":{
				"baseColorTexture":{
					"index":4
				},
				"metallicRoughnessTexture":{
					"index":5
				}
			}
		}
	],
	"meshes":[
		{
			"name":"Cube.735",
			"primitives":[
				{
					"attributes":{
						"POSITION":0,
						"NORMAL":1,
						"TEXCOORD_0":2,
						"TEXCOORD_1":3
					},
					"indices":4,
					"material":0
				}
			]
		},
		{
			"name":"Cube.736",
			"primitives":[
				{
					"attributes":{
						"POSITION":5,
						"NORMAL":6,
						"TEXCOORD_0":7,
						"TEXCOORD_1":8
					},
					"indices":9,
					"material":0
				}
			]
		},
		{
			"name":"Cube.737",
			"primitives":[
				{
					"attributes":{
						"POSITION":10,
						"NORMAL":11,
						"TEXCOORD_0":12,
						"TEXCOORD_1":13
					},
					"indices":14,
					"material":0
				}
			]
		},
		{
			"name":"Cube.738",
			"primitives":[
				{
					"attributes":{
						"POSITION":15,
						"NORMAL":16,
						"TEXCOORD_0":17,
						"TEXCOORD_1":18
					},
					"indices":19,
					"material":0
				}
			]
		},
		{
			"name":"Cube.739",
			"primitives":[
				{
					"attributes":{
						"POSITION":20,
						"NORMAL":21,
						"TEXCOORD_0":22,
						"TEXCOORD_1":23
					},
					"indices":24,
					"material":0
				}
			]
		},
		{
			"name":"Cube.740",
			"primitives":[
				{
					"attributes":{
						"POSITION":25,
						"NORMAL":26,
						"TEXCOORD_0":27,
						"TEXCOORD_1":28
					},
					"indices":29,
					"material":0
				}
			]
		},
		{
			"name":"Cube.741",
			"primitives":[
				{
					"attributes":{
						"POSITION":30,
						"NORMAL":31,
						"TEXCOORD_0":32,
						"TEXCOORD_1":33
					},
					"indices":34,
					"material":0
				}
			]
		},
		{
			"name":"Cube.742",
			"primitives":[
				{
					"attributes":{
						"POSITION":35,
						"NORMAL":36,
						"TEXCOORD_0":37,
						"TEXCOORD_1":38
					},
					"indices":39,
					"material":0
				}
			]
		},
		{
			"name":"Cube.743",
			"primitives":[
				{
					"attributes":{
						"POSITION":40,
						"NORMAL":41,
						"TEXCOORD_0":42,
						"TEXCOORD_1":43
					},
					"indices":44,
					"material":0
				}
			]
		},
		{
			"name":"Cube.744",
			"primitives":[
				{
					"attributes":{
						"POSITION":45,
						"NORMAL":46,
						"TEXCOORD_0":47,
						"TEXCOORD_1":48
					},
					"indices":49,
					"material":0
				}
			]
		},
		{
			"name":"Cube.745",
			"primitives":[
				{
					"attributes":{
						"POSITION":50,
						"NORMAL":51,
						"TEXCOORD_0":52,
						"TEXCOORD_1":53
					},
					"indices":54,
					"material":0
				}
			]
		},
		{
			"name":"Cube.746",
			"primitives":[
				{
					"attributes":{
						"POSITION":55,
						"NORMAL":56,
						"TEXCOORD_0":57,
						"TEXCOORD_1":58
					},
					"indices":59,
					"material":0
				}
			]
		},
		{
			"name":"Cube.747",
			"primitives":[
				{
					"attributes":{
						"POSITION":60,
						"NORMAL":61,
						"TEXCOORD_0":62,
						"TEXCOORD_1":63
					},
					"indices":64,
					"material":0
				}
			]
		},
		{
			"name":"Cube.748",
			"primitives":[
				{
					"attributes":{
						"POSITION":65,
						"NORMAL":66,
						"TEXCOORD_0":67,
						"TEXCOORD_1":68
					},
					"indices":44,
					"material":0
				}
			]
		},
		{
			"name":"Cube.749",
			"primitives":[
				{
					"attributes":{
						"POSITION":69,
						"NORMAL":70,
						"TEXCOORD_0":71,
						"TEXCOORD_1":72
					},
					"indices":59,
					"material":0
				}
			]
		},
		{
			"name":"Cube.750",
			"primitives":[
				{
					"attributes":{
						"POSITION":73,
						"NORMAL":74,
						"TEXCOORD_0":75,
						"TEXCOORD_1":76
					},
					"indices":77,
					"material":0
				}
			]
		},
		{
			"name":"Cube.751",
			"primitives":[
				{
					"attributes":{
						"POSITION":78,
						"NORMAL":79,
						"TEXCOORD_0":80,
						"TEXCOORD_1":81
					},
					"indices":82,
					"material":0
				}
			]
		},
		{
			"name":"Cube.752",
			"primitives":[
				{
					"attributes":{
						"POSITION":83,
						"NORMAL":84,
						"TEXCOORD_0":85,
						"TEXCOORD_1":86
					},
					"indices":87,
					"material":0
				}
			]
		},
		{
			"name":"Cube.753",
			"primitives":[
				{
					"attributes":{
						"POSITION":88,
						"NORMAL":89,
						"TEXCOORD_0":90,
						"TEXCOORD_1":91
					},
					"indices":92,
					"material":0
				}
			]
		},
		{
			"name":"Cube.754",
			"primitives":[
				{
					"attributes":{
						"POSITION":93,
						"NORMAL":94,
						"TEXCOORD_0":95,
						"TEXCOORD_1":96
					},
					"indices":97,
					"material":0
				}
			]
		},
		{
			"name":"Cube.755",
			"primitives":[
				{
					"attributes":{
						"POSITION":98,
						"NORMAL":99,
						"TEXCOORD_0":100,
						"TEXCOORD_1":101
					},
					"indices":102,
					"material":0
				}
			]
		},
		{
			"name":"Cube.756",
			"primitives":[
				{
					"attributes":{
						"POSITION":103,
						"NORMAL":104,
						"TEXCOORD_0":105,
						"TEXCOORD_1":106
					},
					"indices":107,
					"material":0
				}
			]
		},
		{
			"name":"Cube.757",
			"primitives":[
				{
					"attributes":{
						"POSITION":108,
						"NORMAL":109,
						"TEXCOORD_0":110,
						"TEXCOORD_1":111
					},
					"indices":112,
					"material":0
				}
			]
		},
		{
			"name":"Cube.758",
			"primitives":[
				{
					"attributes":{
						"POSITION":113,
						"NORMAL":114,
						"TEXCOORD_0":115,
						"TEXCOORD_1":116
					},
					"indices":117,
					"material":0
				}
			]
		},
		{
			"name":"Cube.759",
			"primitives":[
				{
					"attributes":{
						"POSITION":118,
						"NORMAL":119,
						"TEXCOORD_0":120,
						"TEXCOORD_1":121
					},
					"indices":122,
					"material":0
				}
			]
		},
		{
			"name":"Cube.760",
			"primitives":[
				{
					"attributes":{
						"POSITION":123,
						"NORMAL":124,
						"TEXCOORD_0":125,
						"TEXCOORD_1":126
					},
					"indices":127,
					"material":0
				}
			]
		},
		{
			"name":"Cube.143",
			"primitives":[
				{
					"attributes":{
						"POSITION":128,
						"NORMAL":129,
						"TEXCOORD_0":130,
						"TEXCOORD_1":131,
						"COLOR_0":132,
						"COLOR_1":133
					},
					"indices":134,
					"material":1
				},
				{
					"attributes":{
						"POSITION":135,
						"NORMAL":136,
						"TEXCOORD_0":137,
						"TEXCOORD_1":138,
						"COLOR_0":139,
						"COLOR_1":140
					},
					"indices":141,
					"material":2
				}
			]
		}
	],
	"textures":[
		{
			"sampler":0,
			"source":0
		},
		{
			"sampler":0,
			"source":1
		},
		{
			"sampler":0,
			"source":2
		},
		{
			"sampler":0,
			"source":3
		},
		{
			"sampler":0,
			"source":4
		},
		{
			"sampler":0,
			"source":5
		}
	],
	"images":[
		{
			"mimeType":"image/png",
			"name":"T_Trim_Normal",
			"uri":"../../materials/T_Trim_Normal.png"
		},
		{
			"mimeType":"image/png",
			"name":"T_Trim_BaseColor",
			"uri":"../../materials/T_Trim_BaseColor.png"
		},
		{
			"mimeType":"image/png",
			"name":"T_Trim_ORM",
			"uri":"../../materials/T_Trim_ORM.png"
		},
		{
			"mimeType":"image/png",
			"name":"T_Concrete_Normal",
			"uri":"../../materials/T_Concrete_Normal.png"
		},
		{
			"mimeType":"image/png",
			"name":"T_Concrete_Asphalt_BaseColor",
			"uri":"../../materials/T_Concrete_Asphalt_BaseColor.png"
		},
		{
			"mimeType":"image/png",
			"name":"T_Concrete_ORM",
			"uri":"../../materials/T_Concrete_ORM.png"
		}
	],
	"accessors":[
		{
			"bufferView":0,
			"componentType":5126,
			"count":32,
			"max":[
				0.9838360548019409,
				0.6304141283035278,
				1.0767316818237305
			],
			"min":[
				-0.9838719964027405,
				0,
				0.8999999761581421
			],
			"type":"VEC3"
		},
		{
			"bufferView":1,
			"componentType":5126,
			"count":32,
			"type":"VEC3"
		},
		{
			"bufferView":2,
			"componentType":5126,
			"count":32,
			"type":"VEC2"
		},
		{
			"bufferView":3,
			"componentType":5126,
			"count":32,
			"type":"VEC2"
		},
		{
			"bufferView":4,
			"componentType":5123,
			"count":60,
			"type":"SCALAR"
		},
		{
			"bufferView":5,
			"componentType":5126,
			"count":34,
			"max":[
				-2.652404308319092,
				0.635023832321167,
				0.2964327931404114
			],
			"min":[
				-2.8124043941497803,
				0.20467817783355713,
				0.043251439929008484
			],
			"type":"VEC3"
		},
		{
			"bufferView":6,
			"componentType":5126,
			"count":34,
			"type":"VEC3"
		},
		{
			"bufferView":7,
			"componentType":5126,
			"count":34,
			"type":"VEC2"
		},
		{
			"bufferView":8,
			"componentType":5126,
			"count":34,
			"type":"VEC2"
		},
		{
			"bufferView":9,
			"componentType":5123,
			"count":60,
			"type":"SCALAR"
		},
		{
			"bufferView":10,
			"componentType":5126,
			"count":34,
			"max":[
				-3.4152209758758545,
				0.635023832321167,
				0.2964327931404114
			],
			"min":[
				-3.575221061706543,
				0.20467817783355713,
				0.043251439929008484
			],
			"type":"VEC3"
		},
		{
			"bufferView":11,
			"componentType":5126,
			"count":34,
			"type":"VEC3"
		},
		{
			"bufferView":12,
			"componentType":5126,
			"count":34,
			"type":"VEC2"
		},
		{
			"bufferView":13,
			"componentType":5126,
			"count":34,
			"type":"VEC2"
		},
		{
			"bufferView":14,
			"componentType":5123,
			"count":60,
			"type":"SCALAR"
		},
		{
			"bufferView":15,
			"componentType":5126,
			"count":32,
			"max":[
				2.0767316818237305,
				0.6304141283035278,
				-0.015357407741248608
			],
			"min":[
				1.8999998569488525,
				0,
				-2
			],
			"type":"VEC3"
		},
		{
			"bufferView":16,
			"componentType":5126,
			"count":32,
			"type":"VEC3"
		},
		{
			"bufferView":17,
			"componentType":5126,
			"count":32,
			"type":"VEC2"
		},
		{
			"bufferView":18,
			"componentType":5126,
			"count":32,
			"type":"VEC2"
		},
		{
			"bufferView":19,
			"componentType":5123,
			"count":60,
			"type":"SCALAR"
		},
		{
			"bufferView":20,
			"componentType":5126,
			"count":46,
			"max":[
				2.5199999809265137,
				1,
				0.16548143327236176
			],
			"min":[
				1.8999998569488525,
				0.6100000143051147,
				-2
			],
			"type":"VEC3"
		},
		{
			"bufferView":21,
			"componentType":5126,
			"count":46,
			"type":"VEC3"
		},
		{
			"bufferView":22,
			"componentType":5126,
			"count":46,
			"type":"VEC2"
		},
		{
			"bufferView":23,
			"componentType":5126,
			"count":46,
			"type":"VEC2"
		},
		{
			"bufferView":24,
			"componentType":5123,
			"count":96,
			"type":"SCALAR"
		},
		{
			"bufferView":25,
			"componentType":5126,
			"count":34,
			"max":[
				2.2964327335357666,
				0.635023832321167,
				-1.4152209758758545
			],
			"min":[
				2.0432515144348145,
				0.20467817783355713,
				-1.575221061706543
			],
			"type":"VEC3"
		},
		{
			"bufferView":26,
			"componentType":5126,
			"count":34,
			"type":"VEC3"
		},
		{
			"bufferView":27,
			"componentType":5126,
			"count":34,
			"type":"VEC2"
		},
		{
			"bufferView":28,
			"componentType":5126,
			"count":34,
			"type":"VEC2"
		},
		{
			"bufferView":29,
			"componentType":5123,
			"count":60,
			"type":"SCALAR"
		},
		{
			"bufferView":30,
			"componentType":5126,
			"count":34,
			"max":[
				2.2964327335357666,
				0.635023832321167,
				-0.4247790277004242
			],
			"min":[
				2.0432515144348145,
				0.20467817783355713,
				-0.5847791433334351
			],
			"type":"VEC3"
		},
		{
			"bufferView":31,
			"componentType":5126,
			"count":34,
			"type":"VEC3"
		},
		{
			"bufferView":32,
			"componentType":5126,
			"count":34,
			"type":"VEC2"
		},
		{
			"bufferView":33,
			"componentType":5126,
			"count":34,
			"type":"VEC2"
		},
		{
			"bufferView":34,
			"componentType":5123,
			"count":60,
			"type":"SCALAR"
		},
		{
			"bufferView":35,
			"componentType":5126,
			"count":18,
			"max":[
				2.2842071056365967,
				0.6304141283035278,
				0.06928572058677673
			],
			"min":[
				2.075226068496704,
				0.35776448249816895,
				-2
			],
			"type":"VEC3"
		},
		{
			"bufferView":36,
			"componentType":5126,
			"count":18,
			"type":"VEC3"
		},
		{
			"bufferView":37,
			"componentType":5126,
			"count":18,
			"type":"VEC2"
		},
		{
			"bufferView":38,
			"componentType":5126,
			"count":18,
			"type":"VEC2"
		},
		{
			"bufferView":39,
			"componentType":5123,
			"count":24,
			"type":"SCALAR"
		},
		{
			"bufferView":40,
			"componentType":5126,
			"count":46,
			"max":[
				1.174170732498169,
				1,
				1.5199999809265137
			],
			"min":[
				-1.1737836599349976,
				0.6100000143051147,
				0.8999999761581421
			],
			"type":"VEC3"
		},
		{
			"bufferView":41,
			"componentType":5126,
			"count":46,
			"type":"VEC3"
		},
		{
			"bufferView":42,
			"componentType":5126,
			"count":46,
			"type":"VEC2"
		},
		{
			"bufferView":43,
			"componentType":5126,
			"count":46,
			"type":"VEC2"
		},
		{
			"bufferView":44,
			"componentType":5123,
			"count":96,
			"type":"SCALAR"
		},
		{
			"bufferView":45,
			"componentType":5126,
			"count":34,
			"max":[
				0.5752210021018982,
				0.635023832321167,
				1.2964327335357666
			],
			"min":[
				0.4152209460735321,
				0.20467817783355713,
				1.043251395225525
			],
			"type":"VEC3"
		},
		{
			"bufferView":46,
			"componentType":5126,
			"count":34,
			"type":"VEC3"
		},
		{
			"bufferView":47,
			"componentType":5126,
			"count":34,
			"type":"VEC2"
		},
		{
			"bufferView":48,
			"componentType":5126,
			"count":34,
			"type":"VEC2"
		},
		{
			"bufferView":49,
			"componentType":5123,
			"count":60,
			"type":"SCALAR"
		},
		{
			"bufferView":50,
			"componentType":5126,
			"count":34,
			"max":[
				-0.4152209460735321,
				0.635023832321167,
				1.2964327335357666
			],
			"min":[
				-0.5752210021018982,
				0.20467817783355713,
				1.043251395225525
			],
			"type":"VEC3"
		},
		{
			"bufferView":51,
			"componentType":5126,
			"count":34,
			"type":"VEC3"
		},
		{
			"bufferView":52,
			"componentType":5126,
			"count":34,
			"type":"VEC2"
		},
		{
			"bufferView":53,
			"componentType":5126,
			"count":34,
			"type":"VEC2"
		},
		{
			"bufferView":54,
			"componentType":5123,
			"count":60,
			"type":"SCALAR"
		},
		{
			"bufferView":55,
			"componentType":5126,
			"count":18,
			"max":[
				1.0729237794876099,
				0.6304141283035278,
				1.2842071056365967
			],
			"min":[
				-1.0727617740631104,
				0.35776448249816895,
				1.075226068496704
			],
			"type":"VEC3"
		},
		{
			"bufferView":56,
			"componentType":5126,
			"count":18,
			"type":"VEC3"
		},
		{
			"bufferView":57,
			"componentType":5126,
			"count":18,
			"type":"VEC2"
		},
		{
			"bufferView":58,
			"componentType":5126,
			"count":18,
			"type":"VEC2"
		},
		{
			"bufferView":59,
			"componentType":5123,
			"count":24,
			"type":"SCALAR"
		},
		{
			"bufferView":60,
			"componentType":5126,
			"count":32,
			"max":[
				-1.9108130931854248,
				0.6304141283035278,
				0.07673168182373047
			],
			"min":[
				-4,
				0,
				-0.10000000894069672
			],
			"type":"VEC3"
		},
		{
			"bufferView":61,
			"componentType":5126,
			"count":32,
			"type":"VEC3"
		},
		{
			"bufferView":62,
			"componentType":5126,
			"count":32,
			"type":"VEC2"
		},
		{
			"bufferView":63,
			"componentType":5126,
			"count":32,
			"type":"VEC2"
		},
		{
			"bufferView":64,
			"componentType":5123,
			"count":60,
			"type":"SCALAR"
		},
		{
			"bufferView":65,
			"componentType":5126,
			"count":46,
			"max":[
				-1.9108130931854248,
				1,
				0.5199999809265137
			],
			"min":[
				-4,
				0.6100000143051147,
				-0.10000000894069672
			],
			"type":"VEC3"
		},
		{
			"bufferView":66,
			"componentType":5126,
			"count":46,
			"type":"VEC3"
		},
		{
			"bufferView":67,
			"componentType":5126,
			"count":46,
			"type":"VEC2"
		},
		{
			"bufferView":68,
			"componentType":5126,
			"count":46,
			"type":"VEC2"
		},
		{
			"bufferView":69,
			"componentType":5126,
			"count":18,
			"max":[
				-1.9837125539779663,
				0.6304141283035278,
				0.2842070460319519
			],
			"min":[
				-4,
				0.35776448249816895,
				0.07522612065076828
			],
			"type":"VEC3"
		},
		{
			"bufferView":70,
			"componentType":5126,
			"count":18,
			"type":"VEC3"
		},
		{
			"bufferView":71,
			"componentType":5126,
			"count":18,
			"type":"VEC2"
		},
		{
			"bufferView":72,
			"componentType":5126,
			"count":18,
			"type":"VEC2"
		},
		{
			"bufferView":73,
			"componentType":5126,
			"count":24,
			"max":[
				-0.9081538915634155,
				0.6304141283035278,
				1.0767316818237305
			],
			"min":[
				-1.9843388795852661,
				0,
				-0.10000000149011612
			],
			"type":"VEC3"
		},
		{
			"bufferView":74,
			"componentType":5126,
			"count":24,
			"type":"VEC3"
		},
		{
			"bufferView":75,
			"componentType":5126,
			"count":24,
			"type":"VEC2"
		},
		{
			"bufferView":76,
			"componentType":5126,
			"count":24,
			"type":"VEC2"
		},
		{
			"bufferView":77,
			"componentType":5123,
			"count":36,
			"type":"SCALAR"
		},
		{
			"bufferView":78,
			"componentType":5126,
			"count":46,
			"max":[
				-0.9081538915634155,
				1,
				1.5199999809265137
			],
			"min":[
				-2.1687519550323486,
				0.6100000143051147,
				-0.10000000149011612
			],
			"type":"VEC3"
		},
		{
			"bufferView":79,
			"componentType":5126,
			"count":46,
			"type":"VEC3"
		},
		{
			"bufferView":80,
			"componentType":5126,
			"count":46,
			"type":"VEC2"
		},
		{
			"bufferView":81,
			"componentType":5126,
			"count":46,
			"type":"VEC2"
		},
		{
			"bufferView":82,
			"componentType":5123,
			"count":96,
			"type":"SCALAR"
		},
		{
			"bufferView":83,
			"componentType":5126,
			"count":18,
			"max":[
				-0.9832268953323364,
				0.6304141283035278,
				1.2842071056365967
			],
			"min":[
				-2.070655107498169,
				0.35776448249816895,
				0.07522612065076828
			],
			"type":"VEC3"
		},
		{
			"bufferView":84,
			"componentType":5126,
			"count":18,
			"type":"VEC3"
		},
		{
			"bufferView":85,
			"componentType":5126,
			"count":18,
			"type":"VEC2"
		},
		{
			"bufferView":86,
			"componentType":5126,
			"count":18,
			"type":"VEC2"
		},
		{
			"bufferView":87,
			"componentType":5123,
			"count":24,
			"type":"SCALAR"
		},
		{
			"bufferView":88,
			"componentType":5126,
			"count":24,
			"max":[
				2.0767316818237305,
				0.6304141283035278,
				1.0767316818237305
			],
			"min":[
				0.9079493284225464,
				0,
				-0.08745811134576797
			],
			"type":"VEC3"
		},
		{
			"bufferView":89,
			"componentType":5126,
			"count":24,
			"type":"VEC3"
		},
		{
			"bufferView":90,
			"componentType":5126,
			"count":24,
			"type":"VEC2"
		},
		{
			"bufferView":91,
			"componentType":5126,
			"count":24,
			"type":"VEC2"
		},
		{
			"bufferView":92,
			"componentType":5123,
			"count":36,
			"type":"SCALAR"
		},
		{
			"bufferView":93,
			"componentType":5126,
			"count":46,
			"max":[
				2.5199999809265137,
				1,
				1.5199999809265137
			],
			"min":[
				0.9079493284225464,
				0.6100000143051147,
				-0.08745811134576797
			],
			"type":"VEC3"
		},
		{
			"bufferView":94,
			"componentType":5126,
			"count":46,
			"type":"VEC3"
		},
		{
			"bufferView":95,
			"componentType":5126,
			"count":46,
			"type":"VEC2"
		},
		{
			"bufferView":96,
			"componentType":5126,
			"count":46,
			"type":"VEC2"
		},
		{
			"bufferView":97,
			"componentType":5123,
			"count":96,
			"type":"SCALAR"
		},
		{
			"bufferView":98,
			"componentType":5126,
			"count":18,
			"max":[
				2.2842071056365967,
				0.6304141283035278,
				1.2842071056365967
			],
			"min":[
				0.983189582824707,
				0.35776448249816895,
				-0.015971649438142776
			],
			"type":"VEC3"
		},
		{
			"bufferView":99,
			"componentType":5126,
			"count":18,
			"type":"VEC3"
		},
		{
			"bufferView":100,
			"componentType":5126,
			"count":18,
			"type":"VEC2"
		},
		{
			"bufferView":101,
			"componentType":5126,
			"count":18,
			"type":"VEC2"
		},
		{
			"bufferView":102,
			"componentType":5123,
			"count":24,
			"type":"SCALAR"
		},
		{
			"bufferView":103,
			"componentType":5126,
			"count":34,
			"max":[
				1.9720702171325684,
				0.635023832321167,
				0.5091886520385742
			],
			"min":[
				1.6804296970367432,
				0.20467817783355713,
				0.21652020514011383
			],
			"type":"VEC3"
		},
		{
			"bufferView":104,
			"componentType":5126,
			"count":34,
			"type":"VEC3"
		},
		{
			"bufferView":105,
			"componentType":5126,
			"count":34,
			"type":"VEC2"
		},
		{
			"bufferView":106,
			"componentType":5126,
			"count":34,
			"type":"VEC2"
		},
		{
			"bufferView":107,
			"componentType":5123,
			"count":60,
			"type":"SCALAR"
		},
		{
			"bufferView":108,
			"componentType":5126,
			"count":34,
			"max":[
				1.3923354148864746,
				0.635023832321167,
				1.0914335250854492
			],
			"min":[
				1.1002944707870483,
				0.20467817783355713,
				0.7991489171981812
			],
			"type":"VEC3"
		},
		{
			"bufferView":109,
			"componentType":5126,
			"count":34,
			"type":"VEC3"
		},
		{
			"bufferView":110,
			"componentType":5126,
			"count":34,
			"type":"VEC2"
		},
		{
			"bufferView":111,
			"componentType":5126,
			"count":34,
			"type":"VEC2"
		},
		{
			"bufferView":112,
			"componentType":5123,
			"count":60,
			"type":"SCALAR"
		},
		{
			"bufferView":113,
			"componentType":5126,
			"count":34,
			"max":[
				-1.0975303649902344,
				0.635023832321167,
				1.090212106704712
			],
			"min":[
				-1.3899705410003662,
				0.20467817783355713,
				0.798330545425415
			],
			"type":"VEC3"
		},
		{
			"bufferView":114,
			"componentType":5126,
			"count":34,
			"type":"VEC3"
		},
		{
			"bufferView":115,
			"componentType":5126,
			"count":34,
			"type":"VEC2"
		},
		{
			"bufferView":116,
			"componentType":5126,
			"count":34,
			"type":"VEC2"
		},
		{
			"bufferView":117,
			"componentType":5123,
			"count":60,
			"type":"SCALAR"
		},
		{
			"bufferView":118,
			"componentType":5126,
			"count":34,
			"max":[
				-1.6788339614868164,
				0.635023832321167,
				0.5128775835037231
			],
			"min":[
				-1.9712741374969482,
				0.20467817783355713,
				0.22099615633487701
			],
			"type":"VEC3"
		},
		{
			"bufferView":119,
			"componentType":5126,
			"count":34,
			"type":"VEC3"
		},
		{
			"bufferView":120,
			"componentType":5126,
			"count":34,
			"type":"VEC2"
		},
		{
			"bufferView":121,
			"componentType":5126,
			"count":34,
			"type":"VEC2"
		},
		{
			"bufferView":122,
			"componentType":5123,
			"count":60,
			"type":"SCALAR"
		},
		{
			"bufferView":123,
			"componentType":5126,
			"count":24,
			"max":[
				2.0419938564300537,
				0.800000011920929,
				1
			],
			"min":[
				-2.0966362953186035,
				0.7522151470184326,
				-0.10000000149011612
			],
			"type":"VEC3"
		},
		{
			"bufferView":124,
			"componentType":5126,
			"count":24,
			"type":"VEC3"
		},
		{
			"bufferView":125,
			"componentType":5126,
			"count":24,
			"type":"VEC2"
		},
		{
			"bufferView":126,
			"componentType":5126,
			"count":24,
			"type":"VEC2"
		},
		{
			"bufferView":127,
			"componentType":5123,
			"count":36,
			"type":"SCALAR"
		},
		{
			"bufferView":128,
			"componentType":5126,
			"count":704,
			"max":[
				2.527894973754883,
				0.9983841180801392,
				1.5278400182724
			],
			"min":[
				-4,
				0,
				-2
			],
			"type":"VEC3"
		},
		{
			"bufferView":129,
			"componentType":5126,
			"count":704,
			"type":"VEC3"
		},
		{
			"bufferView":130,
			"componentType":5126,
			"count":704,
			"type":"VEC2"
		},
		{
			"bufferView":131,
			"componentType":5126,
			"count":704,
			"type":"VEC2"
		},
		{
			"bufferView":132,
			"componentType":5121,
			"count":704,
			"normalized":true,
			"type":"VEC4"
		},
		{
			"bufferView":133,
			"componentType":5123,
			"count":704,
			"normalized":true,
			"type":"VEC4"
		},
		{
			"bufferView":134,
			"componentType":5123,
			"count":1344,
			"type":"SCALAR"
		},
		{
			"bufferView":135,
			"componentType":5126,
			"count":6,
			"max":[
				1.900054931640625,
				0.800000011920929,
				0.9000000953674316
			],
			"min":[
				-1.9102725982666016,
				0.800000011920929,
				-0.10022258758544922
			],
			"type":"VEC3"
		},
		{
			"bufferView":136,
			"componentType":5126,
			"count":6,
			"type":"VEC3"
		},
		{
			"bufferView":137,
			"componentType":5126,
			"count":6,
			"type":"VEC2"
		},
		{
			"bufferView":138,
			"componentType":5126,
			"count":6,
			"type":"VEC2"
		},
		{
			"bufferView":139,
			"componentType":5121,
			"count":6,
			"normalized":true,
			"type":"VEC4"
		},
		{
			"bufferView":140,
			"componentType":5123,
			"count":6,
			"normalized":true,
			"type":"VEC4"
		},
		{
			"bufferView":141,
			"componentType":5123,
			"count":12,
			"type":"SCALAR"
		}
	],
	"bufferViews":[
		{
			"buffer":0,
			"byteLength":384,
			"byteOffset":0,
			"target":34962
		},
		{
			"buffer":0,
			"byteLength":384,
			"byteOffset":384,
			"target":34962
		},
		{
			"buffer":0,
			"byteLength":256,
			"byteOffset":768,
			"target":34962
		},
		{
			"buffer":0,
			"byteLength":256,
			"byteOffset":1024,
			"target":34962
		},
		{
			"buffer":0,
			"byteLength":120,
			"byteOffset":1280,
			"target":34963
		},
		{
			"buffer":0,
			"byteLength":408,
			"byteOffset":1400,
			"target":34962
		},
		{
			"buffer":0,
			"byteLength":408,
			"byteOffset":1808,
			"target":34962
		},
		{
			"buffer":0,
			"byteLength":272,
			"byteOffset":2216,
			"target":34962
		},
		{
			"buffer":0,
			"byteLength":272,
			"byteOffset":2488,
			"target":34962
		},
		{
			"buffer":0,
			"byteLength":120,
			"byteOffset":2760,
			"target":34963
		},
		{
			"buffer":0,
			"byteLength":408,
			"byteOffset":2880,
			"target":34962
		},
		{
			"buffer":0,
			"byteLength":408,
			"byteOffset":3288,
			"target":34962
		},
		{
			"buffer":0,
			"byteLength":272,
			"byteOffset":3696,
			"target":34962
		},
		{
			"buffer":0,
			"byteLength":272,
			"byteOffset":3968,
			"target":34962
		},
		{
			"buffer":0,
			"byteLength":120,
			"byteOffset":4240,
			"target":34963
		},
		{
			"buffer":0,
			"byteLength":384,
			"byteOffset":4360,
			"target":34962
		},
		{
			"buffer":0,
			"byteLength":384,
			"byteOffset":4744,
			"target":34962
		},
		{
			"buffer":0,
			"byteLength":256,
			"byteOffset":5128,
			"target":34962
		},
		{
			"buffer":0,
			"byteLength":256,
			"byteOffset":5384,
			"target":34962
		},
		{
			"buffer":0,
			"byteLength":120,
			"byteOffset":5640,
			"target":34963
		},
		{
			"buffer":0,
			"byteLength":552,
			"byteOffset":5760,
			"target":34962
		},
		{
			"buffer":0,
			"byteLength":552,
			"byteOffset":6312,
			"target":34962
		},
		{
			"buffer":0,
			"byteLength":368,
			"byteOffset":6864,
			"target":34962
		},
		{
			"buffer":0,
			"byteLength":368,
			"byteOffset":7232,
			"target":34962
		},
		{
			"buffer":0,
			"byteLength":192,
			"byteOffset":7600,
			"target":34963
		},
		{
			"buffer":0,
			"byteLength":408,
			"byteOffset":7792,
			"target":34962
		},
		{
			"buffer":0,
			"byteLength":408,
			"byteOffset":8200,
			"target":34962
		},
		{
			"buffer":0,
			"byteLength":272,
			"byteOffset":8608,
			"target":34962
		},
		{
			"buffer":0,
			"byteLength":272,
			"byteOffset":8880,
			"target":34962
		},
		{
			"buffer":0,
			"byteLength":120,
			"byteOffset":9152,
			"target":34963
		},
		{
			"buffer":0,
			"byteLength":408,
			"byteOffset":9272,
			"target":34962
		},
		{
			"buffer":0,
			"byteLength":408,
			"byteOffset":9680,
			"target":34962
		},
		{
			"buffer":0,
			"byteLength":272,
			"byteOffset":10088,
			"target":34962
		},
		{
			"buffer":0,
			"byteLength":272,
			"byteOffset":10360,
			"target":34962
		},
		{
			"buffer":0,
			"byteLength":120,
			"byteOffset":10632,
			"target":34963
		},
		{
			"buffer":0,
			"byteLength":216,
			"byteOffset":10752,
			"target":34962
		},
		{
			"buffer":0,
			"byteLength":216,
			"byteOffset":10968,
			"target":34962
		},
		{
			"buffer":0,
			"byteLength":144,
			"byteOffset":11184,
			"target":34962
		},
		{
			"buffer":0,
			"byteLength":144,
			"byteOffset":11328,
			"target":34962
		},
		{
			"buffer":0,
			"byteLength":48,
			"byteOffset":11472,
			"target":34963
		},
		{
			"buffer":0,
			"byteLength":552,
			"byteOffset":11520,
			"target":34962
		},
		{
			"buffer":0,
			"byteLength":552,
			"byteOffset":12072,
			"target":34962
		},
		{
			"buffer":0,
			"byteLength":368,
			"byteOffset":12624,
			"target":34962
		},
		{
			"buffer":0,
			"byteLength":368,
			"byteOffset":12992,
			"target":34962
		},
		{
			"buffer":0,
			"byteLength":192,
			"byteOffset":13360,
			"target":34963
		},
		{
			"buffer":0,
			"byteLength":408,
			"byteOffset":13552,
			"target":34962
		},
		{
			"buffer":0,
			"byteLength":408,
			"byteOffset":13960,
			"target":34962
		},
		{
			"buffer":0,
			"byteLength":272,
			"byteOffset":14368,
			"target":34962
		},
		{
			"buffer":0,
			"byteLength":272,
			"byteOffset":14640,
			"target":34962
		},
		{
			"buffer":0,
			"byteLength":120,
			"byteOffset":14912,
			"target":34963
		},
		{
			"buffer":0,
			"byteLength":408,
			"byteOffset":15032,
			"target":34962
		},
		{
			"buffer":0,
			"byteLength":408,
			"byteOffset":15440,
			"target":34962
		},
		{
			"buffer":0,
			"byteLength":272,
			"byteOffset":15848,
			"target":34962
		},
		{
			"buffer":0,
			"byteLength":272,
			"byteOffset":16120,
			"target":34962
		},
		{
			"buffer":0,
			"byteLength":120,
			"byteOffset":16392,
			"target":34963
		},
		{
			"buffer":0,
			"byteLength":216,
			"byteOffset":16512,
			"target":34962
		},
		{
			"buffer":0,
			"byteLength":216,
			"byteOffset":16728,
			"target":34962
		},
		{
			"buffer":0,
			"byteLength":144,
			"byteOffset":16944,
			"target":34962
		},
		{
			"buffer":0,
			"byteLength":144,
			"byteOffset":17088,
			"target":34962
		},
		{
			"buffer":0,
			"byteLength":48,
			"byteOffset":17232,
			"target":34963
		},
		{
			"buffer":0,
			"byteLength":384,
			"byteOffset":17280,
			"target":34962
		},
		{
			"buffer":0,
			"byteLength":384,
			"byteOffset":17664,
			"target":34962
		},
		{
			"buffer":0,
			"byteLength":256,
			"byteOffset":18048,
			"target":34962
		},
		{
			"buffer":0,
			"byteLength":256,
			"byteOffset":18304,
			"target":34962
		},
		{
			"buffer":0,
			"byteLength":120,
			"byteOffset":18560,
			"target":34963
		},
		{
			"buffer":0,
			"byteLength":552,
			"byteOffset":18680,
			"target":34962
		},
		{
			"buffer":0,
			"byteLength":552,
			"byteOffset":19232,
			"target":34962
		},
		{
			"buffer":0,
			"byteLength":368,
			"byteOffset":19784,
			"target":34962
		},
		{
			"buffer":0,
			"byteLength":368,
			"byteOffset":20152,
			"target":34962
		},
		{
			"buffer":0,
			"byteLength":216,
			"byteOffset":20520,
			"target":34962
		},
		{
			"buffer":0,
			"byteLength":216,
			"byteOffset":20736,
			"target":34962
		},
		{
			"buffer":0,
			"byteLength":144,
			"byteOffset":20952,
			"target":34962
		},
		{
			"buffer":0,
			"byteLength":144,
			"byteOffset":21096,
			"target":34962
		},
		{
			"buffer":0,
			"byteLength":288,
			"byteOffset":21240,
			"target":34962
		},
		{
			"buffer":0,
			"byteLength":288,
			"byteOffset":21528,
			"target":34962
		},
		{
			"buffer":0,
			"byteLength":192,
			"byteOffset":21816,
			"target":34962
		},
		{
			"buffer":0,
			"byteLength":192,
			"byteOffset":22008,
			"target":34962
		},
		{
			"buffer":0,
			"byteLength":72,
			"byteOffset":22200,
			"target":34963
		},
		{
			"buffer":0,
			"byteLength":552,
			"byteOffset":22272,
			"target":34962
		},
		{
			"buffer":0,
			"byteLength":552,
			"byteOffset":22824,
			"target":34962
		},
		{
			"buffer":0,
			"byteLength":368,
			"byteOffset":23376,
			"target":34962
		},
		{
			"buffer":0,
			"byteLength":368,
			"byteOffset":23744,
			"target":34962
		},
		{
			"buffer":0,
			"byteLength":192,
			"byteOffset":24112,
			"target":34963
		},
		{
			"buffer":0,
			"byteLength":216,
			"byteOffset":24304,
			"target":34962
		},
		{
			"buffer":0,
			"byteLength":216,
			"byteOffset":24520,
			"target":34962
		},
		{
			"buffer":0,
			"byteLength":144,
			"byteOffset":24736,
			"target":34962
		},
		{
			"buffer":0,
			"byteLength":144,
			"byteOffset":24880,
			"target":34962
		},
		{
			"buffer":0,
			"byteLength":48,
			"byteOffset":25024,
			"target":34963
		},
		{
			"buffer":0,
			"byteLength":288,
			"byteOffset":25072,
			"target":34962
		},
		{
			"buffer":0,
			"byteLength":288,
			"byteOffset":25360,
			"target":34962
		},
		{
			"buffer":0,
			"byteLength":192,
			"byteOffset":25648,
			"target":34962
		},
		{
			"buffer":0,
			"byteLength":192,
			"byteOffset":25840,
			"target":34962
		},
		{
			"buffer":0,
			"byteLength":72,
			"byteOffset":26032,
			"target":34963
		},
		{
			"buffer":0,
			"byteLength":552,
			"byteOffset":26104,
			"target":34962
		},
		{
			"buffer":0,
			"byteLength":552,
			"byteOffset":26656,
			"target":34962
		},
		{
			"buffer":0,
			"byteLength":368,
			"byteOffset":27208,
			"target":34962
		},
		{
			"buffer":0,
			"byteLength":368,
			"byteOffset":27576,
			"target":34962
		},
		{
			"buffer":0,
			"byteLength":192,
			"byteOffset":27944,
			"target":34963
		},
		{
			"buffer":0,
			"byteLength":216,
			"byteOffset":28136,
			"target":34962
		},
		{
			"buffer":0,
			"byteLength":216,
			"byteOffset":28352,
			"target":34962
		},
		{
			"buffer":0,
			"byteLength":144,
			"byteOffset":28568,
			"target":34962
		},
		{
			"buffer":0,
			"byteLength":144,
			"byteOffset":28712,
			"target":34962
		},
		{
			"buffer":0,
			"byteLength":48,
			"byteOffset":28856,
			"target":34963
		},
		{
			"buffer":0,
			"byteLength":408,
			"byteOffset":28904,
			"target":34962
		},
		{
			"buffer":0,
			"byteLength":408,
			"byteOffset":29312,
			"target":34962
		},
		{
			"buffer":0,
			"byteLength":272,
			"byteOffset":29720,
			"target":34962
		},
		{
			"buffer":0,
			"byteLength":272,
			"byteOffset":29992,
			"target":34962
		},
		{
			"buffer":0,
			"byteLength":120,
			"byteOffset":30264,
			"target":34963
		},
		{
			"buffer":0,
			"byteLength":408,
			"byteOffset":30384,
			"target":34962
		},
		{
			"buffer":0,
			"byteLength":408,
			"byteOffset":30792,
			"target":34962
		},
		{
			"buffer":0,
			"byteLength":272,
			"byteOffset":31200,
			"target":34962
		},
		{
			"buffer":0,
			"byteLength":272,
			"byteOffset":31472,
			"target":34962
		},
		{
			"buffer":0,
			"byteLength":120,
			"byteOffset":31744,
			"target":34963
		},
		{
			"buffer":0,
			"byteLength":408,
			"byteOffset":31864,
			"target":34962
		},
		{
			"buffer":0,
			"byteLength":408,
			"byteOffset":32272,
			"target":34962
		},
		{
			"buffer":0,
			"byteLength":272,
			"byteOffset":32680,
			"target":34962
		},
		{
			"buffer":0,
			"byteLength":272,
			"byteOffset":32952,
			"target":34962
		},
		{
			"buffer":0,
			"byteLength":120,
			"byteOffset":33224,
			"target":34963
		},
		{
			"buffer":0,
			"byteLength":408,
			"byteOffset":33344,
			"target":34962
		},
		{
			"buffer":0,
			"byteLength":408,
			"byteOffset":33752,
			"target":34962
		},
		{
			"buffer":0,
			"byteLength":272,
			"byteOffset":34160,
			"target":34962
		},
		{
			"buffer":0,
			"byteLength":272,
			"byteOffset":34432,
			"target":34962
		},
		{
			"buffer":0,
			"byteLength":120,
			"byteOffset":34704,
			"target":34963
		},
		{
			"buffer":0,
			"byteLength":288,
			"byteOffset":34824,
			"target":34962
		},
		{
			"buffer":0,
			"byteLength":288,
			"byteOffset":35112,
			"target":34962
		},
		{
			"buffer":0,
			"byteLength":192,
			"byteOffset":35400,
			"target":34962
		},
		{
			"buffer":0,
			"byteLength":192,
			"byteOffset":35592,
			"target":34962
		},
		{
			"buffer":0,
			"byteLength":72,
			"byteOffset":35784,
			"target":34963
		},
		{
			"buffer":0,
			"byteLength":8448,
			"byteOffset":35856,
			"target":34962
		},
		{
			"buffer":0,
			"byteLength":8448,
			"byteOffset":44304,
			"target":34962
		},
		{
			"buffer":0,
			"byteLength":5632,
			"byteOffset":52752,
			"target":34962
		},
		{
			"buffer":0,
			"byteLength":5632,
			"byteOffset":58384,
			"target":34962
		},
		{
			"buffer":0,
			"byteLength":2816,
			"byteOffset":64016,
			"target":34962
		},
		{
			"buffer":0,
			"byteLength":5632,
			"byteOffset":66832,
			"target":34962
		},
		{
			"buffer":0,
			"byteLength":2688,
			"byteOffset":72464,
			"target":34963
		},
		{
			"buffer":0,
			"byteLength":72,
			"byteOffset":75152,
			"target":34962
		},
		{
			"buffer":0,
			"byteLength":72,
			"byteOffset":75224,
			"target":34962
		},
		{
			"buffer":0,
			"byteLength":48,
			"byteOffset":75296,
			"target":34962
		},
		{
			"buffer":0,
			"byteLength":48,
			"byteOffset":75344,
			"target":34962
		},
		{
			"buffer":0,
			"byteLength":24,
			"byteOffset":75392,
			"target":34962
		},
		{
			"buffer":0,
			"byteLength":48,
			"byteOffset":75416,
			"target":34962
		},
		{
			"buffer":0,
			"byteLength":24,
			"byteOffset":75464,
			"target":34963
		}
	],
	"samplers":[
		{
			"magFilter":9729,
			"minFilter":9987
		}
	],
	"buffers":[
		{
			"byteLength":75488,
			"uri":"Trim_BayWindow_Corner_R.bin"
		}
	]
}
