{
	"asset":{
		"generator":"Khronos glTF Blender I/O v4.3.47",
		"version":"2.0"
	},
	"scene":0,
	"scenes":[
		{
			"name":"Scene",
			"nodes":[
				26
			]
		}
	],
	"nodes":[
		{
			"mesh":0,
			"name":"Trim_BayWindow_Top_01-convcolonly"
		},
		{
			"mesh":1,
			"name":"Trim_BayWindow_Top_02-convcolonly"
		},
		{
			"mesh":2,
			"name":"Trim_BayWindow_Top_03-convcolonly"
		},
		{
			"mesh":3,
			"name":"Trim_BayWindow_Top_04-convcolonly"
		},
		{
			"mesh":4,
			"name":"Trim_BayWindow_Top_05-convcolonly"
		},
		{
			"mesh":5,
			"name":"Trim_BayWindow_Top_06-convcolonly"
		},
		{
			"mesh":6,
			"name":"Trim_BayWindow_Top_07-convcolonly"
		},
		{
			"mesh":7,
			"name":"Trim_BayWindow_Top_08-convcolonly"
		},
		{
			"mesh":8,
			"name":"Trim_BayWindow_Top_09-convcolonly"
		},
		{
			"mesh":9,
			"name":"Trim_BayWindow_Top_10-convcolonly"
		},
		{
			"mesh":10,
			"name":"Trim_BayWindow_Top_11-convcolonly"
		},
		{
			"mesh":11,
			"name":"Trim_BayWindow_Top_12-convcolonly"
		},
		{
			"mesh":12,
			"name":"Trim_BayWindow_Top_13-convcolonly"
		},
		{
			"mesh":13,
			"name":"Trim_BayWindow_Top_14-convcolonly"
		},
		{
			"mesh":14,
			"name":"Trim_BayWindow_Top_15-convcolonly"
		},
		{
			"mesh":15,
			"name":"Trim_BayWindow_Top_16-convcolonly"
		},
		{
			"mesh":16,
			"name":"Trim_BayWindow_Top_17-convcolonly"
		},
		{
			"mesh":17,
			"name":"Trim_BayWindow_Top_18-convcolonly"
		},
		{
			"mesh":18,
			"name":"Trim_BayWindow_Top_19-convcolonly"
		},
		{
			"mesh":19,
			"name":"Trim_BayWindow_Top_20-convcolonly"
		},
		{
			"mesh":20,
			"name":"Trim_BayWindow_Top_21-convcolonly"
		},
		{
			"mesh":21,
			"name":"Trim_BayWindow_Top_22-convcolonly"
		},
		{
			"mesh":22,
			"name":"Trim_BayWindow_Top_23-convcolonly"
		},
		{
			"mesh":23,
			"name":"Trim_BayWindow_Top_24-convcolonly"
		},
		{
			"mesh":24,
			"name":"Trim_BayWindow_Top_25-convcolonly"
		},
		{
			"mesh":25,
			"name":"Trim_BayWindow_Top_26-convcolonly"
		},
		{
			"children":[
				0,
				1,
				2,
				3,
				4,
				5,
				6,
				7,
				8,
				9,
				10,
				11,
				12,
				13,
				14,
				15,
				16,
				17,
				18,
				19,
				20,
				21,
				22,
				23,
				24,
				25
			],
			"mesh":26,
			"name":"Trim_BayWindow_Top"
		}
	],
	"materials":[
		{
			"doubleSided":true,
			"name":"Collision",
			"pbrMetallicRoughness":{
				"baseColorFactor":[
					0.036788325756788254,
					0.5504099726676941,
					0.8000074625015259,
					1
				],
				"metallicFactor":0
			}
		},
		{
			"doubleSided":true,
			"name":"MI_Trim",
			"normalTexture":{
				"index":0
			},
			"pbrMetallicRoughness":{
				"baseColorTexture":{
					"index":1
				},
				"metallicRoughnessTexture":{
					"index":2
				}
			}
		},
		{
			"doubleSided":true,
			"name":"MI_Asphalt",
			"normalTexture":{
				"index":3
			},
			"pbrMetallicRoughness":{
				"baseColorTexture":{
					"index":4
				},
				"metallicRoughnessTexture":{
					"index":5
				}
			}
		}
	],
	"meshes":[
		{
			"name":"Cube.761",
			"primitives":[
				{
					"attributes":{
						"POSITION":0,
						"NORMAL":1,
						"TEXCOORD_0":2,
						"TEXCOORD_1":3
					},
					"indices":4,
					"material":0
				}
			]
		},
		{
			"name":"Cube.762",
			"primitives":[
				{
					"attributes":{
						"POSITION":5,
						"NORMAL":6,
						"TEXCOORD_0":7,
						"TEXCOORD_1":8
					},
					"indices":9,
					"material":0
				}
			]
		},
		{
			"name":"Cube.763",
			"primitives":[
				{
					"attributes":{
						"POSITION":10,
						"NORMAL":11,
						"TEXCOORD_0":12,
						"TEXCOORD_1":13
					},
					"indices":14,
					"material":0
				}
			]
		},
		{
			"name":"Cube.764",
			"primitives":[
				{
					"attributes":{
						"POSITION":15,
						"NORMAL":16,
						"TEXCOORD_0":17,
						"TEXCOORD_1":18
					},
					"indices":19,
					"material":0
				}
			]
		},
		{
			"name":"Cube.765",
			"primitives":[
				{
					"attributes":{
						"POSITION":20,
						"NORMAL":21,
						"TEXCOORD_0":22,
						"TEXCOORD_1":23
					},
					"indices":24,
					"material":0
				}
			]
		},
		{
			"name":"Cube.766",
			"primitives":[
				{
					"attributes":{
						"POSITION":25,
						"NORMAL":26,
						"TEXCOORD_0":27,
						"TEXCOORD_1":28
					},
					"indices":29,
					"material":0
				}
			]
		},
		{
			"name":"Cube.767",
			"primitives":[
				{
					"attributes":{
						"POSITION":30,
						"NORMAL":31,
						"TEXCOORD_0":32,
						"TEXCOORD_1":33
					},
					"indices":34,
					"material":0
				}
			]
		},
		{
			"name":"Cube.768",
			"primitives":[
				{
					"attributes":{
						"POSITION":35,
						"NORMAL":36,
						"TEXCOORD_0":37,
						"TEXCOORD_1":38
					},
					"indices":39,
					"material":0
				}
			]
		},
		{
			"name":"Cube.769",
			"primitives":[
				{
					"attributes":{
						"POSITION":40,
						"NORMAL":41,
						"TEXCOORD_0":42,
						"TEXCOORD_1":43
					},
					"indices":19,
					"material":0
				}
			]
		},
		{
			"name":"Cube.770",
			"primitives":[
				{
					"attributes":{
						"POSITION":44,
						"NORMAL":45,
						"TEXCOORD_0":46,
						"TEXCOORD_1":47
					},
					"indices":34,
					"material":0
				}
			]
		},
		{
			"name":"Cube.771",
			"primitives":[
				{
					"attributes":{
						"POSITION":48,
						"NORMAL":49,
						"TEXCOORD_0":50,
						"TEXCOORD_1":51
					},
					"indices":52,
					"material":0
				}
			]
		},
		{
			"name":"Cube.772",
			"primitives":[
				{
					"attributes":{
						"POSITION":53,
						"NORMAL":54,
						"TEXCOORD_0":55,
						"TEXCOORD_1":56
					},
					"indices":57,
					"material":0
				}
			]
		},
		{
			"name":"Cube.773",
			"primitives":[
				{
					"attributes":{
						"POSITION":58,
						"NORMAL":59,
						"TEXCOORD_0":60,
						"TEXCOORD_1":61
					},
					"indices":62,
					"material":0
				}
			]
		},
		{
			"name":"Cube.774",
			"primitives":[
				{
					"attributes":{
						"POSITION":63,
						"NORMAL":64,
						"TEXCOORD_0":65,
						"TEXCOORD_1":66
					},
					"indices":67,
					"material":0
				}
			]
		},
		{
			"name":"Cube.775",
			"primitives":[
				{
					"attributes":{
						"POSITION":68,
						"NORMAL":69,
						"TEXCOORD_0":70,
						"TEXCOORD_1":71
					},
					"indices":72,
					"material":0
				}
			]
		},
		{
			"name":"Cube.776",
			"primitives":[
				{
					"attributes":{
						"POSITION":73,
						"NORMAL":74,
						"TEXCOORD_0":75,
						"TEXCOORD_1":76
					},
					"indices":77,
					"material":0
				}
			]
		},
		{
			"name":"Cube.777",
			"primitives":[
				{
					"attributes":{
						"POSITION":78,
						"NORMAL":79,
						"TEXCOORD_0":80,
						"TEXCOORD_1":81
					},
					"indices":82,
					"material":0
				}
			]
		},
		{
			"name":"Cube.778",
			"primitives":[
				{
					"attributes":{
						"POSITION":83,
						"NORMAL":84,
						"TEXCOORD_0":85,
						"TEXCOORD_1":86
					},
					"indices":87,
					"material":0
				}
			]
		},
		{
			"name":"Cube.779",
			"primitives":[
				{
					"attributes":{
						"POSITION":88,
						"NORMAL":89,
						"TEXCOORD_0":90,
						"TEXCOORD_1":91
					},
					"indices":92,
					"material":0
				}
			]
		},
		{
			"name":"Cube.780",
			"primitives":[
				{
					"attributes":{
						"POSITION":93,
						"NORMAL":94,
						"TEXCOORD_0":95,
						"TEXCOORD_1":96
					},
					"indices":97,
					"material":0
				}
			]
		},
		{
			"name":"Cube.781",
			"primitives":[
				{
					"attributes":{
						"POSITION":98,
						"NORMAL":99,
						"TEXCOORD_0":100,
						"TEXCOORD_1":101
					},
					"indices":102,
					"material":0
				}
			]
		},
		{
			"name":"Cube.782",
			"primitives":[
				{
					"attributes":{
						"POSITION":103,
						"NORMAL":104,
						"TEXCOORD_0":105,
						"TEXCOORD_1":106
					},
					"indices":107,
					"material":0
				}
			]
		},
		{
			"name":"Cube.783",
			"primitives":[
				{
					"attributes":{
						"POSITION":108,
						"NORMAL":109,
						"TEXCOORD_0":110,
						"TEXCOORD_1":111
					},
					"indices":112,
					"material":0
				}
			]
		},
		{
			"name":"Cube.784",
			"primitives":[
				{
					"attributes":{
						"POSITION":113,
						"NORMAL":114,
						"TEXCOORD_0":115,
						"TEXCOORD_1":116
					},
					"indices":117,
					"material":0
				}
			]
		},
		{
			"name":"Cube.785",
			"primitives":[
				{
					"attributes":{
						"POSITION":118,
						"NORMAL":119,
						"TEXCOORD_0":120,
						"TEXCOORD_1":121
					},
					"indices":122,
					"material":0
				}
			]
		},
		{
			"name":"Cube.786",
			"primitives":[
				{
					"attributes":{
						"POSITION":123,
						"NORMAL":124,
						"TEXCOORD_0":125,
						"TEXCOORD_1":126
					},
					"indices":127,
					"material":0
				}
			]
		},
		{
			"name":"Cube.170",
			"primitives":[
				{
					"attributes":{
						"POSITION":128,
						"NORMAL":129,
						"TEXCOORD_0":130,
						"TEXCOORD_1":131,
						"COLOR_0":132,
						"COLOR_1":133
					},
					"indices":134,
					"material":1
				},
				{
					"attributes":{
						"POSITION":135,
						"NORMAL":136,
						"TEXCOORD_0":137,
						"TEXCOORD_1":138,
						"COLOR_0":139,
						"COLOR_1":140
					},
					"indices":141,
					"material":2
				}
			]
		}
	],
	"textures":[
		{
			"sampler":0,
			"source":0
		},
		{
			"sampler":0,
			"source":1
		},
		{
			"sampler":0,
			"source":2
		},
		{
			"sampler":0,
			"source":3
		},
		{
			"sampler":0,
			"source":4
		},
		{
			"sampler":0,
			"source":5
		}
	],
	"images":[
		{
			"mimeType":"image/png",
			"name":"T_Trim_Normal",
			"uri":"../../materials/T_Trim_Normal.png"
		},
		{
			"mimeType":"image/png",
			"name":"T_Trim_BaseColor",
			"uri":"../../materials/T_Trim_BaseColor.png"
		},
		{
			"mimeType":"image/png",
			"name":"T_Trim_ORM",
			"uri":"../../materials/T_Trim_ORM.png"
		},
		{
			"mimeType":"image/png",
			"name":"T_Concrete_Normal",
			"uri":"../../materials/T_Concrete_Normal.png"
		},
		{
			"mimeType":"image/png",
			"name":"T_Concrete_Asphalt_BaseColor",
			"uri":"../../materials/T_Concrete_Asphalt_BaseColor.png"
		},
		{
			"mimeType":"image/png",
			"name":"T_Concrete_ORM",
			"uri":"../../materials/T_Concrete_ORM.png"
		}
	],
	"accessors":[
		{
			"bufferView":0,
			"componentType":5126,
			"count":32,
			"max":[
				0.9838719964027405,
				0.6304141283035278,
				1.0767316818237305
			],
			"min":[
				-0.9838360548019409,
				0,
				0.8999999761581421
			],
			"type":"VEC3"
		},
		{
			"bufferView":1,
			"componentType":5126,
			"count":32,
			"type":"VEC3"
		},
		{
			"bufferView":2,
			"componentType":5126,
			"count":32,
			"type":"VEC2"
		},
		{
			"bufferView":3,
			"componentType":5126,
			"count":32,
			"type":"VEC2"
		},
		{
			"bufferView":4,
			"componentType":5123,
			"count":60,
			"type":"SCALAR"
		},
		{
			"bufferView":5,
			"componentType":5126,
			"count":34,
			"max":[
				2.8124043941497803,
				0.635023832321167,
				0.2964327931404114
			],
			"min":[
				2.652404308319092,
				0.20467817783355713,
				0.043251439929008484
			],
			"type":"VEC3"
		},
		{
			"bufferView":6,
			"componentType":5126,
			"count":34,
			"type":"VEC3"
		},
		{
			"bufferView":7,
			"componentType":5126,
			"count":34,
			"type":"VEC2"
		},
		{
			"bufferView":8,
			"componentType":5126,
			"count":34,
			"type":"VEC2"
		},
		{
			"bufferView":9,
			"componentType":5123,
			"count":60,
			"type":"SCALAR"
		},
		{
			"bufferView":10,
			"componentType":5126,
			"count":34,
			"max":[
				3.575221061706543,
				0.635023832321167,
				0.2964327931404114
			],
			"min":[
				3.4152209758758545,
				0.20467817783355713,
				0.043251439929008484
			],
			"type":"VEC3"
		},
		{
			"bufferView":11,
			"componentType":5126,
			"count":34,
			"type":"VEC3"
		},
		{
			"bufferView":12,
			"componentType":5126,
			"count":34,
			"type":"VEC2"
		},
		{
			"bufferView":13,
			"componentType":5126,
			"count":34,
			"type":"VEC2"
		},
		{
			"bufferView":14,
			"componentType":5123,
			"count":60,
			"type":"SCALAR"
		},
		{
			"bufferView":15,
			"componentType":5126,
			"count":46,
			"max":[
				1.1737836599349976,
				1,
				1.5199999809265137
			],
			"min":[
				-1.174170732498169,
				0.6100000143051147,
				0.8999999761581421
			],
			"type":"VEC3"
		},
		{
			"bufferView":16,
			"componentType":5126,
			"count":46,
			"type":"VEC3"
		},
		{
			"bufferView":17,
			"componentType":5126,
			"count":46,
			"type":"VEC2"
		},
		{
			"bufferView":18,
			"componentType":5126,
			"count":46,
			"type":"VEC2"
		},
		{
			"bufferView":19,
			"componentType":5123,
			"count":96,
			"type":"SCALAR"
		},
		{
			"bufferView":20,
			"componentType":5126,
			"count":34,
			"max":[
				-0.4152209460735321,
				0.635023832321167,
				1.2964327335357666
			],
			"min":[
				-0.5752210021018982,
				0.20467817783355713,
				1.043251395225525
			],
			"type":"VEC3"
		},
		{
			"bufferView":21,
			"componentType":5126,
			"count":34,
			"type":"VEC3"
		},
		{
			"bufferView":22,
			"componentType":5126,
			"count":34,
			"type":"VEC2"
		},
		{
			"bufferView":23,
			"componentType":5126,
			"count":34,
			"type":"VEC2"
		},
		{
			"bufferView":24,
			"componentType":5123,
			"count":60,
			"type":"SCALAR"
		},
		{
			"bufferView":25,
			"componentType":5126,
			"count":34,
			"max":[
				0.5752210021018982,
				0.635023832321167,
				1.2964327335357666
			],
			"min":[
				0.4152209460735321,
				0.20467817783355713,
				1.043251395225525
			],
			"type":"VEC3"
		},
		{
			"bufferView":26,
			"componentType":5126,
			"count":34,
			"type":"VEC3"
		},
		{
			"bufferView":27,
			"componentType":5126,
			"count":34,
			"type":"VEC2"
		},
		{
			"bufferView":28,
			"componentType":5126,
			"count":34,
			"type":"VEC2"
		},
		{
			"bufferView":29,
			"componentType":5123,
			"count":60,
			"type":"SCALAR"
		},
		{
			"bufferView":30,
			"componentType":5126,
			"count":18,
			"max":[
				1.0727617740631104,
				0.6304141283035278,
				1.2842071056365967
			],
			"min":[
				-1.0729237794876099,
				0.35776448249816895,
				1.075226068496704
			],
			"type":"VEC3"
		},
		{
			"bufferView":31,
			"componentType":5126,
			"count":18,
			"type":"VEC3"
		},
		{
			"bufferView":32,
			"componentType":5126,
			"count":18,
			"type":"VEC2"
		},
		{
			"bufferView":33,
			"componentType":5126,
			"count":18,
			"type":"VEC2"
		},
		{
			"bufferView":34,
			"componentType":5123,
			"count":24,
			"type":"SCALAR"
		},
		{
			"bufferView":35,
			"componentType":5126,
			"count":32,
			"max":[
				4,
				0.6304141283035278,
				0.07673168182373047
			],
			"min":[
				1.9108130931854248,
				0,
				-0.10000000894069672
			],
			"type":"VEC3"
		},
		{
			"bufferView":36,
			"componentType":5126,
			"count":32,
			"type":"VEC3"
		},
		{
			"bufferView":37,
			"componentType":5126,
			"count":32,
			"type":"VEC2"
		},
		{
			"bufferView":38,
			"componentType":5126,
			"count":32,
			"type":"VEC2"
		},
		{
			"bufferView":39,
			"componentType":5123,
			"count":60,
			"type":"SCALAR"
		},
		{
			"bufferView":40,
			"componentType":5126,
			"count":46,
			"max":[
				4,
				1,
				0.5199999809265137
			],
			"min":[
				1.9108130931854248,
				0.6100000143051147,
				-0.10000000894069672
			],
			"type":"VEC3"
		},
		{
			"bufferView":41,
			"componentType":5126,
			"count":46,
			"type":"VEC3"
		},
		{
			"bufferView":42,
			"componentType":5126,
			"count":46,
			"type":"VEC2"
		},
		{
			"bufferView":43,
			"componentType":5126,
			"count":46,
			"type":"VEC2"
		},
		{
			"bufferView":44,
			"componentType":5126,
			"count":18,
			"max":[
				4,
				0.6304141283035278,
				0.2842070460319519
			],
			"min":[
				1.9837125539779663,
				0.35776448249816895,
				0.07522612065076828
			],
			"type":"VEC3"
		},
		{
			"bufferView":45,
			"componentType":5126,
			"count":18,
			"type":"VEC3"
		},
		{
			"bufferView":46,
			"componentType":5126,
			"count":18,
			"type":"VEC2"
		},
		{
			"bufferView":47,
			"componentType":5126,
			"count":18,
			"type":"VEC2"
		},
		{
			"bufferView":48,
			"componentType":5126,
			"count":24,
			"max":[
				1.9843388795852661,
				0.6304141283035278,
				1.0767316818237305
			],
			"min":[
				0.9081538915634155,
				0,
				-0.10000000149011612
			],
			"type":"VEC3"
		},
		{
			"bufferView":49,
			"componentType":5126,
			"count":24,
			"type":"VEC3"
		},
		{
			"bufferView":50,
			"componentType":5126,
			"count":24,
			"type":"VEC2"
		},
		{
			"bufferView":51,
			"componentType":5126,
			"count":24,
			"type":"VEC2"
		},
		{
			"bufferView":52,
			"componentType":5123,
			"count":36,
			"type":"SCALAR"
		},
		{
			"bufferView":53,
			"componentType":5126,
			"count":46,
			"max":[
				2.1687519550323486,
				1,
				1.5199999809265137
			],
			"min":[
				0.9081538915634155,
				0.6100000143051147,
				-0.10000000149011612
			],
			"type":"VEC3"
		},
		{
			"bufferView":54,
			"componentType":5126,
			"count":46,
			"type":"VEC3"
		},
		{
			"bufferView":55,
			"componentType":5126,
			"count":46,
			"type":"VEC2"
		},
		{
			"bufferView":56,
			"componentType":5126,
			"count":46,
			"type":"VEC2"
		},
		{
			"bufferView":57,
			"componentType":5123,
			"count":96,
			"type":"SCALAR"
		},
		{
			"bufferView":58,
			"componentType":5126,
			"count":18,
			"max":[
				2.070655107498169,
				0.6304141283035278,
				1.2842071056365967
			],
			"min":[
				0.9832268953323364,
				0.35776448249816895,
				0.07522612065076828
			],
			"type":"VEC3"
		},
		{
			"bufferView":59,
			"componentType":5126,
			"count":18,
			"type":"VEC3"
		},
		{
			"bufferView":60,
			"componentType":5126,
			"count":18,
			"type":"VEC2"
		},
		{
			"bufferView":61,
			"componentType":5126,
			"count":18,
			"type":"VEC2"
		},
		{
			"bufferView":62,
			"componentType":5123,
			"count":24,
			"type":"SCALAR"
		},
		{
			"bufferView":63,
			"componentType":5126,
			"count":34,
			"max":[
				1.3899705410003662,
				0.635023832321167,
				1.090212106704712
			],
			"min":[
				1.0975303649902344,
				0.20467817783355713,
				0.798330545425415
			],
			"type":"VEC3"
		},
		{
			"bufferView":64,
			"componentType":5126,
			"count":34,
			"type":"VEC3"
		},
		{
			"bufferView":65,
			"componentType":5126,
			"count":34,
			"type":"VEC2"
		},
		{
			"bufferView":66,
			"componentType":5126,
			"count":34,
			"type":"VEC2"
		},
		{
			"bufferView":67,
			"componentType":5123,
			"count":60,
			"type":"SCALAR"
		},
		{
			"bufferView":68,
			"componentType":5126,
			"count":34,
			"max":[
				1.9712741374969482,
				0.635023832321167,
				0.5128775835037231
			],
			"min":[
				1.6788339614868164,
				0.20467817783355713,
				0.22099615633487701
			],
			"type":"VEC3"
		},
		{
			"bufferView":69,
			"componentType":5126,
			"count":34,
			"type":"VEC3"
		},
		{
			"bufferView":70,
			"componentType":5126,
			"count":34,
			"type":"VEC2"
		},
		{
			"bufferView":71,
			"componentType":5126,
			"count":34,
			"type":"VEC2"
		},
		{
			"bufferView":72,
			"componentType":5123,
			"count":60,
			"type":"SCALAR"
		},
		{
			"bufferView":73,
			"componentType":5126,
			"count":24,
			"max":[
				2.0966362953186035,
				0.800000011920929,
				1
			],
			"min":[
				-2.0419938564300537,
				0.7522151470184326,
				-0.10000000149011612
			],
			"type":"VEC3"
		},
		{
			"bufferView":74,
			"componentType":5126,
			"count":24,
			"type":"VEC3"
		},
		{
			"bufferView":75,
			"componentType":5126,
			"count":24,
			"type":"VEC2"
		},
		{
			"bufferView":76,
			"componentType":5126,
			"count":24,
			"type":"VEC2"
		},
		{
			"bufferView":77,
			"componentType":5123,
			"count":36,
			"type":"SCALAR"
		},
		{
			"bufferView":78,
			"componentType":5126,
			"count":34,
			"max":[
				-2.652404308319092,
				0.635023832321167,
				0.2964327931404114
			],
			"min":[
				-2.8124043941497803,
				0.20467817783355713,
				0.043251439929008484
			],
			"type":"VEC3"
		},
		{
			"bufferView":79,
			"componentType":5126,
			"count":34,
			"type":"VEC3"
		},
		{
			"bufferView":80,
			"componentType":5126,
			"count":34,
			"type":"VEC2"
		},
		{
			"bufferView":81,
			"componentType":5126,
			"count":34,
			"type":"VEC2"
		},
		{
			"bufferView":82,
			"componentType":5123,
			"count":60,
			"type":"SCALAR"
		},
		{
			"bufferView":83,
			"componentType":5126,
			"count":34,
			"max":[
				-3.4152209758758545,
				0.635023832321167,
				0.2964327931404114
			],
			"min":[
				-3.575221061706543,
				0.20467817783355713,
				0.043251439929008484
			],
			"type":"VEC3"
		},
		{
			"bufferView":84,
			"componentType":5126,
			"count":34,
			"type":"VEC3"
		},
		{
			"bufferView":85,
			"componentType":5126,
			"count":34,
			"type":"VEC2"
		},
		{
			"bufferView":86,
			"componentType":5126,
			"count":34,
			"type":"VEC2"
		},
		{
			"bufferView":87,
			"componentType":5123,
			"count":60,
			"type":"SCALAR"
		},
		{
			"bufferView":88,
			"componentType":5126,
			"count":32,
			"max":[
				-1.9108130931854248,
				0.6304141283035278,
				0.07673168182373047
			],
			"min":[
				-4,
				0,
				-0.10000000894069672
			],
			"type":"VEC3"
		},
		{
			"bufferView":89,
			"componentType":5126,
			"count":32,
			"type":"VEC3"
		},
		{
			"bufferView":90,
			"componentType":5126,
			"count":32,
			"type":"VEC2"
		},
		{
			"bufferView":91,
			"componentType":5126,
			"count":32,
			"type":"VEC2"
		},
		{
			"bufferView":92,
			"componentType":5123,
			"count":60,
			"type":"SCALAR"
		},
		{
			"bufferView":93,
			"componentType":5126,
			"count":46,
			"max":[
				-1.9108130931854248,
				1,
				0.5199999809265137
			],
			"min":[
				-4,
				0.6100000143051147,
				-0.10000000894069672
			],
			"type":"VEC3"
		},
		{
			"bufferView":94,
			"componentType":5126,
			"count":46,
			"type":"VEC3"
		},
		{
			"bufferView":95,
			"componentType":5126,
			"count":46,
			"type":"VEC2"
		},
		{
			"bufferView":96,
			"componentType":5126,
			"count":46,
			"type":"VEC2"
		},
		{
			"bufferView":97,
			"componentType":5123,
			"count":96,
			"type":"SCALAR"
		},
		{
			"bufferView":98,
			"componentType":5126,
			"count":18,
			"max":[
				-1.9837125539779663,
				0.6304141283035278,
				0.2842070460319519
			],
			"min":[
				-4,
				0.35776448249816895,
				0.07522612065076828
			],
			"type":"VEC3"
		},
		{
			"bufferView":99,
			"componentType":5126,
			"count":18,
			"type":"VEC3"
		},
		{
			"bufferView":100,
			"componentType":5126,
			"count":18,
			"type":"VEC2"
		},
		{
			"bufferView":101,
			"componentType":5126,
			"count":18,
			"type":"VEC2"
		},
		{
			"bufferView":102,
			"componentType":5123,
			"count":24,
			"type":"SCALAR"
		},
		{
			"bufferView":103,
			"componentType":5126,
			"count":24,
			"max":[
				-0.9081538915634155,
				0.6304141283035278,
				1.0767316818237305
			],
			"min":[
				-1.9843388795852661,
				0,
				-0.10000000149011612
			],
			"type":"VEC3"
		},
		{
			"bufferView":104,
			"componentType":5126,
			"count":24,
			"type":"VEC3"
		},
		{
			"bufferView":105,
			"componentType":5126,
			"count":24,
			"type":"VEC2"
		},
		{
			"bufferView":106,
			"componentType":5126,
			"count":24,
			"type":"VEC2"
		},
		{
			"bufferView":107,
			"componentType":5123,
			"count":36,
			"type":"SCALAR"
		},
		{
			"bufferView":108,
			"componentType":5126,
			"count":46,
			"max":[
				-0.9081538915634155,
				1,
				1.5199999809265137
			],
			"min":[
				-2.1687519550323486,
				0.6100000143051147,
				-0.10000000149011612
			],
			"type":"VEC3"
		},
		{
			"bufferView":109,
			"componentType":5126,
			"count":46,
			"type":"VEC3"
		},
		{
			"bufferView":110,
			"componentType":5126,
			"count":46,
			"type":"VEC2"
		},
		{
			"bufferView":111,
			"componentType":5126,
			"count":46,
			"type":"VEC2"
		},
		{
			"bufferView":112,
			"componentType":5123,
			"count":96,
			"type":"SCALAR"
		},
		{
			"bufferView":113,
			"componentType":5126,
			"count":18,
			"max":[
				-0.9832268953323364,
				0.6304141283035278,
				1.2842071056365967
			],
			"min":[
				-2.070655107498169,
				0.35776448249816895,
				0.07522612065076828
			],
			"type":"VEC3"
		},
		{
			"bufferView":114,
			"componentType":5126,
			"count":18,
			"type":"VEC3"
		},
		{
			"bufferView":115,
			"componentType":5126,
			"count":18,
			"type":"VEC2"
		},
		{
			"bufferView":116,
			"componentType":5126,
			"count":18,
			"type":"VEC2"
		},
		{
			"bufferView":117,
			"componentType":5123,
			"count":24,
			"type":"SCALAR"
		},
		{
			"bufferView":118,
			"componentType":5126,
			"count":34,
			"max":[
				-1.0975303649902344,
				0.635023832321167,
				1.090212106704712
			],
			"min":[
				-1.3899705410003662,
				0.20467817783355713,
				0.798330545425415
			],
			"type":"VEC3"
		},
		{
			"bufferView":119,
			"componentType":5126,
			"count":34,
			"type":"VEC3"
		},
		{
			"bufferView":120,
			"componentType":5126,
			"count":34,
			"type":"VEC2"
		},
		{
			"bufferView":121,
			"componentType":5126,
			"count":34,
			"type":"VEC2"
		},
		{
			"bufferView":122,
			"componentType":5123,
			"count":60,
			"type":"SCALAR"
		},
		{
			"bufferView":123,
			"componentType":5126,
			"count":34,
			"max":[
				-1.6788339614868164,
				0.635023832321167,
				0.5128775835037231
			],
			"min":[
				-1.9712741374969482,
				0.20467817783355713,
				0.22099615633487701
			],
			"type":"VEC3"
		},
		{
			"bufferView":124,
			"componentType":5126,
			"count":34,
			"type":"VEC3"
		},
		{
			"bufferView":125,
			"componentType":5126,
			"count":34,
			"type":"VEC2"
		},
		{
			"bufferView":126,
			"componentType":5126,
			"count":34,
			"type":"VEC2"
		},
		{
			"bufferView":127,
			"componentType":5123,
			"count":60,
			"type":"SCALAR"
		},
		{
			"bufferView":128,
			"componentType":5126,
			"count":770,
			"max":[
				4,
				0.9983841180801392,
				1.5278398990631104
			],
			"min":[
				-4,
				0,
				-0.10022258758544922
			],
			"type":"VEC3"
		},
		{
			"bufferView":129,
			"componentType":5126,
			"count":770,
			"type":"VEC3"
		},
		{
			"bufferView":130,
			"componentType":5126,
			"count":770,
			"type":"VEC2"
		},
		{
			"bufferView":131,
			"componentType":5126,
			"count":770,
			"type":"VEC2"
		},
		{
			"bufferView":132,
			"componentType":5121,
			"count":770,
			"normalized":true,
			"type":"VEC4"
		},
		{
			"bufferView":133,
			"componentType":5123,
			"count":770,
			"normalized":true,
			"type":"VEC4"
		},
		{
			"bufferView":134,
			"componentType":5123,
			"count":1476,
			"type":"SCALAR"
		},
		{
			"bufferView":135,
			"componentType":5126,
			"count":6,
			"max":[
				1.9102725982666016,
				0.800000011920929,
				0.8999999761581421
			],
			"min":[
				-1.9102725982666016,
				0.800000011920929,
				-0.10022258758544922
			],
			"type":"VEC3"
		},
		{
			"bufferView":136,
			"componentType":5126,
			"count":6,
			"type":"VEC3"
		},
		{
			"bufferView":137,
			"componentType":5126,
			"count":6,
			"type":"VEC2"
		},
		{
			"bufferView":138,
			"componentType":5126,
			"count":6,
			"type":"VEC2"
		},
		{
			"bufferView":139,
			"componentType":5121,
			"count":6,
			"normalized":true,
			"type":"VEC4"
		},
		{
			"bufferView":140,
			"componentType":5123,
			"count":6,
			"normalized":true,
			"type":"VEC4"
		},
		{
			"bufferView":141,
			"componentType":5123,
			"count":12,
			"type":"SCALAR"
		}
	],
	"bufferViews":[
		{
			"buffer":0,
			"byteLength":384,
			"byteOffset":0,
			"target":34962
		},
		{
			"buffer":0,
			"byteLength":384,
			"byteOffset":384,
			"target":34962
		},
		{
			"buffer":0,
			"byteLength":256,
			"byteOffset":768,
			"target":34962
		},
		{
			"buffer":0,
			"byteLength":256,
			"byteOffset":1024,
			"target":34962
		},
		{
			"buffer":0,
			"byteLength":120,
			"byteOffset":1280,
			"target":34963
		},
		{
			"buffer":0,
			"byteLength":408,
			"byteOffset":1400,
			"target":34962
		},
		{
			"buffer":0,
			"byteLength":408,
			"byteOffset":1808,
			"target":34962
		},
		{
			"buffer":0,
			"byteLength":272,
			"byteOffset":2216,
			"target":34962
		},
		{
			"buffer":0,
			"byteLength":272,
			"byteOffset":2488,
			"target":34962
		},
		{
			"buffer":0,
			"byteLength":120,
			"byteOffset":2760,
			"target":34963
		},
		{
			"buffer":0,
			"byteLength":408,
			"byteOffset":2880,
			"target":34962
		},
		{
			"buffer":0,
			"byteLength":408,
			"byteOffset":3288,
			"target":34962
		},
		{
			"buffer":0,
			"byteLength":272,
			"byteOffset":3696,
			"target":34962
		},
		{
			"buffer":0,
			"byteLength":272,
			"byteOffset":3968,
			"target":34962
		},
		{
			"buffer":0,
			"byteLength":120,
			"byteOffset":4240,
			"target":34963
		},
		{
			"buffer":0,
			"byteLength":552,
			"byteOffset":4360,
			"target":34962
		},
		{
			"buffer":0,
			"byteLength":552,
			"byteOffset":4912,
			"target":34962
		},
		{
			"buffer":0,
			"byteLength":368,
			"byteOffset":5464,
			"target":34962
		},
		{
			"buffer":0,
			"byteLength":368,
			"byteOffset":5832,
			"target":34962
		},
		{
			"buffer":0,
			"byteLength":192,
			"byteOffset":6200,
			"target":34963
		},
		{
			"buffer":0,
			"byteLength":408,
			"byteOffset":6392,
			"target":34962
		},
		{
			"buffer":0,
			"byteLength":408,
			"byteOffset":6800,
			"target":34962
		},
		{
			"buffer":0,
			"byteLength":272,
			"byteOffset":7208,
			"target":34962
		},
		{
			"buffer":0,
			"byteLength":272,
			"byteOffset":7480,
			"target":34962
		},
		{
			"buffer":0,
			"byteLength":120,
			"byteOffset":7752,
			"target":34963
		},
		{
			"buffer":0,
			"byteLength":408,
			"byteOffset":7872,
			"target":34962
		},
		{
			"buffer":0,
			"byteLength":408,
			"byteOffset":8280,
			"target":34962
		},
		{
			"buffer":0,
			"byteLength":272,
			"byteOffset":8688,
			"target":34962
		},
		{
			"buffer":0,
			"byteLength":272,
			"byteOffset":8960,
			"target":34962
		},
		{
			"buffer":0,
			"byteLength":120,
			"byteOffset":9232,
			"target":34963
		},
		{
			"buffer":0,
			"byteLength":216,
			"byteOffset":9352,
			"target":34962
		},
		{
			"buffer":0,
			"byteLength":216,
			"byteOffset":9568,
			"target":34962
		},
		{
			"buffer":0,
			"byteLength":144,
			"byteOffset":9784,
			"target":34962
		},
		{
			"buffer":0,
			"byteLength":144,
			"byteOffset":9928,
			"target":34962
		},
		{
			"buffer":0,
			"byteLength":48,
			"byteOffset":10072,
			"target":34963
		},
		{
			"buffer":0,
			"byteLength":384,
			"byteOffset":10120,
			"target":34962
		},
		{
			"buffer":0,
			"byteLength":384,
			"byteOffset":10504,
			"target":34962
		},
		{
			"buffer":0,
			"byteLength":256,
			"byteOffset":10888,
			"target":34962
		},
		{
			"buffer":0,
			"byteLength":256,
			"byteOffset":11144,
			"target":34962
		},
		{
			"buffer":0,
			"byteLength":120,
			"byteOffset":11400,
			"target":34963
		},
		{
			"buffer":0,
			"byteLength":552,
			"byteOffset":11520,
			"target":34962
		},
		{
			"buffer":0,
			"byteLength":552,
			"byteOffset":12072,
			"target":34962
		},
		{
			"buffer":0,
			"byteLength":368,
			"byteOffset":12624,
			"target":34962
		},
		{
			"buffer":0,
			"byteLength":368,
			"byteOffset":12992,
			"target":34962
		},
		{
			"buffer":0,
			"byteLength":216,
			"byteOffset":13360,
			"target":34962
		},
		{
			"buffer":0,
			"byteLength":216,
			"byteOffset":13576,
			"target":34962
		},
		{
			"buffer":0,
			"byteLength":144,
			"byteOffset":13792,
			"target":34962
		},
		{
			"buffer":0,
			"byteLength":144,
			"byteOffset":13936,
			"target":34962
		},
		{
			"buffer":0,
			"byteLength":288,
			"byteOffset":14080,
			"target":34962
		},
		{
			"buffer":0,
			"byteLength":288,
			"byteOffset":14368,
			"target":34962
		},
		{
			"buffer":0,
			"byteLength":192,
			"byteOffset":14656,
			"target":34962
		},
		{
			"buffer":0,
			"byteLength":192,
			"byteOffset":14848,
			"target":34962
		},
		{
			"buffer":0,
			"byteLength":72,
			"byteOffset":15040,
			"target":34963
		},
		{
			"buffer":0,
			"byteLength":552,
			"byteOffset":15112,
			"target":34962
		},
		{
			"buffer":0,
			"byteLength":552,
			"byteOffset":15664,
			"target":34962
		},
		{
			"buffer":0,
			"byteLength":368,
			"byteOffset":16216,
			"target":34962
		},
		{
			"buffer":0,
			"byteLength":368,
			"byteOffset":16584,
			"target":34962
		},
		{
			"buffer":0,
			"byteLength":192,
			"byteOffset":16952,
			"target":34963
		},
		{
			"buffer":0,
			"byteLength":216,
			"byteOffset":17144,
			"target":34962
		},
		{
			"buffer":0,
			"byteLength":216,
			"byteOffset":17360,
			"target":34962
		},
		{
			"buffer":0,
			"byteLength":144,
			"byteOffset":17576,
			"target":34962
		},
		{
			"buffer":0,
			"byteLength":144,
			"byteOffset":17720,
			"target":34962
		},
		{
			"buffer":0,
			"byteLength":48,
			"byteOffset":17864,
			"target":34963
		},
		{
			"buffer":0,
			"byteLength":408,
			"byteOffset":17912,
			"target":34962
		},
		{
			"buffer":0,
			"byteLength":408,
			"byteOffset":18320,
			"target":34962
		},
		{
			"buffer":0,
			"byteLength":272,
			"byteOffset":18728,
			"target":34962
		},
		{
			"buffer":0,
			"byteLength":272,
			"byteOffset":19000,
			"target":34962
		},
		{
			"buffer":0,
			"byteLength":120,
			"byteOffset":19272,
			"target":34963
		},
		{
			"buffer":0,
			"byteLength":408,
			"byteOffset":19392,
			"target":34962
		},
		{
			"buffer":0,
			"byteLength":408,
			"byteOffset":19800,
			"target":34962
		},
		{
			"buffer":0,
			"byteLength":272,
			"byteOffset":20208,
			"target":34962
		},
		{
			"buffer":0,
			"byteLength":272,
			"byteOffset":20480,
			"target":34962
		},
		{
			"buffer":0,
			"byteLength":120,
			"byteOffset":20752,
			"target":34963
		},
		{
			"buffer":0,
			"byteLength":288,
			"byteOffset":20872,
			"target":34962
		},
		{
			"buffer":0,
			"byteLength":288,
			"byteOffset":21160,
			"target":34962
		},
		{
			"buffer":0,
			"byteLength":192,
			"byteOffset":21448,
			"target":34962
		},
		{
			"buffer":0,
			"byteLength":192,
			"byteOffset":21640,
			"target":34962
		},
		{
			"buffer":0,
			"byteLength":72,
			"byteOffset":21832,
			"target":34963
		},
		{
			"buffer":0,
			"byteLength":408,
			"byteOffset":21904,
			"target":34962
		},
		{
			"buffer":0,
			"byteLength":408,
			"byteOffset":22312,
			"target":34962
		},
		{
			"buffer":0,
			"byteLength":272,
			"byteOffset":22720,
			"target":34962
		},
		{
			"buffer":0,
			"byteLength":272,
			"byteOffset":22992,
			"target":34962
		},
		{
			"buffer":0,
			"byteLength":120,
			"byteOffset":23264,
			"target":34963
		},
		{
			"buffer":0,
			"byteLength":408,
			"byteOffset":23384,
			"target":34962
		},
		{
			"buffer":0,
			"byteLength":408,
			"byteOffset":23792,
			"target":34962
		},
		{
			"buffer":0,
			"byteLength":272,
			"byteOffset":24200,
			"target":34962
		},
		{
			"buffer":0,
			"byteLength":272,
			"byteOffset":24472,
			"target":34962
		},
		{
			"buffer":0,
			"byteLength":120,
			"byteOffset":24744,
			"target":34963
		},
		{
			"buffer":0,
			"byteLength":384,
			"byteOffset":24864,
			"target":34962
		},
		{
			"buffer":0,
			"byteLength":384,
			"byteOffset":25248,
			"target":34962
		},
		{
			"buffer":0,
			"byteLength":256,
			"byteOffset":25632,
			"target":34962
		},
		{
			"buffer":0,
			"byteLength":256,
			"byteOffset":25888,
			"target":34962
		},
		{
			"buffer":0,
			"byteLength":120,
			"byteOffset":26144,
			"target":34963
		},
		{
			"buffer":0,
			"byteLength":552,
			"byteOffset":26264,
			"target":34962
		},
		{
			"buffer":0,
			"byteLength":552,
			"byteOffset":26816,
			"target":34962
		},
		{
			"buffer":0,
			"byteLength":368,
			"byteOffset":27368,
			"target":34962
		},
		{
			"buffer":0,
			"byteLength":368,
			"byteOffset":27736,
			"target":34962
		},
		{
			"buffer":0,
			"byteLength":192,
			"byteOffset":28104,
			"target":34963
		},
		{
			"buffer":0,
			"byteLength":216,
			"byteOffset":28296,
			"target":34962
		},
		{
			"buffer":0,
			"byteLength":216,
			"byteOffset":28512,
			"target":34962
		},
		{
			"buffer":0,
			"byteLength":144,
			"byteOffset":28728,
			"target":34962
		},
		{
			"buffer":0,
			"byteLength":144,
			"byteOffset":28872,
			"target":34962
		},
		{
			"buffer":0,
			"byteLength":48,
			"byteOffset":29016,
			"target":34963
		},
		{
			"buffer":0,
			"byteLength":288,
			"byteOffset":29064,
			"target":34962
		},
		{
			"buffer":0,
			"byteLength":288,
			"byteOffset":29352,
			"target":34962
		},
		{
			"buffer":0,
			"byteLength":192,
			"byteOffset":29640,
			"target":34962
		},
		{
			"buffer":0,
			"byteLength":192,
			"byteOffset":29832,
			"target":34962
		},
		{
			"buffer":0,
			"byteLength":72,
			"byteOffset":30024,
			"target":34963
		},
		{
			"buffer":0,
			"byteLength":552,
			"byteOffset":30096,
			"target":34962
		},
		{
			"buffer":0,
			"byteLength":552,
			"byteOffset":30648,
			"target":34962
		},
		{
			"buffer":0,
			"byteLength":368,
			"byteOffset":31200,
			"target":34962
		},
		{
			"buffer":0,
			"byteLength":368,
			"byteOffset":31568,
			"target":34962
		},
		{
			"buffer":0,
			"byteLength":192,
			"byteOffset":31936,
			"target":34963
		},
		{
			"buffer":0,
			"byteLength":216,
			"byteOffset":32128,
			"target":34962
		},
		{
			"buffer":0,
			"byteLength":216,
			"byteOffset":32344,
			"target":34962
		},
		{
			"buffer":0,
			"byteLength":144,
			"byteOffset":32560,
			"target":34962
		},
		{
			"buffer":0,
			"byteLength":144,
			"byteOffset":32704,
			"target":34962
		},
		{
			"buffer":0,
			"byteLength":48,
			"byteOffset":32848,
			"target":34963
		},
		{
			"buffer":0,
			"byteLength":408,
			"byteOffset":32896,
			"target":34962
		},
		{
			"buffer":0,
			"byteLength":408,
			"byteOffset":33304,
			"target":34962
		},
		{
			"buffer":0,
			"byteLength":272,
			"byteOffset":33712,
			"target":34962
		},
		{
			"buffer":0,
			"byteLength":272,
			"byteOffset":33984,
			"target":34962
		},
		{
			"buffer":0,
			"byteLength":120,
			"byteOffset":34256,
			"target":34963
		},
		{
			"buffer":0,
			"byteLength":408,
			"byteOffset":34376,
			"target":34962
		},
		{
			"buffer":0,
			"byteLength":408,
			"byteOffset":34784,
			"target":34962
		},
		{
			"buffer":0,
			"byteLength":272,
			"byteOffset":35192,
			"target":34962
		},
		{
			"buffer":0,
			"byteLength":272,
			"byteOffset":35464,
			"target":34962
		},
		{
			"buffer":0,
			"byteLength":120,
			"byteOffset":35736,
			"target":34963
		},
		{
			"buffer":0,
			"byteLength":9240,
			"byteOffset":35856,
			"target":34962
		},
		{
			"buffer":0,
			"byteLength":9240,
			"byteOffset":45096,
			"target":34962
		},
		{
			"buffer":0,
			"byteLength":6160,
			"byteOffset":54336,
			"target":34962
		},
		{
			"buffer":0,
			"byteLength":6160,
			"byteOffset":60496,
			"target":34962
		},
		{
			"buffer":0,
			"byteLength":3080,
			"byteOffset":66656,
			"target":34962
		},
		{
			"buffer":0,
			"byteLength":6160,
			"byteOffset":69736,
			"target":34962
		},
		{
			"buffer":0,
			"byteLength":2952,
			"byteOffset":75896,
			"target":34963
		},
		{
			"buffer":0,
			"byteLength":72,
			"byteOffset":78848,
			"target":34962
		},
		{
			"buffer":0,
			"byteLength":72,
			"byteOffset":78920,
			"target":34962
		},
		{
			"buffer":0,
			"byteLength":48,
			"byteOffset":78992,
			"target":34962
		},
		{
			"buffer":0,
			"byteLength":48,
			"byteOffset":79040,
			"target":34962
		},
		{
			"buffer":0,
			"byteLength":24,
			"byteOffset":79088,
			"target":34962
		},
		{
			"buffer":0,
			"byteLength":48,
			"byteOffset":79112,
			"target":34962
		},
		{
			"buffer":0,
			"byteLength":24,
			"byteOffset":79160,
			"target":34963
		}
	],
	"samplers":[
		{
			"magFilter":9729,
			"minFilter":9987
		}
	],
	"buffers":[
		{
			"byteLength":79184,
			"uri":"Trim_BayWindow_Top.bin"
		}
	]
}
