{
	"asset":{
		"generator":"Khronos glTF Blender I/O v4.3.47",
		"version":"2.0"
	},
	"scene":0,
	"scenes":[
		{
			"name":"Scene",
			"nodes":[
				6
			]
		}
	],
	"nodes":[
		{
			"mesh":0,
			"name":"Trim_Window_1-convcolonly"
		},
		{
			"mesh":1,
			"name":"Trim_Window_2-convcolonly"
		},
		{
			"mesh":2,
			"name":"Trim_Window_3-convcolonly"
		},
		{
			"mesh":3,
			"name":"Trim_Window_4-convcolonly"
		},
		{
			"mesh":4,
			"name":"Trim_Window_5-convcolonly"
		},
		{
			"mesh":5,
			"name":"Trim_Window_6-convcolonly"
		},
		{
			"children":[
				0,
				1,
				2,
				3,
				4,
				5
			],
			"mesh":6,
			"name":"Trim_Window"
		}
	],
	"materials":[
		{
			"doubleSided":true,
			"name":"Collision",
			"pbrMetallicRoughness":{
				"baseColorFactor":[
					0.036788325756788254,
					0.5504099726676941,
					0.8000074625015259,
					1
				],
				"metallicFactor":0
			}
		},
		{
			"doubleSided":true,
			"name":"MI_Trim",
			"normalTexture":{
				"index":0
			},
			"pbrMetallicRoughness":{
				"baseColorTexture":{
					"index":1
				},
				"metallicRoughnessTexture":{
					"index":2
				}
			}
		},
		{
			"alphaMode":"BLEND",
			"doubleSided":true,
			"name":"MI_Glass",
			"pbrMetallicRoughness":{
				"baseColorFactor":[
					0.05215025693178177,
					0.05215025693178177,
					0.05215025693178177,
					0.586363673210144
				],
				"metallicFactor":0,
				"roughnessFactor":0.5
			}
		},
		{
			"doubleSided":true,
			"name":"MI_Trim_Dark",
			"normalTexture":{
				"index":3
			},
			"pbrMetallicRoughness":{
				"baseColorTexture":{
					"index":4
				},
				"metallicRoughnessTexture":{
					"index":5
				}
			}
		},
		{
			"doubleSided":true,
			"name":"MI_FakeInterior",
			"pbrMetallicRoughness":{
				"baseColorFactor":[
					0.800000011920929,
					0.800000011920929,
					0.800000011920929,
					1
				],
				"metallicFactor":0,
				"roughnessFactor":0.5
			}
		},
		{
			"doubleSided":true,
			"name":"MI_InteriorWall",
			"normalTexture":{
				"index":6
			},
			"pbrMetallicRoughness":{
				"baseColorTexture":{
					"index":7
				},
				"metallicRoughnessTexture":{
					"index":8
				}
			}
		}
	],
	"meshes":[
		{
			"name":"Cube.309",
			"primitives":[
				{
					"attributes":{
						"POSITION":0,
						"NORMAL":1,
						"TEXCOORD_0":2
					},
					"indices":3,
					"material":0
				}
			]
		},
		{
			"name":"Cube.313",
			"primitives":[
				{
					"attributes":{
						"POSITION":4,
						"NORMAL":5,
						"TEXCOORD_0":6
					},
					"indices":7,
					"material":0
				}
			]
		},
		{
			"name":"Cube.314",
			"primitives":[
				{
					"attributes":{
						"POSITION":8,
						"NORMAL":9,
						"TEXCOORD_0":10
					},
					"indices":11,
					"material":0
				}
			]
		},
		{
			"name":"Cube.315",
			"primitives":[
				{
					"attributes":{
						"POSITION":12,
						"NORMAL":13,
						"TEXCOORD_0":14
					},
					"indices":15,
					"material":0
				}
			]
		},
		{
			"name":"Cube.316",
			"primitives":[
				{
					"attributes":{
						"POSITION":16,
						"NORMAL":17,
						"TEXCOORD_0":18
					},
					"indices":19,
					"material":0
				}
			]
		},
		{
			"name":"Cube.317",
			"primitives":[
				{
					"attributes":{
						"POSITION":20,
						"NORMAL":21,
						"TEXCOORD_0":22
					},
					"indices":19,
					"material":0
				}
			]
		},
		{
			"name":"Cube.862",
			"primitives":[
				{
					"attributes":{
						"POSITION":23,
						"NORMAL":24,
						"TEXCOORD_0":25,
						"TEXCOORD_1":26,
						"COLOR_0":27,
						"COLOR_1":28
					},
					"indices":29,
					"material":1
				},
				{
					"attributes":{
						"POSITION":30,
						"NORMAL":31,
						"TEXCOORD_0":32,
						"TEXCOORD_1":33,
						"COLOR_0":34,
						"COLOR_1":35
					},
					"indices":36,
					"material":2
				},
				{
					"attributes":{
						"POSITION":37,
						"NORMAL":38,
						"TEXCOORD_0":39,
						"TEXCOORD_1":40,
						"COLOR_0":41,
						"COLOR_1":42
					},
					"indices":43,
					"material":3
				},
				{
					"attributes":{
						"POSITION":44,
						"NORMAL":45,
						"TEXCOORD_0":46,
						"TEXCOORD_1":47,
						"COLOR_0":48,
						"COLOR_1":49
					},
					"indices":50,
					"material":4
				},
				{
					"attributes":{
						"POSITION":51,
						"NORMAL":52,
						"TEXCOORD_0":53,
						"TEXCOORD_1":54,
						"COLOR_0":55,
						"COLOR_1":56
					},
					"indices":57,
					"material":5
				}
			]
		}
	],
	"textures":[
		{
			"sampler":0,
			"source":0
		},
		{
			"sampler":0,
			"source":1
		},
		{
			"sampler":0,
			"source":2
		},
		{
			"sampler":0,
			"source":0
		},
		{
			"sampler":0,
			"source":1
		},
		{
			"sampler":0,
			"source":2
		},
		{
			"sampler":0,
			"source":3
		},
		{
			"sampler":0,
			"source":4
		},
		{
			"sampler":0,
			"source":5
		}
	],
	"images":[
		{
			"mimeType":"image/png",
			"name":"T_Trim_Normal",
			"uri":"../../materials/T_Trim_Normal.png"
		},
		{
			"mimeType":"image/png",
			"name":"T_Trim_BaseColor",
			"uri":"../../materials/T_Trim_BaseColor.png"
		},
		{
			"mimeType":"image/png",
			"name":"T_Trim_ORM",
			"uri":"../../materials/T_Trim_ORM.png"
		},
		{
			"mimeType":"image/png",
			"name":"T_RedBrick_Normal",
			"uri":"../../materials/T_RedBrick_Normal.png"
		},
		{
			"mimeType":"image/png",
			"name":"T_RedBrick_BaseColor",
			"uri":"../../materials/T_RedBrick_BaseColor.png"
		},
		{
			"mimeType":"image/png",
			"name":"T_RedBrick_ORM",
			"uri":"../../materials/T_RedBrick_ORM.png"
		}
	],
	"accessors":[
		{
			"bufferView":0,
			"componentType":5126,
			"count":24,
			"max":[
				1.0000003576278687,
				1.0547722578048706,
				0
			],
			"min":[
				-1.0000003576278687,
				0,
				-0.19999998807907104
			],
			"type":"VEC3"
		},
		{
			"bufferView":1,
			"componentType":5126,
			"count":24,
			"type":"VEC3"
		},
		{
			"bufferView":2,
			"componentType":5126,
			"count":24,
			"type":"VEC2"
		},
		{
			"bufferView":3,
			"componentType":5123,
			"count":36,
			"type":"SCALAR"
		},
		{
			"bufferView":4,
			"componentType":5126,
			"count":24,
			"max":[
				-0.5824735164642334,
				2.2976768016815186,
				0
			],
			"min":[
				-1.0000003576278687,
				1.0547722578048706,
				-0.19999998807907104
			],
			"type":"VEC3"
		},
		{
			"bufferView":5,
			"componentType":5126,
			"count":24,
			"type":"VEC3"
		},
		{
			"bufferView":6,
			"componentType":5126,
			"count":24,
			"type":"VEC2"
		},
		{
			"bufferView":7,
			"componentType":5123,
			"count":36,
			"type":"SCALAR"
		},
		{
			"bufferView":8,
			"componentType":5126,
			"count":24,
			"max":[
				1.0000003576278687,
				2.2976768016815186,
				0
			],
			"min":[
				0.582473635673523,
				1.0547722578048706,
				-0.19999998807907104
			],
			"type":"VEC3"
		},
		{
			"bufferView":9,
			"componentType":5126,
			"count":24,
			"type":"VEC3"
		},
		{
			"bufferView":10,
			"componentType":5126,
			"count":24,
			"type":"VEC2"
		},
		{
			"bufferView":11,
			"componentType":5123,
			"count":36,
			"type":"SCALAR"
		},
		{
			"bufferView":12,
			"componentType":5126,
			"count":24,
			"max":[
				1.0000003576278687,
				3,
				0
			],
			"min":[
				-1.0000003576278687,
				2.2976768016815186,
				-0.19999998807907104
			],
			"type":"VEC3"
		},
		{
			"bufferView":13,
			"componentType":5126,
			"count":24,
			"type":"VEC3"
		},
		{
			"bufferView":14,
			"componentType":5126,
			"count":24,
			"type":"VEC2"
		},
		{
			"bufferView":15,
			"componentType":5123,
			"count":36,
			"type":"SCALAR"
		},
		{
			"bufferView":16,
			"componentType":5126,
			"count":24,
			"max":[
				0.5373108983039856,
				2.2514584064483643,
				-0.09635595977306366
			],
			"min":[
				-0.537310779094696,
				1.0474441051483154,
				-0.24072891473770142
			],
			"type":"VEC3"
		},
		{
			"bufferView":17,
			"componentType":5126,
			"count":24,
			"type":"VEC3"
		},
		{
			"bufferView":18,
			"componentType":5126,
			"count":24,
			"type":"VEC2"
		},
		{
			"bufferView":19,
			"componentType":5123,
			"count":36,
			"type":"SCALAR"
		},
		{
			"bufferView":20,
			"componentType":5126,
			"count":24,
			"max":[
				0.5974202156066895,
				2.328183650970459,
				-0.09635595977306366
			],
			"min":[
				-0.5974200963973999,
				0.9603628516197205,
				-0.19999998807907104
			],
			"type":"VEC3"
		},
		{
			"bufferView":21,
			"componentType":5126,
			"count":24,
			"type":"VEC3"
		},
		{
			"bufferView":22,
			"componentType":5126,
			"count":24,
			"type":"VEC2"
		},
		{
			"bufferView":23,
			"componentType":5126,
			"count":202,
			"max":[
				1,
				3,
				1.3113415775478643e-07
			],
			"min":[
				-1,
				0,
				-0.19205881655216217
			],
			"type":"VEC3"
		},
		{
			"bufferView":24,
			"componentType":5126,
			"count":202,
			"type":"VEC3"
		},
		{
			"bufferView":25,
			"componentType":5126,
			"count":202,
			"type":"VEC2"
		},
		{
			"bufferView":26,
			"componentType":5126,
			"count":202,
			"type":"VEC2"
		},
		{
			"bufferView":27,
			"componentType":5121,
			"count":202,
			"normalized":true,
			"type":"VEC4"
		},
		{
			"bufferView":28,
			"componentType":5123,
			"count":202,
			"normalized":true,
			"type":"VEC4"
		},
		{
			"bufferView":29,
			"componentType":5123,
			"count":450,
			"type":"SCALAR"
		},
		{
			"bufferView":30,
			"componentType":5126,
			"count":36,
			"max":[
				0.49369704723358154,
				2.214435338973999,
				-0.16576535999774933
			],
			"min":[
				-0.4975692331790924,
				1.1451929807662964,
				-0.16576535999774933
			],
			"type":"VEC3"
		},
		{
			"bufferView":31,
			"componentType":5126,
			"count":36,
			"type":"VEC3"
		},
		{
			"bufferView":32,
			"componentType":5126,
			"count":36,
			"type":"VEC2"
		},
		{
			"bufferView":33,
			"componentType":5126,
			"count":36,
			"type":"VEC2"
		},
		{
			"bufferView":34,
			"componentType":5121,
			"count":36,
			"normalized":true,
			"type":"VEC4"
		},
		{
			"bufferView":35,
			"componentType":5123,
			"count":36,
			"normalized":true,
			"type":"VEC4"
		},
		{
			"bufferView":36,
			"componentType":5123,
			"count":54,
			"type":"SCALAR"
		},
		{
			"bufferView":37,
			"componentType":5126,
			"count":602,
			"max":[
				0.5286238193511963,
				2.2444980144500732,
				-0.09910842776298523
			],
			"min":[
				-0.5324132442474365,
				1.0981332063674927,
				-0.23974889516830444
			],
			"type":"VEC3"
		},
		{
			"bufferView":38,
			"componentType":5126,
			"count":602,
			"type":"VEC3"
		},
		{
			"bufferView":39,
			"componentType":5126,
			"count":602,
			"type":"VEC2"
		},
		{
			"bufferView":40,
			"componentType":5126,
			"count":602,
			"type":"VEC2"
		},
		{
			"bufferView":41,
			"componentType":5121,
			"count":602,
			"normalized":true,
			"type":"VEC4"
		},
		{
			"bufferView":42,
			"componentType":5123,
			"count":602,
			"normalized":true,
			"type":"VEC4"
		},
		{
			"bufferView":43,
			"componentType":5123,
			"count":1164,
			"type":"SCALAR"
		},
		{
			"bufferView":44,
			"componentType":5126,
			"count":4,
			"max":[
				0.9872606992721558,
				2.7950658798217773,
				-0.19612467288970947
			],
			"min":[
				-0.9872606992721558,
				0.01495218276977539,
				-0.19612467288970947
			],
			"type":"VEC3"
		},
		{
			"bufferView":45,
			"componentType":5126,
			"count":4,
			"type":"VEC3"
		},
		{
			"bufferView":46,
			"componentType":5126,
			"count":4,
			"type":"VEC2"
		},
		{
			"bufferView":47,
			"componentType":5126,
			"count":4,
			"type":"VEC2"
		},
		{
			"bufferView":48,
			"componentType":5121,
			"count":4,
			"normalized":true,
			"type":"VEC4"
		},
		{
			"bufferView":49,
			"componentType":5123,
			"count":4,
			"normalized":true,
			"type":"VEC4"
		},
		{
			"bufferView":50,
			"componentType":5123,
			"count":6,
			"type":"SCALAR"
		},
		{
			"bufferView":51,
			"componentType":5126,
			"count":20,
			"max":[
				1,
				3.000000476837158,
				-0.2000000923871994
			],
			"min":[
				-1,
				0,
				-0.2000001072883606
			],
			"type":"VEC3"
		},
		{
			"bufferView":52,
			"componentType":5126,
			"count":20,
			"type":"VEC3"
		},
		{
			"bufferView":53,
			"componentType":5126,
			"count":20,
			"type":"VEC2"
		},
		{
			"bufferView":54,
			"componentType":5126,
			"count":20,
			"type":"VEC2"
		},
		{
			"bufferView":55,
			"componentType":5121,
			"count":20,
			"normalized":true,
			"type":"VEC4"
		},
		{
			"bufferView":56,
			"componentType":5123,
			"count":20,
			"normalized":true,
			"type":"VEC4"
		},
		{
			"bufferView":57,
			"componentType":5123,
			"count":48,
			"type":"SCALAR"
		}
	],
	"bufferViews":[
		{
			"buffer":0,
			"byteLength":288,
			"byteOffset":0,
			"target":34962
		},
		{
			"buffer":0,
			"byteLength":288,
			"byteOffset":288,
			"target":34962
		},
		{
			"buffer":0,
			"byteLength":192,
			"byteOffset":576,
			"target":34962
		},
		{
			"buffer":0,
			"byteLength":72,
			"byteOffset":768,
			"target":34963
		},
		{
			"buffer":0,
			"byteLength":288,
			"byteOffset":840,
			"target":34962
		},
		{
			"buffer":0,
			"byteLength":288,
			"byteOffset":1128,
			"target":34962
		},
		{
			"buffer":0,
			"byteLength":192,
			"byteOffset":1416,
			"target":34962
		},
		{
			"buffer":0,
			"byteLength":72,
			"byteOffset":1608,
			"target":34963
		},
		{
			"buffer":0,
			"byteLength":288,
			"byteOffset":1680,
			"target":34962
		},
		{
			"buffer":0,
			"byteLength":288,
			"byteOffset":1968,
			"target":34962
		},
		{
			"buffer":0,
			"byteLength":192,
			"byteOffset":2256,
			"target":34962
		},
		{
			"buffer":0,
			"byteLength":72,
			"byteOffset":2448,
			"target":34963
		},
		{
			"buffer":0,
			"byteLength":288,
			"byteOffset":2520,
			"target":34962
		},
		{
			"buffer":0,
			"byteLength":288,
			"byteOffset":2808,
			"target":34962
		},
		{
			"buffer":0,
			"byteLength":192,
			"byteOffset":3096,
			"target":34962
		},
		{
			"buffer":0,
			"byteLength":72,
			"byteOffset":3288,
			"target":34963
		},
		{
			"buffer":0,
			"byteLength":288,
			"byteOffset":3360,
			"target":34962
		},
		{
			"buffer":0,
			"byteLength":288,
			"byteOffset":3648,
			"target":34962
		},
		{
			"buffer":0,
			"byteLength":192,
			"byteOffset":3936,
			"target":34962
		},
		{
			"buffer":0,
			"byteLength":72,
			"byteOffset":4128,
			"target":34963
		},
		{
			"buffer":0,
			"byteLength":288,
			"byteOffset":4200,
			"target":34962
		},
		{
			"buffer":0,
			"byteLength":288,
			"byteOffset":4488,
			"target":34962
		},
		{
			"buffer":0,
			"byteLength":192,
			"byteOffset":4776,
			"target":34962
		},
		{
			"buffer":0,
			"byteLength":2424,
			"byteOffset":4968,
			"target":34962
		},
		{
			"buffer":0,
			"byteLength":2424,
			"byteOffset":7392,
			"target":34962
		},
		{
			"buffer":0,
			"byteLength":1616,
			"byteOffset":9816,
			"target":34962
		},
		{
			"buffer":0,
			"byteLength":1616,
			"byteOffset":11432,
			"target":34962
		},
		{
			"buffer":0,
			"byteLength":808,
			"byteOffset":13048,
			"target":34962
		},
		{
			"buffer":0,
			"byteLength":1616,
			"byteOffset":13856,
			"target":34962
		},
		{
			"buffer":0,
			"byteLength":900,
			"byteOffset":15472,
			"target":34963
		},
		{
			"buffer":0,
			"byteLength":432,
			"byteOffset":16372,
			"target":34962
		},
		{
			"buffer":0,
			"byteLength":432,
			"byteOffset":16804,
			"target":34962
		},
		{
			"buffer":0,
			"byteLength":288,
			"byteOffset":17236,
			"target":34962
		},
		{
			"buffer":0,
			"byteLength":288,
			"byteOffset":17524,
			"target":34962
		},
		{
			"buffer":0,
			"byteLength":144,
			"byteOffset":17812,
			"target":34962
		},
		{
			"buffer":0,
			"byteLength":288,
			"byteOffset":17956,
			"target":34962
		},
		{
			"buffer":0,
			"byteLength":108,
			"byteOffset":18244,
			"target":34963
		},
		{
			"buffer":0,
			"byteLength":7224,
			"byteOffset":18352,
			"target":34962
		},
		{
			"buffer":0,
			"byteLength":7224,
			"byteOffset":25576,
			"target":34962
		},
		{
			"buffer":0,
			"byteLength":4816,
			"byteOffset":32800,
			"target":34962
		},
		{
			"buffer":0,
			"byteLength":4816,
			"byteOffset":37616,
			"target":34962
		},
		{
			"buffer":0,
			"byteLength":2408,
			"byteOffset":42432,
			"target":34962
		},
		{
			"buffer":0,
			"byteLength":4816,
			"byteOffset":44840,
			"target":34962
		},
		{
			"buffer":0,
			"byteLength":2328,
			"byteOffset":49656,
			"target":34963
		},
		{
			"buffer":0,
			"byteLength":48,
			"byteOffset":51984,
			"target":34962
		},
		{
			"buffer":0,
			"byteLength":48,
			"byteOffset":52032,
			"target":34962
		},
		{
			"buffer":0,
			"byteLength":32,
			"byteOffset":52080,
			"target":34962
		},
		{
			"buffer":0,
			"byteLength":32,
			"byteOffset":52112,
			"target":34962
		},
		{
			"buffer":0,
			"byteLength":16,
			"byteOffset":52144,
			"target":34962
		},
		{
			"buffer":0,
			"byteLength":32,
			"byteOffset":52160,
			"target":34962
		},
		{
			"buffer":0,
			"byteLength":12,
			"byteOffset":52192,
			"target":34963
		},
		{
			"buffer":0,
			"byteLength":240,
			"byteOffset":52204,
			"target":34962
		},
		{
			"buffer":0,
			"byteLength":240,
			"byteOffset":52444,
			"target":34962
		},
		{
			"buffer":0,
			"byteLength":160,
			"byteOffset":52684,
			"target":34962
		},
		{
			"buffer":0,
			"byteLength":160,
			"byteOffset":52844,
			"target":34962
		},
		{
			"buffer":0,
			"byteLength":80,
			"byteOffset":53004,
			"target":34962
		},
		{
			"buffer":0,
			"byteLength":160,
			"byteOffset":53084,
			"target":34962
		},
		{
			"buffer":0,
			"byteLength":96,
			"byteOffset":53244,
			"target":34963
		}
	],
	"samplers":[
		{
			"magFilter":9729,
			"minFilter":9987
		}
	],
	"buffers":[
		{
			"byteLength":53340,
			"uri":"Trim_Window.bin"
		}
	]
}
