{
	"asset":{
		"generator":"Khronos glTF Blender I/O v4.3.47",
		"version":"2.0"
	},
	"scene":0,
	"scenes":[
		{
			"name":"Scene",
			"nodes":[
				3
			]
		}
	],
	"nodes":[
		{
			"mesh":0,
			"name":"Wall_WhiteBrick_90Angle_R_1-convcolonly",
			"rotation":[
				0,
				0.7071068286895752,
				0,
				0.7071068286895752
			]
		},
		{
			"mesh":1,
			"name":"Wall_WhiteBrick_90Angle_R_2-convcolonly",
			"rotation":[
				0,
				0.7071068286895752,
				0,
				0.7071068286895752
			]
		},
		{
			"mesh":2,
			"name":"Wall_WhiteBrick_90Angle_R_3-convcolonly",
			"rotation":[
				0,
				0.7071068286895752,
				0,
				0.7071068286895752
			]
		},
		{
			"children":[
				0,
				1,
				2
			],
			"mesh":3,
			"name":"Wall_WhiteBrick_90Angle_R"
		}
	],
	"materials":[
		{
			"doubleSided":true,
			"name":"Collision",
			"pbrMetallicRoughness":{
				"baseColorFactor":[
					0.036788325756788254,
					0.5504099726676941,
					0.8000074625015259,
					1
				],
				"metallicFactor":0
			}
		},
		{
			"doubleSided":true,
			"name":"MI_WhiteBrick",
			"normalTexture":{
				"index":0
			},
			"pbrMetallicRoughness":{
				"baseColorTexture":{
					"index":1
				},
				"metallicRoughnessTexture":{
					"index":2
				}
			}
		},
		{
			"doubleSided":true,
			"name":"MI_InteriorWall",
			"normalTexture":{
				"index":3
			},
			"pbrMetallicRoughness":{
				"baseColorTexture":{
					"index":4
				},
				"metallicRoughnessTexture":{
					"index":5
				}
			}
		}
	],
	"meshes":[
		{
			"name":"Cube.386",
			"primitives":[
				{
					"attributes":{
						"POSITION":0,
						"NORMAL":1,
						"TEXCOORD_0":2
					},
					"indices":3,
					"material":0
				}
			]
		},
		{
			"name":"Cube.387",
			"primitives":[
				{
					"attributes":{
						"POSITION":4,
						"NORMAL":5,
						"TEXCOORD_0":6
					},
					"indices":7,
					"material":0
				}
			]
		},
		{
			"name":"Cube.388",
			"primitives":[
				{
					"attributes":{
						"POSITION":8,
						"NORMAL":9,
						"TEXCOORD_0":10
					},
					"indices":11,
					"material":0
				}
			]
		},
		{
			"name":"Cube.175",
			"primitives":[
				{
					"attributes":{
						"POSITION":12,
						"NORMAL":13,
						"TEXCOORD_0":14,
						"TEXCOORD_1":15,
						"COLOR_0":16,
						"COLOR_1":17
					},
					"indices":18,
					"material":1
				},
				{
					"attributes":{
						"POSITION":19,
						"NORMAL":20,
						"TEXCOORD_0":21,
						"TEXCOORD_1":22,
						"COLOR_0":23,
						"COLOR_1":24
					},
					"indices":25,
					"material":2
				}
			]
		}
	],
	"textures":[
		{
			"sampler":0,
			"source":0
		},
		{
			"sampler":0,
			"source":1
		},
		{
			"sampler":0,
			"source":2
		},
		{
			"sampler":0,
			"source":3
		},
		{
			"sampler":0,
			"source":4
		},
		{
			"sampler":0,
			"source":5
		}
	],
	"images":[
		{
			"mimeType":"image/png",
			"name":"T_WhiteBrick_Normal",
			"uri":"../../materials/T_WhiteBrick_Normal.png"
		},
		{
			"mimeType":"image/png",
			"name":"T_WhiteBrick_BaseColor",
			"uri":"../../materials/T_WhiteBrick_BaseColor.png"
		},
		{
			"mimeType":"image/png",
			"name":"T_WhiteBrick_ORM",
			"uri":"../../materials/T_WhiteBrick_ORM.png"
		},
		{
			"mimeType":"image/png",
			"name":"T_RedBrick_Normal",
			"uri":"../../materials/T_RedBrick_Normal.png"
		},
		{
			"mimeType":"image/png",
			"name":"T_RedBrick_BaseColor",
			"uri":"../../materials/T_RedBrick_BaseColor.png"
		},
		{
			"mimeType":"image/png",
			"name":"T_RedBrick_ORM",
			"uri":"../../materials/T_RedBrick_ORM.png"
		}
	],
	"accessors":[
		{
			"bufferView":0,
			"componentType":5126,
			"count":24,
			"max":[
				0.7000006437301636,
				3,
				1
			],
			"min":[
				-8.046627044677734e-07,
				0,
				0.800000011920929
			],
			"type":"VEC3"
		},
		{
			"bufferView":1,
			"componentType":5126,
			"count":24,
			"type":"VEC3"
		},
		{
			"bufferView":2,
			"componentType":5126,
			"count":24,
			"type":"VEC2"
		},
		{
			"bufferView":3,
			"componentType":5123,
			"count":36,
			"type":"SCALAR"
		},
		{
			"bufferView":4,
			"componentType":5126,
			"count":24,
			"max":[
				0.19999995827674866,
				3,
				1.0000007152557373
			],
			"min":[
				-2.9802322387695312e-08,
				0,
				0.2999992370605469
			],
			"type":"VEC3"
		},
		{
			"bufferView":5,
			"componentType":5126,
			"count":24,
			"type":"VEC3"
		},
		{
			"bufferView":6,
			"componentType":5126,
			"count":24,
			"type":"VEC2"
		},
		{
			"bufferView":7,
			"componentType":5123,
			"count":36,
			"type":"SCALAR"
		},
		{
			"bufferView":8,
			"componentType":5126,
			"count":24,
			"max":[
				0.574724555015564,
				3,
				0.5
			],
			"min":[
				-8.046627044677734e-07,
				0,
				0.29380297660827637
			],
			"type":"VEC3"
		},
		{
			"bufferView":9,
			"componentType":5126,
			"count":24,
			"type":"VEC3"
		},
		{
			"bufferView":10,
			"componentType":5126,
			"count":24,
			"type":"VEC2"
		},
		{
			"bufferView":11,
			"componentType":5123,
			"count":36,
			"type":"SCALAR"
		},
		{
			"bufferView":12,
			"componentType":5126,
			"count":16,
			"max":[
				1,
				3,
				0
			],
			"min":[
				0.29380297660827637,
				0,
				-0.6000000834465027
			],
			"type":"VEC3"
		},
		{
			"bufferView":13,
			"componentType":5126,
			"count":16,
			"type":"VEC3"
		},
		{
			"bufferView":14,
			"componentType":5126,
			"count":16,
			"type":"VEC2"
		},
		{
			"bufferView":15,
			"componentType":5126,
			"count":16,
			"type":"VEC2"
		},
		{
			"bufferView":16,
			"componentType":5121,
			"count":16,
			"normalized":true,
			"type":"VEC4"
		},
		{
			"bufferView":17,
			"componentType":5123,
			"count":16,
			"normalized":true,
			"type":"VEC4"
		},
		{
			"bufferView":18,
			"componentType":5123,
			"count":24,
			"type":"SCALAR"
		},
		{
			"bufferView":19,
			"componentType":5126,
			"count":10,
			"max":[
				1,
				3.000000476837158,
				-0.2000000923871994
			],
			"min":[
				1,
				0,
				-0.699999988079071
			],
			"type":"VEC3"
		},
		{
			"bufferView":20,
			"componentType":5126,
			"count":10,
			"type":"VEC3"
		},
		{
			"bufferView":21,
			"componentType":5126,
			"count":10,
			"type":"VEC2"
		},
		{
			"bufferView":22,
			"componentType":5126,
			"count":10,
			"type":"VEC2"
		},
		{
			"bufferView":23,
			"componentType":5121,
			"count":10,
			"normalized":true,
			"type":"VEC4"
		},
		{
			"bufferView":24,
			"componentType":5123,
			"count":10,
			"normalized":true,
			"type":"VEC4"
		},
		{
			"bufferView":25,
			"componentType":5123,
			"count":18,
			"type":"SCALAR"
		}
	],
	"bufferViews":[
		{
			"buffer":0,
			"byteLength":288,
			"byteOffset":0,
			"target":34962
		},
		{
			"buffer":0,
			"byteLength":288,
			"byteOffset":288,
			"target":34962
		},
		{
			"buffer":0,
			"byteLength":192,
			"byteOffset":576,
			"target":34962
		},
		{
			"buffer":0,
			"byteLength":72,
			"byteOffset":768,
			"target":34963
		},
		{
			"buffer":0,
			"byteLength":288,
			"byteOffset":840,
			"target":34962
		},
		{
			"buffer":0,
			"byteLength":288,
			"byteOffset":1128,
			"target":34962
		},
		{
			"buffer":0,
			"byteLength":192,
			"byteOffset":1416,
			"target":34962
		},
		{
			"buffer":0,
			"byteLength":72,
			"byteOffset":1608,
			"target":34963
		},
		{
			"buffer":0,
			"byteLength":288,
			"byteOffset":1680,
			"target":34962
		},
		{
			"buffer":0,
			"byteLength":288,
			"byteOffset":1968,
			"target":34962
		},
		{
			"buffer":0,
			"byteLength":192,
			"byteOffset":2256,
			"target":34962
		},
		{
			"buffer":0,
			"byteLength":72,
			"byteOffset":2448,
			"target":34963
		},
		{
			"buffer":0,
			"byteLength":192,
			"byteOffset":2520,
			"target":34962
		},
		{
			"buffer":0,
			"byteLength":192,
			"byteOffset":2712,
			"target":34962
		},
		{
			"buffer":0,
			"byteLength":128,
			"byteOffset":2904,
			"target":34962
		},
		{
			"buffer":0,
			"byteLength":128,
			"byteOffset":3032,
			"target":34962
		},
		{
			"buffer":0,
			"byteLength":64,
			"byteOffset":3160,
			"target":34962
		},
		{
			"buffer":0,
			"byteLength":128,
			"byteOffset":3224,
			"target":34962
		},
		{
			"buffer":0,
			"byteLength":48,
			"byteOffset":3352,
			"target":34963
		},
		{
			"buffer":0,
			"byteLength":120,
			"byteOffset":3400,
			"target":34962
		},
		{
			"buffer":0,
			"byteLength":120,
			"byteOffset":3520,
			"target":34962
		},
		{
			"buffer":0,
			"byteLength":80,
			"byteOffset":3640,
			"target":34962
		},
		{
			"buffer":0,
			"byteLength":80,
			"byteOffset":3720,
			"target":34962
		},
		{
			"buffer":0,
			"byteLength":40,
			"byteOffset":3800,
			"target":34962
		},
		{
			"buffer":0,
			"byteLength":80,
			"byteOffset":3840,
			"target":34962
		},
		{
			"buffer":0,
			"byteLength":36,
			"byteOffset":3920,
			"target":34963
		}
	],
	"samplers":[
		{
			"magFilter":9729,
			"minFilter":9987
		}
	],
	"buffers":[
		{
			"byteLength":3956,
			"uri":"Wall_WhiteBrick_90Angle_R.bin"
		}
	]
}
