{
	"asset":{
		"generator":"Khronos glTF Blender I/O v4.3.47",
		"version":"2.0"
	},
	"scene":0,
	"scenes":[
		{
			"name":"Scene",
			"nodes":[
				2
			]
		}
	],
	"nodes":[
		{
			"mesh":0,
			"name":"WhiteBrick_Window_Center_1-convcolonly"
		},
		{
			"mesh":1,
			"name":"WhiteBrick_Window_Center_2-convcolonly"
		},
		{
			"children":[
				0,
				1
			],
			"mesh":2,
			"name":"WhiteBrick_Window_Center"
		}
	],
	"materials":[
		{
			"doubleSided":true,
			"name":"Collision",
			"pbrMetallicRoughness":{
				"baseColorFactor":[
					0.036788325756788254,
					0.5504099726676941,
					0.8000074625015259,
					1
				],
				"metallicFactor":0
			}
		},
		{
			"doubleSided":true,
			"name":"MI_WhiteBrick",
			"normalTexture":{
				"index":0
			},
			"pbrMetallicRoughness":{
				"baseColorTexture":{
					"index":1
				},
				"metallicRoughnessTexture":{
					"index":2
				}
			}
		},
		{
			"doubleSided":true,
			"name":"MI_Trim_MetalConcrete",
			"normalTexture":{
				"index":3
			},
			"pbrMetallicRoughness":{
				"baseColorTexture":{
					"index":4
				},
				"metallicRoughnessTexture":{
					"index":5
				}
			}
		},
		{
			"alphaMode":"BLEND",
			"doubleSided":true,
			"name":"MI_Glass",
			"pbrMetallicRoughness":{
				"baseColorFactor":[
					0.05215025693178177,
					0.05215025693178177,
					0.05215025693178177,
					0.586363673210144
				],
				"metallicFactor":0,
				"roughnessFactor":0.5
			}
		},
		{
			"doubleSided":true,
			"name":"MI_FakeInterior",
			"pbrMetallicRoughness":{
				"baseColorFactor":[
					0.800000011920929,
					0.800000011920929,
					0.800000011920929,
					1
				],
				"metallicFactor":0,
				"roughnessFactor":0.5
			}
		},
		{
			"doubleSided":true,
			"name":"MI_InteriorWall",
			"normalTexture":{
				"index":6
			},
			"pbrMetallicRoughness":{
				"baseColorTexture":{
					"index":7
				},
				"metallicRoughnessTexture":{
					"index":8
				}
			}
		}
	],
	"meshes":[
		{
			"name":"Cube.413",
			"primitives":[
				{
					"attributes":{
						"POSITION":0,
						"NORMAL":1,
						"TEXCOORD_0":2
					},
					"indices":3,
					"material":0
				}
			]
		},
		{
			"name":"Cube.414",
			"primitives":[
				{
					"attributes":{
						"POSITION":4,
						"NORMAL":5,
						"TEXCOORD_0":6
					},
					"indices":7,
					"material":0
				}
			]
		},
		{
			"name":"Cube.110",
			"primitives":[
				{
					"attributes":{
						"POSITION":8,
						"NORMAL":9,
						"TEXCOORD_0":10,
						"TEXCOORD_1":11,
						"COLOR_0":12,
						"COLOR_1":13
					},
					"indices":14,
					"material":1
				},
				{
					"attributes":{
						"POSITION":15,
						"NORMAL":16,
						"TEXCOORD_0":17,
						"TEXCOORD_1":18,
						"COLOR_0":19,
						"COLOR_1":20
					},
					"indices":21,
					"material":2
				},
				{
					"attributes":{
						"POSITION":22,
						"NORMAL":23,
						"TEXCOORD_0":24,
						"TEXCOORD_1":25,
						"COLOR_0":26,
						"COLOR_1":27
					},
					"indices":28,
					"material":3
				},
				{
					"attributes":{
						"POSITION":29,
						"NORMAL":30,
						"TEXCOORD_0":31,
						"TEXCOORD_1":32,
						"COLOR_0":33,
						"COLOR_1":34
					},
					"indices":35,
					"material":4
				},
				{
					"attributes":{
						"POSITION":36,
						"NORMAL":37,
						"TEXCOORD_0":38,
						"TEXCOORD_1":39,
						"COLOR_0":40,
						"COLOR_1":41
					},
					"indices":42,
					"material":5
				}
			]
		}
	],
	"textures":[
		{
			"sampler":0,
			"source":0
		},
		{
			"sampler":0,
			"source":1
		},
		{
			"sampler":0,
			"source":2
		},
		{
			"sampler":0,
			"source":3
		},
		{
			"sampler":0,
			"source":4
		},
		{
			"sampler":0,
			"source":5
		},
		{
			"sampler":0,
			"source":6
		},
		{
			"sampler":0,
			"source":7
		},
		{
			"sampler":0,
			"source":8
		}
	],
	"images":[
		{
			"mimeType":"image/png",
			"name":"T_WhiteBrick_Normal",
			"uri":"../../materials/T_WhiteBrick_Normal.png"
		},
		{
			"mimeType":"image/png",
			"name":"T_WhiteBrick_BaseColor",
			"uri":"../../materials/T_WhiteBrick_BaseColor.png"
		},
		{
			"mimeType":"image/png",
			"name":"T_WhiteBrick_ORM",
			"uri":"../../materials/T_WhiteBrick_ORM.png"
		},
		{
			"mimeType":"image/png",
			"name":"T_MetalConcrete_Normal",
			"uri":"../../materials/T_MetalConcrete_Normal.png"
		},
		{
			"mimeType":"image/png",
			"name":"T_MetalConcrete_BaseColor",
			"uri":"../../materials/T_MetalConcrete_BaseColor.png"
		},
		{
			"mimeType":"image/png",
			"name":"T_MetalConcrete_ORM",
			"uri":"../../materials/T_MetalConcrete_ORM.png"
		},
		{
			"mimeType":"image/png",
			"name":"T_RedBrick_Normal",
			"uri":"../../materials/T_RedBrick_Normal.png"
		},
		{
			"mimeType":"image/png",
			"name":"T_RedBrick_BaseColor",
			"uri":"../../materials/T_RedBrick_BaseColor.png"
		},
		{
			"mimeType":"image/png",
			"name":"T_RedBrick_ORM",
			"uri":"../../materials/T_RedBrick_ORM.png"
		}
	],
	"accessors":[
		{
			"bufferView":0,
			"componentType":5126,
			"count":24,
			"max":[
				1.007726788520813,
				2.5058753490448,
				-0.19999998807907104
			],
			"min":[
				-1,
				0,
				-0.2476138323545456
			],
			"type":"VEC3"
		},
		{
			"bufferView":1,
			"componentType":5126,
			"count":24,
			"type":"VEC3"
		},
		{
			"bufferView":2,
			"componentType":5126,
			"count":24,
			"type":"VEC2"
		},
		{
			"bufferView":3,
			"componentType":5123,
			"count":36,
			"type":"SCALAR"
		},
		{
			"bufferView":4,
			"componentType":5126,
			"count":24,
			"max":[
				1.0000003576278687,
				4,
				0
			],
			"min":[
				-1.0000003576278687,
				0,
				-0.19999998807907104
			],
			"type":"VEC3"
		},
		{
			"bufferView":5,
			"componentType":5126,
			"count":24,
			"type":"VEC3"
		},
		{
			"bufferView":6,
			"componentType":5126,
			"count":24,
			"type":"VEC2"
		},
		{
			"bufferView":7,
			"componentType":5123,
			"count":36,
			"type":"SCALAR"
		},
		{
			"bufferView":8,
			"componentType":5126,
			"count":8,
			"max":[
				1.0021580457687378,
				4,
				1.3113415775478643e-07
			],
			"min":[
				-1,
				3.246425151824951,
				-0.08153998851776123
			],
			"type":"VEC3"
		},
		{
			"bufferView":9,
			"componentType":5126,
			"count":8,
			"type":"VEC3"
		},
		{
			"bufferView":10,
			"componentType":5126,
			"count":8,
			"type":"VEC2"
		},
		{
			"bufferView":11,
			"componentType":5126,
			"count":8,
			"type":"VEC2"
		},
		{
			"bufferView":12,
			"componentType":5121,
			"count":8,
			"normalized":true,
			"type":"VEC4"
		},
		{
			"bufferView":13,
			"componentType":5123,
			"count":8,
			"normalized":true,
			"type":"VEC4"
		},
		{
			"bufferView":14,
			"componentType":5123,
			"count":12,
			"type":"SCALAR"
		},
		{
			"bufferView":15,
			"componentType":5126,
			"count":392,
			"max":[
				1,
				3.249999761581421,
				0
			],
			"min":[
				-1,
				-0.0005897283554077148,
				-0.2598543167114258
			],
			"type":"VEC3"
		},
		{
			"bufferView":16,
			"componentType":5126,
			"count":392,
			"type":"VEC3"
		},
		{
			"bufferView":17,
			"componentType":5126,
			"count":392,
			"type":"VEC2"
		},
		{
			"bufferView":18,
			"componentType":5126,
			"count":392,
			"type":"VEC2"
		},
		{
			"bufferView":19,
			"componentType":5121,
			"count":392,
			"normalized":true,
			"type":"VEC4"
		},
		{
			"bufferView":20,
			"componentType":5123,
			"count":392,
			"normalized":true,
			"type":"VEC4"
		},
		{
			"bufferView":21,
			"componentType":5123,
			"count":852,
			"type":"SCALAR"
		},
		{
			"bufferView":22,
			"componentType":5126,
			"count":16,
			"max":[
				0.9255115389823914,
				2.430180072784424,
				-0.13533179461956024
			],
			"min":[
				-0.9255115389823914,
				0.041484713554382324,
				-0.1353318989276886
			],
			"type":"VEC3"
		},
		{
			"bufferView":23,
			"componentType":5126,
			"count":16,
			"type":"VEC3"
		},
		{
			"bufferView":24,
			"componentType":5126,
			"count":16,
			"type":"VEC2"
		},
		{
			"bufferView":25,
			"componentType":5126,
			"count":16,
			"type":"VEC2"
		},
		{
			"bufferView":26,
			"componentType":5121,
			"count":16,
			"normalized":true,
			"type":"VEC4"
		},
		{
			"bufferView":27,
			"componentType":5123,
			"count":16,
			"normalized":true,
			"type":"VEC4"
		},
		{
			"bufferView":28,
			"componentType":5123,
			"count":24,
			"type":"SCALAR"
		},
		{
			"bufferView":29,
			"componentType":5126,
			"count":4,
			"max":[
				1,
				2.788115978240967,
				-0.1380426436662674
			],
			"min":[
				-1,
				0.008002042770385742,
				-0.1380426436662674
			],
			"type":"VEC3"
		},
		{
			"bufferView":30,
			"componentType":5126,
			"count":4,
			"type":"VEC3"
		},
		{
			"bufferView":31,
			"componentType":5126,
			"count":4,
			"type":"VEC2"
		},
		{
			"bufferView":32,
			"componentType":5126,
			"count":4,
			"type":"VEC2"
		},
		{
			"bufferView":33,
			"componentType":5121,
			"count":4,
			"normalized":true,
			"type":"VEC4"
		},
		{
			"bufferView":34,
			"componentType":5123,
			"count":4,
			"normalized":true,
			"type":"VEC4"
		},
		{
			"bufferView":35,
			"componentType":5123,
			"count":6,
			"type":"SCALAR"
		},
		{
			"bufferView":36,
			"componentType":5126,
			"count":4,
			"max":[
				1,
				4.000000476837158,
				-0.2000000923871994
			],
			"min":[
				-1,
				2.457792282104492,
				-0.2000000923871994
			],
			"type":"VEC3"
		},
		{
			"bufferView":37,
			"componentType":5126,
			"count":4,
			"type":"VEC3"
		},
		{
			"bufferView":38,
			"componentType":5126,
			"count":4,
			"type":"VEC2"
		},
		{
			"bufferView":39,
			"componentType":5126,
			"count":4,
			"type":"VEC2"
		},
		{
			"bufferView":40,
			"componentType":5121,
			"count":4,
			"normalized":true,
			"type":"VEC4"
		},
		{
			"bufferView":41,
			"componentType":5123,
			"count":4,
			"normalized":true,
			"type":"VEC4"
		},
		{
			"bufferView":42,
			"componentType":5123,
			"count":6,
			"type":"SCALAR"
		}
	],
	"bufferViews":[
		{
			"buffer":0,
			"byteLength":288,
			"byteOffset":0,
			"target":34962
		},
		{
			"buffer":0,
			"byteLength":288,
			"byteOffset":288,
			"target":34962
		},
		{
			"buffer":0,
			"byteLength":192,
			"byteOffset":576,
			"target":34962
		},
		{
			"buffer":0,
			"byteLength":72,
			"byteOffset":768,
			"target":34963
		},
		{
			"buffer":0,
			"byteLength":288,
			"byteOffset":840,
			"target":34962
		},
		{
			"buffer":0,
			"byteLength":288,
			"byteOffset":1128,
			"target":34962
		},
		{
			"buffer":0,
			"byteLength":192,
			"byteOffset":1416,
			"target":34962
		},
		{
			"buffer":0,
			"byteLength":72,
			"byteOffset":1608,
			"target":34963
		},
		{
			"buffer":0,
			"byteLength":96,
			"byteOffset":1680,
			"target":34962
		},
		{
			"buffer":0,
			"byteLength":96,
			"byteOffset":1776,
			"target":34962
		},
		{
			"buffer":0,
			"byteLength":64,
			"byteOffset":1872,
			"target":34962
		},
		{
			"buffer":0,
			"byteLength":64,
			"byteOffset":1936,
			"target":34962
		},
		{
			"buffer":0,
			"byteLength":32,
			"byteOffset":2000,
			"target":34962
		},
		{
			"buffer":0,
			"byteLength":64,
			"byteOffset":2032,
			"target":34962
		},
		{
			"buffer":0,
			"byteLength":24,
			"byteOffset":2096,
			"target":34963
		},
		{
			"buffer":0,
			"byteLength":4704,
			"byteOffset":2120,
			"target":34962
		},
		{
			"buffer":0,
			"byteLength":4704,
			"byteOffset":6824,
			"target":34962
		},
		{
			"buffer":0,
			"byteLength":3136,
			"byteOffset":11528,
			"target":34962
		},
		{
			"buffer":0,
			"byteLength":3136,
			"byteOffset":14664,
			"target":34962
		},
		{
			"buffer":0,
			"byteLength":1568,
			"byteOffset":17800,
			"target":34962
		},
		{
			"buffer":0,
			"byteLength":3136,
			"byteOffset":19368,
			"target":34962
		},
		{
			"buffer":0,
			"byteLength":1704,
			"byteOffset":22504,
			"target":34963
		},
		{
			"buffer":0,
			"byteLength":192,
			"byteOffset":24208,
			"target":34962
		},
		{
			"buffer":0,
			"byteLength":192,
			"byteOffset":24400,
			"target":34962
		},
		{
			"buffer":0,
			"byteLength":128,
			"byteOffset":24592,
			"target":34962
		},
		{
			"buffer":0,
			"byteLength":128,
			"byteOffset":24720,
			"target":34962
		},
		{
			"buffer":0,
			"byteLength":64,
			"byteOffset":24848,
			"target":34962
		},
		{
			"buffer":0,
			"byteLength":128,
			"byteOffset":24912,
			"target":34962
		},
		{
			"buffer":0,
			"byteLength":48,
			"byteOffset":25040,
			"target":34963
		},
		{
			"buffer":0,
			"byteLength":48,
			"byteOffset":25088,
			"target":34962
		},
		{
			"buffer":0,
			"byteLength":48,
			"byteOffset":25136,
			"target":34962
		},
		{
			"buffer":0,
			"byteLength":32,
			"byteOffset":25184,
			"target":34962
		},
		{
			"buffer":0,
			"byteLength":32,
			"byteOffset":25216,
			"target":34962
		},
		{
			"buffer":0,
			"byteLength":16,
			"byteOffset":25248,
			"target":34962
		},
		{
			"buffer":0,
			"byteLength":32,
			"byteOffset":25264,
			"target":34962
		},
		{
			"buffer":0,
			"byteLength":12,
			"byteOffset":25296,
			"target":34963
		},
		{
			"buffer":0,
			"byteLength":48,
			"byteOffset":25308,
			"target":34962
		},
		{
			"buffer":0,
			"byteLength":48,
			"byteOffset":25356,
			"target":34962
		},
		{
			"buffer":0,
			"byteLength":32,
			"byteOffset":25404,
			"target":34962
		},
		{
			"buffer":0,
			"byteLength":32,
			"byteOffset":25436,
			"target":34962
		},
		{
			"buffer":0,
			"byteLength":16,
			"byteOffset":25468,
			"target":34962
		},
		{
			"buffer":0,
			"byteLength":32,
			"byteOffset":25484,
			"target":34962
		},
		{
			"buffer":0,
			"byteLength":12,
			"byteOffset":25516,
			"target":34963
		}
	],
	"samplers":[
		{
			"magFilter":9729,
			"minFilter":9987
		}
	],
	"buffers":[
		{
			"byteLength":25528,
			"uri":"WhiteBrick_Window_Center.bin"
		}
	]
}
