{
	"asset":{
		"generator":"Khronos glTF Blender I/O v4.3.47",
		"version":"2.0"
	},
	"scene":0,
	"scenes":[
		{
			"name":"Scene",
			"nodes":[
				1
			]
		}
	],
	"nodes":[
		{
			"mesh":0,
			"name":"WornBrick_WindowLarge_Top_1-convcolonly"
		},
		{
			"children":[
				0
			],
			"mesh":1,
			"name":"WornBrick_WindowLarge_Top"
		}
	],
	"materials":[
		{
			"doubleSided":true,
			"name":"Collision",
			"pbrMetallicRoughness":{
				"baseColorFactor":[
					0.036788325756788254,
					0.5504099726676941,
					0.8000074625015259,
					1
				],
				"metallicFactor":0
			}
		},
		{
			"doubleSided":true,
			"name":"MI_WornBrick",
			"normalTexture":{
				"index":0
			},
			"pbrMetallicRoughness":{
				"baseColorTexture":{
					"index":1
				},
				"metallicRoughnessTexture":{
					"index":2
				}
			}
		},
		{
			"doubleSided":true,
			"name":"MI_InteriorWall",
			"normalTexture":{
				"index":3
			},
			"pbrMetallicRoughness":{
				"baseColorTexture":{
					"index":4
				},
				"metallicRoughnessTexture":{
					"index":5
				}
			}
		},
		{
			"doubleSided":true,
			"name":"MI_Trim_MetalConcrete",
			"normalTexture":{
				"index":6
			},
			"pbrMetallicRoughness":{
				"baseColorTexture":{
					"index":7
				},
				"metallicRoughnessTexture":{
					"index":8
				}
			}
		},
		{
			"alphaMode":"BLEND",
			"doubleSided":true,
			"name":"MI_Glass",
			"pbrMetallicRoughness":{
				"baseColorFactor":[
					0.05215025693178177,
					0.05215025693178177,
					0.05215025693178177,
					0.586363673210144
				],
				"metallicFactor":0,
				"roughnessFactor":0.5
			}
		},
		{
			"doubleSided":true,
			"name":"MI_FakeInterior",
			"pbrMetallicRoughness":{
				"baseColorFactor":[
					0.800000011920929,
					0.800000011920929,
					0.800000011920929,
					1
				],
				"metallicFactor":0,
				"roughnessFactor":0.5
			}
		},
		{
			"doubleSided":true,
			"name":"MI_Trim_Dark",
			"normalTexture":{
				"index":9
			},
			"pbrMetallicRoughness":{
				"baseColorTexture":{
					"index":10
				},
				"metallicRoughnessTexture":{
					"index":11
				}
			}
		}
	],
	"meshes":[
		{
			"name":"Cube.454",
			"primitives":[
				{
					"attributes":{
						"POSITION":0,
						"NORMAL":1,
						"TEXCOORD_0":2
					},
					"indices":3,
					"material":0
				}
			]
		},
		{
			"name":"Cube.224",
			"primitives":[
				{
					"attributes":{
						"POSITION":4,
						"NORMAL":5,
						"TEXCOORD_0":6,
						"TEXCOORD_1":7,
						"COLOR_0":8
					},
					"indices":9,
					"material":1
				},
				{
					"attributes":{
						"POSITION":10,
						"NORMAL":11,
						"TEXCOORD_0":12,
						"TEXCOORD_1":13,
						"COLOR_0":14
					},
					"indices":15,
					"material":2
				},
				{
					"attributes":{
						"POSITION":16,
						"NORMAL":17,
						"TEXCOORD_0":18,
						"TEXCOORD_1":19,
						"COLOR_0":20
					},
					"indices":21,
					"material":3
				},
				{
					"attributes":{
						"POSITION":22,
						"NORMAL":23,
						"TEXCOORD_0":24,
						"TEXCOORD_1":25,
						"COLOR_0":26
					},
					"indices":27,
					"material":4
				},
				{
					"attributes":{
						"POSITION":28,
						"NORMAL":29,
						"TEXCOORD_0":30,
						"TEXCOORD_1":31,
						"COLOR_0":32
					},
					"indices":33,
					"material":5
				},
				{
					"attributes":{
						"POSITION":34,
						"NORMAL":35,
						"TEXCOORD_0":36,
						"TEXCOORD_1":37,
						"COLOR_0":38
					},
					"indices":39,
					"material":6
				}
			]
		}
	],
	"textures":[
		{
			"sampler":0,
			"source":0
		},
		{
			"sampler":0,
			"source":1
		},
		{
			"sampler":0,
			"source":2
		},
		{
			"sampler":0,
			"source":3
		},
		{
			"sampler":0,
			"source":4
		},
		{
			"sampler":0,
			"source":5
		},
		{
			"sampler":0,
			"source":6
		},
		{
			"sampler":0,
			"source":7
		},
		{
			"sampler":0,
			"source":8
		},
		{
			"sampler":0,
			"source":9
		},
		{
			"sampler":0,
			"source":10
		},
		{
			"sampler":0,
			"source":11
		}
	],
	"images":[
		{
			"mimeType":"image/png",
			"name":"T_WornBrick_Normal",
			"uri":"../../materials/T_WornBrick_Normal.png"
		},
		{
			"mimeType":"image/png",
			"name":"T_WornBrick_BaseColor",
			"uri":"../../materials/T_WornBrick_BaseColor.png"
		},
		{
			"mimeType":"image/png",
			"name":"T_WornBrick_ORM",
			"uri":"../../materials/T_WornBrick_ORM.png"
		},
		{
			"mimeType":"image/png",
			"name":"T_RedBrick_Normal",
			"uri":"../../materials/T_RedBrick_Normal.png"
		},
		{
			"mimeType":"image/png",
			"name":"T_RedBrick_BaseColor",
			"uri":"../../materials/T_RedBrick_BaseColor.png"
		},
		{
			"mimeType":"image/png",
			"name":"T_RedBrick_ORM",
			"uri":"../../materials/T_RedBrick_ORM.png"
		},
		{
			"mimeType":"image/png",
			"name":"T_MetalConcrete_Normal",
			"uri":"../../materials/T_MetalConcrete_Normal.png"
		},
		{
			"mimeType":"image/png",
			"name":"T_MetalConcrete_BaseColor",
			"uri":"../../materials/T_MetalConcrete_BaseColor.png"
		},
		{
			"mimeType":"image/png",
			"name":"T_MetalConcrete_ORM",
			"uri":"../../materials/T_MetalConcrete_ORM.png"
		},
		{
			"mimeType":"image/png",
			"name":"T_Trim_Normal",
			"uri":"../../materials/T_Trim_Normal.png"
		},
		{
			"mimeType":"image/png",
			"name":"T_Trim_BaseColor",
			"uri":"../../materials/T_Trim_BaseColor.png"
		},
		{
			"mimeType":"image/png",
			"name":"T_Trim_ORM",
			"uri":"../../materials/T_Trim_ORM.png"
		}
	],
	"accessors":[
		{
			"bufferView":0,
			"componentType":5126,
			"count":24,
			"max":[
				2.0000007152557373,
				3,
				0
			],
			"min":[
				-2.0000007152557373,
				0,
				-0.19999998807907104
			],
			"type":"VEC3"
		},
		{
			"bufferView":1,
			"componentType":5126,
			"count":24,
			"type":"VEC3"
		},
		{
			"bufferView":2,
			"componentType":5126,
			"count":24,
			"type":"VEC2"
		},
		{
			"bufferView":3,
			"componentType":5123,
			"count":36,
			"type":"SCALAR"
		},
		{
			"bufferView":4,
			"componentType":5126,
			"count":698,
			"max":[
				2,
				3,
				1.3113415775478643e-07
			],
			"min":[
				-2,
				0,
				-0.19305096566677094
			],
			"type":"VEC3"
		},
		{
			"bufferView":5,
			"componentType":5126,
			"count":698,
			"type":"VEC3"
		},
		{
			"bufferView":6,
			"componentType":5126,
			"count":698,
			"type":"VEC2"
		},
		{
			"bufferView":7,
			"componentType":5126,
			"count":698,
			"type":"VEC2"
		},
		{
			"bufferView":8,
			"componentType":5123,
			"count":698,
			"normalized":true,
			"type":"VEC4"
		},
		{
			"bufferView":9,
			"componentType":5123,
			"count":1200,
			"type":"SCALAR"
		},
		{
			"bufferView":10,
			"componentType":5126,
			"count":52,
			"max":[
				2,
				3.000000476837158,
				-0.16928105056285858
			],
			"min":[
				-2,
				0,
				-0.2000000923871994
			],
			"type":"VEC3"
		},
		{
			"bufferView":11,
			"componentType":5126,
			"count":52,
			"type":"VEC3"
		},
		{
			"bufferView":12,
			"componentType":5126,
			"count":52,
			"type":"VEC2"
		},
		{
			"bufferView":13,
			"componentType":5126,
			"count":52,
			"type":"VEC2"
		},
		{
			"bufferView":14,
			"componentType":5123,
			"count":52,
			"normalized":true,
			"type":"VEC4"
		},
		{
			"bufferView":15,
			"componentType":5123,
			"count":96,
			"type":"SCALAR"
		},
		{
			"bufferView":16,
			"componentType":5126,
			"count":1144,
			"max":[
				1.6062995195388794,
				2.4373066425323486,
				-0.15832719206809998
			],
			"min":[
				-1.6011779308319092,
				0.744292140007019,
				-0.18728573620319366
			],
			"type":"VEC3"
		},
		{
			"bufferView":17,
			"componentType":5126,
			"count":1144,
			"type":"VEC3"
		},
		{
			"bufferView":18,
			"componentType":5126,
			"count":1144,
			"type":"VEC2"
		},
		{
			"bufferView":19,
			"componentType":5126,
			"count":1144,
			"type":"VEC2"
		},
		{
			"bufferView":20,
			"componentType":5123,
			"count":1144,
			"normalized":true,
			"type":"VEC4"
		},
		{
			"bufferView":21,
			"componentType":5123,
			"count":2172,
			"type":"SCALAR"
		},
		{
			"bufferView":22,
			"componentType":5126,
			"count":128,
			"max":[
				1.5554184913635254,
				2.385995864868164,
				-0.1872856169939041
			],
			"min":[
				-1.5539188385009766,
				0.7956027388572693,
				-0.18728573620319366
			],
			"type":"VEC3"
		},
		{
			"bufferView":23,
			"componentType":5126,
			"count":128,
			"type":"VEC3"
		},
		{
			"bufferView":24,
			"componentType":5126,
			"count":128,
			"type":"VEC2"
		},
		{
			"bufferView":25,
			"componentType":5126,
			"count":128,
			"type":"VEC2"
		},
		{
			"bufferView":26,
			"componentType":5123,
			"count":128,
			"normalized":true,
			"type":"VEC4"
		},
		{
			"bufferView":27,
			"componentType":5123,
			"count":192,
			"type":"SCALAR"
		},
		{
			"bufferView":28,
			"componentType":5126,
			"count":4,
			"max":[
				1.7589874267578125,
				2.9634039402008057,
				-0.1895076036453247
			],
			"min":[
				-1.7590017318725586,
				0.05677269771695137,
				-0.18950775265693665
			],
			"type":"VEC3"
		},
		{
			"bufferView":29,
			"componentType":5126,
			"count":4,
			"type":"VEC3"
		},
		{
			"bufferView":30,
			"componentType":5126,
			"count":4,
			"type":"VEC2"
		},
		{
			"bufferView":31,
			"componentType":5126,
			"count":4,
			"type":"VEC2"
		},
		{
			"bufferView":32,
			"componentType":5123,
			"count":4,
			"normalized":true,
			"type":"VEC4"
		},
		{
			"bufferView":33,
			"componentType":5123,
			"count":6,
			"type":"SCALAR"
		},
		{
			"bufferView":34,
			"componentType":5126,
			"count":56,
			"max":[
				0.2697819471359253,
				2.9857771396636963,
				0.03469227999448776
			],
			"min":[
				-0.2701606750488281,
				2.4458343982696533,
				-0.017007693648338318
			],
			"type":"VEC3"
		},
		{
			"bufferView":35,
			"componentType":5126,
			"count":56,
			"type":"VEC3"
		},
		{
			"bufferView":36,
			"componentType":5126,
			"count":56,
			"type":"VEC2"
		},
		{
			"bufferView":37,
			"componentType":5126,
			"count":56,
			"type":"VEC2"
		},
		{
			"bufferView":38,
			"componentType":5123,
			"count":56,
			"normalized":true,
			"type":"VEC4"
		},
		{
			"bufferView":39,
			"componentType":5123,
			"count":84,
			"type":"SCALAR"
		}
	],
	"bufferViews":[
		{
			"buffer":0,
			"byteLength":288,
			"byteOffset":0,
			"target":34962
		},
		{
			"buffer":0,
			"byteLength":288,
			"byteOffset":288,
			"target":34962
		},
		{
			"buffer":0,
			"byteLength":192,
			"byteOffset":576,
			"target":34962
		},
		{
			"buffer":0,
			"byteLength":72,
			"byteOffset":768,
			"target":34963
		},
		{
			"buffer":0,
			"byteLength":8376,
			"byteOffset":840,
			"target":34962
		},
		{
			"buffer":0,
			"byteLength":8376,
			"byteOffset":9216,
			"target":34962
		},
		{
			"buffer":0,
			"byteLength":5584,
			"byteOffset":17592,
			"target":34962
		},
		{
			"buffer":0,
			"byteLength":5584,
			"byteOffset":23176,
			"target":34962
		},
		{
			"buffer":0,
			"byteLength":5584,
			"byteOffset":28760,
			"target":34962
		},
		{
			"buffer":0,
			"byteLength":2400,
			"byteOffset":34344,
			"target":34963
		},
		{
			"buffer":0,
			"byteLength":624,
			"byteOffset":36744,
			"target":34962
		},
		{
			"buffer":0,
			"byteLength":624,
			"byteOffset":37368,
			"target":34962
		},
		{
			"buffer":0,
			"byteLength":416,
			"byteOffset":37992,
			"target":34962
		},
		{
			"buffer":0,
			"byteLength":416,
			"byteOffset":38408,
			"target":34962
		},
		{
			"buffer":0,
			"byteLength":416,
			"byteOffset":38824,
			"target":34962
		},
		{
			"buffer":0,
			"byteLength":192,
			"byteOffset":39240,
			"target":34963
		},
		{
			"buffer":0,
			"byteLength":13728,
			"byteOffset":39432,
			"target":34962
		},
		{
			"buffer":0,
			"byteLength":13728,
			"byteOffset":53160,
			"target":34962
		},
		{
			"buffer":0,
			"byteLength":9152,
			"byteOffset":66888,
			"target":34962
		},
		{
			"buffer":0,
			"byteLength":9152,
			"byteOffset":76040,
			"target":34962
		},
		{
			"buffer":0,
			"byteLength":9152,
			"byteOffset":85192,
			"target":34962
		},
		{
			"buffer":0,
			"byteLength":4344,
			"byteOffset":94344,
			"target":34963
		},
		{
			"buffer":0,
			"byteLength":1536,
			"byteOffset":98688,
			"target":34962
		},
		{
			"buffer":0,
			"byteLength":1536,
			"byteOffset":100224,
			"target":34962
		},
		{
			"buffer":0,
			"byteLength":1024,
			"byteOffset":101760,
			"target":34962
		},
		{
			"buffer":0,
			"byteLength":1024,
			"byteOffset":102784,
			"target":34962
		},
		{
			"buffer":0,
			"byteLength":1024,
			"byteOffset":103808,
			"target":34962
		},
		{
			"buffer":0,
			"byteLength":384,
			"byteOffset":104832,
			"target":34963
		},
		{
			"buffer":0,
			"byteLength":48,
			"byteOffset":105216,
			"target":34962
		},
		{
			"buffer":0,
			"byteLength":48,
			"byteOffset":105264,
			"target":34962
		},
		{
			"buffer":0,
			"byteLength":32,
			"byteOffset":105312,
			"target":34962
		},
		{
			"buffer":0,
			"byteLength":32,
			"byteOffset":105344,
			"target":34962
		},
		{
			"buffer":0,
			"byteLength":32,
			"byteOffset":105376,
			"target":34962
		},
		{
			"buffer":0,
			"byteLength":12,
			"byteOffset":105408,
			"target":34963
		},
		{
			"buffer":0,
			"byteLength":672,
			"byteOffset":105420,
			"target":34962
		},
		{
			"buffer":0,
			"byteLength":672,
			"byteOffset":106092,
			"target":34962
		},
		{
			"buffer":0,
			"byteLength":448,
			"byteOffset":106764,
			"target":34962
		},
		{
			"buffer":0,
			"byteLength":448,
			"byteOffset":107212,
			"target":34962
		},
		{
			"buffer":0,
			"byteLength":448,
			"byteOffset":107660,
			"target":34962
		},
		{
			"buffer":0,
			"byteLength":168,
			"byteOffset":108108,
			"target":34963
		}
	],
	"samplers":[
		{
			"magFilter":9729,
			"minFilter":9987
		}
	],
	"buffers":[
		{
			"byteLength":108276,
			"uri":"WornBrick_WindowLarge_Top.bin"
		}
	]
}
