{
	"asset":{
		"generator":"Khronos glTF Blender I/O v4.3.47",
		"version":"2.0"
	},
	"scene":0,
	"scenes":[
		{
			"name":"Scene",
			"nodes":[
				1
			]
		}
	],
	"nodes":[
		{
			"mesh":0,
			"name":"WornBrick_WindowLarge_1-convcolonly"
		},
		{
			"children":[
				0
			],
			"mesh":1,
			"name":"WornBrick_WindowLarge"
		}
	],
	"materials":[
		{
			"doubleSided":true,
			"name":"Collision",
			"pbrMetallicRoughness":{
				"baseColorFactor":[
					0.036788325756788254,
					0.5504099726676941,
					0.8000074625015259,
					1
				],
				"metallicFactor":0
			}
		},
		{
			"doubleSided":true,
			"name":"MI_WornBrick",
			"normalTexture":{
				"index":0
			},
			"pbrMetallicRoughness":{
				"baseColorTexture":{
					"index":1
				},
				"metallicRoughnessTexture":{
					"index":2
				}
			}
		},
		{
			"doubleSided":true,
			"name":"MI_InteriorWall",
			"normalTexture":{
				"index":3
			},
			"pbrMetallicRoughness":{
				"baseColorTexture":{
					"index":4
				},
				"metallicRoughnessTexture":{
					"index":5
				}
			}
		},
		{
			"doubleSided":true,
			"name":"MI_Trim_MetalConcrete",
			"normalTexture":{
				"index":6
			},
			"pbrMetallicRoughness":{
				"baseColorTexture":{
					"index":7
				},
				"metallicRoughnessTexture":{
					"index":8
				}
			}
		},
		{
			"alphaMode":"BLEND",
			"doubleSided":true,
			"name":"MI_Glass",
			"pbrMetallicRoughness":{
				"baseColorFactor":[
					0.05215025693178177,
					0.05215025693178177,
					0.05215025693178177,
					0.586363673210144
				],
				"metallicFactor":0,
				"roughnessFactor":0.5
			}
		},
		{
			"doubleSided":true,
			"name":"MI_FakeInterior",
			"pbrMetallicRoughness":{
				"baseColorFactor":[
					0.800000011920929,
					0.800000011920929,
					0.800000011920929,
					1
				],
				"metallicFactor":0,
				"roughnessFactor":0.5
			}
		}
	],
	"meshes":[
		{
			"name":"Cube.452",
			"primitives":[
				{
					"attributes":{
						"POSITION":0,
						"NORMAL":1,
						"TEXCOORD_0":2
					},
					"indices":3,
					"material":0
				}
			]
		},
		{
			"name":"Cube.109",
			"primitives":[
				{
					"attributes":{
						"POSITION":4,
						"NORMAL":5,
						"TEXCOORD_0":6,
						"TEXCOORD_1":7,
						"COLOR_0":8
					},
					"indices":9,
					"material":1
				},
				{
					"attributes":{
						"POSITION":10,
						"NORMAL":11,
						"TEXCOORD_0":12,
						"TEXCOORD_1":13,
						"COLOR_0":14
					},
					"indices":15,
					"material":2
				},
				{
					"attributes":{
						"POSITION":16,
						"NORMAL":17,
						"TEXCOORD_0":18,
						"TEXCOORD_1":19,
						"COLOR_0":20
					},
					"indices":21,
					"material":3
				},
				{
					"attributes":{
						"POSITION":22,
						"NORMAL":23,
						"TEXCOORD_0":24,
						"TEXCOORD_1":25,
						"COLOR_0":26
					},
					"indices":27,
					"material":4
				},
				{
					"attributes":{
						"POSITION":28,
						"NORMAL":29,
						"TEXCOORD_0":30,
						"TEXCOORD_1":31,
						"COLOR_0":32
					},
					"indices":33,
					"material":5
				}
			]
		}
	],
	"textures":[
		{
			"sampler":0,
			"source":0
		},
		{
			"sampler":0,
			"source":1
		},
		{
			"sampler":0,
			"source":2
		},
		{
			"sampler":0,
			"source":3
		},
		{
			"sampler":0,
			"source":4
		},
		{
			"sampler":0,
			"source":5
		},
		{
			"sampler":0,
			"source":6
		},
		{
			"sampler":0,
			"source":7
		},
		{
			"sampler":0,
			"source":8
		}
	],
	"images":[
		{
			"mimeType":"image/png",
			"name":"T_WornBrick_Normal",
			"uri":"../../materials/T_WornBrick_Normal.png"
		},
		{
			"mimeType":"image/png",
			"name":"T_WornBrick_BaseColor",
			"uri":"../../materials/T_WornBrick_BaseColor.png"
		},
		{
			"mimeType":"image/png",
			"name":"T_WornBrick_ORM",
			"uri":"../../materials/T_WornBrick_ORM.png"
		},
		{
			"mimeType":"image/png",
			"name":"T_RedBrick_Normal",
			"uri":"../../materials/T_RedBrick_Normal.png"
		},
		{
			"mimeType":"image/png",
			"name":"T_RedBrick_BaseColor",
			"uri":"../../materials/T_RedBrick_BaseColor.png"
		},
		{
			"mimeType":"image/png",
			"name":"T_RedBrick_ORM",
			"uri":"../../materials/T_RedBrick_ORM.png"
		},
		{
			"mimeType":"image/png",
			"name":"T_MetalConcrete_Normal",
			"uri":"../../materials/T_MetalConcrete_Normal.png"
		},
		{
			"mimeType":"image/png",
			"name":"T_MetalConcrete_BaseColor",
			"uri":"../../materials/T_MetalConcrete_BaseColor.png"
		},
		{
			"mimeType":"image/png",
			"name":"T_MetalConcrete_ORM",
			"uri":"../../materials/T_MetalConcrete_ORM.png"
		}
	],
	"accessors":[
		{
			"bufferView":0,
			"componentType":5126,
			"count":24,
			"max":[
				2.0000007152557373,
				3,
				0
			],
			"min":[
				-2.0000007152557373,
				0,
				-0.19999998807907104
			],
			"type":"VEC3"
		},
		{
			"bufferView":1,
			"componentType":5126,
			"count":24,
			"type":"VEC3"
		},
		{
			"bufferView":2,
			"componentType":5126,
			"count":24,
			"type":"VEC2"
		},
		{
			"bufferView":3,
			"componentType":5123,
			"count":36,
			"type":"SCALAR"
		},
		{
			"bufferView":4,
			"componentType":5126,
			"count":706,
			"max":[
				2,
				3,
				1.3113415775478643e-07
			],
			"min":[
				-2,
				0,
				-0.19305096566677094
			],
			"type":"VEC3"
		},
		{
			"bufferView":5,
			"componentType":5126,
			"count":706,
			"type":"VEC3"
		},
		{
			"bufferView":6,
			"componentType":5126,
			"count":706,
			"type":"VEC2"
		},
		{
			"bufferView":7,
			"componentType":5126,
			"count":706,
			"type":"VEC2"
		},
		{
			"bufferView":8,
			"componentType":5123,
			"count":706,
			"normalized":true,
			"type":"VEC4"
		},
		{
			"bufferView":9,
			"componentType":5123,
			"count":1212,
			"type":"SCALAR"
		},
		{
			"bufferView":10,
			"componentType":5126,
			"count":52,
			"max":[
				2,
				3.000000476837158,
				-0.16928105056285858
			],
			"min":[
				-2,
				0,
				-0.2000000923871994
			],
			"type":"VEC3"
		},
		{
			"bufferView":11,
			"componentType":5126,
			"count":52,
			"type":"VEC3"
		},
		{
			"bufferView":12,
			"componentType":5126,
			"count":52,
			"type":"VEC2"
		},
		{
			"bufferView":13,
			"componentType":5126,
			"count":52,
			"type":"VEC2"
		},
		{
			"bufferView":14,
			"componentType":5123,
			"count":52,
			"normalized":true,
			"type":"VEC4"
		},
		{
			"bufferView":15,
			"componentType":5123,
			"count":96,
			"type":"SCALAR"
		},
		{
			"bufferView":16,
			"componentType":5126,
			"count":1144,
			"max":[
				1.6062995195388794,
				2.4373066425323486,
				-0.15832719206809998
			],
			"min":[
				-1.6011779308319092,
				0.744292140007019,
				-0.18728573620319366
			],
			"type":"VEC3"
		},
		{
			"bufferView":17,
			"componentType":5126,
			"count":1144,
			"type":"VEC3"
		},
		{
			"bufferView":18,
			"componentType":5126,
			"count":1144,
			"type":"VEC2"
		},
		{
			"bufferView":19,
			"componentType":5126,
			"count":1144,
			"type":"VEC2"
		},
		{
			"bufferView":20,
			"componentType":5123,
			"count":1144,
			"normalized":true,
			"type":"VEC4"
		},
		{
			"bufferView":21,
			"componentType":5123,
			"count":2172,
			"type":"SCALAR"
		},
		{
			"bufferView":22,
			"componentType":5126,
			"count":128,
			"max":[
				1.5554184913635254,
				2.385995864868164,
				-0.1872856169939041
			],
			"min":[
				-1.5539188385009766,
				0.7956027388572693,
				-0.18728573620319366
			],
			"type":"VEC3"
		},
		{
			"bufferView":23,
			"componentType":5126,
			"count":128,
			"type":"VEC3"
		},
		{
			"bufferView":24,
			"componentType":5126,
			"count":128,
			"type":"VEC2"
		},
		{
			"bufferView":25,
			"componentType":5126,
			"count":128,
			"type":"VEC2"
		},
		{
			"bufferView":26,
			"componentType":5123,
			"count":128,
			"normalized":true,
			"type":"VEC4"
		},
		{
			"bufferView":27,
			"componentType":5123,
			"count":192,
			"type":"SCALAR"
		},
		{
			"bufferView":28,
			"componentType":5126,
			"count":4,
			"max":[
				1.7589874267578125,
				2.9634039402008057,
				-0.1895076036453247
			],
			"min":[
				-1.7590017318725586,
				0.05677269771695137,
				-0.18950775265693665
			],
			"type":"VEC3"
		},
		{
			"bufferView":29,
			"componentType":5126,
			"count":4,
			"type":"VEC3"
		},
		{
			"bufferView":30,
			"componentType":5126,
			"count":4,
			"type":"VEC2"
		},
		{
			"bufferView":31,
			"componentType":5126,
			"count":4,
			"type":"VEC2"
		},
		{
			"bufferView":32,
			"componentType":5123,
			"count":4,
			"normalized":true,
			"type":"VEC4"
		},
		{
			"bufferView":33,
			"componentType":5123,
			"count":6,
			"type":"SCALAR"
		}
	],
	"bufferViews":[
		{
			"buffer":0,
			"byteLength":288,
			"byteOffset":0,
			"target":34962
		},
		{
			"buffer":0,
			"byteLength":288,
			"byteOffset":288,
			"target":34962
		},
		{
			"buffer":0,
			"byteLength":192,
			"byteOffset":576,
			"target":34962
		},
		{
			"buffer":0,
			"byteLength":72,
			"byteOffset":768,
			"target":34963
		},
		{
			"buffer":0,
			"byteLength":8472,
			"byteOffset":840,
			"target":34962
		},
		{
			"buffer":0,
			"byteLength":8472,
			"byteOffset":9312,
			"target":34962
		},
		{
			"buffer":0,
			"byteLength":5648,
			"byteOffset":17784,
			"target":34962
		},
		{
			"buffer":0,
			"byteLength":5648,
			"byteOffset":23432,
			"target":34962
		},
		{
			"buffer":0,
			"byteLength":5648,
			"byteOffset":29080,
			"target":34962
		},
		{
			"buffer":0,
			"byteLength":2424,
			"byteOffset":34728,
			"target":34963
		},
		{
			"buffer":0,
			"byteLength":624,
			"byteOffset":37152,
			"target":34962
		},
		{
			"buffer":0,
			"byteLength":624,
			"byteOffset":37776,
			"target":34962
		},
		{
			"buffer":0,
			"byteLength":416,
			"byteOffset":38400,
			"target":34962
		},
		{
			"buffer":0,
			"byteLength":416,
			"byteOffset":38816,
			"target":34962
		},
		{
			"buffer":0,
			"byteLength":416,
			"byteOffset":39232,
			"target":34962
		},
		{
			"buffer":0,
			"byteLength":192,
			"byteOffset":39648,
			"target":34963
		},
		{
			"buffer":0,
			"byteLength":13728,
			"byteOffset":39840,
			"target":34962
		},
		{
			"buffer":0,
			"byteLength":13728,
			"byteOffset":53568,
			"target":34962
		},
		{
			"buffer":0,
			"byteLength":9152,
			"byteOffset":67296,
			"target":34962
		},
		{
			"buffer":0,
			"byteLength":9152,
			"byteOffset":76448,
			"target":34962
		},
		{
			"buffer":0,
			"byteLength":9152,
			"byteOffset":85600,
			"target":34962
		},
		{
			"buffer":0,
			"byteLength":4344,
			"byteOffset":94752,
			"target":34963
		},
		{
			"buffer":0,
			"byteLength":1536,
			"byteOffset":99096,
			"target":34962
		},
		{
			"buffer":0,
			"byteLength":1536,
			"byteOffset":100632,
			"target":34962
		},
		{
			"buffer":0,
			"byteLength":1024,
			"byteOffset":102168,
			"target":34962
		},
		{
			"buffer":0,
			"byteLength":1024,
			"byteOffset":103192,
			"target":34962
		},
		{
			"buffer":0,
			"byteLength":1024,
			"byteOffset":104216,
			"target":34962
		},
		{
			"buffer":0,
			"byteLength":384,
			"byteOffset":105240,
			"target":34963
		},
		{
			"buffer":0,
			"byteLength":48,
			"byteOffset":105624,
			"target":34962
		},
		{
			"buffer":0,
			"byteLength":48,
			"byteOffset":105672,
			"target":34962
		},
		{
			"buffer":0,
			"byteLength":32,
			"byteOffset":105720,
			"target":34962
		},
		{
			"buffer":0,
			"byteLength":32,
			"byteOffset":105752,
			"target":34962
		},
		{
			"buffer":0,
			"byteLength":32,
			"byteOffset":105784,
			"target":34962
		},
		{
			"buffer":0,
			"byteLength":12,
			"byteOffset":105816,
			"target":34963
		}
	],
	"samplers":[
		{
			"magFilter":9729,
			"minFilter":9987
		}
	],
	"buffers":[
		{
			"byteLength":105828,
			"uri":"WornBrick_WindowLarge.bin"
		}
	]
}
