{
	"asset":{
		"generator":"Khronos glTF Blender I/O v4.3.47",
		"version":"2.0"
	},
	"scene":0,
	"scenes":[
		{
			"name":"Scene",
			"nodes":[
				1
			]
		}
	],
	"nodes":[
		{
			"mesh":0,
			"name":"WornBrick_WindowTriple_1-convcolonly"
		},
		{
			"children":[
				0
			],
			"mesh":1,
			"name":"WornBrick_WindowTriple"
		}
	],
	"materials":[
		{
			"doubleSided":true,
			"name":"Collision",
			"pbrMetallicRoughness":{
				"baseColorFactor":[
					0.036788325756788254,
					0.5504099726676941,
					0.8000074625015259,
					1
				],
				"metallicFactor":0
			}
		},
		{
			"doubleSided":true,
			"name":"MI_WornBrick",
			"normalTexture":{
				"index":0
			},
			"pbrMetallicRoughness":{
				"baseColorTexture":{
					"index":1
				},
				"metallicRoughnessTexture":{
					"index":2
				}
			}
		},
		{
			"doubleSided":true,
			"name":"MI_Trim_MetalConcrete",
			"normalTexture":{
				"index":3
			},
			"pbrMetallicRoughness":{
				"baseColorTexture":{
					"index":4
				},
				"metallicRoughnessTexture":{
					"index":5
				}
			}
		},
		{
			"alphaMode":"BLEND",
			"doubleSided":true,
			"name":"MI_Glass",
			"pbrMetallicRoughness":{
				"baseColorFactor":[
					0.05215025693178177,
					0.05215025693178177,
					0.05215025693178177,
					0.586363673210144
				],
				"metallicFactor":0,
				"roughnessFactor":0.5
			}
		},
		{
			"doubleSided":true,
			"name":"MI_FakeInterior",
			"pbrMetallicRoughness":{
				"baseColorFactor":[
					0.800000011920929,
					0.800000011920929,
					0.800000011920929,
					1
				],
				"metallicFactor":0,
				"roughnessFactor":0.5
			}
		},
		{
			"doubleSided":true,
			"name":"MI_InteriorWall",
			"normalTexture":{
				"index":6
			},
			"pbrMetallicRoughness":{
				"baseColorTexture":{
					"index":7
				},
				"metallicRoughnessTexture":{
					"index":8
				}
			}
		}
	],
	"meshes":[
		{
			"name":"Cube.453",
			"primitives":[
				{
					"attributes":{
						"POSITION":0,
						"NORMAL":1,
						"TEXCOORD_0":2
					},
					"indices":3,
					"material":0
				}
			]
		},
		{
			"name":"Cube.064",
			"primitives":[
				{
					"attributes":{
						"POSITION":4,
						"NORMAL":5,
						"TEXCOORD_0":6,
						"TEXCOORD_1":7,
						"COLOR_0":8
					},
					"indices":9,
					"material":1
				},
				{
					"attributes":{
						"POSITION":10,
						"NORMAL":11,
						"TEXCOORD_0":12,
						"TEXCOORD_1":13,
						"COLOR_0":14
					},
					"indices":15,
					"material":2
				},
				{
					"attributes":{
						"POSITION":16,
						"NORMAL":17,
						"TEXCOORD_0":18,
						"TEXCOORD_1":19,
						"COLOR_0":20
					},
					"indices":21,
					"material":3
				},
				{
					"attributes":{
						"POSITION":22,
						"NORMAL":23,
						"TEXCOORD_0":24,
						"TEXCOORD_1":25,
						"COLOR_0":26
					},
					"indices":27,
					"material":4
				},
				{
					"attributes":{
						"POSITION":28,
						"NORMAL":29,
						"TEXCOORD_0":30,
						"TEXCOORD_1":31,
						"COLOR_0":32
					},
					"indices":33,
					"material":5
				}
			]
		}
	],
	"textures":[
		{
			"sampler":0,
			"source":0
		},
		{
			"sampler":0,
			"source":1
		},
		{
			"sampler":0,
			"source":2
		},
		{
			"sampler":0,
			"source":3
		},
		{
			"sampler":0,
			"source":4
		},
		{
			"sampler":0,
			"source":5
		},
		{
			"sampler":0,
			"source":6
		},
		{
			"sampler":0,
			"source":7
		},
		{
			"sampler":0,
			"source":8
		}
	],
	"images":[
		{
			"mimeType":"image/png",
			"name":"T_WornBrick_Normal",
			"uri":"../../materials/T_WornBrick_Normal.png"
		},
		{
			"mimeType":"image/png",
			"name":"T_WornBrick_BaseColor",
			"uri":"../../materials/T_WornBrick_BaseColor.png"
		},
		{
			"mimeType":"image/png",
			"name":"T_WornBrick_ORM",
			"uri":"../../materials/T_WornBrick_ORM.png"
		},
		{
			"mimeType":"image/png",
			"name":"T_MetalConcrete_Normal",
			"uri":"../../materials/T_MetalConcrete_Normal.png"
		},
		{
			"mimeType":"image/png",
			"name":"T_MetalConcrete_BaseColor",
			"uri":"../../materials/T_MetalConcrete_BaseColor.png"
		},
		{
			"mimeType":"image/png",
			"name":"T_MetalConcrete_ORM",
			"uri":"../../materials/T_MetalConcrete_ORM.png"
		},
		{
			"mimeType":"image/png",
			"name":"T_RedBrick_Normal",
			"uri":"../../materials/T_RedBrick_Normal.png"
		},
		{
			"mimeType":"image/png",
			"name":"T_RedBrick_BaseColor",
			"uri":"../../materials/T_RedBrick_BaseColor.png"
		},
		{
			"mimeType":"image/png",
			"name":"T_RedBrick_ORM",
			"uri":"../../materials/T_RedBrick_ORM.png"
		}
	],
	"accessors":[
		{
			"bufferView":0,
			"componentType":5126,
			"count":24,
			"max":[
				2.0000007152557373,
				3,
				0
			],
			"min":[
				-2.0000007152557373,
				0,
				-0.19999998807907104
			],
			"type":"VEC3"
		},
		{
			"bufferView":1,
			"componentType":5126,
			"count":24,
			"type":"VEC3"
		},
		{
			"bufferView":2,
			"componentType":5126,
			"count":24,
			"type":"VEC2"
		},
		{
			"bufferView":3,
			"componentType":5123,
			"count":36,
			"type":"SCALAR"
		},
		{
			"bufferView":4,
			"componentType":5126,
			"count":253,
			"max":[
				2,
				3,
				1.3113415775478643e-07
			],
			"min":[
				-2,
				0,
				-0.1819331794977188
			],
			"type":"VEC3"
		},
		{
			"bufferView":5,
			"componentType":5126,
			"count":253,
			"type":"VEC3"
		},
		{
			"bufferView":6,
			"componentType":5126,
			"count":253,
			"type":"VEC2"
		},
		{
			"bufferView":7,
			"componentType":5126,
			"count":253,
			"type":"VEC2"
		},
		{
			"bufferView":8,
			"componentType":5123,
			"count":253,
			"normalized":true,
			"type":"VEC4"
		},
		{
			"bufferView":9,
			"componentType":5123,
			"count":612,
			"type":"SCALAR"
		},
		{
			"bufferView":10,
			"componentType":5126,
			"count":672,
			"max":[
				1.2716801166534424,
				2.4301576614379883,
				-0.14494656026363373
			],
			"min":[
				-1.271918773651123,
				0.7431448101997375,
				-0.22218744456768036
			],
			"type":"VEC3"
		},
		{
			"bufferView":11,
			"componentType":5126,
			"count":672,
			"type":"VEC3"
		},
		{
			"bufferView":12,
			"componentType":5126,
			"count":672,
			"type":"VEC2"
		},
		{
			"bufferView":13,
			"componentType":5126,
			"count":672,
			"type":"VEC2"
		},
		{
			"bufferView":14,
			"componentType":5123,
			"count":672,
			"normalized":true,
			"type":"VEC4"
		},
		{
			"bufferView":15,
			"componentType":5123,
			"count":1260,
			"type":"SCALAR"
		},
		{
			"bufferView":16,
			"componentType":5126,
			"count":36,
			"max":[
				1.213590383529663,
				2.3691329956054688,
				-0.18356700241565704
			],
			"min":[
				-1.2138291597366333,
				0.8126247525215149,
				-0.18356700241565704
			],
			"type":"VEC3"
		},
		{
			"bufferView":17,
			"componentType":5126,
			"count":36,
			"type":"VEC3"
		},
		{
			"bufferView":18,
			"componentType":5126,
			"count":36,
			"type":"VEC2"
		},
		{
			"bufferView":19,
			"componentType":5126,
			"count":36,
			"type":"VEC2"
		},
		{
			"bufferView":20,
			"componentType":5123,
			"count":36,
			"normalized":true,
			"type":"VEC4"
		},
		{
			"bufferView":21,
			"componentType":5123,
			"count":72,
			"type":"SCALAR"
		},
		{
			"bufferView":22,
			"componentType":5126,
			"count":4,
			"max":[
				1.7589874267578125,
				2.9634039402008057,
				-0.1895076036453247
			],
			"min":[
				-1.7590017318725586,
				0.05677269771695137,
				-0.18950775265693665
			],
			"type":"VEC3"
		},
		{
			"bufferView":23,
			"componentType":5126,
			"count":4,
			"type":"VEC3"
		},
		{
			"bufferView":24,
			"componentType":5126,
			"count":4,
			"type":"VEC2"
		},
		{
			"bufferView":25,
			"componentType":5126,
			"count":4,
			"type":"VEC2"
		},
		{
			"bufferView":26,
			"componentType":5123,
			"count":4,
			"normalized":true,
			"type":"VEC4"
		},
		{
			"bufferView":27,
			"componentType":5123,
			"count":6,
			"type":"SCALAR"
		},
		{
			"bufferView":28,
			"componentType":5126,
			"count":100,
			"max":[
				2,
				3.000000476837158,
				-0.16928105056285858
			],
			"min":[
				-2,
				0,
				-0.2000000923871994
			],
			"type":"VEC3"
		},
		{
			"bufferView":29,
			"componentType":5126,
			"count":100,
			"type":"VEC3"
		},
		{
			"bufferView":30,
			"componentType":5126,
			"count":100,
			"type":"VEC2"
		},
		{
			"bufferView":31,
			"componentType":5126,
			"count":100,
			"type":"VEC2"
		},
		{
			"bufferView":32,
			"componentType":5123,
			"count":100,
			"normalized":true,
			"type":"VEC4"
		},
		{
			"bufferView":33,
			"componentType":5123,
			"count":240,
			"type":"SCALAR"
		}
	],
	"bufferViews":[
		{
			"buffer":0,
			"byteLength":288,
			"byteOffset":0,
			"target":34962
		},
		{
			"buffer":0,
			"byteLength":288,
			"byteOffset":288,
			"target":34962
		},
		{
			"buffer":0,
			"byteLength":192,
			"byteOffset":576,
			"target":34962
		},
		{
			"buffer":0,
			"byteLength":72,
			"byteOffset":768,
			"target":34963
		},
		{
			"buffer":0,
			"byteLength":3036,
			"byteOffset":840,
			"target":34962
		},
		{
			"buffer":0,
			"byteLength":3036,
			"byteOffset":3876,
			"target":34962
		},
		{
			"buffer":0,
			"byteLength":2024,
			"byteOffset":6912,
			"target":34962
		},
		{
			"buffer":0,
			"byteLength":2024,
			"byteOffset":8936,
			"target":34962
		},
		{
			"buffer":0,
			"byteLength":2024,
			"byteOffset":10960,
			"target":34962
		},
		{
			"buffer":0,
			"byteLength":1224,
			"byteOffset":12984,
			"target":34963
		},
		{
			"buffer":0,
			"byteLength":8064,
			"byteOffset":14208,
			"target":34962
		},
		{
			"buffer":0,
			"byteLength":8064,
			"byteOffset":22272,
			"target":34962
		},
		{
			"buffer":0,
			"byteLength":5376,
			"byteOffset":30336,
			"target":34962
		},
		{
			"buffer":0,
			"byteLength":5376,
			"byteOffset":35712,
			"target":34962
		},
		{
			"buffer":0,
			"byteLength":5376,
			"byteOffset":41088,
			"target":34962
		},
		{
			"buffer":0,
			"byteLength":2520,
			"byteOffset":46464,
			"target":34963
		},
		{
			"buffer":0,
			"byteLength":432,
			"byteOffset":48984,
			"target":34962
		},
		{
			"buffer":0,
			"byteLength":432,
			"byteOffset":49416,
			"target":34962
		},
		{
			"buffer":0,
			"byteLength":288,
			"byteOffset":49848,
			"target":34962
		},
		{
			"buffer":0,
			"byteLength":288,
			"byteOffset":50136,
			"target":34962
		},
		{
			"buffer":0,
			"byteLength":288,
			"byteOffset":50424,
			"target":34962
		},
		{
			"buffer":0,
			"byteLength":144,
			"byteOffset":50712,
			"target":34963
		},
		{
			"buffer":0,
			"byteLength":48,
			"byteOffset":50856,
			"target":34962
		},
		{
			"buffer":0,
			"byteLength":48,
			"byteOffset":50904,
			"target":34962
		},
		{
			"buffer":0,
			"byteLength":32,
			"byteOffset":50952,
			"target":34962
		},
		{
			"buffer":0,
			"byteLength":32,
			"byteOffset":50984,
			"target":34962
		},
		{
			"buffer":0,
			"byteLength":32,
			"byteOffset":51016,
			"target":34962
		},
		{
			"buffer":0,
			"byteLength":12,
			"byteOffset":51048,
			"target":34963
		},
		{
			"buffer":0,
			"byteLength":1200,
			"byteOffset":51060,
			"target":34962
		},
		{
			"buffer":0,
			"byteLength":1200,
			"byteOffset":52260,
			"target":34962
		},
		{
			"buffer":0,
			"byteLength":800,
			"byteOffset":53460,
			"target":34962
		},
		{
			"buffer":0,
			"byteLength":800,
			"byteOffset":54260,
			"target":34962
		},
		{
			"buffer":0,
			"byteLength":800,
			"byteOffset":55060,
			"target":34962
		},
		{
			"buffer":0,
			"byteLength":480,
			"byteOffset":55860,
			"target":34963
		}
	],
	"samplers":[
		{
			"magFilter":9729,
			"minFilter":9987
		}
	],
	"buffers":[
		{
			"byteLength":56340,
			"uri":"WornBrick_WindowTriple.bin"
		}
	]
}
