{
	"asset":{
		"generator":"Khronos glTF Blender I/O v4.4.56",
		"version":"2.0"
	},
	"extensionsUsed":[
		"KHR_materials_specular",
		"KHR_materials_ior"
	],
	"scene":0,
	"scenes":[
		{
			"name":"Scene",
			"nodes":[
				0,
				1,
				2
			]
		}
	],
	"nodes":[
		{
			"mesh":0,
			"name":"Cube",
			"rotation":[
				0,
				0.002414154587313533,
				0,
				0.999997079372406
			],
			"scale":[
				0.12490037083625793,
				0.05175964534282684,
				1.0777572393417358
			],
			"translation":[
				0.3542912006378174,
				0,
				-0.0007108966819941998
			]
		},
		{
			"mesh":1,
			"name":"Cube.012",
			"rotation":[
				0,
				0.7071068286895752,
				0,
				0.7071068286895752
			],
			"scale":[
				0.03667199984192848,
				0.07581932097673416,
				0.7748259902000427
			],
			"translation":[
				1.1407500505447388,
				-0.12324904650449753,
				0.6584732532501221
			]
		},
		{
			"mesh":2,
			"name":"Cylinder.010",
			"rotation":[
				-1,
				0,
				0,
				4.371138828673793e-08
			],
			"scale":[
				0.019999999552965164,
				0.019999999552965164,
				0.019999999552965164
			],
			"translation":[
				0.37244752049446106,
				0.05112910270690918,
				-0.6895762085914612
			]
		}
	],
	"materials":[
		{
			"doubleSided":true,
			"extensions":{
				"KHR_materials_specular":{
					"specularTexture":{
						"index":0
					}
				}
			},
			"name":"WoodPlanks",
			"normalTexture":{
				"index":1
			},
			"pbrMetallicRoughness":{
				"baseColorTexture":{
					"index":2
				},
				"metallicFactor":0,
				"roughnessFactor":0.5
			}
		},
		{
			"doubleSided":true,
			"extensions":{
				"KHR_materials_specular":{
					"specularColorFactor":[
						2.0,
						2.0,
						2.0
					]
				},
				"KHR_materials_ior":{
					"ior":1.4500000476837158
				}
			},
			"name":"M_Metal",
			"normalTexture":{
				"index":3,
				"scale":0.4000000059604645,
				"texCoord":1
			},
			"pbrMetallicRoughness":{
				"baseColorTexture":{
					"index":4,
					"texCoord":1
				},
				"metallicFactor":0,
				"metallicRoughnessTexture":{
					"index":5,
					"texCoord":1
				}
			}
		},
		{
			"doubleSided":true,
			"name":"Frozen white metal",
			"normalTexture":{
				"index":6,
				"texCoord":1
			},
			"pbrMetallicRoughness":{
				"baseColorTexture":{
					"index":7,
					"texCoord":1
				},
				"metallicRoughnessTexture":{
					"index":8,
					"texCoord":1
				}
			}
		}
	],
	"meshes":[
		{
			"name":"Cube",
			"primitives":[
				{
					"attributes":{
						"POSITION":0,
						"NORMAL":1,
						"TEXCOORD_0":2
					},
					"indices":3,
					"material":0
				}
			]
		},
		{
			"name":"Cube.012",
			"primitives":[
				{
					"attributes":{
						"POSITION":4,
						"NORMAL":5,
						"TEXCOORD_0":6,
						"TEXCOORD_1":7
					},
					"indices":8,
					"material":1
				}
			]
		},
		{
			"name":"Cylinder.012",
			"primitives":[
				{
					"attributes":{
						"POSITION":9,
						"NORMAL":10,
						"TEXCOORD_0":11,
						"TEXCOORD_1":12
					},
					"indices":13,
					"material":2
				}
			]
		}
	],
	"textures":[
		{
			"sampler":0,
			"source":0
		},
		{
			"sampler":0,
			"source":1
		},
		{
			"sampler":0,
			"source":2
		},
		{
			"sampler":0,
			"source":3
		},
		{
			"sampler":0,
			"source":4
		},
		{
			"sampler":0,
			"source":5
		},
		{
			"sampler":0,
			"source":6
		},
		{
			"sampler":0,
			"source":7
		},
		{
			"sampler":0,
			"source":8
		}
	],
	"images":[
		{
			"mimeType":"image/png",
			"name":"BenchWood_Specular",
			"uri":"BenchWood_Specular.png"
		},
		{
			"mimeType":"image/png",
			"name":"BenchWood_Normal",
			"uri":"BenchWood_Normal.png"
		},
		{
			"mimeType":"image/png",
			"name":"BenchWood_Base",
			"uri":"BenchWood_Base.png"
		},
		{
			"mimeType":"image/jpeg",
			"name":"tiled_plane_DefaultMaterial_Normal",
			"uri":"tiled_plane_DefaultMaterial_Normal.jpg"
		},
		{
			"mimeType":"image/jpeg",
			"name":"tiled_plane_DefaultMaterial_BaseColor",
			"uri":"tiled_plane_DefaultMaterial_BaseColor.jpg"
		},
		{
			"mimeType":"image/png",
			"name":"tiled_plane_DefaultMaterial_Roughness",
			"uri":"tiled_plane_DefaultMaterial_Roughness.png"
		},
		{
			"mimeType":"image/jpeg",
			"name":"DefaultMaterial_Normal",
			"uri":"DefaultMaterial_Normal.jpg"
		},
		{
			"mimeType":"image/jpeg",
			"name":"DefaultMaterial_BaseColor",
			"uri":"DefaultMaterial_BaseColor.jpg"
		},
		{
			"mimeType":"image/png",
			"name":"DefaultMaterial_Roughness",
			"uri":"DefaultMaterial_Roughness.png"
		}
	],
	"accessors":[
		{
			"bufferView":0,
			"componentType":5126,
			"count":144,
			"max":[
				13.181377410888672,
				1.157890796661377,
				1.0114052295684814
			],
			"min":[
				-1,
				-1.157890796661377,
				-1.0155380964279175
			],
			"type":"VEC3"
		},
		{
			"bufferView":1,
			"componentType":5126,
			"count":144,
			"type":"VEC3"
		},
		{
			"bufferView":2,
			"componentType":5126,
			"count":144,
			"type":"VEC2"
		},
		{
			"bufferView":3,
			"componentType":5123,
			"count":216,
			"type":"SCALAR"
		},
		{
			"bufferView":4,
			"componentType":5126,
			"count":7748,
			"max":[
				44.16869354248047,
				1.0000001192092896,
				1.0709545612335205
			],
			"min":[
				-7.186893463134766,
				-16.64034652709961,
				-1.0656684637069702
			],
			"type":"VEC3"
		},
		{
			"bufferView":5,
			"componentType":5126,
			"count":7748,
			"type":"VEC3"
		},
		{
			"bufferView":6,
			"componentType":5126,
			"count":7748,
			"type":"VEC2"
		},
		{
			"bufferView":7,
			"componentType":5126,
			"count":7748,
			"type":"VEC2"
		},
		{
			"bufferView":8,
			"componentType":5123,
			"count":15336,
			"type":"SCALAR"
		},
		{
			"bufferView":9,
			"componentType":5126,
			"count":6702,
			"max":[
				76.98326873779297,
				57.61235046386719,
				14.31848430633545
			],
			"min":[
				-1,
				-1.2465555667877197,
				-81.33082580566406
			],
			"type":"VEC3"
		},
		{
			"bufferView":10,
			"componentType":5126,
			"count":6702,
			"type":"VEC3"
		},
		{
			"bufferView":11,
			"componentType":5126,
			"count":6702,
			"type":"VEC2"
		},
		{
			"bufferView":12,
			"componentType":5126,
			"count":6702,
			"type":"VEC2"
		},
		{
			"bufferView":13,
			"componentType":5123,
			"count":11424,
			"type":"SCALAR"
		}
	],
	"bufferViews":[
		{
			"buffer":0,
			"byteLength":1728,
			"byteOffset":0,
			"target":34962
		},
		{
			"buffer":0,
			"byteLength":1728,
			"byteOffset":1728,
			"target":34962
		},
		{
			"buffer":0,
			"byteLength":1152,
			"byteOffset":3456,
			"target":34962
		},
		{
			"buffer":0,
			"byteLength":432,
			"byteOffset":4608,
			"target":34963
		},
		{
			"buffer":0,
			"byteLength":92976,
			"byteOffset":5040,
			"target":34962
		},
		{
			"buffer":0,
			"byteLength":92976,
			"byteOffset":98016,
			"target":34962
		},
		{
			"buffer":0,
			"byteLength":61984,
			"byteOffset":190992,
			"target":34962
		},
		{
			"buffer":0,
			"byteLength":61984,
			"byteOffset":252976,
			"target":34962
		},
		{
			"buffer":0,
			"byteLength":30672,
			"byteOffset":314960,
			"target":34963
		},
		{
			"buffer":0,
			"byteLength":80424,
			"byteOffset":345632,
			"target":34962
		},
		{
			"buffer":0,
			"byteLength":80424,
			"byteOffset":426056,
			"target":34962
		},
		{
			"buffer":0,
			"byteLength":53616,
			"byteOffset":506480,
			"target":34962
		},
		{
			"buffer":0,
			"byteLength":53616,
			"byteOffset":560096,
			"target":34962
		},
		{
			"buffer":0,
			"byteLength":22848,
			"byteOffset":613712,
			"target":34963
		}
	],
	"samplers":[
		{
			"magFilter":9729,
			"minFilter":9987
		}
	],
	"buffers":[
		{
			"byteLength":636560,
			"uri":"WoodenTable.bin"
		}
	]
}
