{"accessors":[{"bufferView":0,"componentType":5126,"count":31,"max":[1.0,0.9999104738235474,0.9996364712715149,0.0,0.9987852573394775,1.0,0.9999418258666992,0.0,0.998945951461792,0.9582849144935608,1.0,0.0,1.734546422958374,1.1274187564849854,0.45002904534339905,1.0],"min":[-0.9949045777320862,-0.9999100565910339,-0.9999970197677612,0.0,-0.9987855553627014,-0.9990107417106628,-0.24554400146007538,0.0,-0.9989421963691711,-0.30005088448524475,-0.4639151692390442,0.0,-1.7345471382141113,-1.708666443824768,-1.7097736597061157,1.0],"normalized":false,"type":"MAT4"},{"bufferView":1,"componentType":5126,"count":430,"max":[0.0873141661286354,1.8922370672225952,0.11069432646036148],"min":[-0.0873141661286354,1.59894859790802,-0.11804374307394028],"normalized":false,"type":"VEC3"},{"bufferView":2,"componentType":5126,"count":430,"max":[1.0,1.0,0.9765341877937317,1.0],"min":[-1.0,-0.9527537226676941,-1.0,-1.0],"normalized":false,"type":"VEC4"},{"bufferView":3,"componentType":5126,"count":430,"max":[0.9997522830963135,1.0,0.9999503493309021],"min":[-0.9997527599334717,-0.9147295355796814,-0.9943408370018005],"normalized":false,"type":"VEC3"},{"bufferView":4,"componentType":5126,"count":430,"max":[0.956779420375824,0.8439206480979919],"min":[0.6651666164398193,0.7570311427116394],"normalized":false,"type":"VEC2"},{"bufferView":5,"componentType":5121,"count":430,"max":[15,15,15,15],"min":[5,0,0,0],"normalized":false,"type":"VEC4"},{"bufferView":6,"componentType":5121,"count":430,"max":[15,6,0,0],"min":[0,0,0,0],"normalized":false,"type":"VEC4"},{"bufferView":7,"componentType":5126,"count":430,"max":[1.0,0.4139835834503174,0.15274746716022491,0.0910394936800003],"min":[0.534424901008606,0.0,0.0,0.0],"normalized":false,"type":"VEC4"},{"bufferView":8,"componentType":5126,"count":430,"max":[0.05887020379304886,0.011109245009720325,0.0,0.0],"min":[0.0,0.0,0.0,0.0],"normalized":false,"type":"VEC4"},{"bufferView":9,"componentType":5123,"count":1584,"max":[429],"min":[0],"normalized":false,"type":"SCALAR"},{"componentType":5126,"count":430,"max":[0.009819071739912033,0.0033305883407592773,0.0069730039685964584],"min":[-0.009819071739912033,-0.013247132301330566,-0.00857137143611908],"normalized":false,"sparse":{"count":129,"indices":{"bufferView":10,"componentType":5123},"values":{"bufferView":11}},"type":"VEC3"},{"componentType":5126,"count":430,"max":[0.0,0.0,0.0],"min":[0.0,0.0,0.0],"normalized":false,"type":"VEC3"},{"bufferView":12,"componentType":5126,"count":430,"max":[1.9900145530700684,1.6103918552398682,1.9825384616851807],"min":[-1.9856600761413574,-1.3669458627700806,-1.939687728881836],"normalized":false,"type":"VEC3"},{"bufferView":13,"componentType":5126,"count":265,"max":[0.17682501673698425,0.9798059463500977,0.1870250701904297],"min":[-0.17682501673698425,-0.005710124969482422,-0.14348913729190826],"normalized":false,"type":"VEC3"},{"bufferView":14,"componentType":5126,"count":265,"max":[1.0,0.9760468602180481,0.9966669082641602,1.0],"min":[-0.9997289776802063,-0.9901382327079773,-1.0,-1.0],"normalized":false,"type":"VEC4"},{"bufferView":15,"componentType":5126,"count":265,"max":[0.9987974166870117,0.9567317962646484,0.9974605441093445],"min":[-0.9987959861755371,-0.9760110378265381,-0.9927850961685181],"normalized":false,"type":"VEC3"},{"bufferView":16,"componentType":5126,"count":265,"max":[0.6723203659057617,0.7465888261795044],"min":[0.5774844884872437,0.6238675713539124],"normalized":false,"type":"VEC2"},{"bufferView":17,"componentType":5121,"count":265,"max":[30,30,2,0],"min":[23,0,0,0],"normalized":false,"type":"VEC4"},{"bufferView":18,"componentType":5126,"count":265,"max":[1.0,0.4755241274833679,0.0032807898242026567,0.0],"min":[0.5244758129119873,0.0,0.0,0.0],"normalized":false,"type":"VEC4"},{"bufferView":19,"componentType":5123,"count":1320,"max":[264],"min":[0],"normalized":false,"type":"SCALAR"},{"bufferView":20,"componentType":5126,"count":265,"max":[0.05872529745101929,0.004776597023010254,0.030579686164855957],"min":[-0.0587252676486969,-0.006062686443328857,-0.07624705135822296],"normalized":false,"type":"VEC3"},{"componentType":5126,"count":265,"max":[0.0,0.0,0.0],"min":[0.0,0.0,0.0],"normalized":false,"type":"VEC3"},{"bufferView":21,"componentType":5126,"count":265,"max":[1.9650232791900635,1.819753646850586,1.9926427602767944],"min":[-1.9954302310943604,-1.9062942266464233,-1.8930833339691162],"normalized":false,"type":"VEC3"},{"bufferView":22,"componentType":5126,"count":194,"max":[0.2791097164154053,1.5941789150238037,0.13998132944107056],"min":[-0.2791071832180023,1.2111736536026,-0.13176053762435913],"normalized":false,"type":"VEC3"},{"bufferView":23,"componentType":5126,"count":194,"max":[1.0,0.9499514102935791,0.9701413512229919,1.0],"min":[-1.0,-0.9577402472496033,-1.0,-1.0],"normalized":false,"type":"VEC4"},{"bufferView":24,"componentType":5126,"count":194,"max":[0.9999040365219116,0.9966405630111694,0.9984997510910034],"min":[-0.9999036192893982,-0.8910549879074097,-0.9964010715484619],"normalized":false,"type":"VEC3"},{"bufferView":25,"componentType":5126,"count":194,"max":[0.709181010723114,0.7475244998931885],"min":[0.6992756128311157,0.7210325002670288],"normalized":false,"type":"VEC2"},{"bufferView":26,"componentType":5121,"count":194,"max":[16,27,27,27],"min":[2,0,0,0],"normalized":false,"type":"VEC4"},{"bufferView":27,"componentType":5121,"count":194,"max":[27,27,0,0],"min":[0,0,0,0],"normalized":false,"type":"VEC4"},{"bufferView":28,"componentType":5126,"count":194,"max":[1.0,0.4911113679409027,0.2981139123439789,0.169990673661232],"min":[0.33125802874565125,0.0,0.0,0.0],"normalized":false,"type":"VEC4"},{"bufferView":29,"componentType":5126,"count":194,"max":[0.09244338423013687,0.02066134661436081,0.0,0.0],"min":[0.0,0.0,0.0,0.0],"normalized":false,"type":"VEC4"},{"bufferView":30,"componentType":5121,"count":930,"max":[193],"min":[0],"normalized":false,"type":"SCALAR"},{"bufferView":31,"componentType":5126,"count":194,"max":[0.03598261624574661,0.03013908863067627,0.07517282664775848],"min":[-0.035982586443424225,-0.03588879108428955,-0.03784292936325073],"normalized":false,"type":"VEC3"},{"componentType":5126,"count":194,"max":[0.0,0.0,0.0],"min":[0.0,0.0,0.0],"normalized":false,"type":"VEC3"},{"bufferView":32,"componentType":5126,"count":194,"max":[1.9956550598144531,1.1016227006912231,1.9821995496749878],"min":[-1.9939978122711182,-1.0772109031677246,-1.806818962097168],"normalized":false,"type":"VEC3"},{"bufferView":33,"componentType":5126,"count":715,"max":[0.914483368396759,1.6492586135864258,0.1209966242313385],"min":[-0.914483368396759,1.4891810417175293,-0.13176053762435913],"normalized":false,"type":"VEC3"},{"bufferView":34,"componentType":5126,"count":715,"max":[1.0,0.6507618427276611,0.8722809553146362,1.0],"min":[-1.0,-0.6507304310798645,-1.0,-1.0],"normalized":false,"type":"VEC4"},{"bufferView":35,"componentType":5126,"count":715,"max":[0.9166419506072998,0.9982105493545532,0.9847813248634338],"min":[-0.9166638851165771,-0.9992748498916626,-0.9912787675857544],"normalized":false,"type":"VEC3"},{"bufferView":36,"componentType":5126,"count":715,"max":[0.675866425037384,0.7949765920639038],"min":[0.6636128425598145,0.765142023563385],"normalized":false,"type":"VEC2"},{"bufferView":37,"componentType":5121,"count":715,"max":[22,22,22,16],"min":[4,0,0,0],"normalized":false,"type":"VEC4"},{"bufferView":38,"componentType":5121,"count":715,"max":[16,6,0,0],"min":[0,0,0,0],"normalized":false,"type":"VEC4"},{"bufferView":39,"componentType":5126,"count":715,"max":[1.0,0.4905239939689636,0.28294575214385986,0.1906120777130127],"min":[0.3010483682155609,0.0,0.0,0.0],"normalized":false,"type":"VEC4"},{"bufferView":40,"componentType":5126,"count":715,"max":[0.09244338423013687,0.011109245009720325,0.0,0.0],"min":[0.0,0.0,0.0,0.0],"normalized":false,"type":"VEC4"},{"bufferView":41,"componentType":5123,"count":2268,"max":[714],"min":[0],"normalized":false,"type":"SCALAR"},{"componentType":5126,"count":715,"max":[0.011075079441070557,0.019223928451538086,0.011700738221406937],"min":[-0.011075049638748169,-0.011025667190551758,-0.011872626841068268],"normalized":false,"sparse":{"count":180,"indices":{"bufferView":42,"componentType":5123},"values":{"bufferView":43}},"type":"VEC3"},{"componentType":5126,"count":715,"max":[0.0,0.0,0.0],"min":[0.0,0.0,0.0],"normalized":false,"type":"VEC3"},{"bufferView":44,"componentType":5126,"count":715,"max":[1.9689428806304932,1.00214684009552,1.971327304840088],"min":[-1.9699589014053345,-1.2789820432662964,-1.2770730257034302],"normalized":false,"type":"VEC3"},{"bufferView":45,"componentType":5126,"count":144,"max":[0.2003210037946701,1.2365405559539795,0.115965336561203],"min":[-0.2003224492073059,0.7834891080856323,-0.18393488228321075],"normalized":false,"type":"VEC3"},{"bufferView":46,"componentType":5126,"count":144,"max":[1.0,0.8732573986053467,0.9355000853538513,1.0],"min":[-1.0,-0.8323249220848083,-1.0,-1.0],"normalized":false,"type":"VEC4"},{"bufferView":47,"componentType":5126,"count":144,"max":[0.9947084188461304,0.6611328125,0.9999122619628906],"min":[-0.9947121143341064,-0.9310787916183472,-0.9998152852058411],"normalized":false,"type":"VEC3"},{"bufferView":48,"componentType":5126,"count":144,"max":[0.7090850472450256,0.7488759756088257],"min":[0.6988521218299866,0.7315361499786377],"normalized":false,"type":"VEC2"},{"bufferView":49,"componentType":5121,"count":144,"max":[27,27,27,27],"min":[1,0,0,0],"normalized":false,"type":"VEC4"},{"bufferView":50,"componentType":5121,"count":144,"max":[27,0,0,0],"min":[0,0,0,0],"normalized":false,"type":"VEC4"},{"bufferView":51,"componentType":5126,"count":144,"max":[1.0,0.5,0.28313544392585754,0.21981291472911835],"min":[0.2698182463645935,0.0,0.0,0.0],"normalized":false,"type":"VEC4"},{"bufferView":52,"componentType":5126,"count":144,"max":[0.04867776855826378,0.0,0.0,0.0],"min":[0.0,0.0,0.0,0.0],"normalized":false,"type":"VEC4"},{"bufferView":53,"componentType":5121,"count":642,"max":[143],"min":[0],"normalized":false,"type":"SCALAR"},{"bufferView":54,"componentType":5126,"count":144,"max":[0.05524928867816925,0.014491796493530273,0.07517282664775848],"min":[-0.05524952709674835,-0.02162313461303711,-0.059028059244155884],"normalized":false,"type":"VEC3"},{"componentType":5126,"count":144,"max":[0.0,0.0,0.0],"min":[0.0,0.0,0.0],"normalized":false,"type":"VEC3"},{"bufferView":55,"componentType":5126,"count":144,"max":[1.9992098808288574,0.9994325041770935,1.9871113300323486],"min":[-1.9999933242797852,-0.7746688723564148,-1.7466223239898682],"normalized":false,"type":"VEC3"},{"bufferView":56,"componentType":5126,"count":1,"max":[0.0],"min":[0.0],"normalized":false,"type":"SCALAR"},{"bufferView":57,"componentType":5126,"count":1,"max":[0.0,0.0,0.0],"min":[0.0,0.0,0.0],"normalized":false,"type":"VEC3"},{"bufferView":58,"componentType":5126,"count":1,"max":[2.1855694143368964e-08,0.0,0.0,1.0],"min":[2.1855694143368964e-08,0.0,0.0,1.0],"normalized":false,"type":"VEC4"},{"bufferView":59,"componentType":5126,"count":1,"max":[5.989875262457645e-10,1.1369819641113281,0.0025896276347339153],"min":[5.989875262457645e-10,1.1369819641113281,0.0025896276347339153],"normalized":false,"type":"VEC3"},{"bufferView":60,"componentType":5126,"count":1,"max":[0.7056687474250793,-0.045059334486722946,-0.7056706547737122,0.045058395713567734],"min":[0.7056687474250793,-0.045059334486722946,-0.7056706547737122,0.045058395713567734],"normalized":false,"type":"VEC4"},{"bufferView":61,"componentType":5126,"count":1,"max":[-0.7056863903999329,0.044832754880189896,0.7056818008422852,0.04483237862586975],"min":[-0.7056863903999329,0.044832754880189896,0.7056818008422852,0.04483237862586975],"normalized":false,"type":"VEC4"},{"bufferView":62,"componentType":5126,"count":1,"max":[0.04320371896028519,0.06044556573033333,-0.08695995807647705],"min":[0.04320371896028519,0.06044556573033333,-0.08695995807647705],"normalized":false,"type":"VEC3"},{"bufferView":63,"componentType":5126,"count":1,"max":[-0.03863028809428215,-0.7243056893348694,-0.014701135456562042,0.6882389783859253],"min":[-0.03863028809428215,-0.7243056893348694,-0.014701135456562042,0.6882389783859253],"normalized":false,"type":"VEC4"},{"bufferView":64,"componentType":5126,"count":1,"max":[0.043203726410865784,0.060445018112659454,0.08695989847183228],"min":[0.043203726410865784,0.060445018112659454,0.08695989847183228],"normalized":false,"type":"VEC3"},{"bufferView":65,"componentType":5126,"count":1,"max":[-0.01991990953683853,-0.6880204081535339,-0.042117178440093994,0.7241942286491394],"min":[-0.01991990953683853,-0.6880204081535339,-0.042117178440093994,0.7241942286491394],"normalized":false,"type":"VEC4"},{"bufferView":66,"componentType":5126,"count":1,"max":[-0.15178407728672028,-1.3491495565176592e-07,-1.1256717868945998e-07,0.9884136915206909],"min":[-0.15178407728672028,-1.3491495565176592e-07,-1.1256717868945998e-07,0.9884136915206909],"normalized":false,"type":"VEC4"},{"bufferView":67,"componentType":5126,"count":1,"max":[-0.05083861202001572,-0.6551758050918579,0.033151499927043915,0.7530345916748047],"min":[-0.05083861202001572,-0.6551758050918579,0.033151499927043915,0.7530345916748047],"normalized":false,"type":"VEC4"},{"bufferView":68,"componentType":5126,"count":1,"max":[-0.0415988527238369,0.655480146408081,-0.02709810994565487,0.753578782081604],"min":[-0.0415988527238369,0.655480146408081,-0.02709810994565487,0.753578782081604],"normalized":false,"type":"VEC4"},{"bufferView":69,"componentType":5126,"count":1,"max":[0.11488267779350281,1.2298378461450543e-12,1.2256794690301831e-08,0.9933790564537048],"min":[0.11488267779350281,1.2298378461450543e-12,1.2256794690301831e-08,0.9933790564537048],"normalized":false,"type":"VEC4"},{"bufferView":70,"componentType":5126,"count":1,"max":[0.4890782833099365,0.4999781548976898,-0.39938291907310486,0.5927205085754395],"min":[0.4890782833099365,0.4999781548976898,-0.39938291907310486,0.5927205085754395],"normalized":false,"type":"VEC4"},{"bufferView":71,"componentType":5126,"count":1,"max":[0.48617443442344666,-0.5016778707504272,0.39706385135650635,0.5952260494232178],"min":[0.48617443442344666,-0.5016778707504272,0.39706385135650635,0.5952260494232178],"normalized":false,"type":"VEC4"},{"bufferView":72,"componentType":5126,"count":1,"max":[-0.0013325599720701575,-7.36305736381837e-08,1.0824431484479646e-07,0.9999991059303284],"min":[-0.0013325599720701575,-7.36305736381837e-08,1.0824431484479646e-07,0.9999991059303284],"normalized":false,"type":"VEC4"},{"bufferView":73,"componentType":5126,"count":1,"max":[-0.6655357480049133,-0.5067891478538513,-0.4407799541950226,0.32548415660858154],"min":[-0.6655357480049133,-0.5067891478538513,-0.4407799541950226,0.32548415660858154],"normalized":false,"type":"VEC4"},{"bufferView":74,"componentType":5126,"count":1,"max":[-0.6655358672142029,0.5067894458770752,0.4407796859741211,0.3254837989807129],"min":[-0.6655358672142029,0.5067894458770752,0.4407796859741211,0.3254837989807129],"normalized":false,"type":"VEC4"},{"bufferView":75,"componentType":5126,"count":1,"max":[0.12721607089042664,-0.03053516522049904,0.10598953068256378,0.9857230186462402],"min":[0.12721607089042664,-0.03053516522049904,0.10598953068256378,0.9857230186462402],"normalized":false,"type":"VEC4"},{"bufferView":76,"componentType":5126,"count":1,"max":[0.12721608579158783,0.030532434582710266,-0.10598930716514587,0.9857231378555298],"min":[0.12721608579158783,0.030532434582710266,-0.10598930716514587,0.9857231378555298],"normalized":false,"type":"VEC4"},{"bufferView":77,"componentType":5126,"count":1,"max":[0.017983537167310715,-4.333152947566532e-09,-5.116601364818507e-09,0.9998382925987244],"min":[0.017983537167310715,-4.333152947566532e-09,-5.116601364818507e-09,0.9998382925987244],"normalized":false,"type":"VEC4"},{"bufferView":78,"componentType":5126,"count":1,"max":[0.11811985075473785,0.06499555706977844,-0.04288283735513687,0.9899415969848633],"min":[0.11811985075473785,0.06499555706977844,-0.04288283735513687,0.9899415969848633],"normalized":false,"type":"VEC4"},{"bufferView":79,"componentType":5126,"count":1,"max":[0.9999969601631165,0.9999967813491821,1.0000044107437134],"min":[0.9999969601631165,0.9999967813491821,1.0000044107437134],"normalized":false,"type":"VEC3"},{"bufferView":80,"componentType":5126,"count":1,"max":[0.11812075972557068,-0.06499601900577545,0.042880579829216,0.9899415373802185],"min":[0.11812075972557068,-0.06499601900577545,0.042880579829216,0.9899415373802185],"normalized":false,"type":"VEC4"},{"bufferView":81,"componentType":5126,"count":1,"max":[0.9999971985816956,0.9999985694885254,1.0000042915344238],"min":[0.9999971985816956,0.9999985694885254,1.0000042915344238],"normalized":false,"type":"VEC3"},{"bufferView":82,"componentType":5126,"count":1,"max":[0.1045130044221878,0.7726823091506958,-0.09406854212284088,0.6190235614776611],"min":[0.1045130044221878,0.7726823091506958,-0.09406854212284088,0.6190235614776611],"normalized":false,"type":"VEC4"},{"bufferView":83,"componentType":5126,"count":1,"max":[1.0000027418136597,0.9999994039535522,0.9999969005584717],"min":[1.0000027418136597,0.9999994039535522,0.9999969005584717],"normalized":false,"type":"VEC3"},{"bufferView":84,"componentType":5126,"count":1,"max":[0.10451614856719971,-0.7726811766624451,0.09407228976488113,0.619023859500885],"min":[0.10451614856719971,-0.7726811766624451,0.09407228976488113,0.619023859500885],"normalized":false,"type":"VEC4"},{"bufferView":85,"componentType":5126,"count":1,"max":[1.0000026226043701,0.9999984502792358,0.9999967813491821],"min":[1.0000026226043701,0.9999984502792358,0.9999967813491821],"normalized":false,"type":"VEC3"},{"bufferView":86,"componentType":5126,"count":1,"max":[-0.06146293133497238,0.14471498131752014,0.031664930284023285,0.9870548248291016],"min":[-0.06146293133497238,0.14471498131752014,0.031664930284023285,0.9870548248291016],"normalized":false,"type":"VEC4"},{"bufferView":87,"componentType":5126,"count":1,"max":[-0.061555854976177216,-0.14766010642051697,-0.0314822793006897,0.9866185784339905],"min":[-0.061555854976177216,-0.14766010642051697,-0.0314822793006897,0.9866185784339905],"normalized":false,"type":"VEC4"},{"bufferView":88,"componentType":5126,"count":1,"max":[-0.04331563785672188,-0.056441910564899445,-0.12964557111263275,0.9890046119689941],"min":[-0.04331563785672188,-0.056441910564899445,-0.12964557111263275,0.9890046119689941],"normalized":false,"type":"VEC4"},{"bufferView":89,"componentType":5126,"count":1,"max":[0.12259754538536072,-0.7796748876571655,-0.33217981457710266,0.516462504863739],"min":[0.12259754538536072,-0.7796748876571655,-0.33217981457710266,0.516462504863739],"normalized":false,"type":"VEC4"},{"bufferView":90,"componentType":5126,"count":1,"max":[-0.042931944131851196,0.059394750744104385,0.12977658212184906,0.9888312220573425],"min":[-0.042931944131851196,0.059394750744104385,0.12977658212184906,0.9888312220573425],"normalized":false,"type":"VEC4"},{"bufferView":91,"componentType":5126,"count":1,"max":[0.12358997762203217,0.7812114357948303,0.3318132162094116,0.514134407043457],"min":[0.12358997762203217,0.7812114357948303,0.3318132162094116,0.514134407043457],"normalized":false,"type":"VEC4"},{"bufferView":92,"componentType":5126,"count":1,"max":[-0.024555418640375137,0.023378105834126472,-0.061015259474515915,0.9975608587265015],"min":[-0.024555418640375137,0.023378105834126472,-0.061015259474515915,0.9975608587265015],"normalized":false,"type":"VEC4"},{"bufferView":93,"componentType":5126,"count":1,"max":[-0.2805831730365753,0.6523954272270203,0.1777845323085785,0.6812092065811157],"min":[-0.2805831730365753,0.6523954272270203,0.1777845323085785,0.6812092065811157],"normalized":false,"type":"VEC4"},{"bufferView":94,"componentType":5126,"count":1,"max":[-0.02481772005558014,-0.019054796546697617,0.06090548262000084,0.9976530075073242],"min":[-0.02481772005558014,-0.019054796546697617,0.06090548262000084,0.9976530075073242],"normalized":false,"type":"VEC4"},{"bufferView":95,"componentType":5126,"count":1,"max":[-0.28058698773384094,-0.6523945927619934,-0.17778809368610382,0.6812074780464172],"min":[-0.28058698773384094,-0.6523945927619934,-0.17778809368610382,0.6812074780464172],"normalized":false,"type":"VEC4"},{"bufferView":96,"componentType":5126,"count":2,"max":[0.0],"min":[0.0],"normalized":false,"type":"SCALAR"}],"animations":[{"channels":[{"sampler":0,"target":{"node":4,"path":"translation"}},{"sampler":1,"target":{"node":4,"path":"rotation"}},{"sampler":2,"target":{"node":6,"path":"translation"}},{"sampler":3,"target":{"node":6,"path":"rotation"}},{"sampler":4,"target":{"node":7,"path":"rotation"}},{"sampler":5,"target":{"node":33,"path":"translation"}},{"sampler":6,"target":{"node":33,"path":"rotation"}},{"sampler":7,"target":{"node":38,"path":"translation"}},{"sampler":8,"target":{"node":38,"path":"rotation"}},{"sampler":9,"target":{"node":8,"path":"rotation"}},{"sampler":10,"target":{"node":34,"path":"rotation"}},{"sampler":11,"target":{"node":39,"path":"rotation"}},{"sampler":12,"target":{"node":9,"path":"rotation"}},{"sampler":13,"target":{"node":35,"path":"rotation"}},{"sampler":14,"target":{"node":40,"path":"rotation"}},{"sampler":15,"target":{"node":10,"path":"rotation"}},{"sampler":16,"target":{"node":13,"path":"rotation"}},{"sampler":17,"target":{"node":23,"path":"rotation"}},{"sampler":18,"target":{"node":36,"path":"rotation"}},{"sampler":19,"target":{"node":41,"path":"rotation"}},{"sampler":20,"target":{"node":11,"path":"rotation"}},{"sampler":21,"target":{"node":14,"path":"rotation"}},{"sampler":22,"target":{"node":14,"path":"scale"}},{"sampler":23,"target":{"node":24,"path":"rotation"}},{"sampler":24,"target":{"node":24,"path":"scale"}},{"sampler":25,"target":{"node":15,"path":"rotation"}},{"sampler":26,"target":{"node":15,"path":"scale"}},{"sampler":27,"target":{"node":25,"path":"rotation"}},{"sampler":28,"target":{"node":25,"path":"scale"}},{"sampler":29,"target":{"node":16,"path":"rotation"}},{"sampler":30,"target":{"node":26,"path":"rotation"}},{"sampler":31,"target":{"node":17,"path":"rotation"}},{"sampler":32,"target":{"node":20,"path":"rotation"}},{"sampler":33,"target":{"node":27,"path":"rotation"}},{"sampler":34,"target":{"node":30,"path":"rotation"}},{"sampler":35,"target":{"node":18,"path":"rotation"}},{"sampler":36,"target":{"node":21,"path":"rotation"}},{"sampler":37,"target":{"node":28,"path":"rotation"}},{"sampler":38,"target":{"node":31,"path":"rotation"}},{"sampler":39,"target":{"node":44,"path":"weights"}},{"sampler":40,"target":{"node":47,"path":"weights"}},{"sampler":41,"target":{"node":45,"path":"weights"}},{"sampler":42,"target":{"node":46,"path":"weights"}},{"sampler":43,"target":{"node":43,"path":"weights"}}],"name":"Female_TPose_Female_TPose","samplers":[{"input":59,"interpolation":"LINEAR","output":60},{"input":59,"interpolation":"LINEAR","output":61},{"input":59,"interpolation":"LINEAR","output":62},{"input":59,"interpolation":"LINEAR","output":63},{"input":59,"interpolation":"LINEAR","output":64},{"input":59,"interpolation":"LINEAR","output":65},{"input":59,"interpolation":"LINEAR","output":66},{"input":59,"interpolation":"LINEAR","output":67},{"input":59,"interpolation":"LINEAR","output":68},{"input":59,"interpolation":"LINEAR","output":69},{"input":59,"interpolation":"LINEAR","output":70},{"input":59,"interpolation":"LINEAR","output":71},{"input":59,"interpolation":"LINEAR","output":72},{"input":59,"interpolation":"LINEAR","output":73},{"input":59,"interpolation":"LINEAR","output":74},{"input":59,"interpolation":"LINEAR","output":75},{"input":59,"interpolation":"LINEAR","output":76},{"input":59,"interpolation":"LINEAR","output":77},{"input":59,"interpolation":"LINEAR","output":78},{"input":59,"interpolation":"LINEAR","output":79},{"input":59,"interpolation":"LINEAR","output":80},{"input":59,"interpolation":"LINEAR","output":81},{"input":59,"interpolation":"LINEAR","output":82},{"input":59,"interpolation":"LINEAR","output":83},{"input":59,"interpolation":"LINEAR","output":84},{"input":59,"interpolation":"LINEAR","output":85},{"input":59,"interpolation":"LINEAR","output":86},{"input":59,"interpolation":"LINEAR","output":87},{"input":59,"interpolation":"LINEAR","output":88},{"input":59,"interpolation":"LINEAR","output":89},{"input":59,"interpolation":"LINEAR","output":90},{"input":59,"interpolation":"LINEAR","output":91},{"input":59,"interpolation":"LINEAR","output":92},{"input":59,"interpolation":"LINEAR","output":93},{"input":59,"interpolation":"LINEAR","output":94},{"input":59,"interpolation":"LINEAR","output":95},{"input":59,"interpolation":"LINEAR","output":96},{"input":59,"interpolation":"LINEAR","output":97},{"input":59,"interpolation":"LINEAR","output":98},{"input":99,"interpolation":"LINEAR","output":99},{"input":99,"interpolation":"LINEAR","output":99},{"input":99,"interpolation":"LINEAR","output":99},{"input":99,"interpolation":"LINEAR","output":99},{"input":99,"interpolation":"LINEAR","output":99}]}],"asset":{"generator":"Godot Engine v4.7.1.stable.steam@a13da4feb8d8aefc283c3763d33a2f170a18d541","version":"2.0"},"bufferViews":[{"buffer":0,"byteLength":1984},{"buffer":0,"byteLength":5160,"byteOffset":1984,"byteStride":12,"target":34962},{"buffer":0,"byteLength":6880,"byteOffset":7144,"byteStride":16,"target":34962},{"buffer":0,"byteLength":5160,"byteOffset":14024,"byteStride":12,"target":34962},{"buffer":0,"byteLength":3440,"byteOffset":19184,"byteStride":8,"target":34962},{"buffer":0,"byteLength":1720,"byteOffset":22624,"byteStride":4,"target":34962},{"buffer":0,"byteLength":1720,"byteOffset":24344,"byteStride":4,"target":34962},{"buffer":0,"byteLength":6880,"byteOffset":26064,"byteStride":16,"target":34962},{"buffer":0,"byteLength":6880,"byteOffset":32944,"byteStride":16,"target":34962},{"buffer":0,"byteLength":3168,"byteOffset":39824,"target":34963},{"buffer":0,"byteLength":258,"byteOffset":42992},{"buffer":0,"byteLength":1548,"byteOffset":43252},{"buffer":0,"byteLength":5160,"byteOffset":44800,"byteStride":12,"target":34962},{"buffer":0,"byteLength":3180,"byteOffset":49960,"byteStride":12,"target":34962},{"buffer":0,"byteLength":4240,"byteOffset":53140,"byteStride":16,"target":34962},{"buffer":0,"byteLength":3180,"byteOffset":57380,"byteStride":12,"target":34962},{"buffer":0,"byteLength":2120,"byteOffset":60560,"byteStride":8,"target":34962},{"buffer":0,"byteLength":1060,"byteOffset":62680,"byteStride":4,"target":34962},{"buffer":0,"byteLength":4240,"byteOffset":63740,"byteStride":16,"target":34962},{"buffer":0,"byteLength":2640,"byteOffset":67980,"target":34963},{"buffer":0,"byteLength":3180,"byteOffset":70620,"byteStride":12,"target":34962},{"buffer":0,"byteLength":3180,"byteOffset":73800,"byteStride":12,"target":34962},{"buffer":0,"byteLength":2328,"byteOffset":76980,"byteStride":12,"target":34962},{"buffer":0,"byteLength":3104,"byteOffset":79308,"byteStride":16,"target":34962},{"buffer":0,"byteLength":2328,"byteOffset":82412,"byteStride":12,"target":34962},{"buffer":0,"byteLength":1552,"byteOffset":84740,"byteStride":8,"target":34962},{"buffer":0,"byteLength":776,"byteOffset":86292,"byteStride":4,"target":34962},{"buffer":0,"byteLength":776,"byteOffset":87068,"byteStride":4,"target":34962},{"buffer":0,"byteLength":3104,"byteOffset":87844,"byteStride":16,"target":34962},{"buffer":0,"byteLength":3104,"byteOffset":90948,"byteStride":16,"target":34962},{"buffer":0,"byteLength":930,"byteOffset":94052,"target":34963},{"buffer":0,"byteLength":2328,"byteOffset":94984,"byteStride":12,"target":34962},{"buffer":0,"byteLength":2328,"byteOffset":97312,"byteStride":12,"target":34962},{"buffer":0,"byteLength":8580,"byteOffset":99640,"byteStride":12,"target":34962},{"buffer":0,"byteLength":11440,"byteOffset":108220,"byteStride":16,"target":34962},{"buffer":0,"byteLength":8580,"byteOffset":119660,"byteStride":12,"target":34962},{"buffer":0,"byteLength":5720,"byteOffset":128240,"byteStride":8,"target":34962},{"buffer":0,"byteLength":2860,"byteOffset":133960,"byteStride":4,"target":34962},{"buffer":0,"byteLength":2860,"byteOffset":136820,"byteStride":4,"target":34962},{"buffer":0,"byteLength":11440,"byteOffset":139680,"byteStride":16,"target":34962},{"buffer":0,"byteLength":11440,"byteOffset":151120,"byteStride":16,"target":34962},{"buffer":0,"byteLength":4536,"byteOffset":162560,"target":34963},{"buffer":0,"byteLength":360,"byteOffset":167096},{"buffer":0,"byteLength":2160,"byteOffset":167456},{"buffer":0,"byteLength":8580,"byteOffset":169616,"byteStride":12,"target":34962},{"buffer":0,"byteLength":1728,"byteOffset":178196,"byteStride":12,"target":34962},{"buffer":0,"byteLength":2304,"byteOffset":179924,"byteStride":16,"target":34962},{"buffer":0,"byteLength":1728,"byteOffset":182228,"byteStride":12,"target":34962},{"buffer":0,"byteLength":1152,"byteOffset":183956,"byteStride":8,"target":34962},{"buffer":0,"byteLength":576,"byteOffset":185108,"byteStride":4,"target":34962},{"buffer":0,"byteLength":576,"byteOffset":185684,"byteStride":4,"target":34962},{"buffer":0,"byteLength":2304,"byteOffset":186260,"byteStride":16,"target":34962},{"buffer":0,"byteLength":2304,"byteOffset":188564,"byteStride":16,"target":34962},{"buffer":0,"byteLength":642,"byteOffset":190868,"target":34963},{"buffer":0,"byteLength":1728,"byteOffset":191512,"byteStride":12,"target":34962},{"buffer":0,"byteLength":1728,"byteOffset":193240,"byteStride":12,"target":34962},{"buffer":0,"byteLength":4,"byteOffset":194968},{"buffer":0,"byteLength":12,"byteOffset":194972},{"buffer":0,"byteLength":16,"byteOffset":194984},{"buffer":0,"byteLength":12,"byteOffset":195000},{"buffer":0,"byteLength":16,"byteOffset":195012},{"buffer":0,"byteLength":16,"byteOffset":195028},{"buffer":0,"byteLength":12,"byteOffset":195044},{"buffer":0,"byteLength":16,"byteOffset":195056},{"buffer":0,"byteLength":12,"byteOffset":195072},{"buffer":0,"byteLength":16,"byteOffset":195084},{"buffer":0,"byteLength":16,"byteOffset":195100},{"buffer":0,"byteLength":16,"byteOffset":195116},{"buffer":0,"byteLength":16,"byteOffset":195132},{"buffer":0,"byteLength":16,"byteOffset":195148},{"buffer":0,"byteLength":16,"byteOffset":195164},{"buffer":0,"byteLength":16,"byteOffset":195180},{"buffer":0,"byteLength":16,"byteOffset":195196},{"buffer":0,"byteLength":16,"byteOffset":195212},{"buffer":0,"byteLength":16,"byteOffset":195228},{"buffer":0,"byteLength":16,"byteOffset":195244},{"buffer":0,"byteLength":16,"byteOffset":195260},{"buffer":0,"byteLength":16,"byteOffset":195276},{"buffer":0,"byteLength":16,"byteOffset":195292},{"buffer":0,"byteLength":12,"byteOffset":195308},{"buffer":0,"byteLength":16,"byteOffset":195320},{"buffer":0,"byteLength":12,"byteOffset":195336},{"buffer":0,"byteLength":16,"byteOffset":195348},{"buffer":0,"byteLength":12,"byteOffset":195364},{"buffer":0,"byteLength":16,"byteOffset":195376},{"buffer":0,"byteLength":12,"byteOffset":195392},{"buffer":0,"byteLength":16,"byteOffset":195404},{"buffer":0,"byteLength":16,"byteOffset":195420},{"buffer":0,"byteLength":16,"byteOffset":195436},{"buffer":0,"byteLength":16,"byteOffset":195452},{"buffer":0,"byteLength":16,"byteOffset":195468},{"buffer":0,"byteLength":16,"byteOffset":195484},{"buffer":0,"byteLength":16,"byteOffset":195500},{"buffer":0,"byteLength":16,"byteOffset":195516},{"buffer":0,"byteLength":16,"byteOffset":195532},{"buffer":0,"byteLength":16,"byteOffset":195548},{"buffer":0,"byteLength":8,"byteOffset":195564}],"buffers":[{"byteLength":195572,"uri":"female_character_model0.bin"}],"extensionsUsed":["GODOT_single_root","KHR_materials_emissive_strength"],"images":[{"name":"Atlas_1A_D 1","uri":"textures%2FAtlas_1A_D%201.png"}],"materials":[{"emissiveFactor":[1.0,1.0,1.0],"extensions":{"KHR_materials_emissive_strength":{"emissiveStrength":0.0}},"name":"Atlas_1A_D","pbrMetallicRoughness":{"baseColorFactor":[1.0,1.0,1.0,1.0],"baseColorTexture":{"index":0},"metallicFactor":0.0,"roughnessFactor":1.0}}],"meshes":[{"extras":{"targetNames":["Fat"]},"name":"Plane_4008","primitives":[{"attributes":{"JOINTS_0":5,"JOINTS_1":6,"NORMAL":3,"POSITION":1,"TANGENT":2,"TEXCOORD_0":4,"WEIGHTS_0":7,"WEIGHTS_1":8},"indices":9,"material":0,"mode":4,"targets":[{"NORMAL":11,"POSITION":10,"TANGENT":12}]}],"weights":[0.0]},{"extras":{"targetNames":["Fat"]},"name":"Plane_4228","primitives":[{"attributes":{"JOINTS_0":17,"NORMAL":15,"POSITION":13,"TANGENT":14,"TEXCOORD_0":16,"WEIGHTS_0":18},"indices":19,"material":0,"mode":4,"targets":[{"NORMAL":21,"POSITION":20,"TANGENT":22}]}],"weights":[0.0]},{"extras":{"targetNames":["Fat"]},"name":"Plane_4226","primitives":[{"attributes":{"JOINTS_0":27,"JOINTS_1":28,"NORMAL":25,"POSITION":23,"TANGENT":24,"TEXCOORD_0":26,"WEIGHTS_0":29,"WEIGHTS_1":30},"indices":31,"material":0,"mode":4,"targets":[{"NORMAL":33,"POSITION":32,"TANGENT":34}]}],"weights":[0.0]},{"extras":{"targetNames":["Fat"]},"name":"Plane_4010","primitives":[{"attributes":{"JOINTS_0":39,"JOINTS_1":40,"NORMAL":37,"POSITION":35,"TANGENT":36,"TEXCOORD_0":38,"WEIGHTS_0":41,"WEIGHTS_1":42},"indices":43,"material":0,"mode":4,"targets":[{"NORMAL":45,"POSITION":44,"TANGENT":46}]}],"weights":[0.0]},{"extras":{"targetNames":["Fat"]},"name":"Plane_4227","primitives":[{"attributes":{"JOINTS_0":51,"JOINTS_1":52,"NORMAL":49,"POSITION":47,"TANGENT":48,"TEXCOORD_0":50,"WEIGHTS_0":53,"WEIGHTS_1":54},"indices":55,"material":0,"mode":4,"targets":[{"NORMAL":57,"POSITION":56,"TANGENT":58}]}],"weights":[0.0]}],"nodes":[{"children":[1,2,3,4],"name":"TCP_Female_Character_01"},{"name":"TCP_Female_Hats","rotation":[0.7071068286895752,0.0,0.0,0.7071067094802856]},{"name":"TCP_Female_Accessories","rotation":[0.7071068286895752,0.0,0.0,0.7071067094802856]},{"name":"TCP_Female_Hairstyles"},{"children":[5,43,44,45,46,47],"name":"TCP_Female_Armature"},{"children":[6],"name":"Root"},{"children":[7,33,38],"name":"Hips","rotation":[-0.7056687474250793,0.045059334486722946,0.7056705951690674,-0.04505838826298714],"translation":[5.989875262457645e-10,1.1369819641113281,0.0025896276347339153]},{"children":[8],"name":"Spine_01","rotation":[0.7056863903999329,-0.044832758605480194,-0.7056818008422852,-0.04483237862586975],"translation":[-0.006077043246477842,-0.05330643802881241,-4.90027685096095e-10]},{"children":[9],"name":"Spine_02","rotation":[-0.15178407728672028,-1.3491495565176592e-07,-1.1256718579488734e-07,0.9884136915206909],"translation":[-8.43769498715119e-15,0.11910390853881836,-4.862158939356043e-11]},{"children":[10,13,23],"name":"Spine_03","rotation":[0.1148826852440834,1.2297203186295569e-12,1.2256794690301831e-08,0.9933790564537048],"translation":[3.241851231905457e-14,0.1528215855360031,-3.725289943190546e-08]},{"children":[11],"name":"Neck","rotation":[-0.0013325599720701575,-7.363058074361106e-08,1.0824432905565118e-07,0.9999991059303284],"translation":[-2.5872711972851903e-08,0.15750479698181152,0.022779420018196106]},{"children":[12],"name":"Head","rotation":[0.017983539029955864,-4.333153391655742e-09,-5.116601808907717e-09,0.9998382925987244],"translation":[4.551914400963142e-15,0.09446091204881668,3.72530140069216e-09]},{"name":"Head_end","translation":[0.0,0.10865023732185364,0.0]},{"children":[14],"name":"Clavicle_L","rotation":[0.6655356884002686,0.5067892670631409,0.44078004360198975,-0.32548418641090393],"translation":[7.105427357601002e-15,0.14618510007858276,7.450577488299359e-09]},{"children":[15],"name":"Arm_L","rotation":[0.11811985820531845,0.06499554961919785,-0.04288283735513687,0.9899415969848633],"translation":[-3.3527612686157227e-08,0.1908951848745346,-5.21540641784668e-08]},{"children":[16],"name":"Forearm_L","rotation":[0.10451299697160721,0.7726824283599854,-0.09406851977109909,0.6190235614776611],"translation":[-6.402842700481415e-08,0.2544288635253906,1.73225998878479e-07]},{"children":[17,20],"name":"Hand_L","rotation":[-0.061462923884391785,0.14471499621868134,0.031664926558732986,0.9870548248291016],"translation":[1.1175870895385742e-07,0.28751763701438904,0.0]},{"children":[18],"name":"Fingers_L","rotation":[-0.043315641582012177,-0.056441910564899445,-0.12964557111263275,0.9890046119689941],"translation":[-2.0489096641540527e-08,0.10357382893562317,7.450580596923828e-09]},{"children":[19],"name":"Fingertips_L","rotation":[-0.024555418640375137,0.023378103971481323,-0.061015259474515915,0.9975608587265015],"translation":[8.870847523212433e-08,0.032195042818784714,3.725290298461914e-09]},{"name":"Fingertips_L_end","translation":[0.0,0.06623987853527069,0.0]},{"children":[21],"name":"Thumb_L","rotation":[0.12259747833013535,-0.7796749472618103,-0.3321797847747803,0.5164624452590942],"translation":[-0.004223574884235859,0.030320212244987488,0.02640794962644577]},{"children":[22],"name":"Thumb_Tip_L","rotation":[-0.2805831730365753,0.6523954272270203,0.1777845174074173,0.6812092065811157],"translation":[-7.450580596923828e-09,0.05531778186559677,2.60770320892334e-08]},{"name":"Thumb_Tip_L_end","translation":[0.0,0.0541088841855526,0.0]},{"children":[24],"name":"Clavicle_R","rotation":[0.6655358672142029,-0.50678950548172,-0.4407796859741211,-0.3254838287830353],"translation":[7.105427357601002e-15,0.14618510007858276,7.450577488299359e-09]},{"children":[25],"name":"Arm_R","rotation":[0.11812075972557068,-0.06499601155519485,0.042880572378635406,0.9899415373802185],"translation":[3.725290298461914e-09,0.19089515507221222,1.1734664440155029e-07]},{"children":[26],"name":"Forearm_R","rotation":[0.10451611876487732,-0.7726812362670898,0.09407229721546173,0.619023859500885],"translation":[-1.210719347000122e-08,0.2544287443161011,1.8998980522155762e-07]},{"children":[27,30],"name":"Hand_R","rotation":[-0.06155585125088692,-0.14766012132167816,-0.0314822755753994,0.9866185784339905],"translation":[-6.938353180885315e-08,0.2875170409679413,3.3527612686157227e-08]},{"children":[28],"name":"Fingers_R","rotation":[-0.042931944131851196,0.05939475819468498,0.12977659702301025,0.9888312220573425],"translation":[-8.149072527885437e-08,0.10357388854026794,0.0]},{"children":[29],"name":"Fingertips_R","rotation":[-0.02481772005558014,-0.019054798409342766,0.06090548634529114,0.9976530075073242],"translation":[-1.1618249118328094e-07,0.032194916158914566,-1.1175870895385742e-08]},{"name":"Fingertips_R_end","translation":[0.0,0.06623993813991547,0.0]},{"children":[31],"name":"Thumb_R","rotation":[0.12358992546796799,0.7812114953994751,0.33181318640708923,0.514134407043457],"translation":[0.004380866885185242,0.030320394784212112,0.02638227492570877]},{"children":[32],"name":"Thumb_Tip_R","rotation":[-0.28058698773384094,-0.6523946523666382,-0.17778810858726501,0.6812074780464172],"translation":[-2.2351741790771484e-08,0.05531790107488632,1.1641532182693481e-08]},{"name":"Thumb_Tip_R_end","translation":[0.0,0.05410878732800484,0.0]},{"children":[34],"name":"Quad_L","rotation":[-0.038630276918411255,-0.7243055701255798,-0.014701131731271744,0.6882390379905701],"translation":[0.04320371896028519,0.06044556573033333,-0.08695995807647705]},{"children":[35],"name":"Shin_L","rotation":[-0.05083860456943512,-0.6551759243011475,0.033151499927043915,0.7530344724655151],"translation":[5.005858838558197e-09,0.44108742475509644,-6.332993507385254e-08]},{"children":[36],"name":"Foot_L","rotation":[0.4890783131122589,0.49997812509536743,-0.39938288927078247,0.5927205085754395],"translation":[1.3969838619232178e-09,0.57105952501297,1.1641532182693481e-09]},{"children":[37],"name":"Toes_L","rotation":[0.12721608579158783,-0.030535168945789337,0.10598953068256378,0.9857230186462402],"translation":[-2.9103830456733704e-11,0.18936076760292053,6.402842700481415e-09]},{"name":"Toes_L_end","translation":[0.0,0.11173843592405319,0.0]},{"children":[39],"name":"Quad_R","rotation":[-0.019919907674193382,-0.6880203485488892,-0.042117174714803696,0.7241942882537842],"translation":[0.043203726410865784,0.060445018112659454,0.08695989847183228]},{"children":[40],"name":"Shin_R","rotation":[-0.0415988489985466,0.655480146408081,-0.02709811180830002,0.753578782081604],"translation":[6.577465683221817e-09,0.44108790159225464,-2.3283064365386963e-09]},{"children":[41],"name":"Foot_R","rotation":[0.4861745238304138,-0.501677930355072,0.3970639109611511,0.595225989818573],"translation":[-3.4924596548080444e-09,0.5710591673851013,-4.423782229423523e-09]},{"children":[42],"name":"Toes_R","rotation":[0.12721608579158783,0.030532436445355415,-0.10598930716514587,0.9857231378555298],"translation":[2.7066562324762344e-09,0.18936088681221008,-6.752088665962219e-09]},{"name":"Toes_R_end","translation":[0.0,0.11173832416534424,0.0]},{"mesh":0,"name":"TCP_Female_Head_01A","skin":0},{"mesh":1,"name":"TCP_Female_Legs_01A","skin":0},{"mesh":2,"name":"TCP_Female_Shirt_01A","skin":0},{"mesh":3,"name":"TCP_Female_Skin_01A","skin":0},{"mesh":4,"name":"TCP_Female_Skirt_01A","skin":0}],"samplers":[{"magFilter":9729,"minFilter":9987,"wrapS":10497,"wrapT":10497}],"scene":0,"scenes":[{"nodes":[0]}],"skins":[{"inverseBindMatrices":0,"joints":[5,6,7,8,9,10,11,13,14,15,16,17,18,20,21,23,24,25,26,27,28,30,31,33,34,35,36,38,39,40,41],"name":"Skin"}],"textures":[{"sampler":0,"source":0}]}