{"accessors":[{"bufferView":0,"componentType":5126,"count":31,"max":[1.0000001192092896,1.000000238418579,0.5810848474502563,0.0,1.000000238418579,1.000000238418579,1.000000238418579,0.0,1.000000238418579,1.0,1.000000238418579,0.0,1.7856327295303345,1.1365481615066528,1.643784523010254,1.0],"min":[-1.0,-1.000000238418579,-0.5810836553573608,0.0,-1.0000001192092896,-1.0000001192092896,-1.000000238418579,0.0,-1.0000001192092896,-0.2145286500453949,-1.0,0.0,-1.7890219688415527,-1.8127176761627197,-1.6990147829055786,1.0],"normalized":false,"type":"MAT4"},{"bufferView":1,"componentType":5126,"count":617,"max":[0.0967467874288559,2.00443172454834,0.12083803117275238],"min":[-0.09674681723117828,1.7200535535812378,-0.12599892914295197],"normalized":false,"type":"VEC3"},{"bufferView":2,"componentType":5126,"count":617,"max":[1.0,0.9852488040924072,0.9987167716026306,1.0],"min":[-0.9935847520828247,-0.9947269558906555,-0.9987192749977112,-1.0],"normalized":false,"type":"VEC4"},{"bufferView":3,"componentType":5126,"count":617,"max":[0.9985110759735107,0.9962957501411438,0.9993516206741333],"min":[-0.9989904761314392,-0.9999597072601318,-0.9940053224563599],"normalized":false,"type":"VEC3"},{"bufferView":4,"componentType":5126,"count":617,"max":[0.8311290144920349,0.8611868619918823],"min":[0.6603221893310547,0.767178475856781],"normalized":false,"type":"VEC2"},{"bufferView":5,"componentType":5121,"count":617,"max":[6,15,15,15],"min":[5,0,0,0],"normalized":false,"type":"VEC4"},{"bufferView":6,"componentType":5121,"count":617,"max":[4,3,0,0],"min":[0,0,0,0],"normalized":false,"type":"VEC4"},{"bufferView":7,"componentType":5126,"count":617,"max":[1.0,0.3337860405445099,0.10460378229618073,0.07671061158180237],"min":[0.5813865065574646,0.0,0.0,0.0],"normalized":false,"type":"VEC4"},{"bufferView":8,"componentType":5126,"count":617,"max":[0.053073301911354065,0.0006256484775803983,0.0,0.0],"min":[0.0,0.0,0.0,0.0],"normalized":false,"type":"VEC4"},{"bufferView":9,"componentType":5123,"count":1500,"max":[616],"min":[0],"normalized":false,"type":"SCALAR"},{"bufferView":10,"componentType":5126,"count":864,"max":[0.6787368655204773,1.7505563497543335,0.14417530596256256],"min":[-0.6787579655647278,1.2186427116394043,-0.13769680261611938],"normalized":false,"type":"VEC3"},{"bufferView":11,"componentType":5126,"count":864,"max":[1.0,0.9921908974647522,1.0,1.0],"min":[-1.0,-0.9921891093254089,-1.0,-1.0],"normalized":false,"type":"VEC4"},{"bufferView":12,"componentType":5126,"count":864,"max":[0.9999260306358337,0.9998427033424377,0.999578058719635],"min":[-0.9999264478683472,-0.9956637620925903,-0.999992311000824],"normalized":false,"type":"VEC3"},{"bufferView":13,"componentType":5126,"count":864,"max":[0.9042824506759644,0.7486590147018433],"min":[0.796894371509552,0.6520044803619385],"normalized":false,"type":"VEC2"},{"bufferView":14,"componentType":5121,"count":864,"max":[17,27,27,27],"min":[1,0,0,0],"normalized":false,"type":"VEC4"},{"bufferView":15,"componentType":5121,"count":864,"max":[27,16,27,0],"min":[0,0,0,0],"normalized":false,"type":"VEC4"},{"bufferView":16,"componentType":5126,"count":864,"max":[1.0,0.47470739483833313,0.3031297028064728,0.13402406871318817],"min":[0.3093297779560089,0.0,0.0,0.0],"normalized":false,"type":"VEC4"},{"bufferView":17,"componentType":5126,"count":864,"max":[0.12340347468852997,0.03862294182181358,0.0019227542215958238,0.0],"min":[0.0,0.0,0.0,0.0],"normalized":false,"type":"VEC4"},{"bufferView":18,"componentType":5123,"count":2640,"max":[863],"min":[0],"normalized":false,"type":"SCALAR"},{"bufferView":19,"componentType":5126,"count":864,"max":[0.046197935938835144,0.009792327880859375,0.09111866354942322],"min":[-0.046202242374420166,-0.009781956672668457,-0.02743399143218994],"normalized":false,"type":"VEC3"},{"componentType":5126,"count":864,"max":[0.0,0.0,0.0],"min":[0.0,0.0,0.0],"normalized":false,"type":"VEC3"},{"bufferView":20,"componentType":5126,"count":864,"max":[2.0,1.6641168594360352,1.9997285604476929],"min":[-1.9994721412658691,-1.0135340690612793,-1.967490315437317],"normalized":false,"type":"VEC3"},{"bufferView":21,"componentType":5126,"count":424,"max":[0.20455843210220337,1.2353577613830566,0.14464543759822845],"min":[-0.20455843210220337,0.2985007166862488,-0.14537136256694794],"normalized":false,"type":"VEC3"},{"bufferView":22,"componentType":5126,"count":424,"max":[1.0,0.9909378886222839,0.9859998226165771,1.0],"min":[-1.0,-0.9909404516220093,-1.0,-1.0],"normalized":false,"type":"VEC4"},{"bufferView":23,"componentType":5126,"count":424,"max":[0.9999451041221619,0.998140275478363,0.9994387030601501],"min":[-0.9999454617500305,-0.9976435303688049,-0.9997884035110474],"normalized":false,"type":"VEC3"},{"bufferView":24,"componentType":5126,"count":424,"max":[0.5844560265541077,0.9280661344528198],"min":[0.3161289691925049,0.7176031470298767],"normalized":false,"type":"VEC2"},{"bufferView":25,"componentType":5121,"count":424,"max":[28,28,27,27],"min":[1,0,0,0],"normalized":false,"type":"VEC4"},{"bufferView":26,"componentType":5121,"count":424,"max":[27,0,0,0],"min":[0,0,0,0],"normalized":false,"type":"VEC4"},{"bufferView":27,"componentType":5126,"count":424,"max":[1.0,0.4446699619293213,0.3325907289981842,0.09593639522790909],"min":[0.334818571805954,0.0,0.0,0.0],"normalized":false,"type":"VEC4"},{"bufferView":28,"componentType":5126,"count":424,"max":[0.02195907197892666,0.0,0.0,0.0],"min":[0.0,0.0,0.0,0.0],"normalized":false,"type":"VEC4"},{"bufferView":29,"componentType":5123,"count":1278,"max":[423],"min":[0],"normalized":false,"type":"SCALAR"},{"bufferView":30,"componentType":5126,"count":424,"max":[0.053303107619285583,0.006018608808517456,0.07763445377349854],"min":[-0.05330272018909454,-0.009801030158996582,-0.04502790421247482],"normalized":false,"type":"VEC3"},{"componentType":5126,"count":424,"max":[0.0,0.0,0.0],"min":[0.0,0.0,0.0],"normalized":false,"type":"VEC3"},{"bufferView":31,"componentType":5126,"count":424,"max":[2.0,1.608352541923523,1.9932758808135986],"min":[-1.9999876022338867,-1.9497218132019043,-1.9843006134033203],"normalized":false,"type":"VEC3"},{"bufferView":32,"componentType":5126,"count":404,"max":[0.2399975061416626,0.3034406900405884,0.21877503395080566],"min":[-0.2399975061416626,-0.0019790511578321457,-0.13874055445194244],"normalized":false,"type":"VEC3"},{"bufferView":33,"componentType":5126,"count":404,"max":[0.9999961853027344,1.0,1.0,1.0],"min":[-1.0,-0.9975351691246033,-1.0,-1.0],"normalized":false,"type":"VEC4"},{"bufferView":34,"componentType":5126,"count":404,"max":[0.9992613196372986,0.9356420040130615,0.884934663772583],"min":[-0.9992622137069702,-1.0,-0.9927335381507874],"normalized":false,"type":"VEC3"},{"bufferView":35,"componentType":5126,"count":404,"max":[0.6509636640548706,0.9357010722160339],"min":[0.3139804005622864,0.7770687341690063],"normalized":false,"type":"VEC2"},{"bufferView":36,"componentType":5121,"count":404,"max":[30,30,0,0],"min":[24,0,0,0],"normalized":false,"type":"VEC4"},{"bufferView":37,"componentType":5126,"count":404,"max":[1.0,0.4989470839500427,0.0,0.0],"min":[0.5010528564453125,0.0,0.0,0.0],"normalized":false,"type":"VEC4"},{"bufferView":38,"componentType":5123,"count":1044,"max":[403],"min":[0],"normalized":false,"type":"SCALAR"},{"componentType":5126,"count":404,"max":[0.01861272007226944,0.0023613274097442627,0.01875755563378334],"min":[-0.01861272007226944,-0.003928005695343018,-0.018799155950546265],"normalized":false,"sparse":{"count":323,"indices":{"bufferView":39,"componentType":5123},"values":{"bufferView":40}},"type":"VEC3"},{"componentType":5126,"count":404,"max":[0.0,0.0,0.0],"min":[0.0,0.0,0.0],"normalized":false,"type":"VEC3"},{"bufferView":41,"componentType":5126,"count":404,"max":[1.9955451488494873,1.816752314567566,1.9999752044677734],"min":[-1.9954957962036133,-1.7638455629348755,-1.905990481376648],"normalized":false,"type":"VEC3"},{"bufferView":42,"componentType":5126,"count":442,"max":[0.9258993268013,1.658200740814209,0.08930271118879318],"min":[-0.9258993268013,1.5272151231765747,-0.056862685829401016],"normalized":false,"type":"VEC3"},{"bufferView":43,"componentType":5126,"count":442,"max":[0.9999858736991882,0.4812888503074646,0.8774803876876831,1.0],"min":[-0.9999886751174927,-0.45905348658561707,-1.0,-1.0],"normalized":false,"type":"VEC4"},{"bufferView":44,"componentType":5126,"count":442,"max":[0.9419627785682678,0.9922586679458618,0.9120309352874756],"min":[-0.9419552087783813,-0.9869457483291626,-0.9480829834938049],"normalized":false,"type":"VEC3"},{"bufferView":45,"componentType":5126,"count":442,"max":[0.6779755353927612,0.791607677936554],"min":[0.6753866672515869,0.7708163261413574],"normalized":false,"type":"VEC2"},{"bufferView":46,"componentType":5121,"count":442,"max":[22,22,22,22],"min":[9,0,0,0],"normalized":false,"type":"VEC4"},{"bufferView":47,"componentType":5126,"count":442,"max":[1.0,0.5,0.18944653868675232,0.11888666450977325],"min":[0.40977829694747925,0.0,0.0,0.0],"normalized":false,"type":"VEC4"},{"bufferView":48,"componentType":5123,"count":1320,"max":[441],"min":[0],"normalized":false,"type":"SCALAR"},{"componentType":5126,"count":442,"max":[0.0064421892166137695,0.004032492637634277,0.005071706138551235],"min":[-0.006431460380554199,-0.004791975021362305,-0.0025487765669822693],"normalized":false,"sparse":{"count":36,"indices":{"bufferView":49,"componentType":5123},"values":{"bufferView":50}},"type":"VEC3"},{"componentType":5126,"count":442,"max":[0.0,0.0,0.0],"min":[0.0,0.0,0.0],"normalized":false,"type":"VEC3"},{"bufferView":51,"componentType":5126,"count":442,"max":[1.8002314567565918,1.2290270328521729,1.9892396926879883],"min":[-1.9739404916763306,-0.9487496614456177,-1.8099385499954224],"normalized":false,"type":"VEC3"},{"bufferView":52,"componentType":5126,"count":87,"max":[3.5333333015441895],"min":[0.0],"normalized":false,"type":"SCALAR"},{"bufferView":53,"componentType":5126,"count":87,"max":[0.02517111599445343,-0.02075791358947754,0.08272209018468857],"min":[-0.05437789112329483,-0.030841588973999023,-0.036272935569286346],"normalized":false,"type":"VEC3"},{"bufferView":54,"componentType":5126,"count":81,"max":[3.5333333015441895],"min":[0.0],"normalized":false,"type":"SCALAR"},{"bufferView":55,"componentType":5126,"count":81,"max":[-0.008469888009130955,0.09870649129152298,0.009861323982477188,0.9999220967292786],"min":[-0.036707907915115356,-0.13994240760803223,-0.017666999250650406,0.9899454116821289],"normalized":false,"type":"VEC4"},{"bufferView":56,"componentType":5126,"count":84,"max":[8.333333015441895],"min":[0.0],"normalized":false,"type":"SCALAR"},{"bufferView":57,"componentType":5126,"count":84,"max":[-0.06736761331558228,-0.0015915632247924805,0.09611719846725464],"min":[-0.07937832176685333,-0.003139495849609375,0.062027692794799805],"normalized":false,"type":"VEC3"},{"bufferView":58,"componentType":5126,"count":48,"max":[8.333333015441895],"min":[0.0],"normalized":false,"type":"SCALAR"},{"bufferView":59,"componentType":5126,"count":48,"max":[-0.02868771180510521,-0.04042910784482956,-0.025264529511332512,0.99812251329422],"min":[-0.03844103962182999,-0.050876036286354065,-0.032448187470436096,0.9977553486824036],"normalized":false,"type":"VEC4"},{"bufferView":60,"componentType":5126,"count":72,"max":[2.4666666984558105],"min":[0.0],"normalized":false,"type":"SCALAR"},{"bufferView":61,"componentType":5126,"count":72,"max":[-0.019937166944146156,-0.026974201202392578,0.02943328581750393],"min":[-0.09122549742460251,-0.037869930267333984,-0.020079798996448517],"normalized":false,"type":"VEC3"},{"bufferView":62,"componentType":5126,"count":73,"max":[2.4666666984558105],"min":[0.0],"normalized":false,"type":"SCALAR"},{"bufferView":63,"componentType":5126,"count":73,"max":[0.0019996846094727516,0.046998243778944016,-0.012876130640506744,0.999767005443573],"min":[-0.014227303676307201,-0.0730019360780716,-0.03641539067029953,0.9971519708633423],"normalized":false,"type":"VEC4"},{"bufferView":64,"componentType":5126,"count":138,"max":[4.900000095367432],"min":[0.0],"normalized":false,"type":"SCALAR"},{"bufferView":65,"componentType":5126,"count":138,"max":[0.07861746847629547,-0.004164218902587891,0.3397836685180664],"min":[-0.2536384165287018,-0.01934659481048584,0.14215636253356934],"normalized":false,"type":"VEC3"},{"bufferView":66,"componentType":5126,"count":129,"max":[4.900000095367432],"min":[0.0],"normalized":false,"type":"SCALAR"},{"bufferView":67,"componentType":5126,"count":129,"max":[-0.01819949969649315,0.16520558297634125,0.01623508147895336,0.999221920967102],"min":[-0.07610027492046356,-0.048963747918605804,-0.021922653540968895,0.9858372211456299],"normalized":false,"type":"VEC4"},{"bufferView":68,"componentType":5126,"count":1,"max":[0.0],"min":[0.0],"normalized":false,"type":"SCALAR"},{"bufferView":69,"componentType":5126,"count":1,"max":[0.0,0.0,0.0],"min":[0.0,0.0,0.0],"normalized":false,"type":"VEC3"},{"bufferView":70,"componentType":5126,"count":1,"max":[2.1855694143368964e-08,0.0,0.0,1.0],"min":[2.1855694143368964e-08,0.0,0.0,1.0],"normalized":false,"type":"VEC4"},{"bufferView":71,"componentType":5126,"count":35,"max":[1.1333333253860474],"min":[0.0],"normalized":false,"type":"SCALAR"},{"bufferView":72,"componentType":5126,"count":35,"max":[0.06816715747117996,-0.009560704231262207,-0.010788977146148682],"min":[-0.05429333820939064,-0.10252940654754639,-0.06907446682453156],"normalized":false,"type":"VEC3"},{"bufferView":73,"componentType":5126,"count":35,"max":[0.02811369299888611,0.07347337901592255,0.011751034297049046,0.9998871088027954],"min":[0.005403078626841307,-0.03644018992781639,-0.02310020849108696,0.9970206618309021],"normalized":false,"type":"VEC4"},{"bufferView":74,"componentType":5126,"count":75,"max":[2.5],"min":[0.0],"normalized":false,"type":"SCALAR"},{"bufferView":75,"componentType":5126,"count":75,"max":[0.2177332639694214,-0.05187487602233887,0.17664921283721924],"min":[-0.03619929403066635,-0.08095026016235352,0.06821860373020172],"normalized":false,"type":"VEC3"},{"bufferView":76,"componentType":5126,"count":76,"max":[2.5],"min":[0.0],"normalized":false,"type":"SCALAR"},{"bufferView":77,"componentType":5126,"count":76,"max":[-0.02100623957812786,0.01245066337287426,0.06888554990291595,0.9996508359909058],"min":[-0.05901661515235901,-0.07215648889541626,-0.01467658020555973,0.9938920140266418],"normalized":false,"type":"VEC4"}],"animations":[{"channels":[{"sampler":0,"target":{"node":4,"path":"translation"}},{"sampler":1,"target":{"node":4,"path":"rotation"}}],"name":"Male_Disappointed_mixamo_com","samplers":[{"input":54,"interpolation":"LINEAR","output":55},{"input":56,"interpolation":"LINEAR","output":57}]},{"channels":[{"sampler":0,"target":{"node":4,"path":"translation"}},{"sampler":1,"target":{"node":4,"path":"rotation"}}],"name":"Male_Idle_mixamo_com","samplers":[{"input":58,"interpolation":"LINEAR","output":59},{"input":60,"interpolation":"LINEAR","output":61}]},{"channels":[{"sampler":0,"target":{"node":4,"path":"translation"}},{"sampler":1,"target":{"node":4,"path":"rotation"}}],"name":"Male_PickingUpObject_mixamo_com","samplers":[{"input":62,"interpolation":"LINEAR","output":63},{"input":64,"interpolation":"LINEAR","output":65}]},{"channels":[{"sampler":0,"target":{"node":4,"path":"translation"}},{"sampler":1,"target":{"node":4,"path":"rotation"}}],"name":"Male_Register_mixamo_com","samplers":[{"input":66,"interpolation":"LINEAR","output":67},{"input":68,"interpolation":"LINEAR","output":69}]},{"channels":[{"sampler":0,"target":{"node":4,"path":"translation"}},{"sampler":1,"target":{"node":4,"path":"rotation"}}],"name":"Male_TPose_Male_TPose","samplers":[{"input":70,"interpolation":"LINEAR","output":71},{"input":70,"interpolation":"LINEAR","output":72}]},{"channels":[{"sampler":0,"target":{"node":4,"path":"translation"}},{"sampler":1,"target":{"node":4,"path":"rotation"}}],"name":"Male_Walking_mixamo_com","samplers":[{"input":73,"interpolation":"LINEAR","output":74},{"input":73,"interpolation":"LINEAR","output":75}]},{"channels":[{"sampler":0,"target":{"node":4,"path":"translation"}},{"sampler":1,"target":{"node":4,"path":"rotation"}}],"name":"Male_WalkingWithShoppingBag_mixamo_com","samplers":[{"input":76,"interpolation":"LINEAR","output":77},{"input":78,"interpolation":"LINEAR","output":79}]}],"asset":{"generator":"Godot Engine v4.7.1.stable.steam@a13da4feb8d8aefc283c3763d33a2f170a18d541","version":"2.0"},"bufferViews":[{"buffer":0,"byteLength":1984},{"buffer":0,"byteLength":7404,"byteOffset":1984,"byteStride":12,"target":34962},{"buffer":0,"byteLength":9872,"byteOffset":9388,"byteStride":16,"target":34962},{"buffer":0,"byteLength":7404,"byteOffset":19260,"byteStride":12,"target":34962},{"buffer":0,"byteLength":4936,"byteOffset":26664,"byteStride":8,"target":34962},{"buffer":0,"byteLength":2468,"byteOffset":31600,"byteStride":4,"target":34962},{"buffer":0,"byteLength":2468,"byteOffset":34068,"byteStride":4,"target":34962},{"buffer":0,"byteLength":9872,"byteOffset":36536,"byteStride":16,"target":34962},{"buffer":0,"byteLength":9872,"byteOffset":46408,"byteStride":16,"target":34962},{"buffer":0,"byteLength":3000,"byteOffset":56280,"target":34963},{"buffer":0,"byteLength":10368,"byteOffset":59280,"byteStride":12,"target":34962},{"buffer":0,"byteLength":13824,"byteOffset":69648,"byteStride":16,"target":34962},{"buffer":0,"byteLength":10368,"byteOffset":83472,"byteStride":12,"target":34962},{"buffer":0,"byteLength":6912,"byteOffset":93840,"byteStride":8,"target":34962},{"buffer":0,"byteLength":3456,"byteOffset":100752,"byteStride":4,"target":34962},{"buffer":0,"byteLength":3456,"byteOffset":104208,"byteStride":4,"target":34962},{"buffer":0,"byteLength":13824,"byteOffset":107664,"byteStride":16,"target":34962},{"buffer":0,"byteLength":13824,"byteOffset":121488,"byteStride":16,"target":34962},{"buffer":0,"byteLength":5280,"byteOffset":135312,"target":34963},{"buffer":0,"byteLength":10368,"byteOffset":140592,"byteStride":12,"target":34962},{"buffer":0,"byteLength":10368,"byteOffset":150960,"byteStride":12,"target":34962},{"buffer":0,"byteLength":5088,"byteOffset":161328,"byteStride":12,"target":34962},{"buffer":0,"byteLength":6784,"byteOffset":166416,"byteStride":16,"target":34962},{"buffer":0,"byteLength":5088,"byteOffset":173200,"byteStride":12,"target":34962},{"buffer":0,"byteLength":3392,"byteOffset":178288,"byteStride":8,"target":34962},{"buffer":0,"byteLength":1696,"byteOffset":181680,"byteStride":4,"target":34962},{"buffer":0,"byteLength":1696,"byteOffset":183376,"byteStride":4,"target":34962},{"buffer":0,"byteLength":6784,"byteOffset":185072,"byteStride":16,"target":34962},{"buffer":0,"byteLength":6784,"byteOffset":191856,"byteStride":16,"target":34962},{"buffer":0,"byteLength":2556,"byteOffset":198640,"target":34963},{"buffer":0,"byteLength":5088,"byteOffset":201196,"byteStride":12,"target":34962},{"buffer":0,"byteLength":5088,"byteOffset":206284,"byteStride":12,"target":34962},{"buffer":0,"byteLength":4848,"byteOffset":211372,"byteStride":12,"target":34962},{"buffer":0,"byteLength":6464,"byteOffset":216220,"byteStride":16,"target":34962},{"buffer":0,"byteLength":4848,"byteOffset":222684,"byteStride":12,"target":34962},{"buffer":0,"byteLength":3232,"byteOffset":227532,"byteStride":8,"target":34962},{"buffer":0,"byteLength":1616,"byteOffset":230764,"byteStride":4,"target":34962},{"buffer":0,"byteLength":6464,"byteOffset":232380,"byteStride":16,"target":34962},{"buffer":0,"byteLength":2088,"byteOffset":238844,"target":34963},{"buffer":0,"byteLength":646,"byteOffset":240932},{"buffer":0,"byteLength":3876,"byteOffset":241580},{"buffer":0,"byteLength":4848,"byteOffset":245456,"byteStride":12,"target":34962},{"buffer":0,"byteLength":5304,"byteOffset":250304,"byteStride":12,"target":34962},{"buffer":0,"byteLength":7072,"byteOffset":255608,"byteStride":16,"target":34962},{"buffer":0,"byteLength":5304,"byteOffset":262680,"byteStride":12,"target":34962},{"buffer":0,"byteLength":3536,"byteOffset":267984,"byteStride":8,"target":34962},{"buffer":0,"byteLength":1768,"byteOffset":271520,"byteStride":4,"target":34962},{"buffer":0,"byteLength":7072,"byteOffset":273288,"byteStride":16,"target":34962},{"buffer":0,"byteLength":2640,"byteOffset":280360,"target":34963},{"buffer":0,"byteLength":72,"byteOffset":283000},{"buffer":0,"byteLength":432,"byteOffset":283072},{"buffer":0,"byteLength":5304,"byteOffset":283504,"byteStride":12,"target":34962},{"buffer":0,"byteLength":348,"byteOffset":288808},{"buffer":0,"byteLength":1044,"byteOffset":289156},{"buffer":0,"byteLength":324,"byteOffset":290200},{"buffer":0,"byteLength":1296,"byteOffset":290524},{"buffer":0,"byteLength":336,"byteOffset":291820},{"buffer":0,"byteLength":1008,"byteOffset":292156},{"buffer":0,"byteLength":192,"byteOffset":293164},{"buffer":0,"byteLength":768,"byteOffset":293356},{"buffer":0,"byteLength":288,"byteOffset":294124},{"buffer":0,"byteLength":864,"byteOffset":294412},{"buffer":0,"byteLength":292,"byteOffset":295276},{"buffer":0,"byteLength":1168,"byteOffset":295568},{"buffer":0,"byteLength":552,"byteOffset":296736},{"buffer":0,"byteLength":1656,"byteOffset":297288},{"buffer":0,"byteLength":516,"byteOffset":298944},{"buffer":0,"byteLength":2064,"byteOffset":299460},{"buffer":0,"byteLength":4,"byteOffset":301524},{"buffer":0,"byteLength":12,"byteOffset":301528},{"buffer":0,"byteLength":16,"byteOffset":301540},{"buffer":0,"byteLength":140,"byteOffset":301556},{"buffer":0,"byteLength":420,"byteOffset":301696},{"buffer":0,"byteLength":560,"byteOffset":302116},{"buffer":0,"byteLength":300,"byteOffset":302676},{"buffer":0,"byteLength":900,"byteOffset":302976},{"buffer":0,"byteLength":304,"byteOffset":303876},{"buffer":0,"byteLength":1216,"byteOffset":304180}],"buffers":[{"byteLength":305396,"uri":"male_character_model0.bin"}],"extensionsUsed":["GODOT_single_root","KHR_materials_emissive_strength"],"images":[{"name":"Atlas_1A_D 1","uri":"textures%2FAtlas_1A_D%201.png"}],"materials":[{"emissiveFactor":[1.0,1.0,1.0],"extensions":{"KHR_materials_emissive_strength":{"emissiveStrength":0.0}},"name":"Atlas_1A_D","pbrMetallicRoughness":{"baseColorFactor":[1.0,1.0,1.0,1.0],"baseColorTexture":{"index":0},"metallicFactor":0.0,"roughnessFactor":1.0}}],"meshes":[{"name":"Plane_5210","primitives":[{"attributes":{"JOINTS_0":5,"JOINTS_1":6,"NORMAL":3,"POSITION":1,"TANGENT":2,"TEXCOORD_0":4,"WEIGHTS_0":7,"WEIGHTS_1":8},"indices":9,"material":0,"mode":4}]},{"extras":{"targetNames":["Fat"]},"name":"Plane_4259","primitives":[{"attributes":{"JOINTS_0":14,"JOINTS_1":15,"NORMAL":12,"POSITION":10,"TANGENT":11,"TEXCOORD_0":13,"WEIGHTS_0":16,"WEIGHTS_1":17},"indices":18,"material":0,"mode":4,"targets":[{"NORMAL":20,"POSITION":19,"TANGENT":21}]}],"weights":[0.0]},{"extras":{"targetNames":["Fat"]},"name":"Plane_4258","primitives":[{"attributes":{"JOINTS_0":26,"JOINTS_1":27,"NORMAL":24,"POSITION":22,"TANGENT":23,"TEXCOORD_0":25,"WEIGHTS_0":28,"WEIGHTS_1":29},"indices":30,"material":0,"mode":4,"targets":[{"NORMAL":32,"POSITION":31,"TANGENT":33}]}],"weights":[0.0]},{"extras":{"targetNames":["Fat"]},"name":"Plane_039","primitives":[{"attributes":{"JOINTS_0":38,"NORMAL":36,"POSITION":34,"TANGENT":35,"TEXCOORD_0":37,"WEIGHTS_0":39},"indices":40,"material":0,"mode":4,"targets":[{"NORMAL":42,"POSITION":41,"TANGENT":43}]}],"weights":[0.0]},{"extras":{"targetNames":["Fat"]},"name":"Plane_4260","primitives":[{"attributes":{"JOINTS_0":48,"NORMAL":46,"POSITION":44,"TANGENT":45,"TEXCOORD_0":47,"WEIGHTS_0":49},"indices":50,"material":0,"mode":4,"targets":[{"NORMAL":52,"POSITION":51,"TANGENT":53}]}],"weights":[0.0]}],"nodes":[{"children":[1,2,3,4],"name":"TCP_Male_Character_01"},{"name":"TCP_Male_Accessories","rotation":[0.7071068286895752,0.0,0.0,0.7071067094802856]},{"name":"TCP_Male_Hats","rotation":[0.7071068286895752,0.0,0.0,0.7071067094802856]},{"name":"TCP_Male_Hairstyles"},{"children":[5,43,44,45,46,47],"name":"TCP_Male_Armature"},{"children":[6],"name":"Root"},{"children":[7,33,38],"name":"Hips","translation":[-5.271236958037662e-08,1.2063684463500977,0.0027475100941956043]},{"children":[8],"name":"Spine","rotation":[0.0003799833357334137,1.0222196578979492e-05,-4.172325134277344e-07,0.9999999403953552],"translation":[3.592070862978858e-09,0.056920409202575684,-0.0007980708032846451]},{"children":[9],"name":"Chest","translation":[-1.572786487713529e-07,0.12637248635292053,1.7669630381078605e-07]},{"children":[10,13,23],"name":"UpperChest","translation":[-1.6333441976712493e-07,0.1546766608953476,-0.04865244776010513]},{"children":[11],"name":"Neck","scale":[1.0000205039978027,0.9999999403953552,0.9999999403953552],"translation":[-2.1256023785554135e-07,0.16845203936100006,0.011668791063129902]},{"children":[12],"name":"Head","scale":[1.0000205039978027,1.000000238418579,1.0],"translation":[-1.3082373584438756e-07,0.09992769360542297,-0.007723325397819281]},{"name":"Head_end","rotation":[-0.020582033321261406,-2.463614237058209e-07,6.534981480399438e-07,0.9997881650924683],"scale":[1.0000206232070923,1.0000001192092896,0.9999998211860657],"translation":[-1.5036526690437313e-07,0.11518313735723495,-0.004744422156363726]},{"children":[14],"name":"LeftShoulder","rotation":[0.4999999403953552,0.5000001788139343,0.5000000596046448,-0.4999998211860657],"scale":[1.0000158548355103,0.9999799132347107,1.0000038146972656],"translation":[-1.6896336774152587e-07,0.15467672049999237,-0.011540205217897892]},{"children":[15],"name":"LeftUpperArm","rotation":[-0.001986905699595809,0.999760091304779,0.0012522340985015035,0.021778728812932968],"scale":[1.0000065565109253,0.9999803304672241,1.000006914138794],"translation":[-0.003064874792471528,0.20593687891960144,-0.055231012403964996]},{"children":[16],"name":"LeftLowerArm","rotation":[0.0054730623960494995,-0.703777551651001,-0.0020943605341017246,0.7103962898254395],"translation":[0.02934928424656391,0.21415649354457855,0.025531547144055367]},{"children":[17,20],"name":"LeftHand","rotation":[0.0,0.7071067690849304,0.0,0.7071067690849304],"translation":[-0.01629810407757759,0.2807779312133789,0.08839339017868042]},{"children":[18],"name":"Fingers_L","rotation":[0.06937171518802643,-0.6462419629096985,-0.11190205067396164,0.7516893744468689],"scale":[1.0000017881393433,1.0000195503234863,1.000000238418579],"translation":[-0.02349783293902874,0.11711366474628448,-0.007447037845849991]},{"children":[19],"name":"Fingertips_L","rotation":[-0.03669041022658348,0.05611306428909302,-0.18478861451148987,0.9804888367652893],"translation":[-8.058141531819274e-08,0.04195437580347061,-2.7172573524580912e-08]},{"name":"Fingertips_L_end","translation":[-3.106800594565584e-09,0.06540984660387039,0.0]},{"children":[21],"name":"Thumb_L","rotation":[-0.312027245759964,0.8846673965454102,0.3436966836452484,-0.04330432042479515],"scale":[1.0000009536743164,1.0000202655792236,1.000001072883606],"translation":[-0.02418760024011135,0.005322421435266733,0.024214796721935272]},{"children":[22],"name":"Thumb_Tip_L","rotation":[-0.10484499484300613,0.6283377408981323,0.20932553708553314,0.7418773770332336],"translation":[7.471940399739196e-09,0.06159862503409386,-9.137362866340482e-08]},{"name":"Thumb_Tip_L_end","translation":[-2.6076327763746576e-09,0.08749764412641525,-9.61564605717058e-09]},{"children":[24],"name":"RightShoulder","rotation":[-0.5000000596046448,0.5000000596046448,0.4999999403953552,0.4999999403953552],"scale":[1.0000159740447998,0.9999800324440002,1.000003695487976],"translation":[-1.6896336774152587e-07,0.15467672049999237,-0.011540205217897892]},{"children":[25],"name":"RightUpperArm","rotation":[0.001988232135772705,0.9997601509094238,0.0012517570285126567,-0.02177661471068859],"scale":[1.0000052452087402,0.9999837279319763,1.0000038146972656],"translation":[0.003064920427277684,0.2059367597103119,-0.05523035675287247]},{"children":[26],"name":"RightLowerArm","rotation":[0.005473158322274685,0.7037785053253174,0.0020915267523378134,0.710395336151123],"translation":[-0.02934855781495571,0.21415629982948303,0.025530630722641945]},{"children":[27,30],"name":"RightHand","rotation":[0.0,-0.7071067690849304,0.0,0.7071067690849304],"translation":[0.01629815623164177,0.2807777225971222,0.08839226514101028]},{"children":[28],"name":"Fingers_R","rotation":[0.0693698301911354,0.6462445259094238,0.1119048148393631,0.7516869306564331],"scale":[1.0000016689300537,1.0000196695327759,1.000000238418579],"translation":[0.023497790098190308,0.11711381375789642,-0.007447597570717335]},{"children":[29],"name":"Fingertips_R","rotation":[-0.03749087080359459,-0.051863253116607666,0.18462611734867096,0.9807231426239014],"translation":[-1.371079747514159e-07,0.041954368352890015,-3.25488720420708e-08]},{"name":"Fingertips_R_end","translation":[-4.568824873985022e-09,0.0654098391532898,9.746826679091214e-10]},{"children":[31],"name":"Thumb_R","rotation":[0.3120293617248535,0.8846672773361206,0.3436950445175171,0.04330429807305336],"scale":[1.0000007152557373,1.0000203847885132,1.000001072883606],"translation":[0.02418767847120762,0.005322489887475967,0.02421453967690468]},{"children":[32],"name":"Thumb_Tip_R","rotation":[-0.10484819114208221,-0.6283364295959473,-0.2093275636434555,0.7418774366378784],"translation":[-3.2259269033829696e-08,0.06159862503409386,-1.7005500296818354e-07]},{"name":"Thumb_Tip_R_end","translation":[-1.955721140589617e-09,0.08749748021364212,6.193116686148414e-09]},{"children":[34],"name":"LeftUpperLeg","rotation":[-0.0004816056170966476,-2.1602962078759447e-05,0.9999997615814209,0.0004647076711989939],"translation":[0.09268298000097275,-0.06982088088989258,2.0202112864353694e-05]},{"children":[35],"name":"LeftLowerLeg","rotation":[-0.0008032061741687357,0.9999996423721313,-2.9331069526961073e-05,-0.0003653434105217457],"translation":[-0.02939477562904358,0.5121470093727112,-0.021859154105186462]},{"children":[36],"name":"LeftFoot","rotation":[-0.00035951228346675634,-0.7070710062980652,0.7071419954299927,-0.0008384296088479459],"translation":[0.027779806405305862,0.5291750431060791,0.056528400629758835]},{"children":[37],"name":"LeftToes","rotation":[0.0,1.0,0.0,0.0],"translation":[-0.022099114954471588,0.21635477244853973,-0.08158519119024277]},{"name":"Toes_L_end","rotation":[0.1569666862487793,0.9876039028167725,5.0094563164293504e-08,6.45426183609743e-08],"translation":[0.03675777465105057,0.11271531134843826,1.413314887344086e-08]},{"children":[39],"name":"RightUpperLeg","rotation":[0.000481337308883667,-2.164021134376526e-05,0.9999997615814209,-0.0004640035331249237],"translation":[-0.09268287569284439,-0.06982015818357468,2.0109253455302678e-05]},{"children":[40],"name":"RightLowerLeg","rotation":[0.0008027776493690908,0.9999996423721313,-2.940929880423937e-05,0.00036513624945655465],"translation":[0.02939414046704769,0.512147068977356,-0.021861884742975235]},{"children":[41],"name":"RightFoot","rotation":[0.0003590475535020232,-0.7070707082748413,0.7071422934532166,0.000838062260299921],"translation":[-0.027779972180724144,0.5291752815246582,0.05652567744255066]},{"children":[42],"name":"RightToes","rotation":[0.0,1.0,0.0,0.0],"translation":[0.022099245339632034,0.21635469794273376,-0.08158530294895172]},{"name":"Toes_R_end","rotation":[-0.15696683526039124,0.9876039028167725,2.1148665041437198e-08,3.813123683471531e-08],"translation":[-0.036757804453372955,0.11271526664495468,3.533287218360215e-09]},{"mesh":0,"name":"TCP_Male_Head_01A","skin":0},{"mesh":1,"name":"TCP_Male_Jacket_01A","skin":0},{"mesh":2,"name":"TCP_Male_Pants_01A","skin":0},{"mesh":3,"name":"TCP_Male_Shoes_01A","skin":0},{"mesh":4,"name":"TCP_Male_Skin_01A","skin":0}],"samplers":[{"magFilter":9729,"minFilter":9987,"wrapS":10497,"wrapT":10497}],"scene":0,"scenes":[{"nodes":[0]}],"skins":[{"inverseBindMatrices":0,"joints":[5,6,7,8,9,10,11,13,14,15,16,17,18,20,21,23,24,25,26,27,28,30,31,33,34,35,36,38,39,40,41],"name":"Skin"}],"textures":[{"sampler":0,"source":0}]}