{"accessors":[{"bufferView":0,"componentType":5126,"count":144,"max":[10.525860786437988,12.524650573730469,-0.5999987125396729],"min":[-10.525858879089355,-12.524650573730469,-26.300003051757813],"normalized":false,"type":"VEC3"},{"bufferView":1,"componentType":5126,"count":144,"max":[1.0,0.0,-1.5259021893143654e-05,1.0],"min":[-1.0,0.0,-1.5259021893143654e-05,1.0],"normalized":false,"type":"VEC4"},{"bufferView":2,"componentType":5126,"count":144,"max":[1.0,1.0,-1.5259021893143654e-05],"min":[-1.0,-1.0,-1.5259021893143654e-05],"normalized":false,"type":"VEC3"},{"bufferView":3,"componentType":5126,"count":144,"max":[0.48275476694107056,0.9952902793884277],"min":[0.2591288089752197,0.7600719928741455],"normalized":false,"type":"VEC2"},{"bufferView":4,"componentType":5121,"count":216,"max":[143],"min":[0],"normalized":false,"type":"SCALAR"}],"asset":{"generator":"Godot Engine v4.7.1.stable.steam@a13da4feb8d8aefc283c3763d33a2f170a18d541","version":"2.0"},"bufferViews":[{"buffer":0,"byteLength":1728,"byteStride":12,"target":34962},{"buffer":0,"byteLength":2304,"byteOffset":1728,"byteStride":16,"target":34962},{"buffer":0,"byteLength":1728,"byteOffset":4032,"byteStride":12,"target":34962},{"buffer":0,"byteLength":1152,"byteOffset":5760,"byteStride":8,"target":34962},{"buffer":0,"byteLength":216,"byteOffset":6912,"target":34963}],"buffers":[{"byteLength":7128,"uri":"window_lights_13d0.bin"}],"extensionsUsed":["GODOT_single_root"],"images":[{"name":"Building_13A_D","uri":"textures%2FBuilding_13A_D.png"}],"materials":[{"doubleSided":true,"name":"Skyscraper_2A_D_001","pbrMetallicRoughness":{"baseColorFactor":[1.0,1.0,1.0,1.0],"baseColorTexture":{"index":0},"metallicFactor":0.0,"roughnessFactor":0.690034806728363}}],"meshes":[{"name":"PlayerBuilding_Mesh_003","primitives":[{"attributes":{"NORMAL":2,"POSITION":0,"TANGENT":1,"TEXCOORD_0":3},"indices":4,"material":0,"mode":4}]}],"nodes":[{"children":[1],"name":"Window_Lights_13D"},{"mesh":0,"name":"Window_Lights_13D2"}],"samplers":[{"magFilter":9729,"minFilter":9987,"wrapS":10497,"wrapT":10497}],"scene":0,"scenes":[{"nodes":[0]}],"textures":[{"sampler":0,"source":0}]}